<?xml version="1.0" encoding="utf-8" standalone="no"?>
<!DOCTYPE svg PUBLIC "-//W3C//DTD SVG 1.1//EN"
  "http://www.w3.org/Graphics/SVG/1.1/DTD/svg11.dtd">
<svg xmlns:xlink="http://www.w3.org/1999/xlink" width="432pt" height="288pt" viewBox="0 0 432 288" xmlns="http://www.w3.org/2000/svg" version="1.1">
 <metadata>
  <rdf:RDF xmlns:dc="http://purl.org/dc/elements/1.1/" xmlns:cc="http://creativecommons.org/ns#" xmlns:rdf="http://www.w3.org/1999/02/22-rdf-syntax-ns#">
   <cc:Work>
    <dc:type rdf:resource="http://purl.org/dc/dcmitype/StillImage"/>
    <dc:date>2024-03-18T08:48:20.652653</dc:date>
    <dc:format>image/svg+xml</dc:format>
    <dc:creator>
     <cc:Agent>
      <dc:title>Matplotlib v3.7.1, https://matplotlib.org/</dc:title>
     </cc:Agent>
    </dc:creator>
   </cc:Work>
  </rdf:RDF>
 </metadata>
 <defs>
  <style type="text/css">*{stroke-linejoin: round; stroke-linecap: butt}</style>
 </defs>
 <g id="figure_1">
  <g id="patch_1">
   <path d="M 0 288 
L 432 288 
L 432 0 
L 0 0 
z
" style="fill: #ffffff"/>
  </g>
  <g id="axes_1">
   <g id="patch_2">
    <path d="M 54 252 
L 388.8 252 
L 388.8 34.56 
L 54 34.56 
z
" style="fill: #ffffff"/>
   </g>
   <g id="matplotlib.axis_1">
    <g id="xtick_1">
     <g id="line2d_1">
      <defs>
       <path id="m544bf6aa67" d="M 0 0 
L 0 3.5 
" style="stroke: #000000; stroke-width: 0.8"/>
      </defs>
      <g>
       <use xlink:href="#m544bf6aa67" x="69.218182" y="252" style="stroke: #000000; stroke-width: 0.8"/>
      </g>
     </g>
     <g id="text_1">
      <!-- 0 -->
      <g transform="translate(66.036932 266.598437) scale(0.1 -0.1)">
       <defs>
        <path id="DejaVuSans-30" d="M 2034 4250 
Q 1547 4250 1301 3770 
Q 1056 3291 1056 2328 
Q 1056 1369 1301 889 
Q 1547 409 2034 409 
Q 2525 409 2770 889 
Q 3016 1369 3016 2328 
Q 3016 3291 2770 3770 
Q 2525 4250 2034 4250 
z
M 2034 4750 
Q 2819 4750 3233 4129 
Q 3647 3509 3647 2328 
Q 3647 1150 3233 529 
Q 2819 -91 2034 -91 
Q 1250 -91 836 529 
Q 422 1150 422 2328 
Q 422 3509 836 4129 
Q 1250 4750 2034 4750 
z
" transform="scale(0.015625)"/>
       </defs>
       <use xlink:href="#DejaVuSans-30"/>
      </g>
     </g>
    </g>
    <g id="xtick_2">
     <g id="line2d_2">
      <g>
       <use xlink:href="#m544bf6aa67" x="107.263636" y="252" style="stroke: #000000; stroke-width: 0.8"/>
      </g>
     </g>
     <g id="text_2">
      <!-- 5 -->
      <g transform="translate(104.082386 266.598437) scale(0.1 -0.1)">
       <defs>
        <path id="DejaVuSans-35" d="M 691 4666 
L 3169 4666 
L 3169 4134 
L 1269 4134 
L 1269 2991 
Q 1406 3038 1543 3061 
Q 1681 3084 1819 3084 
Q 2600 3084 3056 2656 
Q 3513 2228 3513 1497 
Q 3513 744 3044 326 
Q 2575 -91 1722 -91 
Q 1428 -91 1123 -41 
Q 819 9 494 109 
L 494 744 
Q 775 591 1075 516 
Q 1375 441 1709 441 
Q 2250 441 2565 725 
Q 2881 1009 2881 1497 
Q 2881 1984 2565 2268 
Q 2250 2553 1709 2553 
Q 1456 2553 1204 2497 
Q 953 2441 691 2322 
L 691 4666 
z
" transform="scale(0.015625)"/>
       </defs>
       <use xlink:href="#DejaVuSans-35"/>
      </g>
     </g>
    </g>
    <g id="xtick_3">
     <g id="line2d_3">
      <g>
       <use xlink:href="#m544bf6aa67" x="145.309091" y="252" style="stroke: #000000; stroke-width: 0.8"/>
      </g>
     </g>
     <g id="text_3">
      <!-- 10 -->
      <g transform="translate(138.946591 266.598437) scale(0.1 -0.1)">
       <defs>
        <path id="DejaVuSans-31" d="M 794 531 
L 1825 531 
L 1825 4091 
L 703 3866 
L 703 4441 
L 1819 4666 
L 2450 4666 
L 2450 531 
L 3481 531 
L 3481 0 
L 794 0 
L 794 531 
z
" transform="scale(0.015625)"/>
       </defs>
       <use xlink:href="#DejaVuSans-31"/>
       <use xlink:href="#DejaVuSans-30" x="63.623047"/>
      </g>
     </g>
    </g>
    <g id="xtick_4">
     <g id="line2d_4">
      <g>
       <use xlink:href="#m544bf6aa67" x="183.354545" y="252" style="stroke: #000000; stroke-width: 0.8"/>
      </g>
     </g>
     <g id="text_4">
      <!-- 15 -->
      <g transform="translate(176.992045 266.598437) scale(0.1 -0.1)">
       <use xlink:href="#DejaVuSans-31"/>
       <use xlink:href="#DejaVuSans-35" x="63.623047"/>
      </g>
     </g>
    </g>
    <g id="xtick_5">
     <g id="line2d_5">
      <g>
       <use xlink:href="#m544bf6aa67" x="221.4" y="252" style="stroke: #000000; stroke-width: 0.8"/>
      </g>
     </g>
     <g id="text_5">
      <!-- 20 -->
      <g transform="translate(215.0375 266.598437) scale(0.1 -0.1)">
       <defs>
        <path id="DejaVuSans-32" d="M 1228 531 
L 3431 531 
L 3431 0 
L 469 0 
L 469 531 
Q 828 903 1448 1529 
Q 2069 2156 2228 2338 
Q 2531 2678 2651 2914 
Q 2772 3150 2772 3378 
Q 2772 3750 2511 3984 
Q 2250 4219 1831 4219 
Q 1534 4219 1204 4116 
Q 875 4013 500 3803 
L 500 4441 
Q 881 4594 1212 4672 
Q 1544 4750 1819 4750 
Q 2544 4750 2975 4387 
Q 3406 4025 3406 3419 
Q 3406 3131 3298 2873 
Q 3191 2616 2906 2266 
Q 2828 2175 2409 1742 
Q 1991 1309 1228 531 
z
" transform="scale(0.015625)"/>
       </defs>
       <use xlink:href="#DejaVuSans-32"/>
       <use xlink:href="#DejaVuSans-30" x="63.623047"/>
      </g>
     </g>
    </g>
    <g id="xtick_6">
     <g id="line2d_6">
      <g>
       <use xlink:href="#m544bf6aa67" x="259.445455" y="252" style="stroke: #000000; stroke-width: 0.8"/>
      </g>
     </g>
     <g id="text_6">
      <!-- 25 -->
      <g transform="translate(253.082955 266.598437) scale(0.1 -0.1)">
       <use xlink:href="#DejaVuSans-32"/>
       <use xlink:href="#DejaVuSans-35" x="63.623047"/>
      </g>
     </g>
    </g>
    <g id="xtick_7">
     <g id="line2d_7">
      <g>
       <use xlink:href="#m544bf6aa67" x="297.490909" y="252" style="stroke: #000000; stroke-width: 0.8"/>
      </g>
     </g>
     <g id="text_7">
      <!-- 30 -->
      <g transform="translate(291.128409 266.598437) scale(0.1 -0.1)">
       <defs>
        <path id="DejaVuSans-33" d="M 2597 2516 
Q 3050 2419 3304 2112 
Q 3559 1806 3559 1356 
Q 3559 666 3084 287 
Q 2609 -91 1734 -91 
Q 1441 -91 1130 -33 
Q 819 25 488 141 
L 488 750 
Q 750 597 1062 519 
Q 1375 441 1716 441 
Q 2309 441 2620 675 
Q 2931 909 2931 1356 
Q 2931 1769 2642 2001 
Q 2353 2234 1838 2234 
L 1294 2234 
L 1294 2753 
L 1863 2753 
Q 2328 2753 2575 2939 
Q 2822 3125 2822 3475 
Q 2822 3834 2567 4026 
Q 2313 4219 1838 4219 
Q 1578 4219 1281 4162 
Q 984 4106 628 3988 
L 628 4550 
Q 988 4650 1302 4700 
Q 1616 4750 1894 4750 
Q 2613 4750 3031 4423 
Q 3450 4097 3450 3541 
Q 3450 3153 3228 2886 
Q 3006 2619 2597 2516 
z
" transform="scale(0.015625)"/>
       </defs>
       <use xlink:href="#DejaVuSans-33"/>
       <use xlink:href="#DejaVuSans-30" x="63.623047"/>
      </g>
     </g>
    </g>
    <g id="xtick_8">
     <g id="line2d_8">
      <g>
       <use xlink:href="#m544bf6aa67" x="335.536364" y="252" style="stroke: #000000; stroke-width: 0.8"/>
      </g>
     </g>
     <g id="text_8">
      <!-- 35 -->
      <g transform="translate(329.173864 266.598437) scale(0.1 -0.1)">
       <use xlink:href="#DejaVuSans-33"/>
       <use xlink:href="#DejaVuSans-35" x="63.623047"/>
      </g>
     </g>
    </g>
    <g id="xtick_9">
     <g id="line2d_9">
      <g>
       <use xlink:href="#m544bf6aa67" x="373.581818" y="252" style="stroke: #000000; stroke-width: 0.8"/>
      </g>
     </g>
     <g id="text_9">
      <!-- 40 -->
      <g transform="translate(367.219318 266.598437) scale(0.1 -0.1)">
       <defs>
        <path id="DejaVuSans-34" d="M 2419 4116 
L 825 1625 
L 2419 1625 
L 2419 4116 
z
M 2253 4666 
L 3047 4666 
L 3047 1625 
L 3713 1625 
L 3713 1100 
L 3047 1100 
L 3047 0 
L 2419 0 
L 2419 1100 
L 313 1100 
L 313 1709 
L 2253 4666 
z
" transform="scale(0.015625)"/>
       </defs>
       <use xlink:href="#DejaVuSans-34"/>
       <use xlink:href="#DejaVuSans-30" x="63.623047"/>
      </g>
     </g>
    </g>
    <g id="text_10">
     <!-- Time (s) -->
     <g transform="translate(190.906641 284.075781) scale(0.15 -0.15)">
      <defs>
       <path id="DejaVuSans-54" d="M -19 4666 
L 3928 4666 
L 3928 4134 
L 2272 4134 
L 2272 0 
L 1638 0 
L 1638 4134 
L -19 4134 
L -19 4666 
z
" transform="scale(0.015625)"/>
       <path id="DejaVuSans-69" d="M 603 3500 
L 1178 3500 
L 1178 0 
L 603 0 
L 603 3500 
z
M 603 4863 
L 1178 4863 
L 1178 4134 
L 603 4134 
L 603 4863 
z
" transform="scale(0.015625)"/>
       <path id="DejaVuSans-6d" d="M 3328 2828 
Q 3544 3216 3844 3400 
Q 4144 3584 4550 3584 
Q 5097 3584 5394 3201 
Q 5691 2819 5691 2113 
L 5691 0 
L 5113 0 
L 5113 2094 
Q 5113 2597 4934 2840 
Q 4756 3084 4391 3084 
Q 3944 3084 3684 2787 
Q 3425 2491 3425 1978 
L 3425 0 
L 2847 0 
L 2847 2094 
Q 2847 2600 2669 2842 
Q 2491 3084 2119 3084 
Q 1678 3084 1418 2786 
Q 1159 2488 1159 1978 
L 1159 0 
L 581 0 
L 581 3500 
L 1159 3500 
L 1159 2956 
Q 1356 3278 1631 3431 
Q 1906 3584 2284 3584 
Q 2666 3584 2933 3390 
Q 3200 3197 3328 2828 
z
" transform="scale(0.015625)"/>
       <path id="DejaVuSans-65" d="M 3597 1894 
L 3597 1613 
L 953 1613 
Q 991 1019 1311 708 
Q 1631 397 2203 397 
Q 2534 397 2845 478 
Q 3156 559 3463 722 
L 3463 178 
Q 3153 47 2828 -22 
Q 2503 -91 2169 -91 
Q 1331 -91 842 396 
Q 353 884 353 1716 
Q 353 2575 817 3079 
Q 1281 3584 2069 3584 
Q 2775 3584 3186 3129 
Q 3597 2675 3597 1894 
z
M 3022 2063 
Q 3016 2534 2758 2815 
Q 2500 3097 2075 3097 
Q 1594 3097 1305 2825 
Q 1016 2553 972 2059 
L 3022 2063 
z
" transform="scale(0.015625)"/>
       <path id="DejaVuSans-20" transform="scale(0.015625)"/>
       <path id="DejaVuSans-28" d="M 1984 4856 
Q 1566 4138 1362 3434 
Q 1159 2731 1159 2009 
Q 1159 1288 1364 580 
Q 1569 -128 1984 -844 
L 1484 -844 
Q 1016 -109 783 600 
Q 550 1309 550 2009 
Q 550 2706 781 3412 
Q 1013 4119 1484 4856 
L 1984 4856 
z
" transform="scale(0.015625)"/>
       <path id="DejaVuSans-73" d="M 2834 3397 
L 2834 2853 
Q 2591 2978 2328 3040 
Q 2066 3103 1784 3103 
Q 1356 3103 1142 2972 
Q 928 2841 928 2578 
Q 928 2378 1081 2264 
Q 1234 2150 1697 2047 
L 1894 2003 
Q 2506 1872 2764 1633 
Q 3022 1394 3022 966 
Q 3022 478 2636 193 
Q 2250 -91 1575 -91 
Q 1294 -91 989 -36 
Q 684 19 347 128 
L 347 722 
Q 666 556 975 473 
Q 1284 391 1588 391 
Q 1994 391 2212 530 
Q 2431 669 2431 922 
Q 2431 1156 2273 1281 
Q 2116 1406 1581 1522 
L 1381 1569 
Q 847 1681 609 1914 
Q 372 2147 372 2553 
Q 372 3047 722 3315 
Q 1072 3584 1716 3584 
Q 2034 3584 2315 3537 
Q 2597 3491 2834 3397 
z
" transform="scale(0.015625)"/>
       <path id="DejaVuSans-29" d="M 513 4856 
L 1013 4856 
Q 1481 4119 1714 3412 
Q 1947 2706 1947 2009 
Q 1947 1309 1714 600 
Q 1481 -109 1013 -844 
L 513 -844 
Q 928 -128 1133 580 
Q 1338 1288 1338 2009 
Q 1338 2731 1133 3434 
Q 928 4138 513 4856 
z
" transform="scale(0.015625)"/>
      </defs>
      <use xlink:href="#DejaVuSans-54"/>
      <use xlink:href="#DejaVuSans-69" x="57.958984"/>
      <use xlink:href="#DejaVuSans-6d" x="85.742188"/>
      <use xlink:href="#DejaVuSans-65" x="183.154297"/>
      <use xlink:href="#DejaVuSans-20" x="244.677734"/>
      <use xlink:href="#DejaVuSans-28" x="276.464844"/>
      <use xlink:href="#DejaVuSans-73" x="315.478516"/>
      <use xlink:href="#DejaVuSans-29" x="367.578125"/>
     </g>
    </g>
   </g>
   <g id="matplotlib.axis_2">
    <g id="ytick_1">
     <g id="line2d_10">
      <defs>
       <path id="mfd854e68c1" d="M 0 0 
L -3.5 0 
" style="stroke: #000000; stroke-width: 0.8"/>
      </defs>
      <g>
       <use xlink:href="#mfd854e68c1" x="54" y="248.824033" style="stroke: #000000; stroke-width: 0.8"/>
      </g>
     </g>
     <g id="text_11">
      <!-- −2 -->
      <g transform="translate(32.257812 252.623252) scale(0.1 -0.1)">
       <defs>
        <path id="DejaVuSans-2212" d="M 678 2272 
L 4684 2272 
L 4684 1741 
L 678 1741 
L 678 2272 
z
" transform="scale(0.015625)"/>
       </defs>
       <use xlink:href="#DejaVuSans-2212"/>
       <use xlink:href="#DejaVuSans-32" x="83.789062"/>
      </g>
     </g>
    </g>
    <g id="ytick_2">
     <g id="line2d_11">
      <g>
       <use xlink:href="#mfd854e68c1" x="54" y="220.667609" style="stroke: #000000; stroke-width: 0.8"/>
      </g>
     </g>
     <g id="text_12">
      <!-- 0 -->
      <g transform="translate(40.6375 224.466828) scale(0.1 -0.1)">
       <use xlink:href="#DejaVuSans-30"/>
      </g>
     </g>
    </g>
    <g id="ytick_3">
     <g id="line2d_12">
      <g>
       <use xlink:href="#mfd854e68c1" x="54" y="192.511185" style="stroke: #000000; stroke-width: 0.8"/>
      </g>
     </g>
     <g id="text_13">
      <!-- 2 -->
      <g transform="translate(40.6375 196.310404) scale(0.1 -0.1)">
       <use xlink:href="#DejaVuSans-32"/>
      </g>
     </g>
    </g>
    <g id="ytick_4">
     <g id="line2d_13">
      <g>
       <use xlink:href="#mfd854e68c1" x="54" y="164.354761" style="stroke: #000000; stroke-width: 0.8"/>
      </g>
     </g>
     <g id="text_14">
      <!-- 4 -->
      <g transform="translate(40.6375 168.15398) scale(0.1 -0.1)">
       <use xlink:href="#DejaVuSans-34"/>
      </g>
     </g>
    </g>
    <g id="ytick_5">
     <g id="line2d_14">
      <g>
       <use xlink:href="#mfd854e68c1" x="54" y="136.198337" style="stroke: #000000; stroke-width: 0.8"/>
      </g>
     </g>
     <g id="text_15">
      <!-- 6 -->
      <g transform="translate(40.6375 139.997555) scale(0.1 -0.1)">
       <defs>
        <path id="DejaVuSans-36" d="M 2113 2584 
Q 1688 2584 1439 2293 
Q 1191 2003 1191 1497 
Q 1191 994 1439 701 
Q 1688 409 2113 409 
Q 2538 409 2786 701 
Q 3034 994 3034 1497 
Q 3034 2003 2786 2293 
Q 2538 2584 2113 2584 
z
M 3366 4563 
L 3366 3988 
Q 3128 4100 2886 4159 
Q 2644 4219 2406 4219 
Q 1781 4219 1451 3797 
Q 1122 3375 1075 2522 
Q 1259 2794 1537 2939 
Q 1816 3084 2150 3084 
Q 2853 3084 3261 2657 
Q 3669 2231 3669 1497 
Q 3669 778 3244 343 
Q 2819 -91 2113 -91 
Q 1303 -91 875 529 
Q 447 1150 447 2328 
Q 447 3434 972 4092 
Q 1497 4750 2381 4750 
Q 2619 4750 2861 4703 
Q 3103 4656 3366 4563 
z
" transform="scale(0.015625)"/>
       </defs>
       <use xlink:href="#DejaVuSans-36"/>
      </g>
     </g>
    </g>
    <g id="ytick_6">
     <g id="line2d_15">
      <g>
       <use xlink:href="#mfd854e68c1" x="54" y="108.041913" style="stroke: #000000; stroke-width: 0.8"/>
      </g>
     </g>
     <g id="text_16">
      <!-- 8 -->
      <g transform="translate(40.6375 111.841131) scale(0.1 -0.1)">
       <defs>
        <path id="DejaVuSans-38" d="M 2034 2216 
Q 1584 2216 1326 1975 
Q 1069 1734 1069 1313 
Q 1069 891 1326 650 
Q 1584 409 2034 409 
Q 2484 409 2743 651 
Q 3003 894 3003 1313 
Q 3003 1734 2745 1975 
Q 2488 2216 2034 2216 
z
M 1403 2484 
Q 997 2584 770 2862 
Q 544 3141 544 3541 
Q 544 4100 942 4425 
Q 1341 4750 2034 4750 
Q 2731 4750 3128 4425 
Q 3525 4100 3525 3541 
Q 3525 3141 3298 2862 
Q 3072 2584 2669 2484 
Q 3125 2378 3379 2068 
Q 3634 1759 3634 1313 
Q 3634 634 3220 271 
Q 2806 -91 2034 -91 
Q 1263 -91 848 271 
Q 434 634 434 1313 
Q 434 1759 690 2068 
Q 947 2378 1403 2484 
z
M 1172 3481 
Q 1172 3119 1398 2916 
Q 1625 2713 2034 2713 
Q 2441 2713 2670 2916 
Q 2900 3119 2900 3481 
Q 2900 3844 2670 4047 
Q 2441 4250 2034 4250 
Q 1625 4250 1398 4047 
Q 1172 3844 1172 3481 
z
" transform="scale(0.015625)"/>
       </defs>
       <use xlink:href="#DejaVuSans-38"/>
      </g>
     </g>
    </g>
    <g id="ytick_7">
     <g id="line2d_16">
      <g>
       <use xlink:href="#mfd854e68c1" x="54" y="79.885488" style="stroke: #000000; stroke-width: 0.8"/>
      </g>
     </g>
     <g id="text_17">
      <!-- 10 -->
      <g transform="translate(34.275 83.684707) scale(0.1 -0.1)">
       <use xlink:href="#DejaVuSans-31"/>
       <use xlink:href="#DejaVuSans-30" x="63.623047"/>
      </g>
     </g>
    </g>
    <g id="ytick_8">
     <g id="line2d_17">
      <g>
       <use xlink:href="#mfd854e68c1" x="54" y="51.729064" style="stroke: #000000; stroke-width: 0.8"/>
      </g>
     </g>
     <g id="text_18">
      <!-- 12 -->
      <g transform="translate(34.275 55.528283) scale(0.1 -0.1)">
       <use xlink:href="#DejaVuSans-31"/>
       <use xlink:href="#DejaVuSans-32" x="63.623047"/>
      </g>
     </g>
    </g>
    <g id="text_19">
     <!-- Concentration (mol/L) -->
     <g transform="translate(25.138281 225.256172) rotate(-90) scale(0.15 -0.15)">
      <defs>
       <path id="DejaVuSans-43" d="M 4122 4306 
L 4122 3641 
Q 3803 3938 3442 4084 
Q 3081 4231 2675 4231 
Q 1875 4231 1450 3742 
Q 1025 3253 1025 2328 
Q 1025 1406 1450 917 
Q 1875 428 2675 428 
Q 3081 428 3442 575 
Q 3803 722 4122 1019 
L 4122 359 
Q 3791 134 3420 21 
Q 3050 -91 2638 -91 
Q 1578 -91 968 557 
Q 359 1206 359 2328 
Q 359 3453 968 4101 
Q 1578 4750 2638 4750 
Q 3056 4750 3426 4639 
Q 3797 4528 4122 4306 
z
" transform="scale(0.015625)"/>
       <path id="DejaVuSans-6f" d="M 1959 3097 
Q 1497 3097 1228 2736 
Q 959 2375 959 1747 
Q 959 1119 1226 758 
Q 1494 397 1959 397 
Q 2419 397 2687 759 
Q 2956 1122 2956 1747 
Q 2956 2369 2687 2733 
Q 2419 3097 1959 3097 
z
M 1959 3584 
Q 2709 3584 3137 3096 
Q 3566 2609 3566 1747 
Q 3566 888 3137 398 
Q 2709 -91 1959 -91 
Q 1206 -91 779 398 
Q 353 888 353 1747 
Q 353 2609 779 3096 
Q 1206 3584 1959 3584 
z
" transform="scale(0.015625)"/>
       <path id="DejaVuSans-6e" d="M 3513 2113 
L 3513 0 
L 2938 0 
L 2938 2094 
Q 2938 2591 2744 2837 
Q 2550 3084 2163 3084 
Q 1697 3084 1428 2787 
Q 1159 2491 1159 1978 
L 1159 0 
L 581 0 
L 581 3500 
L 1159 3500 
L 1159 2956 
Q 1366 3272 1645 3428 
Q 1925 3584 2291 3584 
Q 2894 3584 3203 3211 
Q 3513 2838 3513 2113 
z
" transform="scale(0.015625)"/>
       <path id="DejaVuSans-63" d="M 3122 3366 
L 3122 2828 
Q 2878 2963 2633 3030 
Q 2388 3097 2138 3097 
Q 1578 3097 1268 2742 
Q 959 2388 959 1747 
Q 959 1106 1268 751 
Q 1578 397 2138 397 
Q 2388 397 2633 464 
Q 2878 531 3122 666 
L 3122 134 
Q 2881 22 2623 -34 
Q 2366 -91 2075 -91 
Q 1284 -91 818 406 
Q 353 903 353 1747 
Q 353 2603 823 3093 
Q 1294 3584 2113 3584 
Q 2378 3584 2631 3529 
Q 2884 3475 3122 3366 
z
" transform="scale(0.015625)"/>
       <path id="DejaVuSans-74" d="M 1172 4494 
L 1172 3500 
L 2356 3500 
L 2356 3053 
L 1172 3053 
L 1172 1153 
Q 1172 725 1289 603 
Q 1406 481 1766 481 
L 2356 481 
L 2356 0 
L 1766 0 
Q 1100 0 847 248 
Q 594 497 594 1153 
L 594 3053 
L 172 3053 
L 172 3500 
L 594 3500 
L 594 4494 
L 1172 4494 
z
" transform="scale(0.015625)"/>
       <path id="DejaVuSans-72" d="M 2631 2963 
Q 2534 3019 2420 3045 
Q 2306 3072 2169 3072 
Q 1681 3072 1420 2755 
Q 1159 2438 1159 1844 
L 1159 0 
L 581 0 
L 581 3500 
L 1159 3500 
L 1159 2956 
Q 1341 3275 1631 3429 
Q 1922 3584 2338 3584 
Q 2397 3584 2469 3576 
Q 2541 3569 2628 3553 
L 2631 2963 
z
" transform="scale(0.015625)"/>
       <path id="DejaVuSans-61" d="M 2194 1759 
Q 1497 1759 1228 1600 
Q 959 1441 959 1056 
Q 959 750 1161 570 
Q 1363 391 1709 391 
Q 2188 391 2477 730 
Q 2766 1069 2766 1631 
L 2766 1759 
L 2194 1759 
z
M 3341 1997 
L 3341 0 
L 2766 0 
L 2766 531 
Q 2569 213 2275 61 
Q 1981 -91 1556 -91 
Q 1019 -91 701 211 
Q 384 513 384 1019 
Q 384 1609 779 1909 
Q 1175 2209 1959 2209 
L 2766 2209 
L 2766 2266 
Q 2766 2663 2505 2880 
Q 2244 3097 1772 3097 
Q 1472 3097 1187 3025 
Q 903 2953 641 2809 
L 641 3341 
Q 956 3463 1253 3523 
Q 1550 3584 1831 3584 
Q 2591 3584 2966 3190 
Q 3341 2797 3341 1997 
z
" transform="scale(0.015625)"/>
       <path id="DejaVuSans-6c" d="M 603 4863 
L 1178 4863 
L 1178 0 
L 603 0 
L 603 4863 
z
" transform="scale(0.015625)"/>
       <path id="DejaVuSans-2f" d="M 1625 4666 
L 2156 4666 
L 531 -594 
L 0 -594 
L 1625 4666 
z
" transform="scale(0.015625)"/>
       <path id="DejaVuSans-4c" d="M 628 4666 
L 1259 4666 
L 1259 531 
L 3531 531 
L 3531 0 
L 628 0 
L 628 4666 
z
" transform="scale(0.015625)"/>
      </defs>
      <use xlink:href="#DejaVuSans-43"/>
      <use xlink:href="#DejaVuSans-6f" x="69.824219"/>
      <use xlink:href="#DejaVuSans-6e" x="131.005859"/>
      <use xlink:href="#DejaVuSans-63" x="194.384766"/>
      <use xlink:href="#DejaVuSans-65" x="249.365234"/>
      <use xlink:href="#DejaVuSans-6e" x="310.888672"/>
      <use xlink:href="#DejaVuSans-74" x="374.267578"/>
      <use xlink:href="#DejaVuSans-72" x="413.476562"/>
      <use xlink:href="#DejaVuSans-61" x="454.589844"/>
      <use xlink:href="#DejaVuSans-74" x="515.869141"/>
      <use xlink:href="#DejaVuSans-69" x="555.078125"/>
      <use xlink:href="#DejaVuSans-6f" x="582.861328"/>
      <use xlink:href="#DejaVuSans-6e" x="644.042969"/>
      <use xlink:href="#DejaVuSans-20" x="707.421875"/>
      <use xlink:href="#DejaVuSans-28" x="739.208984"/>
      <use xlink:href="#DejaVuSans-6d" x="778.222656"/>
      <use xlink:href="#DejaVuSans-6f" x="875.634766"/>
      <use xlink:href="#DejaVuSans-6c" x="936.816406"/>
      <use xlink:href="#DejaVuSans-2f" x="964.599609"/>
      <use xlink:href="#DejaVuSans-4c" x="998.291016"/>
      <use xlink:href="#DejaVuSans-29" x="1054.003906"/>
     </g>
    </g>
   </g>
   <g id="line2d_18">
    <path d="M 69.218182 220.667609 
L 70.74 220.233902 
L 71.500909 220.399556 
L 73.783636 221.630686 
L 74.544545 221.737764 
L 75.305455 221.589362 
L 76.066364 221.219115 
L 79.11 219.054368 
L 79.870909 218.760257 
L 80.631818 218.693699 
L 81.392727 218.876616 
L 82.153636 219.298147 
L 83.675455 220.66474 
L 85.197273 222.229441 
L 85.958182 222.887239 
L 86.719091 223.375722 
L 87.48 223.652789 
L 88.240909 223.697128 
L 89.001818 223.507903 
L 89.762727 223.102798 
L 91.284545 221.788098 
L 95.089091 217.820618 
L 96.610909 216.815747 
L 97.371818 216.523379 
L 98.132727 216.379107 
L 98.893636 216.387014 
L 99.654545 216.553636 
L 100.415455 216.890172 
L 101.176364 217.412213 
L 101.937273 218.135927 
L 102.698182 219.070912 
L 104.22 221.531744 
L 107.263636 227.320305 
L 108.024545 228.463323 
L 108.785455 229.308261 
L 109.546364 229.783017 
L 110.307273 229.832418 
L 111.068182 229.421636 
L 111.829091 228.538879 
L 112.59 227.197256 
L 113.350909 225.43552 
L 114.872727 220.928595 
L 117.916364 210.885756 
L 118.677273 208.83902 
L 119.438182 207.187095 
L 120.199091 206.006394 
L 120.96 205.35155 
L 121.720909 205.254161 
L 122.481818 205.722894 
L 123.242727 206.744659 
L 124.003636 208.286562 
L 124.764545 210.298347 
L 126.286364 215.460013 
L 128.569091 224.775717 
L 130.090909 230.928092 
L 131.612727 236.125221 
L 132.373636 238.125951 
L 133.134545 239.600967 
L 133.895455 240.453994 
L 134.656364 240.588097 
L 135.417273 239.907723 
L 136.178182 238.323327 
L 136.939091 235.758792 
L 137.7 232.160917 
L 138.460909 227.509154 
L 139.221818 221.823165 
L 140.743636 207.641873 
L 142.265455 190.569944 
L 147.591818 127.004872 
L 149.113636 112.168305 
L 150.635455 99.868327 
L 152.157273 90.204883 
L 152.918182 86.33322 
L 153.679091 83.065523 
L 154.44 80.3652 
L 155.200909 78.190225 
L 155.961818 76.494799 
L 156.722727 75.230833 
L 157.483636 74.349271 
L 158.244545 73.801222 
L 159.005455 73.538925 
L 159.766364 73.516541 
L 160.527273 73.690784 
L 162.049091 74.927764 
L 162.81 75.018552 
L 163.570909 74.977814 
L 164.331818 75.163799 
L 165.092727 75.758345 
L 165.853636 76.748833 
L 168.136364 80.432123 
L 168.897273 81.29881 
L 169.658182 81.804072 
L 170.419091 81.935603 
L 171.18 81.735433 
L 171.940909 81.284026 
L 174.984545 79.020644 
L 175.745455 78.786006 
L 176.506364 78.787992 
L 177.267273 79.030929 
L 178.028182 79.49247 
L 179.55 80.873495 
L 181.071818 82.403289 
L 181.832727 83.037757 
L 182.593636 83.497946 
L 183.354545 83.735683 
L 184.115455 83.721168 
L 184.876364 83.444778 
L 185.637273 82.917189 
L 186.398182 82.167922 
L 187.92 80.199051 
L 190.202727 77.027588 
L 190.963636 76.176609 
L 191.724545 75.522266 
L 192.485455 75.103753 
L 193.246364 74.945837 
L 194.007273 75.057932 
L 194.768182 75.434124 
L 195.529091 76.054088 
L 196.29 76.884758 
L 197.811818 78.996258 
L 200.094545 82.463639 
L 201.616364 84.327508 
L 202.377273 84.984947 
L 203.138182 85.415823 
L 203.899091 85.600084 
L 204.66 85.528497 
L 205.420909 85.202717 
L 206.181818 84.634955 
L 206.942727 83.84728 
L 208.464545 81.743318 
L 213.03 74.523178 
L 213.790909 73.716932 
L 214.551818 73.147055 
L 215.312727 72.849266 
L 216.073636 72.852886 
L 216.834545 73.180397 
L 217.595455 73.847233 
L 218.356364 74.861802 
L 219.117273 76.225713 
L 219.878182 77.934172 
L 221.4 82.336932 
L 222.921818 87.926936 
L 224.443636 94.502304 
L 226.726364 105.694823 
L 235.857273 152.740813 
L 238.14 162.755398 
L 240.422727 171.732756 
L 242.705455 179.704192 
L 244.988182 186.746427 
L 247.270909 192.950038 
L 249.553636 198.399914 
L 251.836364 203.166042 
L 254.119091 207.301825 
L 256.401818 210.847065 
L 258.684545 213.833217 
L 260.206364 215.527555 
L 261.728182 216.995095 
L 263.25 218.245749 
L 264.771818 219.290747 
L 266.293636 220.142825 
L 267.815455 220.81625 
L 270.098182 221.526082 
L 272.380909 221.927209 
L 274.663636 222.080709 
L 277.707273 222.005843 
L 281.511818 221.651148 
L 290.642727 220.694764 
L 295.208182 220.465205 
L 300.534545 220.420492 
L 311.948182 220.638645 
L 323.361818 220.722962 
L 373.581818 220.668801 
L 373.581818 220.668801 
" clip-path="url(#pa97fabedc3)" style="fill: none; stroke: #1f77b4; stroke-width: 1.5; stroke-linecap: square"/>
   </g>
   <g id="line2d_19">
    <path d="M 69.218182 220.667609 
L 129.33 220.568552 
L 130.851818 220.595524 
L 133.895455 221.086967 
L 134.656364 220.925945 
L 135.417273 220.512749 
L 136.939091 219.43855 
L 137.7 219.350042 
L 138.460909 219.924475 
L 139.982727 222.542635 
L 140.743636 223.196562 
L 141.504545 221.846886 
L 142.265455 217.273286 
L 143.026364 208.736987 
L 143.787273 196.285302 
L 145.309091 163.48226 
L 146.830909 129.544362 
L 147.591818 115.16231 
L 148.352727 103.369494 
L 149.113636 94.319555 
L 149.874545 87.85984 
L 150.635455 83.633326 
L 151.396364 81.176693 
L 152.157273 80.002296 
L 152.918182 79.658969 
L 153.679091 79.771016 
L 155.200909 80.333337 
L 155.961818 80.50171 
L 156.722727 80.533388 
L 158.244545 80.283349 
L 160.527273 79.798108 
L 162.049091 79.718309 
L 168.897273 79.89376 
L 173.462727 79.878028 
L 184.115455 79.886123 
L 219.878182 79.94984 
L 220.639091 80.141959 
L 221.4 80.588432 
L 222.160909 81.39958 
L 222.921818 82.680027 
L 223.682727 84.514534 
L 224.443636 86.956211 
L 225.204545 90.019225 
L 226.726364 97.866345 
L 228.248182 107.452059 
L 232.813636 138.140958 
L 234.335455 147.035166 
L 235.857273 154.924007 
L 237.379091 161.876183 
L 238.900909 168.03063 
L 241.183636 176.111337 
L 243.466364 183.22952 
L 245.749091 189.712868 
L 248.792727 197.597245 
L 251.075455 202.913521 
L 253.358182 207.617345 
L 254.88 210.366034 
L 256.401818 212.778989 
L 257.923636 214.841357 
L 259.445455 216.546689 
L 260.967273 217.899623 
L 262.489091 218.918871 
L 264.010909 219.638844 
L 265.532727 220.108283 
L 267.054545 220.385221 
L 269.337273 220.568488 
L 274.663636 220.639275 
L 293.686364 220.667877 
L 373.581818 220.667609 
L 373.581818 220.667609 
" clip-path="url(#pa97fabedc3)" style="fill: none; stroke: #ff7f0e; stroke-width: 1.5; stroke-linecap: square"/>
   </g>
   <g id="line2d_20">
    <path d="M 69.218182 220.667609 
L 69.979091 220.358453 
L 70.74 220.216628 
L 71.500909 220.541994 
L 73.022727 221.609128 
L 73.783636 221.808788 
L 74.544545 221.640827 
L 75.305455 221.15631 
L 77.588182 219.144465 
L 78.349091 218.747946 
L 79.11 218.646374 
L 79.870909 218.86754 
L 80.631818 219.390215 
L 82.153636 221.045215 
L 83.675455 222.784896 
L 84.436364 223.410491 
L 85.197273 223.765022 
L 85.958182 223.807305 
L 86.719091 223.530976 
L 87.48 222.961982 
L 88.240909 222.15317 
L 92.045455 217.285372 
L 92.806364 216.691057 
L 93.567273 216.348451 
L 94.328182 216.274685 
L 95.089091 216.468368 
L 95.85 216.912481 
L 96.610909 217.578368 
L 98.132727 219.428789 
L 100.415455 222.921668 
L 101.937273 225.276256 
L 103.459091 227.194959 
L 104.22 227.830885 
L 104.980909 228.163015 
L 105.741818 228.136249 
L 106.502727 227.712619 
L 107.263636 226.875886 
L 108.024545 225.633837 
L 108.785455 224.018659 
L 110.307273 219.91173 
L 113.350909 210.855062 
L 114.111818 209.072789 
L 114.872727 207.701326 
L 115.633636 206.826527 
L 116.394545 206.512203 
L 117.155455 206.79652 
L 117.916364 207.690084 
L 118.677273 209.175744 
L 119.438182 211.209962 
L 120.199091 213.725492 
L 121.720909 219.835311 
L 124.764545 233.169577 
L 126.286364 238.441882 
L 127.047273 240.327247 
L 127.808182 241.580394 
L 128.569091 242.116364 
L 129.33 241.862438 
L 130.090909 240.758685 
L 130.851818 238.758178 
L 131.612727 235.827066 
L 132.373636 231.944804 
L 133.134545 227.104927 
L 133.895455 221.316748 
L 135.417273 207.029472 
L 136.939091 189.596982 
L 139.221818 159.763332 
L 141.504545 129.697647 
L 143.026364 111.773579 
L 144.548182 96.621871 
L 146.07 84.67433 
L 146.830909 79.931408 
L 147.591818 75.985915 
L 148.352727 72.801834 
L 149.113636 70.331838 
L 149.874545 68.520044 
L 150.635455 67.30452 
L 151.396364 66.619528 
L 152.157273 66.397495 
L 152.918182 66.570736 
L 153.679091 67.072912 
L 154.44 67.84026 
L 155.961818 69.934035 
L 160.527273 77.323907 
L 161.288182 78.742152 
L 162.049091 79.749008 
L 162.81 80.069028 
L 163.570909 80.106866 
L 164.331818 80.282395 
L 165.092727 80.802171 
L 166.614545 82.658535 
L 167.375455 83.612458 
L 168.136364 84.310965 
L 168.897273 84.617713 
L 169.658182 84.477088 
L 170.419091 83.911376 
L 171.18 83.005456 
L 174.223636 78.668339 
L 174.984545 78.046938 
L 175.745455 77.773656 
L 176.506364 77.862108 
L 177.267273 78.286234 
L 178.028182 78.985678 
L 181.071818 82.628564 
L 181.832727 83.241913 
L 182.593636 83.573366 
L 183.354545 83.581444 
L 184.115455 83.253267 
L 184.876364 82.604392 
L 185.637273 81.67642 
L 187.159091 79.252942 
L 188.680909 76.645323 
L 189.441818 75.498712 
L 190.202727 74.565977 
L 190.963636 73.912275 
L 191.724545 73.584772 
L 192.485455 73.610313 
L 193.246364 73.994472 
L 194.007273 74.721934 
L 194.768182 75.758056 
L 196.29 78.537235 
L 199.333636 84.858542 
L 200.094545 86.141424 
L 200.855455 87.167312 
L 201.616364 87.885231 
L 202.377273 88.258055 
L 203.138182 88.263742 
L 203.899091 87.895901 
L 204.66 87.163736 
L 205.420909 86.0914 
L 206.181818 84.716832 
L 207.703636 81.271639 
L 211.508182 71.830866 
L 212.269091 70.400533 
L 213.03 69.286271 
L 213.790909 68.545659 
L 214.551818 68.227337 
L 215.312727 68.370089 
L 216.073636 69.002298 
L 216.834545 70.141743 
L 217.595455 71.795727 
L 218.356364 73.961496 
L 219.117273 76.626896 
L 220.639091 83.36631 
L 222.160909 91.764965 
L 223.682727 101.490448 
L 225.965455 117.735132 
L 231.291818 156.94633 
L 233.574545 171.965074 
L 235.096364 180.926194 
L 236.618182 188.947792 
L 238.14 195.997396 
L 239.661818 202.079406 
L 241.183636 207.226814 
L 242.705455 211.493708 
L 244.227273 214.948868 
L 245.749091 217.670499 
L 247.270909 219.742023 
L 248.792727 221.248734 
L 250.314545 222.275173 
L 251.836364 222.903027 
L 253.358182 223.20947 
L 254.88 223.265848 
L 257.162727 223.020625 
L 260.206364 222.356181 
L 265.532727 221.095222 
L 268.576364 220.596128 
L 271.62 220.317308 
L 275.424545 220.232615 
L 280.750909 220.395813 
L 290.642727 220.727692 
L 299.012727 220.735411 
L 321.84 220.661373 
L 373.581818 220.667695 
L 373.581818 220.667695 
" clip-path="url(#pa97fabedc3)" style="fill: none; stroke: #2ca02c; stroke-width: 1.5; stroke-linecap: square"/>
   </g>
   <g id="line2d_21">
    <path d="M 69.218182 220.667609 
L 127.047273 220.759111 
L 128.569091 220.993142 
L 129.33 221.020902 
L 130.090909 220.894798 
L 130.851818 220.570003 
L 133.134545 219.116617 
L 133.895455 219.150647 
L 134.656364 219.85538 
L 135.417273 221.266654 
L 136.178182 222.993602 
L 136.939091 224.047938 
L 137.7 222.861287 
L 138.460909 217.563748 
L 139.221818 206.491756 
L 139.982727 188.803746 
L 140.743636 165.012297 
L 143.026364 82.805584 
L 143.787273 62.756513 
L 144.548182 49.963644 
L 145.309091 44.443636 
L 146.07 45.013857 
L 146.830909 49.813748 
L 149.113636 70.896958 
L 149.874545 75.937321 
L 150.635455 79.188374 
L 151.396364 80.819237 
L 152.157273 81.227738 
L 152.918182 80.889978 
L 154.44 79.612012 
L 155.200909 79.185567 
L 155.961818 79.024491 
L 156.722727 79.096179 
L 160.527273 80.083253 
L 162.049091 80.026649 
L 165.092727 79.811568 
L 193.246364 79.885553 
L 214.551818 79.947219 
L 216.834545 80.086298 
L 219.878182 79.959057 
L 220.639091 80.259587 
L 221.4 80.977916 
L 222.160909 82.293236 
L 222.921818 84.372584 
L 223.682727 87.347477 
L 224.443636 91.294993 
L 225.204545 96.226672 
L 226.726364 108.759634 
L 228.248182 123.869251 
L 232.052727 163.258052 
L 233.574545 176.739458 
L 235.096364 188.163607 
L 236.618182 197.490439 
L 238.14 204.842979 
L 239.661818 210.418972 
L 240.422727 212.61243 
L 241.183636 214.450695 
L 241.944545 215.966186 
L 242.705455 217.19233 
L 243.466364 218.163238 
L 244.227273 218.913196 
L 244.988182 219.476019 
L 246.51 220.168704 
L 248.031818 220.474309 
L 250.314545 220.589446 
L 282.272727 220.667741 
L 373.581818 220.667609 
L 373.581818 220.667609 
" clip-path="url(#pa97fabedc3)" style="fill: none; stroke: #d62728; stroke-width: 1.5; stroke-linecap: square"/>
   </g>
   <g id="patch_3">
    <path d="M 54 252 
L 54 34.56 
" style="fill: none; stroke: #000000; stroke-width: 0.8; stroke-linejoin: miter; stroke-linecap: square"/>
   </g>
   <g id="patch_4">
    <path d="M 388.8 252 
L 388.8 34.56 
" style="fill: none; stroke: #000000; stroke-width: 0.8; stroke-linejoin: miter; stroke-linecap: square"/>
   </g>
   <g id="patch_5">
    <path d="M 54 252 
L 388.8 252 
" style="fill: none; stroke: #000000; stroke-width: 0.8; stroke-linejoin: miter; stroke-linecap: square"/>
   </g>
   <g id="patch_6">
    <path d="M 54 34.56 
L 388.8 34.56 
" style="fill: none; stroke: #000000; stroke-width: 0.8; stroke-linejoin: miter; stroke-linecap: square"/>
   </g>
   <g id="legend_1">
    <g id="patch_7">
     <path d="M 274.595312 101.2725 
L 381.8 101.2725 
Q 383.8 101.2725 383.8 99.2725 
L 383.8 41.56 
Q 383.8 39.56 381.8 39.56 
L 274.595312 39.56 
Q 272.595312 39.56 272.595312 41.56 
L 272.595312 99.2725 
Q 272.595312 101.2725 274.595312 101.2725 
z
" style="fill: #ffffff; opacity: 0.8; stroke: #cccccc; stroke-linejoin: miter"/>
    </g>
    <g id="line2d_22">
     <path d="M 276.595312 47.658437 
L 286.595312 47.658437 
L 296.595312 47.658437 
" style="fill: none; stroke: #1f77b4; stroke-width: 1.5; stroke-linecap: square"/>
    </g>
    <g id="text_20">
     <!-- c1 - #Cells = 2 -->
     <g transform="translate(304.595312 51.158437) scale(0.1 -0.1)">
      <defs>
       <path id="DejaVuSans-2d" d="M 313 2009 
L 1997 2009 
L 1997 1497 
L 313 1497 
L 313 2009 
z
" transform="scale(0.015625)"/>
       <path id="DejaVuSans-23" d="M 3272 2816 
L 2363 2816 
L 2100 1772 
L 3016 1772 
L 3272 2816 
z
M 2803 4594 
L 2478 3297 
L 3391 3297 
L 3719 4594 
L 4219 4594 
L 3897 3297 
L 4872 3297 
L 4872 2816 
L 3775 2816 
L 3519 1772 
L 4513 1772 
L 4513 1294 
L 3397 1294 
L 3072 0 
L 2572 0 
L 2894 1294 
L 1978 1294 
L 1656 0 
L 1153 0 
L 1478 1294 
L 494 1294 
L 494 1772 
L 1594 1772 
L 1856 2816 
L 850 2816 
L 850 3297 
L 1978 3297 
L 2297 4594 
L 2803 4594 
z
" transform="scale(0.015625)"/>
       <path id="DejaVuSans-3d" d="M 678 2906 
L 4684 2906 
L 4684 2381 
L 678 2381 
L 678 2906 
z
M 678 1631 
L 4684 1631 
L 4684 1100 
L 678 1100 
L 678 1631 
z
" transform="scale(0.015625)"/>
      </defs>
      <use xlink:href="#DejaVuSans-63"/>
      <use xlink:href="#DejaVuSans-31" x="54.980469"/>
      <use xlink:href="#DejaVuSans-20" x="118.603516"/>
      <use xlink:href="#DejaVuSans-2d" x="150.390625"/>
      <use xlink:href="#DejaVuSans-20" x="186.474609"/>
      <use xlink:href="#DejaVuSans-23" x="218.261719"/>
      <use xlink:href="#DejaVuSans-43" x="302.050781"/>
      <use xlink:href="#DejaVuSans-65" x="371.875"/>
      <use xlink:href="#DejaVuSans-6c" x="433.398438"/>
      <use xlink:href="#DejaVuSans-6c" x="461.181641"/>
      <use xlink:href="#DejaVuSans-73" x="488.964844"/>
      <use xlink:href="#DejaVuSans-20" x="541.064453"/>
      <use xlink:href="#DejaVuSans-3d" x="572.851562"/>
      <use xlink:href="#DejaVuSans-20" x="656.640625"/>
      <use xlink:href="#DejaVuSans-32" x="688.427734"/>
     </g>
    </g>
    <g id="line2d_23">
     <path d="M 276.595312 62.336562 
L 286.595312 62.336562 
L 296.595312 62.336562 
" style="fill: none; stroke: #ff7f0e; stroke-width: 1.5; stroke-linecap: square"/>
    </g>
    <g id="text_21">
     <!-- c1 - #Cells = 8 -->
     <g transform="translate(304.595312 65.836562) scale(0.1 -0.1)">
      <use xlink:href="#DejaVuSans-63"/>
      <use xlink:href="#DejaVuSans-31" x="54.980469"/>
      <use xlink:href="#DejaVuSans-20" x="118.603516"/>
      <use xlink:href="#DejaVuSans-2d" x="150.390625"/>
      <use xlink:href="#DejaVuSans-20" x="186.474609"/>
      <use xlink:href="#DejaVuSans-23" x="218.261719"/>
      <use xlink:href="#DejaVuSans-43" x="302.050781"/>
      <use xlink:href="#DejaVuSans-65" x="371.875"/>
      <use xlink:href="#DejaVuSans-6c" x="433.398438"/>
      <use xlink:href="#DejaVuSans-6c" x="461.181641"/>
      <use xlink:href="#DejaVuSans-73" x="488.964844"/>
      <use xlink:href="#DejaVuSans-20" x="541.064453"/>
      <use xlink:href="#DejaVuSans-3d" x="572.851562"/>
      <use xlink:href="#DejaVuSans-20" x="656.640625"/>
      <use xlink:href="#DejaVuSans-38" x="688.427734"/>
     </g>
    </g>
    <g id="line2d_24">
     <path d="M 276.595312 77.014687 
L 286.595312 77.014687 
L 296.595312 77.014687 
" style="fill: none; stroke: #2ca02c; stroke-width: 1.5; stroke-linecap: square"/>
    </g>
    <g id="text_22">
     <!-- c2 - #Cells = 2 -->
     <g transform="translate(304.595312 80.514687) scale(0.1 -0.1)">
      <use xlink:href="#DejaVuSans-63"/>
      <use xlink:href="#DejaVuSans-32" x="54.980469"/>
      <use xlink:href="#DejaVuSans-20" x="118.603516"/>
      <use xlink:href="#DejaVuSans-2d" x="150.390625"/>
      <use xlink:href="#DejaVuSans-20" x="186.474609"/>
      <use xlink:href="#DejaVuSans-23" x="218.261719"/>
      <use xlink:href="#DejaVuSans-43" x="302.050781"/>
      <use xlink:href="#DejaVuSans-65" x="371.875"/>
      <use xlink:href="#DejaVuSans-6c" x="433.398438"/>
      <use xlink:href="#DejaVuSans-6c" x="461.181641"/>
      <use xlink:href="#DejaVuSans-73" x="488.964844"/>
      <use xlink:href="#DejaVuSans-20" x="541.064453"/>
      <use xlink:href="#DejaVuSans-3d" x="572.851562"/>
      <use xlink:href="#DejaVuSans-20" x="656.640625"/>
      <use xlink:href="#DejaVuSans-32" x="688.427734"/>
     </g>
    </g>
    <g id="line2d_25">
     <path d="M 276.595312 91.692813 
L 286.595312 91.692813 
L 296.595312 91.692813 
" style="fill: none; stroke: #d62728; stroke-width: 1.5; stroke-linecap: square"/>
    </g>
    <g id="text_23">
     <!-- c2 - #Cells = 8 -->
     <g transform="translate(304.595312 95.192813) scale(0.1 -0.1)">
      <use xlink:href="#DejaVuSans-63"/>
      <use xlink:href="#DejaVuSans-32" x="54.980469"/>
      <use xlink:href="#DejaVuSans-20" x="118.603516"/>
      <use xlink:href="#DejaVuSans-2d" x="150.390625"/>
      <use xlink:href="#DejaVuSans-20" x="186.474609"/>
      <use xlink:href="#DejaVuSans-23" x="218.261719"/>
      <use xlink:href="#DejaVuSans-43" x="302.050781"/>
      <use xlink:href="#DejaVuSans-65" x="371.875"/>
      <use xlink:href="#DejaVuSans-6c" x="433.398438"/>
      <use xlink:href="#DejaVuSans-6c" x="461.181641"/>
      <use xlink:href="#DejaVuSans-73" x="488.964844"/>
      <use xlink:href="#DejaVuSans-20" x="541.064453"/>
      <use xlink:href="#DejaVuSans-3d" x="572.851562"/>
      <use xlink:href="#DejaVuSans-20" x="656.640625"/>
      <use xlink:href="#DejaVuSans-38" x="688.427734"/>
     </g>
    </g>
   </g>
  </g>
 </g>
 <defs>
  <clipPath id="pa97fabedc3">
   <rect x="54" y="34.56" width="334.8" height="217.44"/>
  </clipPath>
 </defs>
</svg>
