<?xml version="1.0" encoding="utf-8" standalone="no"?>
<!DOCTYPE svg PUBLIC "-//W3C//DTD SVG 1.1//EN"
  "http://www.w3.org/Graphics/SVG/1.1/DTD/svg11.dtd">
<svg xmlns:xlink="http://www.w3.org/1999/xlink" width="432pt" height="288pt" viewBox="0 0 432 288" xmlns="http://www.w3.org/2000/svg" version="1.1">
 <metadata>
  <rdf:RDF xmlns:dc="http://purl.org/dc/elements/1.1/" xmlns:cc="http://creativecommons.org/ns#" xmlns:rdf="http://www.w3.org/1999/02/22-rdf-syntax-ns#">
   <cc:Work>
    <dc:type rdf:resource="http://purl.org/dc/dcmitype/StillImage"/>
    <dc:date>2024-03-18T08:48:46.226211</dc:date>
    <dc:format>image/svg+xml</dc:format>
    <dc:creator>
     <cc:Agent>
      <dc:title>Matplotlib v3.7.1, https://matplotlib.org/</dc:title>
     </cc:Agent>
    </dc:creator>
   </cc:Work>
  </rdf:RDF>
 </metadata>
 <defs>
  <style type="text/css">*{stroke-linejoin: round; stroke-linecap: butt}</style>
 </defs>
 <g id="figure_1">
  <g id="patch_1">
   <path d="M 0 288 
L 432 288 
L 432 0 
L 0 0 
z
" style="fill: #ffffff"/>
  </g>
  <g id="axes_1">
   <g id="patch_2">
    <path d="M 54 252 
L 388.8 252 
L 388.8 34.56 
L 54 34.56 
z
" style="fill: #ffffff"/>
   </g>
   <g id="matplotlib.axis_1">
    <g id="xtick_1">
     <g id="line2d_1">
      <defs>
       <path id="m314339ca30" d="M 0 0 
L 0 3.5 
" style="stroke: #000000; stroke-width: 0.8"/>
      </defs>
      <g>
       <use xlink:href="#m314339ca30" x="69.218182" y="252" style="stroke: #000000; stroke-width: 0.8"/>
      </g>
     </g>
     <g id="text_1">
      <!-- 0 -->
      <g transform="translate(66.036932 266.598437) scale(0.1 -0.1)">
       <defs>
        <path id="DejaVuSans-30" d="M 2034 4250 
Q 1547 4250 1301 3770 
Q 1056 3291 1056 2328 
Q 1056 1369 1301 889 
Q 1547 409 2034 409 
Q 2525 409 2770 889 
Q 3016 1369 3016 2328 
Q 3016 3291 2770 3770 
Q 2525 4250 2034 4250 
z
M 2034 4750 
Q 2819 4750 3233 4129 
Q 3647 3509 3647 2328 
Q 3647 1150 3233 529 
Q 2819 -91 2034 -91 
Q 1250 -91 836 529 
Q 422 1150 422 2328 
Q 422 3509 836 4129 
Q 1250 4750 2034 4750 
z
" transform="scale(0.015625)"/>
       </defs>
       <use xlink:href="#DejaVuSans-30"/>
      </g>
     </g>
    </g>
    <g id="xtick_2">
     <g id="line2d_2">
      <g>
       <use xlink:href="#m314339ca30" x="111.490909" y="252" style="stroke: #000000; stroke-width: 0.8"/>
      </g>
     </g>
     <g id="text_2">
      <!-- 250 -->
      <g transform="translate(101.947159 266.598437) scale(0.1 -0.1)">
       <defs>
        <path id="DejaVuSans-32" d="M 1228 531 
L 3431 531 
L 3431 0 
L 469 0 
L 469 531 
Q 828 903 1448 1529 
Q 2069 2156 2228 2338 
Q 2531 2678 2651 2914 
Q 2772 3150 2772 3378 
Q 2772 3750 2511 3984 
Q 2250 4219 1831 4219 
Q 1534 4219 1204 4116 
Q 875 4013 500 3803 
L 500 4441 
Q 881 4594 1212 4672 
Q 1544 4750 1819 4750 
Q 2544 4750 2975 4387 
Q 3406 4025 3406 3419 
Q 3406 3131 3298 2873 
Q 3191 2616 2906 2266 
Q 2828 2175 2409 1742 
Q 1991 1309 1228 531 
z
" transform="scale(0.015625)"/>
        <path id="DejaVuSans-35" d="M 691 4666 
L 3169 4666 
L 3169 4134 
L 1269 4134 
L 1269 2991 
Q 1406 3038 1543 3061 
Q 1681 3084 1819 3084 
Q 2600 3084 3056 2656 
Q 3513 2228 3513 1497 
Q 3513 744 3044 326 
Q 2575 -91 1722 -91 
Q 1428 -91 1123 -41 
Q 819 9 494 109 
L 494 744 
Q 775 591 1075 516 
Q 1375 441 1709 441 
Q 2250 441 2565 725 
Q 2881 1009 2881 1497 
Q 2881 1984 2565 2268 
Q 2250 2553 1709 2553 
Q 1456 2553 1204 2497 
Q 953 2441 691 2322 
L 691 4666 
z
" transform="scale(0.015625)"/>
       </defs>
       <use xlink:href="#DejaVuSans-32"/>
       <use xlink:href="#DejaVuSans-35" x="63.623047"/>
       <use xlink:href="#DejaVuSans-30" x="127.246094"/>
      </g>
     </g>
    </g>
    <g id="xtick_3">
     <g id="line2d_3">
      <g>
       <use xlink:href="#m314339ca30" x="153.763636" y="252" style="stroke: #000000; stroke-width: 0.8"/>
      </g>
     </g>
     <g id="text_3">
      <!-- 500 -->
      <g transform="translate(144.219886 266.598437) scale(0.1 -0.1)">
       <use xlink:href="#DejaVuSans-35"/>
       <use xlink:href="#DejaVuSans-30" x="63.623047"/>
       <use xlink:href="#DejaVuSans-30" x="127.246094"/>
      </g>
     </g>
    </g>
    <g id="xtick_4">
     <g id="line2d_4">
      <g>
       <use xlink:href="#m314339ca30" x="196.036364" y="252" style="stroke: #000000; stroke-width: 0.8"/>
      </g>
     </g>
     <g id="text_4">
      <!-- 750 -->
      <g transform="translate(186.492614 266.598437) scale(0.1 -0.1)">
       <defs>
        <path id="DejaVuSans-37" d="M 525 4666 
L 3525 4666 
L 3525 4397 
L 1831 0 
L 1172 0 
L 2766 4134 
L 525 4134 
L 525 4666 
z
" transform="scale(0.015625)"/>
       </defs>
       <use xlink:href="#DejaVuSans-37"/>
       <use xlink:href="#DejaVuSans-35" x="63.623047"/>
       <use xlink:href="#DejaVuSans-30" x="127.246094"/>
      </g>
     </g>
    </g>
    <g id="xtick_5">
     <g id="line2d_5">
      <g>
       <use xlink:href="#m314339ca30" x="238.309091" y="252" style="stroke: #000000; stroke-width: 0.8"/>
      </g>
     </g>
     <g id="text_5">
      <!-- 1000 -->
      <g transform="translate(225.584091 266.598437) scale(0.1 -0.1)">
       <defs>
        <path id="DejaVuSans-31" d="M 794 531 
L 1825 531 
L 1825 4091 
L 703 3866 
L 703 4441 
L 1819 4666 
L 2450 4666 
L 2450 531 
L 3481 531 
L 3481 0 
L 794 0 
L 794 531 
z
" transform="scale(0.015625)"/>
       </defs>
       <use xlink:href="#DejaVuSans-31"/>
       <use xlink:href="#DejaVuSans-30" x="63.623047"/>
       <use xlink:href="#DejaVuSans-30" x="127.246094"/>
       <use xlink:href="#DejaVuSans-30" x="190.869141"/>
      </g>
     </g>
    </g>
    <g id="xtick_6">
     <g id="line2d_6">
      <g>
       <use xlink:href="#m314339ca30" x="280.581818" y="252" style="stroke: #000000; stroke-width: 0.8"/>
      </g>
     </g>
     <g id="text_6">
      <!-- 1250 -->
      <g transform="translate(267.856818 266.598437) scale(0.1 -0.1)">
       <use xlink:href="#DejaVuSans-31"/>
       <use xlink:href="#DejaVuSans-32" x="63.623047"/>
       <use xlink:href="#DejaVuSans-35" x="127.246094"/>
       <use xlink:href="#DejaVuSans-30" x="190.869141"/>
      </g>
     </g>
    </g>
    <g id="xtick_7">
     <g id="line2d_7">
      <g>
       <use xlink:href="#m314339ca30" x="322.854545" y="252" style="stroke: #000000; stroke-width: 0.8"/>
      </g>
     </g>
     <g id="text_7">
      <!-- 1500 -->
      <g transform="translate(310.129545 266.598437) scale(0.1 -0.1)">
       <use xlink:href="#DejaVuSans-31"/>
       <use xlink:href="#DejaVuSans-35" x="63.623047"/>
       <use xlink:href="#DejaVuSans-30" x="127.246094"/>
       <use xlink:href="#DejaVuSans-30" x="190.869141"/>
      </g>
     </g>
    </g>
    <g id="xtick_8">
     <g id="line2d_8">
      <g>
       <use xlink:href="#m314339ca30" x="365.127273" y="252" style="stroke: #000000; stroke-width: 0.8"/>
      </g>
     </g>
     <g id="text_8">
      <!-- 1750 -->
      <g transform="translate(352.402273 266.598437) scale(0.1 -0.1)">
       <use xlink:href="#DejaVuSans-31"/>
       <use xlink:href="#DejaVuSans-37" x="63.623047"/>
       <use xlink:href="#DejaVuSans-35" x="127.246094"/>
       <use xlink:href="#DejaVuSans-30" x="190.869141"/>
      </g>
     </g>
    </g>
    <g id="text_9">
     <!-- Time (s) -->
     <g transform="translate(190.906641 284.075781) scale(0.15 -0.15)">
      <defs>
       <path id="DejaVuSans-54" d="M -19 4666 
L 3928 4666 
L 3928 4134 
L 2272 4134 
L 2272 0 
L 1638 0 
L 1638 4134 
L -19 4134 
L -19 4666 
z
" transform="scale(0.015625)"/>
       <path id="DejaVuSans-69" d="M 603 3500 
L 1178 3500 
L 1178 0 
L 603 0 
L 603 3500 
z
M 603 4863 
L 1178 4863 
L 1178 4134 
L 603 4134 
L 603 4863 
z
" transform="scale(0.015625)"/>
       <path id="DejaVuSans-6d" d="M 3328 2828 
Q 3544 3216 3844 3400 
Q 4144 3584 4550 3584 
Q 5097 3584 5394 3201 
Q 5691 2819 5691 2113 
L 5691 0 
L 5113 0 
L 5113 2094 
Q 5113 2597 4934 2840 
Q 4756 3084 4391 3084 
Q 3944 3084 3684 2787 
Q 3425 2491 3425 1978 
L 3425 0 
L 2847 0 
L 2847 2094 
Q 2847 2600 2669 2842 
Q 2491 3084 2119 3084 
Q 1678 3084 1418 2786 
Q 1159 2488 1159 1978 
L 1159 0 
L 581 0 
L 581 3500 
L 1159 3500 
L 1159 2956 
Q 1356 3278 1631 3431 
Q 1906 3584 2284 3584 
Q 2666 3584 2933 3390 
Q 3200 3197 3328 2828 
z
" transform="scale(0.015625)"/>
       <path id="DejaVuSans-65" d="M 3597 1894 
L 3597 1613 
L 953 1613 
Q 991 1019 1311 708 
Q 1631 397 2203 397 
Q 2534 397 2845 478 
Q 3156 559 3463 722 
L 3463 178 
Q 3153 47 2828 -22 
Q 2503 -91 2169 -91 
Q 1331 -91 842 396 
Q 353 884 353 1716 
Q 353 2575 817 3079 
Q 1281 3584 2069 3584 
Q 2775 3584 3186 3129 
Q 3597 2675 3597 1894 
z
M 3022 2063 
Q 3016 2534 2758 2815 
Q 2500 3097 2075 3097 
Q 1594 3097 1305 2825 
Q 1016 2553 972 2059 
L 3022 2063 
z
" transform="scale(0.015625)"/>
       <path id="DejaVuSans-20" transform="scale(0.015625)"/>
       <path id="DejaVuSans-28" d="M 1984 4856 
Q 1566 4138 1362 3434 
Q 1159 2731 1159 2009 
Q 1159 1288 1364 580 
Q 1569 -128 1984 -844 
L 1484 -844 
Q 1016 -109 783 600 
Q 550 1309 550 2009 
Q 550 2706 781 3412 
Q 1013 4119 1484 4856 
L 1984 4856 
z
" transform="scale(0.015625)"/>
       <path id="DejaVuSans-73" d="M 2834 3397 
L 2834 2853 
Q 2591 2978 2328 3040 
Q 2066 3103 1784 3103 
Q 1356 3103 1142 2972 
Q 928 2841 928 2578 
Q 928 2378 1081 2264 
Q 1234 2150 1697 2047 
L 1894 2003 
Q 2506 1872 2764 1633 
Q 3022 1394 3022 966 
Q 3022 478 2636 193 
Q 2250 -91 1575 -91 
Q 1294 -91 989 -36 
Q 684 19 347 128 
L 347 722 
Q 666 556 975 473 
Q 1284 391 1588 391 
Q 1994 391 2212 530 
Q 2431 669 2431 922 
Q 2431 1156 2273 1281 
Q 2116 1406 1581 1522 
L 1381 1569 
Q 847 1681 609 1914 
Q 372 2147 372 2553 
Q 372 3047 722 3315 
Q 1072 3584 1716 3584 
Q 2034 3584 2315 3537 
Q 2597 3491 2834 3397 
z
" transform="scale(0.015625)"/>
       <path id="DejaVuSans-29" d="M 513 4856 
L 1013 4856 
Q 1481 4119 1714 3412 
Q 1947 2706 1947 2009 
Q 1947 1309 1714 600 
Q 1481 -109 1013 -844 
L 513 -844 
Q 928 -128 1133 580 
Q 1338 1288 1338 2009 
Q 1338 2731 1133 3434 
Q 928 4138 513 4856 
z
" transform="scale(0.015625)"/>
      </defs>
      <use xlink:href="#DejaVuSans-54"/>
      <use xlink:href="#DejaVuSans-69" x="57.958984"/>
      <use xlink:href="#DejaVuSans-6d" x="85.742188"/>
      <use xlink:href="#DejaVuSans-65" x="183.154297"/>
      <use xlink:href="#DejaVuSans-20" x="244.677734"/>
      <use xlink:href="#DejaVuSans-28" x="276.464844"/>
      <use xlink:href="#DejaVuSans-73" x="315.478516"/>
      <use xlink:href="#DejaVuSans-29" x="367.578125"/>
     </g>
    </g>
   </g>
   <g id="matplotlib.axis_2">
    <g id="ytick_1">
     <g id="line2d_9">
      <defs>
       <path id="mc09172d44b" d="M 0 0 
L -3.5 0 
" style="stroke: #000000; stroke-width: 0.8"/>
      </defs>
      <g>
       <use xlink:href="#mc09172d44b" x="54" y="241.134703" style="stroke: #000000; stroke-width: 0.8"/>
      </g>
     </g>
     <g id="text_10">
      <!-- 0.000 -->
      <g transform="translate(18.371875 244.933922) scale(0.1 -0.1)">
       <defs>
        <path id="DejaVuSans-2e" d="M 684 794 
L 1344 794 
L 1344 0 
L 684 0 
L 684 794 
z
" transform="scale(0.015625)"/>
       </defs>
       <use xlink:href="#DejaVuSans-30"/>
       <use xlink:href="#DejaVuSans-2e" x="63.623047"/>
       <use xlink:href="#DejaVuSans-30" x="95.410156"/>
       <use xlink:href="#DejaVuSans-30" x="159.033203"/>
       <use xlink:href="#DejaVuSans-30" x="222.65625"/>
      </g>
     </g>
    </g>
    <g id="ytick_2">
     <g id="line2d_10">
      <g>
       <use xlink:href="#mc09172d44b" x="54" y="206.669427" style="stroke: #000000; stroke-width: 0.8"/>
      </g>
     </g>
     <g id="text_11">
      <!-- 0.005 -->
      <g transform="translate(18.371875 210.468646) scale(0.1 -0.1)">
       <use xlink:href="#DejaVuSans-30"/>
       <use xlink:href="#DejaVuSans-2e" x="63.623047"/>
       <use xlink:href="#DejaVuSans-30" x="95.410156"/>
       <use xlink:href="#DejaVuSans-30" x="159.033203"/>
       <use xlink:href="#DejaVuSans-35" x="222.65625"/>
      </g>
     </g>
    </g>
    <g id="ytick_3">
     <g id="line2d_11">
      <g>
       <use xlink:href="#mc09172d44b" x="54" y="172.204152" style="stroke: #000000; stroke-width: 0.8"/>
      </g>
     </g>
     <g id="text_12">
      <!-- 0.010 -->
      <g transform="translate(18.371875 176.003371) scale(0.1 -0.1)">
       <use xlink:href="#DejaVuSans-30"/>
       <use xlink:href="#DejaVuSans-2e" x="63.623047"/>
       <use xlink:href="#DejaVuSans-30" x="95.410156"/>
       <use xlink:href="#DejaVuSans-31" x="159.033203"/>
       <use xlink:href="#DejaVuSans-30" x="222.65625"/>
      </g>
     </g>
    </g>
    <g id="ytick_4">
     <g id="line2d_12">
      <g>
       <use xlink:href="#mc09172d44b" x="54" y="137.738876" style="stroke: #000000; stroke-width: 0.8"/>
      </g>
     </g>
     <g id="text_13">
      <!-- 0.015 -->
      <g transform="translate(18.371875 141.538095) scale(0.1 -0.1)">
       <use xlink:href="#DejaVuSans-30"/>
       <use xlink:href="#DejaVuSans-2e" x="63.623047"/>
       <use xlink:href="#DejaVuSans-30" x="95.410156"/>
       <use xlink:href="#DejaVuSans-31" x="159.033203"/>
       <use xlink:href="#DejaVuSans-35" x="222.65625"/>
      </g>
     </g>
    </g>
    <g id="ytick_5">
     <g id="line2d_13">
      <g>
       <use xlink:href="#mc09172d44b" x="54" y="103.273601" style="stroke: #000000; stroke-width: 0.8"/>
      </g>
     </g>
     <g id="text_14">
      <!-- 0.020 -->
      <g transform="translate(18.371875 107.07282) scale(0.1 -0.1)">
       <use xlink:href="#DejaVuSans-30"/>
       <use xlink:href="#DejaVuSans-2e" x="63.623047"/>
       <use xlink:href="#DejaVuSans-30" x="95.410156"/>
       <use xlink:href="#DejaVuSans-32" x="159.033203"/>
       <use xlink:href="#DejaVuSans-30" x="222.65625"/>
      </g>
     </g>
    </g>
    <g id="ytick_6">
     <g id="line2d_14">
      <g>
       <use xlink:href="#mc09172d44b" x="54" y="68.808325" style="stroke: #000000; stroke-width: 0.8"/>
      </g>
     </g>
     <g id="text_15">
      <!-- 0.025 -->
      <g transform="translate(18.371875 72.607544) scale(0.1 -0.1)">
       <use xlink:href="#DejaVuSans-30"/>
       <use xlink:href="#DejaVuSans-2e" x="63.623047"/>
       <use xlink:href="#DejaVuSans-30" x="95.410156"/>
       <use xlink:href="#DejaVuSans-32" x="159.033203"/>
       <use xlink:href="#DejaVuSans-35" x="222.65625"/>
      </g>
     </g>
    </g>
    <g id="text_16">
     <!-- Concentration (mol/L) -->
     <g transform="translate(11.252344 225.256172) rotate(-90) scale(0.15 -0.15)">
      <defs>
       <path id="DejaVuSans-43" d="M 4122 4306 
L 4122 3641 
Q 3803 3938 3442 4084 
Q 3081 4231 2675 4231 
Q 1875 4231 1450 3742 
Q 1025 3253 1025 2328 
Q 1025 1406 1450 917 
Q 1875 428 2675 428 
Q 3081 428 3442 575 
Q 3803 722 4122 1019 
L 4122 359 
Q 3791 134 3420 21 
Q 3050 -91 2638 -91 
Q 1578 -91 968 557 
Q 359 1206 359 2328 
Q 359 3453 968 4101 
Q 1578 4750 2638 4750 
Q 3056 4750 3426 4639 
Q 3797 4528 4122 4306 
z
" transform="scale(0.015625)"/>
       <path id="DejaVuSans-6f" d="M 1959 3097 
Q 1497 3097 1228 2736 
Q 959 2375 959 1747 
Q 959 1119 1226 758 
Q 1494 397 1959 397 
Q 2419 397 2687 759 
Q 2956 1122 2956 1747 
Q 2956 2369 2687 2733 
Q 2419 3097 1959 3097 
z
M 1959 3584 
Q 2709 3584 3137 3096 
Q 3566 2609 3566 1747 
Q 3566 888 3137 398 
Q 2709 -91 1959 -91 
Q 1206 -91 779 398 
Q 353 888 353 1747 
Q 353 2609 779 3096 
Q 1206 3584 1959 3584 
z
" transform="scale(0.015625)"/>
       <path id="DejaVuSans-6e" d="M 3513 2113 
L 3513 0 
L 2938 0 
L 2938 2094 
Q 2938 2591 2744 2837 
Q 2550 3084 2163 3084 
Q 1697 3084 1428 2787 
Q 1159 2491 1159 1978 
L 1159 0 
L 581 0 
L 581 3500 
L 1159 3500 
L 1159 2956 
Q 1366 3272 1645 3428 
Q 1925 3584 2291 3584 
Q 2894 3584 3203 3211 
Q 3513 2838 3513 2113 
z
" transform="scale(0.015625)"/>
       <path id="DejaVuSans-63" d="M 3122 3366 
L 3122 2828 
Q 2878 2963 2633 3030 
Q 2388 3097 2138 3097 
Q 1578 3097 1268 2742 
Q 959 2388 959 1747 
Q 959 1106 1268 751 
Q 1578 397 2138 397 
Q 2388 397 2633 464 
Q 2878 531 3122 666 
L 3122 134 
Q 2881 22 2623 -34 
Q 2366 -91 2075 -91 
Q 1284 -91 818 406 
Q 353 903 353 1747 
Q 353 2603 823 3093 
Q 1294 3584 2113 3584 
Q 2378 3584 2631 3529 
Q 2884 3475 3122 3366 
z
" transform="scale(0.015625)"/>
       <path id="DejaVuSans-74" d="M 1172 4494 
L 1172 3500 
L 2356 3500 
L 2356 3053 
L 1172 3053 
L 1172 1153 
Q 1172 725 1289 603 
Q 1406 481 1766 481 
L 2356 481 
L 2356 0 
L 1766 0 
Q 1100 0 847 248 
Q 594 497 594 1153 
L 594 3053 
L 172 3053 
L 172 3500 
L 594 3500 
L 594 4494 
L 1172 4494 
z
" transform="scale(0.015625)"/>
       <path id="DejaVuSans-72" d="M 2631 2963 
Q 2534 3019 2420 3045 
Q 2306 3072 2169 3072 
Q 1681 3072 1420 2755 
Q 1159 2438 1159 1844 
L 1159 0 
L 581 0 
L 581 3500 
L 1159 3500 
L 1159 2956 
Q 1341 3275 1631 3429 
Q 1922 3584 2338 3584 
Q 2397 3584 2469 3576 
Q 2541 3569 2628 3553 
L 2631 2963 
z
" transform="scale(0.015625)"/>
       <path id="DejaVuSans-61" d="M 2194 1759 
Q 1497 1759 1228 1600 
Q 959 1441 959 1056 
Q 959 750 1161 570 
Q 1363 391 1709 391 
Q 2188 391 2477 730 
Q 2766 1069 2766 1631 
L 2766 1759 
L 2194 1759 
z
M 3341 1997 
L 3341 0 
L 2766 0 
L 2766 531 
Q 2569 213 2275 61 
Q 1981 -91 1556 -91 
Q 1019 -91 701 211 
Q 384 513 384 1019 
Q 384 1609 779 1909 
Q 1175 2209 1959 2209 
L 2766 2209 
L 2766 2266 
Q 2766 2663 2505 2880 
Q 2244 3097 1772 3097 
Q 1472 3097 1187 3025 
Q 903 2953 641 2809 
L 641 3341 
Q 956 3463 1253 3523 
Q 1550 3584 1831 3584 
Q 2591 3584 2966 3190 
Q 3341 2797 3341 1997 
z
" transform="scale(0.015625)"/>
       <path id="DejaVuSans-6c" d="M 603 4863 
L 1178 4863 
L 1178 0 
L 603 0 
L 603 4863 
z
" transform="scale(0.015625)"/>
       <path id="DejaVuSans-2f" d="M 1625 4666 
L 2156 4666 
L 531 -594 
L 0 -594 
L 1625 4666 
z
" transform="scale(0.015625)"/>
       <path id="DejaVuSans-4c" d="M 628 4666 
L 1259 4666 
L 1259 531 
L 3531 531 
L 3531 0 
L 628 0 
L 628 4666 
z
" transform="scale(0.015625)"/>
      </defs>
      <use xlink:href="#DejaVuSans-43"/>
      <use xlink:href="#DejaVuSans-6f" x="69.824219"/>
      <use xlink:href="#DejaVuSans-6e" x="131.005859"/>
      <use xlink:href="#DejaVuSans-63" x="194.384766"/>
      <use xlink:href="#DejaVuSans-65" x="249.365234"/>
      <use xlink:href="#DejaVuSans-6e" x="310.888672"/>
      <use xlink:href="#DejaVuSans-74" x="374.267578"/>
      <use xlink:href="#DejaVuSans-72" x="413.476562"/>
      <use xlink:href="#DejaVuSans-61" x="454.589844"/>
      <use xlink:href="#DejaVuSans-74" x="515.869141"/>
      <use xlink:href="#DejaVuSans-69" x="555.078125"/>
      <use xlink:href="#DejaVuSans-6f" x="582.861328"/>
      <use xlink:href="#DejaVuSans-6e" x="644.042969"/>
      <use xlink:href="#DejaVuSans-20" x="707.421875"/>
      <use xlink:href="#DejaVuSans-28" x="739.208984"/>
      <use xlink:href="#DejaVuSans-6d" x="778.222656"/>
      <use xlink:href="#DejaVuSans-6f" x="875.634766"/>
      <use xlink:href="#DejaVuSans-6c" x="936.816406"/>
      <use xlink:href="#DejaVuSans-2f" x="964.599609"/>
      <use xlink:href="#DejaVuSans-4c" x="998.291016"/>
      <use xlink:href="#DejaVuSans-29" x="1054.003906"/>
     </g>
    </g>
   </g>
   <g id="line2d_15">
    <path d="M 69.218182 241.134703 
L 69.556364 241.283593 
L 70.909091 241.409047 
L 71.078182 241.201841 
L 72.769091 241.165997 
L 108.785455 241.1143 
L 115.549091 241.205012 
L 140.067273 240.996153 
L 144.125455 240.726634 
L 147.169091 240.313478 
L 149.705455 239.761303 
L 152.072727 239.026379 
L 154.270909 238.118219 
L 156.469091 236.964067 
L 158.667273 235.541912 
L 160.865455 233.83675 
L 163.063636 231.841238 
L 165.430909 229.36821 
L 167.798182 226.569381 
L 170.334545 223.231316 
L 173.209091 219.065953 
L 176.421818 214.003011 
L 180.310909 207.434991 
L 185.890909 197.522192 
L 195.190909 181.002103 
L 199.587273 173.668044 
L 203.476364 167.603003 
L 207.027273 162.471909 
L 210.409091 157.978003 
L 213.621818 154.080856 
L 216.665455 150.732216 
L 219.54 147.881393 
L 222.414545 145.337187 
L 225.12 143.226045 
L 227.825455 141.393402 
L 230.361818 139.932005 
L 232.898182 138.723101 
L 235.434545 137.77095 
L 237.801818 137.117674 
L 238.985455 136.877327 
L 240 136.741148 
L 240 136.694992 
L 244.058182 136.508073 
L 245.749091 136.625262 
L 246.763636 136.7535 
L 246.763636 136.779094 
L 248.454545 136.958003 
L 248.116364 136.992041 
L 248.792727 137.140221 
L 248.454545 137.180277 
L 250.145455 137.3525 
L 249.807273 137.398559 
L 250.145455 137.445811 
L 250.145455 137.543906 
L 251.836364 137.754441 
L 251.16 137.810061 
L 251.836364 137.866867 
L 251.498182 137.924865 
L 251.836364 138.044418 
L 251.836364 138.105973 
L 252.174545 138.168713 
L 251.836364 138.23264 
L 253.527273 138.500145 
L 253.189091 138.569972 
L 253.527273 138.713134 
L 253.527273 138.786476 
L 253.865455 138.860983 
L 253.527273 138.936662 
L 255.218182 139.091514 
L 254.541818 139.170681 
L 255.218182 139.25102 
L 254.88 139.332509 
L 255.218182 139.498956 
L 255.218182 139.583913 
L 255.556364 139.670021 
L 255.218182 139.757273 
L 256.909091 139.935224 
L 256.232727 140.025909 
L 256.909091 140.117739 
L 256.570909 140.210705 
L 256.909091 140.400044 
L 256.909091 140.496402 
L 257.247273 140.593897 
L 256.909091 140.692516 
L 258.6 140.893118 
L 257.923636 140.995094 
L 258.6 141.098186 
L 258.261818 141.202395 
L 258.6 141.414129 
L 258.6 141.521654 
L 258.938182 141.630282 
L 258.6 141.740005 
L 260.290909 141.962734 
L 259.614545 142.075738 
L 260.290909 142.189825 
L 259.952727 142.304995 
L 260.290909 142.538566 
L 260.290909 142.656968 
L 260.629091 142.776431 
L 260.290909 142.89697 
L 261.981818 143.141226 
L 261.305455 143.264942 
L 261.981818 143.389706 
L 261.643636 143.515525 
L 261.981818 143.642392 
L 261.981818 143.899241 
L 262.32 144.029223 
L 261.981818 144.160233 
L 263.672727 144.42534 
L 262.996364 144.559423 
L 263.672727 144.69452 
L 263.334545 144.830631 
L 263.672727 144.967754 
L 263.672727 145.245007 
L 264.010909 145.385129 
L 263.672727 145.526243 
L 265.363636 145.811437 
L 264.687273 145.955501 
L 265.363636 146.100545 
L 265.025455 146.246561 
L 265.363636 146.393548 
L 265.363636 146.690398 
L 265.701818 146.840253 
L 265.363636 146.991066 
L 267.054545 147.295511 
L 266.378182 147.449144 
L 267.054545 147.603714 
L 266.716364 147.7592 
L 267.054545 147.915617 
L 267.054545 148.231195 
L 267.392727 148.390349 
L 267.054545 148.550406 
L 268.745455 148.873214 
L 268.069091 149.03596 
L 268.745455 149.199587 
L 268.407273 149.36409 
L 268.745455 149.529475 
L 268.745455 149.862844 
L 269.083636 150.03082 
L 268.745455 150.199652 
L 270.436364 150.539859 
L 269.76 150.71122 
L 270.436364 150.883422 
L 270.098182 151.056452 
L 270.436364 151.230302 
L 270.436364 151.580462 
L 270.774545 151.756752 
L 270.436364 151.933848 
L 272.127273 152.290433 
L 271.450909 152.469907 
L 272.127273 152.650161 
L 271.789091 152.831186 
L 272.127273 153.01299 
L 272.127273 153.378881 
L 272.465455 153.56296 
L 272.127273 153.747783 
L 273.818182 154.119663 
L 273.141818 154.3067 
L 273.818182 154.49446 
L 273.48 154.682943 
L 273.818182 154.872144 
L 273.818182 155.252661 
L 274.156364 155.443964 
L 273.818182 155.635963 
L 275.509091 156.022009 
L 274.832727 156.216041 
L 275.509091 156.410743 
L 275.170909 156.606113 
L 275.509091 156.80213 
L 275.509091 157.196117 
L 275.847273 157.394071 
L 275.509091 157.59266 
L 277.2 157.991699 
L 276.523636 158.192149 
L 277.2 158.393199 
L 276.861818 158.594855 
L 277.2 158.797111 
L 277.2 159.203374 
L 277.538182 159.407381 
L 277.2 159.611953 
L 278.890909 160.022786 
L 278.214545 160.22904 
L 278.890909 160.435839 
L 278.552727 160.643175 
L 278.890909 160.851042 
L 278.890909 161.268368 
L 279.229091 161.4778 
L 278.890909 161.687749 
L 280.581818 162.109142 
L 279.905455 162.320579 
L 280.581818 162.532492 
L 280.243636 162.744895 
L 280.581818 162.95776 
L 280.581818 163.384888 
L 280.92 163.599131 
L 280.581818 163.813815 
L 282.272727 164.244507 
L 281.596364 164.460501 
L 282.272727 164.676908 
L 281.934545 164.893729 
L 282.272727 165.110957 
L 282.272727 165.546619 
L 282.610909 165.765032 
L 282.272727 165.983831 
L 283.963636 166.42254 
L 283.287273 166.642449 
L 283.963636 166.862703 
L 283.625455 167.083315 
L 283.963636 167.304265 
L 283.963636 167.747178 
L 284.301818 167.969121 
L 283.963636 168.191381 
L 285.654545 168.63683 
L 284.978182 168.860007 
L 285.654545 169.08348 
L 285.316364 169.307228 
L 285.654545 169.531259 
L 285.654545 169.980135 
L 285.992727 170.204966 
L 285.654545 170.430052 
L 287.345455 170.880947 
L 286.669091 171.10675 
L 287.345455 171.332787 
L 287.007273 171.559038 
L 287.345455 171.785502 
L 287.345455 172.239058 
L 287.683636 172.466129 
L 287.345455 172.693393 
L 289.036364 173.148459 
L 288.36 173.376254 
L 289.036364 173.604207 
L 288.698182 173.832326 
L 289.036364 174.060589 
L 289.036364 174.517544 
L 289.374545 174.746221 
L 289.036364 174.975029 
L 290.727273 175.432997 
L 290.050909 175.662136 
L 290.727273 175.891385 
L 290.389091 176.120724 
L 290.727273 176.350152 
L 290.727273 176.809257 
L 291.065455 177.038913 
L 290.727273 177.268631 
L 292.418182 177.728239 
L 291.741818 177.958109 
L 292.418182 178.188027 
L 292.08 178.417972 
L 292.418182 178.647945 
L 292.418182 179.107946 
L 292.756364 179.337961 
L 292.418182 179.567982 
L 294.109091 180.028004 
L 293.432727 180.257991 
L 294.109091 180.487964 
L 293.770909 180.717902 
L 294.109091 180.947813 
L 294.109091 181.407504 
L 294.447273 181.637277 
L 294.109091 181.866995 
L 295.8 182.326231 
L 295.123636 182.555742 
L 295.8 182.785171 
L 295.461818 183.014516 
L 295.8 183.243766 
L 295.8 183.701975 
L 296.138182 183.930921 
L 295.8 184.159749 
L 297.490909 184.617041 
L 296.814545 184.845491 
L 297.490909 185.07381 
L 297.152727 185.301984 
L 297.490909 185.530006 
L 297.490909 185.985596 
L 297.829091 186.213142 
L 297.490909 186.440523 
L 299.181818 186.894755 
L 298.505455 187.121592 
L 299.181818 187.348235 
L 298.843636 187.574686 
L 299.181818 187.800937 
L 299.181818 188.252811 
L 299.52 188.478421 
L 299.181818 188.70381 
L 300.872727 189.153899 
L 300.196364 189.378592 
L 300.872727 189.603043 
L 300.534545 189.82724 
L 300.872727 190.051188 
L 300.872727 190.498306 
L 301.210909 190.721462 
L 300.872727 190.944349 
L 302.563636 191.389282 
L 301.887273 191.611321 
L 302.563636 191.833064 
L 302.225455 192.054517 
L 302.563636 192.27566 
L 302.563636 192.717036 
L 302.901818 192.937248 
L 302.563636 193.157144 
L 304.254545 193.595956 
L 303.578182 193.814858 
L 304.254545 194.03343 
L 303.916364 194.251651 
L 304.254545 194.469533 
L 304.254545 194.90423 
L 304.592727 195.121037 
L 304.254545 195.337486 
L 305.945455 195.76926 
L 305.269091 195.984592 
L 305.945455 196.199532 
L 305.607273 196.414092 
L 305.945455 196.628266 
L 305.945455 197.055415 
L 306.283636 197.268389 
L 305.945455 197.480964 
L 307.636364 197.904867 
L 306.96 198.116201 
L 307.636364 198.327107 
L 307.298182 198.537587 
L 307.636364 198.747639 
L 307.636364 199.166447 
L 307.974545 199.37519 
L 307.636364 199.583491 
L 309.327273 199.998749 
L 308.650909 200.205692 
L 309.327273 200.412181 
L 308.989091 200.618207 
L 309.327273 200.823772 
L 309.327273 201.233488 
L 309.665455 201.43764 
L 309.327273 201.641309 
L 311.018182 202.0472 
L 310.341818 202.249414 
L 311.018182 202.45114 
L 310.68 202.652369 
L 311.018182 202.853094 
L 311.018182 203.253057 
L 311.356364 203.45228 
L 311.018182 203.650986 
L 312.709091 204.046868 
L 312.032727 204.244037 
L 312.709091 204.440682 
L 312.370909 204.636803 
L 312.709091 204.832394 
L 312.709091 205.221996 
L 313.047273 205.415994 
L 312.709091 205.609455 
L 314.4 205.994756 
L 313.723636 206.18659 
L 314.4 206.377872 
L 314.061818 206.56861 
L 314.4 206.758796 
L 314.4 207.1375 
L 314.738182 207.326012 
L 314.4 207.513965 
L 316.090909 207.888182 
L 315.414545 208.074439 
L 316.090909 208.260124 
L 315.752727 208.445237 
L 316.090909 208.629771 
L 316.090909 208.997123 
L 316.429091 209.179926 
L 316.090909 209.362144 
L 317.781818 209.724836 
L 317.105455 209.905296 
L 317.781818 210.085177 
L 317.443636 210.264459 
L 317.781818 210.443148 
L 317.781818 210.798747 
L 318.12 210.975643 
L 317.781818 211.151947 
L 319.472727 211.502748 
L 318.796364 211.677239 
L 319.472727 211.85113 
L 319.134545 212.024414 
L 319.472727 212.197086 
L 319.472727 212.540601 
L 319.810909 212.711445 
L 319.472727 212.881669 
L 321.163636 213.220284 
L 320.487273 213.38866 
L 321.163636 213.556424 
L 320.825455 213.723566 
L 321.163636 213.890089 
L 321.163636 214.221266 
L 321.501818 214.38592 
L 321.163636 214.549954 
L 322.854545 214.87614 
L 322.178182 215.038293 
L 322.854545 215.199817 
L 322.516364 215.360715 
L 322.854545 215.520986 
L 322.854545 215.839631 
L 323.192727 215.998006 
L 322.854545 216.155753 
L 324.545455 216.469346 
L 323.869091 216.625191 
L 324.545455 216.780409 
L 324.207273 216.934986 
L 324.545455 217.088928 
L 324.545455 217.394911 
L 324.883636 217.546951 
L 324.545455 217.69835 
L 326.236364 217.999239 
L 325.56 218.148735 
L 326.236364 218.297584 
L 325.898182 218.445799 
L 326.236364 218.593379 
L 326.236364 218.886623 
L 326.574545 219.032287 
L 326.236364 219.177317 
L 327.927273 219.465461 
L 327.250909 219.608574 
L 327.927273 219.751047 
L 327.589091 219.892885 
L 327.927273 220.034089 
L 327.927273 220.314582 
L 328.265455 220.45387 
L 327.927273 220.592523 
L 329.618182 220.867922 
L 328.941818 221.004666 
L 329.618182 221.140769 
L 329.28 221.276245 
L 329.618182 221.411087 
L 329.618182 221.678862 
L 329.956364 221.811801 
L 329.618182 221.9441 
L 331.309091 222.206815 
L 330.632727 222.337225 
L 331.309091 222.467 
L 330.970909 222.596148 
L 331.309091 222.724669 
L 331.309091 222.979816 
L 331.647273 223.106448 
L 331.309091 223.232453 
L 333 223.482588 
L 332.323636 223.606718 
L 333 223.730228 
L 332.661818 223.853111 
L 333 223.975373 
L 333 224.218029 
L 333.338182 224.33843 
L 333 224.458211 
L 334.690909 224.695925 
L 334.014545 224.813851 
L 334.690909 224.931171 
L 334.352727 225.04787 
L 334.690909 225.279442 
L 334.690909 225.394308 
L 335.029091 225.508568 
L 334.690909 225.62222 
L 336.381818 225.847706 
L 335.705455 225.959539 
L 336.381818 226.070765 
L 336.043636 226.181392 
L 336.381818 226.400846 
L 336.381818 226.509673 
L 336.72 226.617908 
L 336.381818 226.725543 
L 338.072727 226.939028 
L 337.396364 227.044885 
L 338.072727 227.150149 
L 337.734545 227.25482 
L 338.072727 227.462411 
L 338.072727 227.565324 
L 338.410909 227.667658 
L 338.072727 227.769407 
L 339.763636 227.971167 
L 339.087273 228.071178 
L 339.763636 228.17061 
L 339.425455 228.26947 
L 339.763636 228.465474 
L 339.763636 228.562625 
L 340.101818 228.659197 
L 339.763636 228.75521 
L 341.454545 228.945534 
L 340.778182 229.039859 
L 341.454545 229.133618 
L 341.116364 229.226819 
L 341.454545 229.411546 
L 341.454545 229.503086 
L 341.792727 229.594068 
L 341.454545 229.684497 
L 343.145455 229.863717 
L 342.469091 229.952506 
L 343.145455 230.040758 
L 342.807273 230.128465 
L 343.145455 230.30226 
L 343.145455 230.388354 
L 343.483636 230.473911 
L 343.145455 230.558937 
L 344.836364 230.727396 
L 344.16 230.81083 
L 344.836364 230.893746 
L 344.498182 230.976132 
L 344.836364 231.139346 
L 344.836364 231.220174 
L 345.174545 231.300492 
L 344.836364 231.380286 
L 346.527273 231.53835 
L 345.850909 231.616621 
L 346.527273 231.694381 
L 346.189091 231.771639 
L 346.527273 231.924644 
L 346.527273 232.000399 
L 346.865455 232.075657 
L 346.527273 232.150419 
L 348.218182 232.444559 
L 347.88 232.516875 
L 348.218182 232.660064 
L 348.218182 232.730938 
L 348.556364 232.801337 
L 348.218182 232.87126 
L 349.909091 233.146231 
L 349.570909 233.213811 
L 349.909091 233.347577 
L 349.909091 233.413771 
L 350.247273 233.479503 
L 349.909091 233.544788 
L 351.6 233.801402 
L 351.261818 233.864439 
L 351.6 233.98919 
L 351.6 234.050903 
L 351.938182 234.112183 
L 351.6 234.173028 
L 353.290909 234.412099 
L 352.952727 234.470801 
L 353.290909 234.586942 
L 353.290909 234.644382 
L 353.629091 234.701408 
L 353.290909 234.75802 
L 354.981818 234.980377 
L 354.643636 235.034949 
L 354.981818 235.089121 
L 354.981818 235.196267 
L 356.672727 235.508281 
L 356.334545 235.558931 
L 356.672727 235.609202 
L 356.672727 235.7086 
L 358.363636 235.997874 
L 358.025455 236.044802 
L 358.363636 236.091372 
L 358.363636 236.183435 
L 360.054545 236.451175 
L 359.716364 236.494588 
L 360.054545 236.537656 
L 360.054545 236.622785 
L 361.745455 236.87019 
L 361.407273 236.91028 
L 361.745455 236.950053 
L 361.745455 237.028634 
L 363.436364 237.330515 
L 363.436364 237.402941 
L 365.127273 237.680945 
L 365.127273 237.747594 
L 366.818182 238.003209 
L 366.818182 238.06444 
L 368.509091 238.2991 
L 368.509091 238.355265 
L 370.2 238.596184 
L 370.2 238.621791 
L 371.890909 238.842259 
L 371.890909 238.865675 
L 373.581818 239.067117 
L 373.581818 239.067117 
" clip-path="url(#p1c0cfc66dd)" style="fill: none; stroke: #1f77b4; stroke-width: 1.5; stroke-linecap: square"/>
   </g>
   <g id="line2d_16">
    <path d="M 69.218182 241.134703 
L 139.56 241.02855 
L 143.956364 240.756964 
L 147 240.355126 
L 149.705455 239.772249 
L 152.072727 239.036347 
L 154.270909 238.127504 
L 156.469091 236.972897 
L 158.667273 235.550494 
L 160.865455 233.845214 
L 163.063636 231.849654 
L 165.430909 229.376592 
L 167.798182 226.57768 
L 170.334545 223.239429 
L 173.209091 219.073714 
L 176.421818 214.010166 
L 180.310909 207.441146 
L 185.890909 197.526583 
L 195.190909 181.003378 
L 199.587273 173.668023 
L 203.476364 167.601997 
L 207.027273 162.470152 
L 210.409091 157.975645 
L 213.621818 154.078029 
L 216.665455 150.729032 
L 219.54 147.877947 
L 222.414545 145.33352 
L 225.12 143.222219 
L 227.825455 141.389445 
L 230.361818 139.927959 
L 232.898182 138.718986 
L 235.434545 137.766786 
L 237.801818 137.113483 
L 238.985455 136.873122 
L 240 136.736943 
L 240 136.690787 
L 244.058182 136.503861 
L 245.749091 136.621057 
L 246.763636 136.749302 
L 246.763636 136.774903 
L 248.454545 136.953819 
L 248.116364 136.987857 
L 248.792727 137.136051 
L 248.454545 137.176107 
L 250.145455 137.348343 
L 249.807273 137.394396 
L 250.145455 137.441655 
L 250.145455 137.539757 
L 251.836364 137.750305 
L 251.16 137.805925 
L 251.836364 137.862731 
L 251.498182 137.920729 
L 251.836364 138.040289 
L 251.836364 138.101851 
L 252.174545 138.164598 
L 251.836364 138.228525 
L 253.527273 138.496044 
L 253.189091 138.565871 
L 253.527273 138.709039 
L 253.527273 138.782381 
L 253.865455 138.856895 
L 253.527273 138.932581 
L 255.218182 139.087441 
L 254.541818 139.166614 
L 255.218182 139.246946 
L 254.88 139.328442 
L 255.218182 139.494903 
L 255.218182 139.57986 
L 255.556364 139.665975 
L 255.218182 139.753234 
L 256.909091 139.931185 
L 256.232727 140.021877 
L 256.909091 140.113713 
L 256.570909 140.20668 
L 256.909091 140.396025 
L 256.909091 140.492397 
L 257.247273 140.589892 
L 256.909091 140.688511 
L 258.6 140.88912 
L 257.923636 140.991102 
L 258.6 141.094202 
L 258.261818 141.198411 
L 258.6 141.410159 
L 258.6 141.517691 
L 258.938182 141.626318 
L 258.6 141.736049 
L 260.290909 141.958791 
L 259.614545 142.071796 
L 260.290909 142.185889 
L 259.952727 142.301059 
L 260.290909 142.534644 
L 260.290909 142.653053 
L 260.629091 142.772523 
L 260.290909 142.893062 
L 261.981818 143.137331 
L 261.305455 143.261054 
L 261.981818 143.385826 
L 261.643636 143.511651 
L 261.981818 143.638518 
L 261.981818 143.895381 
L 262.32 144.02537 
L 261.981818 144.156386 
L 263.672727 144.4215 
L 262.996364 144.555591 
L 263.672727 144.690695 
L 263.334545 144.826812 
L 263.672727 144.963942 
L 263.672727 145.241202 
L 264.010909 145.381331 
L 263.672727 145.522452 
L 265.363636 145.807659 
L 264.687273 145.951731 
L 265.363636 146.096781 
L 265.025455 146.242804 
L 265.363636 146.389791 
L 265.363636 146.686655 
L 265.701818 146.836523 
L 265.363636 146.987337 
L 267.054545 147.291803 
L 266.378182 147.445435 
L 267.054545 147.600012 
L 266.716364 147.755506 
L 267.054545 147.91193 
L 267.054545 148.227521 
L 267.392727 148.386682 
L 267.054545 148.546746 
L 268.745455 148.869568 
L 268.069091 149.03232 
L 268.745455 149.195954 
L 268.407273 149.360464 
L 268.745455 149.525856 
L 268.745455 149.859238 
L 269.083636 150.027222 
L 268.745455 150.196061 
L 270.436364 150.536281 
L 269.76 150.707649 
L 270.436364 150.879859 
L 270.098182 151.052895 
L 270.436364 151.226752 
L 270.436364 151.576926 
L 270.774545 151.753229 
L 270.436364 151.930333 
L 272.127273 152.286924 
L 271.450909 152.466406 
L 272.127273 152.646666 
L 271.789091 152.827705 
L 272.127273 153.009516 
L 272.127273 153.37542 
L 272.465455 153.559506 
L 272.127273 153.744344 
L 273.818182 154.116231 
L 273.141818 154.303281 
L 273.818182 154.491047 
L 273.48 154.679538 
L 273.818182 154.868746 
L 273.818182 155.249277 
L 274.156364 155.440587 
L 273.818182 155.632593 
L 275.509091 156.018652 
L 274.832727 156.212698 
L 275.509091 156.407413 
L 275.170909 156.602783 
L 275.509091 156.798815 
L 275.509091 157.192815 
L 275.847273 157.390777 
L 275.509091 157.589372 
L 277.2 157.988432 
L 276.523636 158.188889 
L 277.2 158.389946 
L 276.861818 158.591609 
L 277.2 158.793872 
L 277.2 159.200155 
L 277.538182 159.404169 
L 277.2 159.608748 
L 278.890909 160.019602 
L 278.214545 160.225863 
L 278.890909 160.432668 
L 278.552727 160.640011 
L 278.890909 160.847892 
L 278.890909 161.265232 
L 279.229091 161.474677 
L 278.890909 161.684626 
L 280.581818 162.10604 
L 279.905455 162.317484 
L 280.581818 162.529411 
L 280.243636 162.741814 
L 280.581818 162.954692 
L 280.581818 163.381834 
L 280.92 163.596084 
L 280.581818 163.810782 
L 282.272727 164.241495 
L 281.596364 164.457488 
L 282.272727 164.67391 
L 281.934545 164.890738 
L 282.272727 165.107979 
L 282.272727 165.543655 
L 282.610909 165.762075 
L 282.272727 165.980881 
L 283.963636 166.419617 
L 283.287273 166.639526 
L 283.963636 166.859794 
L 283.625455 167.080413 
L 283.963636 167.301377 
L 283.963636 167.744304 
L 284.301818 167.966253 
L 283.963636 168.188527 
L 285.654545 168.633997 
L 284.978182 168.857181 
L 285.654545 169.080654 
L 285.316364 169.304416 
L 285.654545 169.528461 
L 285.654545 169.97735 
L 285.992727 170.202188 
L 285.654545 170.427281 
L 287.345455 170.878197 
L 286.669091 171.104013 
L 287.345455 171.33005 
L 287.007273 171.556315 
L 287.345455 171.782793 
L 287.345455 172.236363 
L 287.683636 172.463448 
L 287.345455 172.690719 
L 289.036364 173.145805 
L 288.36 173.373607 
L 289.036364 173.601567 
L 288.698182 173.829693 
L 289.036364 174.057963 
L 289.036364 174.514938 
L 289.374545 174.743629 
L 289.036364 174.972444 
L 290.727273 175.430426 
L 290.050909 175.659578 
L 290.727273 175.888834 
L 290.389091 176.118187 
L 290.727273 176.347622 
L 290.727273 176.806741 
L 291.065455 177.036404 
L 290.727273 177.266136 
L 292.418182 177.725765 
L 291.741818 177.955648 
L 292.418182 178.185566 
L 292.08 178.415525 
L 292.418182 178.645505 
L 292.418182 179.105527 
L 292.756364 179.335548 
L 292.418182 179.565576 
L 294.109091 180.025619 
L 293.432727 180.255619 
L 294.109091 180.485592 
L 293.770909 180.715545 
L 294.109091 180.945463 
L 294.109091 181.405174 
L 294.447273 181.634954 
L 294.109091 181.864679 
L 295.8 182.323936 
L 295.123636 182.553454 
L 295.8 182.782896 
L 295.461818 183.012249 
L 295.8 183.241512 
L 295.8 183.699734 
L 296.138182 183.928687 
L 295.8 184.15753 
L 297.490909 184.614836 
L 296.814545 184.843299 
L 297.490909 185.071625 
L 297.152727 185.299805 
L 297.490909 185.527842 
L 297.490909 185.983445 
L 297.829091 186.211005 
L 297.490909 186.438393 
L 299.181818 186.892639 
L 298.505455 187.119482 
L 299.181818 187.34614 
L 298.843636 187.572604 
L 299.181818 187.798862 
L 299.181818 188.25075 
L 299.52 188.476367 
L 299.181818 188.701769 
L 300.872727 189.151879 
L 300.196364 189.376579 
L 300.872727 189.601037 
L 300.534545 189.825241 
L 300.872727 190.049203 
L 300.872727 190.496335 
L 301.210909 190.719498 
L 300.872727 190.942398 
L 302.563636 191.387345 
L 301.887273 191.609391 
L 302.563636 191.831147 
L 302.225455 192.052608 
L 302.563636 192.273764 
L 302.563636 192.715147 
L 302.901818 192.935374 
L 302.563636 193.155276 
L 304.254545 193.594101 
L 303.578182 193.813018 
L 304.254545 194.031597 
L 303.916364 194.249831 
L 304.254545 194.467714 
L 304.254545 194.902431 
L 304.592727 195.119245 
L 304.254545 195.335701 
L 305.945455 195.767502 
L 305.269091 195.982835 
L 305.945455 196.197788 
L 305.607273 196.412355 
L 305.945455 196.626536 
L 305.945455 197.053705 
L 306.283636 197.266687 
L 305.945455 197.479269 
L 307.636364 197.903191 
L 306.96 198.114526 
L 307.636364 198.325439 
L 307.298182 198.535933 
L 307.636364 198.745992 
L 307.636364 199.164814 
L 307.974545 199.37357 
L 307.636364 199.581878 
L 309.327273 199.99715 
L 308.650909 200.2041 
L 309.327273 200.410602 
L 308.989091 200.616636 
L 309.327273 200.822207 
L 309.327273 201.231937 
L 309.665455 201.436096 
L 309.327273 201.639772 
L 311.018182 202.045683 
L 310.341818 202.247905 
L 311.018182 202.449637 
L 310.68 202.650873 
L 311.018182 202.851612 
L 311.018182 203.251582 
L 311.356364 203.450812 
L 311.018182 203.649532 
L 312.709091 204.045434 
L 312.032727 204.242603 
L 312.709091 204.439255 
L 312.370909 204.635383 
L 312.709091 204.830988 
L 312.709091 205.220597 
L 313.047273 205.414602 
L 312.709091 205.608076 
L 314.4 205.993391 
L 313.723636 206.185232 
L 314.4 206.376528 
L 314.061818 206.567272 
L 314.4 206.757459 
L 314.4 207.136184 
L 314.738182 207.324702 
L 314.4 207.512662 
L 316.090909 207.886893 
L 315.414545 208.07315 
L 316.090909 208.258842 
L 315.752727 208.443969 
L 316.090909 208.62851 
L 316.090909 208.995875 
L 316.429091 209.178686 
L 316.090909 209.36091 
L 317.781818 209.723616 
L 317.105455 209.90409 
L 317.781818 210.083971 
L 317.443636 210.26326 
L 317.781818 210.441955 
L 317.781818 210.797568 
L 318.12 210.974471 
L 317.781818 211.150782 
L 319.472727 211.501597 
L 318.796364 211.676095 
L 319.472727 211.849993 
L 319.134545 212.023284 
L 319.472727 212.195962 
L 319.472727 212.539491 
L 319.810909 212.710342 
L 319.472727 212.880573 
L 321.163636 213.219195 
L 320.487273 213.387585 
L 321.163636 213.555355 
L 320.825455 213.722505 
L 321.163636 213.889027 
L 321.163636 214.220225 
L 321.501818 214.384886 
L 321.163636 214.54892 
L 322.854545 214.87512 
L 322.178182 215.037279 
L 322.854545 215.198811 
L 322.516364 215.359716 
L 322.854545 215.519993 
L 322.854545 215.838652 
L 323.192727 215.997034 
L 322.854545 216.154788 
L 324.545455 216.468388 
L 323.869091 216.624247 
L 324.545455 216.779464 
L 324.207273 216.934048 
L 324.545455 217.087998 
L 324.545455 217.393994 
L 324.883636 217.546034 
L 324.545455 217.69744 
L 326.236364 217.998343 
L 325.56 218.147839 
L 326.236364 218.296702 
L 325.898182 218.444923 
L 326.236364 218.592503 
L 326.236364 218.885762 
L 326.574545 219.031432 
L 326.236364 219.176462 
L 327.927273 219.46462 
L 327.250909 219.60774 
L 327.927273 219.75022 
L 327.589091 219.892065 
L 327.927273 220.033269 
L 327.927273 220.313775 
L 328.265455 220.45307 
L 327.927273 220.591724 
L 329.618182 220.867136 
L 328.941818 221.00388 
L 329.618182 221.139997 
L 329.28 221.275473 
L 329.618182 221.410322 
L 329.618182 221.678111 
L 329.956364 221.81105 
L 329.618182 221.943362 
L 331.309091 222.206084 
L 330.632727 222.336494 
L 331.309091 222.466276 
L 330.970909 222.595431 
L 331.309091 222.723952 
L 331.309091 222.979113 
L 331.647273 223.105752 
L 331.309091 223.231764 
L 333 223.481906 
L 332.323636 223.606043 
L 333 223.729553 
L 332.661818 223.852442 
L 333 223.974704 
L 333 224.217374 
L 333.338182 224.337775 
L 333 224.457563 
L 334.690909 224.695284 
L 334.014545 224.813224 
L 334.690909 224.930543 
L 334.352727 225.04725 
L 334.690909 225.278829 
L 334.690909 225.393702 
L 335.029091 225.507968 
L 334.690909 225.621621 
L 336.381818 225.847113 
L 335.705455 225.958946 
L 336.381818 226.070186 
L 336.043636 226.180813 
L 336.381818 226.400274 
L 336.381818 226.509108 
L 336.72 226.617343 
L 336.381818 226.724985 
L 338.072727 226.938477 
L 337.396364 227.04434 
L 338.072727 227.149604 
L 337.734545 227.254282 
L 338.072727 227.46188 
L 338.072727 227.5648 
L 338.410909 227.667135 
L 338.072727 227.76889 
L 339.763636 227.970657 
L 339.087273 228.070668 
L 339.763636 228.170107 
L 339.425455 228.268974 
L 339.763636 228.464985 
L 339.763636 228.562136 
L 340.101818 228.658714 
L 339.763636 228.754728 
L 341.454545 228.945066 
L 340.778182 229.03939 
L 341.454545 229.13315 
L 341.116364 229.226357 
L 341.454545 229.411098 
L 341.454545 229.502631 
L 341.792727 229.593619 
L 341.454545 229.684056 
L 343.145455 229.863283 
L 342.469091 229.952079 
L 343.145455 230.040331 
L 342.807273 230.128038 
L 343.145455 230.30184 
L 343.145455 230.387934 
L 343.483636 230.473497 
L 343.145455 230.558523 
L 344.836364 230.726989 
L 344.16 230.81043 
L 344.836364 230.893346 
L 344.498182 230.975739 
L 344.836364 231.13896 
L 344.836364 231.219795 
L 345.174545 231.300106 
L 344.836364 231.379913 
L 346.527273 231.537978 
L 345.850909 231.616249 
L 346.527273 231.694016 
L 346.189091 231.771273 
L 346.527273 231.924285 
L 346.527273 232.000047 
L 346.865455 232.075305 
L 346.527273 232.150074 
L 348.218182 232.444222 
L 347.88 232.516544 
L 348.218182 232.65974 
L 348.218182 232.730614 
L 348.556364 232.801013 
L 348.218182 232.870936 
L 349.909091 233.145928 
L 349.570909 233.213507 
L 349.909091 233.347274 
L 349.909091 233.413468 
L 350.247273 233.479207 
L 349.909091 233.544491 
L 351.6 233.80112 
L 351.261818 233.864157 
L 351.6 233.988914 
L 351.6 234.050628 
L 351.938182 234.111914 
L 351.6 234.172759 
L 353.290909 234.411837 
L 352.952727 234.470546 
L 353.290909 234.586687 
L 353.290909 234.644133 
L 353.629091 234.70116 
L 353.290909 234.757779 
L 354.981818 234.980135 
L 354.643636 235.034715 
L 354.981818 235.088887 
L 354.981818 235.19604 
L 356.672727 235.508068 
L 356.334545 235.558718 
L 356.672727 235.608989 
L 356.672727 235.708393 
L 358.363636 235.997674 
L 358.025455 236.044609 
L 358.363636 236.091179 
L 358.363636 236.183242 
L 360.054545 236.450996 
L 359.716364 236.494409 
L 360.054545 236.537476 
L 360.054545 236.622613 
L 361.745455 236.870025 
L 361.407273 236.910122 
L 361.745455 236.949888 
L 361.745455 237.028476 
L 363.436364 237.330364 
L 363.436364 237.402796 
L 365.127273 237.680814 
L 365.127273 237.747463 
L 366.818182 238.003085 
L 366.818182 238.064323 
L 368.509091 238.29899 
L 368.509091 238.355161 
L 370.2 238.596087 
L 370.2 238.621695 
L 371.890909 238.842169 
L 371.890909 238.865585 
L 373.581818 239.067035 
L 373.581818 239.067035 
" clip-path="url(#p1c0cfc66dd)" style="fill: none; stroke: #ff7f0e; stroke-width: 1.5; stroke-linecap: square"/>
   </g>
   <g id="line2d_17">
    <path d="M 69.218182 241.134703 
L 69.556364 241.298068 
L 70.232727 241.522093 
L 70.909091 241.549665 
L 71.078182 241.249817 
L 72.092727 241.193983 
L 90.692727 240.83968 
L 92.721818 240.815555 
L 94.750909 241.035443 
L 97.625455 241.358727 
L 99.823636 241.338737 
L 106.587273 241.118366 
L 111.490909 240.953416 
L 113.350909 240.674936 
L 114.703636 240.273174 
L 115.887273 239.717629 
L 117.070909 238.916745 
L 118.254545 237.821329 
L 119.438182 236.389014 
L 120.621818 234.586976 
L 121.805455 232.393537 
L 123.158182 229.395265 
L 124.68 225.400967 
L 126.201818 220.779456 
L 128.061818 214.35901 
L 130.090909 206.533338 
L 132.627273 195.841479 
L 136.516364 178.349359 
L 142.603636 151.033588 
L 145.647273 138.39331 
L 148.352727 128.060124 
L 150.889091 119.260374 
L 153.256364 111.875617 
L 155.454545 105.755232 
L 157.483636 100.740699 
L 159.512727 96.334983 
L 161.372727 92.828665 
L 163.063636 90.080755 
L 164.754545 87.750206 
L 166.276364 86.009034 
L 167.798182 84.605429 
L 169.150909 83.641394 
L 170.503636 82.944554 
L 171.856364 82.515027 
L 173.04 82.358341 
L 174.223636 82.405814 
L 175.407273 82.6567 
L 176.76 83.191016 
L 178.112727 83.986984 
L 179.465455 85.041187 
L 180.987273 86.530225 
L 182.509091 88.332449 
L 184.2 90.690308 
L 186.06 93.697465 
L 188.089091 97.443427 
L 190.287273 102.007264 
L 192.654545 107.45011 
L 195.36 114.247744 
L 198.572727 122.960773 
L 202.630909 134.649795 
L 215.82 173.146729 
L 219.370909 182.573402 
L 222.583636 190.488932 
L 225.458182 197.01722 
L 228.332727 202.990811 
L 231.038182 208.094897 
L 233.574545 212.425066 
L 236.110909 216.324757 
L 238.647273 219.810079 
L 238.309091 220.028196 
L 240 220.459205 
L 239.323636 220.672117 
L 240 220.883307 
L 239.661818 221.092787 
L 240 221.300557 
L 240 221.711018 
L 240.338182 221.913715 
L 240 222.114737 
L 241.690909 222.511784 
L 241.014545 222.707823 
L 241.690909 222.902214 
L 241.352727 223.094971 
L 241.690909 223.286102 
L 241.690909 223.663497 
L 242.029091 223.849781 
L 241.690909 224.034467 
L 243.381818 224.399082 
L 242.705455 224.579025 
L 243.381818 224.757404 
L 243.043636 224.934224 
L 243.381818 225.109501 
L 243.381818 225.455429 
L 243.72 225.626108 
L 243.381818 225.79527 
L 245.072727 226.12908 
L 244.396364 226.293749 
L 245.072727 226.456935 
L 244.734545 226.618646 
L 245.072727 226.778896 
L 245.072727 227.095039 
L 245.410909 227.250946 
L 245.072727 227.405419 
L 246.763636 227.710127 
L 246.087273 227.860368 
L 246.763636 228.009209 
L 246.425455 228.156673 
L 246.763636 228.30275 
L 246.763636 228.590818 
L 247.101818 228.732822 
L 246.763636 228.873481 
L 248.454545 229.150803 
L 247.778182 229.287485 
L 248.454545 229.422858 
L 248.116364 229.556935 
L 248.454545 229.689716 
L 248.454545 229.951452 
L 248.792727 230.080414 
L 248.454545 230.208128 
L 250.145455 230.459815 
L 249.469091 230.583807 
L 250.145455 230.706586 
L 249.807273 230.828145 
L 250.145455 230.948505 
L 250.145455 231.185646 
L 250.483636 231.302449 
L 250.145455 231.41808 
L 251.836364 231.645868 
L 251.16 231.758046 
L 251.836364 231.869086 
L 251.498182 231.979003 
L 251.836364 232.195493 
L 251.836364 232.30208 
L 252.174545 232.407571 
L 251.836364 232.511987 
L 253.527273 232.717586 
L 252.850909 232.818797 
L 253.527273 232.91896 
L 253.189091 233.018075 
L 253.527273 233.213218 
L 253.527273 233.309259 
L 253.865455 233.404286 
L 253.527273 233.498321 
L 255.218182 233.683407 
L 254.541818 233.774485 
L 255.218182 233.864591 
L 254.88 233.953739 
L 255.218182 234.129181 
L 255.218182 234.215496 
L 255.556364 234.30088 
L 255.218182 234.38534 
L 256.909091 234.551532 
L 256.232727 234.633284 
L 256.909091 234.714139 
L 256.570909 234.794112 
L 256.909091 234.951446 
L 256.909091 235.028814 
L 257.247273 235.105341 
L 256.909091 235.181013 
L 258.6 235.475429 
L 258.261818 235.546993 
L 258.6 235.687735 
L 258.6 235.756927 
L 258.938182 235.825334 
L 258.6 235.892976 
L 260.290909 236.155953 
L 259.952727 236.219844 
L 260.290909 236.345436 
L 260.290909 236.407156 
L 260.629091 236.468167 
L 260.290909 236.528474 
L 261.981818 236.762824 
L 261.643636 236.819719 
L 262.32 237.040745 
L 261.981818 237.094394 
L 263.672727 237.302736 
L 263.334545 237.35329 
L 263.672727 237.403244 
L 263.672727 237.501374 
L 265.363636 237.781976 
L 265.025455 237.826795 
L 265.363636 237.871069 
L 265.363636 237.958018 
L 267.054545 238.206423 
L 266.716364 238.246072 
L 267.054545 238.285224 
L 267.054545 238.362096 
L 268.745455 238.651073 
L 268.745455 238.718887 
L 270.436364 238.973558 
L 270.436364 239.033259 
L 272.127273 239.283642 
L 272.127273 239.309698 
L 273.818182 239.529441 
L 273.818182 239.552285 
L 275.847273 239.784484 
L 275.509091 239.803944 
L 276.185455 239.823148 
L 277.2 239.950504 
L 280.581818 240.227074 
L 280.581818 240.253757 
L 284.301818 240.49296 
L 283.963636 240.50261 
L 285.654545 240.52191 
L 285.654545 240.557754 
L 285.654545 240.575676 
L 310.003636 241.079421 
L 373.581818 241.134644 
L 373.581818 241.134644 
" clip-path="url(#p1c0cfc66dd)" style="fill: none; stroke: #2ca02c; stroke-width: 1.5; stroke-linecap: square"/>
   </g>
   <g id="line2d_18">
    <path d="M 69.218182 241.134703 
L 110.983636 241.031307 
L 113.012727 240.773507 
L 114.534545 240.352148 
L 115.718182 239.817109 
L 116.901818 239.044729 
L 118.085455 237.985955 
L 119.269091 236.597639 
L 120.452727 234.8455 
L 121.636364 232.706006 
L 122.989091 229.771819 
L 124.341818 226.31704 
L 125.863636 221.831674 
L 127.554545 216.162922 
L 129.583636 208.537376 
L 131.950909 198.751478 
L 135.332727 183.732125 
L 143.110909 148.85623 
L 146.154545 136.383729 
L 148.86 126.229122 
L 151.227273 118.157699 
L 153.425455 111.382949 
L 155.623636 105.318646 
L 157.652727 100.355743 
L 159.512727 96.340973 
L 161.372727 92.835103 
L 163.063636 90.087524 
L 164.754545 87.757223 
L 166.276364 86.016224 
L 167.798182 84.61275 
L 169.150909 83.648818 
L 170.503636 82.952047 
L 171.856364 82.522568 
L 173.04 82.365924 
L 174.223636 82.413417 
L 175.407273 82.664317 
L 176.76 83.198626 
L 178.112727 83.994587 
L 179.465455 85.048756 
L 180.987273 86.537759 
L 182.509091 88.339921 
L 184.2 90.697697 
L 186.06 93.704738 
L 188.089091 97.450548 
L 190.287273 102.014191 
L 192.654545 107.45681 
L 195.36 114.254141 
L 198.572727 122.96677 
L 202.630909 134.655241 
L 215.82 173.150279 
L 219.370909 182.576477 
L 222.583636 190.491606 
L 225.458182 197.019564 
L 228.332727 202.992844 
L 231.038182 208.096662 
L 233.574545 212.426604 
L 236.110909 216.326088 
L 238.647273 219.811223 
L 238.309091 220.029326 
L 240 220.460321 
L 239.323636 220.67322 
L 240 220.884403 
L 239.661818 221.093869 
L 240 221.301633 
L 240 221.712066 
L 240.338182 221.914749 
L 240 222.115764 
L 241.690909 222.512784 
L 241.014545 222.708815 
L 241.690909 222.903199 
L 241.352727 223.095943 
L 241.690909 223.28706 
L 241.690909 223.664441 
L 242.029091 223.850712 
L 241.690909 224.035391 
L 243.381818 224.399985 
L 242.705455 224.579921 
L 243.381818 224.758293 
L 243.043636 224.9351 
L 243.381818 225.110363 
L 243.381818 225.456277 
L 243.72 225.626949 
L 243.381818 225.796098 
L 245.072727 226.129894 
L 244.396364 226.294555 
L 245.072727 226.457727 
L 244.734545 226.619432 
L 245.072727 226.779674 
L 245.072727 227.095797 
L 245.410909 227.251697 
L 245.072727 227.406164 
L 246.763636 227.71085 
L 246.087273 227.861085 
L 246.763636 228.009926 
L 246.425455 228.157376 
L 246.763636 228.303446 
L 246.763636 228.5915 
L 247.101818 228.73349 
L 246.763636 228.874143 
L 248.454545 229.151451 
L 247.778182 229.288126 
L 248.454545 229.423492 
L 248.116364 229.557562 
L 248.454545 229.690343 
L 248.454545 229.952058 
L 248.792727 230.08102 
L 248.454545 230.208721 
L 250.145455 230.460394 
L 249.469091 230.584386 
L 250.145455 230.707151 
L 249.807273 230.82871 
L 250.145455 230.949063 
L 250.145455 231.186191 
L 250.483636 231.302987 
L 250.145455 231.418611 
L 251.836364 231.646385 
L 251.16 231.758556 
L 251.836364 231.869596 
L 251.498182 231.979506 
L 251.836364 232.195975 
L 251.836364 232.302556 
L 252.174545 232.408047 
L 251.836364 232.512456 
L 253.527273 232.718048 
L 252.850909 232.819252 
L 253.527273 232.919408 
L 253.189091 233.018517 
L 253.527273 233.213652 
L 253.527273 233.309686 
L 253.865455 233.404714 
L 253.527273 233.498735 
L 255.218182 233.683814 
L 254.541818 233.774885 
L 255.218182 233.864991 
L 254.88 233.954132 
L 255.218182 234.129567 
L 255.218182 234.215875 
L 255.556364 234.301252 
L 255.218182 234.385713 
L 256.909091 234.551897 
L 256.232727 234.633635 
L 256.909091 234.714491 
L 256.570909 234.794457 
L 256.909091 234.951784 
L 256.909091 235.029152 
L 257.247273 235.105665 
L 256.909091 235.181344 
L 258.6 235.475739 
L 258.261818 235.547303 
L 258.6 235.688031 
L 258.6 235.757217 
L 258.938182 235.825624 
L 258.6 235.893258 
L 260.290909 236.156228 
L 259.952727 236.220113 
L 260.290909 236.345698 
L 260.290909 236.407418 
L 260.629091 236.468422 
L 260.290909 236.528729 
L 261.981818 236.763058 
L 261.643636 236.819954 
L 262.32 237.040966 
L 261.981818 237.094614 
L 263.672727 237.302943 
L 263.334545 237.353497 
L 263.672727 237.403444 
L 263.672727 237.501574 
L 265.363636 237.782162 
L 265.025455 237.826981 
L 265.363636 237.871248 
L 265.363636 237.958197 
L 267.054545 238.206588 
L 266.716364 238.24623 
L 267.054545 238.285383 
L 267.054545 238.362247 
L 268.745455 238.651204 
L 268.745455 238.719018 
L 270.436364 238.973675 
L 270.436364 239.033376 
L 272.127273 239.283745 
L 272.127273 239.309794 
L 273.818182 239.529531 
L 273.818182 239.552375 
L 275.847273 239.78456 
L 275.509091 239.804019 
L 276.185455 239.823217 
L 277.2 239.950573 
L 280.581818 240.227122 
L 280.581818 240.253805 
L 284.301818 240.49296 
L 283.963636 240.50261 
L 285.654545 240.52191 
L 285.654545 240.557754 
L 285.654545 240.575676 
L 310.003636 241.079421 
L 373.581818 241.134644 
L 373.581818 241.134644 
" clip-path="url(#p1c0cfc66dd)" style="fill: none; stroke: #d62728; stroke-width: 1.5; stroke-linecap: square"/>
   </g>
   <g id="line2d_19">
    <path d="M 69.218182 241.134703 
L 69.725455 242.030283 
L 69.894545 242.116364 
L 70.232727 241.842868 
L 70.909091 241.012007 
L 71.247273 240.116233 
L 71.585455 239.902645 
L 71.923636 239.919547 
L 72.6 240.271162 
L 73.952727 241.027171 
L 74.967273 241.322194 
L 76.32 241.448337 
L 78.687273 241.383542 
L 85.62 241.142216 
L 87.987273 241.1671 
L 92.214545 240.721809 
L 92.890909 240.358 
L 93.567273 239.694275 
L 94.074545 238.913099 
L 94.750909 237.373273 
L 95.427273 235.140323 
L 96.103636 232.112569 
L 96.949091 227.132068 
L 97.794545 220.832629 
L 98.809091 211.696608 
L 100.161818 197.411855 
L 102.36 171.426767 
L 105.572727 133.877959 
L 107.432727 114.768067 
L 109.123636 99.670828 
L 110.645455 87.99513 
L 112.167273 78.061039 
L 113.52 70.591503 
L 114.872727 64.292981 
L 116.225455 59.056224 
L 117.409091 55.261955 
L 118.592727 52.134073 
L 119.776364 49.612835 
L 120.96 47.644854 
L 121.974545 46.36256 
L 122.989091 45.426028 
L 124.003636 44.812174 
L 124.849091 44.532336 
L 125.694545 44.451867 
L 126.54 44.561253 
L 127.554545 44.931058 
L 128.569091 45.548435 
L 129.752727 46.565422 
L 130.936364 47.885304 
L 132.289091 49.74401 
L 133.810909 52.254936 
L 135.501818 55.530902 
L 137.361818 59.679067 
L 139.390909 64.794823 
L 141.589091 70.954381 
L 144.125455 78.746077 
L 147.169091 88.876669 
L 150.889091 102.081123 
L 157.990909 128.334164 
L 163.401818 147.899474 
L 167.290909 161.132168 
L 170.672727 171.847678 
L 173.716364 180.762673 
L 176.590909 188.499782 
L 179.296364 195.156419 
L 181.832727 200.843776 
L 184.369091 206.003806 
L 186.905455 210.652552 
L 189.272727 214.549761 
L 191.64 218.043113 
L 194.007273 221.157313 
L 196.374545 223.918836 
L 198.741818 226.355104 
L 201.278182 228.635905 
L 203.814545 230.608705 
L 206.350909 232.30605 
L 209.056364 233.847813 
L 211.930909 235.220427 
L 214.974545 236.417689 
L 218.187273 237.440377 
L 221.738182 238.332993 
L 225.627273 239.080573 
L 230.192727 239.72131 
L 235.434545 240.225537 
L 240.676364 240.557065 
L 243.72 240.692858 
L 243.381818 240.699751 
L 245.410909 240.754896 
L 245.072727 240.76041 
L 252.174545 240.928601 
L 251.836364 240.932047 
L 256.909091 240.991327 
L 256.232727 240.993395 
L 338.749091 241.134675 
L 373.581818 241.134702 
L 373.581818 241.134702 
" clip-path="url(#p1c0cfc66dd)" style="fill: none; stroke: #9467bd; stroke-width: 1.5; stroke-linecap: square"/>
   </g>
   <g id="line2d_20">
    <path d="M 69.218182 241.134703 
L 91.369091 241.027861 
L 92.214545 240.814865 
L 92.890909 240.441234 
L 93.567273 239.761255 
L 94.074545 238.965948 
L 94.750909 237.408524 
L 95.427273 235.162822 
L 96.103636 232.129078 
L 96.949091 227.150424 
L 97.963636 219.452702 
L 99.147273 208.367738 
L 100.669091 191.673531 
L 107.094545 118.073893 
L 108.785455 102.521458 
L 110.307273 90.441131 
L 111.829091 80.12586 
L 113.181818 72.344407 
L 114.534545 65.761671 
L 115.887273 60.268244 
L 117.24 55.757111 
L 118.423636 52.537027 
L 119.607273 49.931852 
L 120.790909 47.887276 
L 121.805455 46.544481 
L 122.82 45.55164 
L 123.834545 44.885185 
L 124.68 44.56403 
L 125.525455 44.444284 
L 126.370909 44.516255 
L 127.385455 44.843358 
L 128.4 45.420196 
L 129.583636 46.392386 
L 130.767273 47.669896 
L 132.12 49.482928 
L 133.641818 51.945776 
L 135.332727 55.172229 
L 137.192727 59.270584 
L 139.221818 64.337552 
L 141.42 70.450858 
L 143.956364 78.197838 
L 146.830909 87.707704 
L 150.550909 100.846184 
L 156.807273 123.944846 
L 162.894545 146.107872 
L 166.783636 159.452903 
L 170.165455 170.288772 
L 173.209091 179.324085 
L 176.083636 187.180865 
L 178.789091 193.952216 
L 181.494545 200.113946 
L 184.030909 205.34381 
L 186.567273 210.059818 
L 188.934545 214.016818 
L 191.301818 217.566596 
L 193.669091 220.733541 
L 196.036364 223.543943 
L 198.403636 226.025119 
L 200.770909 228.204752 
L 203.307273 230.236617 
L 205.843636 231.986612 
L 208.549091 233.57786 
L 211.423636 234.996051 
L 214.467273 236.234423 
L 217.68 237.293396 
L 221.230909 238.218741 
L 225.12 238.994671 
L 229.516364 239.639806 
L 234.758182 240.171557 
L 238.985455 240.464698 
L 241.690909 240.598423 
L 241.690909 240.613588 
L 264.349091 241.06915 
L 373.581818 241.134702 
L 373.581818 241.134702 
" clip-path="url(#p1c0cfc66dd)" style="fill: none; stroke: #8c564b; stroke-width: 1.5; stroke-linecap: square"/>
   </g>
   <g id="patch_3">
    <path d="M 54 252 
L 54 34.56 
" style="fill: none; stroke: #000000; stroke-width: 0.8; stroke-linejoin: miter; stroke-linecap: square"/>
   </g>
   <g id="patch_4">
    <path d="M 388.8 252 
L 388.8 34.56 
" style="fill: none; stroke: #000000; stroke-width: 0.8; stroke-linejoin: miter; stroke-linecap: square"/>
   </g>
   <g id="patch_5">
    <path d="M 54 252 
L 388.8 252 
" style="fill: none; stroke: #000000; stroke-width: 0.8; stroke-linejoin: miter; stroke-linecap: square"/>
   </g>
   <g id="patch_6">
    <path d="M 54 34.56 
L 388.8 34.56 
" style="fill: none; stroke: #000000; stroke-width: 0.8; stroke-linejoin: miter; stroke-linecap: square"/>
   </g>
   <g id="legend_1">
    <g id="patch_7">
     <path d="M 274.595312 130.62875 
L 381.8 130.62875 
Q 383.8 130.62875 383.8 128.62875 
L 383.8 41.56 
Q 383.8 39.56 381.8 39.56 
L 274.595312 39.56 
Q 272.595312 39.56 272.595312 41.56 
L 272.595312 128.62875 
Q 272.595312 130.62875 274.595312 130.62875 
z
" style="fill: #ffffff; opacity: 0.8; stroke: #cccccc; stroke-linejoin: miter"/>
    </g>
    <g id="line2d_21">
     <path d="M 276.595312 47.658437 
L 286.595312 47.658437 
L 296.595312 47.658437 
" style="fill: none; stroke: #1f77b4; stroke-width: 1.5; stroke-linecap: square"/>
    </g>
    <g id="text_17">
     <!-- c1 - #Cells = 2 -->
     <g transform="translate(304.595312 51.158437) scale(0.1 -0.1)">
      <defs>
       <path id="DejaVuSans-2d" d="M 313 2009 
L 1997 2009 
L 1997 1497 
L 313 1497 
L 313 2009 
z
" transform="scale(0.015625)"/>
       <path id="DejaVuSans-23" d="M 3272 2816 
L 2363 2816 
L 2100 1772 
L 3016 1772 
L 3272 2816 
z
M 2803 4594 
L 2478 3297 
L 3391 3297 
L 3719 4594 
L 4219 4594 
L 3897 3297 
L 4872 3297 
L 4872 2816 
L 3775 2816 
L 3519 1772 
L 4513 1772 
L 4513 1294 
L 3397 1294 
L 3072 0 
L 2572 0 
L 2894 1294 
L 1978 1294 
L 1656 0 
L 1153 0 
L 1478 1294 
L 494 1294 
L 494 1772 
L 1594 1772 
L 1856 2816 
L 850 2816 
L 850 3297 
L 1978 3297 
L 2297 4594 
L 2803 4594 
z
" transform="scale(0.015625)"/>
       <path id="DejaVuSans-3d" d="M 678 2906 
L 4684 2906 
L 4684 2381 
L 678 2381 
L 678 2906 
z
M 678 1631 
L 4684 1631 
L 4684 1100 
L 678 1100 
L 678 1631 
z
" transform="scale(0.015625)"/>
      </defs>
      <use xlink:href="#DejaVuSans-63"/>
      <use xlink:href="#DejaVuSans-31" x="54.980469"/>
      <use xlink:href="#DejaVuSans-20" x="118.603516"/>
      <use xlink:href="#DejaVuSans-2d" x="150.390625"/>
      <use xlink:href="#DejaVuSans-20" x="186.474609"/>
      <use xlink:href="#DejaVuSans-23" x="218.261719"/>
      <use xlink:href="#DejaVuSans-43" x="302.050781"/>
      <use xlink:href="#DejaVuSans-65" x="371.875"/>
      <use xlink:href="#DejaVuSans-6c" x="433.398438"/>
      <use xlink:href="#DejaVuSans-6c" x="461.181641"/>
      <use xlink:href="#DejaVuSans-73" x="488.964844"/>
      <use xlink:href="#DejaVuSans-20" x="541.064453"/>
      <use xlink:href="#DejaVuSans-3d" x="572.851562"/>
      <use xlink:href="#DejaVuSans-20" x="656.640625"/>
      <use xlink:href="#DejaVuSans-32" x="688.427734"/>
     </g>
    </g>
    <g id="line2d_22">
     <path d="M 276.595312 62.336562 
L 286.595312 62.336562 
L 296.595312 62.336562 
" style="fill: none; stroke: #ff7f0e; stroke-width: 1.5; stroke-linecap: square"/>
    </g>
    <g id="text_18">
     <!-- c1 - #Cells = 8 -->
     <g transform="translate(304.595312 65.836562) scale(0.1 -0.1)">
      <defs>
       <path id="DejaVuSans-38" d="M 2034 2216 
Q 1584 2216 1326 1975 
Q 1069 1734 1069 1313 
Q 1069 891 1326 650 
Q 1584 409 2034 409 
Q 2484 409 2743 651 
Q 3003 894 3003 1313 
Q 3003 1734 2745 1975 
Q 2488 2216 2034 2216 
z
M 1403 2484 
Q 997 2584 770 2862 
Q 544 3141 544 3541 
Q 544 4100 942 4425 
Q 1341 4750 2034 4750 
Q 2731 4750 3128 4425 
Q 3525 4100 3525 3541 
Q 3525 3141 3298 2862 
Q 3072 2584 2669 2484 
Q 3125 2378 3379 2068 
Q 3634 1759 3634 1313 
Q 3634 634 3220 271 
Q 2806 -91 2034 -91 
Q 1263 -91 848 271 
Q 434 634 434 1313 
Q 434 1759 690 2068 
Q 947 2378 1403 2484 
z
M 1172 3481 
Q 1172 3119 1398 2916 
Q 1625 2713 2034 2713 
Q 2441 2713 2670 2916 
Q 2900 3119 2900 3481 
Q 2900 3844 2670 4047 
Q 2441 4250 2034 4250 
Q 1625 4250 1398 4047 
Q 1172 3844 1172 3481 
z
" transform="scale(0.015625)"/>
      </defs>
      <use xlink:href="#DejaVuSans-63"/>
      <use xlink:href="#DejaVuSans-31" x="54.980469"/>
      <use xlink:href="#DejaVuSans-20" x="118.603516"/>
      <use xlink:href="#DejaVuSans-2d" x="150.390625"/>
      <use xlink:href="#DejaVuSans-20" x="186.474609"/>
      <use xlink:href="#DejaVuSans-23" x="218.261719"/>
      <use xlink:href="#DejaVuSans-43" x="302.050781"/>
      <use xlink:href="#DejaVuSans-65" x="371.875"/>
      <use xlink:href="#DejaVuSans-6c" x="433.398438"/>
      <use xlink:href="#DejaVuSans-6c" x="461.181641"/>
      <use xlink:href="#DejaVuSans-73" x="488.964844"/>
      <use xlink:href="#DejaVuSans-20" x="541.064453"/>
      <use xlink:href="#DejaVuSans-3d" x="572.851562"/>
      <use xlink:href="#DejaVuSans-20" x="656.640625"/>
      <use xlink:href="#DejaVuSans-38" x="688.427734"/>
     </g>
    </g>
    <g id="line2d_23">
     <path d="M 276.595312 77.014687 
L 286.595312 77.014687 
L 296.595312 77.014687 
" style="fill: none; stroke: #2ca02c; stroke-width: 1.5; stroke-linecap: square"/>
    </g>
    <g id="text_19">
     <!-- c2 - #Cells = 2 -->
     <g transform="translate(304.595312 80.514687) scale(0.1 -0.1)">
      <use xlink:href="#DejaVuSans-63"/>
      <use xlink:href="#DejaVuSans-32" x="54.980469"/>
      <use xlink:href="#DejaVuSans-20" x="118.603516"/>
      <use xlink:href="#DejaVuSans-2d" x="150.390625"/>
      <use xlink:href="#DejaVuSans-20" x="186.474609"/>
      <use xlink:href="#DejaVuSans-23" x="218.261719"/>
      <use xlink:href="#DejaVuSans-43" x="302.050781"/>
      <use xlink:href="#DejaVuSans-65" x="371.875"/>
      <use xlink:href="#DejaVuSans-6c" x="433.398438"/>
      <use xlink:href="#DejaVuSans-6c" x="461.181641"/>
      <use xlink:href="#DejaVuSans-73" x="488.964844"/>
      <use xlink:href="#DejaVuSans-20" x="541.064453"/>
      <use xlink:href="#DejaVuSans-3d" x="572.851562"/>
      <use xlink:href="#DejaVuSans-20" x="656.640625"/>
      <use xlink:href="#DejaVuSans-32" x="688.427734"/>
     </g>
    </g>
    <g id="line2d_24">
     <path d="M 276.595312 91.692813 
L 286.595312 91.692813 
L 296.595312 91.692813 
" style="fill: none; stroke: #d62728; stroke-width: 1.5; stroke-linecap: square"/>
    </g>
    <g id="text_20">
     <!-- c2 - #Cells = 8 -->
     <g transform="translate(304.595312 95.192813) scale(0.1 -0.1)">
      <use xlink:href="#DejaVuSans-63"/>
      <use xlink:href="#DejaVuSans-32" x="54.980469"/>
      <use xlink:href="#DejaVuSans-20" x="118.603516"/>
      <use xlink:href="#DejaVuSans-2d" x="150.390625"/>
      <use xlink:href="#DejaVuSans-20" x="186.474609"/>
      <use xlink:href="#DejaVuSans-23" x="218.261719"/>
      <use xlink:href="#DejaVuSans-43" x="302.050781"/>
      <use xlink:href="#DejaVuSans-65" x="371.875"/>
      <use xlink:href="#DejaVuSans-6c" x="433.398438"/>
      <use xlink:href="#DejaVuSans-6c" x="461.181641"/>
      <use xlink:href="#DejaVuSans-73" x="488.964844"/>
      <use xlink:href="#DejaVuSans-20" x="541.064453"/>
      <use xlink:href="#DejaVuSans-3d" x="572.851562"/>
      <use xlink:href="#DejaVuSans-20" x="656.640625"/>
      <use xlink:href="#DejaVuSans-38" x="688.427734"/>
     </g>
    </g>
    <g id="line2d_25">
     <path d="M 276.595312 106.370937 
L 286.595312 106.370937 
L 296.595312 106.370937 
" style="fill: none; stroke: #9467bd; stroke-width: 1.5; stroke-linecap: square"/>
    </g>
    <g id="text_21">
     <!-- c3 - #Cells = 2 -->
     <g transform="translate(304.595312 109.870937) scale(0.1 -0.1)">
      <defs>
       <path id="DejaVuSans-33" d="M 2597 2516 
Q 3050 2419 3304 2112 
Q 3559 1806 3559 1356 
Q 3559 666 3084 287 
Q 2609 -91 1734 -91 
Q 1441 -91 1130 -33 
Q 819 25 488 141 
L 488 750 
Q 750 597 1062 519 
Q 1375 441 1716 441 
Q 2309 441 2620 675 
Q 2931 909 2931 1356 
Q 2931 1769 2642 2001 
Q 2353 2234 1838 2234 
L 1294 2234 
L 1294 2753 
L 1863 2753 
Q 2328 2753 2575 2939 
Q 2822 3125 2822 3475 
Q 2822 3834 2567 4026 
Q 2313 4219 1838 4219 
Q 1578 4219 1281 4162 
Q 984 4106 628 3988 
L 628 4550 
Q 988 4650 1302 4700 
Q 1616 4750 1894 4750 
Q 2613 4750 3031 4423 
Q 3450 4097 3450 3541 
Q 3450 3153 3228 2886 
Q 3006 2619 2597 2516 
z
" transform="scale(0.015625)"/>
      </defs>
      <use xlink:href="#DejaVuSans-63"/>
      <use xlink:href="#DejaVuSans-33" x="54.980469"/>
      <use xlink:href="#DejaVuSans-20" x="118.603516"/>
      <use xlink:href="#DejaVuSans-2d" x="150.390625"/>
      <use xlink:href="#DejaVuSans-20" x="186.474609"/>
      <use xlink:href="#DejaVuSans-23" x="218.261719"/>
      <use xlink:href="#DejaVuSans-43" x="302.050781"/>
      <use xlink:href="#DejaVuSans-65" x="371.875"/>
      <use xlink:href="#DejaVuSans-6c" x="433.398438"/>
      <use xlink:href="#DejaVuSans-6c" x="461.181641"/>
      <use xlink:href="#DejaVuSans-73" x="488.964844"/>
      <use xlink:href="#DejaVuSans-20" x="541.064453"/>
      <use xlink:href="#DejaVuSans-3d" x="572.851562"/>
      <use xlink:href="#DejaVuSans-20" x="656.640625"/>
      <use xlink:href="#DejaVuSans-32" x="688.427734"/>
     </g>
    </g>
    <g id="line2d_26">
     <path d="M 276.595312 121.049062 
L 286.595312 121.049062 
L 296.595312 121.049062 
" style="fill: none; stroke: #8c564b; stroke-width: 1.5; stroke-linecap: square"/>
    </g>
    <g id="text_22">
     <!-- c3 - #Cells = 8 -->
     <g transform="translate(304.595312 124.549062) scale(0.1 -0.1)">
      <use xlink:href="#DejaVuSans-63"/>
      <use xlink:href="#DejaVuSans-33" x="54.980469"/>
      <use xlink:href="#DejaVuSans-20" x="118.603516"/>
      <use xlink:href="#DejaVuSans-2d" x="150.390625"/>
      <use xlink:href="#DejaVuSans-20" x="186.474609"/>
      <use xlink:href="#DejaVuSans-23" x="218.261719"/>
      <use xlink:href="#DejaVuSans-43" x="302.050781"/>
      <use xlink:href="#DejaVuSans-65" x="371.875"/>
      <use xlink:href="#DejaVuSans-6c" x="433.398438"/>
      <use xlink:href="#DejaVuSans-6c" x="461.181641"/>
      <use xlink:href="#DejaVuSans-73" x="488.964844"/>
      <use xlink:href="#DejaVuSans-20" x="541.064453"/>
      <use xlink:href="#DejaVuSans-3d" x="572.851562"/>
      <use xlink:href="#DejaVuSans-20" x="656.640625"/>
      <use xlink:href="#DejaVuSans-38" x="688.427734"/>
     </g>
    </g>
   </g>
  </g>
 </g>
 <defs>
  <clipPath id="p1c0cfc66dd">
   <rect x="54" y="34.56" width="334.8" height="217.44"/>
  </clipPath>
 </defs>
</svg>
