<?xml version="1.0" encoding="utf-8" standalone="no"?>
<!DOCTYPE svg PUBLIC "-//W3C//DTD SVG 1.1//EN"
  "http://www.w3.org/Graphics/SVG/1.1/DTD/svg11.dtd">
<svg xmlns:xlink="http://www.w3.org/1999/xlink" width="432pt" height="288pt" viewBox="0 0 432 288" xmlns="http://www.w3.org/2000/svg" version="1.1">
 <metadata>
  <rdf:RDF xmlns:dc="http://purl.org/dc/elements/1.1/" xmlns:cc="http://creativecommons.org/ns#" xmlns:rdf="http://www.w3.org/1999/02/22-rdf-syntax-ns#">
   <cc:Work>
    <dc:type rdf:resource="http://purl.org/dc/dcmitype/StillImage"/>
    <dc:date>2024-03-18T08:48:13.839061</dc:date>
    <dc:format>image/svg+xml</dc:format>
    <dc:creator>
     <cc:Agent>
      <dc:title>Matplotlib v3.7.1, https://matplotlib.org/</dc:title>
     </cc:Agent>
    </dc:creator>
   </cc:Work>
  </rdf:RDF>
 </metadata>
 <defs>
  <style type="text/css">*{stroke-linejoin: round; stroke-linecap: butt}</style>
 </defs>
 <g id="figure_1">
  <g id="patch_1">
   <path d="M 0 288 
L 432 288 
L 432 0 
L 0 0 
z
" style="fill: #ffffff"/>
  </g>
  <g id="axes_1">
   <g id="patch_2">
    <path d="M 54 252 
L 388.8 252 
L 388.8 34.56 
L 54 34.56 
z
" style="fill: #ffffff"/>
   </g>
   <g id="matplotlib.axis_1">
    <g id="xtick_1">
     <g id="line2d_1">
      <defs>
       <path id="me1611590bf" d="M 0 0 
L 0 3.5 
" style="stroke: #000000; stroke-width: 0.8"/>
      </defs>
      <g>
       <use xlink:href="#me1611590bf" x="69.218182" y="252" style="stroke: #000000; stroke-width: 0.8"/>
      </g>
     </g>
     <g id="text_1">
      <!-- 0 -->
      <g transform="translate(66.036932 266.598437) scale(0.1 -0.1)">
       <defs>
        <path id="DejaVuSans-30" d="M 2034 4250 
Q 1547 4250 1301 3770 
Q 1056 3291 1056 2328 
Q 1056 1369 1301 889 
Q 1547 409 2034 409 
Q 2525 409 2770 889 
Q 3016 1369 3016 2328 
Q 3016 3291 2770 3770 
Q 2525 4250 2034 4250 
z
M 2034 4750 
Q 2819 4750 3233 4129 
Q 3647 3509 3647 2328 
Q 3647 1150 3233 529 
Q 2819 -91 2034 -91 
Q 1250 -91 836 529 
Q 422 1150 422 2328 
Q 422 3509 836 4129 
Q 1250 4750 2034 4750 
z
" transform="scale(0.015625)"/>
       </defs>
       <use xlink:href="#DejaVuSans-30"/>
      </g>
     </g>
    </g>
    <g id="xtick_2">
     <g id="line2d_2">
      <g>
       <use xlink:href="#me1611590bf" x="107.263636" y="252" style="stroke: #000000; stroke-width: 0.8"/>
      </g>
     </g>
     <g id="text_2">
      <!-- 5 -->
      <g transform="translate(104.082386 266.598437) scale(0.1 -0.1)">
       <defs>
        <path id="DejaVuSans-35" d="M 691 4666 
L 3169 4666 
L 3169 4134 
L 1269 4134 
L 1269 2991 
Q 1406 3038 1543 3061 
Q 1681 3084 1819 3084 
Q 2600 3084 3056 2656 
Q 3513 2228 3513 1497 
Q 3513 744 3044 326 
Q 2575 -91 1722 -91 
Q 1428 -91 1123 -41 
Q 819 9 494 109 
L 494 744 
Q 775 591 1075 516 
Q 1375 441 1709 441 
Q 2250 441 2565 725 
Q 2881 1009 2881 1497 
Q 2881 1984 2565 2268 
Q 2250 2553 1709 2553 
Q 1456 2553 1204 2497 
Q 953 2441 691 2322 
L 691 4666 
z
" transform="scale(0.015625)"/>
       </defs>
       <use xlink:href="#DejaVuSans-35"/>
      </g>
     </g>
    </g>
    <g id="xtick_3">
     <g id="line2d_3">
      <g>
       <use xlink:href="#me1611590bf" x="145.309091" y="252" style="stroke: #000000; stroke-width: 0.8"/>
      </g>
     </g>
     <g id="text_3">
      <!-- 10 -->
      <g transform="translate(138.946591 266.598437) scale(0.1 -0.1)">
       <defs>
        <path id="DejaVuSans-31" d="M 794 531 
L 1825 531 
L 1825 4091 
L 703 3866 
L 703 4441 
L 1819 4666 
L 2450 4666 
L 2450 531 
L 3481 531 
L 3481 0 
L 794 0 
L 794 531 
z
" transform="scale(0.015625)"/>
       </defs>
       <use xlink:href="#DejaVuSans-31"/>
       <use xlink:href="#DejaVuSans-30" x="63.623047"/>
      </g>
     </g>
    </g>
    <g id="xtick_4">
     <g id="line2d_4">
      <g>
       <use xlink:href="#me1611590bf" x="183.354545" y="252" style="stroke: #000000; stroke-width: 0.8"/>
      </g>
     </g>
     <g id="text_4">
      <!-- 15 -->
      <g transform="translate(176.992045 266.598437) scale(0.1 -0.1)">
       <use xlink:href="#DejaVuSans-31"/>
       <use xlink:href="#DejaVuSans-35" x="63.623047"/>
      </g>
     </g>
    </g>
    <g id="xtick_5">
     <g id="line2d_5">
      <g>
       <use xlink:href="#me1611590bf" x="221.4" y="252" style="stroke: #000000; stroke-width: 0.8"/>
      </g>
     </g>
     <g id="text_5">
      <!-- 20 -->
      <g transform="translate(215.0375 266.598437) scale(0.1 -0.1)">
       <defs>
        <path id="DejaVuSans-32" d="M 1228 531 
L 3431 531 
L 3431 0 
L 469 0 
L 469 531 
Q 828 903 1448 1529 
Q 2069 2156 2228 2338 
Q 2531 2678 2651 2914 
Q 2772 3150 2772 3378 
Q 2772 3750 2511 3984 
Q 2250 4219 1831 4219 
Q 1534 4219 1204 4116 
Q 875 4013 500 3803 
L 500 4441 
Q 881 4594 1212 4672 
Q 1544 4750 1819 4750 
Q 2544 4750 2975 4387 
Q 3406 4025 3406 3419 
Q 3406 3131 3298 2873 
Q 3191 2616 2906 2266 
Q 2828 2175 2409 1742 
Q 1991 1309 1228 531 
z
" transform="scale(0.015625)"/>
       </defs>
       <use xlink:href="#DejaVuSans-32"/>
       <use xlink:href="#DejaVuSans-30" x="63.623047"/>
      </g>
     </g>
    </g>
    <g id="xtick_6">
     <g id="line2d_6">
      <g>
       <use xlink:href="#me1611590bf" x="259.445455" y="252" style="stroke: #000000; stroke-width: 0.8"/>
      </g>
     </g>
     <g id="text_6">
      <!-- 25 -->
      <g transform="translate(253.082955 266.598437) scale(0.1 -0.1)">
       <use xlink:href="#DejaVuSans-32"/>
       <use xlink:href="#DejaVuSans-35" x="63.623047"/>
      </g>
     </g>
    </g>
    <g id="xtick_7">
     <g id="line2d_7">
      <g>
       <use xlink:href="#me1611590bf" x="297.490909" y="252" style="stroke: #000000; stroke-width: 0.8"/>
      </g>
     </g>
     <g id="text_7">
      <!-- 30 -->
      <g transform="translate(291.128409 266.598437) scale(0.1 -0.1)">
       <defs>
        <path id="DejaVuSans-33" d="M 2597 2516 
Q 3050 2419 3304 2112 
Q 3559 1806 3559 1356 
Q 3559 666 3084 287 
Q 2609 -91 1734 -91 
Q 1441 -91 1130 -33 
Q 819 25 488 141 
L 488 750 
Q 750 597 1062 519 
Q 1375 441 1716 441 
Q 2309 441 2620 675 
Q 2931 909 2931 1356 
Q 2931 1769 2642 2001 
Q 2353 2234 1838 2234 
L 1294 2234 
L 1294 2753 
L 1863 2753 
Q 2328 2753 2575 2939 
Q 2822 3125 2822 3475 
Q 2822 3834 2567 4026 
Q 2313 4219 1838 4219 
Q 1578 4219 1281 4162 
Q 984 4106 628 3988 
L 628 4550 
Q 988 4650 1302 4700 
Q 1616 4750 1894 4750 
Q 2613 4750 3031 4423 
Q 3450 4097 3450 3541 
Q 3450 3153 3228 2886 
Q 3006 2619 2597 2516 
z
" transform="scale(0.015625)"/>
       </defs>
       <use xlink:href="#DejaVuSans-33"/>
       <use xlink:href="#DejaVuSans-30" x="63.623047"/>
      </g>
     </g>
    </g>
    <g id="xtick_8">
     <g id="line2d_8">
      <g>
       <use xlink:href="#me1611590bf" x="335.536364" y="252" style="stroke: #000000; stroke-width: 0.8"/>
      </g>
     </g>
     <g id="text_8">
      <!-- 35 -->
      <g transform="translate(329.173864 266.598437) scale(0.1 -0.1)">
       <use xlink:href="#DejaVuSans-33"/>
       <use xlink:href="#DejaVuSans-35" x="63.623047"/>
      </g>
     </g>
    </g>
    <g id="xtick_9">
     <g id="line2d_9">
      <g>
       <use xlink:href="#me1611590bf" x="373.581818" y="252" style="stroke: #000000; stroke-width: 0.8"/>
      </g>
     </g>
     <g id="text_9">
      <!-- 40 -->
      <g transform="translate(367.219318 266.598437) scale(0.1 -0.1)">
       <defs>
        <path id="DejaVuSans-34" d="M 2419 4116 
L 825 1625 
L 2419 1625 
L 2419 4116 
z
M 2253 4666 
L 3047 4666 
L 3047 1625 
L 3713 1625 
L 3713 1100 
L 3047 1100 
L 3047 0 
L 2419 0 
L 2419 1100 
L 313 1100 
L 313 1709 
L 2253 4666 
z
" transform="scale(0.015625)"/>
       </defs>
       <use xlink:href="#DejaVuSans-34"/>
       <use xlink:href="#DejaVuSans-30" x="63.623047"/>
      </g>
     </g>
    </g>
    <g id="text_10">
     <!-- Time (s) -->
     <g transform="translate(190.906641 284.075781) scale(0.15 -0.15)">
      <defs>
       <path id="DejaVuSans-54" d="M -19 4666 
L 3928 4666 
L 3928 4134 
L 2272 4134 
L 2272 0 
L 1638 0 
L 1638 4134 
L -19 4134 
L -19 4666 
z
" transform="scale(0.015625)"/>
       <path id="DejaVuSans-69" d="M 603 3500 
L 1178 3500 
L 1178 0 
L 603 0 
L 603 3500 
z
M 603 4863 
L 1178 4863 
L 1178 4134 
L 603 4134 
L 603 4863 
z
" transform="scale(0.015625)"/>
       <path id="DejaVuSans-6d" d="M 3328 2828 
Q 3544 3216 3844 3400 
Q 4144 3584 4550 3584 
Q 5097 3584 5394 3201 
Q 5691 2819 5691 2113 
L 5691 0 
L 5113 0 
L 5113 2094 
Q 5113 2597 4934 2840 
Q 4756 3084 4391 3084 
Q 3944 3084 3684 2787 
Q 3425 2491 3425 1978 
L 3425 0 
L 2847 0 
L 2847 2094 
Q 2847 2600 2669 2842 
Q 2491 3084 2119 3084 
Q 1678 3084 1418 2786 
Q 1159 2488 1159 1978 
L 1159 0 
L 581 0 
L 581 3500 
L 1159 3500 
L 1159 2956 
Q 1356 3278 1631 3431 
Q 1906 3584 2284 3584 
Q 2666 3584 2933 3390 
Q 3200 3197 3328 2828 
z
" transform="scale(0.015625)"/>
       <path id="DejaVuSans-65" d="M 3597 1894 
L 3597 1613 
L 953 1613 
Q 991 1019 1311 708 
Q 1631 397 2203 397 
Q 2534 397 2845 478 
Q 3156 559 3463 722 
L 3463 178 
Q 3153 47 2828 -22 
Q 2503 -91 2169 -91 
Q 1331 -91 842 396 
Q 353 884 353 1716 
Q 353 2575 817 3079 
Q 1281 3584 2069 3584 
Q 2775 3584 3186 3129 
Q 3597 2675 3597 1894 
z
M 3022 2063 
Q 3016 2534 2758 2815 
Q 2500 3097 2075 3097 
Q 1594 3097 1305 2825 
Q 1016 2553 972 2059 
L 3022 2063 
z
" transform="scale(0.015625)"/>
       <path id="DejaVuSans-20" transform="scale(0.015625)"/>
       <path id="DejaVuSans-28" d="M 1984 4856 
Q 1566 4138 1362 3434 
Q 1159 2731 1159 2009 
Q 1159 1288 1364 580 
Q 1569 -128 1984 -844 
L 1484 -844 
Q 1016 -109 783 600 
Q 550 1309 550 2009 
Q 550 2706 781 3412 
Q 1013 4119 1484 4856 
L 1984 4856 
z
" transform="scale(0.015625)"/>
       <path id="DejaVuSans-73" d="M 2834 3397 
L 2834 2853 
Q 2591 2978 2328 3040 
Q 2066 3103 1784 3103 
Q 1356 3103 1142 2972 
Q 928 2841 928 2578 
Q 928 2378 1081 2264 
Q 1234 2150 1697 2047 
L 1894 2003 
Q 2506 1872 2764 1633 
Q 3022 1394 3022 966 
Q 3022 478 2636 193 
Q 2250 -91 1575 -91 
Q 1294 -91 989 -36 
Q 684 19 347 128 
L 347 722 
Q 666 556 975 473 
Q 1284 391 1588 391 
Q 1994 391 2212 530 
Q 2431 669 2431 922 
Q 2431 1156 2273 1281 
Q 2116 1406 1581 1522 
L 1381 1569 
Q 847 1681 609 1914 
Q 372 2147 372 2553 
Q 372 3047 722 3315 
Q 1072 3584 1716 3584 
Q 2034 3584 2315 3537 
Q 2597 3491 2834 3397 
z
" transform="scale(0.015625)"/>
       <path id="DejaVuSans-29" d="M 513 4856 
L 1013 4856 
Q 1481 4119 1714 3412 
Q 1947 2706 1947 2009 
Q 1947 1309 1714 600 
Q 1481 -109 1013 -844 
L 513 -844 
Q 928 -128 1133 580 
Q 1338 1288 1338 2009 
Q 1338 2731 1133 3434 
Q 928 4138 513 4856 
z
" transform="scale(0.015625)"/>
      </defs>
      <use xlink:href="#DejaVuSans-54"/>
      <use xlink:href="#DejaVuSans-69" x="57.958984"/>
      <use xlink:href="#DejaVuSans-6d" x="85.742188"/>
      <use xlink:href="#DejaVuSans-65" x="183.154297"/>
      <use xlink:href="#DejaVuSans-20" x="244.677734"/>
      <use xlink:href="#DejaVuSans-28" x="276.464844"/>
      <use xlink:href="#DejaVuSans-73" x="315.478516"/>
      <use xlink:href="#DejaVuSans-29" x="367.578125"/>
     </g>
    </g>
   </g>
   <g id="matplotlib.axis_2">
    <g id="ytick_1">
     <g id="line2d_10">
      <defs>
       <path id="m307a32c0a6" d="M 0 0 
L -3.5 0 
" style="stroke: #000000; stroke-width: 0.8"/>
      </defs>
      <g>
       <use xlink:href="#m307a32c0a6" x="54" y="236.869297" style="stroke: #000000; stroke-width: 0.8"/>
      </g>
     </g>
     <g id="text_11">
      <!-- −2.5 -->
      <g transform="translate(22.717187 240.668516) scale(0.1 -0.1)">
       <defs>
        <path id="DejaVuSans-2212" d="M 678 2272 
L 4684 2272 
L 4684 1741 
L 678 1741 
L 678 2272 
z
" transform="scale(0.015625)"/>
        <path id="DejaVuSans-2e" d="M 684 794 
L 1344 794 
L 1344 0 
L 684 0 
L 684 794 
z
" transform="scale(0.015625)"/>
       </defs>
       <use xlink:href="#DejaVuSans-2212"/>
       <use xlink:href="#DejaVuSans-32" x="83.789062"/>
       <use xlink:href="#DejaVuSans-2e" x="147.412109"/>
       <use xlink:href="#DejaVuSans-35" x="179.199219"/>
      </g>
     </g>
    </g>
    <g id="ytick_2">
     <g id="line2d_11">
      <g>
       <use xlink:href="#m307a32c0a6" x="54" y="212.269376" style="stroke: #000000; stroke-width: 0.8"/>
      </g>
     </g>
     <g id="text_12">
      <!-- 0.0 -->
      <g transform="translate(31.096875 216.068595) scale(0.1 -0.1)">
       <use xlink:href="#DejaVuSans-30"/>
       <use xlink:href="#DejaVuSans-2e" x="63.623047"/>
       <use xlink:href="#DejaVuSans-30" x="95.410156"/>
      </g>
     </g>
    </g>
    <g id="ytick_3">
     <g id="line2d_12">
      <g>
       <use xlink:href="#m307a32c0a6" x="54" y="187.669454" style="stroke: #000000; stroke-width: 0.8"/>
      </g>
     </g>
     <g id="text_13">
      <!-- 2.5 -->
      <g transform="translate(31.096875 191.468673) scale(0.1 -0.1)">
       <use xlink:href="#DejaVuSans-32"/>
       <use xlink:href="#DejaVuSans-2e" x="63.623047"/>
       <use xlink:href="#DejaVuSans-35" x="95.410156"/>
      </g>
     </g>
    </g>
    <g id="ytick_4">
     <g id="line2d_13">
      <g>
       <use xlink:href="#m307a32c0a6" x="54" y="163.069533" style="stroke: #000000; stroke-width: 0.8"/>
      </g>
     </g>
     <g id="text_14">
      <!-- 5.0 -->
      <g transform="translate(31.096875 166.868751) scale(0.1 -0.1)">
       <use xlink:href="#DejaVuSans-35"/>
       <use xlink:href="#DejaVuSans-2e" x="63.623047"/>
       <use xlink:href="#DejaVuSans-30" x="95.410156"/>
      </g>
     </g>
    </g>
    <g id="ytick_5">
     <g id="line2d_14">
      <g>
       <use xlink:href="#m307a32c0a6" x="54" y="138.469611" style="stroke: #000000; stroke-width: 0.8"/>
      </g>
     </g>
     <g id="text_15">
      <!-- 7.5 -->
      <g transform="translate(31.096875 142.26883) scale(0.1 -0.1)">
       <defs>
        <path id="DejaVuSans-37" d="M 525 4666 
L 3525 4666 
L 3525 4397 
L 1831 0 
L 1172 0 
L 2766 4134 
L 525 4134 
L 525 4666 
z
" transform="scale(0.015625)"/>
       </defs>
       <use xlink:href="#DejaVuSans-37"/>
       <use xlink:href="#DejaVuSans-2e" x="63.623047"/>
       <use xlink:href="#DejaVuSans-35" x="95.410156"/>
      </g>
     </g>
    </g>
    <g id="ytick_6">
     <g id="line2d_15">
      <g>
       <use xlink:href="#m307a32c0a6" x="54" y="113.869689" style="stroke: #000000; stroke-width: 0.8"/>
      </g>
     </g>
     <g id="text_16">
      <!-- 10.0 -->
      <g transform="translate(24.734375 117.668908) scale(0.1 -0.1)">
       <use xlink:href="#DejaVuSans-31"/>
       <use xlink:href="#DejaVuSans-30" x="63.623047"/>
       <use xlink:href="#DejaVuSans-2e" x="127.246094"/>
       <use xlink:href="#DejaVuSans-30" x="159.033203"/>
      </g>
     </g>
    </g>
    <g id="ytick_7">
     <g id="line2d_16">
      <g>
       <use xlink:href="#m307a32c0a6" x="54" y="89.269768" style="stroke: #000000; stroke-width: 0.8"/>
      </g>
     </g>
     <g id="text_17">
      <!-- 12.5 -->
      <g transform="translate(24.734375 93.068986) scale(0.1 -0.1)">
       <use xlink:href="#DejaVuSans-31"/>
       <use xlink:href="#DejaVuSans-32" x="63.623047"/>
       <use xlink:href="#DejaVuSans-2e" x="127.246094"/>
       <use xlink:href="#DejaVuSans-35" x="159.033203"/>
      </g>
     </g>
    </g>
    <g id="ytick_8">
     <g id="line2d_17">
      <g>
       <use xlink:href="#m307a32c0a6" x="54" y="64.669846" style="stroke: #000000; stroke-width: 0.8"/>
      </g>
     </g>
     <g id="text_18">
      <!-- 15.0 -->
      <g transform="translate(24.734375 68.469065) scale(0.1 -0.1)">
       <use xlink:href="#DejaVuSans-31"/>
       <use xlink:href="#DejaVuSans-35" x="63.623047"/>
       <use xlink:href="#DejaVuSans-2e" x="127.246094"/>
       <use xlink:href="#DejaVuSans-30" x="159.033203"/>
      </g>
     </g>
    </g>
    <g id="ytick_9">
     <g id="line2d_18">
      <g>
       <use xlink:href="#m307a32c0a6" x="54" y="40.069924" style="stroke: #000000; stroke-width: 0.8"/>
      </g>
     </g>
     <g id="text_19">
      <!-- 17.5 -->
      <g transform="translate(24.734375 43.869143) scale(0.1 -0.1)">
       <use xlink:href="#DejaVuSans-31"/>
       <use xlink:href="#DejaVuSans-37" x="63.623047"/>
       <use xlink:href="#DejaVuSans-2e" x="127.246094"/>
       <use xlink:href="#DejaVuSans-35" x="159.033203"/>
      </g>
     </g>
    </g>
    <g id="text_20">
     <!-- Concentration (mol/L) -->
     <g transform="translate(15.597656 225.256172) rotate(-90) scale(0.15 -0.15)">
      <defs>
       <path id="DejaVuSans-43" d="M 4122 4306 
L 4122 3641 
Q 3803 3938 3442 4084 
Q 3081 4231 2675 4231 
Q 1875 4231 1450 3742 
Q 1025 3253 1025 2328 
Q 1025 1406 1450 917 
Q 1875 428 2675 428 
Q 3081 428 3442 575 
Q 3803 722 4122 1019 
L 4122 359 
Q 3791 134 3420 21 
Q 3050 -91 2638 -91 
Q 1578 -91 968 557 
Q 359 1206 359 2328 
Q 359 3453 968 4101 
Q 1578 4750 2638 4750 
Q 3056 4750 3426 4639 
Q 3797 4528 4122 4306 
z
" transform="scale(0.015625)"/>
       <path id="DejaVuSans-6f" d="M 1959 3097 
Q 1497 3097 1228 2736 
Q 959 2375 959 1747 
Q 959 1119 1226 758 
Q 1494 397 1959 397 
Q 2419 397 2687 759 
Q 2956 1122 2956 1747 
Q 2956 2369 2687 2733 
Q 2419 3097 1959 3097 
z
M 1959 3584 
Q 2709 3584 3137 3096 
Q 3566 2609 3566 1747 
Q 3566 888 3137 398 
Q 2709 -91 1959 -91 
Q 1206 -91 779 398 
Q 353 888 353 1747 
Q 353 2609 779 3096 
Q 1206 3584 1959 3584 
z
" transform="scale(0.015625)"/>
       <path id="DejaVuSans-6e" d="M 3513 2113 
L 3513 0 
L 2938 0 
L 2938 2094 
Q 2938 2591 2744 2837 
Q 2550 3084 2163 3084 
Q 1697 3084 1428 2787 
Q 1159 2491 1159 1978 
L 1159 0 
L 581 0 
L 581 3500 
L 1159 3500 
L 1159 2956 
Q 1366 3272 1645 3428 
Q 1925 3584 2291 3584 
Q 2894 3584 3203 3211 
Q 3513 2838 3513 2113 
z
" transform="scale(0.015625)"/>
       <path id="DejaVuSans-63" d="M 3122 3366 
L 3122 2828 
Q 2878 2963 2633 3030 
Q 2388 3097 2138 3097 
Q 1578 3097 1268 2742 
Q 959 2388 959 1747 
Q 959 1106 1268 751 
Q 1578 397 2138 397 
Q 2388 397 2633 464 
Q 2878 531 3122 666 
L 3122 134 
Q 2881 22 2623 -34 
Q 2366 -91 2075 -91 
Q 1284 -91 818 406 
Q 353 903 353 1747 
Q 353 2603 823 3093 
Q 1294 3584 2113 3584 
Q 2378 3584 2631 3529 
Q 2884 3475 3122 3366 
z
" transform="scale(0.015625)"/>
       <path id="DejaVuSans-74" d="M 1172 4494 
L 1172 3500 
L 2356 3500 
L 2356 3053 
L 1172 3053 
L 1172 1153 
Q 1172 725 1289 603 
Q 1406 481 1766 481 
L 2356 481 
L 2356 0 
L 1766 0 
Q 1100 0 847 248 
Q 594 497 594 1153 
L 594 3053 
L 172 3053 
L 172 3500 
L 594 3500 
L 594 4494 
L 1172 4494 
z
" transform="scale(0.015625)"/>
       <path id="DejaVuSans-72" d="M 2631 2963 
Q 2534 3019 2420 3045 
Q 2306 3072 2169 3072 
Q 1681 3072 1420 2755 
Q 1159 2438 1159 1844 
L 1159 0 
L 581 0 
L 581 3500 
L 1159 3500 
L 1159 2956 
Q 1341 3275 1631 3429 
Q 1922 3584 2338 3584 
Q 2397 3584 2469 3576 
Q 2541 3569 2628 3553 
L 2631 2963 
z
" transform="scale(0.015625)"/>
       <path id="DejaVuSans-61" d="M 2194 1759 
Q 1497 1759 1228 1600 
Q 959 1441 959 1056 
Q 959 750 1161 570 
Q 1363 391 1709 391 
Q 2188 391 2477 730 
Q 2766 1069 2766 1631 
L 2766 1759 
L 2194 1759 
z
M 3341 1997 
L 3341 0 
L 2766 0 
L 2766 531 
Q 2569 213 2275 61 
Q 1981 -91 1556 -91 
Q 1019 -91 701 211 
Q 384 513 384 1019 
Q 384 1609 779 1909 
Q 1175 2209 1959 2209 
L 2766 2209 
L 2766 2266 
Q 2766 2663 2505 2880 
Q 2244 3097 1772 3097 
Q 1472 3097 1187 3025 
Q 903 2953 641 2809 
L 641 3341 
Q 956 3463 1253 3523 
Q 1550 3584 1831 3584 
Q 2591 3584 2966 3190 
Q 3341 2797 3341 1997 
z
" transform="scale(0.015625)"/>
       <path id="DejaVuSans-6c" d="M 603 4863 
L 1178 4863 
L 1178 0 
L 603 0 
L 603 4863 
z
" transform="scale(0.015625)"/>
       <path id="DejaVuSans-2f" d="M 1625 4666 
L 2156 4666 
L 531 -594 
L 0 -594 
L 1625 4666 
z
" transform="scale(0.015625)"/>
       <path id="DejaVuSans-4c" d="M 628 4666 
L 1259 4666 
L 1259 531 
L 3531 531 
L 3531 0 
L 628 0 
L 628 4666 
z
" transform="scale(0.015625)"/>
      </defs>
      <use xlink:href="#DejaVuSans-43"/>
      <use xlink:href="#DejaVuSans-6f" x="69.824219"/>
      <use xlink:href="#DejaVuSans-6e" x="131.005859"/>
      <use xlink:href="#DejaVuSans-63" x="194.384766"/>
      <use xlink:href="#DejaVuSans-65" x="249.365234"/>
      <use xlink:href="#DejaVuSans-6e" x="310.888672"/>
      <use xlink:href="#DejaVuSans-74" x="374.267578"/>
      <use xlink:href="#DejaVuSans-72" x="413.476562"/>
      <use xlink:href="#DejaVuSans-61" x="454.589844"/>
      <use xlink:href="#DejaVuSans-74" x="515.869141"/>
      <use xlink:href="#DejaVuSans-69" x="555.078125"/>
      <use xlink:href="#DejaVuSans-6f" x="582.861328"/>
      <use xlink:href="#DejaVuSans-6e" x="644.042969"/>
      <use xlink:href="#DejaVuSans-20" x="707.421875"/>
      <use xlink:href="#DejaVuSans-28" x="739.208984"/>
      <use xlink:href="#DejaVuSans-6d" x="778.222656"/>
      <use xlink:href="#DejaVuSans-6f" x="875.634766"/>
      <use xlink:href="#DejaVuSans-6c" x="936.816406"/>
      <use xlink:href="#DejaVuSans-2f" x="964.599609"/>
      <use xlink:href="#DejaVuSans-4c" x="998.291016"/>
      <use xlink:href="#DejaVuSans-29" x="1054.003906"/>
     </g>
    </g>
   </g>
   <g id="line2d_19">
    <path d="M 69.218182 212.269376 
L 73.022727 212.032682 
L 75.305455 212.487021 
L 77.588182 212.919723 
L 79.11 213.000069 
L 80.631818 212.878713 
L 82.914545 212.375293 
L 88.240909 210.900428 
L 89.762727 210.784747 
L 91.284545 210.912648 
L 92.806364 211.27673 
L 95.089091 212.143507 
L 98.893636 213.725985 
L 100.415455 214.173685 
L 101.937273 214.439121 
L 103.459091 214.505181 
L 104.980909 214.376787 
L 106.502727 214.07561 
L 108.785455 213.370931 
L 111.829091 212.140931 
L 121.720909 207.886636 
L 123.242727 207.621157 
L 124.003636 207.630111 
L 124.764545 207.75884 
L 125.525455 208.02239 
L 126.286364 208.43026 
L 127.047273 208.98504 
L 128.569091 210.508357 
L 130.090909 212.470842 
L 134.656364 218.802109 
L 136.178182 220.272814 
L 136.939091 220.774618 
L 137.7 221.097005 
L 138.460909 221.227634 
L 139.221818 221.158581 
L 139.982727 220.887033 
L 140.743636 220.415267 
L 141.504545 219.750807 
L 143.026364 217.90022 
L 144.548182 215.491027 
L 147.591818 209.875805 
L 149.874545 205.913398 
L 151.396364 203.791219 
L 152.918182 202.263219 
L 153.679091 201.752427 
L 154.44 201.419584 
L 155.200909 201.267041 
L 155.961818 201.294634 
L 156.722727 201.498268 
L 157.483636 201.87305 
L 158.244545 202.410504 
L 159.766364 203.934111 
L 160.527273 204.897176 
L 162.049091 207.3604 
L 166.614545 215.228384 
L 170.419091 222.565147 
L 171.940909 224.875398 
L 172.701818 225.713292 
L 173.462727 226.279835 
L 174.223636 226.533634 
L 174.984545 226.438583 
L 175.745455 225.966185 
L 176.506364 225.095476 
L 177.267273 223.816315 
L 178.028182 222.129568 
L 178.789091 220.046649 
L 180.310909 214.78643 
L 181.832727 208.295657 
L 184.115455 196.968866 
L 193.246364 148.711773 
L 195.529091 138.283362 
L 197.811818 129.139309 
L 199.333636 123.907872 
L 200.855455 119.455642 
L 202.377273 115.827325 
L 203.899091 113.031783 
L 205.420909 111.03738 
L 206.181818 110.320216 
L 206.942727 109.77484 
L 207.703636 109.387428 
L 208.464545 109.143008 
L 209.986364 109.019135 
L 211.508182 109.269184 
L 213.03 109.760711 
L 218.356364 111.801039 
L 220.639091 112.308272 
L 222.921818 112.493711 
L 225.965455 112.392362 
L 229.009091 112.249017 
L 231.291818 112.381275 
L 232.813636 112.677124 
L 234.335455 113.183353 
L 235.857273 113.925053 
L 237.379091 114.915995 
L 238.900909 116.157518 
L 240.422727 117.641227 
L 242.705455 120.280916 
L 244.988182 123.339682 
L 248.031818 127.887489 
L 253.358182 136.434731 
L 257.923636 143.641735 
L 261.728182 149.223257 
L 264.771818 153.324808 
L 267.815455 157.087272 
L 270.859091 160.523774 
L 273.902727 163.663293 
L 277.707273 167.227132 
L 281.511818 170.46329 
L 286.077273 174.018174 
L 291.403636 177.848005 
L 298.251818 182.456319 
L 306.621818 187.78823 
L 314.230909 192.385655 
L 321.079091 196.269744 
L 327.166364 199.462744 
L 332.492727 202.016858 
L 337.819091 204.318965 
L 343.145455 206.348933 
L 347.710909 207.862385 
L 352.276364 209.1628 
L 356.841818 210.250994 
L 361.407273 211.132353 
L 366.733636 211.912892 
L 372.06 212.449739 
L 373.581818 212.562626 
L 373.581818 212.562626 
" clip-path="url(#p070697b85a)" style="fill: none; stroke: #1f77b4; stroke-width: 1.5; stroke-linecap: square"/>
   </g>
   <g id="line2d_20">
    <path d="M 69.218182 212.269376 
L 166.614545 212.207197 
L 168.897273 212.058898 
L 170.419091 212.211525 
L 173.462727 212.839223 
L 174.223636 212.860875 
L 174.984545 212.730615 
L 175.745455 212.403065 
L 177.267273 211.213443 
L 178.028182 210.565812 
L 178.789091 210.122155 
L 179.55 210.070629 
L 180.310909 210.547759 
L 181.071818 211.598721 
L 181.832727 213.1529 
L 183.354545 216.881836 
L 184.115455 218.347783 
L 184.876364 218.953148 
L 185.637273 218.218746 
L 186.398182 215.700863 
L 187.159091 211.059112 
L 187.92 204.132845 
L 188.680909 195.014716 
L 190.202727 172.015877 
L 191.724545 147.73381 
L 192.485455 137.089909 
L 193.246364 128.174924 
L 194.007273 121.221472 
L 194.768182 116.226682 
L 195.529091 113.010693 
L 196.29 111.282771 
L 197.050909 110.703056 
L 197.811818 110.928738 
L 198.572727 111.647527 
L 200.855455 114.428152 
L 201.616364 115.076852 
L 202.377273 115.478299 
L 203.138182 115.632678 
L 203.899091 115.569803 
L 205.420909 114.997914 
L 207.703636 113.874496 
L 209.225455 113.424778 
L 210.747273 113.328677 
L 212.269091 113.493304 
L 216.073636 114.035873 
L 218.356364 114.044127 
L 224.443636 113.791417 
L 231.291818 113.918068 
L 235.096364 113.954364 
L 239.661818 113.831629 
L 241.183636 114.172385 
L 241.944545 114.516405 
L 242.705455 115.002746 
L 243.466364 115.645083 
L 244.227273 116.450848 
L 245.749091 118.549794 
L 247.270909 121.235696 
L 248.792727 124.375193 
L 251.836364 131.368107 
L 255.640909 140.095193 
L 257.923636 144.882121 
L 260.206364 149.232796 
L 262.489091 153.146932 
L 264.771818 156.650386 
L 267.054545 159.776862 
L 269.337273 162.560009 
L 271.62 165.030184 
L 273.902727 167.213208 
L 276.185455 169.130599 
L 278.468182 170.801706 
L 280.750909 172.2481 
L 283.794545 173.880493 
L 287.599091 175.606148 
L 293.686364 178.335312 
L 296.73 179.945132 
L 300.534545 182.24624 
L 305.860909 185.815692 
L 314.991818 191.992151 
L 320.318182 195.341081 
L 325.644545 198.445261 
L 330.970909 201.295365 
L 336.297273 203.884454 
L 341.623636 206.200332 
L 346.189091 207.948234 
L 350.754545 209.445206 
L 354.559091 210.469848 
L 358.363636 211.264915 
L 362.168182 211.817679 
L 365.972727 212.141146 
L 370.538182 212.291119 
L 373.581818 212.300972 
L 373.581818 212.300972 
" clip-path="url(#p070697b85a)" style="fill: none; stroke: #ff7f0e; stroke-width: 1.5; stroke-linecap: square"/>
   </g>
   <g id="line2d_21">
    <path d="M 69.218182 212.269376 
L 71.500909 211.952994 
L 72.261818 212.03841 
L 76.066364 213.057014 
L 77.588182 212.960318 
L 79.11 212.508289 
L 82.914545 211.023117 
L 84.436364 210.770973 
L 85.958182 210.888102 
L 87.48 211.38245 
L 89.001818 212.171534 
L 92.045455 213.961007 
L 93.567273 214.578426 
L 95.089091 214.818307 
L 96.610909 214.628998 
L 98.132727 214.039274 
L 99.654545 213.142812 
L 104.980909 209.591464 
L 106.502727 208.979642 
L 108.024545 208.684719 
L 109.546364 208.717647 
L 111.068182 209.056979 
L 112.59 209.660707 
L 114.111818 210.480051 
L 116.394545 212.027043 
L 118.677273 213.912319 
L 120.96 216.159299 
L 124.764545 220.172479 
L 125.525455 220.776246 
L 126.286364 221.21557 
L 127.047273 221.446812 
L 127.808182 221.431977 
L 128.569091 221.141626 
L 129.33 220.556846 
L 130.090909 219.670248 
L 130.851818 218.48613 
L 131.612727 217.019994 
L 133.134545 213.354476 
L 135.417273 206.662242 
L 137.7 199.863427 
L 139.221818 196.087413 
L 139.982727 194.601219 
L 140.743636 193.449361 
L 141.504545 192.672408 
L 142.265455 192.301404 
L 143.026364 192.357781 
L 143.787273 192.851895 
L 144.548182 193.783259 
L 145.309091 195.140614 
L 146.07 196.902583 
L 146.830909 199.0385 
L 148.352727 204.269693 
L 149.874545 210.44767 
L 154.44 230.002992 
L 155.961818 235.297501 
L 156.722727 237.477676 
L 157.483636 239.286495 
L 158.244545 240.685471 
L 159.005455 241.639101 
L 159.766364 242.116364 
L 160.527273 242.089836 
L 161.288182 241.641901 
L 162.049091 240.63613 
L 162.81 238.926157 
L 163.570909 236.515346 
L 164.331818 233.462621 
L 165.853636 225.68855 
L 167.375455 215.952028 
L 168.897273 204.316425 
L 170.419091 190.716612 
L 171.940909 175.187151 
L 174.223636 149.072684 
L 177.267273 113.436728 
L 178.789091 97.788568 
L 180.310909 84.918743 
L 181.071818 79.72211 
L 181.832727 75.402761 
L 182.593636 71.966557 
L 183.354545 69.395937 
L 184.115455 67.65268 
L 184.876364 66.682079 
L 185.637273 66.415853 
L 186.398182 66.776764 
L 187.159091 67.681937 
L 187.92 69.045661 
L 188.680909 70.782924 
L 190.202727 75.055518 
L 196.29 94.101893 
L 197.811818 98.070595 
L 200.094545 103.247263 
L 202.377273 107.713575 
L 204.66 111.715827 
L 206.942727 115.35925 
L 209.225455 118.561664 
L 210.747273 120.343292 
L 212.269091 121.746888 
L 213.790909 122.694348 
L 214.551818 122.977248 
L 215.312727 123.125571 
L 216.073636 123.136299 
L 216.834545 123.008618 
L 217.595455 122.743873 
L 218.356364 122.345794 
L 219.878182 121.176947 
L 221.4 119.578592 
L 222.921818 117.659121 
L 228.248182 110.445206 
L 229.77 108.856799 
L 231.291818 107.722684 
L 232.052727 107.357658 
L 232.813636 107.140667 
L 233.574545 107.079246 
L 234.335455 107.179183 
L 235.096364 107.444227 
L 235.857273 107.87614 
L 236.618182 108.475304 
L 237.379091 109.239826 
L 238.900909 111.250898 
L 240.422727 113.867477 
L 241.944545 117.029505 
L 243.466364 120.663964 
L 245.749091 126.823963 
L 248.792727 135.922854 
L 257.162727 161.736828 
L 260.206364 170.229852 
L 262.489091 176.069851 
L 264.771818 181.416533 
L 267.054545 186.258898 
L 269.337273 190.601995 
L 271.62 194.461919 
L 273.902727 197.86207 
L 276.185455 200.830197 
L 278.468182 203.396442 
L 280.750909 205.591989 
L 283.033636 207.448169 
L 285.316364 208.995935 
L 287.599091 210.265547 
L 289.881818 211.286367 
L 292.164545 212.086732 
L 294.447273 212.693845 
L 297.490909 213.24739 
L 300.534545 213.561083 
L 304.339091 213.695969 
L 308.904545 213.599383 
L 315.752727 213.187104 
L 327.927273 212.424013 
L 336.297273 212.156721 
L 345.428182 212.099414 
L 373.581818 212.299662 
L 373.581818 212.299662 
" clip-path="url(#p070697b85a)" style="fill: none; stroke: #2ca02c; stroke-width: 1.5; stroke-linecap: square"/>
   </g>
   <g id="line2d_22">
    <path d="M 69.218182 212.269376 
L 149.113636 212.335584 
L 151.396364 212.427147 
L 152.918182 212.339778 
L 155.200909 211.902515 
L 156.722727 211.708958 
L 157.483636 211.801823 
L 158.244545 212.067483 
L 159.766364 212.998981 
L 161.288182 213.869043 
L 162.049091 214.00064 
L 162.81 213.781216 
L 163.570909 213.095339 
L 164.331818 211.859421 
L 166.614545 206.576313 
L 167.375455 205.963912 
L 168.136364 206.890383 
L 168.897273 209.561772 
L 169.658182 213.714636 
L 171.18 223.108413 
L 171.940909 225.831203 
L 172.701818 225.278526 
L 173.462727 219.991377 
L 174.223636 208.78431 
L 174.984545 191.181546 
L 176.506364 141.505716 
L 178.028182 91.278544 
L 178.789091 72.397504 
L 179.55 58.915632 
L 180.310909 50.441835 
L 181.071818 46.00539 
L 181.832727 44.443636 
L 182.593636 44.67645 
L 183.354545 45.864366 
L 184.876364 49.258469 
L 185.637273 51.237877 
L 186.398182 53.595352 
L 187.159091 56.599351 
L 187.92 60.504929 
L 188.680909 65.456934 
L 190.202727 78.166537 
L 192.485455 98.82604 
L 193.246364 104.424782 
L 194.007273 108.915335 
L 194.768182 112.230603 
L 195.529091 114.425975 
L 196.29 115.645168 
L 197.050909 116.083266 
L 197.811818 115.95483 
L 198.572727 115.467919 
L 200.855455 113.510645 
L 201.616364 113.052227 
L 202.377273 112.772791 
L 203.138182 112.671886 
L 203.899091 112.726136 
L 205.420909 113.142001 
L 207.703636 113.906056 
L 209.225455 114.183277 
L 210.747273 114.220273 
L 213.790909 113.928217 
L 216.834545 113.741693 
L 220.639091 113.852356 
L 224.443636 113.934066 
L 231.291818 113.870322 
L 235.096364 114.001685 
L 239.661818 113.827034 
L 240.422727 114.015682 
L 241.183636 114.366942 
L 241.944545 114.918535 
L 242.705455 115.701756 
L 243.466364 116.739023 
L 244.227273 118.04238 
L 244.988182 119.612968 
L 246.51 123.509809 
L 248.031818 128.258396 
L 250.314545 136.422595 
L 255.640909 156.271568 
L 257.923636 164.004917 
L 260.206364 171.045152 
L 262.489091 177.393595 
L 264.771818 183.089315 
L 267.054545 188.1806 
L 269.337273 192.713212 
L 271.62 196.725614 
L 273.902727 200.246666 
L 276.185455 203.294678 
L 278.468182 205.878328 
L 280.750909 208.000468 
L 282.272727 209.160628 
L 283.794545 210.121073 
L 285.316364 210.889158 
L 286.838182 211.47693 
L 289.120909 212.059363 
L 291.403636 212.352264 
L 294.447273 212.445987 
L 302.056364 212.254242 
L 309.665455 212.237995 
L 329.449091 212.268456 
L 373.581818 212.26936 
L 373.581818 212.26936 
" clip-path="url(#p070697b85a)" style="fill: none; stroke: #d62728; stroke-width: 1.5; stroke-linecap: square"/>
   </g>
   <g id="patch_3">
    <path d="M 54 252 
L 54 34.56 
" style="fill: none; stroke: #000000; stroke-width: 0.8; stroke-linejoin: miter; stroke-linecap: square"/>
   </g>
   <g id="patch_4">
    <path d="M 388.8 252 
L 388.8 34.56 
" style="fill: none; stroke: #000000; stroke-width: 0.8; stroke-linejoin: miter; stroke-linecap: square"/>
   </g>
   <g id="patch_5">
    <path d="M 54 252 
L 388.8 252 
" style="fill: none; stroke: #000000; stroke-width: 0.8; stroke-linejoin: miter; stroke-linecap: square"/>
   </g>
   <g id="patch_6">
    <path d="M 54 34.56 
L 388.8 34.56 
" style="fill: none; stroke: #000000; stroke-width: 0.8; stroke-linejoin: miter; stroke-linecap: square"/>
   </g>
   <g id="legend_1">
    <g id="patch_7">
     <path d="M 274.595312 101.2725 
L 381.8 101.2725 
Q 383.8 101.2725 383.8 99.2725 
L 383.8 41.56 
Q 383.8 39.56 381.8 39.56 
L 274.595312 39.56 
Q 272.595312 39.56 272.595312 41.56 
L 272.595312 99.2725 
Q 272.595312 101.2725 274.595312 101.2725 
z
" style="fill: #ffffff; opacity: 0.8; stroke: #cccccc; stroke-linejoin: miter"/>
    </g>
    <g id="line2d_23">
     <path d="M 276.595312 47.658437 
L 286.595312 47.658437 
L 296.595312 47.658437 
" style="fill: none; stroke: #1f77b4; stroke-width: 1.5; stroke-linecap: square"/>
    </g>
    <g id="text_21">
     <!-- c1 - #Cells = 2 -->
     <g transform="translate(304.595312 51.158437) scale(0.1 -0.1)">
      <defs>
       <path id="DejaVuSans-2d" d="M 313 2009 
L 1997 2009 
L 1997 1497 
L 313 1497 
L 313 2009 
z
" transform="scale(0.015625)"/>
       <path id="DejaVuSans-23" d="M 3272 2816 
L 2363 2816 
L 2100 1772 
L 3016 1772 
L 3272 2816 
z
M 2803 4594 
L 2478 3297 
L 3391 3297 
L 3719 4594 
L 4219 4594 
L 3897 3297 
L 4872 3297 
L 4872 2816 
L 3775 2816 
L 3519 1772 
L 4513 1772 
L 4513 1294 
L 3397 1294 
L 3072 0 
L 2572 0 
L 2894 1294 
L 1978 1294 
L 1656 0 
L 1153 0 
L 1478 1294 
L 494 1294 
L 494 1772 
L 1594 1772 
L 1856 2816 
L 850 2816 
L 850 3297 
L 1978 3297 
L 2297 4594 
L 2803 4594 
z
" transform="scale(0.015625)"/>
       <path id="DejaVuSans-3d" d="M 678 2906 
L 4684 2906 
L 4684 2381 
L 678 2381 
L 678 2906 
z
M 678 1631 
L 4684 1631 
L 4684 1100 
L 678 1100 
L 678 1631 
z
" transform="scale(0.015625)"/>
      </defs>
      <use xlink:href="#DejaVuSans-63"/>
      <use xlink:href="#DejaVuSans-31" x="54.980469"/>
      <use xlink:href="#DejaVuSans-20" x="118.603516"/>
      <use xlink:href="#DejaVuSans-2d" x="150.390625"/>
      <use xlink:href="#DejaVuSans-20" x="186.474609"/>
      <use xlink:href="#DejaVuSans-23" x="218.261719"/>
      <use xlink:href="#DejaVuSans-43" x="302.050781"/>
      <use xlink:href="#DejaVuSans-65" x="371.875"/>
      <use xlink:href="#DejaVuSans-6c" x="433.398438"/>
      <use xlink:href="#DejaVuSans-6c" x="461.181641"/>
      <use xlink:href="#DejaVuSans-73" x="488.964844"/>
      <use xlink:href="#DejaVuSans-20" x="541.064453"/>
      <use xlink:href="#DejaVuSans-3d" x="572.851562"/>
      <use xlink:href="#DejaVuSans-20" x="656.640625"/>
      <use xlink:href="#DejaVuSans-32" x="688.427734"/>
     </g>
    </g>
    <g id="line2d_24">
     <path d="M 276.595312 62.336562 
L 286.595312 62.336562 
L 296.595312 62.336562 
" style="fill: none; stroke: #ff7f0e; stroke-width: 1.5; stroke-linecap: square"/>
    </g>
    <g id="text_22">
     <!-- c1 - #Cells = 8 -->
     <g transform="translate(304.595312 65.836562) scale(0.1 -0.1)">
      <defs>
       <path id="DejaVuSans-38" d="M 2034 2216 
Q 1584 2216 1326 1975 
Q 1069 1734 1069 1313 
Q 1069 891 1326 650 
Q 1584 409 2034 409 
Q 2484 409 2743 651 
Q 3003 894 3003 1313 
Q 3003 1734 2745 1975 
Q 2488 2216 2034 2216 
z
M 1403 2484 
Q 997 2584 770 2862 
Q 544 3141 544 3541 
Q 544 4100 942 4425 
Q 1341 4750 2034 4750 
Q 2731 4750 3128 4425 
Q 3525 4100 3525 3541 
Q 3525 3141 3298 2862 
Q 3072 2584 2669 2484 
Q 3125 2378 3379 2068 
Q 3634 1759 3634 1313 
Q 3634 634 3220 271 
Q 2806 -91 2034 -91 
Q 1263 -91 848 271 
Q 434 634 434 1313 
Q 434 1759 690 2068 
Q 947 2378 1403 2484 
z
M 1172 3481 
Q 1172 3119 1398 2916 
Q 1625 2713 2034 2713 
Q 2441 2713 2670 2916 
Q 2900 3119 2900 3481 
Q 2900 3844 2670 4047 
Q 2441 4250 2034 4250 
Q 1625 4250 1398 4047 
Q 1172 3844 1172 3481 
z
" transform="scale(0.015625)"/>
      </defs>
      <use xlink:href="#DejaVuSans-63"/>
      <use xlink:href="#DejaVuSans-31" x="54.980469"/>
      <use xlink:href="#DejaVuSans-20" x="118.603516"/>
      <use xlink:href="#DejaVuSans-2d" x="150.390625"/>
      <use xlink:href="#DejaVuSans-20" x="186.474609"/>
      <use xlink:href="#DejaVuSans-23" x="218.261719"/>
      <use xlink:href="#DejaVuSans-43" x="302.050781"/>
      <use xlink:href="#DejaVuSans-65" x="371.875"/>
      <use xlink:href="#DejaVuSans-6c" x="433.398438"/>
      <use xlink:href="#DejaVuSans-6c" x="461.181641"/>
      <use xlink:href="#DejaVuSans-73" x="488.964844"/>
      <use xlink:href="#DejaVuSans-20" x="541.064453"/>
      <use xlink:href="#DejaVuSans-3d" x="572.851562"/>
      <use xlink:href="#DejaVuSans-20" x="656.640625"/>
      <use xlink:href="#DejaVuSans-38" x="688.427734"/>
     </g>
    </g>
    <g id="line2d_25">
     <path d="M 276.595312 77.014687 
L 286.595312 77.014687 
L 296.595312 77.014687 
" style="fill: none; stroke: #2ca02c; stroke-width: 1.5; stroke-linecap: square"/>
    </g>
    <g id="text_23">
     <!-- c2 - #Cells = 2 -->
     <g transform="translate(304.595312 80.514687) scale(0.1 -0.1)">
      <use xlink:href="#DejaVuSans-63"/>
      <use xlink:href="#DejaVuSans-32" x="54.980469"/>
      <use xlink:href="#DejaVuSans-20" x="118.603516"/>
      <use xlink:href="#DejaVuSans-2d" x="150.390625"/>
      <use xlink:href="#DejaVuSans-20" x="186.474609"/>
      <use xlink:href="#DejaVuSans-23" x="218.261719"/>
      <use xlink:href="#DejaVuSans-43" x="302.050781"/>
      <use xlink:href="#DejaVuSans-65" x="371.875"/>
      <use xlink:href="#DejaVuSans-6c" x="433.398438"/>
      <use xlink:href="#DejaVuSans-6c" x="461.181641"/>
      <use xlink:href="#DejaVuSans-73" x="488.964844"/>
      <use xlink:href="#DejaVuSans-20" x="541.064453"/>
      <use xlink:href="#DejaVuSans-3d" x="572.851562"/>
      <use xlink:href="#DejaVuSans-20" x="656.640625"/>
      <use xlink:href="#DejaVuSans-32" x="688.427734"/>
     </g>
    </g>
    <g id="line2d_26">
     <path d="M 276.595312 91.692813 
L 286.595312 91.692813 
L 296.595312 91.692813 
" style="fill: none; stroke: #d62728; stroke-width: 1.5; stroke-linecap: square"/>
    </g>
    <g id="text_24">
     <!-- c2 - #Cells = 8 -->
     <g transform="translate(304.595312 95.192813) scale(0.1 -0.1)">
      <use xlink:href="#DejaVuSans-63"/>
      <use xlink:href="#DejaVuSans-32" x="54.980469"/>
      <use xlink:href="#DejaVuSans-20" x="118.603516"/>
      <use xlink:href="#DejaVuSans-2d" x="150.390625"/>
      <use xlink:href="#DejaVuSans-20" x="186.474609"/>
      <use xlink:href="#DejaVuSans-23" x="218.261719"/>
      <use xlink:href="#DejaVuSans-43" x="302.050781"/>
      <use xlink:href="#DejaVuSans-65" x="371.875"/>
      <use xlink:href="#DejaVuSans-6c" x="433.398438"/>
      <use xlink:href="#DejaVuSans-6c" x="461.181641"/>
      <use xlink:href="#DejaVuSans-73" x="488.964844"/>
      <use xlink:href="#DejaVuSans-20" x="541.064453"/>
      <use xlink:href="#DejaVuSans-3d" x="572.851562"/>
      <use xlink:href="#DejaVuSans-20" x="656.640625"/>
      <use xlink:href="#DejaVuSans-38" x="688.427734"/>
     </g>
    </g>
   </g>
  </g>
 </g>
 <defs>
  <clipPath id="p070697b85a">
   <rect x="54" y="34.56" width="334.8" height="217.44"/>
  </clipPath>
 </defs>
</svg>
