<?xml version="1.0" encoding="utf-8"?>
<svg xmlns="http://www.w3.org/2000/svg" xmlns:xlink="http://www.w3.org/1999/xlink" width="600" height="400" viewBox="0 0 2400 1600">
<defs>
  <clipPath id="clip150">
    <rect x="0" y="0" width="2400" height="1600"/>
  </clipPath>
</defs>
<path clip-path="url(#clip150)" d="M0 1600 L2400 1600 L2400 0 L0 0  Z" fill="#ffffff" fill-rule="evenodd" fill-opacity="1"/>
<defs>
  <clipPath id="clip151">
    <rect x="480" y="0" width="1681" height="1600"/>
  </clipPath>
</defs>
<path clip-path="url(#clip150)" d="M251.372 1410.9 L2352.76 1410.9 L2352.76 123.472 L251.372 123.472  Z" fill="#ffffff" fill-rule="evenodd" fill-opacity="1"/>
<defs>
  <clipPath id="clip152">
    <rect x="251" y="123" width="2102" height="1288"/>
  </clipPath>
</defs>
<polyline clip-path="url(#clip152)" style="stroke:#000000; stroke-linecap:round; stroke-linejoin:round; stroke-width:2; stroke-opacity:0.1; fill:none" points="966.005,1410.9 966.005,123.472 "/>
<polyline clip-path="url(#clip152)" style="stroke:#000000; stroke-linecap:round; stroke-linejoin:round; stroke-width:2; stroke-opacity:0.1; fill:none" points="1789.19,1410.9 1789.19,123.472 "/>
<polyline clip-path="url(#clip150)" style="stroke:#000000; stroke-linecap:round; stroke-linejoin:round; stroke-width:4; stroke-opacity:1; fill:none" points="251.372,1410.9 2352.76,1410.9 "/>
<polyline clip-path="url(#clip150)" style="stroke:#000000; stroke-linecap:round; stroke-linejoin:round; stroke-width:4; stroke-opacity:1; fill:none" points="966.005,1410.9 966.005,1392 "/>
<polyline clip-path="url(#clip150)" style="stroke:#000000; stroke-linecap:round; stroke-linejoin:round; stroke-width:4; stroke-opacity:1; fill:none" points="1789.19,1410.9 1789.19,1392 "/>
<path clip-path="url(#clip150)" d="M912.754 1485.02 L920.393 1485.02 L920.393 1458.66 L912.083 1460.32 L912.083 1456.06 L920.346 1454.4 L925.022 1454.4 L925.022 1485.02 L932.661 1485.02 L932.661 1488.96 L912.754 1488.96 L912.754 1485.02 Z" fill="#000000" fill-rule="nonzero" fill-opacity="1" /><path clip-path="url(#clip150)" d="M952.106 1457.48 Q948.494 1457.48 946.666 1461.04 Q944.86 1464.58 944.86 1471.71 Q944.86 1478.82 946.666 1482.38 Q948.494 1485.92 952.106 1485.92 Q955.74 1485.92 957.545 1482.38 Q959.374 1478.82 959.374 1471.71 Q959.374 1464.58 957.545 1461.04 Q955.74 1457.48 952.106 1457.48 M952.106 1453.77 Q957.916 1453.77 960.971 1458.38 Q964.05 1462.96 964.05 1471.71 Q964.05 1480.44 960.971 1485.04 Q957.916 1489.63 952.106 1489.63 Q946.295 1489.63 943.217 1485.04 Q940.161 1480.44 940.161 1471.71 Q940.161 1462.96 943.217 1458.38 Q946.295 1453.77 952.106 1453.77 Z" fill="#000000" fill-rule="nonzero" fill-opacity="1" /><path clip-path="url(#clip150)" d="M968.62 1458.35 L981.88 1458.35 L981.88 1461.55 L964.05 1461.55 L964.05 1458.35 Q966.213 1456.11 969.937 1452.35 Q973.68 1448.57 974.639 1447.48 Q976.463 1445.43 977.178 1444.02 Q977.911 1442.59 977.911 1441.22 Q977.911 1438.98 976.331 1437.57 Q974.77 1436.16 972.25 1436.16 Q970.463 1436.16 968.47 1436.78 Q966.495 1437.4 964.238 1438.66 L964.238 1434.82 Q966.533 1433.9 968.526 1433.43 Q970.52 1432.96 972.175 1432.96 Q976.538 1432.96 979.134 1435.14 Q981.729 1437.32 981.729 1440.97 Q981.729 1442.7 981.071 1444.26 Q980.432 1445.8 978.72 1447.91 Q978.25 1448.46 975.73 1451.07 Q973.209 1453.67 968.62 1458.35 Z" fill="#000000" fill-rule="nonzero" fill-opacity="1" /><path clip-path="url(#clip150)" d="M989.854 1456.77 L993.823 1456.77 L993.823 1461.55 L989.854 1461.55 L989.854 1456.77 Z" fill="#000000" fill-rule="nonzero" fill-opacity="1" /><path clip-path="url(#clip150)" d="M1010.22 1435.97 Q1007.29 1435.97 1005.8 1438.86 Q1004.34 1441.74 1004.34 1447.53 Q1004.34 1453.31 1005.8 1456.2 Q1007.29 1459.08 1010.22 1459.08 Q1013.18 1459.08 1014.64 1456.2 Q1016.13 1453.31 1016.13 1447.53 Q1016.13 1441.74 1014.64 1438.86 Q1013.18 1435.97 1010.22 1435.97 M1010.22 1432.96 Q1014.94 1432.96 1017.43 1436.7 Q1019.93 1440.43 1019.93 1447.53 Q1019.93 1454.62 1017.43 1458.37 Q1014.94 1462.09 1010.22 1462.09 Q1005.5 1462.09 1003 1458.37 Q1000.52 1454.62 1000.52 1447.53 Q1000.52 1440.43 1003 1436.7 Q1005.5 1432.96 1010.22 1432.96 Z" fill="#000000" fill-rule="nonzero" fill-opacity="1" /><path clip-path="url(#clip150)" d="M1736.35 1485.02 L1743.99 1485.02 L1743.99 1458.66 L1735.68 1460.32 L1735.68 1456.06 L1743.94 1454.4 L1748.62 1454.4 L1748.62 1485.02 L1756.25 1485.02 L1756.25 1488.96 L1736.35 1488.96 L1736.35 1485.02 Z" fill="#000000" fill-rule="nonzero" fill-opacity="1" /><path clip-path="url(#clip150)" d="M1775.7 1457.48 Q1772.09 1457.48 1770.26 1461.04 Q1768.45 1464.58 1768.45 1471.71 Q1768.45 1478.82 1770.26 1482.38 Q1772.09 1485.92 1775.7 1485.92 Q1779.33 1485.92 1781.14 1482.38 Q1782.97 1478.82 1782.97 1471.71 Q1782.97 1464.58 1781.14 1461.04 Q1779.33 1457.48 1775.7 1457.48 M1775.7 1453.77 Q1781.51 1453.77 1784.56 1458.38 Q1787.64 1462.96 1787.64 1471.71 Q1787.64 1480.44 1784.56 1485.04 Q1781.51 1489.63 1775.7 1489.63 Q1769.89 1489.63 1766.81 1485.04 Q1763.75 1480.44 1763.75 1471.71 Q1763.75 1462.96 1766.81 1458.38 Q1769.89 1453.77 1775.7 1453.77 Z" fill="#000000" fill-rule="nonzero" fill-opacity="1" /><path clip-path="url(#clip150)" d="M1792.21 1458.35 L1805.47 1458.35 L1805.47 1461.55 L1787.64 1461.55 L1787.64 1458.35 Q1789.81 1456.11 1793.53 1452.35 Q1797.27 1448.57 1798.23 1447.48 Q1800.06 1445.43 1800.77 1444.02 Q1801.51 1442.59 1801.51 1441.22 Q1801.51 1438.98 1799.93 1437.57 Q1798.36 1436.16 1795.84 1436.16 Q1794.06 1436.16 1792.06 1436.78 Q1790.09 1437.4 1787.83 1438.66 L1787.83 1434.82 Q1790.13 1433.9 1792.12 1433.43 Q1794.11 1432.96 1795.77 1432.96 Q1800.13 1432.96 1802.73 1435.14 Q1805.32 1437.32 1805.32 1440.97 Q1805.32 1442.7 1804.66 1444.26 Q1804.03 1445.8 1802.31 1447.91 Q1801.84 1448.46 1799.32 1451.07 Q1796.8 1453.67 1792.21 1458.35 Z" fill="#000000" fill-rule="nonzero" fill-opacity="1" /><path clip-path="url(#clip150)" d="M1813.45 1456.77 L1817.42 1456.77 L1817.42 1461.55 L1813.45 1461.55 L1813.45 1456.77 Z" fill="#000000" fill-rule="nonzero" fill-opacity="1" /><path clip-path="url(#clip150)" d="M1825.73 1433.47 L1840.64 1433.47 L1840.64 1436.66 L1829.21 1436.66 L1829.21 1443.55 Q1830.04 1443.27 1830.86 1443.13 Q1831.69 1442.98 1832.52 1442.98 Q1837.22 1442.98 1839.97 1445.56 Q1842.71 1448.14 1842.71 1452.54 Q1842.71 1457.07 1839.89 1459.59 Q1837.07 1462.09 1831.94 1462.09 Q1830.17 1462.09 1828.32 1461.79 Q1826.5 1461.49 1824.54 1460.89 L1824.54 1457.07 Q1826.24 1457.99 1828.04 1458.44 Q1829.85 1458.89 1831.86 1458.89 Q1835.11 1458.89 1837.01 1457.18 Q1838.91 1455.47 1838.91 1452.54 Q1838.91 1449.6 1837.01 1447.89 Q1835.11 1446.18 1831.86 1446.18 Q1830.34 1446.18 1828.81 1446.52 Q1827.31 1446.86 1825.73 1447.57 L1825.73 1433.47 Z" fill="#000000" fill-rule="nonzero" fill-opacity="1" /><path clip-path="url(#clip150)" d="M1244.09 1531.95 L1244.09 1568.9 L1251.85 1568.9 Q1261.69 1568.9 1266.24 1564.45 Q1270.82 1559.99 1270.82 1550.38 Q1270.82 1540.83 1266.24 1536.4 Q1261.69 1531.95 1251.85 1531.95 L1244.09 1531.95 M1237.66 1526.67 L1250.87 1526.67 Q1264.68 1526.67 1271.14 1532.43 Q1277.6 1538.16 1277.6 1550.38 Q1277.6 1562.66 1271.11 1568.42 Q1264.62 1574.19 1250.87 1574.19 L1237.66 1574.19 L1237.66 1526.67 Z" fill="#000000" fill-rule="nonzero" fill-opacity="1" /><path clip-path="url(#clip150)" d="M1307.14 1531.03 Q1300.14 1531.03 1296 1536.25 Q1291.89 1541.47 1291.89 1550.47 Q1291.89 1559.45 1296 1564.67 Q1300.14 1569.89 1307.14 1569.89 Q1314.14 1569.89 1318.22 1564.67 Q1322.32 1559.45 1322.32 1550.47 Q1322.32 1541.47 1318.22 1536.25 Q1314.14 1531.03 1307.14 1531.03 M1307.14 1525.81 Q1317.13 1525.81 1323.12 1532.52 Q1329.1 1539.21 1329.1 1550.47 Q1329.1 1561.71 1323.12 1568.42 Q1317.13 1575.11 1307.14 1575.11 Q1297.11 1575.11 1291.1 1568.42 Q1285.12 1561.74 1285.12 1550.47 Q1285.12 1539.21 1291.1 1532.52 Q1297.11 1525.81 1307.14 1525.81 Z" fill="#000000" fill-rule="nonzero" fill-opacity="1" /><path clip-path="url(#clip150)" d="M1339.16 1526.67 L1366.47 1526.67 L1366.47 1532.08 L1345.59 1532.08 L1345.59 1546.08 L1364.43 1546.08 L1364.43 1551.49 L1345.59 1551.49 L1345.59 1574.19 L1339.16 1574.19 L1339.16 1526.67 Z" fill="#000000" fill-rule="nonzero" fill-opacity="1" /><polyline clip-path="url(#clip152)" style="stroke:#000000; stroke-linecap:round; stroke-linejoin:round; stroke-width:2; stroke-opacity:0.1; fill:none" points="251.372,1363.33 2352.76,1363.33 "/>
<polyline clip-path="url(#clip152)" style="stroke:#000000; stroke-linecap:round; stroke-linejoin:round; stroke-width:2; stroke-opacity:0.1; fill:none" points="251.372,707.145 2352.76,707.145 "/>
<polyline clip-path="url(#clip150)" style="stroke:#000000; stroke-linecap:round; stroke-linejoin:round; stroke-width:4; stroke-opacity:1; fill:none" points="251.372,1410.9 251.372,123.472 "/>
<polyline clip-path="url(#clip150)" style="stroke:#000000; stroke-linecap:round; stroke-linejoin:round; stroke-width:4; stroke-opacity:1; fill:none" points="251.372,1363.33 270.27,1363.33 "/>
<polyline clip-path="url(#clip150)" style="stroke:#000000; stroke-linecap:round; stroke-linejoin:round; stroke-width:4; stroke-opacity:1; fill:none" points="251.372,707.145 270.27,707.145 "/>
<path clip-path="url(#clip150)" d="M114.931 1383.13 L122.57 1383.13 L122.57 1356.76 L114.26 1358.43 L114.26 1354.17 L122.524 1352.5 L127.2 1352.5 L127.2 1383.13 L134.839 1383.13 L134.839 1387.06 L114.931 1387.06 L114.931 1383.13 Z" fill="#000000" fill-rule="nonzero" fill-opacity="1" /><path clip-path="url(#clip150)" d="M154.283 1355.58 Q150.672 1355.58 148.843 1359.15 Q147.038 1362.69 147.038 1369.82 Q147.038 1376.92 148.843 1380.49 Q150.672 1384.03 154.283 1384.03 Q157.917 1384.03 159.723 1380.49 Q161.552 1376.92 161.552 1369.82 Q161.552 1362.69 159.723 1359.15 Q157.917 1355.58 154.283 1355.58 M154.283 1351.88 Q160.093 1351.88 163.149 1356.48 Q166.227 1361.07 166.227 1369.82 Q166.227 1378.54 163.149 1383.15 Q160.093 1387.73 154.283 1387.73 Q148.473 1387.73 145.394 1383.15 Q142.339 1378.54 142.339 1369.82 Q142.339 1361.07 145.394 1356.48 Q148.473 1351.88 154.283 1351.88 Z" fill="#000000" fill-rule="nonzero" fill-opacity="1" /><path clip-path="url(#clip150)" d="M166.227 1345.98 L190.339 1345.98 L190.339 1349.18 L166.227 1349.18 L166.227 1345.98 Z" fill="#000000" fill-rule="nonzero" fill-opacity="1" /><path clip-path="url(#clip150)" d="M199.197 1356.45 L205.404 1356.45 L205.404 1335.03 L198.652 1336.39 L198.652 1332.93 L205.366 1331.57 L209.166 1331.57 L209.166 1356.45 L215.372 1356.45 L215.372 1359.65 L199.197 1359.65 L199.197 1356.45 Z" fill="#000000" fill-rule="nonzero" fill-opacity="1" /><path clip-path="url(#clip150)" d="M144.667 726.938 L152.305 726.938 L152.305 700.572 L143.995 702.239 L143.995 697.979 L152.259 696.313 L156.935 696.313 L156.935 726.938 L164.574 726.938 L164.574 730.873 L144.667 730.873 L144.667 726.938 Z" fill="#000000" fill-rule="nonzero" fill-opacity="1" /><path clip-path="url(#clip150)" d="M184.018 699.391 Q180.407 699.391 178.578 702.956 Q176.773 706.498 176.773 713.627 Q176.773 720.734 178.578 724.299 Q180.407 727.84 184.018 727.84 Q187.652 727.84 189.458 724.299 Q191.287 720.734 191.287 713.627 Q191.287 706.498 189.458 702.956 Q187.652 699.391 184.018 699.391 M184.018 695.688 Q189.828 695.688 192.884 700.294 Q195.963 704.878 195.963 713.627 Q195.963 722.354 192.884 726.961 Q189.828 731.544 184.018 731.544 Q178.208 731.544 175.129 726.961 Q172.074 722.354 172.074 713.627 Q172.074 704.878 175.129 700.294 Q178.208 695.688 184.018 695.688 Z" fill="#000000" fill-rule="nonzero" fill-opacity="1" /><path clip-path="url(#clip150)" d="M205.667 677.884 Q202.733 677.884 201.248 680.78 Q199.781 683.658 199.781 689.451 Q199.781 695.225 201.248 698.121 Q202.733 700.999 205.667 700.999 Q208.62 700.999 210.087 698.121 Q211.573 695.225 211.573 689.451 Q211.573 683.658 210.087 680.78 Q208.62 677.884 205.667 677.884 M205.667 674.875 Q210.388 674.875 212.871 678.617 Q215.372 682.341 215.372 689.451 Q215.372 696.541 212.871 700.284 Q210.388 704.008 205.667 704.008 Q200.947 704.008 198.445 700.284 Q195.963 696.541 195.963 689.451 Q195.963 682.341 198.445 678.617 Q200.947 674.875 205.667 674.875 Z" fill="#000000" fill-rule="nonzero" fill-opacity="1" /><path clip-path="url(#clip150)" d="M22.818 975.757 L46.4666 984.478 L46.4666 967.004 L22.818 975.757 M16.4842 979.385 L16.4842 972.096 L64.0042 953.986 L64.0042 960.67 L51.8138 964.999 L51.8138 986.419 L64.0042 990.748 L64.0042 997.527 L16.4842 979.385 Z" fill="#000000" fill-rule="nonzero" fill-opacity="1" /><path clip-path="url(#clip150)" d="M46.212 921.712 Q39.7508 921.712 36.0905 924.386 Q32.3984 927.027 32.3984 931.674 Q32.3984 936.321 36.0905 938.995 Q39.7508 941.637 46.212 941.637 Q52.6732 941.637 56.3653 938.995 Q60.0256 936.321 60.0256 931.674 Q60.0256 927.027 56.3653 924.386 Q52.6732 921.712 46.212 921.712 M33.7671 941.637 Q30.5842 939.791 29.0564 936.99 Q27.4968 934.157 27.4968 930.242 Q27.4968 923.749 32.6531 919.707 Q37.8093 915.633 46.212 915.633 Q54.6147 915.633 59.771 919.707 Q64.9272 923.749 64.9272 930.242 Q64.9272 934.157 63.3994 936.99 Q61.8398 939.791 58.657 941.637 L64.0042 941.637 L64.0042 947.525 L14.479 947.525 L14.479 941.637 L33.7671 941.637 Z" fill="#000000" fill-rule="nonzero" fill-opacity="1" /><path clip-path="url(#clip150)" d="M29.4065 883.199 L34.9447 883.199 Q33.6716 885.682 33.035 888.356 Q32.3984 891.029 32.3984 893.894 Q32.3984 898.254 33.7352 900.45 Q35.072 902.615 37.7456 902.615 Q39.7826 902.615 40.9603 901.055 Q42.1061 899.496 43.1565 894.785 L43.6021 892.78 Q44.9389 886.541 47.3897 883.931 Q49.8086 881.29 54.1691 881.29 Q59.1344 881.29 62.0308 885.236 Q64.9272 889.151 64.9272 896.026 Q64.9272 898.891 64.3543 902.01 Q63.8132 905.097 62.6992 908.535 L56.6518 908.535 Q58.3387 905.288 59.198 902.137 Q60.0256 898.986 60.0256 895.899 Q60.0256 891.761 58.6251 889.533 Q57.1929 887.305 54.6147 887.305 Q52.2276 887.305 50.9545 888.929 Q49.6813 890.52 48.5037 895.963 L48.0262 898 Q46.8804 903.442 44.5251 905.861 Q42.138 908.28 38.0002 908.28 Q32.9713 908.28 30.2341 904.715 Q27.4968 901.151 27.4968 894.594 Q27.4968 891.347 27.9743 888.483 Q28.4517 885.618 29.4065 883.199 Z" fill="#000000" fill-rule="nonzero" fill-opacity="1" /><path clip-path="url(#clip150)" d="M35.1993 823.489 Q31.2526 821.293 29.3747 818.237 Q27.4968 815.182 27.4968 811.044 Q27.4968 805.474 31.4117 802.45 Q35.2948 799.427 42.4881 799.427 L64.0042 799.427 L64.0042 805.315 L42.679 805.315 Q37.5546 805.315 35.072 807.129 Q32.5894 808.943 32.5894 812.667 Q32.5894 817.219 35.6131 819.861 Q38.6368 822.502 43.8567 822.502 L64.0042 822.502 L64.0042 828.391 L42.679 828.391 Q37.5228 828.391 35.072 830.205 Q32.5894 832.019 32.5894 835.807 Q32.5894 840.295 35.6449 842.936 Q38.6686 845.578 43.8567 845.578 L64.0042 845.578 L64.0042 851.466 L28.3562 851.466 L28.3562 845.578 L33.8944 845.578 Q30.616 843.573 29.0564 840.772 Q27.4968 837.971 27.4968 834.12 Q27.4968 830.237 29.4702 827.531 Q31.4436 824.794 35.1993 823.489 Z" fill="#000000" fill-rule="nonzero" fill-opacity="1" /><path clip-path="url(#clip150)" d="M46.0847 771.545 Q46.0847 778.643 47.7079 781.38 Q49.3312 784.117 53.2461 784.117 Q56.3653 784.117 58.2114 782.08 Q60.0256 780.011 60.0256 776.478 Q60.0256 771.609 56.5881 768.68 Q53.1188 765.72 47.3897 765.72 L46.0847 765.72 L46.0847 771.545 M43.6657 759.864 L64.0042 759.864 L64.0042 765.72 L58.5933 765.72 Q61.8398 767.725 63.3994 770.717 Q64.9272 773.709 64.9272 778.038 Q64.9272 783.512 61.8716 786.759 Q58.7843 789.974 53.6281 789.974 Q47.6125 789.974 44.5569 785.963 Q41.5014 781.921 41.5014 773.932 L41.5014 765.72 L40.9285 765.72 Q36.8862 765.72 34.6901 768.394 Q32.4621 771.036 32.4621 775.842 Q32.4621 778.897 33.1941 781.794 Q33.9262 784.69 35.3903 787.364 L29.9795 787.364 Q28.7381 784.149 28.1334 781.125 Q27.4968 778.102 27.4968 775.237 Q27.4968 767.503 31.5072 763.683 Q35.5176 759.864 43.6657 759.864 Z" fill="#000000" fill-rule="nonzero" fill-opacity="1" /><path clip-path="url(#clip150)" d="M28.3562 718.168 L45.7028 731.059 L64.0042 717.5 L64.0042 724.407 L49.9996 734.783 L64.0042 745.159 L64.0042 752.066 L45.3526 738.22 L28.3562 750.888 L28.3562 743.981 L41.0558 734.528 L28.3562 725.075 L28.3562 718.168 Z" fill="#000000" fill-rule="nonzero" fill-opacity="1" /><path clip-path="url(#clip150)" d="M44.7161 658.013 L47.5806 658.013 L47.5806 684.939 Q53.6281 684.558 56.8109 681.311 Q59.9619 678.033 59.9619 672.208 Q59.9619 668.834 59.1344 665.683 Q58.3069 662.5 56.6518 659.381 L62.1899 659.381 Q63.5267 662.532 64.227 665.842 Q64.9272 669.153 64.9272 672.558 Q64.9272 681.088 59.9619 686.085 Q54.9967 691.051 46.5303 691.051 Q37.7774 691.051 32.6531 686.34 Q27.4968 681.597 27.4968 673.577 Q27.4968 666.383 32.1438 662.214 Q36.7589 658.013 44.7161 658.013 M42.9973 663.869 Q38.1912 663.933 35.3266 666.574 Q32.4621 669.184 32.4621 673.513 Q32.4621 678.415 35.2312 681.375 Q38.0002 684.303 43.0292 684.748 L42.9973 663.869 Z" fill="#000000" fill-rule="nonzero" fill-opacity="1" /><path clip-path="url(#clip150)" d="M33.8307 627.744 Q33.2578 628.73 33.0032 629.908 Q32.7167 631.054 32.7167 632.454 Q32.7167 637.419 35.9632 640.093 Q39.1779 642.735 45.2253 642.735 L64.0042 642.735 L64.0042 648.623 L28.3562 648.623 L28.3562 642.735 L33.8944 642.735 Q30.6479 640.889 29.0883 637.929 Q27.4968 634.969 27.4968 630.735 Q27.4968 630.131 27.5923 629.399 Q27.656 628.667 27.8151 627.775 L33.8307 627.744 Z" fill="#000000" fill-rule="nonzero" fill-opacity="1" /><path clip-path="url(#clip150)" d="M33.8307 602.09 Q33.2578 603.076 33.0032 604.254 Q32.7167 605.4 32.7167 606.8 Q32.7167 611.766 35.9632 614.439 Q39.1779 617.081 45.2253 617.081 L64.0042 617.081 L64.0042 622.969 L28.3562 622.969 L28.3562 617.081 L33.8944 617.081 Q30.6479 615.235 29.0883 612.275 Q27.4968 609.315 27.4968 605.082 Q27.4968 604.477 27.5923 603.745 Q27.656 603.013 27.8151 602.122 L33.8307 602.09 Z" fill="#000000" fill-rule="nonzero" fill-opacity="1" /><path clip-path="url(#clip150)" d="M32.4621 583.566 Q32.4621 588.276 36.1542 591.013 Q39.8145 593.751 46.212 593.751 Q52.6095 593.751 56.3017 591.045 Q59.9619 588.308 59.9619 583.566 Q59.9619 578.887 56.2698 576.15 Q52.5777 573.412 46.212 573.412 Q39.8781 573.412 36.186 576.15 Q32.4621 578.887 32.4621 583.566 M27.4968 583.566 Q27.4968 575.927 32.4621 571.566 Q37.4273 567.206 46.212 567.206 Q54.9649 567.206 59.9619 571.566 Q64.9272 575.927 64.9272 583.566 Q64.9272 591.236 59.9619 595.597 Q54.9649 599.925 46.212 599.925 Q37.4273 599.925 32.4621 595.597 Q27.4968 591.236 27.4968 583.566 Z" fill="#000000" fill-rule="nonzero" fill-opacity="1" /><path clip-path="url(#clip150)" d="M33.8307 536.841 Q33.2578 537.828 33.0032 539.006 Q32.7167 540.151 32.7167 541.552 Q32.7167 546.517 35.9632 549.191 Q39.1779 551.833 45.2253 551.833 L64.0042 551.833 L64.0042 557.721 L28.3562 557.721 L28.3562 551.833 L33.8944 551.833 Q30.6479 549.986 29.0883 547.026 Q27.4968 544.066 27.4968 539.833 Q27.4968 539.228 27.5923 538.496 Q27.656 537.764 27.8151 536.873 L33.8307 536.841 Z" fill="#000000" fill-rule="nonzero" fill-opacity="1" /><path clip-path="url(#clip150)" d="M1081.88 16.7545 L1081.88 25.383 Q1077.75 21.5346 1073.05 19.6307 Q1068.39 17.7268 1063.12 17.7268 Q1052.75 17.7268 1047.24 24.0867 Q1041.73 30.4061 1041.73 42.3968 Q1041.73 54.3469 1047.24 60.7069 Q1052.75 67.0263 1063.12 67.0263 Q1068.39 67.0263 1073.05 65.1223 Q1077.75 63.2184 1081.88 59.3701 L1081.88 67.9175 Q1077.58 70.8341 1072.76 72.2924 Q1067.98 73.7508 1062.64 73.7508 Q1048.9 73.7508 1041 65.3654 Q1033.1 56.9395 1033.1 42.3968 Q1033.1 27.8135 1041 19.4281 Q1048.9 11.0023 1062.64 11.0023 Q1068.06 11.0023 1072.84 12.4606 Q1077.66 13.8784 1081.88 16.7545 Z" fill="#000000" fill-rule="nonzero" fill-opacity="1" /><path clip-path="url(#clip150)" d="M1111.77 32.4315 Q1105.78 32.4315 1102.29 37.1306 Q1098.81 41.7891 1098.81 49.9314 Q1098.81 58.0738 1102.25 62.7728 Q1105.74 67.4314 1111.77 67.4314 Q1117.73 67.4314 1121.21 62.7323 Q1124.7 58.0333 1124.7 49.9314 Q1124.7 41.8701 1121.21 37.1711 Q1117.73 32.4315 1111.77 32.4315 M1111.77 26.1121 Q1121.49 26.1121 1127.04 32.4315 Q1132.59 38.7509 1132.59 49.9314 Q1132.59 61.0714 1127.04 67.4314 Q1121.49 73.7508 1111.77 73.7508 Q1102.01 73.7508 1096.46 67.4314 Q1090.95 61.0714 1090.95 49.9314 Q1090.95 38.7509 1096.46 32.4315 Q1102.01 26.1121 1111.77 26.1121 Z" fill="#000000" fill-rule="nonzero" fill-opacity="1" /><path clip-path="url(#clip150)" d="M1182.66 45.1919 L1182.66 72.576 L1175.21 72.576 L1175.21 45.4349 Q1175.21 38.994 1172.7 35.7938 Q1170.19 32.5936 1165.16 32.5936 Q1159.13 32.5936 1155.64 36.4419 Q1152.16 40.2903 1152.16 46.9338 L1152.16 72.576 L1144.67 72.576 L1144.67 27.2059 L1152.16 27.2059 L1152.16 34.2544 Q1154.83 30.163 1158.44 28.1376 Q1162.09 26.1121 1166.82 26.1121 Q1174.64 26.1121 1178.65 30.9732 Q1182.66 35.7938 1182.66 45.1919 Z" fill="#000000" fill-rule="nonzero" fill-opacity="1" /><path clip-path="url(#clip150)" d="M1192.18 27.2059 L1200.08 27.2059 L1214.26 65.2844 L1228.44 27.2059 L1236.34 27.2059 L1219.32 72.576 L1209.2 72.576 L1192.18 27.2059 Z" fill="#000000" fill-rule="nonzero" fill-opacity="1" /><path clip-path="url(#clip150)" d="M1285.44 48.0275 L1285.44 51.6733 L1251.16 51.6733 Q1251.65 59.3701 1255.78 63.421 Q1259.95 67.4314 1267.37 67.4314 Q1271.66 67.4314 1275.67 66.3781 Q1279.72 65.3249 1283.69 63.2184 L1283.69 70.267 Q1279.68 71.9684 1275.47 72.8596 Q1271.26 73.7508 1266.92 73.7508 Q1256.07 73.7508 1249.71 67.4314 Q1243.39 61.1119 1243.39 50.3365 Q1243.39 39.1965 1249.38 32.6746 Q1255.42 26.1121 1265.63 26.1121 Q1274.78 26.1121 1280.09 32.0264 Q1285.44 37.9003 1285.44 48.0275 M1277.98 45.84 Q1277.9 39.7232 1274.54 36.0774 Q1271.22 32.4315 1265.71 32.4315 Q1259.47 32.4315 1255.7 35.9558 Q1251.97 39.4801 1251.41 45.8805 L1277.98 45.84 Z" fill="#000000" fill-rule="nonzero" fill-opacity="1" /><path clip-path="url(#clip150)" d="M1323.96 34.1734 Q1322.7 33.4443 1321.2 33.1202 Q1319.75 32.7556 1317.96 32.7556 Q1311.64 32.7556 1308.24 36.8875 Q1304.88 40.9789 1304.88 48.6757 L1304.88 72.576 L1297.39 72.576 L1297.39 27.2059 L1304.88 27.2059 L1304.88 34.2544 Q1307.23 30.1225 1311 28.1376 Q1314.76 26.1121 1320.15 26.1121 Q1320.92 26.1121 1321.85 26.2337 Q1322.78 26.3147 1323.92 26.5172 L1323.96 34.1734 Z" fill="#000000" fill-rule="nonzero" fill-opacity="1" /><path clip-path="url(#clip150)" d="M1360.17 49.3643 Q1360.17 41.2625 1356.81 36.8065 Q1353.49 32.3505 1347.45 32.3505 Q1341.46 32.3505 1338.1 36.8065 Q1334.78 41.2625 1334.78 49.3643 Q1334.78 57.4256 1338.1 61.8816 Q1341.46 66.3376 1347.45 66.3376 Q1353.49 66.3376 1356.81 61.8816 Q1360.17 57.4256 1360.17 49.3643 M1367.63 66.9452 Q1367.63 78.5308 1362.48 84.1616 Q1357.34 89.8329 1346.73 89.8329 Q1342.8 89.8329 1339.31 89.2252 Q1335.83 88.6581 1332.55 87.4428 L1332.55 80.1917 Q1335.83 81.9741 1339.03 82.8248 Q1342.23 83.6755 1345.55 83.6755 Q1352.88 83.6755 1356.53 79.8271 Q1360.17 76.0193 1360.17 68.282 L1360.17 64.5957 Q1357.87 68.6061 1354.26 70.5911 Q1350.65 72.576 1345.63 72.576 Q1337.29 72.576 1332.18 66.2161 Q1327.08 59.8562 1327.08 49.3643 Q1327.08 38.832 1332.18 32.472 Q1337.29 26.1121 1345.63 26.1121 Q1350.65 26.1121 1354.26 28.0971 Q1357.87 30.082 1360.17 34.0924 L1360.17 27.2059 L1367.63 27.2059 L1367.63 66.9452 Z" fill="#000000" fill-rule="nonzero" fill-opacity="1" /><path clip-path="url(#clip150)" d="M1421.79 48.0275 L1421.79 51.6733 L1387.52 51.6733 Q1388 59.3701 1392.14 63.421 Q1396.31 67.4314 1403.72 67.4314 Q1408.02 67.4314 1412.03 66.3781 Q1416.08 65.3249 1420.05 63.2184 L1420.05 70.267 Q1416.04 71.9684 1411.82 72.8596 Q1407.61 73.7508 1403.28 73.7508 Q1392.42 73.7508 1386.06 67.4314 Q1379.74 61.1119 1379.74 50.3365 Q1379.74 39.1965 1385.74 32.6746 Q1391.77 26.1121 1401.98 26.1121 Q1411.13 26.1121 1416.44 32.0264 Q1421.79 37.9003 1421.79 48.0275 M1414.33 45.84 Q1414.25 39.7232 1410.89 36.0774 Q1407.57 32.4315 1402.06 32.4315 Q1395.82 32.4315 1392.05 35.9558 Q1388.33 39.4801 1387.76 45.8805 L1414.33 45.84 Z" fill="#000000" fill-rule="nonzero" fill-opacity="1" /><path clip-path="url(#clip150)" d="M1471.74 45.1919 L1471.74 72.576 L1464.28 72.576 L1464.28 45.4349 Q1464.28 38.994 1461.77 35.7938 Q1459.26 32.5936 1454.24 32.5936 Q1448.2 32.5936 1444.72 36.4419 Q1441.23 40.2903 1441.23 46.9338 L1441.23 72.576 L1433.74 72.576 L1433.74 27.2059 L1441.23 27.2059 L1441.23 34.2544 Q1443.91 30.163 1447.51 28.1376 Q1451.16 26.1121 1455.9 26.1121 Q1463.72 26.1121 1467.73 30.9732 Q1471.74 35.7938 1471.74 45.1919 Z" fill="#000000" fill-rule="nonzero" fill-opacity="1" /><path clip-path="url(#clip150)" d="M1519.25 28.9478 L1519.25 35.9153 Q1516.09 34.1734 1512.89 33.3227 Q1509.73 32.4315 1506.49 32.4315 Q1499.24 32.4315 1495.23 37.0496 Q1491.22 41.6271 1491.22 49.9314 Q1491.22 58.2358 1495.23 62.8538 Q1499.24 67.4314 1506.49 67.4314 Q1509.73 67.4314 1512.89 66.5807 Q1516.09 65.6895 1519.25 63.9476 L1519.25 70.8341 Q1516.13 72.2924 1512.77 73.0216 Q1509.45 73.7508 1505.68 73.7508 Q1495.43 73.7508 1489.4 67.3098 Q1483.36 60.8689 1483.36 49.9314 Q1483.36 38.832 1489.44 32.472 Q1495.56 26.1121 1506.17 26.1121 Q1509.61 26.1121 1512.89 26.8413 Q1516.17 27.5299 1519.25 28.9478 Z" fill="#000000" fill-rule="nonzero" fill-opacity="1" /><path clip-path="url(#clip150)" d="M1571.02 48.0275 L1571.02 51.6733 L1536.75 51.6733 Q1537.24 59.3701 1541.37 63.421 Q1545.54 67.4314 1552.96 67.4314 Q1557.25 67.4314 1561.26 66.3781 Q1565.31 65.3249 1569.28 63.2184 L1569.28 70.267 Q1565.27 71.9684 1561.06 72.8596 Q1556.85 73.7508 1552.51 73.7508 Q1541.65 73.7508 1535.29 67.4314 Q1528.98 61.1119 1528.98 50.3365 Q1528.98 39.1965 1534.97 32.6746 Q1541.01 26.1121 1551.21 26.1121 Q1560.37 26.1121 1565.68 32.0264 Q1571.02 37.9003 1571.02 48.0275 M1563.57 45.84 Q1563.49 39.7232 1560.13 36.0774 Q1556.81 32.4315 1551.3 32.4315 Q1545.06 32.4315 1541.29 35.9558 Q1537.56 39.4801 1537 45.8805 L1563.57 45.84 Z" fill="#000000" fill-rule="nonzero" fill-opacity="1" /><polyline clip-path="url(#clip152)" style="stroke:#009af9; stroke-linecap:round; stroke-linejoin:round; stroke-width:4; stroke-opacity:1; fill:none" stroke-dasharray="2, 4" points="310.845,159.909 806.455,296.969 1302.06,471.062 1797.67,797.853 2293.28,1374.46 "/>
<circle clip-path="url(#clip152)" cx="310.845" cy="159.909" r="14.4" fill="#009af9" fill-rule="evenodd" fill-opacity="1" stroke="#000000" stroke-opacity="1" stroke-width="3.2"/>
<circle clip-path="url(#clip152)" cx="806.455" cy="296.969" r="14.4" fill="#009af9" fill-rule="evenodd" fill-opacity="1" stroke="#000000" stroke-opacity="1" stroke-width="3.2"/>
<circle clip-path="url(#clip152)" cx="1302.06" cy="471.062" r="14.4" fill="#009af9" fill-rule="evenodd" fill-opacity="1" stroke="#000000" stroke-opacity="1" stroke-width="3.2"/>
<circle clip-path="url(#clip152)" cx="1797.67" cy="797.853" r="14.4" fill="#009af9" fill-rule="evenodd" fill-opacity="1" stroke="#000000" stroke-opacity="1" stroke-width="3.2"/>
<circle clip-path="url(#clip152)" cx="2293.28" cy="1374.46" r="14.4" fill="#009af9" fill-rule="evenodd" fill-opacity="1" stroke="#000000" stroke-opacity="1" stroke-width="3.2"/>
<polyline clip-path="url(#clip152)" style="stroke:#e26f46; stroke-linecap:round; stroke-linejoin:round; stroke-width:4; stroke-opacity:1; fill:none" stroke-dasharray="2, 4" points="310.845,159.909 806.455,296.969 1302.06,471.062 1797.67,797.853 2293.28,1374.46 "/>
<circle clip-path="url(#clip152)" cx="310.845" cy="159.909" r="14.4" fill="#e26f46" fill-rule="evenodd" fill-opacity="1" stroke="#000000" stroke-opacity="1" stroke-width="3.2"/>
<circle clip-path="url(#clip152)" cx="806.455" cy="296.969" r="14.4" fill="#e26f46" fill-rule="evenodd" fill-opacity="1" stroke="#000000" stroke-opacity="1" stroke-width="3.2"/>
<circle clip-path="url(#clip152)" cx="1302.06" cy="471.062" r="14.4" fill="#e26f46" fill-rule="evenodd" fill-opacity="1" stroke="#000000" stroke-opacity="1" stroke-width="3.2"/>
<circle clip-path="url(#clip152)" cx="1797.67" cy="797.853" r="14.4" fill="#e26f46" fill-rule="evenodd" fill-opacity="1" stroke="#000000" stroke-opacity="1" stroke-width="3.2"/>
<circle clip-path="url(#clip152)" cx="2293.28" cy="1374.46" r="14.4" fill="#e26f46" fill-rule="evenodd" fill-opacity="1" stroke="#000000" stroke-opacity="1" stroke-width="3.2"/>
<polyline clip-path="url(#clip152)" style="stroke:#3da44d; stroke-linecap:round; stroke-linejoin:round; stroke-width:4; stroke-opacity:1; fill:none" stroke-dasharray="2, 4" points="310.845,159.909 806.455,296.969 1302.06,471.062 1797.67,797.853 2293.28,1374.46 "/>
<circle clip-path="url(#clip152)" cx="310.845" cy="159.909" r="14.4" fill="#3da44d" fill-rule="evenodd" fill-opacity="1" stroke="#000000" stroke-opacity="1" stroke-width="3.2"/>
<circle clip-path="url(#clip152)" cx="806.455" cy="296.969" r="14.4" fill="#3da44d" fill-rule="evenodd" fill-opacity="1" stroke="#000000" stroke-opacity="1" stroke-width="3.2"/>
<circle clip-path="url(#clip152)" cx="1302.06" cy="471.062" r="14.4" fill="#3da44d" fill-rule="evenodd" fill-opacity="1" stroke="#000000" stroke-opacity="1" stroke-width="3.2"/>
<circle clip-path="url(#clip152)" cx="1797.67" cy="797.853" r="14.4" fill="#3da44d" fill-rule="evenodd" fill-opacity="1" stroke="#000000" stroke-opacity="1" stroke-width="3.2"/>
<circle clip-path="url(#clip152)" cx="2293.28" cy="1374.46" r="14.4" fill="#3da44d" fill-rule="evenodd" fill-opacity="1" stroke="#000000" stroke-opacity="1" stroke-width="3.2"/>
<polyline clip-path="url(#clip152)" style="stroke:#c271d2; stroke-linecap:round; stroke-linejoin:round; stroke-width:4; stroke-opacity:1; fill:none" stroke-dasharray="2, 4" points="310.845,159.909 806.455,296.969 1302.06,471.062 1797.67,797.853 2293.28,1374.46 "/>
<circle clip-path="url(#clip152)" cx="310.845" cy="159.909" r="14.4" fill="#c271d2" fill-rule="evenodd" fill-opacity="1" stroke="#000000" stroke-opacity="1" stroke-width="3.2"/>
<circle clip-path="url(#clip152)" cx="806.455" cy="296.969" r="14.4" fill="#c271d2" fill-rule="evenodd" fill-opacity="1" stroke="#000000" stroke-opacity="1" stroke-width="3.2"/>
<circle clip-path="url(#clip152)" cx="1302.06" cy="471.062" r="14.4" fill="#c271d2" fill-rule="evenodd" fill-opacity="1" stroke="#000000" stroke-opacity="1" stroke-width="3.2"/>
<circle clip-path="url(#clip152)" cx="1797.67" cy="797.853" r="14.4" fill="#c271d2" fill-rule="evenodd" fill-opacity="1" stroke="#000000" stroke-opacity="1" stroke-width="3.2"/>
<circle clip-path="url(#clip152)" cx="2293.28" cy="1374.46" r="14.4" fill="#c271d2" fill-rule="evenodd" fill-opacity="1" stroke="#000000" stroke-opacity="1" stroke-width="3.2"/>
<polyline clip-path="url(#clip152)" style="stroke:#ac8d18; stroke-linecap:round; stroke-linejoin:round; stroke-width:4; stroke-opacity:1; fill:none" stroke-dasharray="2, 4" points="310.845,159.909 806.455,296.969 1302.06,471.062 1797.67,797.853 2293.28,1374.46 "/>
<circle clip-path="url(#clip152)" cx="310.845" cy="159.909" r="14.4" fill="#ac8d18" fill-rule="evenodd" fill-opacity="1" stroke="#000000" stroke-opacity="1" stroke-width="3.2"/>
<circle clip-path="url(#clip152)" cx="806.455" cy="296.969" r="14.4" fill="#ac8d18" fill-rule="evenodd" fill-opacity="1" stroke="#000000" stroke-opacity="1" stroke-width="3.2"/>
<circle clip-path="url(#clip152)" cx="1302.06" cy="471.062" r="14.4" fill="#ac8d18" fill-rule="evenodd" fill-opacity="1" stroke="#000000" stroke-opacity="1" stroke-width="3.2"/>
<circle clip-path="url(#clip152)" cx="1797.67" cy="797.853" r="14.4" fill="#ac8d18" fill-rule="evenodd" fill-opacity="1" stroke="#000000" stroke-opacity="1" stroke-width="3.2"/>
<circle clip-path="url(#clip152)" cx="2293.28" cy="1374.46" r="14.4" fill="#ac8d18" fill-rule="evenodd" fill-opacity="1" stroke="#000000" stroke-opacity="1" stroke-width="3.2"/>
<polyline clip-path="url(#clip152)" style="stroke:#00a9ad; stroke-linecap:round; stroke-linejoin:round; stroke-width:4; stroke-opacity:1; fill:none" stroke-dasharray="2, 4" points="310.845,159.909 806.455,296.969 1302.06,471.062 1797.67,797.853 2293.28,1374.46 "/>
<circle clip-path="url(#clip152)" cx="310.845" cy="159.909" r="14.4" fill="#00a9ad" fill-rule="evenodd" fill-opacity="1" stroke="#000000" stroke-opacity="1" stroke-width="3.2"/>
<circle clip-path="url(#clip152)" cx="806.455" cy="296.969" r="14.4" fill="#00a9ad" fill-rule="evenodd" fill-opacity="1" stroke="#000000" stroke-opacity="1" stroke-width="3.2"/>
<circle clip-path="url(#clip152)" cx="1302.06" cy="471.062" r="14.4" fill="#00a9ad" fill-rule="evenodd" fill-opacity="1" stroke="#000000" stroke-opacity="1" stroke-width="3.2"/>
<circle clip-path="url(#clip152)" cx="1797.67" cy="797.853" r="14.4" fill="#00a9ad" fill-rule="evenodd" fill-opacity="1" stroke="#000000" stroke-opacity="1" stroke-width="3.2"/>
<circle clip-path="url(#clip152)" cx="2293.28" cy="1374.46" r="14.4" fill="#00a9ad" fill-rule="evenodd" fill-opacity="1" stroke="#000000" stroke-opacity="1" stroke-width="3.2"/>
<polyline clip-path="url(#clip152)" style="stroke:#ed5d92; stroke-linecap:round; stroke-linejoin:round; stroke-width:4; stroke-opacity:1; fill:none" stroke-dasharray="2, 4" points="310.845,159.909 806.455,296.969 1302.06,471.062 1797.67,797.853 2293.28,1374.46 "/>
<circle clip-path="url(#clip152)" cx="310.845" cy="159.909" r="14.4" fill="#ed5d92" fill-rule="evenodd" fill-opacity="1" stroke="#000000" stroke-opacity="1" stroke-width="3.2"/>
<circle clip-path="url(#clip152)" cx="806.455" cy="296.969" r="14.4" fill="#ed5d92" fill-rule="evenodd" fill-opacity="1" stroke="#000000" stroke-opacity="1" stroke-width="3.2"/>
<circle clip-path="url(#clip152)" cx="1302.06" cy="471.062" r="14.4" fill="#ed5d92" fill-rule="evenodd" fill-opacity="1" stroke="#000000" stroke-opacity="1" stroke-width="3.2"/>
<circle clip-path="url(#clip152)" cx="1797.67" cy="797.853" r="14.4" fill="#ed5d92" fill-rule="evenodd" fill-opacity="1" stroke="#000000" stroke-opacity="1" stroke-width="3.2"/>
<circle clip-path="url(#clip152)" cx="2293.28" cy="1374.46" r="14.4" fill="#ed5d92" fill-rule="evenodd" fill-opacity="1" stroke="#000000" stroke-opacity="1" stroke-width="3.2"/>
<polyline clip-path="url(#clip152)" style="stroke:#c68125; stroke-linecap:round; stroke-linejoin:round; stroke-width:4; stroke-opacity:1; fill:none" stroke-dasharray="2, 4" points="310.845,159.909 806.455,296.969 1302.06,471.062 1797.67,797.853 2293.28,1374.46 "/>
<circle clip-path="url(#clip152)" cx="310.845" cy="159.909" r="14.4" fill="#c68125" fill-rule="evenodd" fill-opacity="1" stroke="#000000" stroke-opacity="1" stroke-width="3.2"/>
<circle clip-path="url(#clip152)" cx="806.455" cy="296.969" r="14.4" fill="#c68125" fill-rule="evenodd" fill-opacity="1" stroke="#000000" stroke-opacity="1" stroke-width="3.2"/>
<circle clip-path="url(#clip152)" cx="1302.06" cy="471.062" r="14.4" fill="#c68125" fill-rule="evenodd" fill-opacity="1" stroke="#000000" stroke-opacity="1" stroke-width="3.2"/>
<circle clip-path="url(#clip152)" cx="1797.67" cy="797.853" r="14.4" fill="#c68125" fill-rule="evenodd" fill-opacity="1" stroke="#000000" stroke-opacity="1" stroke-width="3.2"/>
<circle clip-path="url(#clip152)" cx="2293.28" cy="1374.46" r="14.4" fill="#c68125" fill-rule="evenodd" fill-opacity="1" stroke="#000000" stroke-opacity="1" stroke-width="3.2"/>
<polyline clip-path="url(#clip152)" style="stroke:#00a98d; stroke-linecap:round; stroke-linejoin:round; stroke-width:4; stroke-opacity:1; fill:none" stroke-dasharray="2, 4" points="310.845,159.911 806.455,296.969 1302.06,471.065 1797.67,797.853 2293.28,1374.46 "/>
<circle clip-path="url(#clip152)" cx="310.845" cy="159.911" r="14.4" fill="#00a98d" fill-rule="evenodd" fill-opacity="1" stroke="#000000" stroke-opacity="1" stroke-width="3.2"/>
<circle clip-path="url(#clip152)" cx="806.455" cy="296.969" r="14.4" fill="#00a98d" fill-rule="evenodd" fill-opacity="1" stroke="#000000" stroke-opacity="1" stroke-width="3.2"/>
<circle clip-path="url(#clip152)" cx="1302.06" cy="471.065" r="14.4" fill="#00a98d" fill-rule="evenodd" fill-opacity="1" stroke="#000000" stroke-opacity="1" stroke-width="3.2"/>
<circle clip-path="url(#clip152)" cx="1797.67" cy="797.853" r="14.4" fill="#00a98d" fill-rule="evenodd" fill-opacity="1" stroke="#000000" stroke-opacity="1" stroke-width="3.2"/>
<circle clip-path="url(#clip152)" cx="2293.28" cy="1374.46" r="14.4" fill="#00a98d" fill-rule="evenodd" fill-opacity="1" stroke="#000000" stroke-opacity="1" stroke-width="3.2"/>
<polyline clip-path="url(#clip152)" style="stroke:#8e971d; stroke-linecap:round; stroke-linejoin:round; stroke-width:4; stroke-opacity:1; fill:none" stroke-dasharray="2, 4" points="310.845,159.911 806.455,296.969 1302.06,471.065 1797.67,797.853 2293.28,1374.46 "/>
<circle clip-path="url(#clip152)" cx="310.845" cy="159.911" r="14.4" fill="#8e971d" fill-rule="evenodd" fill-opacity="1" stroke="#000000" stroke-opacity="1" stroke-width="3.2"/>
<circle clip-path="url(#clip152)" cx="806.455" cy="296.969" r="14.4" fill="#8e971d" fill-rule="evenodd" fill-opacity="1" stroke="#000000" stroke-opacity="1" stroke-width="3.2"/>
<circle clip-path="url(#clip152)" cx="1302.06" cy="471.065" r="14.4" fill="#8e971d" fill-rule="evenodd" fill-opacity="1" stroke="#000000" stroke-opacity="1" stroke-width="3.2"/>
<circle clip-path="url(#clip152)" cx="1797.67" cy="797.853" r="14.4" fill="#8e971d" fill-rule="evenodd" fill-opacity="1" stroke="#000000" stroke-opacity="1" stroke-width="3.2"/>
<circle clip-path="url(#clip152)" cx="2293.28" cy="1374.46" r="14.4" fill="#8e971d" fill-rule="evenodd" fill-opacity="1" stroke="#000000" stroke-opacity="1" stroke-width="3.2"/>
<polyline clip-path="url(#clip152)" style="stroke:#00a8cb; stroke-linecap:round; stroke-linejoin:round; stroke-width:4; stroke-opacity:1; fill:none" stroke-dasharray="2, 4" points="310.845,159.911 806.455,296.969 1302.06,471.065 1797.67,797.853 2293.28,1374.46 "/>
<circle clip-path="url(#clip152)" cx="310.845" cy="159.911" r="14.4" fill="#00a8cb" fill-rule="evenodd" fill-opacity="1" stroke="#000000" stroke-opacity="1" stroke-width="3.2"/>
<circle clip-path="url(#clip152)" cx="806.455" cy="296.969" r="14.4" fill="#00a8cb" fill-rule="evenodd" fill-opacity="1" stroke="#000000" stroke-opacity="1" stroke-width="3.2"/>
<circle clip-path="url(#clip152)" cx="1302.06" cy="471.065" r="14.4" fill="#00a8cb" fill-rule="evenodd" fill-opacity="1" stroke="#000000" stroke-opacity="1" stroke-width="3.2"/>
<circle clip-path="url(#clip152)" cx="1797.67" cy="797.853" r="14.4" fill="#00a8cb" fill-rule="evenodd" fill-opacity="1" stroke="#000000" stroke-opacity="1" stroke-width="3.2"/>
<circle clip-path="url(#clip152)" cx="2293.28" cy="1374.46" r="14.4" fill="#00a8cb" fill-rule="evenodd" fill-opacity="1" stroke="#000000" stroke-opacity="1" stroke-width="3.2"/>
<polyline clip-path="url(#clip152)" style="stroke:#9b7fe8; stroke-linecap:round; stroke-linejoin:round; stroke-width:4; stroke-opacity:1; fill:none" stroke-dasharray="2, 4" points="310.845,159.911 806.455,296.969 1302.06,471.065 1797.67,797.853 2293.28,1374.46 "/>
<circle clip-path="url(#clip152)" cx="310.845" cy="159.911" r="14.4" fill="#9b7fe8" fill-rule="evenodd" fill-opacity="1" stroke="#000000" stroke-opacity="1" stroke-width="3.2"/>
<circle clip-path="url(#clip152)" cx="806.455" cy="296.969" r="14.4" fill="#9b7fe8" fill-rule="evenodd" fill-opacity="1" stroke="#000000" stroke-opacity="1" stroke-width="3.2"/>
<circle clip-path="url(#clip152)" cx="1302.06" cy="471.065" r="14.4" fill="#9b7fe8" fill-rule="evenodd" fill-opacity="1" stroke="#000000" stroke-opacity="1" stroke-width="3.2"/>
<circle clip-path="url(#clip152)" cx="1797.67" cy="797.853" r="14.4" fill="#9b7fe8" fill-rule="evenodd" fill-opacity="1" stroke="#000000" stroke-opacity="1" stroke-width="3.2"/>
<circle clip-path="url(#clip152)" cx="2293.28" cy="1374.46" r="14.4" fill="#9b7fe8" fill-rule="evenodd" fill-opacity="1" stroke="#000000" stroke-opacity="1" stroke-width="3.2"/>
<path clip-path="url(#clip150)" d="M1745.05 840.306 L2282.71 840.306 L2282.71 166.386 L1745.05 166.386  Z" fill="#ffffff" fill-rule="evenodd" fill-opacity="1"/>
<polyline clip-path="url(#clip150)" style="stroke:#000000; stroke-linecap:round; stroke-linejoin:round; stroke-width:4; stroke-opacity:1; fill:none" points="1745.05,840.306 2282.71,840.306 2282.71,166.386 1745.05,166.386 1745.05,840.306 "/>
<polyline clip-path="url(#clip150)" style="stroke:#009af9; stroke-linecap:round; stroke-linejoin:round; stroke-width:4; stroke-opacity:1; fill:none" stroke-dasharray="2, 4" points="1768.4,218.226 1908.49,218.226 "/>
<circle clip-path="url(#clip150)" cx="1838.44" cy="218.226" r="19.4573" fill="#009af9" fill-rule="evenodd" fill-opacity="1" stroke="#000000" stroke-opacity="1" stroke-width="4.55111"/>
<path clip-path="url(#clip150)" d="M1931.84 200.946 L1951.7 200.946 L1951.7 204.881 L1936.52 204.881 L1936.52 215.067 L1950.22 215.067 L1950.22 219.002 L1936.52 219.002 L1936.52 235.506 L1931.84 235.506 L1931.84 200.946 Z" fill="#000000" fill-rule="nonzero" fill-opacity="1" /><path clip-path="url(#clip150)" d="M1963.78 219.002 L1963.78 231.664 L1971.28 231.664 Q1975.06 231.664 1976.86 230.113 Q1978.69 228.539 1978.69 225.321 Q1978.69 222.08 1976.86 220.553 Q1975.06 219.002 1971.28 219.002 L1963.78 219.002 M1963.78 204.789 L1963.78 215.205 L1970.71 215.205 Q1974.13 215.205 1975.8 213.932 Q1977.49 212.636 1977.49 209.997 Q1977.49 207.381 1975.8 206.085 Q1974.13 204.789 1970.71 204.789 L1963.78 204.789 M1959.11 200.946 L1971.05 200.946 Q1976.4 200.946 1979.29 203.168 Q1982.19 205.391 1982.19 209.488 Q1982.19 212.659 1980.71 214.534 Q1979.22 216.409 1976.35 216.872 Q1979.8 217.613 1981.7 219.974 Q1983.62 222.312 1983.62 225.83 Q1983.62 230.46 1980.47 232.983 Q1977.33 235.506 1971.52 235.506 L1959.11 235.506 L1959.11 200.946 Z" fill="#000000" fill-rule="nonzero" fill-opacity="1" /><path clip-path="url(#clip150)" d="M1996.31 204.789 L1996.31 231.664 L2001.96 231.664 Q2009.11 231.664 2012.42 228.423 Q2015.75 225.182 2015.75 218.192 Q2015.75 211.247 2012.42 208.03 Q2009.11 204.789 2001.96 204.789 L1996.31 204.789 M1991.63 200.946 L2001.24 200.946 Q2011.28 200.946 2015.98 205.136 Q2020.68 209.303 2020.68 218.192 Q2020.68 227.127 2015.96 231.316 Q2011.24 235.506 2001.24 235.506 L1991.63 235.506 L1991.63 200.946 Z" fill="#000000" fill-rule="nonzero" fill-opacity="1" /><path clip-path="url(#clip150)" d="M2028.14 200.946 L2048 200.946 L2048 204.881 L2032.81 204.881 L2032.81 215.067 L2046.51 215.067 L2046.51 219.002 L2032.81 219.002 L2032.81 235.506 L2028.14 235.506 L2028.14 200.946 Z" fill="#000000" fill-rule="nonzero" fill-opacity="1" /><polyline clip-path="url(#clip150)" style="stroke:#e26f46; stroke-linecap:round; stroke-linejoin:round; stroke-width:4; stroke-opacity:1; fill:none" stroke-dasharray="2, 4" points="1768.4,270.066 1908.49,270.066 "/>
<circle clip-path="url(#clip150)" cx="1838.44" cy="270.066" r="19.4573" fill="#e26f46" fill-rule="evenodd" fill-opacity="1" stroke="#000000" stroke-opacity="1" stroke-width="4.55111"/>
<path clip-path="url(#clip150)" d="M1931.84 252.786 L1951.7 252.786 L1951.7 256.721 L1936.52 256.721 L1936.52 266.907 L1950.22 266.907 L1950.22 270.842 L1936.52 270.842 L1936.52 287.346 L1931.84 287.346 L1931.84 252.786 Z" fill="#000000" fill-rule="nonzero" fill-opacity="1" /><path clip-path="url(#clip150)" d="M1963.78 270.842 L1963.78 283.504 L1971.28 283.504 Q1975.06 283.504 1976.86 281.953 Q1978.69 280.379 1978.69 277.161 Q1978.69 273.92 1976.86 272.393 Q1975.06 270.842 1971.28 270.842 L1963.78 270.842 M1963.78 256.629 L1963.78 267.045 L1970.71 267.045 Q1974.13 267.045 1975.8 265.772 Q1977.49 264.476 1977.49 261.837 Q1977.49 259.221 1975.8 257.925 Q1974.13 256.629 1970.71 256.629 L1963.78 256.629 M1959.11 252.786 L1971.05 252.786 Q1976.4 252.786 1979.29 255.008 Q1982.19 257.231 1982.19 261.328 Q1982.19 264.499 1980.71 266.374 Q1979.22 268.249 1976.35 268.712 Q1979.8 269.453 1981.7 271.814 Q1983.62 274.152 1983.62 277.67 Q1983.62 282.3 1980.47 284.823 Q1977.33 287.346 1971.52 287.346 L1959.11 287.346 L1959.11 252.786 Z" fill="#000000" fill-rule="nonzero" fill-opacity="1" /><path clip-path="url(#clip150)" d="M1996.31 256.629 L1996.31 283.504 L2001.96 283.504 Q2009.11 283.504 2012.42 280.263 Q2015.75 277.022 2015.75 270.032 Q2015.75 263.087 2012.42 259.87 Q2009.11 256.629 2001.96 256.629 L1996.31 256.629 M1991.63 252.786 L2001.24 252.786 Q2011.28 252.786 2015.98 256.976 Q2020.68 261.143 2020.68 270.032 Q2020.68 278.967 2015.96 283.156 Q2011.24 287.346 2001.24 287.346 L1991.63 287.346 L1991.63 252.786 Z" fill="#000000" fill-rule="nonzero" fill-opacity="1" /><path clip-path="url(#clip150)" d="M2028.14 252.786 L2048 252.786 L2048 256.721 L2032.81 256.721 L2032.81 266.907 L2046.51 266.907 L2046.51 270.842 L2032.81 270.842 L2032.81 287.346 L2028.14 287.346 L2028.14 252.786 Z" fill="#000000" fill-rule="nonzero" fill-opacity="1" /><path clip-path="url(#clip150)" d="M2074.92 295.217 L2074.92 298.527 L2050.29 298.527 L2050.29 295.217 L2074.92 295.217 Z" fill="#000000" fill-rule="nonzero" fill-opacity="1" /><path clip-path="url(#clip150)" d="M2078.92 261.42 L2083.18 261.42 L2083.18 287.809 Q2083.18 292.763 2081.28 294.985 Q2079.41 297.207 2075.22 297.207 L2073.6 297.207 L2073.6 293.596 L2074.73 293.596 Q2077.16 293.596 2078.04 292.462 Q2078.92 291.351 2078.92 287.809 L2078.92 261.42 M2078.92 251.328 L2083.18 251.328 L2083.18 256.721 L2078.92 256.721 L2078.92 251.328 Z" fill="#000000" fill-rule="nonzero" fill-opacity="1" /><path clip-path="url(#clip150)" d="M2103.88 274.314 Q2098.71 274.314 2096.72 275.494 Q2094.73 276.675 2094.73 279.522 Q2094.73 281.791 2096.21 283.133 Q2097.72 284.453 2100.29 284.453 Q2103.83 284.453 2105.96 281.953 Q2108.11 279.43 2108.11 275.263 L2108.11 274.314 L2103.88 274.314 M2112.37 272.555 L2112.37 287.346 L2108.11 287.346 L2108.11 283.411 Q2106.65 285.772 2104.48 286.906 Q2102.3 288.018 2099.15 288.018 Q2095.17 288.018 2092.81 285.795 Q2090.47 283.55 2090.47 279.8 Q2090.47 275.425 2093.39 273.203 Q2096.33 270.981 2102.14 270.981 L2108.11 270.981 L2108.11 270.564 Q2108.11 267.624 2106.17 266.027 Q2104.25 264.407 2100.75 264.407 Q2098.53 264.407 2096.42 264.939 Q2094.32 265.471 2092.37 266.536 L2092.37 262.601 Q2094.71 261.698 2096.91 261.258 Q2099.11 260.795 2101.19 260.795 Q2106.82 260.795 2109.59 263.712 Q2112.37 266.629 2112.37 272.555 Z" fill="#000000" fill-rule="nonzero" fill-opacity="1" /><path clip-path="url(#clip150)" d="M2139.8 262.416 L2139.8 266.397 Q2138 265.402 2136.17 264.916 Q2134.36 264.407 2132.51 264.407 Q2128.37 264.407 2126.07 267.045 Q2123.78 269.661 2123.78 274.407 Q2123.78 279.152 2126.07 281.791 Q2128.37 284.406 2132.51 284.406 Q2134.36 284.406 2136.17 283.92 Q2138 283.411 2139.8 282.416 L2139.8 286.351 Q2138.02 287.184 2136.1 287.601 Q2134.2 288.018 2132.05 288.018 Q2126.19 288.018 2122.74 284.337 Q2119.29 280.656 2119.29 274.407 Q2119.29 268.064 2122.76 264.43 Q2126.26 260.795 2132.32 260.795 Q2134.29 260.795 2136.17 261.212 Q2138.04 261.606 2139.8 262.416 Z" fill="#000000" fill-rule="nonzero" fill-opacity="1" /><polyline clip-path="url(#clip150)" style="stroke:#3da44d; stroke-linecap:round; stroke-linejoin:round; stroke-width:4; stroke-opacity:1; fill:none" stroke-dasharray="2, 4" points="1768.4,321.906 1908.49,321.906 "/>
<circle clip-path="url(#clip150)" cx="1838.44" cy="321.906" r="19.4573" fill="#3da44d" fill-rule="evenodd" fill-opacity="1" stroke="#000000" stroke-opacity="1" stroke-width="4.55111"/>
<path clip-path="url(#clip150)" d="M1931.84 304.626 L1951.7 304.626 L1951.7 308.561 L1936.52 308.561 L1936.52 318.747 L1950.22 318.747 L1950.22 322.682 L1936.52 322.682 L1936.52 339.186 L1931.84 339.186 L1931.84 304.626 Z" fill="#000000" fill-rule="nonzero" fill-opacity="1" /><path clip-path="url(#clip150)" d="M1963.78 322.682 L1963.78 335.344 L1971.28 335.344 Q1975.06 335.344 1976.86 333.793 Q1978.69 332.219 1978.69 329.001 Q1978.69 325.76 1976.86 324.233 Q1975.06 322.682 1971.28 322.682 L1963.78 322.682 M1963.78 308.469 L1963.78 318.885 L1970.71 318.885 Q1974.13 318.885 1975.8 317.612 Q1977.49 316.316 1977.49 313.677 Q1977.49 311.061 1975.8 309.765 Q1974.13 308.469 1970.71 308.469 L1963.78 308.469 M1959.11 304.626 L1971.05 304.626 Q1976.4 304.626 1979.29 306.848 Q1982.19 309.071 1982.19 313.168 Q1982.19 316.339 1980.71 318.214 Q1979.22 320.089 1976.35 320.552 Q1979.8 321.293 1981.7 323.654 Q1983.62 325.992 1983.62 329.51 Q1983.62 334.14 1980.47 336.663 Q1977.33 339.186 1971.52 339.186 L1959.11 339.186 L1959.11 304.626 Z" fill="#000000" fill-rule="nonzero" fill-opacity="1" /><path clip-path="url(#clip150)" d="M1996.31 308.469 L1996.31 335.344 L2001.96 335.344 Q2009.11 335.344 2012.42 332.103 Q2015.75 328.862 2015.75 321.872 Q2015.75 314.927 2012.42 311.71 Q2009.11 308.469 2001.96 308.469 L1996.31 308.469 M1991.63 304.626 L2001.24 304.626 Q2011.28 304.626 2015.98 308.816 Q2020.68 312.983 2020.68 321.872 Q2020.68 330.807 2015.96 334.996 Q2011.24 339.186 2001.24 339.186 L1991.63 339.186 L1991.63 304.626 Z" fill="#000000" fill-rule="nonzero" fill-opacity="1" /><path clip-path="url(#clip150)" d="M2028.14 304.626 L2048 304.626 L2048 308.561 L2032.81 308.561 L2032.81 318.747 L2046.51 318.747 L2046.51 322.682 L2032.81 322.682 L2032.81 339.186 L2028.14 339.186 L2028.14 304.626 Z" fill="#000000" fill-rule="nonzero" fill-opacity="1" /><path clip-path="url(#clip150)" d="M2074.92 347.057 L2074.92 350.367 L2050.29 350.367 L2050.29 347.057 L2074.92 347.057 Z" fill="#000000" fill-rule="nonzero" fill-opacity="1" /><path clip-path="url(#clip150)" d="M2083.04 335.297 L2083.04 349.047 L2078.76 349.047 L2078.76 313.26 L2083.04 313.26 L2083.04 317.196 Q2084.39 314.881 2086.42 313.77 Q2088.48 312.635 2091.33 312.635 Q2096.05 312.635 2098.99 316.385 Q2101.95 320.135 2101.95 326.247 Q2101.95 332.358 2098.99 336.108 Q2096.05 339.858 2091.33 339.858 Q2088.48 339.858 2086.42 338.746 Q2084.39 337.612 2083.04 335.297 M2097.53 326.247 Q2097.53 321.547 2095.59 318.885 Q2093.67 316.2 2090.29 316.2 Q2086.91 316.2 2084.96 318.885 Q2083.04 321.547 2083.04 326.247 Q2083.04 330.946 2084.96 333.631 Q2086.91 336.293 2090.29 336.293 Q2093.67 336.293 2095.59 333.631 Q2097.53 330.946 2097.53 326.247 Z" fill="#000000" fill-rule="nonzero" fill-opacity="1" /><path clip-path="url(#clip150)" d="M2124.04 317.242 Q2123.32 316.825 2122.46 316.64 Q2121.63 316.432 2120.61 316.432 Q2117 316.432 2115.06 318.793 Q2113.14 321.131 2113.14 325.529 L2113.14 339.186 L2108.85 339.186 L2108.85 313.26 L2113.14 313.26 L2113.14 317.288 Q2114.48 314.927 2116.63 313.793 Q2118.78 312.635 2121.86 312.635 Q2122.3 312.635 2122.83 312.705 Q2123.37 312.751 2124.01 312.867 L2124.04 317.242 Z" fill="#000000" fill-rule="nonzero" fill-opacity="1" /><path clip-path="url(#clip150)" d="M2149.64 325.159 L2149.64 327.242 L2130.06 327.242 Q2130.33 331.64 2132.7 333.955 Q2135.08 336.246 2139.32 336.246 Q2141.77 336.246 2144.06 335.645 Q2146.38 335.043 2148.64 333.839 L2148.64 337.867 Q2146.35 338.839 2143.95 339.348 Q2141.54 339.858 2139.06 339.858 Q2132.86 339.858 2129.22 336.246 Q2125.61 332.635 2125.61 326.478 Q2125.61 320.112 2129.04 316.385 Q2132.49 312.635 2138.32 312.635 Q2143.55 312.635 2146.58 316.015 Q2149.64 319.372 2149.64 325.159 M2145.38 323.909 Q2145.33 320.413 2143.41 318.33 Q2141.51 316.247 2138.37 316.247 Q2134.8 316.247 2132.65 318.26 Q2130.52 320.274 2130.2 323.932 L2145.38 323.909 Z" fill="#000000" fill-rule="nonzero" fill-opacity="1" /><path clip-path="url(#clip150)" d="M2175.29 314.256 L2175.29 318.237 Q2173.48 317.242 2171.65 316.756 Q2169.85 316.247 2168 316.247 Q2163.85 316.247 2161.56 318.885 Q2159.27 321.501 2159.27 326.247 Q2159.27 330.992 2161.56 333.631 Q2163.85 336.246 2168 336.246 Q2169.85 336.246 2171.65 335.76 Q2173.48 335.251 2175.29 334.256 L2175.29 338.191 Q2173.51 339.024 2171.58 339.441 Q2169.69 339.858 2167.53 339.858 Q2161.68 339.858 2158.23 336.177 Q2154.78 332.496 2154.78 326.247 Q2154.78 319.904 2158.25 316.27 Q2161.75 312.635 2167.81 312.635 Q2169.78 312.635 2171.65 313.052 Q2173.53 313.446 2175.29 314.256 Z" fill="#000000" fill-rule="nonzero" fill-opacity="1" /><polyline clip-path="url(#clip150)" style="stroke:#c271d2; stroke-linecap:round; stroke-linejoin:round; stroke-width:4; stroke-opacity:1; fill:none" stroke-dasharray="2, 4" points="1768.4,373.746 1908.49,373.746 "/>
<circle clip-path="url(#clip150)" cx="1838.44" cy="373.746" r="19.4573" fill="#c271d2" fill-rule="evenodd" fill-opacity="1" stroke="#000000" stroke-opacity="1" stroke-width="4.55111"/>
<path clip-path="url(#clip150)" d="M1931.84 356.466 L1951.7 356.466 L1951.7 360.401 L1936.52 360.401 L1936.52 370.587 L1950.22 370.587 L1950.22 374.522 L1936.52 374.522 L1936.52 391.026 L1931.84 391.026 L1931.84 356.466 Z" fill="#000000" fill-rule="nonzero" fill-opacity="1" /><path clip-path="url(#clip150)" d="M1963.78 374.522 L1963.78 387.184 L1971.28 387.184 Q1975.06 387.184 1976.86 385.633 Q1978.69 384.059 1978.69 380.841 Q1978.69 377.6 1976.86 376.073 Q1975.06 374.522 1971.28 374.522 L1963.78 374.522 M1963.78 360.309 L1963.78 370.725 L1970.71 370.725 Q1974.13 370.725 1975.8 369.452 Q1977.49 368.156 1977.49 365.517 Q1977.49 362.901 1975.8 361.605 Q1974.13 360.309 1970.71 360.309 L1963.78 360.309 M1959.11 356.466 L1971.05 356.466 Q1976.4 356.466 1979.29 358.688 Q1982.19 360.911 1982.19 365.008 Q1982.19 368.179 1980.71 370.054 Q1979.22 371.929 1976.35 372.392 Q1979.8 373.133 1981.7 375.494 Q1983.62 377.832 1983.62 381.35 Q1983.62 385.98 1980.47 388.503 Q1977.33 391.026 1971.52 391.026 L1959.11 391.026 L1959.11 356.466 Z" fill="#000000" fill-rule="nonzero" fill-opacity="1" /><path clip-path="url(#clip150)" d="M1996.31 360.309 L1996.31 387.184 L2001.96 387.184 Q2009.11 387.184 2012.42 383.943 Q2015.75 380.702 2015.75 373.712 Q2015.75 366.767 2012.42 363.55 Q2009.11 360.309 2001.96 360.309 L1996.31 360.309 M1991.63 356.466 L2001.24 356.466 Q2011.28 356.466 2015.98 360.656 Q2020.68 364.823 2020.68 373.712 Q2020.68 382.647 2015.96 386.836 Q2011.24 391.026 2001.24 391.026 L1991.63 391.026 L1991.63 356.466 Z" fill="#000000" fill-rule="nonzero" fill-opacity="1" /><path clip-path="url(#clip150)" d="M2028.14 356.466 L2048 356.466 L2048 360.401 L2032.81 360.401 L2032.81 370.587 L2046.51 370.587 L2046.51 374.522 L2032.81 374.522 L2032.81 391.026 L2028.14 391.026 L2028.14 356.466 Z" fill="#000000" fill-rule="nonzero" fill-opacity="1" /><path clip-path="url(#clip150)" d="M2074.92 398.897 L2074.92 402.207 L2050.29 402.207 L2050.29 398.897 L2074.92 398.897 Z" fill="#000000" fill-rule="nonzero" fill-opacity="1" /><path clip-path="url(#clip150)" d="M2083.04 387.137 L2083.04 400.887 L2078.76 400.887 L2078.76 365.1 L2083.04 365.1 L2083.04 369.036 Q2084.39 366.721 2086.42 365.61 Q2088.48 364.475 2091.33 364.475 Q2096.05 364.475 2098.99 368.225 Q2101.95 371.975 2101.95 378.087 Q2101.95 384.198 2098.99 387.948 Q2096.05 391.698 2091.33 391.698 Q2088.48 391.698 2086.42 390.586 Q2084.39 389.452 2083.04 387.137 M2097.53 378.087 Q2097.53 373.387 2095.59 370.725 Q2093.67 368.04 2090.29 368.04 Q2086.91 368.04 2084.96 370.725 Q2083.04 373.387 2083.04 378.087 Q2083.04 382.786 2084.96 385.471 Q2086.91 388.133 2090.29 388.133 Q2093.67 388.133 2095.59 385.471 Q2097.53 382.786 2097.53 378.087 Z" fill="#000000" fill-rule="nonzero" fill-opacity="1" /><path clip-path="url(#clip150)" d="M2124.04 369.082 Q2123.32 368.665 2122.46 368.48 Q2121.63 368.272 2120.61 368.272 Q2117 368.272 2115.06 370.633 Q2113.14 372.971 2113.14 377.369 L2113.14 391.026 L2108.85 391.026 L2108.85 365.1 L2113.14 365.1 L2113.14 369.128 Q2114.48 366.767 2116.63 365.633 Q2118.78 364.475 2121.86 364.475 Q2122.3 364.475 2122.83 364.545 Q2123.37 364.591 2124.01 364.707 L2124.04 369.082 Z" fill="#000000" fill-rule="nonzero" fill-opacity="1" /><path clip-path="url(#clip150)" d="M2149.64 376.999 L2149.64 379.082 L2130.06 379.082 Q2130.33 383.48 2132.7 385.795 Q2135.08 388.086 2139.32 388.086 Q2141.77 388.086 2144.06 387.485 Q2146.38 386.883 2148.64 385.679 L2148.64 389.707 Q2146.35 390.679 2143.95 391.188 Q2141.54 391.698 2139.06 391.698 Q2132.86 391.698 2129.22 388.086 Q2125.61 384.475 2125.61 378.318 Q2125.61 371.952 2129.04 368.225 Q2132.49 364.475 2138.32 364.475 Q2143.55 364.475 2146.58 367.855 Q2149.64 371.212 2149.64 376.999 M2145.38 375.749 Q2145.33 372.253 2143.41 370.17 Q2141.51 368.087 2138.37 368.087 Q2134.8 368.087 2132.65 370.1 Q2130.52 372.114 2130.2 375.772 L2145.38 375.749 Z" fill="#000000" fill-rule="nonzero" fill-opacity="1" /><path clip-path="url(#clip150)" d="M2175.29 366.096 L2175.29 370.077 Q2173.48 369.082 2171.65 368.596 Q2169.85 368.087 2168 368.087 Q2163.85 368.087 2161.56 370.725 Q2159.27 373.341 2159.27 378.087 Q2159.27 382.832 2161.56 385.471 Q2163.85 388.086 2168 388.086 Q2169.85 388.086 2171.65 387.6 Q2173.48 387.091 2175.29 386.096 L2175.29 390.031 Q2173.51 390.864 2171.58 391.281 Q2169.69 391.698 2167.53 391.698 Q2161.68 391.698 2158.23 388.017 Q2154.78 384.336 2154.78 378.087 Q2154.78 371.744 2158.25 368.11 Q2161.75 364.475 2167.81 364.475 Q2169.78 364.475 2171.65 364.892 Q2173.53 365.286 2175.29 366.096 Z" fill="#000000" fill-rule="nonzero" fill-opacity="1" /><path clip-path="url(#clip150)" d="M2182.88 356.466 L2187.56 356.466 L2187.56 388.619 Q2187.56 394.869 2185.17 397.693 Q2182.81 400.517 2177.56 400.517 L2175.77 400.517 L2175.77 396.582 L2177.23 396.582 Q2180.33 396.582 2181.61 394.846 Q2182.88 393.11 2182.88 388.619 L2182.88 356.466 Z" fill="#000000" fill-rule="nonzero" fill-opacity="1" /><path clip-path="url(#clip150)" d="M2208.46 377.994 Q2203.3 377.994 2201.31 379.174 Q2199.32 380.355 2199.32 383.202 Q2199.32 385.471 2200.8 386.813 Q2202.3 388.133 2204.87 388.133 Q2208.41 388.133 2210.54 385.633 Q2212.69 383.11 2212.69 378.943 L2212.69 377.994 L2208.46 377.994 M2216.95 376.235 L2216.95 391.026 L2212.69 391.026 L2212.69 387.091 Q2211.24 389.452 2209.06 390.586 Q2206.88 391.698 2203.74 391.698 Q2199.75 391.698 2197.39 389.475 Q2195.06 387.23 2195.06 383.48 Q2195.06 379.105 2197.97 376.883 Q2200.91 374.661 2206.72 374.661 L2212.69 374.661 L2212.69 374.244 Q2212.69 371.304 2210.75 369.707 Q2208.83 368.087 2205.33 368.087 Q2203.11 368.087 2201 368.619 Q2198.9 369.151 2196.95 370.216 L2196.95 366.281 Q2199.29 365.378 2201.49 364.938 Q2203.69 364.475 2205.77 364.475 Q2211.4 364.475 2214.18 367.392 Q2216.95 370.309 2216.95 376.235 Z" fill="#000000" fill-rule="nonzero" fill-opacity="1" /><path clip-path="url(#clip150)" d="M2244.38 366.096 L2244.38 370.077 Q2242.58 369.082 2240.75 368.596 Q2238.94 368.087 2237.09 368.087 Q2232.95 368.087 2230.66 370.725 Q2228.37 373.341 2228.37 378.087 Q2228.37 382.832 2230.66 385.471 Q2232.95 388.086 2237.09 388.086 Q2238.94 388.086 2240.75 387.6 Q2242.58 387.091 2244.38 386.096 L2244.38 390.031 Q2242.6 390.864 2240.68 391.281 Q2238.78 391.698 2236.63 391.698 Q2230.77 391.698 2227.32 388.017 Q2223.88 384.336 2223.88 378.087 Q2223.88 371.744 2227.35 368.11 Q2230.84 364.475 2236.91 364.475 Q2238.88 364.475 2240.75 364.892 Q2242.63 365.286 2244.38 366.096 Z" fill="#000000" fill-rule="nonzero" fill-opacity="1" /><polyline clip-path="url(#clip150)" style="stroke:#ac8d18; stroke-linecap:round; stroke-linejoin:round; stroke-width:4; stroke-opacity:1; fill:none" stroke-dasharray="2, 4" points="1768.4,425.586 1908.49,425.586 "/>
<circle clip-path="url(#clip150)" cx="1838.44" cy="425.586" r="19.4573" fill="#ac8d18" fill-rule="evenodd" fill-opacity="1" stroke="#000000" stroke-opacity="1" stroke-width="4.55111"/>
<path clip-path="url(#clip150)" d="M1947.86 411.478 Q1942.77 411.478 1939.76 415.274 Q1936.77 419.07 1936.77 425.621 Q1936.77 432.149 1939.76 435.945 Q1942.77 439.741 1947.86 439.741 Q1952.95 439.741 1955.91 435.945 Q1958.9 432.149 1958.9 425.621 Q1958.9 419.07 1955.91 415.274 Q1952.95 411.478 1947.86 411.478 M1954.41 442.241 L1960.57 448.977 L1954.92 448.977 L1949.8 443.445 Q1949.04 443.491 1948.62 443.514 Q1948.23 443.538 1947.86 443.538 Q1940.57 443.538 1936.19 438.676 Q1931.84 433.792 1931.84 425.621 Q1931.84 417.427 1936.19 412.566 Q1940.57 407.681 1947.86 407.681 Q1955.13 407.681 1959.48 412.566 Q1963.83 417.427 1963.83 425.621 Q1963.83 431.639 1961.4 435.922 Q1958.99 440.204 1954.41 442.241 Z" fill="#000000" fill-rule="nonzero" fill-opacity="1" /><path clip-path="url(#clip150)" d="M1971.15 408.306 L1977.44 408.306 L1992.77 437.218 L1992.77 408.306 L1997.3 408.306 L1997.3 442.866 L1991.01 442.866 L1975.68 413.954 L1975.68 442.866 L1971.15 442.866 L1971.15 408.306 Z" fill="#000000" fill-rule="nonzero" fill-opacity="1" /><path clip-path="url(#clip150)" d="M2011.28 412.149 L2011.28 439.024 L2016.93 439.024 Q2024.08 439.024 2027.39 435.783 Q2030.73 432.542 2030.73 425.552 Q2030.73 418.607 2027.39 415.39 Q2024.08 412.149 2016.93 412.149 L2011.28 412.149 M2006.61 408.306 L2016.21 408.306 Q2026.26 408.306 2030.96 412.496 Q2035.66 416.663 2035.66 425.552 Q2035.66 434.487 2030.94 438.676 Q2026.21 442.866 2016.21 442.866 L2006.61 442.866 L2006.61 408.306 Z" fill="#000000" fill-rule="nonzero" fill-opacity="1" /><path clip-path="url(#clip150)" d="M2043.11 408.306 L2062.97 408.306 L2062.97 412.241 L2047.79 412.241 L2047.79 422.427 L2061.49 422.427 L2061.49 426.362 L2047.79 426.362 L2047.79 442.866 L2043.11 442.866 L2043.11 408.306 Z" fill="#000000" fill-rule="nonzero" fill-opacity="1" /><polyline clip-path="url(#clip150)" style="stroke:#00a9ad; stroke-linecap:round; stroke-linejoin:round; stroke-width:4; stroke-opacity:1; fill:none" stroke-dasharray="2, 4" points="1768.4,477.426 1908.49,477.426 "/>
<circle clip-path="url(#clip150)" cx="1838.44" cy="477.426" r="19.4573" fill="#00a9ad" fill-rule="evenodd" fill-opacity="1" stroke="#000000" stroke-opacity="1" stroke-width="4.55111"/>
<path clip-path="url(#clip150)" d="M1947.86 463.318 Q1942.77 463.318 1939.76 467.114 Q1936.77 470.91 1936.77 477.461 Q1936.77 483.989 1939.76 487.785 Q1942.77 491.581 1947.86 491.581 Q1952.95 491.581 1955.91 487.785 Q1958.9 483.989 1958.9 477.461 Q1958.9 470.91 1955.91 467.114 Q1952.95 463.318 1947.86 463.318 M1954.41 494.081 L1960.57 500.817 L1954.92 500.817 L1949.8 495.285 Q1949.04 495.331 1948.62 495.354 Q1948.23 495.378 1947.86 495.378 Q1940.57 495.378 1936.19 490.516 Q1931.84 485.632 1931.84 477.461 Q1931.84 469.267 1936.19 464.406 Q1940.57 459.521 1947.86 459.521 Q1955.13 459.521 1959.48 464.406 Q1963.83 469.267 1963.83 477.461 Q1963.83 483.479 1961.4 487.762 Q1958.99 492.044 1954.41 494.081 Z" fill="#000000" fill-rule="nonzero" fill-opacity="1" /><path clip-path="url(#clip150)" d="M1971.15 460.146 L1977.44 460.146 L1992.77 489.058 L1992.77 460.146 L1997.3 460.146 L1997.3 494.706 L1991.01 494.706 L1975.68 465.794 L1975.68 494.706 L1971.15 494.706 L1971.15 460.146 Z" fill="#000000" fill-rule="nonzero" fill-opacity="1" /><path clip-path="url(#clip150)" d="M2011.28 463.989 L2011.28 490.864 L2016.93 490.864 Q2024.08 490.864 2027.39 487.623 Q2030.73 484.382 2030.73 477.392 Q2030.73 470.447 2027.39 467.23 Q2024.08 463.989 2016.93 463.989 L2011.28 463.989 M2006.61 460.146 L2016.21 460.146 Q2026.26 460.146 2030.96 464.336 Q2035.66 468.503 2035.66 477.392 Q2035.66 486.327 2030.94 490.516 Q2026.21 494.706 2016.21 494.706 L2006.61 494.706 L2006.61 460.146 Z" fill="#000000" fill-rule="nonzero" fill-opacity="1" /><path clip-path="url(#clip150)" d="M2043.11 460.146 L2062.97 460.146 L2062.97 464.081 L2047.79 464.081 L2047.79 474.267 L2061.49 474.267 L2061.49 478.202 L2047.79 478.202 L2047.79 494.706 L2043.11 494.706 L2043.11 460.146 Z" fill="#000000" fill-rule="nonzero" fill-opacity="1" /><path clip-path="url(#clip150)" d="M2089.89 502.577 L2089.89 505.887 L2065.26 505.887 L2065.26 502.577 L2089.89 502.577 Z" fill="#000000" fill-rule="nonzero" fill-opacity="1" /><path clip-path="url(#clip150)" d="M2093.9 468.78 L2098.16 468.78 L2098.16 495.169 Q2098.16 500.123 2096.26 502.345 Q2094.39 504.567 2090.2 504.567 L2088.57 504.567 L2088.57 500.956 L2089.71 500.956 Q2092.14 500.956 2093.02 499.822 Q2093.9 498.711 2093.9 495.169 L2093.9 468.78 M2093.9 458.688 L2098.16 458.688 L2098.16 464.081 L2093.9 464.081 L2093.9 458.688 Z" fill="#000000" fill-rule="nonzero" fill-opacity="1" /><path clip-path="url(#clip150)" d="M2118.85 481.674 Q2113.69 481.674 2111.7 482.854 Q2109.71 484.035 2109.71 486.882 Q2109.71 489.151 2111.19 490.493 Q2112.7 491.813 2115.26 491.813 Q2118.81 491.813 2120.94 489.313 Q2123.09 486.79 2123.09 482.623 L2123.09 481.674 L2118.85 481.674 M2127.35 479.915 L2127.35 494.706 L2123.09 494.706 L2123.09 490.771 Q2121.63 493.132 2119.45 494.266 Q2117.28 495.378 2114.13 495.378 Q2110.15 495.378 2107.79 493.155 Q2105.45 490.91 2105.45 487.16 Q2105.45 482.785 2108.37 480.563 Q2111.31 478.341 2117.12 478.341 L2123.09 478.341 L2123.09 477.924 Q2123.09 474.984 2121.14 473.387 Q2119.22 471.767 2115.73 471.767 Q2113.51 471.767 2111.4 472.299 Q2109.29 472.831 2107.35 473.896 L2107.35 469.961 Q2109.69 469.058 2111.89 468.618 Q2114.08 468.155 2116.17 468.155 Q2121.79 468.155 2124.57 471.072 Q2127.35 473.989 2127.35 479.915 Z" fill="#000000" fill-rule="nonzero" fill-opacity="1" /><path clip-path="url(#clip150)" d="M2154.78 469.776 L2154.78 473.757 Q2152.97 472.762 2151.14 472.276 Q2149.34 471.767 2147.49 471.767 Q2143.34 471.767 2141.05 474.405 Q2138.76 477.021 2138.76 481.767 Q2138.76 486.512 2141.05 489.151 Q2143.34 491.766 2147.49 491.766 Q2149.34 491.766 2151.14 491.28 Q2152.97 490.771 2154.78 489.776 L2154.78 493.711 Q2153 494.544 2151.07 494.961 Q2149.18 495.378 2147.02 495.378 Q2141.17 495.378 2137.72 491.697 Q2134.27 488.016 2134.27 481.767 Q2134.27 475.424 2137.74 471.79 Q2141.24 468.155 2147.3 468.155 Q2149.27 468.155 2151.14 468.572 Q2153.02 468.966 2154.78 469.776 Z" fill="#000000" fill-rule="nonzero" fill-opacity="1" /><polyline clip-path="url(#clip150)" style="stroke:#ed5d92; stroke-linecap:round; stroke-linejoin:round; stroke-width:4; stroke-opacity:1; fill:none" stroke-dasharray="2, 4" points="1768.4,529.266 1908.49,529.266 "/>
<circle clip-path="url(#clip150)" cx="1838.44" cy="529.266" r="19.4573" fill="#ed5d92" fill-rule="evenodd" fill-opacity="1" stroke="#000000" stroke-opacity="1" stroke-width="4.55111"/>
<path clip-path="url(#clip150)" d="M1947.86 515.158 Q1942.77 515.158 1939.76 518.954 Q1936.77 522.75 1936.77 529.301 Q1936.77 535.829 1939.76 539.625 Q1942.77 543.421 1947.86 543.421 Q1952.95 543.421 1955.91 539.625 Q1958.9 535.829 1958.9 529.301 Q1958.9 522.75 1955.91 518.954 Q1952.95 515.158 1947.86 515.158 M1954.41 545.921 L1960.57 552.657 L1954.92 552.657 L1949.8 547.125 Q1949.04 547.171 1948.62 547.194 Q1948.23 547.218 1947.86 547.218 Q1940.57 547.218 1936.19 542.356 Q1931.84 537.472 1931.84 529.301 Q1931.84 521.107 1936.19 516.246 Q1940.57 511.361 1947.86 511.361 Q1955.13 511.361 1959.48 516.246 Q1963.83 521.107 1963.83 529.301 Q1963.83 535.319 1961.4 539.602 Q1958.99 543.884 1954.41 545.921 Z" fill="#000000" fill-rule="nonzero" fill-opacity="1" /><path clip-path="url(#clip150)" d="M1971.15 511.986 L1977.44 511.986 L1992.77 540.898 L1992.77 511.986 L1997.3 511.986 L1997.3 546.546 L1991.01 546.546 L1975.68 517.634 L1975.68 546.546 L1971.15 546.546 L1971.15 511.986 Z" fill="#000000" fill-rule="nonzero" fill-opacity="1" /><path clip-path="url(#clip150)" d="M2011.28 515.829 L2011.28 542.704 L2016.93 542.704 Q2024.08 542.704 2027.39 539.463 Q2030.73 536.222 2030.73 529.232 Q2030.73 522.287 2027.39 519.07 Q2024.08 515.829 2016.93 515.829 L2011.28 515.829 M2006.61 511.986 L2016.21 511.986 Q2026.26 511.986 2030.96 516.176 Q2035.66 520.343 2035.66 529.232 Q2035.66 538.167 2030.94 542.356 Q2026.21 546.546 2016.21 546.546 L2006.61 546.546 L2006.61 511.986 Z" fill="#000000" fill-rule="nonzero" fill-opacity="1" /><path clip-path="url(#clip150)" d="M2043.11 511.986 L2062.97 511.986 L2062.97 515.921 L2047.79 515.921 L2047.79 526.107 L2061.49 526.107 L2061.49 530.042 L2047.79 530.042 L2047.79 546.546 L2043.11 546.546 L2043.11 511.986 Z" fill="#000000" fill-rule="nonzero" fill-opacity="1" /><path clip-path="url(#clip150)" d="M2089.89 554.417 L2089.89 557.727 L2065.26 557.727 L2065.26 554.417 L2089.89 554.417 Z" fill="#000000" fill-rule="nonzero" fill-opacity="1" /><path clip-path="url(#clip150)" d="M2098.02 542.657 L2098.02 556.407 L2093.74 556.407 L2093.74 520.62 L2098.02 520.62 L2098.02 524.556 Q2099.36 522.241 2101.4 521.13 Q2103.46 519.995 2106.31 519.995 Q2111.03 519.995 2113.97 523.745 Q2116.93 527.495 2116.93 533.607 Q2116.93 539.718 2113.97 543.468 Q2111.03 547.218 2106.31 547.218 Q2103.46 547.218 2101.4 546.106 Q2099.36 544.972 2098.02 542.657 M2112.51 533.607 Q2112.51 528.907 2110.57 526.245 Q2108.64 523.56 2105.26 523.56 Q2101.89 523.56 2099.94 526.245 Q2098.02 528.907 2098.02 533.607 Q2098.02 538.306 2099.94 540.991 Q2101.89 543.653 2105.26 543.653 Q2108.64 543.653 2110.57 540.991 Q2112.51 538.306 2112.51 533.607 Z" fill="#000000" fill-rule="nonzero" fill-opacity="1" /><path clip-path="url(#clip150)" d="M2139.01 524.602 Q2138.3 524.185 2137.44 524 Q2136.61 523.792 2135.59 523.792 Q2131.98 523.792 2130.03 526.153 Q2128.11 528.491 2128.11 532.889 L2128.11 546.546 L2123.83 546.546 L2123.83 520.62 L2128.11 520.62 L2128.11 524.648 Q2129.45 522.287 2131.61 521.153 Q2133.76 519.995 2136.84 519.995 Q2137.28 519.995 2137.81 520.065 Q2138.34 520.111 2138.99 520.227 L2139.01 524.602 Z" fill="#000000" fill-rule="nonzero" fill-opacity="1" /><path clip-path="url(#clip150)" d="M2164.62 532.519 L2164.62 534.602 L2145.03 534.602 Q2145.31 539 2147.67 541.315 Q2150.06 543.606 2154.29 543.606 Q2156.75 543.606 2159.04 543.005 Q2161.35 542.403 2163.62 541.199 L2163.62 545.227 Q2161.33 546.199 2158.92 546.708 Q2156.51 547.218 2154.04 547.218 Q2147.83 547.218 2144.2 543.606 Q2140.59 539.995 2140.59 533.838 Q2140.59 527.472 2144.01 523.745 Q2147.46 519.995 2153.3 519.995 Q2158.53 519.995 2161.56 523.375 Q2164.62 526.732 2164.62 532.519 M2160.36 531.269 Q2160.31 527.773 2158.39 525.69 Q2156.49 523.607 2153.34 523.607 Q2149.78 523.607 2147.63 525.62 Q2145.5 527.634 2145.17 531.292 L2160.36 531.269 Z" fill="#000000" fill-rule="nonzero" fill-opacity="1" /><path clip-path="url(#clip150)" d="M2190.26 521.616 L2190.26 525.597 Q2188.46 524.602 2186.63 524.116 Q2184.82 523.607 2182.97 523.607 Q2178.83 523.607 2176.54 526.245 Q2174.25 528.861 2174.25 533.607 Q2174.25 538.352 2176.54 540.991 Q2178.83 543.606 2182.97 543.606 Q2184.82 543.606 2186.63 543.12 Q2188.46 542.611 2190.26 541.616 L2190.26 545.551 Q2188.48 546.384 2186.56 546.801 Q2184.66 547.218 2182.51 547.218 Q2176.65 547.218 2173.2 543.537 Q2169.76 539.856 2169.76 533.607 Q2169.76 527.264 2173.23 523.63 Q2176.72 519.995 2182.79 519.995 Q2184.75 519.995 2186.63 520.412 Q2188.5 520.806 2190.26 521.616 Z" fill="#000000" fill-rule="nonzero" fill-opacity="1" /><polyline clip-path="url(#clip150)" style="stroke:#c68125; stroke-linecap:round; stroke-linejoin:round; stroke-width:4; stroke-opacity:1; fill:none" stroke-dasharray="2, 4" points="1768.4,581.106 1908.49,581.106 "/>
<circle clip-path="url(#clip150)" cx="1838.44" cy="581.106" r="19.4573" fill="#c68125" fill-rule="evenodd" fill-opacity="1" stroke="#000000" stroke-opacity="1" stroke-width="4.55111"/>
<path clip-path="url(#clip150)" d="M1947.86 566.998 Q1942.77 566.998 1939.76 570.794 Q1936.77 574.59 1936.77 581.141 Q1936.77 587.669 1939.76 591.465 Q1942.77 595.261 1947.86 595.261 Q1952.95 595.261 1955.91 591.465 Q1958.9 587.669 1958.9 581.141 Q1958.9 574.59 1955.91 570.794 Q1952.95 566.998 1947.86 566.998 M1954.41 597.761 L1960.57 604.497 L1954.92 604.497 L1949.8 598.965 Q1949.04 599.011 1948.62 599.034 Q1948.23 599.058 1947.86 599.058 Q1940.57 599.058 1936.19 594.196 Q1931.84 589.312 1931.84 581.141 Q1931.84 572.947 1936.19 568.086 Q1940.57 563.201 1947.86 563.201 Q1955.13 563.201 1959.48 568.086 Q1963.83 572.947 1963.83 581.141 Q1963.83 587.159 1961.4 591.442 Q1958.99 595.724 1954.41 597.761 Z" fill="#000000" fill-rule="nonzero" fill-opacity="1" /><path clip-path="url(#clip150)" d="M1971.15 563.826 L1977.44 563.826 L1992.77 592.738 L1992.77 563.826 L1997.3 563.826 L1997.3 598.386 L1991.01 598.386 L1975.68 569.474 L1975.68 598.386 L1971.15 598.386 L1971.15 563.826 Z" fill="#000000" fill-rule="nonzero" fill-opacity="1" /><path clip-path="url(#clip150)" d="M2011.28 567.669 L2011.28 594.544 L2016.93 594.544 Q2024.08 594.544 2027.39 591.303 Q2030.73 588.062 2030.73 581.072 Q2030.73 574.127 2027.39 570.91 Q2024.08 567.669 2016.93 567.669 L2011.28 567.669 M2006.61 563.826 L2016.21 563.826 Q2026.26 563.826 2030.96 568.016 Q2035.66 572.183 2035.66 581.072 Q2035.66 590.007 2030.94 594.196 Q2026.21 598.386 2016.21 598.386 L2006.61 598.386 L2006.61 563.826 Z" fill="#000000" fill-rule="nonzero" fill-opacity="1" /><path clip-path="url(#clip150)" d="M2043.11 563.826 L2062.97 563.826 L2062.97 567.761 L2047.79 567.761 L2047.79 577.947 L2061.49 577.947 L2061.49 581.882 L2047.79 581.882 L2047.79 598.386 L2043.11 598.386 L2043.11 563.826 Z" fill="#000000" fill-rule="nonzero" fill-opacity="1" /><path clip-path="url(#clip150)" d="M2089.89 606.257 L2089.89 609.567 L2065.26 609.567 L2065.26 606.257 L2089.89 606.257 Z" fill="#000000" fill-rule="nonzero" fill-opacity="1" /><path clip-path="url(#clip150)" d="M2098.02 594.497 L2098.02 608.247 L2093.74 608.247 L2093.74 572.46 L2098.02 572.46 L2098.02 576.396 Q2099.36 574.081 2101.4 572.97 Q2103.46 571.835 2106.31 571.835 Q2111.03 571.835 2113.97 575.585 Q2116.93 579.335 2116.93 585.447 Q2116.93 591.558 2113.97 595.308 Q2111.03 599.058 2106.31 599.058 Q2103.46 599.058 2101.4 597.946 Q2099.36 596.812 2098.02 594.497 M2112.51 585.447 Q2112.51 580.747 2110.57 578.085 Q2108.64 575.4 2105.26 575.4 Q2101.89 575.4 2099.94 578.085 Q2098.02 580.747 2098.02 585.447 Q2098.02 590.146 2099.94 592.831 Q2101.89 595.493 2105.26 595.493 Q2108.64 595.493 2110.57 592.831 Q2112.51 590.146 2112.51 585.447 Z" fill="#000000" fill-rule="nonzero" fill-opacity="1" /><path clip-path="url(#clip150)" d="M2139.01 576.442 Q2138.3 576.025 2137.44 575.84 Q2136.61 575.632 2135.59 575.632 Q2131.98 575.632 2130.03 577.993 Q2128.11 580.331 2128.11 584.729 L2128.11 598.386 L2123.83 598.386 L2123.83 572.46 L2128.11 572.46 L2128.11 576.488 Q2129.45 574.127 2131.61 572.993 Q2133.76 571.835 2136.84 571.835 Q2137.28 571.835 2137.81 571.905 Q2138.34 571.951 2138.99 572.067 L2139.01 576.442 Z" fill="#000000" fill-rule="nonzero" fill-opacity="1" /><path clip-path="url(#clip150)" d="M2164.62 584.359 L2164.62 586.442 L2145.03 586.442 Q2145.31 590.84 2147.67 593.155 Q2150.06 595.446 2154.29 595.446 Q2156.75 595.446 2159.04 594.845 Q2161.35 594.243 2163.62 593.039 L2163.62 597.067 Q2161.33 598.039 2158.92 598.548 Q2156.51 599.058 2154.04 599.058 Q2147.83 599.058 2144.2 595.446 Q2140.59 591.835 2140.59 585.678 Q2140.59 579.312 2144.01 575.585 Q2147.46 571.835 2153.3 571.835 Q2158.53 571.835 2161.56 575.215 Q2164.62 578.572 2164.62 584.359 M2160.36 583.109 Q2160.31 579.613 2158.39 577.53 Q2156.49 575.447 2153.34 575.447 Q2149.78 575.447 2147.63 577.46 Q2145.5 579.474 2145.17 583.132 L2160.36 583.109 Z" fill="#000000" fill-rule="nonzero" fill-opacity="1" /><path clip-path="url(#clip150)" d="M2190.26 573.456 L2190.26 577.437 Q2188.46 576.442 2186.63 575.956 Q2184.82 575.447 2182.97 575.447 Q2178.83 575.447 2176.54 578.085 Q2174.25 580.701 2174.25 585.447 Q2174.25 590.192 2176.54 592.831 Q2178.83 595.446 2182.97 595.446 Q2184.82 595.446 2186.63 594.96 Q2188.46 594.451 2190.26 593.456 L2190.26 597.391 Q2188.48 598.224 2186.56 598.641 Q2184.66 599.058 2182.51 599.058 Q2176.65 599.058 2173.2 595.377 Q2169.76 591.696 2169.76 585.447 Q2169.76 579.104 2173.23 575.47 Q2176.72 571.835 2182.79 571.835 Q2184.75 571.835 2186.63 572.252 Q2188.5 572.646 2190.26 573.456 Z" fill="#000000" fill-rule="nonzero" fill-opacity="1" /><path clip-path="url(#clip150)" d="M2197.86 563.826 L2202.53 563.826 L2202.53 595.979 Q2202.53 602.229 2200.15 605.053 Q2197.79 607.877 2192.53 607.877 L2190.75 607.877 L2190.75 603.942 L2192.21 603.942 Q2195.31 603.942 2196.58 602.206 Q2197.86 600.47 2197.86 595.979 L2197.86 563.826 Z" fill="#000000" fill-rule="nonzero" fill-opacity="1" /><path clip-path="url(#clip150)" d="M2223.44 585.354 Q2218.27 585.354 2216.28 586.534 Q2214.29 587.715 2214.29 590.562 Q2214.29 592.831 2215.77 594.173 Q2217.28 595.493 2219.85 595.493 Q2223.39 595.493 2225.52 592.993 Q2227.67 590.47 2227.67 586.303 L2227.67 585.354 L2223.44 585.354 M2231.93 583.595 L2231.93 598.386 L2227.67 598.386 L2227.67 594.451 Q2226.21 596.812 2224.04 597.946 Q2221.86 599.058 2218.71 599.058 Q2214.73 599.058 2212.37 596.835 Q2210.03 594.59 2210.03 590.84 Q2210.03 586.465 2212.95 584.243 Q2215.89 582.021 2221.7 582.021 L2227.67 582.021 L2227.67 581.604 Q2227.67 578.664 2225.73 577.067 Q2223.81 575.447 2220.31 575.447 Q2218.09 575.447 2215.98 575.979 Q2213.88 576.511 2211.93 577.576 L2211.93 573.641 Q2214.27 572.738 2216.47 572.298 Q2218.67 571.835 2220.75 571.835 Q2226.38 571.835 2229.15 574.752 Q2231.93 577.669 2231.93 583.595 Z" fill="#000000" fill-rule="nonzero" fill-opacity="1" /><path clip-path="url(#clip150)" d="M2259.36 573.456 L2259.36 577.437 Q2257.56 576.442 2255.73 575.956 Q2253.92 575.447 2252.07 575.447 Q2247.93 575.447 2245.63 578.085 Q2243.34 580.701 2243.34 585.447 Q2243.34 590.192 2245.63 592.831 Q2247.93 595.446 2252.07 595.446 Q2253.92 595.446 2255.73 594.96 Q2257.56 594.451 2259.36 593.456 L2259.36 597.391 Q2257.58 598.224 2255.66 598.641 Q2253.76 599.058 2251.61 599.058 Q2245.75 599.058 2242.3 595.377 Q2238.85 591.696 2238.85 585.447 Q2238.85 579.104 2242.32 575.47 Q2245.82 571.835 2251.88 571.835 Q2253.85 571.835 2255.73 572.252 Q2257.6 572.646 2259.36 573.456 Z" fill="#000000" fill-rule="nonzero" fill-opacity="1" /><polyline clip-path="url(#clip150)" style="stroke:#00a98d; stroke-linecap:round; stroke-linejoin:round; stroke-width:4; stroke-opacity:1; fill:none" stroke-dasharray="2, 4" points="1768.4,632.946 1908.49,632.946 "/>
<circle clip-path="url(#clip150)" cx="1838.44" cy="632.946" r="19.4573" fill="#00a98d" fill-rule="evenodd" fill-opacity="1" stroke="#000000" stroke-opacity="1" stroke-width="4.55111"/>
<path clip-path="url(#clip150)" d="M1947.86 618.838 Q1942.77 618.838 1939.76 622.634 Q1936.77 626.43 1936.77 632.981 Q1936.77 639.509 1939.76 643.305 Q1942.77 647.101 1947.86 647.101 Q1952.95 647.101 1955.91 643.305 Q1958.9 639.509 1958.9 632.981 Q1958.9 626.43 1955.91 622.634 Q1952.95 618.838 1947.86 618.838 M1954.41 649.601 L1960.57 656.337 L1954.92 656.337 L1949.8 650.805 Q1949.04 650.851 1948.62 650.874 Q1948.23 650.898 1947.86 650.898 Q1940.57 650.898 1936.19 646.036 Q1931.84 641.152 1931.84 632.981 Q1931.84 624.787 1936.19 619.926 Q1940.57 615.041 1947.86 615.041 Q1955.13 615.041 1959.48 619.926 Q1963.83 624.787 1963.83 632.981 Q1963.83 638.999 1961.4 643.282 Q1958.99 647.564 1954.41 649.601 Z" fill="#000000" fill-rule="nonzero" fill-opacity="1" /><path clip-path="url(#clip150)" d="M1975.82 633.722 L1975.82 646.384 L1983.32 646.384 Q1987.09 646.384 1988.9 644.833 Q1990.73 643.259 1990.73 640.041 Q1990.73 636.8 1988.9 635.273 Q1987.09 633.722 1983.32 633.722 L1975.82 633.722 M1975.82 619.509 L1975.82 629.925 L1982.74 629.925 Q1986.17 629.925 1987.83 628.652 Q1989.52 627.356 1989.52 624.717 Q1989.52 622.101 1987.83 620.805 Q1986.17 619.509 1982.74 619.509 L1975.82 619.509 M1971.15 615.666 L1983.09 615.666 Q1988.44 615.666 1991.33 617.888 Q1994.22 620.111 1994.22 624.208 Q1994.22 627.379 1992.74 629.254 Q1991.26 631.129 1988.39 631.592 Q1991.84 632.333 1993.74 634.694 Q1995.66 637.032 1995.66 640.55 Q1995.66 645.18 1992.51 647.703 Q1989.36 650.226 1983.55 650.226 L1971.15 650.226 L1971.15 615.666 Z" fill="#000000" fill-rule="nonzero" fill-opacity="1" /><path clip-path="url(#clip150)" d="M2008.34 619.509 L2008.34 646.384 L2013.99 646.384 Q2021.14 646.384 2024.45 643.143 Q2027.79 639.902 2027.79 632.912 Q2027.79 625.967 2024.45 622.75 Q2021.14 619.509 2013.99 619.509 L2008.34 619.509 M2003.67 615.666 L2013.27 615.666 Q2023.32 615.666 2028.02 619.856 Q2032.72 624.023 2032.72 632.912 Q2032.72 641.847 2028 646.036 Q2023.27 650.226 2013.27 650.226 L2003.67 650.226 L2003.67 615.666 Z" fill="#000000" fill-rule="nonzero" fill-opacity="1" /><path clip-path="url(#clip150)" d="M2040.17 615.666 L2060.03 615.666 L2060.03 619.601 L2044.85 619.601 L2044.85 629.787 L2058.55 629.787 L2058.55 633.722 L2044.85 633.722 L2044.85 650.226 L2040.17 650.226 L2040.17 615.666 Z" fill="#000000" fill-rule="nonzero" fill-opacity="1" /><polyline clip-path="url(#clip150)" style="stroke:#8e971d; stroke-linecap:round; stroke-linejoin:round; stroke-width:4; stroke-opacity:1; fill:none" stroke-dasharray="2, 4" points="1768.4,684.786 1908.49,684.786 "/>
<circle clip-path="url(#clip150)" cx="1838.44" cy="684.786" r="19.4573" fill="#8e971d" fill-rule="evenodd" fill-opacity="1" stroke="#000000" stroke-opacity="1" stroke-width="4.55111"/>
<path clip-path="url(#clip150)" d="M1947.86 670.678 Q1942.77 670.678 1939.76 674.474 Q1936.77 678.27 1936.77 684.821 Q1936.77 691.349 1939.76 695.145 Q1942.77 698.941 1947.86 698.941 Q1952.95 698.941 1955.91 695.145 Q1958.9 691.349 1958.9 684.821 Q1958.9 678.27 1955.91 674.474 Q1952.95 670.678 1947.86 670.678 M1954.41 701.441 L1960.57 708.177 L1954.92 708.177 L1949.8 702.645 Q1949.04 702.691 1948.62 702.714 Q1948.23 702.738 1947.86 702.738 Q1940.57 702.738 1936.19 697.876 Q1931.84 692.992 1931.84 684.821 Q1931.84 676.627 1936.19 671.766 Q1940.57 666.881 1947.86 666.881 Q1955.13 666.881 1959.48 671.766 Q1963.83 676.627 1963.83 684.821 Q1963.83 690.839 1961.4 695.122 Q1958.99 699.404 1954.41 701.441 Z" fill="#000000" fill-rule="nonzero" fill-opacity="1" /><path clip-path="url(#clip150)" d="M1975.82 685.562 L1975.82 698.224 L1983.32 698.224 Q1987.09 698.224 1988.9 696.673 Q1990.73 695.099 1990.73 691.881 Q1990.73 688.64 1988.9 687.113 Q1987.09 685.562 1983.32 685.562 L1975.82 685.562 M1975.82 671.349 L1975.82 681.765 L1982.74 681.765 Q1986.17 681.765 1987.83 680.492 Q1989.52 679.196 1989.52 676.557 Q1989.52 673.941 1987.83 672.645 Q1986.17 671.349 1982.74 671.349 L1975.82 671.349 M1971.15 667.506 L1983.09 667.506 Q1988.44 667.506 1991.33 669.728 Q1994.22 671.951 1994.22 676.048 Q1994.22 679.219 1992.74 681.094 Q1991.26 682.969 1988.39 683.432 Q1991.84 684.173 1993.74 686.534 Q1995.66 688.872 1995.66 692.39 Q1995.66 697.02 1992.51 699.543 Q1989.36 702.066 1983.55 702.066 L1971.15 702.066 L1971.15 667.506 Z" fill="#000000" fill-rule="nonzero" fill-opacity="1" /><path clip-path="url(#clip150)" d="M2008.34 671.349 L2008.34 698.224 L2013.99 698.224 Q2021.14 698.224 2024.45 694.983 Q2027.79 691.742 2027.79 684.752 Q2027.79 677.807 2024.45 674.59 Q2021.14 671.349 2013.99 671.349 L2008.34 671.349 M2003.67 667.506 L2013.27 667.506 Q2023.32 667.506 2028.02 671.696 Q2032.72 675.863 2032.72 684.752 Q2032.72 693.687 2028 697.876 Q2023.27 702.066 2013.27 702.066 L2003.67 702.066 L2003.67 667.506 Z" fill="#000000" fill-rule="nonzero" fill-opacity="1" /><path clip-path="url(#clip150)" d="M2040.17 667.506 L2060.03 667.506 L2060.03 671.441 L2044.85 671.441 L2044.85 681.627 L2058.55 681.627 L2058.55 685.562 L2044.85 685.562 L2044.85 702.066 L2040.17 702.066 L2040.17 667.506 Z" fill="#000000" fill-rule="nonzero" fill-opacity="1" /><path clip-path="url(#clip150)" d="M2086.95 709.937 L2086.95 713.247 L2062.33 713.247 L2062.33 709.937 L2086.95 709.937 Z" fill="#000000" fill-rule="nonzero" fill-opacity="1" /><path clip-path="url(#clip150)" d="M2090.96 676.14 L2095.22 676.14 L2095.22 702.529 Q2095.22 707.483 2093.32 709.705 Q2091.45 711.927 2087.26 711.927 L2085.64 711.927 L2085.64 708.316 L2086.77 708.316 Q2089.2 708.316 2090.08 707.182 Q2090.96 706.071 2090.96 702.529 L2090.96 676.14 M2090.96 666.048 L2095.22 666.048 L2095.22 671.441 L2090.96 671.441 L2090.96 666.048 Z" fill="#000000" fill-rule="nonzero" fill-opacity="1" /><path clip-path="url(#clip150)" d="M2115.91 689.034 Q2110.75 689.034 2108.76 690.214 Q2106.77 691.395 2106.77 694.242 Q2106.77 696.511 2108.25 697.853 Q2109.76 699.173 2112.32 699.173 Q2115.87 699.173 2118 696.673 Q2120.15 694.15 2120.15 689.983 L2120.15 689.034 L2115.91 689.034 M2124.41 687.275 L2124.41 702.066 L2120.15 702.066 L2120.15 698.131 Q2118.69 700.492 2116.51 701.626 Q2114.34 702.738 2111.19 702.738 Q2107.21 702.738 2104.85 700.515 Q2102.51 698.27 2102.51 694.52 Q2102.51 690.145 2105.43 687.923 Q2108.37 685.701 2114.18 685.701 L2120.15 685.701 L2120.15 685.284 Q2120.15 682.344 2118.2 680.747 Q2116.28 679.127 2112.79 679.127 Q2110.57 679.127 2108.46 679.659 Q2106.35 680.191 2104.41 681.256 L2104.41 677.321 Q2106.75 676.418 2108.95 675.978 Q2111.14 675.515 2113.23 675.515 Q2118.85 675.515 2121.63 678.432 Q2124.41 681.349 2124.41 687.275 Z" fill="#000000" fill-rule="nonzero" fill-opacity="1" /><path clip-path="url(#clip150)" d="M2151.84 677.136 L2151.84 681.117 Q2150.03 680.122 2148.2 679.636 Q2146.4 679.127 2144.55 679.127 Q2140.4 679.127 2138.11 681.765 Q2135.82 684.381 2135.82 689.127 Q2135.82 693.872 2138.11 696.511 Q2140.4 699.126 2144.55 699.126 Q2146.4 699.126 2148.2 698.64 Q2150.03 698.131 2151.84 697.136 L2151.84 701.071 Q2150.06 701.904 2148.13 702.321 Q2146.24 702.738 2144.08 702.738 Q2138.23 702.738 2134.78 699.057 Q2131.33 695.376 2131.33 689.127 Q2131.33 682.784 2134.8 679.15 Q2138.3 675.515 2144.36 675.515 Q2146.33 675.515 2148.2 675.932 Q2150.08 676.326 2151.84 677.136 Z" fill="#000000" fill-rule="nonzero" fill-opacity="1" /><polyline clip-path="url(#clip150)" style="stroke:#00a8cb; stroke-linecap:round; stroke-linejoin:round; stroke-width:4; stroke-opacity:1; fill:none" stroke-dasharray="2, 4" points="1768.4,736.626 1908.49,736.626 "/>
<circle clip-path="url(#clip150)" cx="1838.44" cy="736.626" r="19.4573" fill="#00a8cb" fill-rule="evenodd" fill-opacity="1" stroke="#000000" stroke-opacity="1" stroke-width="4.55111"/>
<path clip-path="url(#clip150)" d="M1947.86 722.518 Q1942.77 722.518 1939.76 726.314 Q1936.77 730.11 1936.77 736.661 Q1936.77 743.189 1939.76 746.985 Q1942.77 750.781 1947.86 750.781 Q1952.95 750.781 1955.91 746.985 Q1958.9 743.189 1958.9 736.661 Q1958.9 730.11 1955.91 726.314 Q1952.95 722.518 1947.86 722.518 M1954.41 753.281 L1960.57 760.017 L1954.92 760.017 L1949.8 754.485 Q1949.04 754.531 1948.62 754.554 Q1948.23 754.578 1947.86 754.578 Q1940.57 754.578 1936.19 749.716 Q1931.84 744.832 1931.84 736.661 Q1931.84 728.467 1936.19 723.606 Q1940.57 718.721 1947.86 718.721 Q1955.13 718.721 1959.48 723.606 Q1963.83 728.467 1963.83 736.661 Q1963.83 742.679 1961.4 746.962 Q1958.99 751.244 1954.41 753.281 Z" fill="#000000" fill-rule="nonzero" fill-opacity="1" /><path clip-path="url(#clip150)" d="M1975.82 737.402 L1975.82 750.064 L1983.32 750.064 Q1987.09 750.064 1988.9 748.513 Q1990.73 746.939 1990.73 743.721 Q1990.73 740.48 1988.9 738.953 Q1987.09 737.402 1983.32 737.402 L1975.82 737.402 M1975.82 723.189 L1975.82 733.605 L1982.74 733.605 Q1986.17 733.605 1987.83 732.332 Q1989.52 731.036 1989.52 728.397 Q1989.52 725.781 1987.83 724.485 Q1986.17 723.189 1982.74 723.189 L1975.82 723.189 M1971.15 719.346 L1983.09 719.346 Q1988.44 719.346 1991.33 721.568 Q1994.22 723.791 1994.22 727.888 Q1994.22 731.059 1992.74 732.934 Q1991.26 734.809 1988.39 735.272 Q1991.84 736.013 1993.74 738.374 Q1995.66 740.712 1995.66 744.23 Q1995.66 748.86 1992.51 751.383 Q1989.36 753.906 1983.55 753.906 L1971.15 753.906 L1971.15 719.346 Z" fill="#000000" fill-rule="nonzero" fill-opacity="1" /><path clip-path="url(#clip150)" d="M2008.34 723.189 L2008.34 750.064 L2013.99 750.064 Q2021.14 750.064 2024.45 746.823 Q2027.79 743.582 2027.79 736.592 Q2027.79 729.647 2024.45 726.43 Q2021.14 723.189 2013.99 723.189 L2008.34 723.189 M2003.67 719.346 L2013.27 719.346 Q2023.32 719.346 2028.02 723.536 Q2032.72 727.703 2032.72 736.592 Q2032.72 745.527 2028 749.716 Q2023.27 753.906 2013.27 753.906 L2003.67 753.906 L2003.67 719.346 Z" fill="#000000" fill-rule="nonzero" fill-opacity="1" /><path clip-path="url(#clip150)" d="M2040.17 719.346 L2060.03 719.346 L2060.03 723.281 L2044.85 723.281 L2044.85 733.467 L2058.55 733.467 L2058.55 737.402 L2044.85 737.402 L2044.85 753.906 L2040.17 753.906 L2040.17 719.346 Z" fill="#000000" fill-rule="nonzero" fill-opacity="1" /><path clip-path="url(#clip150)" d="M2086.95 761.777 L2086.95 765.087 L2062.33 765.087 L2062.33 761.777 L2086.95 761.777 Z" fill="#000000" fill-rule="nonzero" fill-opacity="1" /><path clip-path="url(#clip150)" d="M2095.08 750.017 L2095.08 763.767 L2090.8 763.767 L2090.8 727.98 L2095.08 727.98 L2095.08 731.916 Q2096.42 729.601 2098.46 728.49 Q2100.52 727.355 2103.37 727.355 Q2108.09 727.355 2111.03 731.105 Q2113.99 734.855 2113.99 740.967 Q2113.99 747.078 2111.03 750.828 Q2108.09 754.578 2103.37 754.578 Q2100.52 754.578 2098.46 753.466 Q2096.42 752.332 2095.08 750.017 M2109.57 740.967 Q2109.57 736.267 2107.63 733.605 Q2105.7 730.92 2102.32 730.92 Q2098.95 730.92 2097 733.605 Q2095.08 736.267 2095.08 740.967 Q2095.08 745.666 2097 748.351 Q2098.95 751.013 2102.32 751.013 Q2105.7 751.013 2107.63 748.351 Q2109.57 745.666 2109.57 740.967 Z" fill="#000000" fill-rule="nonzero" fill-opacity="1" /><path clip-path="url(#clip150)" d="M2136.07 731.962 Q2135.36 731.545 2134.5 731.36 Q2133.67 731.152 2132.65 731.152 Q2129.04 731.152 2127.09 733.513 Q2125.17 735.851 2125.17 740.249 L2125.17 753.906 L2120.89 753.906 L2120.89 727.98 L2125.17 727.98 L2125.17 732.008 Q2126.51 729.647 2128.67 728.513 Q2130.82 727.355 2133.9 727.355 Q2134.34 727.355 2134.87 727.425 Q2135.4 727.471 2136.05 727.587 L2136.07 731.962 Z" fill="#000000" fill-rule="nonzero" fill-opacity="1" /><path clip-path="url(#clip150)" d="M2161.68 739.879 L2161.68 741.962 L2142.09 741.962 Q2142.37 746.36 2144.73 748.675 Q2147.12 750.966 2151.35 750.966 Q2153.81 750.966 2156.1 750.365 Q2158.41 749.763 2160.68 748.559 L2160.68 752.587 Q2158.39 753.559 2155.98 754.068 Q2153.57 754.578 2151.1 754.578 Q2144.89 754.578 2141.26 750.966 Q2137.65 747.355 2137.65 741.198 Q2137.65 734.832 2141.07 731.105 Q2144.52 727.355 2150.36 727.355 Q2155.59 727.355 2158.62 730.735 Q2161.68 734.092 2161.68 739.879 M2157.42 738.629 Q2157.37 735.133 2155.45 733.05 Q2153.55 730.967 2150.4 730.967 Q2146.84 730.967 2144.69 732.98 Q2142.56 734.994 2142.23 738.652 L2157.42 738.629 Z" fill="#000000" fill-rule="nonzero" fill-opacity="1" /><path clip-path="url(#clip150)" d="M2187.32 728.976 L2187.32 732.957 Q2185.52 731.962 2183.69 731.476 Q2181.88 730.967 2180.03 730.967 Q2175.89 730.967 2173.6 733.605 Q2171.31 736.221 2171.31 740.967 Q2171.31 745.712 2173.6 748.351 Q2175.89 750.966 2180.03 750.966 Q2181.88 750.966 2183.69 750.48 Q2185.52 749.971 2187.32 748.976 L2187.32 752.911 Q2185.54 753.744 2183.62 754.161 Q2181.72 754.578 2179.57 754.578 Q2173.71 754.578 2170.26 750.897 Q2166.82 747.216 2166.82 740.967 Q2166.82 734.624 2170.29 730.99 Q2173.78 727.355 2179.85 727.355 Q2181.82 727.355 2183.69 727.772 Q2185.57 728.166 2187.32 728.976 Z" fill="#000000" fill-rule="nonzero" fill-opacity="1" /><polyline clip-path="url(#clip150)" style="stroke:#9b7fe8; stroke-linecap:round; stroke-linejoin:round; stroke-width:4; stroke-opacity:1; fill:none" stroke-dasharray="2, 4" points="1768.4,788.466 1908.49,788.466 "/>
<circle clip-path="url(#clip150)" cx="1838.44" cy="788.466" r="19.4573" fill="#9b7fe8" fill-rule="evenodd" fill-opacity="1" stroke="#000000" stroke-opacity="1" stroke-width="4.55111"/>
<path clip-path="url(#clip150)" d="M1947.86 774.358 Q1942.77 774.358 1939.76 778.154 Q1936.77 781.95 1936.77 788.501 Q1936.77 795.029 1939.76 798.825 Q1942.77 802.621 1947.86 802.621 Q1952.95 802.621 1955.91 798.825 Q1958.9 795.029 1958.9 788.501 Q1958.9 781.95 1955.91 778.154 Q1952.95 774.358 1947.86 774.358 M1954.41 805.121 L1960.57 811.857 L1954.92 811.857 L1949.8 806.325 Q1949.04 806.371 1948.62 806.394 Q1948.23 806.418 1947.86 806.418 Q1940.57 806.418 1936.19 801.556 Q1931.84 796.672 1931.84 788.501 Q1931.84 780.307 1936.19 775.446 Q1940.57 770.561 1947.86 770.561 Q1955.13 770.561 1959.48 775.446 Q1963.83 780.307 1963.83 788.501 Q1963.83 794.519 1961.4 798.802 Q1958.99 803.084 1954.41 805.121 Z" fill="#000000" fill-rule="nonzero" fill-opacity="1" /><path clip-path="url(#clip150)" d="M1975.82 789.242 L1975.82 801.904 L1983.32 801.904 Q1987.09 801.904 1988.9 800.353 Q1990.73 798.779 1990.73 795.561 Q1990.73 792.32 1988.9 790.793 Q1987.09 789.242 1983.32 789.242 L1975.82 789.242 M1975.82 775.029 L1975.82 785.445 L1982.74 785.445 Q1986.17 785.445 1987.83 784.172 Q1989.52 782.876 1989.52 780.237 Q1989.52 777.621 1987.83 776.325 Q1986.17 775.029 1982.74 775.029 L1975.82 775.029 M1971.15 771.186 L1983.09 771.186 Q1988.44 771.186 1991.33 773.408 Q1994.22 775.631 1994.22 779.728 Q1994.22 782.899 1992.74 784.774 Q1991.26 786.649 1988.39 787.112 Q1991.84 787.853 1993.74 790.214 Q1995.66 792.552 1995.66 796.07 Q1995.66 800.7 1992.51 803.223 Q1989.36 805.746 1983.55 805.746 L1971.15 805.746 L1971.15 771.186 Z" fill="#000000" fill-rule="nonzero" fill-opacity="1" /><path clip-path="url(#clip150)" d="M2008.34 775.029 L2008.34 801.904 L2013.99 801.904 Q2021.14 801.904 2024.45 798.663 Q2027.79 795.422 2027.79 788.432 Q2027.79 781.487 2024.45 778.27 Q2021.14 775.029 2013.99 775.029 L2008.34 775.029 M2003.67 771.186 L2013.27 771.186 Q2023.32 771.186 2028.02 775.376 Q2032.72 779.543 2032.72 788.432 Q2032.72 797.367 2028 801.556 Q2023.27 805.746 2013.27 805.746 L2003.67 805.746 L2003.67 771.186 Z" fill="#000000" fill-rule="nonzero" fill-opacity="1" /><path clip-path="url(#clip150)" d="M2040.17 771.186 L2060.03 771.186 L2060.03 775.121 L2044.85 775.121 L2044.85 785.307 L2058.55 785.307 L2058.55 789.242 L2044.85 789.242 L2044.85 805.746 L2040.17 805.746 L2040.17 771.186 Z" fill="#000000" fill-rule="nonzero" fill-opacity="1" /><path clip-path="url(#clip150)" d="M2086.95 813.617 L2086.95 816.927 L2062.33 816.927 L2062.33 813.617 L2086.95 813.617 Z" fill="#000000" fill-rule="nonzero" fill-opacity="1" /><path clip-path="url(#clip150)" d="M2095.08 801.857 L2095.08 815.607 L2090.8 815.607 L2090.8 779.82 L2095.08 779.82 L2095.08 783.756 Q2096.42 781.441 2098.46 780.33 Q2100.52 779.195 2103.37 779.195 Q2108.09 779.195 2111.03 782.945 Q2113.99 786.695 2113.99 792.807 Q2113.99 798.918 2111.03 802.668 Q2108.09 806.418 2103.37 806.418 Q2100.52 806.418 2098.46 805.306 Q2096.42 804.172 2095.08 801.857 M2109.57 792.807 Q2109.57 788.107 2107.63 785.445 Q2105.7 782.76 2102.32 782.76 Q2098.95 782.76 2097 785.445 Q2095.08 788.107 2095.08 792.807 Q2095.08 797.506 2097 800.191 Q2098.95 802.853 2102.32 802.853 Q2105.7 802.853 2107.63 800.191 Q2109.57 797.506 2109.57 792.807 Z" fill="#000000" fill-rule="nonzero" fill-opacity="1" /><path clip-path="url(#clip150)" d="M2136.07 783.802 Q2135.36 783.385 2134.5 783.2 Q2133.67 782.992 2132.65 782.992 Q2129.04 782.992 2127.09 785.353 Q2125.17 787.691 2125.17 792.089 L2125.17 805.746 L2120.89 805.746 L2120.89 779.82 L2125.17 779.82 L2125.17 783.848 Q2126.51 781.487 2128.67 780.353 Q2130.82 779.195 2133.9 779.195 Q2134.34 779.195 2134.87 779.265 Q2135.4 779.311 2136.05 779.427 L2136.07 783.802 Z" fill="#000000" fill-rule="nonzero" fill-opacity="1" /><path clip-path="url(#clip150)" d="M2161.68 791.719 L2161.68 793.802 L2142.09 793.802 Q2142.37 798.2 2144.73 800.515 Q2147.12 802.806 2151.35 802.806 Q2153.81 802.806 2156.1 802.205 Q2158.41 801.603 2160.68 800.399 L2160.68 804.427 Q2158.39 805.399 2155.98 805.908 Q2153.57 806.418 2151.1 806.418 Q2144.89 806.418 2141.26 802.806 Q2137.65 799.195 2137.65 793.038 Q2137.65 786.672 2141.07 782.945 Q2144.52 779.195 2150.36 779.195 Q2155.59 779.195 2158.62 782.575 Q2161.68 785.932 2161.68 791.719 M2157.42 790.469 Q2157.37 786.973 2155.45 784.89 Q2153.55 782.807 2150.4 782.807 Q2146.84 782.807 2144.69 784.82 Q2142.56 786.834 2142.23 790.492 L2157.42 790.469 Z" fill="#000000" fill-rule="nonzero" fill-opacity="1" /><path clip-path="url(#clip150)" d="M2187.32 780.816 L2187.32 784.797 Q2185.52 783.802 2183.69 783.316 Q2181.88 782.807 2180.03 782.807 Q2175.89 782.807 2173.6 785.445 Q2171.31 788.061 2171.31 792.807 Q2171.31 797.552 2173.6 800.191 Q2175.89 802.806 2180.03 802.806 Q2181.88 802.806 2183.69 802.32 Q2185.52 801.811 2187.32 800.816 L2187.32 804.751 Q2185.54 805.584 2183.62 806.001 Q2181.72 806.418 2179.57 806.418 Q2173.71 806.418 2170.26 802.737 Q2166.82 799.056 2166.82 792.807 Q2166.82 786.464 2170.29 782.83 Q2173.78 779.195 2179.85 779.195 Q2181.82 779.195 2183.69 779.612 Q2185.57 780.006 2187.32 780.816 Z" fill="#000000" fill-rule="nonzero" fill-opacity="1" /><path clip-path="url(#clip150)" d="M2194.92 771.186 L2199.59 771.186 L2199.59 803.339 Q2199.59 809.589 2197.21 812.413 Q2194.85 815.237 2189.59 815.237 L2187.81 815.237 L2187.81 811.302 L2189.27 811.302 Q2192.37 811.302 2193.64 809.566 Q2194.92 807.83 2194.92 803.339 L2194.92 771.186 Z" fill="#000000" fill-rule="nonzero" fill-opacity="1" /><path clip-path="url(#clip150)" d="M2220.5 792.714 Q2215.33 792.714 2213.34 793.894 Q2211.35 795.075 2211.35 797.922 Q2211.35 800.191 2212.83 801.533 Q2214.34 802.853 2216.91 802.853 Q2220.45 802.853 2222.58 800.353 Q2224.73 797.83 2224.73 793.663 L2224.73 792.714 L2220.5 792.714 M2228.99 790.955 L2228.99 805.746 L2224.73 805.746 L2224.73 801.811 Q2223.27 804.172 2221.1 805.306 Q2218.92 806.418 2215.77 806.418 Q2211.79 806.418 2209.43 804.195 Q2207.09 801.95 2207.09 798.2 Q2207.09 793.825 2210.01 791.603 Q2212.95 789.381 2218.76 789.381 L2224.73 789.381 L2224.73 788.964 Q2224.73 786.024 2222.79 784.427 Q2220.87 782.807 2217.37 782.807 Q2215.15 782.807 2213.04 783.339 Q2210.94 783.871 2208.99 784.936 L2208.99 781.001 Q2211.33 780.098 2213.53 779.658 Q2215.73 779.195 2217.81 779.195 Q2223.44 779.195 2226.21 782.112 Q2228.99 785.029 2228.99 790.955 Z" fill="#000000" fill-rule="nonzero" fill-opacity="1" /><path clip-path="url(#clip150)" d="M2256.42 780.816 L2256.42 784.797 Q2254.62 783.802 2252.79 783.316 Q2250.98 782.807 2249.13 782.807 Q2244.99 782.807 2242.69 785.445 Q2240.4 788.061 2240.4 792.807 Q2240.4 797.552 2242.69 800.191 Q2244.99 802.806 2249.13 802.806 Q2250.98 802.806 2252.79 802.32 Q2254.62 801.811 2256.42 800.816 L2256.42 804.751 Q2254.64 805.584 2252.72 806.001 Q2250.82 806.418 2248.67 806.418 Q2242.81 806.418 2239.36 802.737 Q2235.91 799.056 2235.91 792.807 Q2235.91 786.464 2239.38 782.83 Q2242.88 779.195 2248.94 779.195 Q2250.91 779.195 2252.79 779.612 Q2254.66 780.006 2256.42 780.816 Z" fill="#000000" fill-rule="nonzero" fill-opacity="1" /></svg>
