<?xml version="1.0" encoding="utf-8"?>
<svg xmlns="http://www.w3.org/2000/svg" xmlns:xlink="http://www.w3.org/1999/xlink" width="600" height="400" viewBox="0 0 2400 1600">
<defs>
  <clipPath id="clip580">
    <rect x="0" y="0" width="2400" height="1600"/>
  </clipPath>
</defs>
<path clip-path="url(#clip580)" d="M0 1600 L2400 1600 L2400 0 L0 0  Z" fill="#ffffff" fill-rule="evenodd" fill-opacity="1"/>
<defs>
  <clipPath id="clip581">
    <rect x="480" y="0" width="1681" height="1600"/>
  </clipPath>
</defs>
<path clip-path="url(#clip580)" d="M249.542 1423.18 L2352.76 1423.18 L2352.76 123.472 L249.542 123.472  Z" fill="#ffffff" fill-rule="evenodd" fill-opacity="1"/>
<defs>
  <clipPath id="clip582">
    <rect x="249" y="123" width="2104" height="1301"/>
  </clipPath>
</defs>
<polyline clip-path="url(#clip582)" style="stroke:#000000; stroke-linecap:round; stroke-linejoin:round; stroke-width:2; stroke-opacity:0.1; fill:none" points="592.519,1423.18 592.519,123.472 "/>
<polyline clip-path="url(#clip582)" style="stroke:#000000; stroke-linecap:round; stroke-linejoin:round; stroke-width:2; stroke-opacity:0.1; fill:none" points="1159.42,1423.18 1159.42,123.472 "/>
<polyline clip-path="url(#clip582)" style="stroke:#000000; stroke-linecap:round; stroke-linejoin:round; stroke-width:2; stroke-opacity:0.1; fill:none" points="1726.33,1423.18 1726.33,123.472 "/>
<polyline clip-path="url(#clip582)" style="stroke:#000000; stroke-linecap:round; stroke-linejoin:round; stroke-width:2; stroke-opacity:0.1; fill:none" points="2293.23,1423.18 2293.23,123.472 "/>
<polyline clip-path="url(#clip580)" style="stroke:#000000; stroke-linecap:round; stroke-linejoin:round; stroke-width:4; stroke-opacity:1; fill:none" points="249.542,1423.18 2352.76,1423.18 "/>
<polyline clip-path="url(#clip580)" style="stroke:#000000; stroke-linecap:round; stroke-linejoin:round; stroke-width:4; stroke-opacity:1; fill:none" points="592.519,1423.18 592.519,1404.28 "/>
<polyline clip-path="url(#clip580)" style="stroke:#000000; stroke-linecap:round; stroke-linejoin:round; stroke-width:4; stroke-opacity:1; fill:none" points="1159.42,1423.18 1159.42,1404.28 "/>
<polyline clip-path="url(#clip580)" style="stroke:#000000; stroke-linecap:round; stroke-linejoin:round; stroke-width:4; stroke-opacity:1; fill:none" points="1726.33,1423.18 1726.33,1404.28 "/>
<polyline clip-path="url(#clip580)" style="stroke:#000000; stroke-linecap:round; stroke-linejoin:round; stroke-width:4; stroke-opacity:1; fill:none" points="2293.23,1423.18 2293.23,1404.28 "/>
<path clip-path="url(#clip580)" d="M567.218 1451.02 L585.575 1451.02 L585.575 1454.96 L571.501 1454.96 L571.501 1463.43 Q572.519 1463.08 573.538 1462.92 Q574.556 1462.73 575.575 1462.73 Q581.362 1462.73 584.741 1465.9 Q588.121 1469.08 588.121 1474.49 Q588.121 1480.07 584.649 1483.17 Q581.176 1486.25 574.857 1486.25 Q572.681 1486.25 570.413 1485.88 Q568.167 1485.51 565.76 1484.77 L565.76 1480.07 Q567.843 1481.2 570.065 1481.76 Q572.288 1482.32 574.764 1482.32 Q578.769 1482.32 581.107 1480.21 Q583.445 1478.1 583.445 1474.49 Q583.445 1470.88 581.107 1468.77 Q578.769 1466.67 574.764 1466.67 Q572.889 1466.67 571.014 1467.08 Q569.163 1467.5 567.218 1468.38 L567.218 1451.02 Z" fill="#000000" fill-rule="nonzero" fill-opacity="1" /><path clip-path="url(#clip580)" d="M607.334 1454.1 Q603.723 1454.1 601.894 1457.66 Q600.088 1461.2 600.088 1468.33 Q600.088 1475.44 601.894 1479.01 Q603.723 1482.55 607.334 1482.55 Q610.968 1482.55 612.773 1479.01 Q614.602 1475.44 614.602 1468.33 Q614.602 1461.2 612.773 1457.66 Q610.968 1454.1 607.334 1454.1 M607.334 1450.39 Q613.144 1450.39 616.199 1455 Q619.278 1459.58 619.278 1468.33 Q619.278 1477.06 616.199 1481.67 Q613.144 1486.25 607.334 1486.25 Q601.524 1486.25 598.445 1481.67 Q595.389 1477.06 595.389 1468.33 Q595.389 1459.58 598.445 1455 Q601.524 1450.39 607.334 1450.39 Z" fill="#000000" fill-rule="nonzero" fill-opacity="1" /><path clip-path="url(#clip580)" d="M1119.03 1481.64 L1126.67 1481.64 L1126.67 1455.28 L1118.36 1456.95 L1118.36 1452.69 L1126.62 1451.02 L1131.3 1451.02 L1131.3 1481.64 L1138.94 1481.64 L1138.94 1485.58 L1119.03 1485.58 L1119.03 1481.64 Z" fill="#000000" fill-rule="nonzero" fill-opacity="1" /><path clip-path="url(#clip580)" d="M1158.38 1454.1 Q1154.77 1454.1 1152.94 1457.66 Q1151.14 1461.2 1151.14 1468.33 Q1151.14 1475.44 1152.94 1479.01 Q1154.77 1482.55 1158.38 1482.55 Q1162.02 1482.55 1163.82 1479.01 Q1165.65 1475.44 1165.65 1468.33 Q1165.65 1461.2 1163.82 1457.66 Q1162.02 1454.1 1158.38 1454.1 M1158.38 1450.39 Q1164.19 1450.39 1167.25 1455 Q1170.33 1459.58 1170.33 1468.33 Q1170.33 1477.06 1167.25 1481.67 Q1164.19 1486.25 1158.38 1486.25 Q1152.57 1486.25 1149.49 1481.67 Q1146.44 1477.06 1146.44 1468.33 Q1146.44 1459.58 1149.49 1455 Q1152.57 1450.39 1158.38 1450.39 Z" fill="#000000" fill-rule="nonzero" fill-opacity="1" /><path clip-path="url(#clip580)" d="M1188.54 1454.1 Q1184.93 1454.1 1183.1 1457.66 Q1181.3 1461.2 1181.3 1468.33 Q1181.3 1475.44 1183.1 1479.01 Q1184.93 1482.55 1188.54 1482.55 Q1192.18 1482.55 1193.98 1479.01 Q1195.81 1475.44 1195.81 1468.33 Q1195.81 1461.2 1193.98 1457.66 Q1192.18 1454.1 1188.54 1454.1 M1188.54 1450.39 Q1194.35 1450.39 1197.41 1455 Q1200.49 1459.58 1200.49 1468.33 Q1200.49 1477.06 1197.41 1481.67 Q1194.35 1486.25 1188.54 1486.25 Q1182.73 1486.25 1179.65 1481.67 Q1176.6 1477.06 1176.6 1468.33 Q1176.6 1459.58 1179.65 1455 Q1182.73 1450.39 1188.54 1450.39 Z" fill="#000000" fill-rule="nonzero" fill-opacity="1" /><path clip-path="url(#clip580)" d="M1685.93 1481.64 L1693.57 1481.64 L1693.57 1455.28 L1685.26 1456.95 L1685.26 1452.69 L1693.53 1451.02 L1698.2 1451.02 L1698.2 1481.64 L1705.84 1481.64 L1705.84 1485.58 L1685.93 1485.58 L1685.93 1481.64 Z" fill="#000000" fill-rule="nonzero" fill-opacity="1" /><path clip-path="url(#clip580)" d="M1715.33 1451.02 L1733.69 1451.02 L1733.69 1454.96 L1719.61 1454.96 L1719.61 1463.43 Q1720.63 1463.08 1721.65 1462.92 Q1722.67 1462.73 1723.69 1462.73 Q1729.48 1462.73 1732.85 1465.9 Q1736.23 1469.08 1736.23 1474.49 Q1736.23 1480.07 1732.76 1483.17 Q1729.29 1486.25 1722.97 1486.25 Q1720.79 1486.25 1718.53 1485.88 Q1716.28 1485.51 1713.87 1484.77 L1713.87 1480.07 Q1715.96 1481.2 1718.18 1481.76 Q1720.4 1482.32 1722.88 1482.32 Q1726.88 1482.32 1729.22 1480.21 Q1731.56 1478.1 1731.56 1474.49 Q1731.56 1470.88 1729.22 1468.77 Q1726.88 1466.67 1722.88 1466.67 Q1721 1466.67 1719.13 1467.08 Q1717.28 1467.5 1715.33 1468.38 L1715.33 1451.02 Z" fill="#000000" fill-rule="nonzero" fill-opacity="1" /><path clip-path="url(#clip580)" d="M1755.45 1454.1 Q1751.84 1454.1 1750.01 1457.66 Q1748.2 1461.2 1748.2 1468.33 Q1748.2 1475.44 1750.01 1479.01 Q1751.84 1482.55 1755.45 1482.55 Q1759.08 1482.55 1760.89 1479.01 Q1762.72 1475.44 1762.72 1468.33 Q1762.72 1461.2 1760.89 1457.66 Q1759.08 1454.1 1755.45 1454.1 M1755.45 1450.39 Q1761.26 1450.39 1764.31 1455 Q1767.39 1459.58 1767.39 1468.33 Q1767.39 1477.06 1764.31 1481.67 Q1761.26 1486.25 1755.45 1486.25 Q1749.64 1486.25 1746.56 1481.67 Q1743.5 1477.06 1743.5 1468.33 Q1743.5 1459.58 1746.56 1455 Q1749.64 1450.39 1755.45 1450.39 Z" fill="#000000" fill-rule="nonzero" fill-opacity="1" /><path clip-path="url(#clip580)" d="M2256.92 1481.64 L2273.24 1481.64 L2273.24 1485.58 L2251.3 1485.58 L2251.3 1481.64 Q2253.96 1478.89 2258.54 1474.26 Q2263.15 1469.61 2264.33 1468.27 Q2266.58 1465.74 2267.46 1464.01 Q2268.36 1462.25 2268.36 1460.56 Q2268.36 1457.8 2266.41 1456.07 Q2264.49 1454.33 2261.39 1454.33 Q2259.19 1454.33 2256.74 1455.09 Q2254.31 1455.86 2251.53 1457.41 L2251.53 1452.69 Q2254.35 1451.55 2256.81 1450.97 Q2259.26 1450.39 2261.3 1450.39 Q2266.67 1450.39 2269.86 1453.08 Q2273.06 1455.77 2273.06 1460.26 Q2273.06 1462.39 2272.25 1464.31 Q2271.46 1466.2 2269.35 1468.8 Q2268.78 1469.47 2265.67 1472.69 Q2262.57 1475.88 2256.92 1481.64 Z" fill="#000000" fill-rule="nonzero" fill-opacity="1" /><path clip-path="url(#clip580)" d="M2293.06 1454.1 Q2289.45 1454.1 2287.62 1457.66 Q2285.81 1461.2 2285.81 1468.33 Q2285.81 1475.44 2287.62 1479.01 Q2289.45 1482.55 2293.06 1482.55 Q2296.69 1482.55 2298.5 1479.01 Q2300.33 1475.44 2300.33 1468.33 Q2300.33 1461.2 2298.5 1457.66 Q2296.69 1454.1 2293.06 1454.1 M2293.06 1450.39 Q2298.87 1450.39 2301.92 1455 Q2305 1459.58 2305 1468.33 Q2305 1477.06 2301.92 1481.67 Q2298.87 1486.25 2293.06 1486.25 Q2287.25 1486.25 2284.17 1481.67 Q2281.11 1477.06 2281.11 1468.33 Q2281.11 1459.58 2284.17 1455 Q2287.25 1450.39 2293.06 1450.39 Z" fill="#000000" fill-rule="nonzero" fill-opacity="1" /><path clip-path="url(#clip580)" d="M2323.22 1454.1 Q2319.61 1454.1 2317.78 1457.66 Q2315.97 1461.2 2315.97 1468.33 Q2315.97 1475.44 2317.78 1479.01 Q2319.61 1482.55 2323.22 1482.55 Q2326.85 1482.55 2328.66 1479.01 Q2330.49 1475.44 2330.49 1468.33 Q2330.49 1461.2 2328.66 1457.66 Q2326.85 1454.1 2323.22 1454.1 M2323.22 1450.39 Q2329.03 1450.39 2332.08 1455 Q2335.16 1459.58 2335.16 1468.33 Q2335.16 1477.06 2332.08 1481.67 Q2329.03 1486.25 2323.22 1486.25 Q2317.41 1486.25 2314.33 1481.67 Q2311.27 1477.06 2311.27 1468.33 Q2311.27 1459.58 2314.33 1455 Q2317.41 1450.39 2323.22 1450.39 Z" fill="#000000" fill-rule="nonzero" fill-opacity="1" /><path clip-path="url(#clip580)" d="M1243.17 1525.81 L1243.17 1562.76 L1250.94 1562.76 Q1260.77 1562.76 1265.33 1558.3 Q1269.91 1553.85 1269.91 1544.24 Q1269.91 1534.69 1265.33 1530.26 Q1260.77 1525.81 1250.94 1525.81 L1243.17 1525.81 M1236.74 1520.52 L1249.95 1520.52 Q1263.77 1520.52 1270.23 1526.28 Q1276.69 1532.01 1276.69 1544.24 Q1276.69 1556.52 1270.2 1562.28 Q1263.7 1568.04 1249.95 1568.04 L1236.74 1568.04 L1236.74 1520.52 Z" fill="#000000" fill-rule="nonzero" fill-opacity="1" /><path clip-path="url(#clip580)" d="M1306.23 1524.88 Q1299.22 1524.88 1295.09 1530.1 Q1290.98 1535.32 1290.98 1544.33 Q1290.98 1553.31 1295.09 1558.53 Q1299.22 1563.75 1306.23 1563.75 Q1313.23 1563.75 1317.3 1558.53 Q1321.41 1553.31 1321.41 1544.33 Q1321.41 1535.32 1317.3 1530.1 Q1313.23 1524.88 1306.23 1524.88 M1306.23 1519.66 Q1316.22 1519.66 1322.2 1526.38 Q1328.19 1533.06 1328.19 1544.33 Q1328.19 1555.57 1322.2 1562.28 Q1316.22 1568.97 1306.23 1568.97 Q1296.2 1568.97 1290.18 1562.28 Q1284.2 1555.6 1284.2 1544.33 Q1284.2 1533.06 1290.18 1526.38 Q1296.2 1519.66 1306.23 1519.66 Z" fill="#000000" fill-rule="nonzero" fill-opacity="1" /><path clip-path="url(#clip580)" d="M1338.25 1520.52 L1365.55 1520.52 L1365.55 1525.93 L1344.67 1525.93 L1344.67 1539.94 L1363.52 1539.94 L1363.52 1545.35 L1344.67 1545.35 L1344.67 1568.04 L1338.25 1568.04 L1338.25 1520.52 Z" fill="#000000" fill-rule="nonzero" fill-opacity="1" /><polyline clip-path="url(#clip582)" style="stroke:#000000; stroke-linecap:round; stroke-linejoin:round; stroke-width:2; stroke-opacity:0.1; fill:none" points="249.542,1177.19 2352.76,1177.19 "/>
<polyline clip-path="url(#clip582)" style="stroke:#000000; stroke-linecap:round; stroke-linejoin:round; stroke-width:2; stroke-opacity:0.1; fill:none" points="249.542,903.075 2352.76,903.075 "/>
<polyline clip-path="url(#clip582)" style="stroke:#000000; stroke-linecap:round; stroke-linejoin:round; stroke-width:2; stroke-opacity:0.1; fill:none" points="249.542,628.962 2352.76,628.962 "/>
<polyline clip-path="url(#clip582)" style="stroke:#000000; stroke-linecap:round; stroke-linejoin:round; stroke-width:2; stroke-opacity:0.1; fill:none" points="249.542,354.849 2352.76,354.849 "/>
<polyline clip-path="url(#clip580)" style="stroke:#000000; stroke-linecap:round; stroke-linejoin:round; stroke-width:4; stroke-opacity:1; fill:none" points="249.542,1423.18 249.542,123.472 "/>
<polyline clip-path="url(#clip580)" style="stroke:#000000; stroke-linecap:round; stroke-linejoin:round; stroke-width:4; stroke-opacity:1; fill:none" points="249.542,1177.19 268.44,1177.19 "/>
<polyline clip-path="url(#clip580)" style="stroke:#000000; stroke-linecap:round; stroke-linejoin:round; stroke-width:4; stroke-opacity:1; fill:none" points="249.542,903.075 268.44,903.075 "/>
<polyline clip-path="url(#clip580)" style="stroke:#000000; stroke-linecap:round; stroke-linejoin:round; stroke-width:4; stroke-opacity:1; fill:none" points="249.542,628.962 268.44,628.962 "/>
<polyline clip-path="url(#clip580)" style="stroke:#000000; stroke-linecap:round; stroke-linejoin:round; stroke-width:4; stroke-opacity:1; fill:none" points="249.542,354.849 268.44,354.849 "/>
<path clip-path="url(#clip580)" d="M127.2 1162.99 Q123.589 1162.99 121.76 1166.55 Q119.955 1170.09 119.955 1177.22 Q119.955 1184.33 121.76 1187.89 Q123.589 1191.44 127.2 1191.44 Q130.834 1191.44 132.64 1187.89 Q134.468 1184.33 134.468 1177.22 Q134.468 1170.09 132.64 1166.55 Q130.834 1162.99 127.2 1162.99 M127.2 1159.28 Q133.01 1159.28 136.066 1163.89 Q139.144 1168.47 139.144 1177.22 Q139.144 1185.95 136.066 1190.56 Q133.01 1195.14 127.2 1195.14 Q121.39 1195.14 118.311 1190.56 Q115.256 1185.95 115.256 1177.22 Q115.256 1168.47 118.311 1163.89 Q121.39 1159.28 127.2 1159.28 Z" fill="#000000" fill-rule="nonzero" fill-opacity="1" /><path clip-path="url(#clip580)" d="M147.362 1188.59 L152.246 1188.59 L152.246 1194.47 L147.362 1194.47 L147.362 1188.59 Z" fill="#000000" fill-rule="nonzero" fill-opacity="1" /><path clip-path="url(#clip580)" d="M172.431 1162.99 Q168.82 1162.99 166.991 1166.55 Q165.186 1170.09 165.186 1177.22 Q165.186 1184.33 166.991 1187.89 Q168.82 1191.44 172.431 1191.44 Q176.065 1191.44 177.871 1187.89 Q179.7 1184.33 179.7 1177.22 Q179.7 1170.09 177.871 1166.55 Q176.065 1162.99 172.431 1162.99 M172.431 1159.28 Q178.241 1159.28 181.297 1163.89 Q184.376 1168.47 184.376 1177.22 Q184.376 1185.95 181.297 1190.56 Q178.241 1195.14 172.431 1195.14 Q166.621 1195.14 163.542 1190.56 Q160.487 1185.95 160.487 1177.22 Q160.487 1168.47 163.542 1163.89 Q166.621 1159.28 172.431 1159.28 Z" fill="#000000" fill-rule="nonzero" fill-opacity="1" /><path clip-path="url(#clip580)" d="M192.639 1159.91 L210.996 1159.91 L210.996 1163.84 L196.922 1163.84 L196.922 1172.32 Q197.94 1171.97 198.959 1171.81 Q199.977 1171.62 200.996 1171.62 Q206.783 1171.62 210.162 1174.79 Q213.542 1177.96 213.542 1183.38 Q213.542 1188.96 210.07 1192.06 Q206.598 1195.14 200.278 1195.14 Q198.102 1195.14 195.834 1194.77 Q193.588 1194.4 191.181 1193.66 L191.181 1188.96 Q193.264 1190.09 195.487 1190.65 Q197.709 1191.2 200.186 1191.2 Q204.19 1191.2 206.528 1189.1 Q208.866 1186.99 208.866 1183.38 Q208.866 1179.77 206.528 1177.66 Q204.19 1175.56 200.186 1175.56 Q198.311 1175.56 196.436 1175.97 Q194.584 1176.39 192.639 1177.27 L192.639 1159.91 Z" fill="#000000" fill-rule="nonzero" fill-opacity="1" /><path clip-path="url(#clip580)" d="M126.205 888.874 Q122.593 888.874 120.765 892.439 Q118.959 895.98 118.959 903.11 Q118.959 910.216 120.765 913.781 Q122.593 917.323 126.205 917.323 Q129.839 917.323 131.644 913.781 Q133.473 910.216 133.473 903.11 Q133.473 895.98 131.644 892.439 Q129.839 888.874 126.205 888.874 M126.205 885.17 Q132.015 885.17 135.07 889.777 Q138.149 894.36 138.149 903.11 Q138.149 911.837 135.07 916.443 Q132.015 921.027 126.205 921.027 Q120.394 921.027 117.316 916.443 Q114.26 911.837 114.26 903.11 Q114.26 894.36 117.316 889.777 Q120.394 885.17 126.205 885.17 Z" fill="#000000" fill-rule="nonzero" fill-opacity="1" /><path clip-path="url(#clip580)" d="M146.366 914.476 L151.251 914.476 L151.251 920.355 L146.366 920.355 L146.366 914.476 Z" fill="#000000" fill-rule="nonzero" fill-opacity="1" /><path clip-path="url(#clip580)" d="M162.246 916.42 L169.885 916.42 L169.885 890.055 L161.575 891.721 L161.575 887.462 L169.839 885.795 L174.514 885.795 L174.514 916.42 L182.153 916.42 L182.153 920.355 L162.246 920.355 L162.246 916.42 Z" fill="#000000" fill-rule="nonzero" fill-opacity="1" /><path clip-path="url(#clip580)" d="M201.598 888.874 Q197.987 888.874 196.158 892.439 Q194.352 895.98 194.352 903.11 Q194.352 910.216 196.158 913.781 Q197.987 917.323 201.598 917.323 Q205.232 917.323 207.037 913.781 Q208.866 910.216 208.866 903.11 Q208.866 895.98 207.037 892.439 Q205.232 888.874 201.598 888.874 M201.598 885.17 Q207.408 885.17 210.463 889.777 Q213.542 894.36 213.542 903.11 Q213.542 911.837 210.463 916.443 Q207.408 921.027 201.598 921.027 Q195.787 921.027 192.709 916.443 Q189.653 911.837 189.653 903.11 Q189.653 894.36 192.709 889.777 Q195.787 885.17 201.598 885.17 Z" fill="#000000" fill-rule="nonzero" fill-opacity="1" /><path clip-path="url(#clip580)" d="M127.2 614.761 Q123.589 614.761 121.76 618.326 Q119.955 621.867 119.955 628.997 Q119.955 636.103 121.76 639.668 Q123.589 643.21 127.2 643.21 Q130.834 643.21 132.64 639.668 Q134.468 636.103 134.468 628.997 Q134.468 621.867 132.64 618.326 Q130.834 614.761 127.2 614.761 M127.2 611.057 Q133.01 611.057 136.066 615.663 Q139.144 620.247 139.144 628.997 Q139.144 637.724 136.066 642.33 Q133.01 646.913 127.2 646.913 Q121.39 646.913 118.311 642.33 Q115.256 637.724 115.256 628.997 Q115.256 620.247 118.311 615.663 Q121.39 611.057 127.2 611.057 Z" fill="#000000" fill-rule="nonzero" fill-opacity="1" /><path clip-path="url(#clip580)" d="M147.362 640.362 L152.246 640.362 L152.246 646.242 L147.362 646.242 L147.362 640.362 Z" fill="#000000" fill-rule="nonzero" fill-opacity="1" /><path clip-path="url(#clip580)" d="M163.241 642.307 L170.88 642.307 L170.88 615.941 L162.57 617.608 L162.57 613.349 L170.834 611.682 L175.51 611.682 L175.51 642.307 L183.149 642.307 L183.149 646.242 L163.241 646.242 L163.241 642.307 Z" fill="#000000" fill-rule="nonzero" fill-opacity="1" /><path clip-path="url(#clip580)" d="M192.639 611.682 L210.996 611.682 L210.996 615.617 L196.922 615.617 L196.922 624.089 Q197.94 623.742 198.959 623.58 Q199.977 623.395 200.996 623.395 Q206.783 623.395 210.162 626.566 Q213.542 629.737 213.542 635.154 Q213.542 640.733 210.07 643.835 Q206.598 646.913 200.278 646.913 Q198.102 646.913 195.834 646.543 Q193.588 646.173 191.181 645.432 L191.181 640.733 Q193.264 641.867 195.487 642.423 Q197.709 642.978 200.186 642.978 Q204.19 642.978 206.528 640.872 Q208.866 638.765 208.866 635.154 Q208.866 631.543 206.528 629.437 Q204.19 627.33 200.186 627.33 Q198.311 627.33 196.436 627.747 Q194.584 628.163 192.639 629.043 L192.639 611.682 Z" fill="#000000" fill-rule="nonzero" fill-opacity="1" /><path clip-path="url(#clip580)" d="M126.205 340.647 Q122.593 340.647 120.765 344.212 Q118.959 347.754 118.959 354.883 Q118.959 361.99 120.765 365.555 Q122.593 369.096 126.205 369.096 Q129.839 369.096 131.644 365.555 Q133.473 361.99 133.473 354.883 Q133.473 347.754 131.644 344.212 Q129.839 340.647 126.205 340.647 M126.205 336.944 Q132.015 336.944 135.07 341.55 Q138.149 346.134 138.149 354.883 Q138.149 363.61 135.07 368.217 Q132.015 372.8 126.205 372.8 Q120.394 372.8 117.316 368.217 Q114.26 363.61 114.26 354.883 Q114.26 346.134 117.316 341.55 Q120.394 336.944 126.205 336.944 Z" fill="#000000" fill-rule="nonzero" fill-opacity="1" /><path clip-path="url(#clip580)" d="M146.366 366.249 L151.251 366.249 L151.251 372.129 L146.366 372.129 L146.366 366.249 Z" fill="#000000" fill-rule="nonzero" fill-opacity="1" /><path clip-path="url(#clip580)" d="M165.464 368.194 L181.783 368.194 L181.783 372.129 L159.839 372.129 L159.839 368.194 Q162.501 365.439 167.084 360.809 Q171.69 356.157 172.871 354.814 Q175.116 352.291 175.996 350.555 Q176.899 348.796 176.899 347.106 Q176.899 344.351 174.954 342.615 Q173.033 340.879 169.931 340.879 Q167.732 340.879 165.278 341.643 Q162.848 342.407 160.07 343.958 L160.07 339.235 Q162.894 338.101 165.348 337.522 Q167.802 336.944 169.839 336.944 Q175.209 336.944 178.403 339.629 Q181.598 342.314 181.598 346.805 Q181.598 348.934 180.788 350.856 Q180.001 352.754 177.894 355.346 Q177.315 356.018 174.214 359.235 Q171.112 362.43 165.464 368.194 Z" fill="#000000" fill-rule="nonzero" fill-opacity="1" /><path clip-path="url(#clip580)" d="M201.598 340.647 Q197.987 340.647 196.158 344.212 Q194.352 347.754 194.352 354.883 Q194.352 361.99 196.158 365.555 Q197.987 369.096 201.598 369.096 Q205.232 369.096 207.037 365.555 Q208.866 361.99 208.866 354.883 Q208.866 347.754 207.037 344.212 Q205.232 340.647 201.598 340.647 M201.598 336.944 Q207.408 336.944 210.463 341.55 Q213.542 346.134 213.542 354.883 Q213.542 363.61 210.463 368.217 Q207.408 372.8 201.598 372.8 Q195.787 372.8 192.709 368.217 Q189.653 363.61 189.653 354.883 Q189.653 346.134 192.709 341.55 Q195.787 336.944 201.598 336.944 Z" fill="#000000" fill-rule="nonzero" fill-opacity="1" /><path clip-path="url(#clip580)" d="M41.7242 933.694 Q42.4244 931.625 44.7161 929.684 Q47.0077 927.71 51.0181 925.737 L64.0042 919.212 L64.0042 926.119 L51.8138 932.198 Q47.0395 934.553 45.48 936.781 Q43.9204 938.978 43.9204 942.797 L43.9204 949.799 L64.0042 949.799 L64.0042 956.229 L16.4842 956.229 L16.4842 941.715 Q16.4842 933.567 19.8898 929.556 Q23.2955 925.546 30.1704 925.546 Q34.6582 925.546 37.6183 927.647 Q40.5784 929.715 41.7242 933.694 M21.7677 949.799 L38.6368 949.799 L38.6368 941.715 Q38.6368 937.068 36.5043 934.713 Q34.34 932.325 30.1704 932.325 Q26.0009 932.325 23.9002 934.713 Q21.7677 937.068 21.7677 941.715 L21.7677 949.799 Z" fill="#000000" fill-rule="nonzero" fill-opacity="1" /><path clip-path="url(#clip580)" d="M49.9359 914.724 L28.3562 914.724 L28.3562 908.868 L49.7131 908.868 Q54.7739 908.868 57.3202 906.894 Q59.8346 904.921 59.8346 900.974 Q59.8346 896.232 56.8109 893.495 Q53.7872 890.726 48.5673 890.726 L28.3562 890.726 L28.3562 884.869 L64.0042 884.869 L64.0042 890.726 L58.5296 890.726 Q61.7762 892.858 63.3676 895.691 Q64.9272 898.492 64.9272 902.216 Q64.9272 908.359 61.1078 911.541 Q57.2883 914.724 49.9359 914.724 M27.4968 899.988 L27.4968 899.988 Z" fill="#000000" fill-rule="nonzero" fill-opacity="1" /><path clip-path="url(#clip580)" d="M42.4881 843.174 L64.0042 843.174 L64.0042 849.03 L42.679 849.03 Q37.6183 849.03 35.1038 851.004 Q32.5894 852.977 32.5894 856.924 Q32.5894 861.666 35.6131 864.403 Q38.6368 867.141 43.8567 867.141 L64.0042 867.141 L64.0042 873.029 L28.3562 873.029 L28.3562 867.141 L33.8944 867.141 Q30.6797 865.04 29.0883 862.207 Q27.4968 859.343 27.4968 855.619 Q27.4968 849.476 31.3163 846.325 Q35.1038 843.174 42.4881 843.174 Z" fill="#000000" fill-rule="nonzero" fill-opacity="1" /><path clip-path="url(#clip580)" d="M18.2347 825.7 L28.3562 825.7 L28.3562 813.637 L32.9077 813.637 L32.9077 825.7 L52.2594 825.7 Q56.6199 825.7 57.8613 824.522 Q59.1026 823.313 59.1026 819.652 L59.1026 813.637 L64.0042 813.637 L64.0042 819.652 Q64.0042 826.432 61.4897 829.01 Q58.9434 831.588 52.2594 831.588 L32.9077 831.588 L32.9077 835.885 L28.3562 835.885 L28.3562 831.588 L18.2347 831.588 L18.2347 825.7 Z" fill="#000000" fill-rule="nonzero" fill-opacity="1" /><path clip-path="url(#clip580)" d="M28.3562 805.934 L28.3562 800.078 L64.0042 800.078 L64.0042 805.934 L28.3562 805.934 M14.479 805.934 L14.479 800.078 L21.895 800.078 L21.895 805.934 L14.479 805.934 Z" fill="#000000" fill-rule="nonzero" fill-opacity="1" /><path clip-path="url(#clip580)" d="M35.1993 760.069 Q31.2526 757.873 29.3747 754.818 Q27.4968 751.762 27.4968 747.624 Q27.4968 742.054 31.4117 739.031 Q35.2948 736.007 42.4881 736.007 L64.0042 736.007 L64.0042 741.895 L42.679 741.895 Q37.5546 741.895 35.072 743.71 Q32.5894 745.524 32.5894 749.248 Q32.5894 753.799 35.6131 756.441 Q38.6368 759.083 43.8567 759.083 L64.0042 759.083 L64.0042 764.971 L42.679 764.971 Q37.5228 764.971 35.072 766.785 Q32.5894 768.599 32.5894 772.387 Q32.5894 776.875 35.6449 779.517 Q38.6686 782.158 43.8567 782.158 L64.0042 782.158 L64.0042 788.047 L28.3562 788.047 L28.3562 782.158 L33.8944 782.158 Q30.616 780.153 29.0564 777.352 Q27.4968 774.551 27.4968 770.7 Q27.4968 766.817 29.4702 764.112 Q31.4436 761.374 35.1993 760.069 Z" fill="#000000" fill-rule="nonzero" fill-opacity="1" /><path clip-path="url(#clip580)" d="M44.7161 693.834 L47.5806 693.834 L47.5806 720.761 Q53.6281 720.379 56.8109 717.133 Q59.9619 713.854 59.9619 708.03 Q59.9619 704.656 59.1344 701.505 Q58.3069 698.322 56.6518 695.203 L62.1899 695.203 Q63.5267 698.354 64.227 701.664 Q64.9272 704.974 64.9272 708.38 Q64.9272 716.91 59.9619 721.907 Q54.9967 726.872 46.5303 726.872 Q37.7774 726.872 32.6531 722.162 Q27.4968 717.419 27.4968 709.398 Q27.4968 702.205 32.1438 698.036 Q36.7589 693.834 44.7161 693.834 M42.9973 699.691 Q38.1912 699.754 35.3266 702.396 Q32.4621 705.006 32.4621 709.335 Q32.4621 714.236 35.2312 717.196 Q38.0002 720.125 43.0292 720.57 L42.9973 699.691 Z" fill="#000000" fill-rule="nonzero" fill-opacity="1" /><path clip-path="url(#clip580)" d="M14.5426 649.433 Q21.8632 653.698 29.0246 655.767 Q36.186 657.836 43.5384 657.836 Q50.8908 657.836 58.1159 655.767 Q65.3091 653.667 72.5979 649.433 L72.5979 654.526 Q65.1182 659.3 57.8931 661.687 Q50.668 664.043 43.5384 664.043 Q36.4406 664.043 29.2474 661.687 Q22.0542 659.332 14.5426 654.526 L14.5426 649.433 Z" fill="#000000" fill-rule="nonzero" fill-opacity="1" /><path clip-path="url(#clip580)" d="M29.4065 615.345 L34.9447 615.345 Q33.6716 617.828 33.035 620.501 Q32.3984 623.175 32.3984 626.039 Q32.3984 630.4 33.7352 632.596 Q35.072 634.76 37.7456 634.76 Q39.7826 634.76 40.9603 633.201 Q42.1061 631.641 43.1565 626.931 L43.6021 624.925 Q44.9389 618.687 47.3897 616.077 Q49.8086 613.435 54.1691 613.435 Q59.1344 613.435 62.0308 617.382 Q64.9272 621.297 64.9272 628.172 Q64.9272 631.037 64.3543 634.156 Q63.8132 637.243 62.6992 640.681 L56.6518 640.681 Q58.3387 637.434 59.198 634.283 Q60.0256 631.132 60.0256 628.045 Q60.0256 623.907 58.6251 621.679 Q57.1929 619.451 54.6147 619.451 Q52.2276 619.451 50.9545 621.074 Q49.6813 622.666 48.5037 628.108 L48.0262 630.145 Q46.8804 635.588 44.5251 638.007 Q42.138 640.426 38.0002 640.426 Q32.9713 640.426 30.2341 636.861 Q27.4968 633.296 27.4968 626.74 Q27.4968 623.493 27.9743 620.629 Q28.4517 617.764 29.4065 615.345 Z" fill="#000000" fill-rule="nonzero" fill-opacity="1" /><path clip-path="url(#clip580)" d="M14.5426 605.033 L14.5426 599.94 Q22.0542 595.166 29.2474 592.81 Q36.4406 590.423 43.5384 590.423 Q50.668 590.423 57.8931 592.81 Q65.1182 595.166 72.5979 599.94 L72.5979 605.033 Q65.3091 600.799 58.1159 598.731 Q50.8908 596.63 43.5384 596.63 Q36.186 596.63 29.0246 598.731 Q21.8632 600.799 14.5426 605.033 Z" fill="#000000" fill-rule="nonzero" fill-opacity="1" /><path clip-path="url(#clip580)" d="M1162.85 44.2197 Q1165.48 45.1109 1167.96 48.0275 Q1170.47 50.9442 1172.98 56.0483 L1181.28 72.576 L1172.49 72.576 L1164.76 57.061 Q1161.76 50.9847 1158.92 48.9997 Q1156.13 47.0148 1151.27 47.0148 L1142.35 47.0148 L1142.35 72.576 L1134.17 72.576 L1134.17 12.096 L1152.64 12.096 Q1163.01 12.096 1168.12 16.4305 Q1173.22 20.7649 1173.22 29.5149 Q1173.22 35.2267 1170.55 38.994 Q1167.91 42.7613 1162.85 44.2197 M1142.35 18.8205 L1142.35 40.2903 L1152.64 40.2903 Q1158.56 40.2903 1161.55 37.5762 Q1164.59 34.8216 1164.59 29.5149 Q1164.59 24.2082 1161.55 21.5346 Q1158.56 18.8205 1152.64 18.8205 L1142.35 18.8205 Z" fill="#000000" fill-rule="nonzero" fill-opacity="1" /><path clip-path="url(#clip580)" d="M1186.99 54.671 L1186.99 27.2059 L1194.45 27.2059 L1194.45 54.3874 Q1194.45 60.8284 1196.96 64.0691 Q1199.47 67.2693 1204.49 67.2693 Q1210.53 67.2693 1214.01 63.421 Q1217.54 59.5726 1217.54 52.9291 L1217.54 27.2059 L1224.99 27.2059 L1224.99 72.576 L1217.54 72.576 L1217.54 65.6084 Q1214.82 69.7404 1211.22 71.7658 Q1207.65 73.7508 1202.91 73.7508 Q1195.1 73.7508 1191.05 68.8897 Q1186.99 64.0286 1186.99 54.671 M1205.75 26.1121 L1205.75 26.1121 Z" fill="#000000" fill-rule="nonzero" fill-opacity="1" /><path clip-path="url(#clip580)" d="M1278.06 45.1919 L1278.06 72.576 L1270.61 72.576 L1270.61 45.4349 Q1270.61 38.994 1268.09 35.7938 Q1265.58 32.5936 1260.56 32.5936 Q1254.52 32.5936 1251.04 36.4419 Q1247.56 40.2903 1247.56 46.9338 L1247.56 72.576 L1240.06 72.576 L1240.06 27.2059 L1247.56 27.2059 L1247.56 34.2544 Q1250.23 30.163 1253.83 28.1376 Q1257.48 26.1121 1262.22 26.1121 Q1270.04 26.1121 1274.05 30.9732 Q1278.06 35.7938 1278.06 45.1919 Z" fill="#000000" fill-rule="nonzero" fill-opacity="1" /><path clip-path="url(#clip580)" d="M1300.3 14.324 L1300.3 27.2059 L1315.65 27.2059 L1315.65 32.9987 L1300.3 32.9987 L1300.3 57.6282 Q1300.3 63.1779 1301.8 64.7578 Q1303.34 66.3376 1307.99 66.3376 L1315.65 66.3376 L1315.65 72.576 L1307.99 72.576 Q1299.37 72.576 1296.09 69.3758 Q1292.8 66.1351 1292.8 57.6282 L1292.8 32.9987 L1287.34 32.9987 L1287.34 27.2059 L1292.8 27.2059 L1292.8 14.324 L1300.3 14.324 Z" fill="#000000" fill-rule="nonzero" fill-opacity="1" /><path clip-path="url(#clip580)" d="M1325.45 27.2059 L1332.91 27.2059 L1332.91 72.576 L1325.45 72.576 L1325.45 27.2059 M1325.45 9.54393 L1332.91 9.54393 L1332.91 18.9825 L1325.45 18.9825 L1325.45 9.54393 Z" fill="#000000" fill-rule="nonzero" fill-opacity="1" /><path clip-path="url(#clip580)" d="M1383.83 35.9153 Q1386.62 30.8922 1390.51 28.5022 Q1394.4 26.1121 1399.67 26.1121 Q1406.76 26.1121 1410.6 31.0947 Q1414.45 36.0368 1414.45 45.1919 L1414.45 72.576 L1406.96 72.576 L1406.96 45.4349 Q1406.96 38.913 1404.65 35.7533 Q1402.34 32.5936 1397.6 32.5936 Q1391.81 32.5936 1388.45 36.4419 Q1385.08 40.2903 1385.08 46.9338 L1385.08 72.576 L1377.59 72.576 L1377.59 45.4349 Q1377.59 38.8725 1375.28 35.7533 Q1372.97 32.5936 1368.15 32.5936 Q1362.44 32.5936 1359.08 36.4824 Q1355.71 40.3308 1355.71 46.9338 L1355.71 72.576 L1348.22 72.576 L1348.22 27.2059 L1355.71 27.2059 L1355.71 34.2544 Q1358.27 30.082 1361.83 28.0971 Q1365.4 26.1121 1370.3 26.1121 Q1375.24 26.1121 1378.68 28.6237 Q1382.17 31.1352 1383.83 35.9153 Z" fill="#000000" fill-rule="nonzero" fill-opacity="1" /><path clip-path="url(#clip580)" d="M1468.13 48.0275 L1468.13 51.6733 L1433.86 51.6733 Q1434.34 59.3701 1438.47 63.421 Q1442.65 67.4314 1450.06 67.4314 Q1454.35 67.4314 1458.36 66.3781 Q1462.42 65.3249 1466.39 63.2184 L1466.39 70.267 Q1462.37 71.9684 1458.16 72.8596 Q1453.95 73.7508 1449.61 73.7508 Q1438.76 73.7508 1432.4 67.4314 Q1426.08 61.1119 1426.08 50.3365 Q1426.08 39.1965 1432.07 32.6746 Q1438.11 26.1121 1448.32 26.1121 Q1457.47 26.1121 1462.78 32.0264 Q1468.13 37.9003 1468.13 48.0275 M1460.67 45.84 Q1460.59 39.7232 1457.23 36.0774 Q1453.91 32.4315 1448.4 32.4315 Q1442.16 32.4315 1438.39 35.9558 Q1434.67 39.4801 1434.1 45.8805 L1460.67 45.84 Z" fill="#000000" fill-rule="nonzero" fill-opacity="1" /><polyline clip-path="url(#clip582)" style="stroke:#009af9; stroke-linecap:round; stroke-linejoin:round; stroke-width:4; stroke-opacity:1; fill:none" stroke-dasharray="2, 4" points="309.067,1322.73 592.519,1276.82 1159.42,1035.57 2293.23,873.874 "/>
<circle clip-path="url(#clip582)" cx="309.067" cy="1322.73" r="14.4" fill="#009af9" fill-rule="evenodd" fill-opacity="1" stroke="#000000" stroke-opacity="1" stroke-width="3.2"/>
<circle clip-path="url(#clip582)" cx="592.519" cy="1276.82" r="14.4" fill="#009af9" fill-rule="evenodd" fill-opacity="1" stroke="#000000" stroke-opacity="1" stroke-width="3.2"/>
<circle clip-path="url(#clip582)" cx="1159.42" cy="1035.57" r="14.4" fill="#009af9" fill-rule="evenodd" fill-opacity="1" stroke="#000000" stroke-opacity="1" stroke-width="3.2"/>
<circle clip-path="url(#clip582)" cx="2293.23" cy="873.874" r="14.4" fill="#009af9" fill-rule="evenodd" fill-opacity="1" stroke="#000000" stroke-opacity="1" stroke-width="3.2"/>
<polyline clip-path="url(#clip582)" style="stroke:#e26f46; stroke-linecap:round; stroke-linejoin:round; stroke-width:4; stroke-opacity:1; fill:none" stroke-dasharray="2, 4" points="309.067,1268.54 592.519,1247.38 1159.42,750.612 2293.23,284.55 "/>
<circle clip-path="url(#clip582)" cx="309.067" cy="1268.54" r="14.4" fill="#e26f46" fill-rule="evenodd" fill-opacity="1" stroke="#000000" stroke-opacity="1" stroke-width="3.2"/>
<circle clip-path="url(#clip582)" cx="592.519" cy="1247.38" r="14.4" fill="#e26f46" fill-rule="evenodd" fill-opacity="1" stroke="#000000" stroke-opacity="1" stroke-width="3.2"/>
<circle clip-path="url(#clip582)" cx="1159.42" cy="750.612" r="14.4" fill="#e26f46" fill-rule="evenodd" fill-opacity="1" stroke="#000000" stroke-opacity="1" stroke-width="3.2"/>
<circle clip-path="url(#clip582)" cx="2293.23" cy="284.55" r="14.4" fill="#e26f46" fill-rule="evenodd" fill-opacity="1" stroke="#000000" stroke-opacity="1" stroke-width="3.2"/>
<polyline clip-path="url(#clip582)" style="stroke:#3da44d; stroke-linecap:round; stroke-linejoin:round; stroke-width:4; stroke-opacity:1; fill:none" stroke-dasharray="2, 4" points="309.067,1335.35 592.519,1265.04 1159.42,1096.93 2293.23,833.667 "/>
<circle clip-path="url(#clip582)" cx="309.067" cy="1335.35" r="14.4" fill="#3da44d" fill-rule="evenodd" fill-opacity="1" stroke="#000000" stroke-opacity="1" stroke-width="3.2"/>
<circle clip-path="url(#clip582)" cx="592.519" cy="1265.04" r="14.4" fill="#3da44d" fill-rule="evenodd" fill-opacity="1" stroke="#000000" stroke-opacity="1" stroke-width="3.2"/>
<circle clip-path="url(#clip582)" cx="1159.42" cy="1096.93" r="14.4" fill="#3da44d" fill-rule="evenodd" fill-opacity="1" stroke="#000000" stroke-opacity="1" stroke-width="3.2"/>
<circle clip-path="url(#clip582)" cx="2293.23" cy="833.667" r="14.4" fill="#3da44d" fill-rule="evenodd" fill-opacity="1" stroke="#000000" stroke-opacity="1" stroke-width="3.2"/>
<polyline clip-path="url(#clip582)" style="stroke:#c271d2; stroke-linecap:round; stroke-linejoin:round; stroke-width:4; stroke-opacity:1; fill:none" stroke-dasharray="2, 4" points="309.067,1326.32 592.519,1231.6 1159.42,981.144 2293.23,160.256 "/>
<circle clip-path="url(#clip582)" cx="309.067" cy="1326.32" r="14.4" fill="#c271d2" fill-rule="evenodd" fill-opacity="1" stroke="#000000" stroke-opacity="1" stroke-width="3.2"/>
<circle clip-path="url(#clip582)" cx="592.519" cy="1231.6" r="14.4" fill="#c271d2" fill-rule="evenodd" fill-opacity="1" stroke="#000000" stroke-opacity="1" stroke-width="3.2"/>
<circle clip-path="url(#clip582)" cx="1159.42" cy="981.144" r="14.4" fill="#c271d2" fill-rule="evenodd" fill-opacity="1" stroke="#000000" stroke-opacity="1" stroke-width="3.2"/>
<circle clip-path="url(#clip582)" cx="2293.23" cy="160.256" r="14.4" fill="#c271d2" fill-rule="evenodd" fill-opacity="1" stroke="#000000" stroke-opacity="1" stroke-width="3.2"/>
<polyline clip-path="url(#clip582)" style="stroke:#ac8d18; stroke-linecap:round; stroke-linejoin:round; stroke-width:4; stroke-opacity:1; fill:none" stroke-dasharray="2, 4" points="309.067,1382.42 592.519,1355.85 1159.42,1263.61 2293.23,1101.34 "/>
<circle clip-path="url(#clip582)" cx="309.067" cy="1382.42" r="14.4" fill="#ac8d18" fill-rule="evenodd" fill-opacity="1" stroke="#000000" stroke-opacity="1" stroke-width="3.2"/>
<circle clip-path="url(#clip582)" cx="592.519" cy="1355.85" r="14.4" fill="#ac8d18" fill-rule="evenodd" fill-opacity="1" stroke="#000000" stroke-opacity="1" stroke-width="3.2"/>
<circle clip-path="url(#clip582)" cx="1159.42" cy="1263.61" r="14.4" fill="#ac8d18" fill-rule="evenodd" fill-opacity="1" stroke="#000000" stroke-opacity="1" stroke-width="3.2"/>
<circle clip-path="url(#clip582)" cx="2293.23" cy="1101.34" r="14.4" fill="#ac8d18" fill-rule="evenodd" fill-opacity="1" stroke="#000000" stroke-opacity="1" stroke-width="3.2"/>
<polyline clip-path="url(#clip582)" style="stroke:#00a9ad; stroke-linecap:round; stroke-linejoin:round; stroke-width:4; stroke-opacity:1; fill:none" stroke-dasharray="2, 4" points="309.067,1372.58 592.519,1329.92 1159.42,1156.78 2293.23,658.6 "/>
<circle clip-path="url(#clip582)" cx="309.067" cy="1372.58" r="14.4" fill="#00a9ad" fill-rule="evenodd" fill-opacity="1" stroke="#000000" stroke-opacity="1" stroke-width="3.2"/>
<circle clip-path="url(#clip582)" cx="592.519" cy="1329.92" r="14.4" fill="#00a9ad" fill-rule="evenodd" fill-opacity="1" stroke="#000000" stroke-opacity="1" stroke-width="3.2"/>
<circle clip-path="url(#clip582)" cx="1159.42" cy="1156.78" r="14.4" fill="#00a9ad" fill-rule="evenodd" fill-opacity="1" stroke="#000000" stroke-opacity="1" stroke-width="3.2"/>
<circle clip-path="url(#clip582)" cx="2293.23" cy="658.6" r="14.4" fill="#00a9ad" fill-rule="evenodd" fill-opacity="1" stroke="#000000" stroke-opacity="1" stroke-width="3.2"/>
<polyline clip-path="url(#clip582)" style="stroke:#ed5d92; stroke-linecap:round; stroke-linejoin:round; stroke-width:4; stroke-opacity:1; fill:none" stroke-dasharray="2, 4" points="309.067,1379.94 592.519,1339.19 1159.42,1258.76 2293.23,1069.58 "/>
<circle clip-path="url(#clip582)" cx="309.067" cy="1379.94" r="14.4" fill="#ed5d92" fill-rule="evenodd" fill-opacity="1" stroke="#000000" stroke-opacity="1" stroke-width="3.2"/>
<circle clip-path="url(#clip582)" cx="592.519" cy="1339.19" r="14.4" fill="#ed5d92" fill-rule="evenodd" fill-opacity="1" stroke="#000000" stroke-opacity="1" stroke-width="3.2"/>
<circle clip-path="url(#clip582)" cx="1159.42" cy="1258.76" r="14.4" fill="#ed5d92" fill-rule="evenodd" fill-opacity="1" stroke="#000000" stroke-opacity="1" stroke-width="3.2"/>
<circle clip-path="url(#clip582)" cx="2293.23" cy="1069.58" r="14.4" fill="#ed5d92" fill-rule="evenodd" fill-opacity="1" stroke="#000000" stroke-opacity="1" stroke-width="3.2"/>
<polyline clip-path="url(#clip582)" style="stroke:#c68125; stroke-linecap:round; stroke-linejoin:round; stroke-width:4; stroke-opacity:1; fill:none" stroke-dasharray="2, 4" points="309.067,1377.89 592.519,1298.64 1159.42,1103.41 2293.23,626.013 "/>
<circle clip-path="url(#clip582)" cx="309.067" cy="1377.89" r="14.4" fill="#c68125" fill-rule="evenodd" fill-opacity="1" stroke="#000000" stroke-opacity="1" stroke-width="3.2"/>
<circle clip-path="url(#clip582)" cx="592.519" cy="1298.64" r="14.4" fill="#c68125" fill-rule="evenodd" fill-opacity="1" stroke="#000000" stroke-opacity="1" stroke-width="3.2"/>
<circle clip-path="url(#clip582)" cx="1159.42" cy="1103.41" r="14.4" fill="#c68125" fill-rule="evenodd" fill-opacity="1" stroke="#000000" stroke-opacity="1" stroke-width="3.2"/>
<circle clip-path="url(#clip582)" cx="2293.23" cy="626.013" r="14.4" fill="#c68125" fill-rule="evenodd" fill-opacity="1" stroke="#000000" stroke-opacity="1" stroke-width="3.2"/>
<polyline clip-path="url(#clip582)" style="stroke:#00a98d; stroke-linecap:round; stroke-linejoin:round; stroke-width:4; stroke-opacity:1; fill:none" stroke-dasharray="2, 4" points="309.067,1386.4 592.519,1299.48 1159.42,1252.26 2293.23,1004.54 "/>
<circle clip-path="url(#clip582)" cx="309.067" cy="1386.4" r="14.4" fill="#00a98d" fill-rule="evenodd" fill-opacity="1" stroke="#000000" stroke-opacity="1" stroke-width="3.2"/>
<circle clip-path="url(#clip582)" cx="592.519" cy="1299.48" r="14.4" fill="#00a98d" fill-rule="evenodd" fill-opacity="1" stroke="#000000" stroke-opacity="1" stroke-width="3.2"/>
<circle clip-path="url(#clip582)" cx="1159.42" cy="1252.26" r="14.4" fill="#00a98d" fill-rule="evenodd" fill-opacity="1" stroke="#000000" stroke-opacity="1" stroke-width="3.2"/>
<circle clip-path="url(#clip582)" cx="2293.23" cy="1004.54" r="14.4" fill="#00a98d" fill-rule="evenodd" fill-opacity="1" stroke="#000000" stroke-opacity="1" stroke-width="3.2"/>
<polyline clip-path="url(#clip582)" style="stroke:#8e971d; stroke-linecap:round; stroke-linejoin:round; stroke-width:4; stroke-opacity:1; fill:none" stroke-dasharray="2, 4" points="309.067,1381.34 592.519,1275.33 1159.42,1135.65 2293.23,616.52 "/>
<circle clip-path="url(#clip582)" cx="309.067" cy="1381.34" r="14.4" fill="#8e971d" fill-rule="evenodd" fill-opacity="1" stroke="#000000" stroke-opacity="1" stroke-width="3.2"/>
<circle clip-path="url(#clip582)" cx="592.519" cy="1275.33" r="14.4" fill="#8e971d" fill-rule="evenodd" fill-opacity="1" stroke="#000000" stroke-opacity="1" stroke-width="3.2"/>
<circle clip-path="url(#clip582)" cx="1159.42" cy="1135.65" r="14.4" fill="#8e971d" fill-rule="evenodd" fill-opacity="1" stroke="#000000" stroke-opacity="1" stroke-width="3.2"/>
<circle clip-path="url(#clip582)" cx="2293.23" cy="616.52" r="14.4" fill="#8e971d" fill-rule="evenodd" fill-opacity="1" stroke="#000000" stroke-opacity="1" stroke-width="3.2"/>
<polyline clip-path="url(#clip582)" style="stroke:#00a8cb; stroke-linecap:round; stroke-linejoin:round; stroke-width:4; stroke-opacity:1; fill:none" stroke-dasharray="2, 4" points="309.067,1378.38 592.519,1330.82 1159.42,1229.49 2293.23,985.129 "/>
<circle clip-path="url(#clip582)" cx="309.067" cy="1378.38" r="14.4" fill="#00a8cb" fill-rule="evenodd" fill-opacity="1" stroke="#000000" stroke-opacity="1" stroke-width="3.2"/>
<circle clip-path="url(#clip582)" cx="592.519" cy="1330.82" r="14.4" fill="#00a8cb" fill-rule="evenodd" fill-opacity="1" stroke="#000000" stroke-opacity="1" stroke-width="3.2"/>
<circle clip-path="url(#clip582)" cx="1159.42" cy="1229.49" r="14.4" fill="#00a8cb" fill-rule="evenodd" fill-opacity="1" stroke="#000000" stroke-opacity="1" stroke-width="3.2"/>
<circle clip-path="url(#clip582)" cx="2293.23" cy="985.129" r="14.4" fill="#00a8cb" fill-rule="evenodd" fill-opacity="1" stroke="#000000" stroke-opacity="1" stroke-width="3.2"/>
<polyline clip-path="url(#clip582)" style="stroke:#9b7fe8; stroke-linecap:round; stroke-linejoin:round; stroke-width:4; stroke-opacity:1; fill:none" stroke-dasharray="2, 4" points="309.067,1369.38 592.519,1304.01 1159.42,1126.7 2293.23,537.583 "/>
<circle clip-path="url(#clip582)" cx="309.067" cy="1369.38" r="14.4" fill="#9b7fe8" fill-rule="evenodd" fill-opacity="1" stroke="#000000" stroke-opacity="1" stroke-width="3.2"/>
<circle clip-path="url(#clip582)" cx="592.519" cy="1304.01" r="14.4" fill="#9b7fe8" fill-rule="evenodd" fill-opacity="1" stroke="#000000" stroke-opacity="1" stroke-width="3.2"/>
<circle clip-path="url(#clip582)" cx="1159.42" cy="1126.7" r="14.4" fill="#9b7fe8" fill-rule="evenodd" fill-opacity="1" stroke="#000000" stroke-opacity="1" stroke-width="3.2"/>
<circle clip-path="url(#clip582)" cx="2293.23" cy="537.583" r="14.4" fill="#9b7fe8" fill-rule="evenodd" fill-opacity="1" stroke="#000000" stroke-opacity="1" stroke-width="3.2"/>
<path clip-path="url(#clip580)" d="M319.649 840.716 L857.492 840.716 L857.492 166.796 L319.649 166.796  Z" fill="#ffffff" fill-rule="evenodd" fill-opacity="1"/>
<polyline clip-path="url(#clip580)" style="stroke:#000000; stroke-linecap:round; stroke-linejoin:round; stroke-width:4; stroke-opacity:1; fill:none" points="319.649,840.716 857.492,840.716 857.492,166.796 319.649,166.796 319.649,840.716 "/>
<polyline clip-path="url(#clip580)" style="stroke:#009af9; stroke-linecap:round; stroke-linejoin:round; stroke-width:4; stroke-opacity:1; fill:none" stroke-dasharray="2, 4" points="343.018,218.636 483.232,218.636 "/>
<circle clip-path="url(#clip580)" cx="413.125" cy="218.636" r="19.4742" fill="#009af9" fill-rule="evenodd" fill-opacity="1" stroke="#000000" stroke-opacity="1" stroke-width="4.55111"/>
<path clip-path="url(#clip580)" d="M506.602 201.356 L526.463 201.356 L526.463 205.291 L511.277 205.291 L511.277 215.476 L524.981 215.476 L524.981 219.411 L511.277 219.411 L511.277 235.916 L506.602 235.916 L506.602 201.356 Z" fill="#000000" fill-rule="nonzero" fill-opacity="1" /><path clip-path="url(#clip580)" d="M538.546 219.411 L538.546 232.073 L546.046 232.073 Q549.819 232.073 551.624 230.522 Q553.453 228.948 553.453 225.731 Q553.453 222.49 551.624 220.962 Q549.819 219.411 546.046 219.411 L538.546 219.411 M538.546 205.198 L538.546 215.615 L545.467 215.615 Q548.893 215.615 550.56 214.342 Q552.249 213.045 552.249 210.407 Q552.249 207.791 550.56 206.495 Q548.893 205.198 545.467 205.198 L538.546 205.198 M533.87 201.356 L545.814 201.356 Q551.161 201.356 554.055 203.578 Q556.948 205.8 556.948 209.897 Q556.948 213.069 555.467 214.944 Q553.986 216.819 551.115 217.282 Q554.564 218.022 556.462 220.383 Q558.384 222.721 558.384 226.24 Q558.384 230.869 555.236 233.393 Q552.087 235.916 546.277 235.916 L533.87 235.916 L533.87 201.356 Z" fill="#000000" fill-rule="nonzero" fill-opacity="1" /><path clip-path="url(#clip580)" d="M571.069 205.198 L571.069 232.073 L576.717 232.073 Q583.87 232.073 587.18 228.832 Q590.513 225.592 590.513 218.601 Q590.513 211.657 587.18 208.439 Q583.87 205.198 576.717 205.198 L571.069 205.198 M566.393 201.356 L575.999 201.356 Q586.046 201.356 590.745 205.546 Q595.444 209.712 595.444 218.601 Q595.444 227.536 590.721 231.726 Q585.999 235.916 575.999 235.916 L566.393 235.916 L566.393 201.356 Z" fill="#000000" fill-rule="nonzero" fill-opacity="1" /><path clip-path="url(#clip580)" d="M602.897 201.356 L622.758 201.356 L622.758 205.291 L607.573 205.291 L607.573 215.476 L621.277 215.476 L621.277 219.411 L607.573 219.411 L607.573 235.916 L602.897 235.916 L602.897 201.356 Z" fill="#000000" fill-rule="nonzero" fill-opacity="1" /><polyline clip-path="url(#clip580)" style="stroke:#e26f46; stroke-linecap:round; stroke-linejoin:round; stroke-width:4; stroke-opacity:1; fill:none" stroke-dasharray="2, 4" points="343.018,270.476 483.232,270.476 "/>
<circle clip-path="url(#clip580)" cx="413.125" cy="270.476" r="19.4742" fill="#e26f46" fill-rule="evenodd" fill-opacity="1" stroke="#000000" stroke-opacity="1" stroke-width="4.55111"/>
<path clip-path="url(#clip580)" d="M506.602 253.196 L526.463 253.196 L526.463 257.131 L511.277 257.131 L511.277 267.316 L524.981 267.316 L524.981 271.251 L511.277 271.251 L511.277 287.756 L506.602 287.756 L506.602 253.196 Z" fill="#000000" fill-rule="nonzero" fill-opacity="1" /><path clip-path="url(#clip580)" d="M538.546 271.251 L538.546 283.913 L546.046 283.913 Q549.819 283.913 551.624 282.362 Q553.453 280.788 553.453 277.571 Q553.453 274.33 551.624 272.802 Q549.819 271.251 546.046 271.251 L538.546 271.251 M538.546 257.038 L538.546 267.455 L545.467 267.455 Q548.893 267.455 550.56 266.182 Q552.249 264.885 552.249 262.247 Q552.249 259.631 550.56 258.335 Q548.893 257.038 545.467 257.038 L538.546 257.038 M533.87 253.196 L545.814 253.196 Q551.161 253.196 554.055 255.418 Q556.948 257.64 556.948 261.737 Q556.948 264.909 555.467 266.784 Q553.986 268.659 551.115 269.122 Q554.564 269.862 556.462 272.223 Q558.384 274.561 558.384 278.08 Q558.384 282.709 555.236 285.233 Q552.087 287.756 546.277 287.756 L533.87 287.756 L533.87 253.196 Z" fill="#000000" fill-rule="nonzero" fill-opacity="1" /><path clip-path="url(#clip580)" d="M571.069 257.038 L571.069 283.913 L576.717 283.913 Q583.87 283.913 587.18 280.672 Q590.513 277.432 590.513 270.441 Q590.513 263.497 587.18 260.279 Q583.87 257.038 576.717 257.038 L571.069 257.038 M566.393 253.196 L575.999 253.196 Q586.046 253.196 590.745 257.386 Q595.444 261.552 595.444 270.441 Q595.444 279.376 590.721 283.566 Q585.999 287.756 575.999 287.756 L566.393 287.756 L566.393 253.196 Z" fill="#000000" fill-rule="nonzero" fill-opacity="1" /><path clip-path="url(#clip580)" d="M602.897 253.196 L622.758 253.196 L622.758 257.131 L607.573 257.131 L607.573 267.316 L621.277 267.316 L621.277 271.251 L607.573 271.251 L607.573 287.756 L602.897 287.756 L602.897 253.196 Z" fill="#000000" fill-rule="nonzero" fill-opacity="1" /><path clip-path="url(#clip580)" d="M649.679 295.626 L649.679 298.936 L625.05 298.936 L625.05 295.626 L649.679 295.626 Z" fill="#000000" fill-rule="nonzero" fill-opacity="1" /><path clip-path="url(#clip580)" d="M653.684 261.83 L657.943 261.83 L657.943 288.219 Q657.943 293.172 656.045 295.395 Q654.17 297.617 649.98 297.617 L648.36 297.617 L648.36 294.006 L649.494 294.006 Q651.925 294.006 652.804 292.871 Q653.684 291.76 653.684 288.219 L653.684 261.83 M653.684 251.737 L657.943 251.737 L657.943 257.131 L653.684 257.131 L653.684 251.737 Z" fill="#000000" fill-rule="nonzero" fill-opacity="1" /><path clip-path="url(#clip580)" d="M678.638 274.723 Q673.476 274.723 671.485 275.904 Q669.494 277.084 669.494 279.932 Q669.494 282.2 670.976 283.543 Q672.48 284.862 675.05 284.862 Q678.591 284.862 680.721 282.362 Q682.874 279.839 682.874 275.672 L682.874 274.723 L678.638 274.723 M687.133 272.964 L687.133 287.756 L682.874 287.756 L682.874 283.821 Q681.415 286.182 679.239 287.316 Q677.064 288.427 673.915 288.427 Q669.934 288.427 667.573 286.205 Q665.235 283.959 665.235 280.209 Q665.235 275.834 668.152 273.612 Q671.091 271.39 676.902 271.39 L682.874 271.39 L682.874 270.973 Q682.874 268.034 680.929 266.436 Q679.008 264.816 675.513 264.816 Q673.29 264.816 671.184 265.348 Q669.077 265.881 667.133 266.946 L667.133 263.01 Q669.471 262.108 671.67 261.668 Q673.869 261.205 675.952 261.205 Q681.577 261.205 684.355 264.122 Q687.133 267.038 687.133 272.964 Z" fill="#000000" fill-rule="nonzero" fill-opacity="1" /><path clip-path="url(#clip580)" d="M714.563 262.825 L714.563 266.807 Q712.758 265.811 710.929 265.325 Q709.124 264.816 707.272 264.816 Q703.128 264.816 700.837 267.455 Q698.545 270.071 698.545 274.816 Q698.545 279.561 700.837 282.2 Q703.128 284.816 707.272 284.816 Q709.124 284.816 710.929 284.33 Q712.758 283.821 714.563 282.825 L714.563 286.76 Q712.781 287.594 710.86 288.01 Q708.962 288.427 706.809 288.427 Q700.952 288.427 697.503 284.746 Q694.054 281.066 694.054 274.816 Q694.054 268.473 697.526 264.839 Q701.022 261.205 707.087 261.205 Q709.054 261.205 710.929 261.622 Q712.804 262.015 714.563 262.825 Z" fill="#000000" fill-rule="nonzero" fill-opacity="1" /><polyline clip-path="url(#clip580)" style="stroke:#3da44d; stroke-linecap:round; stroke-linejoin:round; stroke-width:4; stroke-opacity:1; fill:none" stroke-dasharray="2, 4" points="343.018,322.316 483.232,322.316 "/>
<circle clip-path="url(#clip580)" cx="413.125" cy="322.316" r="19.4742" fill="#3da44d" fill-rule="evenodd" fill-opacity="1" stroke="#000000" stroke-opacity="1" stroke-width="4.55111"/>
<path clip-path="url(#clip580)" d="M506.602 305.036 L526.463 305.036 L526.463 308.971 L511.277 308.971 L511.277 319.156 L524.981 319.156 L524.981 323.091 L511.277 323.091 L511.277 339.596 L506.602 339.596 L506.602 305.036 Z" fill="#000000" fill-rule="nonzero" fill-opacity="1" /><path clip-path="url(#clip580)" d="M538.546 323.091 L538.546 335.753 L546.046 335.753 Q549.819 335.753 551.624 334.202 Q553.453 332.628 553.453 329.411 Q553.453 326.17 551.624 324.642 Q549.819 323.091 546.046 323.091 L538.546 323.091 M538.546 308.878 L538.546 319.295 L545.467 319.295 Q548.893 319.295 550.56 318.022 Q552.249 316.725 552.249 314.087 Q552.249 311.471 550.56 310.175 Q548.893 308.878 545.467 308.878 L538.546 308.878 M533.87 305.036 L545.814 305.036 Q551.161 305.036 554.055 307.258 Q556.948 309.48 556.948 313.577 Q556.948 316.749 555.467 318.624 Q553.986 320.499 551.115 320.962 Q554.564 321.702 556.462 324.063 Q558.384 326.401 558.384 329.92 Q558.384 334.549 555.236 337.073 Q552.087 339.596 546.277 339.596 L533.87 339.596 L533.87 305.036 Z" fill="#000000" fill-rule="nonzero" fill-opacity="1" /><path clip-path="url(#clip580)" d="M571.069 308.878 L571.069 335.753 L576.717 335.753 Q583.87 335.753 587.18 332.512 Q590.513 329.272 590.513 322.281 Q590.513 315.337 587.18 312.119 Q583.87 308.878 576.717 308.878 L571.069 308.878 M566.393 305.036 L575.999 305.036 Q586.046 305.036 590.745 309.226 Q595.444 313.392 595.444 322.281 Q595.444 331.216 590.721 335.406 Q585.999 339.596 575.999 339.596 L566.393 339.596 L566.393 305.036 Z" fill="#000000" fill-rule="nonzero" fill-opacity="1" /><path clip-path="url(#clip580)" d="M602.897 305.036 L622.758 305.036 L622.758 308.971 L607.573 308.971 L607.573 319.156 L621.277 319.156 L621.277 323.091 L607.573 323.091 L607.573 339.596 L602.897 339.596 L602.897 305.036 Z" fill="#000000" fill-rule="nonzero" fill-opacity="1" /><path clip-path="url(#clip580)" d="M649.679 347.466 L649.679 350.776 L625.05 350.776 L625.05 347.466 L649.679 347.466 Z" fill="#000000" fill-rule="nonzero" fill-opacity="1" /><path clip-path="url(#clip580)" d="M657.804 335.707 L657.804 349.457 L653.522 349.457 L653.522 313.67 L657.804 313.67 L657.804 317.605 Q659.147 315.29 661.184 314.179 Q663.244 313.045 666.091 313.045 Q670.814 313.045 673.753 316.795 Q676.716 320.545 676.716 326.656 Q676.716 332.767 673.753 336.517 Q670.814 340.267 666.091 340.267 Q663.244 340.267 661.184 339.156 Q659.147 338.022 657.804 335.707 M672.295 326.656 Q672.295 321.957 670.351 319.295 Q668.429 316.61 665.05 316.61 Q661.67 316.61 659.726 319.295 Q657.804 321.957 657.804 326.656 Q657.804 331.355 659.726 334.04 Q661.67 336.702 665.05 336.702 Q668.429 336.702 670.351 334.04 Q672.295 331.355 672.295 326.656 Z" fill="#000000" fill-rule="nonzero" fill-opacity="1" /><path clip-path="url(#clip580)" d="M698.8 317.651 Q698.082 317.235 697.225 317.05 Q696.392 316.841 695.374 316.841 Q691.763 316.841 689.818 319.202 Q687.897 321.54 687.897 325.938 L687.897 339.596 L683.614 339.596 L683.614 313.67 L687.897 313.67 L687.897 317.698 Q689.239 315.337 691.392 314.202 Q693.545 313.045 696.624 313.045 Q697.063 313.045 697.596 313.114 Q698.128 313.161 698.776 313.276 L698.8 317.651 Z" fill="#000000" fill-rule="nonzero" fill-opacity="1" /><path clip-path="url(#clip580)" d="M724.401 325.568 L724.401 327.651 L704.818 327.651 Q705.096 332.049 707.457 334.364 Q709.841 336.656 714.077 336.656 Q716.531 336.656 718.823 336.054 Q721.137 335.452 723.406 334.249 L723.406 338.276 Q721.114 339.248 718.707 339.758 Q716.299 340.267 713.823 340.267 Q707.619 340.267 703.985 336.656 Q700.374 333.045 700.374 326.887 Q700.374 320.522 703.8 316.795 Q707.249 313.045 713.082 313.045 Q718.313 313.045 721.346 316.425 Q724.401 319.781 724.401 325.568 M720.142 324.318 Q720.096 320.823 718.174 318.739 Q716.276 316.656 713.128 316.656 Q709.563 316.656 707.411 318.67 Q705.281 320.684 704.957 324.341 L720.142 324.318 Z" fill="#000000" fill-rule="nonzero" fill-opacity="1" /><path clip-path="url(#clip580)" d="M750.049 314.665 L750.049 318.647 Q748.244 317.651 746.415 317.165 Q744.609 316.656 742.758 316.656 Q738.614 316.656 736.322 319.295 Q734.031 321.911 734.031 326.656 Q734.031 331.401 736.322 334.04 Q738.614 336.656 742.758 336.656 Q744.609 336.656 746.415 336.17 Q748.244 335.661 750.049 334.665 L750.049 338.6 Q748.267 339.434 746.346 339.85 Q744.447 340.267 742.295 340.267 Q736.438 340.267 732.989 336.586 Q729.54 332.906 729.54 326.656 Q729.54 320.313 733.012 316.679 Q736.508 313.045 742.572 313.045 Q744.54 313.045 746.415 313.462 Q748.29 313.855 750.049 314.665 Z" fill="#000000" fill-rule="nonzero" fill-opacity="1" /><polyline clip-path="url(#clip580)" style="stroke:#c271d2; stroke-linecap:round; stroke-linejoin:round; stroke-width:4; stroke-opacity:1; fill:none" stroke-dasharray="2, 4" points="343.018,374.156 483.232,374.156 "/>
<circle clip-path="url(#clip580)" cx="413.125" cy="374.156" r="19.4742" fill="#c271d2" fill-rule="evenodd" fill-opacity="1" stroke="#000000" stroke-opacity="1" stroke-width="4.55111"/>
<path clip-path="url(#clip580)" d="M506.602 356.876 L526.463 356.876 L526.463 360.811 L511.277 360.811 L511.277 370.996 L524.981 370.996 L524.981 374.931 L511.277 374.931 L511.277 391.436 L506.602 391.436 L506.602 356.876 Z" fill="#000000" fill-rule="nonzero" fill-opacity="1" /><path clip-path="url(#clip580)" d="M538.546 374.931 L538.546 387.593 L546.046 387.593 Q549.819 387.593 551.624 386.042 Q553.453 384.468 553.453 381.251 Q553.453 378.01 551.624 376.482 Q549.819 374.931 546.046 374.931 L538.546 374.931 M538.546 360.718 L538.546 371.135 L545.467 371.135 Q548.893 371.135 550.56 369.862 Q552.249 368.565 552.249 365.927 Q552.249 363.311 550.56 362.015 Q548.893 360.718 545.467 360.718 L538.546 360.718 M533.87 356.876 L545.814 356.876 Q551.161 356.876 554.055 359.098 Q556.948 361.32 556.948 365.417 Q556.948 368.589 555.467 370.464 Q553.986 372.339 551.115 372.802 Q554.564 373.542 556.462 375.903 Q558.384 378.241 558.384 381.76 Q558.384 386.389 555.236 388.913 Q552.087 391.436 546.277 391.436 L533.87 391.436 L533.87 356.876 Z" fill="#000000" fill-rule="nonzero" fill-opacity="1" /><path clip-path="url(#clip580)" d="M571.069 360.718 L571.069 387.593 L576.717 387.593 Q583.87 387.593 587.18 384.352 Q590.513 381.112 590.513 374.121 Q590.513 367.177 587.18 363.959 Q583.87 360.718 576.717 360.718 L571.069 360.718 M566.393 356.876 L575.999 356.876 Q586.046 356.876 590.745 361.066 Q595.444 365.232 595.444 374.121 Q595.444 383.056 590.721 387.246 Q585.999 391.436 575.999 391.436 L566.393 391.436 L566.393 356.876 Z" fill="#000000" fill-rule="nonzero" fill-opacity="1" /><path clip-path="url(#clip580)" d="M602.897 356.876 L622.758 356.876 L622.758 360.811 L607.573 360.811 L607.573 370.996 L621.277 370.996 L621.277 374.931 L607.573 374.931 L607.573 391.436 L602.897 391.436 L602.897 356.876 Z" fill="#000000" fill-rule="nonzero" fill-opacity="1" /><path clip-path="url(#clip580)" d="M649.679 399.306 L649.679 402.616 L625.05 402.616 L625.05 399.306 L649.679 399.306 Z" fill="#000000" fill-rule="nonzero" fill-opacity="1" /><path clip-path="url(#clip580)" d="M657.804 387.547 L657.804 401.297 L653.522 401.297 L653.522 365.51 L657.804 365.51 L657.804 369.445 Q659.147 367.13 661.184 366.019 Q663.244 364.885 666.091 364.885 Q670.814 364.885 673.753 368.635 Q676.716 372.385 676.716 378.496 Q676.716 384.607 673.753 388.357 Q670.814 392.107 666.091 392.107 Q663.244 392.107 661.184 390.996 Q659.147 389.862 657.804 387.547 M672.295 378.496 Q672.295 373.797 670.351 371.135 Q668.429 368.45 665.05 368.45 Q661.67 368.45 659.726 371.135 Q657.804 373.797 657.804 378.496 Q657.804 383.195 659.726 385.88 Q661.67 388.542 665.05 388.542 Q668.429 388.542 670.351 385.88 Q672.295 383.195 672.295 378.496 Z" fill="#000000" fill-rule="nonzero" fill-opacity="1" /><path clip-path="url(#clip580)" d="M698.8 369.491 Q698.082 369.075 697.225 368.89 Q696.392 368.681 695.374 368.681 Q691.763 368.681 689.818 371.042 Q687.897 373.38 687.897 377.778 L687.897 391.436 L683.614 391.436 L683.614 365.51 L687.897 365.51 L687.897 369.538 Q689.239 367.177 691.392 366.042 Q693.545 364.885 696.624 364.885 Q697.063 364.885 697.596 364.954 Q698.128 365.001 698.776 365.116 L698.8 369.491 Z" fill="#000000" fill-rule="nonzero" fill-opacity="1" /><path clip-path="url(#clip580)" d="M724.401 377.408 L724.401 379.491 L704.818 379.491 Q705.096 383.889 707.457 386.204 Q709.841 388.496 714.077 388.496 Q716.531 388.496 718.823 387.894 Q721.137 387.292 723.406 386.089 L723.406 390.116 Q721.114 391.088 718.707 391.598 Q716.299 392.107 713.823 392.107 Q707.619 392.107 703.985 388.496 Q700.374 384.885 700.374 378.727 Q700.374 372.362 703.8 368.635 Q707.249 364.885 713.082 364.885 Q718.313 364.885 721.346 368.265 Q724.401 371.621 724.401 377.408 M720.142 376.158 Q720.096 372.663 718.174 370.579 Q716.276 368.496 713.128 368.496 Q709.563 368.496 707.411 370.51 Q705.281 372.524 704.957 376.181 L720.142 376.158 Z" fill="#000000" fill-rule="nonzero" fill-opacity="1" /><path clip-path="url(#clip580)" d="M750.049 366.505 L750.049 370.487 Q748.244 369.491 746.415 369.005 Q744.609 368.496 742.758 368.496 Q738.614 368.496 736.322 371.135 Q734.031 373.751 734.031 378.496 Q734.031 383.241 736.322 385.88 Q738.614 388.496 742.758 388.496 Q744.609 388.496 746.415 388.01 Q748.244 387.501 750.049 386.505 L750.049 390.44 Q748.267 391.274 746.346 391.69 Q744.447 392.107 742.295 392.107 Q736.438 392.107 732.989 388.426 Q729.54 384.746 729.54 378.496 Q729.54 372.153 733.012 368.519 Q736.508 364.885 742.572 364.885 Q744.54 364.885 746.415 365.302 Q748.29 365.695 750.049 366.505 Z" fill="#000000" fill-rule="nonzero" fill-opacity="1" /><path clip-path="url(#clip580)" d="M757.642 356.876 L762.318 356.876 L762.318 389.028 Q762.318 395.278 759.933 398.102 Q757.572 400.926 752.318 400.926 L750.535 400.926 L750.535 396.991 L751.994 396.991 Q755.096 396.991 756.369 395.255 Q757.642 393.519 757.642 389.028 L757.642 356.876 Z" fill="#000000" fill-rule="nonzero" fill-opacity="1" /><path clip-path="url(#clip580)" d="M783.22 378.403 Q778.058 378.403 776.068 379.584 Q774.077 380.764 774.077 383.612 Q774.077 385.88 775.558 387.223 Q777.063 388.542 779.632 388.542 Q783.174 388.542 785.304 386.042 Q787.456 383.519 787.456 379.352 L787.456 378.403 L783.22 378.403 M791.716 376.644 L791.716 391.436 L787.456 391.436 L787.456 387.501 Q785.998 389.862 783.822 390.996 Q781.646 392.107 778.498 392.107 Q774.517 392.107 772.156 389.885 Q769.818 387.639 769.818 383.889 Q769.818 379.514 772.734 377.292 Q775.674 375.07 781.484 375.07 L787.456 375.07 L787.456 374.653 Q787.456 371.714 785.512 370.116 Q783.591 368.496 780.095 368.496 Q777.873 368.496 775.767 369.028 Q773.66 369.561 771.716 370.626 L771.716 366.69 Q774.054 365.788 776.253 365.348 Q778.452 364.885 780.535 364.885 Q786.16 364.885 788.938 367.802 Q791.716 370.718 791.716 376.644 Z" fill="#000000" fill-rule="nonzero" fill-opacity="1" /><path clip-path="url(#clip580)" d="M819.146 366.505 L819.146 370.487 Q817.341 369.491 815.512 369.005 Q813.706 368.496 811.855 368.496 Q807.711 368.496 805.419 371.135 Q803.128 373.751 803.128 378.496 Q803.128 383.241 805.419 385.88 Q807.711 388.496 811.855 388.496 Q813.706 388.496 815.512 388.01 Q817.341 387.501 819.146 386.505 L819.146 390.44 Q817.364 391.274 815.442 391.69 Q813.544 392.107 811.392 392.107 Q805.535 392.107 802.086 388.426 Q798.637 384.746 798.637 378.496 Q798.637 372.153 802.109 368.519 Q805.605 364.885 811.669 364.885 Q813.637 364.885 815.512 365.302 Q817.387 365.695 819.146 366.505 Z" fill="#000000" fill-rule="nonzero" fill-opacity="1" /><polyline clip-path="url(#clip580)" style="stroke:#ac8d18; stroke-linecap:round; stroke-linejoin:round; stroke-width:4; stroke-opacity:1; fill:none" stroke-dasharray="2, 4" points="343.018,425.996 483.232,425.996 "/>
<circle clip-path="url(#clip580)" cx="413.125" cy="425.996" r="19.4742" fill="#ac8d18" fill-rule="evenodd" fill-opacity="1" stroke="#000000" stroke-opacity="1" stroke-width="4.55111"/>
<path clip-path="url(#clip580)" d="M522.62 411.887 Q517.527 411.887 514.518 415.683 Q511.532 419.48 511.532 426.03 Q511.532 432.558 514.518 436.354 Q517.527 440.151 522.62 440.151 Q527.713 440.151 530.675 436.354 Q533.662 432.558 533.662 426.03 Q533.662 419.48 530.675 415.683 Q527.713 411.887 522.62 411.887 M529.171 442.651 L535.328 449.387 L529.68 449.387 L524.564 443.854 Q523.8 443.901 523.384 443.924 Q522.99 443.947 522.62 443.947 Q515.328 443.947 510.953 439.086 Q506.602 434.202 506.602 426.03 Q506.602 417.836 510.953 412.975 Q515.328 408.091 522.62 408.091 Q529.888 408.091 534.24 412.975 Q538.592 417.836 538.592 426.03 Q538.592 432.049 536.162 436.331 Q533.754 440.614 529.171 442.651 Z" fill="#000000" fill-rule="nonzero" fill-opacity="1" /><path clip-path="url(#clip580)" d="M545.907 408.716 L552.203 408.716 L567.527 437.628 L567.527 408.716 L572.064 408.716 L572.064 443.276 L565.768 443.276 L550.444 414.364 L550.444 443.276 L545.907 443.276 L545.907 408.716 Z" fill="#000000" fill-rule="nonzero" fill-opacity="1" /><path clip-path="url(#clip580)" d="M586.046 412.558 L586.046 439.433 L591.694 439.433 Q598.846 439.433 602.157 436.192 Q605.49 432.952 605.49 425.961 Q605.49 419.017 602.157 415.799 Q598.846 412.558 591.694 412.558 L586.046 412.558 M581.37 408.716 L590.976 408.716 Q601.022 408.716 605.721 412.906 Q610.42 417.072 610.42 425.961 Q610.42 434.896 605.698 439.086 Q600.976 443.276 590.976 443.276 L581.37 443.276 L581.37 408.716 Z" fill="#000000" fill-rule="nonzero" fill-opacity="1" /><path clip-path="url(#clip580)" d="M617.874 408.716 L637.735 408.716 L637.735 412.651 L622.55 412.651 L622.55 422.836 L636.254 422.836 L636.254 426.771 L622.55 426.771 L622.55 443.276 L617.874 443.276 L617.874 408.716 Z" fill="#000000" fill-rule="nonzero" fill-opacity="1" /><polyline clip-path="url(#clip580)" style="stroke:#00a9ad; stroke-linecap:round; stroke-linejoin:round; stroke-width:4; stroke-opacity:1; fill:none" stroke-dasharray="2, 4" points="343.018,477.836 483.232,477.836 "/>
<circle clip-path="url(#clip580)" cx="413.125" cy="477.836" r="19.4742" fill="#00a9ad" fill-rule="evenodd" fill-opacity="1" stroke="#000000" stroke-opacity="1" stroke-width="4.55111"/>
<path clip-path="url(#clip580)" d="M522.62 463.727 Q517.527 463.727 514.518 467.523 Q511.532 471.32 511.532 477.87 Q511.532 484.398 514.518 488.194 Q517.527 491.991 522.62 491.991 Q527.713 491.991 530.675 488.194 Q533.662 484.398 533.662 477.87 Q533.662 471.32 530.675 467.523 Q527.713 463.727 522.62 463.727 M529.171 494.491 L535.328 501.227 L529.68 501.227 L524.564 495.694 Q523.8 495.741 523.384 495.764 Q522.99 495.787 522.62 495.787 Q515.328 495.787 510.953 490.926 Q506.602 486.042 506.602 477.87 Q506.602 469.676 510.953 464.815 Q515.328 459.931 522.62 459.931 Q529.888 459.931 534.24 464.815 Q538.592 469.676 538.592 477.87 Q538.592 483.889 536.162 488.171 Q533.754 492.454 529.171 494.491 Z" fill="#000000" fill-rule="nonzero" fill-opacity="1" /><path clip-path="url(#clip580)" d="M545.907 460.556 L552.203 460.556 L567.527 489.468 L567.527 460.556 L572.064 460.556 L572.064 495.116 L565.768 495.116 L550.444 466.204 L550.444 495.116 L545.907 495.116 L545.907 460.556 Z" fill="#000000" fill-rule="nonzero" fill-opacity="1" /><path clip-path="url(#clip580)" d="M586.046 464.398 L586.046 491.273 L591.694 491.273 Q598.846 491.273 602.157 488.032 Q605.49 484.792 605.49 477.801 Q605.49 470.857 602.157 467.639 Q598.846 464.398 591.694 464.398 L586.046 464.398 M581.37 460.556 L590.976 460.556 Q601.022 460.556 605.721 464.746 Q610.42 468.912 610.42 477.801 Q610.42 486.736 605.698 490.926 Q600.976 495.116 590.976 495.116 L581.37 495.116 L581.37 460.556 Z" fill="#000000" fill-rule="nonzero" fill-opacity="1" /><path clip-path="url(#clip580)" d="M617.874 460.556 L637.735 460.556 L637.735 464.491 L622.55 464.491 L622.55 474.676 L636.254 474.676 L636.254 478.611 L622.55 478.611 L622.55 495.116 L617.874 495.116 L617.874 460.556 Z" fill="#000000" fill-rule="nonzero" fill-opacity="1" /><path clip-path="url(#clip580)" d="M664.656 502.986 L664.656 506.296 L640.027 506.296 L640.027 502.986 L664.656 502.986 Z" fill="#000000" fill-rule="nonzero" fill-opacity="1" /><path clip-path="url(#clip580)" d="M668.661 469.19 L672.92 469.19 L672.92 495.579 Q672.92 500.532 671.022 502.755 Q669.147 504.977 664.957 504.977 L663.337 504.977 L663.337 501.366 L664.471 501.366 Q666.902 501.366 667.781 500.231 Q668.661 499.12 668.661 495.579 L668.661 469.19 M668.661 459.097 L672.92 459.097 L672.92 464.491 L668.661 464.491 L668.661 459.097 Z" fill="#000000" fill-rule="nonzero" fill-opacity="1" /><path clip-path="url(#clip580)" d="M693.614 482.083 Q688.452 482.083 686.462 483.264 Q684.471 484.444 684.471 487.292 Q684.471 489.56 685.952 490.903 Q687.457 492.222 690.026 492.222 Q693.568 492.222 695.698 489.722 Q697.85 487.199 697.85 483.032 L697.85 482.083 L693.614 482.083 M702.11 480.324 L702.11 495.116 L697.85 495.116 L697.85 491.181 Q696.392 493.542 694.216 494.676 Q692.04 495.787 688.892 495.787 Q684.911 495.787 682.55 493.565 Q680.212 491.319 680.212 487.569 Q680.212 483.194 683.128 480.972 Q686.068 478.75 691.878 478.75 L697.85 478.75 L697.85 478.333 Q697.85 475.394 695.906 473.796 Q693.985 472.176 690.489 472.176 Q688.267 472.176 686.161 472.708 Q684.054 473.241 682.11 474.306 L682.11 470.37 Q684.448 469.468 686.647 469.028 Q688.846 468.565 690.929 468.565 Q696.554 468.565 699.332 471.482 Q702.11 474.398 702.11 480.324 Z" fill="#000000" fill-rule="nonzero" fill-opacity="1" /><path clip-path="url(#clip580)" d="M729.54 470.185 L729.54 474.167 Q727.735 473.171 725.906 472.685 Q724.1 472.176 722.248 472.176 Q718.105 472.176 715.813 474.815 Q713.522 477.431 713.522 482.176 Q713.522 486.921 715.813 489.56 Q718.105 492.176 722.248 492.176 Q724.1 492.176 725.906 491.69 Q727.735 491.181 729.54 490.185 L729.54 494.12 Q727.758 494.954 725.836 495.37 Q723.938 495.787 721.786 495.787 Q715.929 495.787 712.48 492.106 Q709.031 488.426 709.031 482.176 Q709.031 475.833 712.503 472.199 Q715.999 468.565 722.063 468.565 Q724.031 468.565 725.906 468.982 Q727.781 469.375 729.54 470.185 Z" fill="#000000" fill-rule="nonzero" fill-opacity="1" /><polyline clip-path="url(#clip580)" style="stroke:#ed5d92; stroke-linecap:round; stroke-linejoin:round; stroke-width:4; stroke-opacity:1; fill:none" stroke-dasharray="2, 4" points="343.018,529.676 483.232,529.676 "/>
<circle clip-path="url(#clip580)" cx="413.125" cy="529.676" r="19.4742" fill="#ed5d92" fill-rule="evenodd" fill-opacity="1" stroke="#000000" stroke-opacity="1" stroke-width="4.55111"/>
<path clip-path="url(#clip580)" d="M522.62 515.567 Q517.527 515.567 514.518 519.363 Q511.532 523.16 511.532 529.71 Q511.532 536.238 514.518 540.034 Q517.527 543.831 522.62 543.831 Q527.713 543.831 530.675 540.034 Q533.662 536.238 533.662 529.71 Q533.662 523.16 530.675 519.363 Q527.713 515.567 522.62 515.567 M529.171 546.331 L535.328 553.067 L529.68 553.067 L524.564 547.534 Q523.8 547.581 523.384 547.604 Q522.99 547.627 522.62 547.627 Q515.328 547.627 510.953 542.766 Q506.602 537.882 506.602 529.71 Q506.602 521.516 510.953 516.655 Q515.328 511.771 522.62 511.771 Q529.888 511.771 534.24 516.655 Q538.592 521.516 538.592 529.71 Q538.592 535.729 536.162 540.011 Q533.754 544.294 529.171 546.331 Z" fill="#000000" fill-rule="nonzero" fill-opacity="1" /><path clip-path="url(#clip580)" d="M545.907 512.396 L552.203 512.396 L567.527 541.308 L567.527 512.396 L572.064 512.396 L572.064 546.956 L565.768 546.956 L550.444 518.044 L550.444 546.956 L545.907 546.956 L545.907 512.396 Z" fill="#000000" fill-rule="nonzero" fill-opacity="1" /><path clip-path="url(#clip580)" d="M586.046 516.238 L586.046 543.113 L591.694 543.113 Q598.846 543.113 602.157 539.872 Q605.49 536.632 605.49 529.641 Q605.49 522.697 602.157 519.479 Q598.846 516.238 591.694 516.238 L586.046 516.238 M581.37 512.396 L590.976 512.396 Q601.022 512.396 605.721 516.586 Q610.42 520.752 610.42 529.641 Q610.42 538.576 605.698 542.766 Q600.976 546.956 590.976 546.956 L581.37 546.956 L581.37 512.396 Z" fill="#000000" fill-rule="nonzero" fill-opacity="1" /><path clip-path="url(#clip580)" d="M617.874 512.396 L637.735 512.396 L637.735 516.331 L622.55 516.331 L622.55 526.516 L636.254 526.516 L636.254 530.451 L622.55 530.451 L622.55 546.956 L617.874 546.956 L617.874 512.396 Z" fill="#000000" fill-rule="nonzero" fill-opacity="1" /><path clip-path="url(#clip580)" d="M664.656 554.826 L664.656 558.136 L640.027 558.136 L640.027 554.826 L664.656 554.826 Z" fill="#000000" fill-rule="nonzero" fill-opacity="1" /><path clip-path="url(#clip580)" d="M672.781 543.067 L672.781 556.817 L668.499 556.817 L668.499 521.03 L672.781 521.03 L672.781 524.965 Q674.124 522.65 676.161 521.539 Q678.221 520.405 681.068 520.405 Q685.79 520.405 688.73 524.155 Q691.693 527.905 691.693 534.016 Q691.693 540.127 688.73 543.877 Q685.79 547.627 681.068 547.627 Q678.221 547.627 676.161 546.516 Q674.124 545.382 672.781 543.067 M687.272 534.016 Q687.272 529.317 685.327 526.655 Q683.406 523.97 680.027 523.97 Q676.647 523.97 674.702 526.655 Q672.781 529.317 672.781 534.016 Q672.781 538.715 674.702 541.4 Q676.647 544.062 680.027 544.062 Q683.406 544.062 685.327 541.4 Q687.272 538.715 687.272 534.016 Z" fill="#000000" fill-rule="nonzero" fill-opacity="1" /><path clip-path="url(#clip580)" d="M713.776 525.011 Q713.059 524.595 712.202 524.41 Q711.369 524.201 710.35 524.201 Q706.739 524.201 704.795 526.562 Q702.874 528.9 702.874 533.298 L702.874 546.956 L698.591 546.956 L698.591 521.03 L702.874 521.03 L702.874 525.058 Q704.216 522.697 706.369 521.562 Q708.522 520.405 711.6 520.405 Q712.04 520.405 712.573 520.474 Q713.105 520.521 713.753 520.636 L713.776 525.011 Z" fill="#000000" fill-rule="nonzero" fill-opacity="1" /><path clip-path="url(#clip580)" d="M739.378 532.928 L739.378 535.011 L719.795 535.011 Q720.073 539.409 722.434 541.724 Q724.818 544.016 729.054 544.016 Q731.508 544.016 733.799 543.414 Q736.114 542.812 738.383 541.609 L738.383 545.636 Q736.091 546.608 733.684 547.118 Q731.276 547.627 728.799 547.627 Q722.596 547.627 718.961 544.016 Q715.35 540.405 715.35 534.247 Q715.35 527.882 718.776 524.155 Q722.225 520.405 728.059 520.405 Q733.29 520.405 736.322 523.785 Q739.378 527.141 739.378 532.928 M735.119 531.678 Q735.073 528.183 733.151 526.099 Q731.253 524.016 728.105 524.016 Q724.54 524.016 722.387 526.03 Q720.258 528.044 719.934 531.701 L735.119 531.678 Z" fill="#000000" fill-rule="nonzero" fill-opacity="1" /><path clip-path="url(#clip580)" d="M765.026 522.025 L765.026 526.007 Q763.221 525.011 761.392 524.525 Q759.586 524.016 757.734 524.016 Q753.591 524.016 751.299 526.655 Q749.008 529.271 749.008 534.016 Q749.008 538.761 751.299 541.4 Q753.591 544.016 757.734 544.016 Q759.586 544.016 761.392 543.53 Q763.221 543.021 765.026 542.025 L765.026 545.96 Q763.244 546.794 761.322 547.21 Q759.424 547.627 757.271 547.627 Q751.415 547.627 747.966 543.946 Q744.517 540.266 744.517 534.016 Q744.517 527.673 747.989 524.039 Q751.484 520.405 757.549 520.405 Q759.517 520.405 761.392 520.822 Q763.267 521.215 765.026 522.025 Z" fill="#000000" fill-rule="nonzero" fill-opacity="1" /><polyline clip-path="url(#clip580)" style="stroke:#c68125; stroke-linecap:round; stroke-linejoin:round; stroke-width:4; stroke-opacity:1; fill:none" stroke-dasharray="2, 4" points="343.018,581.516 483.232,581.516 "/>
<circle clip-path="url(#clip580)" cx="413.125" cy="581.516" r="19.4742" fill="#c68125" fill-rule="evenodd" fill-opacity="1" stroke="#000000" stroke-opacity="1" stroke-width="4.55111"/>
<path clip-path="url(#clip580)" d="M522.62 567.407 Q517.527 567.407 514.518 571.203 Q511.532 575 511.532 581.55 Q511.532 588.078 514.518 591.874 Q517.527 595.671 522.62 595.671 Q527.713 595.671 530.675 591.874 Q533.662 588.078 533.662 581.55 Q533.662 575 530.675 571.203 Q527.713 567.407 522.62 567.407 M529.171 598.171 L535.328 604.907 L529.68 604.907 L524.564 599.374 Q523.8 599.421 523.384 599.444 Q522.99 599.467 522.62 599.467 Q515.328 599.467 510.953 594.606 Q506.602 589.722 506.602 581.55 Q506.602 573.356 510.953 568.495 Q515.328 563.611 522.62 563.611 Q529.888 563.611 534.24 568.495 Q538.592 573.356 538.592 581.55 Q538.592 587.569 536.162 591.851 Q533.754 596.134 529.171 598.171 Z" fill="#000000" fill-rule="nonzero" fill-opacity="1" /><path clip-path="url(#clip580)" d="M545.907 564.236 L552.203 564.236 L567.527 593.148 L567.527 564.236 L572.064 564.236 L572.064 598.796 L565.768 598.796 L550.444 569.884 L550.444 598.796 L545.907 598.796 L545.907 564.236 Z" fill="#000000" fill-rule="nonzero" fill-opacity="1" /><path clip-path="url(#clip580)" d="M586.046 568.078 L586.046 594.953 L591.694 594.953 Q598.846 594.953 602.157 591.712 Q605.49 588.472 605.49 581.481 Q605.49 574.537 602.157 571.319 Q598.846 568.078 591.694 568.078 L586.046 568.078 M581.37 564.236 L590.976 564.236 Q601.022 564.236 605.721 568.426 Q610.42 572.592 610.42 581.481 Q610.42 590.416 605.698 594.606 Q600.976 598.796 590.976 598.796 L581.37 598.796 L581.37 564.236 Z" fill="#000000" fill-rule="nonzero" fill-opacity="1" /><path clip-path="url(#clip580)" d="M617.874 564.236 L637.735 564.236 L637.735 568.171 L622.55 568.171 L622.55 578.356 L636.254 578.356 L636.254 582.291 L622.55 582.291 L622.55 598.796 L617.874 598.796 L617.874 564.236 Z" fill="#000000" fill-rule="nonzero" fill-opacity="1" /><path clip-path="url(#clip580)" d="M664.656 606.666 L664.656 609.976 L640.027 609.976 L640.027 606.666 L664.656 606.666 Z" fill="#000000" fill-rule="nonzero" fill-opacity="1" /><path clip-path="url(#clip580)" d="M672.781 594.907 L672.781 608.657 L668.499 608.657 L668.499 572.87 L672.781 572.87 L672.781 576.805 Q674.124 574.49 676.161 573.379 Q678.221 572.245 681.068 572.245 Q685.79 572.245 688.73 575.995 Q691.693 579.745 691.693 585.856 Q691.693 591.967 688.73 595.717 Q685.79 599.467 681.068 599.467 Q678.221 599.467 676.161 598.356 Q674.124 597.222 672.781 594.907 M687.272 585.856 Q687.272 581.157 685.327 578.495 Q683.406 575.81 680.027 575.81 Q676.647 575.81 674.702 578.495 Q672.781 581.157 672.781 585.856 Q672.781 590.555 674.702 593.24 Q676.647 595.902 680.027 595.902 Q683.406 595.902 685.327 593.24 Q687.272 590.555 687.272 585.856 Z" fill="#000000" fill-rule="nonzero" fill-opacity="1" /><path clip-path="url(#clip580)" d="M713.776 576.851 Q713.059 576.435 712.202 576.25 Q711.369 576.041 710.35 576.041 Q706.739 576.041 704.795 578.402 Q702.874 580.74 702.874 585.138 L702.874 598.796 L698.591 598.796 L698.591 572.87 L702.874 572.87 L702.874 576.898 Q704.216 574.537 706.369 573.402 Q708.522 572.245 711.6 572.245 Q712.04 572.245 712.573 572.314 Q713.105 572.361 713.753 572.476 L713.776 576.851 Z" fill="#000000" fill-rule="nonzero" fill-opacity="1" /><path clip-path="url(#clip580)" d="M739.378 584.768 L739.378 586.851 L719.795 586.851 Q720.073 591.249 722.434 593.564 Q724.818 595.856 729.054 595.856 Q731.508 595.856 733.799 595.254 Q736.114 594.652 738.383 593.449 L738.383 597.476 Q736.091 598.448 733.684 598.958 Q731.276 599.467 728.799 599.467 Q722.596 599.467 718.961 595.856 Q715.35 592.245 715.35 586.087 Q715.35 579.722 718.776 575.995 Q722.225 572.245 728.059 572.245 Q733.29 572.245 736.322 575.625 Q739.378 578.981 739.378 584.768 M735.119 583.518 Q735.073 580.023 733.151 577.939 Q731.253 575.856 728.105 575.856 Q724.54 575.856 722.387 577.87 Q720.258 579.884 719.934 583.541 L735.119 583.518 Z" fill="#000000" fill-rule="nonzero" fill-opacity="1" /><path clip-path="url(#clip580)" d="M765.026 573.865 L765.026 577.847 Q763.221 576.851 761.392 576.365 Q759.586 575.856 757.734 575.856 Q753.591 575.856 751.299 578.495 Q749.008 581.111 749.008 585.856 Q749.008 590.601 751.299 593.24 Q753.591 595.856 757.734 595.856 Q759.586 595.856 761.392 595.37 Q763.221 594.861 765.026 593.865 L765.026 597.8 Q763.244 598.634 761.322 599.05 Q759.424 599.467 757.271 599.467 Q751.415 599.467 747.966 595.786 Q744.517 592.106 744.517 585.856 Q744.517 579.513 747.989 575.879 Q751.484 572.245 757.549 572.245 Q759.517 572.245 761.392 572.662 Q763.267 573.055 765.026 573.865 Z" fill="#000000" fill-rule="nonzero" fill-opacity="1" /><path clip-path="url(#clip580)" d="M772.619 564.236 L777.295 564.236 L777.295 596.388 Q777.295 602.638 774.91 605.462 Q772.549 608.286 767.295 608.286 L765.512 608.286 L765.512 604.351 L766.97 604.351 Q770.072 604.351 771.345 602.615 Q772.619 600.879 772.619 596.388 L772.619 564.236 Z" fill="#000000" fill-rule="nonzero" fill-opacity="1" /><path clip-path="url(#clip580)" d="M798.197 585.763 Q793.035 585.763 791.044 586.944 Q789.054 588.124 789.054 590.972 Q789.054 593.24 790.535 594.583 Q792.04 595.902 794.609 595.902 Q798.151 595.902 800.28 593.402 Q802.433 590.879 802.433 586.712 L802.433 585.763 L798.197 585.763 M806.692 584.004 L806.692 598.796 L802.433 598.796 L802.433 594.861 Q800.975 597.222 798.799 598.356 Q796.623 599.467 793.475 599.467 Q789.494 599.467 787.132 597.245 Q784.794 594.999 784.794 591.249 Q784.794 586.874 787.711 584.652 Q790.651 582.43 796.461 582.43 L802.433 582.43 L802.433 582.013 Q802.433 579.074 800.489 577.476 Q798.568 575.856 795.072 575.856 Q792.85 575.856 790.744 576.388 Q788.637 576.921 786.693 577.986 L786.693 574.05 Q789.031 573.148 791.23 572.708 Q793.429 572.245 795.512 572.245 Q801.137 572.245 803.915 575.162 Q806.692 578.078 806.692 584.004 Z" fill="#000000" fill-rule="nonzero" fill-opacity="1" /><path clip-path="url(#clip580)" d="M834.123 573.865 L834.123 577.847 Q832.317 576.851 830.489 576.365 Q828.683 575.856 826.831 575.856 Q822.688 575.856 820.396 578.495 Q818.104 581.111 818.104 585.856 Q818.104 590.601 820.396 593.24 Q822.688 595.856 826.831 595.856 Q828.683 595.856 830.489 595.37 Q832.317 594.861 834.123 593.865 L834.123 597.8 Q832.341 598.634 830.419 599.05 Q828.521 599.467 826.368 599.467 Q820.512 599.467 817.063 595.786 Q813.614 592.106 813.614 585.856 Q813.614 579.513 817.086 575.879 Q820.581 572.245 826.646 572.245 Q828.614 572.245 830.489 572.662 Q832.364 573.055 834.123 573.865 Z" fill="#000000" fill-rule="nonzero" fill-opacity="1" /><polyline clip-path="url(#clip580)" style="stroke:#00a98d; stroke-linecap:round; stroke-linejoin:round; stroke-width:4; stroke-opacity:1; fill:none" stroke-dasharray="2, 4" points="343.018,633.356 483.232,633.356 "/>
<circle clip-path="url(#clip580)" cx="413.125" cy="633.356" r="19.4742" fill="#00a98d" fill-rule="evenodd" fill-opacity="1" stroke="#000000" stroke-opacity="1" stroke-width="4.55111"/>
<path clip-path="url(#clip580)" d="M522.62 619.247 Q517.527 619.247 514.518 623.043 Q511.532 626.84 511.532 633.39 Q511.532 639.918 514.518 643.714 Q517.527 647.511 522.62 647.511 Q527.713 647.511 530.675 643.714 Q533.662 639.918 533.662 633.39 Q533.662 626.84 530.675 623.043 Q527.713 619.247 522.62 619.247 M529.171 650.011 L535.328 656.747 L529.68 656.747 L524.564 651.214 Q523.8 651.261 523.384 651.284 Q522.99 651.307 522.62 651.307 Q515.328 651.307 510.953 646.446 Q506.602 641.562 506.602 633.39 Q506.602 625.196 510.953 620.335 Q515.328 615.451 522.62 615.451 Q529.888 615.451 534.24 620.335 Q538.592 625.196 538.592 633.39 Q538.592 639.409 536.162 643.691 Q533.754 647.974 529.171 650.011 Z" fill="#000000" fill-rule="nonzero" fill-opacity="1" /><path clip-path="url(#clip580)" d="M550.583 634.131 L550.583 646.793 L558.083 646.793 Q561.856 646.793 563.661 645.242 Q565.49 643.668 565.49 640.451 Q565.49 637.21 563.661 635.682 Q561.856 634.131 558.083 634.131 L550.583 634.131 M550.583 619.918 L550.583 630.335 L557.504 630.335 Q560.93 630.335 562.597 629.062 Q564.286 627.765 564.286 625.127 Q564.286 622.511 562.597 621.215 Q560.93 619.918 557.504 619.918 L550.583 619.918 M545.907 616.076 L557.851 616.076 Q563.198 616.076 566.092 618.298 Q568.985 620.52 568.985 624.617 Q568.985 627.789 567.504 629.664 Q566.022 631.539 563.152 632.002 Q566.601 632.742 568.499 635.103 Q570.421 637.441 570.421 640.96 Q570.421 645.589 567.272 648.113 Q564.124 650.636 558.314 650.636 L545.907 650.636 L545.907 616.076 Z" fill="#000000" fill-rule="nonzero" fill-opacity="1" /><path clip-path="url(#clip580)" d="M583.106 619.918 L583.106 646.793 L588.754 646.793 Q595.907 646.793 599.217 643.552 Q602.55 640.312 602.55 633.321 Q602.55 626.377 599.217 623.159 Q595.907 619.918 588.754 619.918 L583.106 619.918 M578.43 616.076 L588.036 616.076 Q598.082 616.076 602.782 620.266 Q607.481 624.432 607.481 633.321 Q607.481 642.256 602.758 646.446 Q598.036 650.636 588.036 650.636 L578.43 650.636 L578.43 616.076 Z" fill="#000000" fill-rule="nonzero" fill-opacity="1" /><path clip-path="url(#clip580)" d="M614.934 616.076 L634.795 616.076 L634.795 620.011 L619.61 620.011 L619.61 630.196 L633.314 630.196 L633.314 634.131 L619.61 634.131 L619.61 650.636 L614.934 650.636 L614.934 616.076 Z" fill="#000000" fill-rule="nonzero" fill-opacity="1" /><polyline clip-path="url(#clip580)" style="stroke:#8e971d; stroke-linecap:round; stroke-linejoin:round; stroke-width:4; stroke-opacity:1; fill:none" stroke-dasharray="2, 4" points="343.018,685.196 483.232,685.196 "/>
<circle clip-path="url(#clip580)" cx="413.125" cy="685.196" r="19.4742" fill="#8e971d" fill-rule="evenodd" fill-opacity="1" stroke="#000000" stroke-opacity="1" stroke-width="4.55111"/>
<path clip-path="url(#clip580)" d="M522.62 671.087 Q517.527 671.087 514.518 674.883 Q511.532 678.68 511.532 685.23 Q511.532 691.758 514.518 695.554 Q517.527 699.351 522.62 699.351 Q527.713 699.351 530.675 695.554 Q533.662 691.758 533.662 685.23 Q533.662 678.68 530.675 674.883 Q527.713 671.087 522.62 671.087 M529.171 701.851 L535.328 708.587 L529.68 708.587 L524.564 703.054 Q523.8 703.101 523.384 703.124 Q522.99 703.147 522.62 703.147 Q515.328 703.147 510.953 698.286 Q506.602 693.402 506.602 685.23 Q506.602 677.036 510.953 672.175 Q515.328 667.291 522.62 667.291 Q529.888 667.291 534.24 672.175 Q538.592 677.036 538.592 685.23 Q538.592 691.249 536.162 695.531 Q533.754 699.814 529.171 701.851 Z" fill="#000000" fill-rule="nonzero" fill-opacity="1" /><path clip-path="url(#clip580)" d="M550.583 685.971 L550.583 698.633 L558.083 698.633 Q561.856 698.633 563.661 697.082 Q565.49 695.508 565.49 692.291 Q565.49 689.05 563.661 687.522 Q561.856 685.971 558.083 685.971 L550.583 685.971 M550.583 671.758 L550.583 682.175 L557.504 682.175 Q560.93 682.175 562.597 680.902 Q564.286 679.605 564.286 676.967 Q564.286 674.351 562.597 673.055 Q560.93 671.758 557.504 671.758 L550.583 671.758 M545.907 667.916 L557.851 667.916 Q563.198 667.916 566.092 670.138 Q568.985 672.36 568.985 676.457 Q568.985 679.629 567.504 681.504 Q566.022 683.379 563.152 683.842 Q566.601 684.582 568.499 686.943 Q570.421 689.281 570.421 692.8 Q570.421 697.429 567.272 699.953 Q564.124 702.476 558.314 702.476 L545.907 702.476 L545.907 667.916 Z" fill="#000000" fill-rule="nonzero" fill-opacity="1" /><path clip-path="url(#clip580)" d="M583.106 671.758 L583.106 698.633 L588.754 698.633 Q595.907 698.633 599.217 695.392 Q602.55 692.152 602.55 685.161 Q602.55 678.217 599.217 674.999 Q595.907 671.758 588.754 671.758 L583.106 671.758 M578.43 667.916 L588.036 667.916 Q598.082 667.916 602.782 672.106 Q607.481 676.272 607.481 685.161 Q607.481 694.096 602.758 698.286 Q598.036 702.476 588.036 702.476 L578.43 702.476 L578.43 667.916 Z" fill="#000000" fill-rule="nonzero" fill-opacity="1" /><path clip-path="url(#clip580)" d="M614.934 667.916 L634.795 667.916 L634.795 671.851 L619.61 671.851 L619.61 682.036 L633.314 682.036 L633.314 685.971 L619.61 685.971 L619.61 702.476 L614.934 702.476 L614.934 667.916 Z" fill="#000000" fill-rule="nonzero" fill-opacity="1" /><path clip-path="url(#clip580)" d="M661.716 710.346 L661.716 713.656 L637.087 713.656 L637.087 710.346 L661.716 710.346 Z" fill="#000000" fill-rule="nonzero" fill-opacity="1" /><path clip-path="url(#clip580)" d="M665.721 676.55 L669.98 676.55 L669.98 702.939 Q669.98 707.892 668.082 710.115 Q666.207 712.337 662.017 712.337 L660.397 712.337 L660.397 708.726 L661.531 708.726 Q663.962 708.726 664.841 707.591 Q665.721 706.48 665.721 702.939 L665.721 676.55 M665.721 666.457 L669.98 666.457 L669.98 671.851 L665.721 671.851 L665.721 666.457 Z" fill="#000000" fill-rule="nonzero" fill-opacity="1" /><path clip-path="url(#clip580)" d="M690.675 689.443 Q685.513 689.443 683.522 690.624 Q681.531 691.804 681.531 694.652 Q681.531 696.92 683.013 698.263 Q684.517 699.582 687.087 699.582 Q690.628 699.582 692.758 697.082 Q694.911 694.559 694.911 690.392 L694.911 689.443 L690.675 689.443 M699.17 687.684 L699.17 702.476 L694.911 702.476 L694.911 698.541 Q693.452 700.902 691.276 702.036 Q689.101 703.147 685.952 703.147 Q681.971 703.147 679.61 700.925 Q677.272 698.679 677.272 694.929 Q677.272 690.554 680.189 688.332 Q683.128 686.11 688.938 686.11 L694.911 686.11 L694.911 685.693 Q694.911 682.754 692.966 681.156 Q691.045 679.536 687.55 679.536 Q685.327 679.536 683.221 680.068 Q681.114 680.601 679.17 681.666 L679.17 677.73 Q681.508 676.828 683.707 676.388 Q685.906 675.925 687.989 675.925 Q693.614 675.925 696.392 678.842 Q699.17 681.758 699.17 687.684 Z" fill="#000000" fill-rule="nonzero" fill-opacity="1" /><path clip-path="url(#clip580)" d="M726.6 677.545 L726.6 681.527 Q724.795 680.531 722.966 680.045 Q721.161 679.536 719.309 679.536 Q715.165 679.536 712.874 682.175 Q710.582 684.791 710.582 689.536 Q710.582 694.281 712.874 696.92 Q715.165 699.536 719.309 699.536 Q721.161 699.536 722.966 699.05 Q724.795 698.541 726.6 697.545 L726.6 701.48 Q724.818 702.314 722.897 702.73 Q720.999 703.147 718.846 703.147 Q712.989 703.147 709.54 699.466 Q706.091 695.786 706.091 689.536 Q706.091 683.193 709.563 679.559 Q713.059 675.925 719.124 675.925 Q721.091 675.925 722.966 676.342 Q724.841 676.735 726.6 677.545 Z" fill="#000000" fill-rule="nonzero" fill-opacity="1" /><polyline clip-path="url(#clip580)" style="stroke:#00a8cb; stroke-linecap:round; stroke-linejoin:round; stroke-width:4; stroke-opacity:1; fill:none" stroke-dasharray="2, 4" points="343.018,737.036 483.232,737.036 "/>
<circle clip-path="url(#clip580)" cx="413.125" cy="737.036" r="19.4742" fill="#00a8cb" fill-rule="evenodd" fill-opacity="1" stroke="#000000" stroke-opacity="1" stroke-width="4.55111"/>
<path clip-path="url(#clip580)" d="M522.62 722.927 Q517.527 722.927 514.518 726.723 Q511.532 730.52 511.532 737.07 Q511.532 743.598 514.518 747.394 Q517.527 751.191 522.62 751.191 Q527.713 751.191 530.675 747.394 Q533.662 743.598 533.662 737.07 Q533.662 730.52 530.675 726.723 Q527.713 722.927 522.62 722.927 M529.171 753.691 L535.328 760.427 L529.68 760.427 L524.564 754.894 Q523.8 754.941 523.384 754.964 Q522.99 754.987 522.62 754.987 Q515.328 754.987 510.953 750.126 Q506.602 745.242 506.602 737.07 Q506.602 728.876 510.953 724.015 Q515.328 719.131 522.62 719.131 Q529.888 719.131 534.24 724.015 Q538.592 728.876 538.592 737.07 Q538.592 743.089 536.162 747.371 Q533.754 751.654 529.171 753.691 Z" fill="#000000" fill-rule="nonzero" fill-opacity="1" /><path clip-path="url(#clip580)" d="M550.583 737.811 L550.583 750.473 L558.083 750.473 Q561.856 750.473 563.661 748.922 Q565.49 747.348 565.49 744.131 Q565.49 740.89 563.661 739.362 Q561.856 737.811 558.083 737.811 L550.583 737.811 M550.583 723.598 L550.583 734.015 L557.504 734.015 Q560.93 734.015 562.597 732.742 Q564.286 731.445 564.286 728.807 Q564.286 726.191 562.597 724.895 Q560.93 723.598 557.504 723.598 L550.583 723.598 M545.907 719.756 L557.851 719.756 Q563.198 719.756 566.092 721.978 Q568.985 724.2 568.985 728.297 Q568.985 731.469 567.504 733.344 Q566.022 735.219 563.152 735.682 Q566.601 736.422 568.499 738.783 Q570.421 741.121 570.421 744.64 Q570.421 749.269 567.272 751.793 Q564.124 754.316 558.314 754.316 L545.907 754.316 L545.907 719.756 Z" fill="#000000" fill-rule="nonzero" fill-opacity="1" /><path clip-path="url(#clip580)" d="M583.106 723.598 L583.106 750.473 L588.754 750.473 Q595.907 750.473 599.217 747.232 Q602.55 743.992 602.55 737.001 Q602.55 730.057 599.217 726.839 Q595.907 723.598 588.754 723.598 L583.106 723.598 M578.43 719.756 L588.036 719.756 Q598.082 719.756 602.782 723.946 Q607.481 728.112 607.481 737.001 Q607.481 745.936 602.758 750.126 Q598.036 754.316 588.036 754.316 L578.43 754.316 L578.43 719.756 Z" fill="#000000" fill-rule="nonzero" fill-opacity="1" /><path clip-path="url(#clip580)" d="M614.934 719.756 L634.795 719.756 L634.795 723.691 L619.61 723.691 L619.61 733.876 L633.314 733.876 L633.314 737.811 L619.61 737.811 L619.61 754.316 L614.934 754.316 L614.934 719.756 Z" fill="#000000" fill-rule="nonzero" fill-opacity="1" /><path clip-path="url(#clip580)" d="M661.716 762.186 L661.716 765.496 L637.087 765.496 L637.087 762.186 L661.716 762.186 Z" fill="#000000" fill-rule="nonzero" fill-opacity="1" /><path clip-path="url(#clip580)" d="M669.841 750.427 L669.841 764.177 L665.559 764.177 L665.559 728.39 L669.841 728.39 L669.841 732.325 Q671.184 730.01 673.221 728.899 Q675.281 727.765 678.128 727.765 Q682.851 727.765 685.79 731.515 Q688.753 735.265 688.753 741.376 Q688.753 747.487 685.79 751.237 Q682.851 754.987 678.128 754.987 Q675.281 754.987 673.221 753.876 Q671.184 752.742 669.841 750.427 M684.332 741.376 Q684.332 736.677 682.388 734.015 Q680.466 731.33 677.087 731.33 Q673.707 731.33 671.763 734.015 Q669.841 736.677 669.841 741.376 Q669.841 746.075 671.763 748.76 Q673.707 751.422 677.087 751.422 Q680.466 751.422 682.388 748.76 Q684.332 746.075 684.332 741.376 Z" fill="#000000" fill-rule="nonzero" fill-opacity="1" /><path clip-path="url(#clip580)" d="M710.837 732.371 Q710.119 731.955 709.262 731.77 Q708.429 731.561 707.411 731.561 Q703.8 731.561 701.855 733.922 Q699.934 736.26 699.934 740.658 L699.934 754.316 L695.651 754.316 L695.651 728.39 L699.934 728.39 L699.934 732.418 Q701.276 730.057 703.429 728.922 Q705.582 727.765 708.661 727.765 Q709.1 727.765 709.633 727.834 Q710.165 727.881 710.813 727.996 L710.837 732.371 Z" fill="#000000" fill-rule="nonzero" fill-opacity="1" /><path clip-path="url(#clip580)" d="M736.438 740.288 L736.438 742.371 L716.855 742.371 Q717.133 746.769 719.494 749.084 Q721.878 751.376 726.114 751.376 Q728.568 751.376 730.86 750.774 Q733.174 750.172 735.443 748.969 L735.443 752.996 Q733.151 753.968 730.744 754.478 Q728.336 754.987 725.86 754.987 Q719.656 754.987 716.022 751.376 Q712.411 747.765 712.411 741.607 Q712.411 735.242 715.836 731.515 Q719.286 727.765 725.119 727.765 Q730.35 727.765 733.383 731.145 Q736.438 734.501 736.438 740.288 M732.179 739.038 Q732.133 735.543 730.211 733.459 Q728.313 731.376 725.165 731.376 Q721.6 731.376 719.448 733.39 Q717.318 735.404 716.994 739.061 L732.179 739.038 Z" fill="#000000" fill-rule="nonzero" fill-opacity="1" /><path clip-path="url(#clip580)" d="M762.086 729.385 L762.086 733.367 Q760.281 732.371 758.452 731.885 Q756.646 731.376 754.795 731.376 Q750.651 731.376 748.359 734.015 Q746.068 736.631 746.068 741.376 Q746.068 746.121 748.359 748.76 Q750.651 751.376 754.795 751.376 Q756.646 751.376 758.452 750.89 Q760.281 750.381 762.086 749.385 L762.086 753.32 Q760.304 754.154 758.383 754.57 Q756.484 754.987 754.332 754.987 Q748.475 754.987 745.026 751.306 Q741.577 747.626 741.577 741.376 Q741.577 735.033 745.049 731.399 Q748.545 727.765 754.609 727.765 Q756.577 727.765 758.452 728.182 Q760.327 728.575 762.086 729.385 Z" fill="#000000" fill-rule="nonzero" fill-opacity="1" /><polyline clip-path="url(#clip580)" style="stroke:#9b7fe8; stroke-linecap:round; stroke-linejoin:round; stroke-width:4; stroke-opacity:1; fill:none" stroke-dasharray="2, 4" points="343.018,788.876 483.232,788.876 "/>
<circle clip-path="url(#clip580)" cx="413.125" cy="788.876" r="19.4742" fill="#9b7fe8" fill-rule="evenodd" fill-opacity="1" stroke="#000000" stroke-opacity="1" stroke-width="4.55111"/>
<path clip-path="url(#clip580)" d="M522.62 774.767 Q517.527 774.767 514.518 778.563 Q511.532 782.36 511.532 788.91 Q511.532 795.438 514.518 799.234 Q517.527 803.031 522.62 803.031 Q527.713 803.031 530.675 799.234 Q533.662 795.438 533.662 788.91 Q533.662 782.36 530.675 778.563 Q527.713 774.767 522.62 774.767 M529.171 805.531 L535.328 812.267 L529.68 812.267 L524.564 806.734 Q523.8 806.781 523.384 806.804 Q522.99 806.827 522.62 806.827 Q515.328 806.827 510.953 801.966 Q506.602 797.082 506.602 788.91 Q506.602 780.716 510.953 775.855 Q515.328 770.971 522.62 770.971 Q529.888 770.971 534.24 775.855 Q538.592 780.716 538.592 788.91 Q538.592 794.929 536.162 799.211 Q533.754 803.494 529.171 805.531 Z" fill="#000000" fill-rule="nonzero" fill-opacity="1" /><path clip-path="url(#clip580)" d="M550.583 789.651 L550.583 802.313 L558.083 802.313 Q561.856 802.313 563.661 800.762 Q565.49 799.188 565.49 795.971 Q565.49 792.73 563.661 791.202 Q561.856 789.651 558.083 789.651 L550.583 789.651 M550.583 775.438 L550.583 785.855 L557.504 785.855 Q560.93 785.855 562.597 784.582 Q564.286 783.285 564.286 780.647 Q564.286 778.031 562.597 776.735 Q560.93 775.438 557.504 775.438 L550.583 775.438 M545.907 771.596 L557.851 771.596 Q563.198 771.596 566.092 773.818 Q568.985 776.04 568.985 780.137 Q568.985 783.309 567.504 785.184 Q566.022 787.059 563.152 787.522 Q566.601 788.262 568.499 790.623 Q570.421 792.961 570.421 796.48 Q570.421 801.109 567.272 803.633 Q564.124 806.156 558.314 806.156 L545.907 806.156 L545.907 771.596 Z" fill="#000000" fill-rule="nonzero" fill-opacity="1" /><path clip-path="url(#clip580)" d="M583.106 775.438 L583.106 802.313 L588.754 802.313 Q595.907 802.313 599.217 799.072 Q602.55 795.832 602.55 788.841 Q602.55 781.897 599.217 778.679 Q595.907 775.438 588.754 775.438 L583.106 775.438 M578.43 771.596 L588.036 771.596 Q598.082 771.596 602.782 775.786 Q607.481 779.952 607.481 788.841 Q607.481 797.776 602.758 801.966 Q598.036 806.156 588.036 806.156 L578.43 806.156 L578.43 771.596 Z" fill="#000000" fill-rule="nonzero" fill-opacity="1" /><path clip-path="url(#clip580)" d="M614.934 771.596 L634.795 771.596 L634.795 775.531 L619.61 775.531 L619.61 785.716 L633.314 785.716 L633.314 789.651 L619.61 789.651 L619.61 806.156 L614.934 806.156 L614.934 771.596 Z" fill="#000000" fill-rule="nonzero" fill-opacity="1" /><path clip-path="url(#clip580)" d="M661.716 814.026 L661.716 817.336 L637.087 817.336 L637.087 814.026 L661.716 814.026 Z" fill="#000000" fill-rule="nonzero" fill-opacity="1" /><path clip-path="url(#clip580)" d="M669.841 802.267 L669.841 816.017 L665.559 816.017 L665.559 780.23 L669.841 780.23 L669.841 784.165 Q671.184 781.85 673.221 780.739 Q675.281 779.605 678.128 779.605 Q682.851 779.605 685.79 783.355 Q688.753 787.105 688.753 793.216 Q688.753 799.327 685.79 803.077 Q682.851 806.827 678.128 806.827 Q675.281 806.827 673.221 805.716 Q671.184 804.582 669.841 802.267 M684.332 793.216 Q684.332 788.517 682.388 785.855 Q680.466 783.17 677.087 783.17 Q673.707 783.17 671.763 785.855 Q669.841 788.517 669.841 793.216 Q669.841 797.915 671.763 800.6 Q673.707 803.262 677.087 803.262 Q680.466 803.262 682.388 800.6 Q684.332 797.915 684.332 793.216 Z" fill="#000000" fill-rule="nonzero" fill-opacity="1" /><path clip-path="url(#clip580)" d="M710.837 784.211 Q710.119 783.795 709.262 783.61 Q708.429 783.401 707.411 783.401 Q703.8 783.401 701.855 785.762 Q699.934 788.1 699.934 792.498 L699.934 806.156 L695.651 806.156 L695.651 780.23 L699.934 780.23 L699.934 784.258 Q701.276 781.897 703.429 780.762 Q705.582 779.605 708.661 779.605 Q709.1 779.605 709.633 779.674 Q710.165 779.721 710.813 779.836 L710.837 784.211 Z" fill="#000000" fill-rule="nonzero" fill-opacity="1" /><path clip-path="url(#clip580)" d="M736.438 792.128 L736.438 794.211 L716.855 794.211 Q717.133 798.609 719.494 800.924 Q721.878 803.216 726.114 803.216 Q728.568 803.216 730.86 802.614 Q733.174 802.012 735.443 800.809 L735.443 804.836 Q733.151 805.808 730.744 806.318 Q728.336 806.827 725.86 806.827 Q719.656 806.827 716.022 803.216 Q712.411 799.605 712.411 793.447 Q712.411 787.082 715.836 783.355 Q719.286 779.605 725.119 779.605 Q730.35 779.605 733.383 782.985 Q736.438 786.341 736.438 792.128 M732.179 790.878 Q732.133 787.383 730.211 785.299 Q728.313 783.216 725.165 783.216 Q721.6 783.216 719.448 785.23 Q717.318 787.244 716.994 790.901 L732.179 790.878 Z" fill="#000000" fill-rule="nonzero" fill-opacity="1" /><path clip-path="url(#clip580)" d="M762.086 781.225 L762.086 785.207 Q760.281 784.211 758.452 783.725 Q756.646 783.216 754.795 783.216 Q750.651 783.216 748.359 785.855 Q746.068 788.471 746.068 793.216 Q746.068 797.961 748.359 800.6 Q750.651 803.216 754.795 803.216 Q756.646 803.216 758.452 802.73 Q760.281 802.221 762.086 801.225 L762.086 805.16 Q760.304 805.994 758.383 806.41 Q756.484 806.827 754.332 806.827 Q748.475 806.827 745.026 803.146 Q741.577 799.466 741.577 793.216 Q741.577 786.873 745.049 783.239 Q748.545 779.605 754.609 779.605 Q756.577 779.605 758.452 780.022 Q760.327 780.415 762.086 781.225 Z" fill="#000000" fill-rule="nonzero" fill-opacity="1" /><path clip-path="url(#clip580)" d="M769.679 771.596 L774.355 771.596 L774.355 803.748 Q774.355 809.998 771.97 812.822 Q769.609 815.646 764.355 815.646 L762.572 815.646 L762.572 811.711 L764.031 811.711 Q767.133 811.711 768.406 809.975 Q769.679 808.239 769.679 803.748 L769.679 771.596 Z" fill="#000000" fill-rule="nonzero" fill-opacity="1" /><path clip-path="url(#clip580)" d="M795.257 793.123 Q790.095 793.123 788.105 794.304 Q786.114 795.484 786.114 798.332 Q786.114 800.6 787.595 801.943 Q789.1 803.262 791.669 803.262 Q795.211 803.262 797.341 800.762 Q799.493 798.239 799.493 794.072 L799.493 793.123 L795.257 793.123 M803.753 791.364 L803.753 806.156 L799.493 806.156 L799.493 802.221 Q798.035 804.582 795.859 805.716 Q793.683 806.827 790.535 806.827 Q786.554 806.827 784.193 804.605 Q781.855 802.359 781.855 798.609 Q781.855 794.234 784.771 792.012 Q787.711 789.79 793.521 789.79 L799.493 789.79 L799.493 789.373 Q799.493 786.434 797.549 784.836 Q795.628 783.216 792.132 783.216 Q789.91 783.216 787.804 783.748 Q785.697 784.281 783.753 785.346 L783.753 781.41 Q786.091 780.508 788.29 780.068 Q790.489 779.605 792.572 779.605 Q798.197 779.605 800.975 782.522 Q803.753 785.438 803.753 791.364 Z" fill="#000000" fill-rule="nonzero" fill-opacity="1" /><path clip-path="url(#clip580)" d="M831.183 781.225 L831.183 785.207 Q829.378 784.211 827.549 783.725 Q825.743 783.216 823.891 783.216 Q819.748 783.216 817.456 785.855 Q815.165 788.471 815.165 793.216 Q815.165 797.961 817.456 800.6 Q819.748 803.216 823.891 803.216 Q825.743 803.216 827.549 802.73 Q829.378 802.221 831.183 801.225 L831.183 805.16 Q829.401 805.994 827.479 806.41 Q825.581 806.827 823.429 806.827 Q817.572 806.827 814.123 803.146 Q810.674 799.466 810.674 793.216 Q810.674 786.873 814.146 783.239 Q817.642 779.605 823.706 779.605 Q825.674 779.605 827.549 780.022 Q829.424 780.415 831.183 781.225 Z" fill="#000000" fill-rule="nonzero" fill-opacity="1" /></svg>
