<?xml version="1.0" encoding="utf-8" standalone="no"?>
<!DOCTYPE svg PUBLIC "-//W3C//DTD SVG 1.1//EN"
  "http://www.w3.org/Graphics/SVG/1.1/DTD/svg11.dtd">
<svg xmlns:xlink="http://www.w3.org/1999/xlink" width="432pt" height="288pt" viewBox="0 0 432 288" xmlns="http://www.w3.org/2000/svg" version="1.1">
 <metadata>
  <rdf:RDF xmlns:dc="http://purl.org/dc/elements/1.1/" xmlns:cc="http://creativecommons.org/ns#" xmlns:rdf="http://www.w3.org/1999/02/22-rdf-syntax-ns#">
   <cc:Work>
    <dc:type rdf:resource="http://purl.org/dc/dcmitype/StillImage"/>
    <dc:date>2024-03-18T08:48:39.939934</dc:date>
    <dc:format>image/svg+xml</dc:format>
    <dc:creator>
     <cc:Agent>
      <dc:title>Matplotlib v3.7.1, https://matplotlib.org/</dc:title>
     </cc:Agent>
    </dc:creator>
   </cc:Work>
  </rdf:RDF>
 </metadata>
 <defs>
  <style type="text/css">*{stroke-linejoin: round; stroke-linecap: butt}</style>
 </defs>
 <g id="figure_1">
  <g id="patch_1">
   <path d="M 0 288 
L 432 288 
L 432 0 
L 0 0 
z
" style="fill: #ffffff"/>
  </g>
  <g id="axes_1">
   <g id="patch_2">
    <path d="M 54 252 
L 388.8 252 
L 388.8 34.56 
L 54 34.56 
z
" style="fill: #ffffff"/>
   </g>
   <g id="matplotlib.axis_1">
    <g id="xtick_1">
     <g id="line2d_1">
      <defs>
       <path id="m57c2baa49a" d="M 0 0 
L 0 3.5 
" style="stroke: #000000; stroke-width: 0.8"/>
      </defs>
      <g>
       <use xlink:href="#m57c2baa49a" x="69.218182" y="252" style="stroke: #000000; stroke-width: 0.8"/>
      </g>
     </g>
     <g id="text_1">
      <!-- 0 -->
      <g transform="translate(66.036932 266.598437) scale(0.1 -0.1)">
       <defs>
        <path id="DejaVuSans-30" d="M 2034 4250 
Q 1547 4250 1301 3770 
Q 1056 3291 1056 2328 
Q 1056 1369 1301 889 
Q 1547 409 2034 409 
Q 2525 409 2770 889 
Q 3016 1369 3016 2328 
Q 3016 3291 2770 3770 
Q 2525 4250 2034 4250 
z
M 2034 4750 
Q 2819 4750 3233 4129 
Q 3647 3509 3647 2328 
Q 3647 1150 3233 529 
Q 2819 -91 2034 -91 
Q 1250 -91 836 529 
Q 422 1150 422 2328 
Q 422 3509 836 4129 
Q 1250 4750 2034 4750 
z
" transform="scale(0.015625)"/>
       </defs>
       <use xlink:href="#DejaVuSans-30"/>
      </g>
     </g>
    </g>
    <g id="xtick_2">
     <g id="line2d_2">
      <g>
       <use xlink:href="#m57c2baa49a" x="109.8" y="252" style="stroke: #000000; stroke-width: 0.8"/>
      </g>
     </g>
     <g id="text_2">
      <!-- 200 -->
      <g transform="translate(100.25625 266.598437) scale(0.1 -0.1)">
       <defs>
        <path id="DejaVuSans-32" d="M 1228 531 
L 3431 531 
L 3431 0 
L 469 0 
L 469 531 
Q 828 903 1448 1529 
Q 2069 2156 2228 2338 
Q 2531 2678 2651 2914 
Q 2772 3150 2772 3378 
Q 2772 3750 2511 3984 
Q 2250 4219 1831 4219 
Q 1534 4219 1204 4116 
Q 875 4013 500 3803 
L 500 4441 
Q 881 4594 1212 4672 
Q 1544 4750 1819 4750 
Q 2544 4750 2975 4387 
Q 3406 4025 3406 3419 
Q 3406 3131 3298 2873 
Q 3191 2616 2906 2266 
Q 2828 2175 2409 1742 
Q 1991 1309 1228 531 
z
" transform="scale(0.015625)"/>
       </defs>
       <use xlink:href="#DejaVuSans-32"/>
       <use xlink:href="#DejaVuSans-30" x="63.623047"/>
       <use xlink:href="#DejaVuSans-30" x="127.246094"/>
      </g>
     </g>
    </g>
    <g id="xtick_3">
     <g id="line2d_3">
      <g>
       <use xlink:href="#m57c2baa49a" x="150.381818" y="252" style="stroke: #000000; stroke-width: 0.8"/>
      </g>
     </g>
     <g id="text_3">
      <!-- 400 -->
      <g transform="translate(140.838068 266.598437) scale(0.1 -0.1)">
       <defs>
        <path id="DejaVuSans-34" d="M 2419 4116 
L 825 1625 
L 2419 1625 
L 2419 4116 
z
M 2253 4666 
L 3047 4666 
L 3047 1625 
L 3713 1625 
L 3713 1100 
L 3047 1100 
L 3047 0 
L 2419 0 
L 2419 1100 
L 313 1100 
L 313 1709 
L 2253 4666 
z
" transform="scale(0.015625)"/>
       </defs>
       <use xlink:href="#DejaVuSans-34"/>
       <use xlink:href="#DejaVuSans-30" x="63.623047"/>
       <use xlink:href="#DejaVuSans-30" x="127.246094"/>
      </g>
     </g>
    </g>
    <g id="xtick_4">
     <g id="line2d_4">
      <g>
       <use xlink:href="#m57c2baa49a" x="190.963636" y="252" style="stroke: #000000; stroke-width: 0.8"/>
      </g>
     </g>
     <g id="text_4">
      <!-- 600 -->
      <g transform="translate(181.419886 266.598437) scale(0.1 -0.1)">
       <defs>
        <path id="DejaVuSans-36" d="M 2113 2584 
Q 1688 2584 1439 2293 
Q 1191 2003 1191 1497 
Q 1191 994 1439 701 
Q 1688 409 2113 409 
Q 2538 409 2786 701 
Q 3034 994 3034 1497 
Q 3034 2003 2786 2293 
Q 2538 2584 2113 2584 
z
M 3366 4563 
L 3366 3988 
Q 3128 4100 2886 4159 
Q 2644 4219 2406 4219 
Q 1781 4219 1451 3797 
Q 1122 3375 1075 2522 
Q 1259 2794 1537 2939 
Q 1816 3084 2150 3084 
Q 2853 3084 3261 2657 
Q 3669 2231 3669 1497 
Q 3669 778 3244 343 
Q 2819 -91 2113 -91 
Q 1303 -91 875 529 
Q 447 1150 447 2328 
Q 447 3434 972 4092 
Q 1497 4750 2381 4750 
Q 2619 4750 2861 4703 
Q 3103 4656 3366 4563 
z
" transform="scale(0.015625)"/>
       </defs>
       <use xlink:href="#DejaVuSans-36"/>
       <use xlink:href="#DejaVuSans-30" x="63.623047"/>
       <use xlink:href="#DejaVuSans-30" x="127.246094"/>
      </g>
     </g>
    </g>
    <g id="xtick_5">
     <g id="line2d_5">
      <g>
       <use xlink:href="#m57c2baa49a" x="231.545455" y="252" style="stroke: #000000; stroke-width: 0.8"/>
      </g>
     </g>
     <g id="text_5">
      <!-- 800 -->
      <g transform="translate(222.001705 266.598437) scale(0.1 -0.1)">
       <defs>
        <path id="DejaVuSans-38" d="M 2034 2216 
Q 1584 2216 1326 1975 
Q 1069 1734 1069 1313 
Q 1069 891 1326 650 
Q 1584 409 2034 409 
Q 2484 409 2743 651 
Q 3003 894 3003 1313 
Q 3003 1734 2745 1975 
Q 2488 2216 2034 2216 
z
M 1403 2484 
Q 997 2584 770 2862 
Q 544 3141 544 3541 
Q 544 4100 942 4425 
Q 1341 4750 2034 4750 
Q 2731 4750 3128 4425 
Q 3525 4100 3525 3541 
Q 3525 3141 3298 2862 
Q 3072 2584 2669 2484 
Q 3125 2378 3379 2068 
Q 3634 1759 3634 1313 
Q 3634 634 3220 271 
Q 2806 -91 2034 -91 
Q 1263 -91 848 271 
Q 434 634 434 1313 
Q 434 1759 690 2068 
Q 947 2378 1403 2484 
z
M 1172 3481 
Q 1172 3119 1398 2916 
Q 1625 2713 2034 2713 
Q 2441 2713 2670 2916 
Q 2900 3119 2900 3481 
Q 2900 3844 2670 4047 
Q 2441 4250 2034 4250 
Q 1625 4250 1398 4047 
Q 1172 3844 1172 3481 
z
" transform="scale(0.015625)"/>
       </defs>
       <use xlink:href="#DejaVuSans-38"/>
       <use xlink:href="#DejaVuSans-30" x="63.623047"/>
       <use xlink:href="#DejaVuSans-30" x="127.246094"/>
      </g>
     </g>
    </g>
    <g id="xtick_6">
     <g id="line2d_6">
      <g>
       <use xlink:href="#m57c2baa49a" x="272.127273" y="252" style="stroke: #000000; stroke-width: 0.8"/>
      </g>
     </g>
     <g id="text_6">
      <!-- 1000 -->
      <g transform="translate(259.402273 266.598437) scale(0.1 -0.1)">
       <defs>
        <path id="DejaVuSans-31" d="M 794 531 
L 1825 531 
L 1825 4091 
L 703 3866 
L 703 4441 
L 1819 4666 
L 2450 4666 
L 2450 531 
L 3481 531 
L 3481 0 
L 794 0 
L 794 531 
z
" transform="scale(0.015625)"/>
       </defs>
       <use xlink:href="#DejaVuSans-31"/>
       <use xlink:href="#DejaVuSans-30" x="63.623047"/>
       <use xlink:href="#DejaVuSans-30" x="127.246094"/>
       <use xlink:href="#DejaVuSans-30" x="190.869141"/>
      </g>
     </g>
    </g>
    <g id="xtick_7">
     <g id="line2d_7">
      <g>
       <use xlink:href="#m57c2baa49a" x="312.709091" y="252" style="stroke: #000000; stroke-width: 0.8"/>
      </g>
     </g>
     <g id="text_7">
      <!-- 1200 -->
      <g transform="translate(299.984091 266.598437) scale(0.1 -0.1)">
       <use xlink:href="#DejaVuSans-31"/>
       <use xlink:href="#DejaVuSans-32" x="63.623047"/>
       <use xlink:href="#DejaVuSans-30" x="127.246094"/>
       <use xlink:href="#DejaVuSans-30" x="190.869141"/>
      </g>
     </g>
    </g>
    <g id="xtick_8">
     <g id="line2d_8">
      <g>
       <use xlink:href="#m57c2baa49a" x="353.290909" y="252" style="stroke: #000000; stroke-width: 0.8"/>
      </g>
     </g>
     <g id="text_8">
      <!-- 1400 -->
      <g transform="translate(340.565909 266.598437) scale(0.1 -0.1)">
       <use xlink:href="#DejaVuSans-31"/>
       <use xlink:href="#DejaVuSans-34" x="63.623047"/>
       <use xlink:href="#DejaVuSans-30" x="127.246094"/>
       <use xlink:href="#DejaVuSans-30" x="190.869141"/>
      </g>
     </g>
    </g>
    <g id="text_9">
     <!-- Time (s) -->
     <g transform="translate(190.906641 284.075781) scale(0.15 -0.15)">
      <defs>
       <path id="DejaVuSans-54" d="M -19 4666 
L 3928 4666 
L 3928 4134 
L 2272 4134 
L 2272 0 
L 1638 0 
L 1638 4134 
L -19 4134 
L -19 4666 
z
" transform="scale(0.015625)"/>
       <path id="DejaVuSans-69" d="M 603 3500 
L 1178 3500 
L 1178 0 
L 603 0 
L 603 3500 
z
M 603 4863 
L 1178 4863 
L 1178 4134 
L 603 4134 
L 603 4863 
z
" transform="scale(0.015625)"/>
       <path id="DejaVuSans-6d" d="M 3328 2828 
Q 3544 3216 3844 3400 
Q 4144 3584 4550 3584 
Q 5097 3584 5394 3201 
Q 5691 2819 5691 2113 
L 5691 0 
L 5113 0 
L 5113 2094 
Q 5113 2597 4934 2840 
Q 4756 3084 4391 3084 
Q 3944 3084 3684 2787 
Q 3425 2491 3425 1978 
L 3425 0 
L 2847 0 
L 2847 2094 
Q 2847 2600 2669 2842 
Q 2491 3084 2119 3084 
Q 1678 3084 1418 2786 
Q 1159 2488 1159 1978 
L 1159 0 
L 581 0 
L 581 3500 
L 1159 3500 
L 1159 2956 
Q 1356 3278 1631 3431 
Q 1906 3584 2284 3584 
Q 2666 3584 2933 3390 
Q 3200 3197 3328 2828 
z
" transform="scale(0.015625)"/>
       <path id="DejaVuSans-65" d="M 3597 1894 
L 3597 1613 
L 953 1613 
Q 991 1019 1311 708 
Q 1631 397 2203 397 
Q 2534 397 2845 478 
Q 3156 559 3463 722 
L 3463 178 
Q 3153 47 2828 -22 
Q 2503 -91 2169 -91 
Q 1331 -91 842 396 
Q 353 884 353 1716 
Q 353 2575 817 3079 
Q 1281 3584 2069 3584 
Q 2775 3584 3186 3129 
Q 3597 2675 3597 1894 
z
M 3022 2063 
Q 3016 2534 2758 2815 
Q 2500 3097 2075 3097 
Q 1594 3097 1305 2825 
Q 1016 2553 972 2059 
L 3022 2063 
z
" transform="scale(0.015625)"/>
       <path id="DejaVuSans-20" transform="scale(0.015625)"/>
       <path id="DejaVuSans-28" d="M 1984 4856 
Q 1566 4138 1362 3434 
Q 1159 2731 1159 2009 
Q 1159 1288 1364 580 
Q 1569 -128 1984 -844 
L 1484 -844 
Q 1016 -109 783 600 
Q 550 1309 550 2009 
Q 550 2706 781 3412 
Q 1013 4119 1484 4856 
L 1984 4856 
z
" transform="scale(0.015625)"/>
       <path id="DejaVuSans-73" d="M 2834 3397 
L 2834 2853 
Q 2591 2978 2328 3040 
Q 2066 3103 1784 3103 
Q 1356 3103 1142 2972 
Q 928 2841 928 2578 
Q 928 2378 1081 2264 
Q 1234 2150 1697 2047 
L 1894 2003 
Q 2506 1872 2764 1633 
Q 3022 1394 3022 966 
Q 3022 478 2636 193 
Q 2250 -91 1575 -91 
Q 1294 -91 989 -36 
Q 684 19 347 128 
L 347 722 
Q 666 556 975 473 
Q 1284 391 1588 391 
Q 1994 391 2212 530 
Q 2431 669 2431 922 
Q 2431 1156 2273 1281 
Q 2116 1406 1581 1522 
L 1381 1569 
Q 847 1681 609 1914 
Q 372 2147 372 2553 
Q 372 3047 722 3315 
Q 1072 3584 1716 3584 
Q 2034 3584 2315 3537 
Q 2597 3491 2834 3397 
z
" transform="scale(0.015625)"/>
       <path id="DejaVuSans-29" d="M 513 4856 
L 1013 4856 
Q 1481 4119 1714 3412 
Q 1947 2706 1947 2009 
Q 1947 1309 1714 600 
Q 1481 -109 1013 -844 
L 513 -844 
Q 928 -128 1133 580 
Q 1338 1288 1338 2009 
Q 1338 2731 1133 3434 
Q 928 4138 513 4856 
z
" transform="scale(0.015625)"/>
      </defs>
      <use xlink:href="#DejaVuSans-54"/>
      <use xlink:href="#DejaVuSans-69" x="57.958984"/>
      <use xlink:href="#DejaVuSans-6d" x="85.742188"/>
      <use xlink:href="#DejaVuSans-65" x="183.154297"/>
      <use xlink:href="#DejaVuSans-20" x="244.677734"/>
      <use xlink:href="#DejaVuSans-28" x="276.464844"/>
      <use xlink:href="#DejaVuSans-73" x="315.478516"/>
      <use xlink:href="#DejaVuSans-29" x="367.578125"/>
     </g>
    </g>
   </g>
   <g id="matplotlib.axis_2">
    <g id="ytick_1">
     <g id="line2d_9">
      <defs>
       <path id="m474495c84b" d="M 0 0 
L -3.5 0 
" style="stroke: #000000; stroke-width: 0.8"/>
      </defs>
      <g>
       <use xlink:href="#m474495c84b" x="54" y="242.0448" style="stroke: #000000; stroke-width: 0.8"/>
      </g>
     </g>
     <g id="text_10">
      <!-- 0.000 -->
      <g transform="translate(18.371875 245.844019) scale(0.1 -0.1)">
       <defs>
        <path id="DejaVuSans-2e" d="M 684 794 
L 1344 794 
L 1344 0 
L 684 0 
L 684 794 
z
" transform="scale(0.015625)"/>
       </defs>
       <use xlink:href="#DejaVuSans-30"/>
       <use xlink:href="#DejaVuSans-2e" x="63.623047"/>
       <use xlink:href="#DejaVuSans-30" x="95.410156"/>
       <use xlink:href="#DejaVuSans-30" x="159.033203"/>
       <use xlink:href="#DejaVuSans-30" x="222.65625"/>
      </g>
     </g>
    </g>
    <g id="ytick_2">
     <g id="line2d_10">
      <g>
       <use xlink:href="#m474495c84b" x="54" y="216.84628" style="stroke: #000000; stroke-width: 0.8"/>
      </g>
     </g>
     <g id="text_11">
      <!-- 0.005 -->
      <g transform="translate(18.371875 220.645499) scale(0.1 -0.1)">
       <defs>
        <path id="DejaVuSans-35" d="M 691 4666 
L 3169 4666 
L 3169 4134 
L 1269 4134 
L 1269 2991 
Q 1406 3038 1543 3061 
Q 1681 3084 1819 3084 
Q 2600 3084 3056 2656 
Q 3513 2228 3513 1497 
Q 3513 744 3044 326 
Q 2575 -91 1722 -91 
Q 1428 -91 1123 -41 
Q 819 9 494 109 
L 494 744 
Q 775 591 1075 516 
Q 1375 441 1709 441 
Q 2250 441 2565 725 
Q 2881 1009 2881 1497 
Q 2881 1984 2565 2268 
Q 2250 2553 1709 2553 
Q 1456 2553 1204 2497 
Q 953 2441 691 2322 
L 691 4666 
z
" transform="scale(0.015625)"/>
       </defs>
       <use xlink:href="#DejaVuSans-30"/>
       <use xlink:href="#DejaVuSans-2e" x="63.623047"/>
       <use xlink:href="#DejaVuSans-30" x="95.410156"/>
       <use xlink:href="#DejaVuSans-30" x="159.033203"/>
       <use xlink:href="#DejaVuSans-35" x="222.65625"/>
      </g>
     </g>
    </g>
    <g id="ytick_3">
     <g id="line2d_11">
      <g>
       <use xlink:href="#m474495c84b" x="54" y="191.64776" style="stroke: #000000; stroke-width: 0.8"/>
      </g>
     </g>
     <g id="text_12">
      <!-- 0.010 -->
      <g transform="translate(18.371875 195.446979) scale(0.1 -0.1)">
       <use xlink:href="#DejaVuSans-30"/>
       <use xlink:href="#DejaVuSans-2e" x="63.623047"/>
       <use xlink:href="#DejaVuSans-30" x="95.410156"/>
       <use xlink:href="#DejaVuSans-31" x="159.033203"/>
       <use xlink:href="#DejaVuSans-30" x="222.65625"/>
      </g>
     </g>
    </g>
    <g id="ytick_4">
     <g id="line2d_12">
      <g>
       <use xlink:href="#m474495c84b" x="54" y="166.44924" style="stroke: #000000; stroke-width: 0.8"/>
      </g>
     </g>
     <g id="text_13">
      <!-- 0.015 -->
      <g transform="translate(18.371875 170.248459) scale(0.1 -0.1)">
       <use xlink:href="#DejaVuSans-30"/>
       <use xlink:href="#DejaVuSans-2e" x="63.623047"/>
       <use xlink:href="#DejaVuSans-30" x="95.410156"/>
       <use xlink:href="#DejaVuSans-31" x="159.033203"/>
       <use xlink:href="#DejaVuSans-35" x="222.65625"/>
      </g>
     </g>
    </g>
    <g id="ytick_5">
     <g id="line2d_13">
      <g>
       <use xlink:href="#m474495c84b" x="54" y="141.25072" style="stroke: #000000; stroke-width: 0.8"/>
      </g>
     </g>
     <g id="text_14">
      <!-- 0.020 -->
      <g transform="translate(18.371875 145.049939) scale(0.1 -0.1)">
       <use xlink:href="#DejaVuSans-30"/>
       <use xlink:href="#DejaVuSans-2e" x="63.623047"/>
       <use xlink:href="#DejaVuSans-30" x="95.410156"/>
       <use xlink:href="#DejaVuSans-32" x="159.033203"/>
       <use xlink:href="#DejaVuSans-30" x="222.65625"/>
      </g>
     </g>
    </g>
    <g id="ytick_6">
     <g id="line2d_14">
      <g>
       <use xlink:href="#m474495c84b" x="54" y="116.0522" style="stroke: #000000; stroke-width: 0.8"/>
      </g>
     </g>
     <g id="text_15">
      <!-- 0.025 -->
      <g transform="translate(18.371875 119.851419) scale(0.1 -0.1)">
       <use xlink:href="#DejaVuSans-30"/>
       <use xlink:href="#DejaVuSans-2e" x="63.623047"/>
       <use xlink:href="#DejaVuSans-30" x="95.410156"/>
       <use xlink:href="#DejaVuSans-32" x="159.033203"/>
       <use xlink:href="#DejaVuSans-35" x="222.65625"/>
      </g>
     </g>
    </g>
    <g id="ytick_7">
     <g id="line2d_15">
      <g>
       <use xlink:href="#m474495c84b" x="54" y="90.853681" style="stroke: #000000; stroke-width: 0.8"/>
      </g>
     </g>
     <g id="text_16">
      <!-- 0.030 -->
      <g transform="translate(18.371875 94.652899) scale(0.1 -0.1)">
       <defs>
        <path id="DejaVuSans-33" d="M 2597 2516 
Q 3050 2419 3304 2112 
Q 3559 1806 3559 1356 
Q 3559 666 3084 287 
Q 2609 -91 1734 -91 
Q 1441 -91 1130 -33 
Q 819 25 488 141 
L 488 750 
Q 750 597 1062 519 
Q 1375 441 1716 441 
Q 2309 441 2620 675 
Q 2931 909 2931 1356 
Q 2931 1769 2642 2001 
Q 2353 2234 1838 2234 
L 1294 2234 
L 1294 2753 
L 1863 2753 
Q 2328 2753 2575 2939 
Q 2822 3125 2822 3475 
Q 2822 3834 2567 4026 
Q 2313 4219 1838 4219 
Q 1578 4219 1281 4162 
Q 984 4106 628 3988 
L 628 4550 
Q 988 4650 1302 4700 
Q 1616 4750 1894 4750 
Q 2613 4750 3031 4423 
Q 3450 4097 3450 3541 
Q 3450 3153 3228 2886 
Q 3006 2619 2597 2516 
z
" transform="scale(0.015625)"/>
       </defs>
       <use xlink:href="#DejaVuSans-30"/>
       <use xlink:href="#DejaVuSans-2e" x="63.623047"/>
       <use xlink:href="#DejaVuSans-30" x="95.410156"/>
       <use xlink:href="#DejaVuSans-33" x="159.033203"/>
       <use xlink:href="#DejaVuSans-30" x="222.65625"/>
      </g>
     </g>
    </g>
    <g id="ytick_8">
     <g id="line2d_16">
      <g>
       <use xlink:href="#m474495c84b" x="54" y="65.655161" style="stroke: #000000; stroke-width: 0.8"/>
      </g>
     </g>
     <g id="text_17">
      <!-- 0.035 -->
      <g transform="translate(18.371875 69.454379) scale(0.1 -0.1)">
       <use xlink:href="#DejaVuSans-30"/>
       <use xlink:href="#DejaVuSans-2e" x="63.623047"/>
       <use xlink:href="#DejaVuSans-30" x="95.410156"/>
       <use xlink:href="#DejaVuSans-33" x="159.033203"/>
       <use xlink:href="#DejaVuSans-35" x="222.65625"/>
      </g>
     </g>
    </g>
    <g id="ytick_9">
     <g id="line2d_17">
      <g>
       <use xlink:href="#m474495c84b" x="54" y="40.456641" style="stroke: #000000; stroke-width: 0.8"/>
      </g>
     </g>
     <g id="text_18">
      <!-- 0.040 -->
      <g transform="translate(18.371875 44.25586) scale(0.1 -0.1)">
       <use xlink:href="#DejaVuSans-30"/>
       <use xlink:href="#DejaVuSans-2e" x="63.623047"/>
       <use xlink:href="#DejaVuSans-30" x="95.410156"/>
       <use xlink:href="#DejaVuSans-34" x="159.033203"/>
       <use xlink:href="#DejaVuSans-30" x="222.65625"/>
      </g>
     </g>
    </g>
    <g id="text_19">
     <!-- Concentration (mol/L) -->
     <g transform="translate(11.252344 225.256172) rotate(-90) scale(0.15 -0.15)">
      <defs>
       <path id="DejaVuSans-43" d="M 4122 4306 
L 4122 3641 
Q 3803 3938 3442 4084 
Q 3081 4231 2675 4231 
Q 1875 4231 1450 3742 
Q 1025 3253 1025 2328 
Q 1025 1406 1450 917 
Q 1875 428 2675 428 
Q 3081 428 3442 575 
Q 3803 722 4122 1019 
L 4122 359 
Q 3791 134 3420 21 
Q 3050 -91 2638 -91 
Q 1578 -91 968 557 
Q 359 1206 359 2328 
Q 359 3453 968 4101 
Q 1578 4750 2638 4750 
Q 3056 4750 3426 4639 
Q 3797 4528 4122 4306 
z
" transform="scale(0.015625)"/>
       <path id="DejaVuSans-6f" d="M 1959 3097 
Q 1497 3097 1228 2736 
Q 959 2375 959 1747 
Q 959 1119 1226 758 
Q 1494 397 1959 397 
Q 2419 397 2687 759 
Q 2956 1122 2956 1747 
Q 2956 2369 2687 2733 
Q 2419 3097 1959 3097 
z
M 1959 3584 
Q 2709 3584 3137 3096 
Q 3566 2609 3566 1747 
Q 3566 888 3137 398 
Q 2709 -91 1959 -91 
Q 1206 -91 779 398 
Q 353 888 353 1747 
Q 353 2609 779 3096 
Q 1206 3584 1959 3584 
z
" transform="scale(0.015625)"/>
       <path id="DejaVuSans-6e" d="M 3513 2113 
L 3513 0 
L 2938 0 
L 2938 2094 
Q 2938 2591 2744 2837 
Q 2550 3084 2163 3084 
Q 1697 3084 1428 2787 
Q 1159 2491 1159 1978 
L 1159 0 
L 581 0 
L 581 3500 
L 1159 3500 
L 1159 2956 
Q 1366 3272 1645 3428 
Q 1925 3584 2291 3584 
Q 2894 3584 3203 3211 
Q 3513 2838 3513 2113 
z
" transform="scale(0.015625)"/>
       <path id="DejaVuSans-63" d="M 3122 3366 
L 3122 2828 
Q 2878 2963 2633 3030 
Q 2388 3097 2138 3097 
Q 1578 3097 1268 2742 
Q 959 2388 959 1747 
Q 959 1106 1268 751 
Q 1578 397 2138 397 
Q 2388 397 2633 464 
Q 2878 531 3122 666 
L 3122 134 
Q 2881 22 2623 -34 
Q 2366 -91 2075 -91 
Q 1284 -91 818 406 
Q 353 903 353 1747 
Q 353 2603 823 3093 
Q 1294 3584 2113 3584 
Q 2378 3584 2631 3529 
Q 2884 3475 3122 3366 
z
" transform="scale(0.015625)"/>
       <path id="DejaVuSans-74" d="M 1172 4494 
L 1172 3500 
L 2356 3500 
L 2356 3053 
L 1172 3053 
L 1172 1153 
Q 1172 725 1289 603 
Q 1406 481 1766 481 
L 2356 481 
L 2356 0 
L 1766 0 
Q 1100 0 847 248 
Q 594 497 594 1153 
L 594 3053 
L 172 3053 
L 172 3500 
L 594 3500 
L 594 4494 
L 1172 4494 
z
" transform="scale(0.015625)"/>
       <path id="DejaVuSans-72" d="M 2631 2963 
Q 2534 3019 2420 3045 
Q 2306 3072 2169 3072 
Q 1681 3072 1420 2755 
Q 1159 2438 1159 1844 
L 1159 0 
L 581 0 
L 581 3500 
L 1159 3500 
L 1159 2956 
Q 1341 3275 1631 3429 
Q 1922 3584 2338 3584 
Q 2397 3584 2469 3576 
Q 2541 3569 2628 3553 
L 2631 2963 
z
" transform="scale(0.015625)"/>
       <path id="DejaVuSans-61" d="M 2194 1759 
Q 1497 1759 1228 1600 
Q 959 1441 959 1056 
Q 959 750 1161 570 
Q 1363 391 1709 391 
Q 2188 391 2477 730 
Q 2766 1069 2766 1631 
L 2766 1759 
L 2194 1759 
z
M 3341 1997 
L 3341 0 
L 2766 0 
L 2766 531 
Q 2569 213 2275 61 
Q 1981 -91 1556 -91 
Q 1019 -91 701 211 
Q 384 513 384 1019 
Q 384 1609 779 1909 
Q 1175 2209 1959 2209 
L 2766 2209 
L 2766 2266 
Q 2766 2663 2505 2880 
Q 2244 3097 1772 3097 
Q 1472 3097 1187 3025 
Q 903 2953 641 2809 
L 641 3341 
Q 956 3463 1253 3523 
Q 1550 3584 1831 3584 
Q 2591 3584 2966 3190 
Q 3341 2797 3341 1997 
z
" transform="scale(0.015625)"/>
       <path id="DejaVuSans-6c" d="M 603 4863 
L 1178 4863 
L 1178 0 
L 603 0 
L 603 4863 
z
" transform="scale(0.015625)"/>
       <path id="DejaVuSans-2f" d="M 1625 4666 
L 2156 4666 
L 531 -594 
L 0 -594 
L 1625 4666 
z
" transform="scale(0.015625)"/>
       <path id="DejaVuSans-4c" d="M 628 4666 
L 1259 4666 
L 1259 531 
L 3531 531 
L 3531 0 
L 628 0 
L 628 4666 
z
" transform="scale(0.015625)"/>
      </defs>
      <use xlink:href="#DejaVuSans-43"/>
      <use xlink:href="#DejaVuSans-6f" x="69.824219"/>
      <use xlink:href="#DejaVuSans-6e" x="131.005859"/>
      <use xlink:href="#DejaVuSans-63" x="194.384766"/>
      <use xlink:href="#DejaVuSans-65" x="249.365234"/>
      <use xlink:href="#DejaVuSans-6e" x="310.888672"/>
      <use xlink:href="#DejaVuSans-74" x="374.267578"/>
      <use xlink:href="#DejaVuSans-72" x="413.476562"/>
      <use xlink:href="#DejaVuSans-61" x="454.589844"/>
      <use xlink:href="#DejaVuSans-74" x="515.869141"/>
      <use xlink:href="#DejaVuSans-69" x="555.078125"/>
      <use xlink:href="#DejaVuSans-6f" x="582.861328"/>
      <use xlink:href="#DejaVuSans-6e" x="644.042969"/>
      <use xlink:href="#DejaVuSans-20" x="707.421875"/>
      <use xlink:href="#DejaVuSans-28" x="739.208984"/>
      <use xlink:href="#DejaVuSans-6d" x="778.222656"/>
      <use xlink:href="#DejaVuSans-6f" x="875.634766"/>
      <use xlink:href="#DejaVuSans-6c" x="936.816406"/>
      <use xlink:href="#DejaVuSans-2f" x="964.599609"/>
      <use xlink:href="#DejaVuSans-4c" x="998.291016"/>
      <use xlink:href="#DejaVuSans-29" x="1054.003906"/>
     </g>
    </g>
   </g>
   <g id="line2d_18">
    <path d="M 69.218182 242.0448 
L 98.842909 242.010076 
L 101.074909 241.834644 
L 102.901091 241.48313 
L 104.727273 240.91704 
L 106.959273 239.97387 
L 109.8 238.501318 
L 114.872727 235.558444 
L 122.177455 231.381789 
L 128.670545 227.952155 
L 142.062545 220.95699 
L 147.946909 217.574734 
L 153.628364 214.051598 
L 159.512727 210.140682 
L 166.005818 205.547067 
L 173.310545 200.095176 
L 183.456 192.213316 
L 196.239273 182.315156 
L 202.326545 177.88202 
L 207.399273 174.456987 
L 211.660364 171.834431 
L 215.515636 169.706799 
L 219.168 167.940685 
L 222.617455 166.523304 
L 225.864 165.433312 
L 228.907636 164.642607 
L 231.951273 164.088814 
L 234.792 163.795322 
L 237.632727 163.724756 
L 240.473455 163.882282 
L 243.314182 164.271045 
L 246.154909 164.892072 
L 248.995636 165.744226 
L 251.836364 166.824144 
L 254.88 168.22758 
L 257.923636 169.87643 
L 261.170182 171.891687 
L 264.619636 174.302782 
L 268.272 177.130469 
L 272.127273 180.383724 
L 272.127273 180.561762 
L 272.533091 180.74043 
L 272.127273 180.919722 
L 274.156364 181.280162 
L 273.344727 181.461294 
L 274.156364 181.64302 
L 273.750545 181.825342 
L 274.156364 182.008248 
L 274.156364 182.375773 
L 274.562182 182.560388 
L 274.156364 182.745551 
L 276.185455 183.117522 
L 275.373818 183.304308 
L 276.185455 183.491619 
L 275.779636 183.679454 
L 276.185455 183.867793 
L 276.185455 184.245982 
L 276.591273 184.435813 
L 276.185455 184.626127 
L 278.214545 185.008162 
L 277.402909 185.199877 
L 278.214545 185.392041 
L 277.808727 185.584648 
L 278.214545 185.777689 
L 278.214545 186.165056 
L 278.620364 186.359362 
L 278.214545 186.554081 
L 280.243636 186.944693 
L 279.432 187.140581 
L 280.243636 187.336848 
L 279.837818 187.533477 
L 280.243636 187.730469 
L 280.243636 188.125506 
L 280.649455 188.323536 
L 280.243636 188.521894 
L 282.272727 188.919567 
L 281.461091 189.118872 
L 282.272727 189.318474 
L 281.866909 189.518364 
L 282.272727 189.718546 
L 282.272727 190.119722 
L 282.678545 190.320705 
L 282.272727 190.521941 
L 284.301818 190.925142 
L 283.490182 191.127093 
L 284.301818 191.329266 
L 283.896 191.531655 
L 284.301818 191.734251 
L 284.301818 192.140033 
L 284.707636 192.343204 
L 284.301818 192.546551 
L 286.330909 192.953739 
L 285.519273 193.15757 
L 286.330909 193.361547 
L 285.925091 193.565665 
L 286.330909 193.769909 
L 286.330909 194.17876 
L 286.736727 194.383352 
L 286.330909 194.588039 
L 288.36 194.997697 
L 287.548364 195.202641 
L 288.36 195.407656 
L 287.954182 195.612737 
L 288.36 195.817868 
L 288.36 196.228271 
L 288.765818 196.433523 
L 288.36 196.638806 
L 290.389091 197.049406 
L 289.577455 197.254713 
L 290.389091 197.46002 
L 289.983273 197.665308 
L 290.389091 197.87058 
L 290.389091 198.281039 
L 290.794909 198.48621 
L 290.389091 198.691331 
L 292.418182 199.101397 
L 291.606545 199.306331 
L 292.418182 199.511185 
L 292.012364 199.715953 
L 292.418182 199.920631 
L 292.418182 200.329683 
L 292.824 200.534043 
L 292.418182 200.738282 
L 294.447273 201.146372 
L 293.635636 201.350208 
L 294.447273 201.553893 
L 294.041455 201.757426 
L 294.447273 201.960799 
L 294.447273 202.367029 
L 294.853091 202.569872 
L 294.447273 202.772529 
L 296.476364 203.177247 
L 295.664727 203.379294 
L 296.476364 203.581124 
L 296.070545 203.782732 
L 296.476364 203.984114 
L 296.476364 204.386161 
L 296.882182 204.586812 
L 296.476364 204.787211 
L 298.505455 205.187217 
L 297.693818 205.386815 
L 298.505455 205.58613 
L 298.099636 205.785158 
L 298.505455 205.983894 
L 298.505455 206.380458 
L 298.911273 206.578276 
L 298.505455 206.775777 
L 300.534545 207.169806 
L 299.722909 207.36632 
L 300.534545 207.56249 
L 300.128727 207.758313 
L 300.534545 207.953783 
L 300.534545 208.343644 
L 300.940364 208.538021 
L 300.534545 208.732024 
L 302.563636 209.118877 
L 301.752 209.311716 
L 302.563636 209.504157 
L 302.157818 209.69619 
L 302.563636 209.88782 
L 302.563636 210.269829 
L 302.969455 210.460199 
L 302.563636 210.650135 
L 304.592727 211.028698 
L 303.781091 211.217314 
L 304.592727 211.405481 
L 304.186909 211.59319 
L 304.592727 211.78044 
L 304.592727 212.153534 
L 304.998545 212.339368 
L 304.592727 212.524729 
L 306.621818 212.893978 
L 305.810182 213.077867 
L 306.621818 213.261256 
L 306.216 213.444142 
L 306.621818 213.626519 
L 306.621818 213.989735 
L 307.027636 214.17056 
L 306.621818 214.350866 
L 308.650909 214.709874 
L 307.839273 214.888577 
L 308.650909 215.066735 
L 308.245091 215.24435 
L 308.650909 215.421415 
L 308.650909 215.773871 
L 309.056727 215.949263 
L 308.650909 216.124085 
L 310.68 216.472027 
L 309.868364 216.64513 
L 310.68 216.817659 
L 310.274182 216.989599 
L 310.68 217.160954 
L 310.68 217.50189 
L 311.085818 217.671466 
L 310.68 217.840437 
L 312.709091 218.17657 
L 311.897455 218.343722 
L 312.709091 218.510264 
L 312.303273 218.676186 
L 312.709091 218.841494 
L 312.709091 219.170234 
L 313.114909 219.333666 
L 312.709091 219.496464 
L 314.738182 219.820164 
L 313.926545 219.981056 
L 314.738182 220.141309 
L 314.332364 220.300921 
L 314.738182 220.459884 
L 314.738182 220.775863 
L 315.144 220.932875 
L 314.738182 221.089237 
L 316.767273 221.399975 
L 315.955636 221.554356 
L 316.767273 221.708072 
L 316.361455 221.861123 
L 316.767273 222.013509 
L 316.767273 222.316264 
L 317.173091 222.466638 
L 316.767273 222.616333 
L 318.796364 222.913695 
L 317.984727 223.061359 
L 318.796364 223.208342 
L 318.390545 223.354644 
L 318.796364 223.500262 
L 318.796364 223.789435 
L 319.202182 223.932996 
L 318.796364 224.075866 
L 320.825455 224.359531 
L 320.013818 224.500325 
L 320.825455 224.640429 
L 320.419636 224.779837 
L 320.825455 224.91855 
L 320.825455 225.193889 
L 321.231273 225.330516 
L 320.825455 225.466437 
L 322.854545 225.736192 
L 322.042909 225.870016 
L 322.854545 226.003145 
L 322.448727 226.135568 
L 322.854545 226.267291 
L 322.854545 226.528635 
L 323.260364 226.658251 
L 322.854545 226.787162 
L 324.883636 227.042881 
L 324.072 227.169685 
L 324.883636 227.295784 
L 324.477818 227.421182 
L 324.883636 227.545874 
L 324.883636 227.793152 
L 325.289455 227.915738 
L 324.883636 228.037618 
L 326.912727 228.279272 
L 326.101091 228.399045 
L 326.912727 228.518118 
L 326.506909 228.636491 
L 326.912727 228.754158 
L 326.912727 228.987396 
L 327.318545 229.102966 
L 326.912727 229.217841 
L 328.941818 229.44549 
L 328.130182 229.558268 
L 328.941818 229.670351 
L 328.536 229.781744 
L 328.941818 230.002437 
L 328.941818 230.111748 
L 329.347636 230.220364 
L 328.941818 230.328289 
L 330.970909 230.542079 
L 330.159273 230.647938 
L 330.970909 230.753116 
L 330.565091 230.857604 
L 330.970909 231.06454 
L 330.970909 231.166982 
L 331.376727 231.268744 
L 330.970909 231.36983 
L 333 231.569972 
L 332.188364 231.669027 
L 333 231.767412 
L 332.594182 231.865127 
L 333 232.058546 
L 333 232.15426 
L 333.405818 232.249304 
L 333 232.343682 
L 335.029091 232.530464 
L 334.217455 232.622867 
L 335.029091 232.714609 
L 334.623273 232.805702 
L 335.029091 232.985927 
L 335.029091 233.075064 
L 335.434909 233.163556 
L 335.029091 233.251403 
L 337.058182 233.425172 
L 336.246545 233.511094 
L 337.058182 233.596381 
L 336.652364 233.681033 
L 337.058182 233.848442 
L 337.058182 233.931199 
L 337.464 234.013331 
L 337.058182 234.094843 
L 339.087273 234.255998 
L 338.275636 234.335645 
L 339.087273 234.414683 
L 338.681455 234.493101 
L 339.087273 234.648117 
L 339.087273 234.724715 
L 339.493091 234.800709 
L 339.087273 234.876103 
L 341.116364 235.171712 
L 340.710545 235.244133 
L 341.116364 235.387225 
L 341.116364 235.457897 
L 341.522182 235.527989 
L 341.116364 235.597507 
L 343.145455 235.869867 
L 342.739636 235.936543 
L 343.145455 236.068215 
L 343.145455 236.133217 
L 343.551273 236.19767 
L 343.145455 236.261568 
L 345.174545 236.511724 
L 344.768727 236.572916 
L 345.174545 236.693703 
L 345.174545 236.753302 
L 345.580364 236.812378 
L 345.174545 236.870934 
L 347.203636 237.099978 
L 346.797818 237.155964 
L 347.203636 237.211442 
L 347.203636 237.320899 
L 349.232727 237.637428 
L 348.826909 237.68849 
L 349.232727 237.739073 
L 349.232727 237.838819 
L 351.261818 238.126929 
L 350.856 238.173355 
L 351.261818 238.219332 
L 351.261818 238.309951 
L 353.290909 238.57137 
L 352.885091 238.613452 
L 353.290909 238.65511 
L 353.290909 238.737182 
L 355.32 238.97365 
L 354.914182 239.011669 
L 355.32 239.049301 
L 355.32 239.123399 
L 357.349091 239.404761 
L 357.349091 239.471456 
L 359.378182 239.724303 
L 359.378182 239.784145 
L 361.407273 240.037587 
L 361.407273 240.064201 
L 363.436364 240.290519 
L 363.436364 240.314246 
L 365.871273 240.557649 
L 365.465455 240.578241 
L 366.277091 240.598586 
L 367.494545 240.715618 
L 367.494545 240.734305 
L 369.929455 240.92532 
L 369.523636 240.941417 
L 370.335273 240.957312 
L 371.958545 241.077449 
L 371.552727 241.09162 
L 373.581818 241.119409 
L 372.770182 241.133037 
L 373.581818 241.185802 
L 373.581818 241.185802 
" clip-path="url(#pad077d809e)" style="fill: none; stroke: #1f77b4; stroke-width: 1.5; stroke-linecap: square"/>
   </g>
   <g id="line2d_19">
    <path d="M 69.218182 242.0448 
L 100.060364 241.946022 
L 102.089455 241.667326 
L 103.915636 241.19502 
L 105.944727 240.43276 
L 108.379636 239.266567 
L 112.032 237.22904 
L 123.597818 230.611087 
L 130.902545 226.810425 
L 141.048 221.514432 
L 146.932364 218.176878 
L 152.613818 214.699366 
L 158.498182 210.833016 
L 164.788364 206.428436 
L 171.890182 201.174645 
L 181.021091 194.122507 
L 197.050909 181.708159 
L 202.935273 177.456095 
L 207.805091 174.196177 
L 212.066182 171.598689 
L 215.921455 169.497878 
L 219.573818 167.760692 
L 223.023273 166.373599 
L 226.269818 165.314536 
L 229.313455 164.55471 
L 232.357091 164.033377 
L 235.197818 163.771343 
L 238.038545 163.733097 
L 240.879273 163.923512 
L 243.72 164.345441 
L 246.560727 164.99961 
L 249.401455 165.884562 
L 252.242182 166.996618 
L 255.285818 168.433392 
L 258.329455 170.114088 
L 261.576 172.161266 
L 265.025455 174.603501 
L 268.677818 177.46057 
L 272.127273 180.383644 
L 272.127273 180.561681 
L 272.533091 180.740349 
L 272.127273 180.919646 
L 274.156364 181.280086 
L 273.344727 181.461218 
L 274.156364 181.642945 
L 273.750545 181.825266 
L 274.156364 182.008167 
L 274.156364 182.375698 
L 274.562182 182.560312 
L 274.156364 182.745476 
L 276.185455 183.117446 
L 275.373818 183.304233 
L 276.185455 183.491544 
L 275.779636 183.679378 
L 276.185455 183.867722 
L 276.185455 184.245907 
L 276.591273 184.435737 
L 276.185455 184.626051 
L 278.214545 185.008091 
L 277.402909 185.199802 
L 278.214545 185.391965 
L 277.808727 185.584573 
L 278.214545 185.777619 
L 278.214545 186.164986 
L 278.620364 186.359291 
L 278.214545 186.55401 
L 280.243636 186.944628 
L 279.432 187.140511 
L 280.243636 187.336777 
L 279.837818 187.533406 
L 280.243636 187.730403 
L 280.243636 188.125435 
L 280.649455 188.323466 
L 280.243636 188.521823 
L 282.272727 188.919501 
L 281.461091 189.118806 
L 282.272727 189.318404 
L 281.866909 189.518299 
L 282.272727 189.718476 
L 282.272727 190.119656 
L 282.678545 190.32064 
L 282.272727 190.521875 
L 284.301818 190.925082 
L 283.490182 191.127028 
L 284.301818 191.329205 
L 283.896 191.53159 
L 284.301818 191.734186 
L 284.301818 192.139968 
L 284.707636 192.343138 
L 284.301818 192.546485 
L 286.330909 192.953678 
L 285.519273 193.157509 
L 286.330909 193.361486 
L 285.925091 193.565599 
L 286.330909 193.769848 
L 286.330909 194.178699 
L 286.736727 194.383291 
L 286.330909 194.587984 
L 288.36 194.997636 
L 287.548364 195.202581 
L 288.36 195.407601 
L 287.954182 195.612677 
L 288.36 195.817813 
L 288.36 196.228216 
L 288.765818 196.433468 
L 288.36 196.638745 
L 290.389091 197.04935 
L 289.577455 197.254658 
L 290.389091 197.45996 
L 289.983273 197.665252 
L 290.389091 197.870525 
L 290.389091 198.280983 
L 290.794909 198.486155 
L 290.389091 198.691276 
L 292.418182 199.101346 
L 291.606545 199.306276 
L 292.418182 199.51113 
L 292.012364 199.715903 
L 292.418182 199.92058 
L 292.418182 200.329628 
L 292.824 200.533988 
L 292.418182 200.738227 
L 294.447273 201.146317 
L 293.635636 201.350158 
L 294.447273 201.553843 
L 294.041455 201.757376 
L 294.447273 201.960748 
L 294.447273 202.366979 
L 294.853091 202.569827 
L 294.447273 202.772478 
L 296.476364 203.177197 
L 295.664727 203.379243 
L 296.476364 203.581079 
L 296.070545 203.782687 
L 296.476364 203.984068 
L 296.476364 204.386116 
L 296.882182 204.586767 
L 296.476364 204.787165 
L 298.505455 205.187172 
L 297.693818 205.386769 
L 298.505455 205.586084 
L 298.099636 205.785112 
L 298.505455 205.983848 
L 298.505455 206.380412 
L 298.911273 206.578231 
L 298.505455 206.775732 
L 300.534545 207.169761 
L 299.722909 207.366274 
L 300.534545 207.562445 
L 300.128727 207.758273 
L 300.534545 207.953742 
L 300.534545 208.343604 
L 300.940364 208.53798 
L 300.534545 208.731979 
L 302.563636 209.118831 
L 301.752 209.311671 
L 302.563636 209.504117 
L 302.157818 209.69615 
L 302.563636 209.887779 
L 302.563636 210.269789 
L 302.969455 210.460159 
L 302.563636 210.650095 
L 304.592727 211.028662 
L 303.781091 211.217278 
L 304.592727 211.405441 
L 304.186909 211.593155 
L 304.592727 211.7804 
L 304.592727 212.153494 
L 304.998545 212.339333 
L 304.592727 212.524688 
L 306.621818 212.893943 
L 305.810182 213.077831 
L 306.621818 213.261221 
L 306.216 213.444107 
L 306.621818 213.626484 
L 306.621818 213.9897 
L 307.027636 214.170525 
L 306.621818 214.35083 
L 308.650909 214.709844 
L 307.839273 214.888541 
L 308.650909 215.0667 
L 308.245091 215.244314 
L 308.650909 215.421379 
L 308.650909 215.773841 
L 309.056727 215.949233 
L 308.650909 216.124055 
L 310.68 216.471991 
L 309.868364 216.6451 
L 310.68 216.817624 
L 310.274182 216.989569 
L 310.68 217.160924 
L 310.68 217.50186 
L 311.085818 217.671436 
L 310.68 217.840407 
L 312.709091 218.17654 
L 311.897455 218.343697 
L 312.709091 218.510234 
L 312.303273 218.676161 
L 312.709091 218.841463 
L 312.709091 219.170203 
L 313.114909 219.333636 
L 312.709091 219.496439 
L 314.738182 219.820139 
L 313.926545 219.981031 
L 314.738182 220.141284 
L 314.332364 220.300891 
L 314.738182 220.459859 
L 314.738182 220.775838 
L 315.144 220.93285 
L 314.738182 221.089207 
L 316.767273 221.39995 
L 315.955636 221.554331 
L 316.767273 221.708047 
L 316.361455 221.861098 
L 316.767273 222.013483 
L 316.767273 222.316244 
L 317.173091 222.466613 
L 316.767273 222.616308 
L 318.796364 222.91367 
L 317.984727 223.061339 
L 318.796364 223.208322 
L 318.390545 223.354619 
L 318.796364 223.500236 
L 318.796364 223.789415 
L 319.202182 223.932971 
L 318.796364 224.075841 
L 320.825455 224.359511 
L 320.013818 224.500305 
L 320.825455 224.640409 
L 320.419636 224.779817 
L 320.825455 224.91853 
L 320.825455 225.193869 
L 321.231273 225.330491 
L 320.825455 225.466416 
L 322.854545 225.736172 
L 322.042909 225.869996 
L 322.854545 226.003125 
L 322.448727 226.135548 
L 322.854545 226.267271 
L 322.854545 226.528615 
L 323.260364 226.658231 
L 322.854545 226.787141 
L 324.883636 227.042861 
L 324.072 227.169665 
L 324.883636 227.295768 
L 324.477818 227.421166 
L 324.883636 227.545859 
L 324.883636 227.793137 
L 325.289455 227.915718 
L 324.883636 228.037603 
L 326.912727 228.279257 
L 326.101091 228.39903 
L 326.912727 228.518103 
L 326.506909 228.636471 
L 326.912727 228.754143 
L 326.912727 228.98738 
L 327.318545 229.102951 
L 326.912727 229.217826 
L 328.941818 229.445474 
L 328.130182 229.558253 
L 328.941818 229.670336 
L 328.536 229.781728 
L 328.941818 230.002422 
L 328.941818 230.111733 
L 329.347636 230.220349 
L 328.941818 230.328274 
L 330.970909 230.542064 
L 330.159273 230.647928 
L 330.970909 230.753101 
L 330.565091 230.857594 
L 330.970909 231.064525 
L 330.970909 231.166967 
L 331.376727 231.268733 
L 330.970909 231.369815 
L 333 231.569957 
L 332.188364 231.669017 
L 333 231.767402 
L 332.594182 231.865117 
L 333 232.058536 
L 333 232.154245 
L 333.405818 232.249288 
L 333 232.343672 
L 335.029091 232.530454 
L 334.217455 232.622852 
L 335.029091 232.714599 
L 334.623273 232.805692 
L 335.029091 232.985917 
L 335.029091 233.075054 
L 335.434909 233.163546 
L 335.029091 233.251393 
L 337.058182 233.425162 
L 336.246545 233.511084 
L 337.058182 233.596371 
L 336.652364 233.681023 
L 337.058182 233.848432 
L 337.058182 233.931189 
L 337.464 234.013321 
L 337.058182 234.094833 
L 339.087273 234.255988 
L 338.275636 234.335635 
L 339.087273 234.414673 
L 338.681455 234.493096 
L 339.087273 234.648107 
L 339.087273 234.724705 
L 339.493091 234.800699 
L 339.087273 234.876093 
L 341.116364 235.171702 
L 340.710545 235.244128 
L 341.116364 235.387215 
L 341.116364 235.457887 
L 341.522182 235.527984 
L 341.116364 235.597502 
L 343.145455 235.869862 
L 342.739636 235.936538 
L 343.145455 236.06821 
L 343.145455 236.133212 
L 343.551273 236.19766 
L 343.145455 236.261563 
L 345.174545 236.511719 
L 344.768727 236.572911 
L 345.174545 236.693698 
L 345.174545 236.753297 
L 345.580364 236.812373 
L 345.174545 236.870924 
L 347.203636 237.099973 
L 346.797818 237.155959 
L 347.203636 237.211436 
L 347.203636 237.320889 
L 349.232727 237.637422 
L 348.826909 237.688485 
L 349.232727 237.739068 
L 349.232727 237.838814 
L 351.261818 238.126924 
L 350.856 238.17335 
L 351.261818 238.219327 
L 351.261818 238.309946 
L 353.290909 238.57137 
L 352.885091 238.613447 
L 353.290909 238.655105 
L 353.290909 238.737177 
L 355.32 238.973645 
L 354.914182 239.011664 
L 355.32 239.049296 
L 355.32 239.123394 
L 357.349091 239.404756 
L 357.349091 239.471451 
L 359.378182 239.724303 
L 359.378182 239.784145 
L 361.407273 240.037587 
L 361.407273 240.064196 
L 363.436364 240.290519 
L 363.436364 240.314246 
L 365.871273 240.557649 
L 365.465455 240.578241 
L 366.277091 240.598586 
L 367.494545 240.715618 
L 367.494545 240.734305 
L 369.929455 240.925315 
L 369.523636 240.941417 
L 370.335273 240.957312 
L 371.958545 241.077449 
L 371.552727 241.091615 
L 373.581818 241.119409 
L 372.770182 241.133037 
L 373.581818 241.185802 
L 373.581818 241.185802 
" clip-path="url(#pad077d809e)" style="fill: none; stroke: #ff7f0e; stroke-width: 1.5; stroke-linecap: square"/>
   </g>
   <g id="line2d_20">
    <path d="M 69.218182 242.0448 
L 71.044364 242.026909 
L 71.856 241.896633 
L 75.914182 242.078364 
L 92.349818 241.962149 
L 93.161455 241.720243 
L 93.770182 241.278735 
L 94.378909 240.503467 
L 94.987636 239.337557 
L 95.799273 237.182887 
L 96.813818 233.728532 
L 101.683636 215.787322 
L 103.104 211.760876 
L 104.727273 207.847218 
L 106.553455 204.065298 
L 108.988364 199.592667 
L 115.684364 188.047411 
L 120.96 178.624132 
L 127.047273 167.264498 
L 137.395636 147.89614 
L 141.250909 141.188238 
L 144.497455 135.97851 
L 147.338182 131.850806 
L 149.773091 128.696808 
L 152.005091 126.161161 
L 154.034182 124.181938 
L 155.860364 122.687182 
L 157.686545 121.480864 
L 159.309818 120.662512 
L 160.933091 120.092405 
L 162.556364 119.777958 
L 163.976727 119.717199 
L 165.397091 119.859616 
L 166.817455 120.207109 
L 168.237818 120.760539 
L 169.861091 121.644861 
L 171.484364 122.795748 
L 173.107636 124.209223 
L 174.933818 126.105901 
L 176.76 128.316295 
L 178.789091 131.123057 
L 181.021091 134.609872 
L 183.456 138.84912 
L 186.093818 143.893148 
L 189.137455 150.198654 
L 192.992727 158.73999 
L 199.282909 173.337855 
L 205.573091 187.754554 
L 209.428364 196.065333 
L 212.877818 202.980638 
L 215.921455 208.595957 
L 218.762182 213.385682 
L 221.4 217.425584 
L 224.037818 221.067798 
L 226.675636 224.316679 
L 229.110545 226.976957 
L 231.545455 229.326905 
L 233.980364 231.384692 
L 236.415273 233.171197 
L 239.053091 234.826734 
L 241.690909 236.220444 
L 244.531636 237.463059 
L 247.575273 238.53771 
L 250.821818 239.437806 
L 254.271273 240.166699 
L 258.329455 240.788911 
L 262.996364 241.27119 
L 268.677818 241.629024 
L 274.968 241.843212 
L 350.044364 242.044797 
L 373.581818 242.0448 
L 373.581818 242.0448 
" clip-path="url(#pad077d809e)" style="fill: none; stroke: #2ca02c; stroke-width: 1.5; stroke-linecap: square"/>
   </g>
   <g id="line2d_21">
    <path d="M 69.218182 242.0448 
L 92.552727 241.935438 
L 93.161455 241.724275 
L 93.770182 241.279979 
L 94.378909 240.504238 
L 94.987636 239.33927 
L 95.799273 237.186117 
L 96.813818 233.73262 
L 101.683636 215.788738 
L 103.104 211.761687 
L 104.727273 207.847576 
L 106.553455 204.065359 
L 108.988364 199.592551 
L 115.684364 188.047189 
L 120.96 178.62389 
L 127.047273 167.264226 
L 137.395636 147.895797 
L 141.250909 141.187875 
L 144.497455 135.978132 
L 147.338182 131.850407 
L 149.773091 128.696405 
L 152.005091 126.160748 
L 154.034182 124.181525 
L 155.860364 122.686759 
L 157.686545 121.48044 
L 159.309818 120.662088 
L 160.933091 120.091982 
L 162.556364 119.777535 
L 163.976727 119.716781 
L 165.397091 119.859198 
L 166.817455 120.206696 
L 168.237818 120.760131 
L 169.861091 121.644458 
L 171.484364 122.79535 
L 173.107636 124.208835 
L 174.933818 126.105518 
L 176.76 128.315922 
L 178.789091 131.122694 
L 181.021091 134.609524 
L 183.456 138.848792 
L 186.093818 143.892841 
L 189.137455 150.198367 
L 192.992727 158.739738 
L 199.282909 173.337654 
L 205.573091 187.754397 
L 209.428364 196.065202 
L 212.877818 202.980527 
L 215.921455 208.595866 
L 218.762182 213.385601 
L 221.4 217.425513 
L 224.037818 221.067743 
L 226.675636 224.316628 
L 229.110545 226.976917 
L 231.545455 229.32687 
L 233.980364 231.384662 
L 236.415273 233.171176 
L 239.053091 234.826719 
L 241.690909 236.220429 
L 244.531636 237.463049 
L 247.575273 238.5377 
L 250.821818 239.437801 
L 254.271273 240.166694 
L 258.329455 240.788911 
L 262.996364 241.271185 
L 268.677818 241.629024 
L 274.968 241.843212 
L 350.044364 242.044797 
L 373.581818 242.0448 
L 373.581818 242.0448 
" clip-path="url(#pad077d809e)" style="fill: none; stroke: #d62728; stroke-width: 1.5; stroke-linecap: square"/>
   </g>
   <g id="line2d_22">
    <path d="M 69.218182 242.0448 
L 69.826909 242.017888 
L 70.638545 242.084412 
L 71.450182 242.098221 
L 72.464727 241.253072 
L 73.073455 240.096339 
L 76.117091 233.028316 
L 77.131636 231.525658 
L 78.146182 230.411344 
L 79.363636 229.450302 
L 80.581091 228.778394 
L 82.001455 228.241464 
L 83.827636 227.803564 
L 86.262545 227.480448 
L 87.48 227.386473 
L 87.682909 225.80832 
L 88.494545 215.020657 
L 89.712 195.014504 
L 93.364364 131.552763 
L 94.784727 111.302622 
L 96.002182 96.716434 
L 97.219636 84.586562 
L 98.437091 74.647857 
L 99.654545 66.603184 
L 100.872 60.176604 
L 101.886545 55.882358 
L 102.901091 52.424285 
L 103.915636 49.69967 
L 104.930182 47.621139 
L 105.944727 46.114701 
L 106.756364 45.279083 
L 107.568 44.741871 
L 108.379636 44.47895 
L 109.191273 44.469178 
L 110.002909 44.693943 
L 110.814545 45.136848 
L 111.829091 45.975238 
L 112.843636 47.106954 
L 114.061091 48.821804 
L 115.481455 51.273569 
L 116.901818 54.168491 
L 118.525091 57.969068 
L 120.351273 62.808993 
L 122.380364 68.806175 
L 124.815273 76.741129 
L 127.656 86.827118 
L 131.105455 99.953068 
L 136.584 121.834459 
L 143.28 148.376575 
L 147.135273 162.723256 
L 150.381818 173.965117 
L 153.222545 183.056557 
L 155.860364 190.82016 
L 158.498182 197.902859 
L 160.933091 203.829057 
L 163.368 209.17384 
L 165.6 213.57592 
L 167.832 217.521157 
L 170.064 221.032626 
L 172.296 224.136912 
L 174.528 226.863044 
L 176.76 229.241497 
L 178.992 231.303351 
L 181.224 233.079514 
L 183.658909 234.726696 
L 186.093818 236.107096 
L 188.731636 237.34201 
L 191.572364 238.414434 
L 194.616 239.31764 
L 198.065455 240.093971 
L 201.920727 240.720986 
L 206.384727 241.214206 
L 211.863273 241.587195 
L 218.762182 241.83666 
L 229.110545 241.985331 
L 251.430545 242.041781 
L 373.581818 242.0448 
L 373.581818 242.0448 
" clip-path="url(#pad077d809e)" style="fill: none; stroke: #9467bd; stroke-width: 1.5; stroke-linecap: square"/>
   </g>
   <g id="line2d_23">
    <path d="M 69.218182 242.0448 
L 71.653091 241.955597 
L 72.058909 241.735866 
L 72.464727 241.276724 
L 73.073455 240.098315 
L 76.117091 233.00403 
L 77.131636 231.505101 
L 78.146182 230.39506 
L 79.363636 229.43855 
L 80.581091 228.770179 
L 82.001455 228.236238 
L 83.827636 227.800873 
L 86.262545 227.479677 
L 87.48 227.386282 
L 87.682909 225.807695 
L 88.494545 215.021176 
L 89.712 195.01711 
L 93.364364 131.557061 
L 94.784727 111.305827 
L 96.002182 96.718717 
L 97.219636 84.588401 
L 98.437091 74.649687 
L 99.654545 66.60521 
L 100.872 60.178847 
L 101.886545 55.884747 
L 102.901091 52.426784 
L 103.915636 49.70224 
L 104.930182 47.623755 
L 105.944727 46.117347 
L 106.756364 45.281744 
L 107.568 44.744537 
L 108.379636 44.481616 
L 109.191273 44.471839 
L 110.002909 44.696599 
L 110.814545 45.139488 
L 111.829091 45.977863 
L 112.843636 47.109559 
L 114.061091 48.824384 
L 115.481455 51.276109 
L 116.901818 54.170991 
L 118.525091 57.971507 
L 120.351273 62.811367 
L 122.380364 68.808468 
L 124.815273 76.743316 
L 127.656 86.82917 
L 131.105455 99.954948 
L 136.584 121.836052 
L 143.28 148.377819 
L 147.135273 162.724314 
L 150.381818 173.966029 
L 153.222545 183.057348 
L 155.860364 190.820851 
L 158.498182 197.903454 
L 160.933091 203.829571 
L 163.368 209.174283 
L 165.6 213.576308 
L 167.832 217.521494 
L 170.064 221.032913 
L 172.296 224.137159 
L 174.528 226.863251 
L 176.76 229.241674 
L 178.992 231.303502 
L 181.224 233.07964 
L 183.658909 234.726797 
L 186.093818 236.107177 
L 188.731636 237.342076 
L 191.572364 238.414484 
L 194.616 239.31768 
L 198.065455 240.093996 
L 201.920727 240.721001 
L 206.384727 241.214216 
L 211.863273 241.587195 
L 218.762182 241.83666 
L 229.110545 241.985331 
L 251.430545 242.041781 
L 373.581818 242.0448 
L 373.581818 242.0448 
" clip-path="url(#pad077d809e)" style="fill: none; stroke: #8c564b; stroke-width: 1.5; stroke-linecap: square"/>
   </g>
   <g id="patch_3">
    <path d="M 54 252 
L 54 34.56 
" style="fill: none; stroke: #000000; stroke-width: 0.8; stroke-linejoin: miter; stroke-linecap: square"/>
   </g>
   <g id="patch_4">
    <path d="M 388.8 252 
L 388.8 34.56 
" style="fill: none; stroke: #000000; stroke-width: 0.8; stroke-linejoin: miter; stroke-linecap: square"/>
   </g>
   <g id="patch_5">
    <path d="M 54 252 
L 388.8 252 
" style="fill: none; stroke: #000000; stroke-width: 0.8; stroke-linejoin: miter; stroke-linecap: square"/>
   </g>
   <g id="patch_6">
    <path d="M 54 34.56 
L 388.8 34.56 
" style="fill: none; stroke: #000000; stroke-width: 0.8; stroke-linejoin: miter; stroke-linecap: square"/>
   </g>
   <g id="legend_1">
    <g id="patch_7">
     <path d="M 274.595312 130.62875 
L 381.8 130.62875 
Q 383.8 130.62875 383.8 128.62875 
L 383.8 41.56 
Q 383.8 39.56 381.8 39.56 
L 274.595312 39.56 
Q 272.595312 39.56 272.595312 41.56 
L 272.595312 128.62875 
Q 272.595312 130.62875 274.595312 130.62875 
z
" style="fill: #ffffff; opacity: 0.8; stroke: #cccccc; stroke-linejoin: miter"/>
    </g>
    <g id="line2d_24">
     <path d="M 276.595312 47.658437 
L 286.595312 47.658437 
L 296.595312 47.658437 
" style="fill: none; stroke: #1f77b4; stroke-width: 1.5; stroke-linecap: square"/>
    </g>
    <g id="text_20">
     <!-- c1 - #Cells = 2 -->
     <g transform="translate(304.595312 51.158437) scale(0.1 -0.1)">
      <defs>
       <path id="DejaVuSans-2d" d="M 313 2009 
L 1997 2009 
L 1997 1497 
L 313 1497 
L 313 2009 
z
" transform="scale(0.015625)"/>
       <path id="DejaVuSans-23" d="M 3272 2816 
L 2363 2816 
L 2100 1772 
L 3016 1772 
L 3272 2816 
z
M 2803 4594 
L 2478 3297 
L 3391 3297 
L 3719 4594 
L 4219 4594 
L 3897 3297 
L 4872 3297 
L 4872 2816 
L 3775 2816 
L 3519 1772 
L 4513 1772 
L 4513 1294 
L 3397 1294 
L 3072 0 
L 2572 0 
L 2894 1294 
L 1978 1294 
L 1656 0 
L 1153 0 
L 1478 1294 
L 494 1294 
L 494 1772 
L 1594 1772 
L 1856 2816 
L 850 2816 
L 850 3297 
L 1978 3297 
L 2297 4594 
L 2803 4594 
z
" transform="scale(0.015625)"/>
       <path id="DejaVuSans-3d" d="M 678 2906 
L 4684 2906 
L 4684 2381 
L 678 2381 
L 678 2906 
z
M 678 1631 
L 4684 1631 
L 4684 1100 
L 678 1100 
L 678 1631 
z
" transform="scale(0.015625)"/>
      </defs>
      <use xlink:href="#DejaVuSans-63"/>
      <use xlink:href="#DejaVuSans-31" x="54.980469"/>
      <use xlink:href="#DejaVuSans-20" x="118.603516"/>
      <use xlink:href="#DejaVuSans-2d" x="150.390625"/>
      <use xlink:href="#DejaVuSans-20" x="186.474609"/>
      <use xlink:href="#DejaVuSans-23" x="218.261719"/>
      <use xlink:href="#DejaVuSans-43" x="302.050781"/>
      <use xlink:href="#DejaVuSans-65" x="371.875"/>
      <use xlink:href="#DejaVuSans-6c" x="433.398438"/>
      <use xlink:href="#DejaVuSans-6c" x="461.181641"/>
      <use xlink:href="#DejaVuSans-73" x="488.964844"/>
      <use xlink:href="#DejaVuSans-20" x="541.064453"/>
      <use xlink:href="#DejaVuSans-3d" x="572.851562"/>
      <use xlink:href="#DejaVuSans-20" x="656.640625"/>
      <use xlink:href="#DejaVuSans-32" x="688.427734"/>
     </g>
    </g>
    <g id="line2d_25">
     <path d="M 276.595312 62.336562 
L 286.595312 62.336562 
L 296.595312 62.336562 
" style="fill: none; stroke: #ff7f0e; stroke-width: 1.5; stroke-linecap: square"/>
    </g>
    <g id="text_21">
     <!-- c1 - #Cells = 8 -->
     <g transform="translate(304.595312 65.836562) scale(0.1 -0.1)">
      <use xlink:href="#DejaVuSans-63"/>
      <use xlink:href="#DejaVuSans-31" x="54.980469"/>
      <use xlink:href="#DejaVuSans-20" x="118.603516"/>
      <use xlink:href="#DejaVuSans-2d" x="150.390625"/>
      <use xlink:href="#DejaVuSans-20" x="186.474609"/>
      <use xlink:href="#DejaVuSans-23" x="218.261719"/>
      <use xlink:href="#DejaVuSans-43" x="302.050781"/>
      <use xlink:href="#DejaVuSans-65" x="371.875"/>
      <use xlink:href="#DejaVuSans-6c" x="433.398438"/>
      <use xlink:href="#DejaVuSans-6c" x="461.181641"/>
      <use xlink:href="#DejaVuSans-73" x="488.964844"/>
      <use xlink:href="#DejaVuSans-20" x="541.064453"/>
      <use xlink:href="#DejaVuSans-3d" x="572.851562"/>
      <use xlink:href="#DejaVuSans-20" x="656.640625"/>
      <use xlink:href="#DejaVuSans-38" x="688.427734"/>
     </g>
    </g>
    <g id="line2d_26">
     <path d="M 276.595312 77.014687 
L 286.595312 77.014687 
L 296.595312 77.014687 
" style="fill: none; stroke: #2ca02c; stroke-width: 1.5; stroke-linecap: square"/>
    </g>
    <g id="text_22">
     <!-- c2 - #Cells = 2 -->
     <g transform="translate(304.595312 80.514687) scale(0.1 -0.1)">
      <use xlink:href="#DejaVuSans-63"/>
      <use xlink:href="#DejaVuSans-32" x="54.980469"/>
      <use xlink:href="#DejaVuSans-20" x="118.603516"/>
      <use xlink:href="#DejaVuSans-2d" x="150.390625"/>
      <use xlink:href="#DejaVuSans-20" x="186.474609"/>
      <use xlink:href="#DejaVuSans-23" x="218.261719"/>
      <use xlink:href="#DejaVuSans-43" x="302.050781"/>
      <use xlink:href="#DejaVuSans-65" x="371.875"/>
      <use xlink:href="#DejaVuSans-6c" x="433.398438"/>
      <use xlink:href="#DejaVuSans-6c" x="461.181641"/>
      <use xlink:href="#DejaVuSans-73" x="488.964844"/>
      <use xlink:href="#DejaVuSans-20" x="541.064453"/>
      <use xlink:href="#DejaVuSans-3d" x="572.851562"/>
      <use xlink:href="#DejaVuSans-20" x="656.640625"/>
      <use xlink:href="#DejaVuSans-32" x="688.427734"/>
     </g>
    </g>
    <g id="line2d_27">
     <path d="M 276.595312 91.692813 
L 286.595312 91.692813 
L 296.595312 91.692813 
" style="fill: none; stroke: #d62728; stroke-width: 1.5; stroke-linecap: square"/>
    </g>
    <g id="text_23">
     <!-- c2 - #Cells = 8 -->
     <g transform="translate(304.595312 95.192813) scale(0.1 -0.1)">
      <use xlink:href="#DejaVuSans-63"/>
      <use xlink:href="#DejaVuSans-32" x="54.980469"/>
      <use xlink:href="#DejaVuSans-20" x="118.603516"/>
      <use xlink:href="#DejaVuSans-2d" x="150.390625"/>
      <use xlink:href="#DejaVuSans-20" x="186.474609"/>
      <use xlink:href="#DejaVuSans-23" x="218.261719"/>
      <use xlink:href="#DejaVuSans-43" x="302.050781"/>
      <use xlink:href="#DejaVuSans-65" x="371.875"/>
      <use xlink:href="#DejaVuSans-6c" x="433.398438"/>
      <use xlink:href="#DejaVuSans-6c" x="461.181641"/>
      <use xlink:href="#DejaVuSans-73" x="488.964844"/>
      <use xlink:href="#DejaVuSans-20" x="541.064453"/>
      <use xlink:href="#DejaVuSans-3d" x="572.851562"/>
      <use xlink:href="#DejaVuSans-20" x="656.640625"/>
      <use xlink:href="#DejaVuSans-38" x="688.427734"/>
     </g>
    </g>
    <g id="line2d_28">
     <path d="M 276.595312 106.370937 
L 286.595312 106.370937 
L 296.595312 106.370937 
" style="fill: none; stroke: #9467bd; stroke-width: 1.5; stroke-linecap: square"/>
    </g>
    <g id="text_24">
     <!-- c3 - #Cells = 2 -->
     <g transform="translate(304.595312 109.870937) scale(0.1 -0.1)">
      <use xlink:href="#DejaVuSans-63"/>
      <use xlink:href="#DejaVuSans-33" x="54.980469"/>
      <use xlink:href="#DejaVuSans-20" x="118.603516"/>
      <use xlink:href="#DejaVuSans-2d" x="150.390625"/>
      <use xlink:href="#DejaVuSans-20" x="186.474609"/>
      <use xlink:href="#DejaVuSans-23" x="218.261719"/>
      <use xlink:href="#DejaVuSans-43" x="302.050781"/>
      <use xlink:href="#DejaVuSans-65" x="371.875"/>
      <use xlink:href="#DejaVuSans-6c" x="433.398438"/>
      <use xlink:href="#DejaVuSans-6c" x="461.181641"/>
      <use xlink:href="#DejaVuSans-73" x="488.964844"/>
      <use xlink:href="#DejaVuSans-20" x="541.064453"/>
      <use xlink:href="#DejaVuSans-3d" x="572.851562"/>
      <use xlink:href="#DejaVuSans-20" x="656.640625"/>
      <use xlink:href="#DejaVuSans-32" x="688.427734"/>
     </g>
    </g>
    <g id="line2d_29">
     <path d="M 276.595312 121.049062 
L 286.595312 121.049062 
L 296.595312 121.049062 
" style="fill: none; stroke: #8c564b; stroke-width: 1.5; stroke-linecap: square"/>
    </g>
    <g id="text_25">
     <!-- c3 - #Cells = 8 -->
     <g transform="translate(304.595312 124.549062) scale(0.1 -0.1)">
      <use xlink:href="#DejaVuSans-63"/>
      <use xlink:href="#DejaVuSans-33" x="54.980469"/>
      <use xlink:href="#DejaVuSans-20" x="118.603516"/>
      <use xlink:href="#DejaVuSans-2d" x="150.390625"/>
      <use xlink:href="#DejaVuSans-20" x="186.474609"/>
      <use xlink:href="#DejaVuSans-23" x="218.261719"/>
      <use xlink:href="#DejaVuSans-43" x="302.050781"/>
      <use xlink:href="#DejaVuSans-65" x="371.875"/>
      <use xlink:href="#DejaVuSans-6c" x="433.398438"/>
      <use xlink:href="#DejaVuSans-6c" x="461.181641"/>
      <use xlink:href="#DejaVuSans-73" x="488.964844"/>
      <use xlink:href="#DejaVuSans-20" x="541.064453"/>
      <use xlink:href="#DejaVuSans-3d" x="572.851562"/>
      <use xlink:href="#DejaVuSans-20" x="656.640625"/>
      <use xlink:href="#DejaVuSans-38" x="688.427734"/>
     </g>
    </g>
   </g>
  </g>
 </g>
 <defs>
  <clipPath id="pad077d809e">
   <rect x="54" y="34.56" width="334.8" height="217.44"/>
  </clipPath>
 </defs>
</svg>
