<?xml version="1.0" encoding="utf-8" standalone="no"?>
<!DOCTYPE svg PUBLIC "-//W3C//DTD SVG 1.1//EN"
  "http://www.w3.org/Graphics/SVG/1.1/DTD/svg11.dtd">
<svg xmlns:xlink="http://www.w3.org/1999/xlink" width="432pt" height="288pt" viewBox="0 0 432 288" xmlns="http://www.w3.org/2000/svg" version="1.1">
 <metadata>
  <rdf:RDF xmlns:dc="http://purl.org/dc/elements/1.1/" xmlns:cc="http://creativecommons.org/ns#" xmlns:rdf="http://www.w3.org/1999/02/22-rdf-syntax-ns#">
   <cc:Work>
    <dc:type rdf:resource="http://purl.org/dc/dcmitype/StillImage"/>
    <dc:date>2024-03-18T12:01:06.356648</dc:date>
    <dc:format>image/svg+xml</dc:format>
    <dc:creator>
     <cc:Agent>
      <dc:title>Matplotlib v3.7.1, https://matplotlib.org/</dc:title>
     </cc:Agent>
    </dc:creator>
   </cc:Work>
  </rdf:RDF>
 </metadata>
 <defs>
  <style type="text/css">*{stroke-linejoin: round; stroke-linecap: butt}</style>
 </defs>
 <g id="figure_1">
  <g id="patch_1">
   <path d="M 0 288 
L 432 288 
L 432 0 
L 0 0 
z
" style="fill: #ffffff"/>
  </g>
  <g id="axes_1">
   <g id="patch_2">
    <path d="M 54 252 
L 388.8 252 
L 388.8 34.56 
L 54 34.56 
z
" style="fill: #ffffff"/>
   </g>
   <g id="matplotlib.axis_1">
    <g id="xtick_1">
     <g id="line2d_1">
      <defs>
       <path id="m33f6ae1ad3" d="M 0 0 
L 0 3.5 
" style="stroke: #000000; stroke-width: 0.8"/>
      </defs>
      <g>
       <use xlink:href="#m33f6ae1ad3" x="69.218182" y="252" style="stroke: #000000; stroke-width: 0.8"/>
      </g>
     </g>
     <g id="text_1">
      <!-- 0 -->
      <g transform="translate(66.036932 266.598437) scale(0.1 -0.1)">
       <defs>
        <path id="DejaVuSans-30" d="M 2034 4250 
Q 1547 4250 1301 3770 
Q 1056 3291 1056 2328 
Q 1056 1369 1301 889 
Q 1547 409 2034 409 
Q 2525 409 2770 889 
Q 3016 1369 3016 2328 
Q 3016 3291 2770 3770 
Q 2525 4250 2034 4250 
z
M 2034 4750 
Q 2819 4750 3233 4129 
Q 3647 3509 3647 2328 
Q 3647 1150 3233 529 
Q 2819 -91 2034 -91 
Q 1250 -91 836 529 
Q 422 1150 422 2328 
Q 422 3509 836 4129 
Q 1250 4750 2034 4750 
z
" transform="scale(0.015625)"/>
       </defs>
       <use xlink:href="#DejaVuSans-30"/>
      </g>
     </g>
    </g>
    <g id="xtick_2">
     <g id="line2d_2">
      <g>
       <use xlink:href="#m33f6ae1ad3" x="109.8" y="252" style="stroke: #000000; stroke-width: 0.8"/>
      </g>
     </g>
     <g id="text_2">
      <!-- 200 -->
      <g transform="translate(100.25625 266.598437) scale(0.1 -0.1)">
       <defs>
        <path id="DejaVuSans-32" d="M 1228 531 
L 3431 531 
L 3431 0 
L 469 0 
L 469 531 
Q 828 903 1448 1529 
Q 2069 2156 2228 2338 
Q 2531 2678 2651 2914 
Q 2772 3150 2772 3378 
Q 2772 3750 2511 3984 
Q 2250 4219 1831 4219 
Q 1534 4219 1204 4116 
Q 875 4013 500 3803 
L 500 4441 
Q 881 4594 1212 4672 
Q 1544 4750 1819 4750 
Q 2544 4750 2975 4387 
Q 3406 4025 3406 3419 
Q 3406 3131 3298 2873 
Q 3191 2616 2906 2266 
Q 2828 2175 2409 1742 
Q 1991 1309 1228 531 
z
" transform="scale(0.015625)"/>
       </defs>
       <use xlink:href="#DejaVuSans-32"/>
       <use xlink:href="#DejaVuSans-30" x="63.623047"/>
       <use xlink:href="#DejaVuSans-30" x="127.246094"/>
      </g>
     </g>
    </g>
    <g id="xtick_3">
     <g id="line2d_3">
      <g>
       <use xlink:href="#m33f6ae1ad3" x="150.381818" y="252" style="stroke: #000000; stroke-width: 0.8"/>
      </g>
     </g>
     <g id="text_3">
      <!-- 400 -->
      <g transform="translate(140.838068 266.598437) scale(0.1 -0.1)">
       <defs>
        <path id="DejaVuSans-34" d="M 2419 4116 
L 825 1625 
L 2419 1625 
L 2419 4116 
z
M 2253 4666 
L 3047 4666 
L 3047 1625 
L 3713 1625 
L 3713 1100 
L 3047 1100 
L 3047 0 
L 2419 0 
L 2419 1100 
L 313 1100 
L 313 1709 
L 2253 4666 
z
" transform="scale(0.015625)"/>
       </defs>
       <use xlink:href="#DejaVuSans-34"/>
       <use xlink:href="#DejaVuSans-30" x="63.623047"/>
       <use xlink:href="#DejaVuSans-30" x="127.246094"/>
      </g>
     </g>
    </g>
    <g id="xtick_4">
     <g id="line2d_4">
      <g>
       <use xlink:href="#m33f6ae1ad3" x="190.963636" y="252" style="stroke: #000000; stroke-width: 0.8"/>
      </g>
     </g>
     <g id="text_4">
      <!-- 600 -->
      <g transform="translate(181.419886 266.598437) scale(0.1 -0.1)">
       <defs>
        <path id="DejaVuSans-36" d="M 2113 2584 
Q 1688 2584 1439 2293 
Q 1191 2003 1191 1497 
Q 1191 994 1439 701 
Q 1688 409 2113 409 
Q 2538 409 2786 701 
Q 3034 994 3034 1497 
Q 3034 2003 2786 2293 
Q 2538 2584 2113 2584 
z
M 3366 4563 
L 3366 3988 
Q 3128 4100 2886 4159 
Q 2644 4219 2406 4219 
Q 1781 4219 1451 3797 
Q 1122 3375 1075 2522 
Q 1259 2794 1537 2939 
Q 1816 3084 2150 3084 
Q 2853 3084 3261 2657 
Q 3669 2231 3669 1497 
Q 3669 778 3244 343 
Q 2819 -91 2113 -91 
Q 1303 -91 875 529 
Q 447 1150 447 2328 
Q 447 3434 972 4092 
Q 1497 4750 2381 4750 
Q 2619 4750 2861 4703 
Q 3103 4656 3366 4563 
z
" transform="scale(0.015625)"/>
       </defs>
       <use xlink:href="#DejaVuSans-36"/>
       <use xlink:href="#DejaVuSans-30" x="63.623047"/>
       <use xlink:href="#DejaVuSans-30" x="127.246094"/>
      </g>
     </g>
    </g>
    <g id="xtick_5">
     <g id="line2d_5">
      <g>
       <use xlink:href="#m33f6ae1ad3" x="231.545455" y="252" style="stroke: #000000; stroke-width: 0.8"/>
      </g>
     </g>
     <g id="text_5">
      <!-- 800 -->
      <g transform="translate(222.001705 266.598437) scale(0.1 -0.1)">
       <defs>
        <path id="DejaVuSans-38" d="M 2034 2216 
Q 1584 2216 1326 1975 
Q 1069 1734 1069 1313 
Q 1069 891 1326 650 
Q 1584 409 2034 409 
Q 2484 409 2743 651 
Q 3003 894 3003 1313 
Q 3003 1734 2745 1975 
Q 2488 2216 2034 2216 
z
M 1403 2484 
Q 997 2584 770 2862 
Q 544 3141 544 3541 
Q 544 4100 942 4425 
Q 1341 4750 2034 4750 
Q 2731 4750 3128 4425 
Q 3525 4100 3525 3541 
Q 3525 3141 3298 2862 
Q 3072 2584 2669 2484 
Q 3125 2378 3379 2068 
Q 3634 1759 3634 1313 
Q 3634 634 3220 271 
Q 2806 -91 2034 -91 
Q 1263 -91 848 271 
Q 434 634 434 1313 
Q 434 1759 690 2068 
Q 947 2378 1403 2484 
z
M 1172 3481 
Q 1172 3119 1398 2916 
Q 1625 2713 2034 2713 
Q 2441 2713 2670 2916 
Q 2900 3119 2900 3481 
Q 2900 3844 2670 4047 
Q 2441 4250 2034 4250 
Q 1625 4250 1398 4047 
Q 1172 3844 1172 3481 
z
" transform="scale(0.015625)"/>
       </defs>
       <use xlink:href="#DejaVuSans-38"/>
       <use xlink:href="#DejaVuSans-30" x="63.623047"/>
       <use xlink:href="#DejaVuSans-30" x="127.246094"/>
      </g>
     </g>
    </g>
    <g id="xtick_6">
     <g id="line2d_6">
      <g>
       <use xlink:href="#m33f6ae1ad3" x="272.127273" y="252" style="stroke: #000000; stroke-width: 0.8"/>
      </g>
     </g>
     <g id="text_6">
      <!-- 1000 -->
      <g transform="translate(259.402273 266.598437) scale(0.1 -0.1)">
       <defs>
        <path id="DejaVuSans-31" d="M 794 531 
L 1825 531 
L 1825 4091 
L 703 3866 
L 703 4441 
L 1819 4666 
L 2450 4666 
L 2450 531 
L 3481 531 
L 3481 0 
L 794 0 
L 794 531 
z
" transform="scale(0.015625)"/>
       </defs>
       <use xlink:href="#DejaVuSans-31"/>
       <use xlink:href="#DejaVuSans-30" x="63.623047"/>
       <use xlink:href="#DejaVuSans-30" x="127.246094"/>
       <use xlink:href="#DejaVuSans-30" x="190.869141"/>
      </g>
     </g>
    </g>
    <g id="xtick_7">
     <g id="line2d_7">
      <g>
       <use xlink:href="#m33f6ae1ad3" x="312.709091" y="252" style="stroke: #000000; stroke-width: 0.8"/>
      </g>
     </g>
     <g id="text_7">
      <!-- 1200 -->
      <g transform="translate(299.984091 266.598437) scale(0.1 -0.1)">
       <use xlink:href="#DejaVuSans-31"/>
       <use xlink:href="#DejaVuSans-32" x="63.623047"/>
       <use xlink:href="#DejaVuSans-30" x="127.246094"/>
       <use xlink:href="#DejaVuSans-30" x="190.869141"/>
      </g>
     </g>
    </g>
    <g id="xtick_8">
     <g id="line2d_8">
      <g>
       <use xlink:href="#m33f6ae1ad3" x="353.290909" y="252" style="stroke: #000000; stroke-width: 0.8"/>
      </g>
     </g>
     <g id="text_8">
      <!-- 1400 -->
      <g transform="translate(340.565909 266.598437) scale(0.1 -0.1)">
       <use xlink:href="#DejaVuSans-31"/>
       <use xlink:href="#DejaVuSans-34" x="63.623047"/>
       <use xlink:href="#DejaVuSans-30" x="127.246094"/>
       <use xlink:href="#DejaVuSans-30" x="190.869141"/>
      </g>
     </g>
    </g>
    <g id="text_9">
     <!-- Time (s) -->
     <g transform="translate(190.906641 284.075781) scale(0.15 -0.15)">
      <defs>
       <path id="DejaVuSans-54" d="M -19 4666 
L 3928 4666 
L 3928 4134 
L 2272 4134 
L 2272 0 
L 1638 0 
L 1638 4134 
L -19 4134 
L -19 4666 
z
" transform="scale(0.015625)"/>
       <path id="DejaVuSans-69" d="M 603 3500 
L 1178 3500 
L 1178 0 
L 603 0 
L 603 3500 
z
M 603 4863 
L 1178 4863 
L 1178 4134 
L 603 4134 
L 603 4863 
z
" transform="scale(0.015625)"/>
       <path id="DejaVuSans-6d" d="M 3328 2828 
Q 3544 3216 3844 3400 
Q 4144 3584 4550 3584 
Q 5097 3584 5394 3201 
Q 5691 2819 5691 2113 
L 5691 0 
L 5113 0 
L 5113 2094 
Q 5113 2597 4934 2840 
Q 4756 3084 4391 3084 
Q 3944 3084 3684 2787 
Q 3425 2491 3425 1978 
L 3425 0 
L 2847 0 
L 2847 2094 
Q 2847 2600 2669 2842 
Q 2491 3084 2119 3084 
Q 1678 3084 1418 2786 
Q 1159 2488 1159 1978 
L 1159 0 
L 581 0 
L 581 3500 
L 1159 3500 
L 1159 2956 
Q 1356 3278 1631 3431 
Q 1906 3584 2284 3584 
Q 2666 3584 2933 3390 
Q 3200 3197 3328 2828 
z
" transform="scale(0.015625)"/>
       <path id="DejaVuSans-65" d="M 3597 1894 
L 3597 1613 
L 953 1613 
Q 991 1019 1311 708 
Q 1631 397 2203 397 
Q 2534 397 2845 478 
Q 3156 559 3463 722 
L 3463 178 
Q 3153 47 2828 -22 
Q 2503 -91 2169 -91 
Q 1331 -91 842 396 
Q 353 884 353 1716 
Q 353 2575 817 3079 
Q 1281 3584 2069 3584 
Q 2775 3584 3186 3129 
Q 3597 2675 3597 1894 
z
M 3022 2063 
Q 3016 2534 2758 2815 
Q 2500 3097 2075 3097 
Q 1594 3097 1305 2825 
Q 1016 2553 972 2059 
L 3022 2063 
z
" transform="scale(0.015625)"/>
       <path id="DejaVuSans-20" transform="scale(0.015625)"/>
       <path id="DejaVuSans-28" d="M 1984 4856 
Q 1566 4138 1362 3434 
Q 1159 2731 1159 2009 
Q 1159 1288 1364 580 
Q 1569 -128 1984 -844 
L 1484 -844 
Q 1016 -109 783 600 
Q 550 1309 550 2009 
Q 550 2706 781 3412 
Q 1013 4119 1484 4856 
L 1984 4856 
z
" transform="scale(0.015625)"/>
       <path id="DejaVuSans-73" d="M 2834 3397 
L 2834 2853 
Q 2591 2978 2328 3040 
Q 2066 3103 1784 3103 
Q 1356 3103 1142 2972 
Q 928 2841 928 2578 
Q 928 2378 1081 2264 
Q 1234 2150 1697 2047 
L 1894 2003 
Q 2506 1872 2764 1633 
Q 3022 1394 3022 966 
Q 3022 478 2636 193 
Q 2250 -91 1575 -91 
Q 1294 -91 989 -36 
Q 684 19 347 128 
L 347 722 
Q 666 556 975 473 
Q 1284 391 1588 391 
Q 1994 391 2212 530 
Q 2431 669 2431 922 
Q 2431 1156 2273 1281 
Q 2116 1406 1581 1522 
L 1381 1569 
Q 847 1681 609 1914 
Q 372 2147 372 2553 
Q 372 3047 722 3315 
Q 1072 3584 1716 3584 
Q 2034 3584 2315 3537 
Q 2597 3491 2834 3397 
z
" transform="scale(0.015625)"/>
       <path id="DejaVuSans-29" d="M 513 4856 
L 1013 4856 
Q 1481 4119 1714 3412 
Q 1947 2706 1947 2009 
Q 1947 1309 1714 600 
Q 1481 -109 1013 -844 
L 513 -844 
Q 928 -128 1133 580 
Q 1338 1288 1338 2009 
Q 1338 2731 1133 3434 
Q 928 4138 513 4856 
z
" transform="scale(0.015625)"/>
      </defs>
      <use xlink:href="#DejaVuSans-54"/>
      <use xlink:href="#DejaVuSans-69" x="57.958984"/>
      <use xlink:href="#DejaVuSans-6d" x="85.742188"/>
      <use xlink:href="#DejaVuSans-65" x="183.154297"/>
      <use xlink:href="#DejaVuSans-20" x="244.677734"/>
      <use xlink:href="#DejaVuSans-28" x="276.464844"/>
      <use xlink:href="#DejaVuSans-73" x="315.478516"/>
      <use xlink:href="#DejaVuSans-29" x="367.578125"/>
     </g>
    </g>
   </g>
   <g id="matplotlib.axis_2">
    <g id="ytick_1">
     <g id="line2d_9">
      <defs>
       <path id="m48e1349bef" d="M 0 0 
L -3.5 0 
" style="stroke: #000000; stroke-width: 0.8"/>
      </defs>
      <g>
       <use xlink:href="#m48e1349bef" x="54" y="230.294576" style="stroke: #000000; stroke-width: 0.8"/>
      </g>
     </g>
     <g id="text_10">
      <!-- −0.04 -->
      <g transform="translate(16.354687 234.093794) scale(0.1 -0.1)">
       <defs>
        <path id="DejaVuSans-2212" d="M 678 2272 
L 4684 2272 
L 4684 1741 
L 678 1741 
L 678 2272 
z
" transform="scale(0.015625)"/>
        <path id="DejaVuSans-2e" d="M 684 794 
L 1344 794 
L 1344 0 
L 684 0 
L 684 794 
z
" transform="scale(0.015625)"/>
       </defs>
       <use xlink:href="#DejaVuSans-2212"/>
       <use xlink:href="#DejaVuSans-30" x="83.789062"/>
       <use xlink:href="#DejaVuSans-2e" x="147.412109"/>
       <use xlink:href="#DejaVuSans-30" x="179.199219"/>
       <use xlink:href="#DejaVuSans-34" x="242.822266"/>
      </g>
     </g>
    </g>
    <g id="ytick_2">
     <g id="line2d_10">
      <g>
       <use xlink:href="#m48e1349bef" x="54" y="187.102499" style="stroke: #000000; stroke-width: 0.8"/>
      </g>
     </g>
     <g id="text_11">
      <!-- −0.02 -->
      <g transform="translate(16.354687 190.901717) scale(0.1 -0.1)">
       <use xlink:href="#DejaVuSans-2212"/>
       <use xlink:href="#DejaVuSans-30" x="83.789062"/>
       <use xlink:href="#DejaVuSans-2e" x="147.412109"/>
       <use xlink:href="#DejaVuSans-30" x="179.199219"/>
       <use xlink:href="#DejaVuSans-32" x="242.822266"/>
      </g>
     </g>
    </g>
    <g id="ytick_3">
     <g id="line2d_11">
      <g>
       <use xlink:href="#m48e1349bef" x="54" y="143.910422" style="stroke: #000000; stroke-width: 0.8"/>
      </g>
     </g>
     <g id="text_12">
      <!-- 0.00 -->
      <g transform="translate(24.734375 147.709641) scale(0.1 -0.1)">
       <use xlink:href="#DejaVuSans-30"/>
       <use xlink:href="#DejaVuSans-2e" x="63.623047"/>
       <use xlink:href="#DejaVuSans-30" x="95.410156"/>
       <use xlink:href="#DejaVuSans-30" x="159.033203"/>
      </g>
     </g>
    </g>
    <g id="ytick_4">
     <g id="line2d_12">
      <g>
       <use xlink:href="#m48e1349bef" x="54" y="100.718345" style="stroke: #000000; stroke-width: 0.8"/>
      </g>
     </g>
     <g id="text_13">
      <!-- 0.02 -->
      <g transform="translate(24.734375 104.517564) scale(0.1 -0.1)">
       <use xlink:href="#DejaVuSans-30"/>
       <use xlink:href="#DejaVuSans-2e" x="63.623047"/>
       <use xlink:href="#DejaVuSans-30" x="95.410156"/>
       <use xlink:href="#DejaVuSans-32" x="159.033203"/>
      </g>
     </g>
    </g>
    <g id="ytick_5">
     <g id="line2d_13">
      <g>
       <use xlink:href="#m48e1349bef" x="54" y="57.526268" style="stroke: #000000; stroke-width: 0.8"/>
      </g>
     </g>
     <g id="text_14">
      <!-- 0.04 -->
      <g transform="translate(24.734375 61.325487) scale(0.1 -0.1)">
       <use xlink:href="#DejaVuSans-30"/>
       <use xlink:href="#DejaVuSans-2e" x="63.623047"/>
       <use xlink:href="#DejaVuSans-30" x="95.410156"/>
       <use xlink:href="#DejaVuSans-34" x="159.033203"/>
      </g>
     </g>
    </g>
    <g id="text_15">
     <!-- Concentration (mol/L) -->
     <g transform="translate(9.235156 225.256172) rotate(-90) scale(0.15 -0.15)">
      <defs>
       <path id="DejaVuSans-43" d="M 4122 4306 
L 4122 3641 
Q 3803 3938 3442 4084 
Q 3081 4231 2675 4231 
Q 1875 4231 1450 3742 
Q 1025 3253 1025 2328 
Q 1025 1406 1450 917 
Q 1875 428 2675 428 
Q 3081 428 3442 575 
Q 3803 722 4122 1019 
L 4122 359 
Q 3791 134 3420 21 
Q 3050 -91 2638 -91 
Q 1578 -91 968 557 
Q 359 1206 359 2328 
Q 359 3453 968 4101 
Q 1578 4750 2638 4750 
Q 3056 4750 3426 4639 
Q 3797 4528 4122 4306 
z
" transform="scale(0.015625)"/>
       <path id="DejaVuSans-6f" d="M 1959 3097 
Q 1497 3097 1228 2736 
Q 959 2375 959 1747 
Q 959 1119 1226 758 
Q 1494 397 1959 397 
Q 2419 397 2687 759 
Q 2956 1122 2956 1747 
Q 2956 2369 2687 2733 
Q 2419 3097 1959 3097 
z
M 1959 3584 
Q 2709 3584 3137 3096 
Q 3566 2609 3566 1747 
Q 3566 888 3137 398 
Q 2709 -91 1959 -91 
Q 1206 -91 779 398 
Q 353 888 353 1747 
Q 353 2609 779 3096 
Q 1206 3584 1959 3584 
z
" transform="scale(0.015625)"/>
       <path id="DejaVuSans-6e" d="M 3513 2113 
L 3513 0 
L 2938 0 
L 2938 2094 
Q 2938 2591 2744 2837 
Q 2550 3084 2163 3084 
Q 1697 3084 1428 2787 
Q 1159 2491 1159 1978 
L 1159 0 
L 581 0 
L 581 3500 
L 1159 3500 
L 1159 2956 
Q 1366 3272 1645 3428 
Q 1925 3584 2291 3584 
Q 2894 3584 3203 3211 
Q 3513 2838 3513 2113 
z
" transform="scale(0.015625)"/>
       <path id="DejaVuSans-63" d="M 3122 3366 
L 3122 2828 
Q 2878 2963 2633 3030 
Q 2388 3097 2138 3097 
Q 1578 3097 1268 2742 
Q 959 2388 959 1747 
Q 959 1106 1268 751 
Q 1578 397 2138 397 
Q 2388 397 2633 464 
Q 2878 531 3122 666 
L 3122 134 
Q 2881 22 2623 -34 
Q 2366 -91 2075 -91 
Q 1284 -91 818 406 
Q 353 903 353 1747 
Q 353 2603 823 3093 
Q 1294 3584 2113 3584 
Q 2378 3584 2631 3529 
Q 2884 3475 3122 3366 
z
" transform="scale(0.015625)"/>
       <path id="DejaVuSans-74" d="M 1172 4494 
L 1172 3500 
L 2356 3500 
L 2356 3053 
L 1172 3053 
L 1172 1153 
Q 1172 725 1289 603 
Q 1406 481 1766 481 
L 2356 481 
L 2356 0 
L 1766 0 
Q 1100 0 847 248 
Q 594 497 594 1153 
L 594 3053 
L 172 3053 
L 172 3500 
L 594 3500 
L 594 4494 
L 1172 4494 
z
" transform="scale(0.015625)"/>
       <path id="DejaVuSans-72" d="M 2631 2963 
Q 2534 3019 2420 3045 
Q 2306 3072 2169 3072 
Q 1681 3072 1420 2755 
Q 1159 2438 1159 1844 
L 1159 0 
L 581 0 
L 581 3500 
L 1159 3500 
L 1159 2956 
Q 1341 3275 1631 3429 
Q 1922 3584 2338 3584 
Q 2397 3584 2469 3576 
Q 2541 3569 2628 3553 
L 2631 2963 
z
" transform="scale(0.015625)"/>
       <path id="DejaVuSans-61" d="M 2194 1759 
Q 1497 1759 1228 1600 
Q 959 1441 959 1056 
Q 959 750 1161 570 
Q 1363 391 1709 391 
Q 2188 391 2477 730 
Q 2766 1069 2766 1631 
L 2766 1759 
L 2194 1759 
z
M 3341 1997 
L 3341 0 
L 2766 0 
L 2766 531 
Q 2569 213 2275 61 
Q 1981 -91 1556 -91 
Q 1019 -91 701 211 
Q 384 513 384 1019 
Q 384 1609 779 1909 
Q 1175 2209 1959 2209 
L 2766 2209 
L 2766 2266 
Q 2766 2663 2505 2880 
Q 2244 3097 1772 3097 
Q 1472 3097 1187 3025 
Q 903 2953 641 2809 
L 641 3341 
Q 956 3463 1253 3523 
Q 1550 3584 1831 3584 
Q 2591 3584 2966 3190 
Q 3341 2797 3341 1997 
z
" transform="scale(0.015625)"/>
       <path id="DejaVuSans-6c" d="M 603 4863 
L 1178 4863 
L 1178 0 
L 603 0 
L 603 4863 
z
" transform="scale(0.015625)"/>
       <path id="DejaVuSans-2f" d="M 1625 4666 
L 2156 4666 
L 531 -594 
L 0 -594 
L 1625 4666 
z
" transform="scale(0.015625)"/>
       <path id="DejaVuSans-4c" d="M 628 4666 
L 1259 4666 
L 1259 531 
L 3531 531 
L 3531 0 
L 628 0 
L 628 4666 
z
" transform="scale(0.015625)"/>
      </defs>
      <use xlink:href="#DejaVuSans-43"/>
      <use xlink:href="#DejaVuSans-6f" x="69.824219"/>
      <use xlink:href="#DejaVuSans-6e" x="131.005859"/>
      <use xlink:href="#DejaVuSans-63" x="194.384766"/>
      <use xlink:href="#DejaVuSans-65" x="249.365234"/>
      <use xlink:href="#DejaVuSans-6e" x="310.888672"/>
      <use xlink:href="#DejaVuSans-74" x="374.267578"/>
      <use xlink:href="#DejaVuSans-72" x="413.476562"/>
      <use xlink:href="#DejaVuSans-61" x="454.589844"/>
      <use xlink:href="#DejaVuSans-74" x="515.869141"/>
      <use xlink:href="#DejaVuSans-69" x="555.078125"/>
      <use xlink:href="#DejaVuSans-6f" x="582.861328"/>
      <use xlink:href="#DejaVuSans-6e" x="644.042969"/>
      <use xlink:href="#DejaVuSans-20" x="707.421875"/>
      <use xlink:href="#DejaVuSans-28" x="739.208984"/>
      <use xlink:href="#DejaVuSans-6d" x="778.222656"/>
      <use xlink:href="#DejaVuSans-6f" x="875.634766"/>
      <use xlink:href="#DejaVuSans-6c" x="936.816406"/>
      <use xlink:href="#DejaVuSans-2f" x="964.599609"/>
      <use xlink:href="#DejaVuSans-4c" x="998.291016"/>
      <use xlink:href="#DejaVuSans-29" x="1054.003906"/>
     </g>
    </g>
   </g>
   <g id="line2d_14">
    <path d="M 69.218182 143.910422 
L 69.421091 45.354225 
L 69.624 94.395701 
L 70.029818 127.605616 
L 70.435636 145.189097 
L 70.638545 150.20224 
L 70.841455 152.191637 
L 71.044364 152.375512 
L 71.247273 151.902558 
L 71.450182 242.116364 
L 71.653091 172.242645 
L 71.856 141.370004 
L 72.058909 136.961089 
L 72.667636 143.647574 
L 72.870545 144.189451 
L 73.276364 144.37524 
L 78.957818 144.246329 
L 83.218909 144.078007 
L 87.48 144.026609 
L 87.682909 144.11688 
L 87.885818 144.639536 
L 88.697455 148.248368 
L 88.900364 148.395776 
L 89.103273 148.22195 
L 89.509091 147.374398 
L 90.523636 145.046311 
L 91.132364 144.176003 
L 91.741091 143.712386 
L 92.349818 143.529427 
L 93.161455 143.534621 
L 94.784727 143.844986 
L 97.016727 144.20221 
L 99.451636 144.315702 
L 113.046545 144.360939 
L 126.641455 144.094204 
L 186.905455 142.831145 
L 194.818909 142.361735 
L 201.312 141.76327 
L 206.993455 141.022965 
L 212.066182 140.139227 
L 216.530182 139.143073 
L 220.588364 138.021677 
L 224.443636 136.731691 
L 228.096 135.277516 
L 231.545455 133.671753 
L 234.994909 131.819055 
L 238.444364 129.702706 
L 241.893818 127.312111 
L 245.343273 124.644967 
L 248.995636 121.528754 
L 252.850909 117.940974 
L 257.314909 113.471389 
L 264.010909 106.398919 
L 270.706909 99.419097 
L 274.359273 95.915807 
L 277.402909 93.283678 
L 280.040727 91.277015 
L 282.475636 89.69396 
L 284.707636 88.499723 
L 286.736727 87.64731 
L 288.765818 87.032208 
L 290.794909 86.666127 
L 292.621091 86.556665 
L 294.447273 86.659661 
L 296.273455 86.976563 
L 298.099636 87.506396 
L 300.128727 88.340595 
L 302.157818 89.425243 
L 304.389818 90.893586 
L 306.621818 92.630637 
L 309.056727 94.803184 
L 311.897455 97.655638 
L 315.144 101.253627 
L 319.202182 106.101546 
L 332.188364 121.886795 
L 335.840727 125.831741 
L 339.087273 129.010196 
L 342.130909 131.675879 
L 344.971636 133.875944 
L 347.812364 135.796177 
L 350.653091 137.443704 
L 353.493818 138.832973 
L 356.334545 139.98407 
L 359.378182 140.980412 
L 362.624727 141.808598 
L 366.277091 142.499643 
L 370.335273 143.032228 
L 373.581818 143.323256 
L 373.581818 143.323256 
" clip-path="url(#p1ff03d8d76)" style="fill: none; stroke: #1f77b4; stroke-width: 1.5; stroke-linecap: square"/>
   </g>
   <g id="line2d_15">
    <path d="M 69.218182 143.910422 
L 158.701091 143.807409 
L 174.122182 143.584618 
L 184.673455 143.224257 
L 192.789818 142.732194 
L 199.485818 142.112705 
L 205.370182 141.349341 
L 210.645818 140.438193 
L 215.312727 139.407963 
L 219.573818 138.243883 
L 223.632 136.900877 
L 227.487273 135.380833 
L 231.139636 133.693777 
L 234.589091 131.858258 
L 238.038545 129.770822 
L 241.488 127.420413 
L 244.937455 124.803238 
L 248.589818 121.747736 
L 252.445091 118.228085 
L 256.909091 113.834485 
L 262.996364 107.491394 
L 270.909818 99.284128 
L 274.562182 95.809792 
L 277.605818 93.199794 
L 280.243636 91.211259 
L 282.678545 89.644516 
L 284.910545 88.465258 
L 286.939636 87.626779 
L 288.968727 87.026143 
L 290.794909 86.698819 
L 292.621091 86.580235 
L 294.447273 86.674504 
L 296.273455 86.983329 
L 298.099636 87.505945 
L 300.128727 88.333319 
L 302.157818 89.412525 
L 304.389818 90.87654 
L 306.621818 92.610968 
L 309.056727 94.782436 
L 311.897455 97.635638 
L 315.144 101.236432 
L 319.202182 106.089418 
L 332.188364 121.885285 
L 335.840727 125.829212 
L 339.087273 129.005439 
L 342.130909 131.668317 
L 344.971636 133.865556 
L 347.812364 135.783159 
L 350.653091 137.428593 
L 353.493818 138.816569 
L 356.334545 139.967322 
L 359.378182 140.964379 
L 362.624727 141.794429 
L 366.277091 142.488565 
L 370.335273 143.025172 
L 373.581818 143.319364 
L 373.581818 143.319364 
" clip-path="url(#p1ff03d8d76)" style="fill: none; stroke: #ff7f0e; stroke-width: 1.5; stroke-linecap: square"/>
   </g>
   <g id="line2d_16">
    <path d="M 69.218182 143.910422 
L 69.421091 45.355289 
L 69.826909 134.724344 
L 70.029818 167.992382 
L 70.232727 175.790027 
L 70.841455 152.336598 
L 71.044364 150.202238 
L 71.247273 149.416228 
L 71.450182 237.706263 
L 71.653091 164.214425 
L 71.856 132.169306 
L 72.058909 128.544385 
L 72.667636 139.33918 
L 73.073455 141.445318 
L 73.479273 142.188336 
L 74.088 142.801457 
L 74.899636 143.297911 
L 75.914182 143.633546 
L 77.334545 143.830516 
L 79.972364 143.903641 
L 87.48 143.998102 
L 87.682909 144.143467 
L 87.885818 145.023162 
L 88.291636 149.347188 
L 88.900364 156.100869 
L 89.103273 156.852684 
L 89.306182 156.771517 
L 89.712 154.936469 
L 90.726545 148.769168 
L 91.132364 147.301367 
L 91.538182 146.416973 
L 91.944 145.918979 
L 92.552727 145.555282 
L 93.567273 145.318071 
L 95.799273 144.88593 
L 97.422545 144.279284 
L 99.248727 143.60443 
L 100.466182 143.401503 
L 104.524364 142.952929 
L 107.568 142.535726 
L 110.814545 142.353153 
L 115.887273 142.31785 
L 126.438545 142.29471 
L 131.511273 142.231168 
L 135.569455 142.128913 
L 139.018909 141.805996 
L 142.265455 141.277709 
L 145.309091 140.56288 
L 148.149818 139.67088 
L 150.787636 138.610637 
L 153.222545 137.398784 
L 155.657455 135.928552 
L 157.889455 134.32202 
L 160.121455 132.435483 
L 162.353455 130.236391 
L 164.585455 127.693406 
L 166.817455 124.778813 
L 169.049455 121.471147 
L 171.281455 117.758097 
L 173.716364 113.245518 
L 176.354182 107.837833 
L 179.194909 101.481456 
L 182.847273 92.712629 
L 190.557818 74.017336 
L 192.992727 68.791673 
L 195.021818 64.951882 
L 196.645091 62.303189 
L 198.065455 60.342724 
L 199.485818 58.751411 
L 200.703273 57.7038 
L 201.920727 56.964767 
L 202.935273 56.593635 
L 203.949818 56.450727 
L 204.964364 56.539573 
L 205.978909 56.861862 
L 206.993455 57.417396 
L 208.008 58.204077 
L 209.225455 59.447458 
L 210.442909 61.007424 
L 211.863273 63.208469 
L 213.486545 66.191186 
L 215.312727 70.080112 
L 217.341818 74.961823 
L 219.776727 81.416864 
L 223.429091 91.804885 
L 228.907636 107.350417 
L 231.748364 114.707045 
L 234.183273 120.382689 
L 236.212364 124.595763 
L 238.241455 128.308904 
L 240.067636 131.218169 
L 241.893818 133.726728 
L 243.72 135.854201 
L 245.546182 137.628434 
L 247.372364 139.083126 
L 249.198545 140.255465 
L 251.227636 141.273714 
L 253.256727 142.042738 
L 255.488727 142.658536 
L 258.126545 143.150833 
L 261.373091 143.514426 
L 265.634182 143.750179 
L 272.533091 143.875868 
L 292.012364 143.910295 
L 373.581818 143.910422 
L 373.581818 143.910422 
" clip-path="url(#p1ff03d8d76)" style="fill: none; stroke: #2ca02c; stroke-width: 1.5; stroke-linecap: square"/>
   </g>
   <g id="line2d_17">
    <path d="M 69.218182 143.910422 
L 115.278545 143.804817 
L 124.815273 143.554504 
L 130.902545 143.183067 
L 135.569455 142.690565 
L 139.627636 142.040432 
L 143.077091 141.265901 
L 146.120727 140.364087 
L 148.961455 139.294176 
L 151.599273 138.063923 
L 154.034182 136.690825 
L 156.469091 135.054785 
L 158.701091 133.293215 
L 160.933091 131.251595 
L 163.165091 128.901443 
L 165.397091 126.215909 
L 167.629091 123.171632 
L 169.861091 119.751068 
L 172.296 115.580086 
L 174.730909 110.954977 
L 177.368727 105.462146 
L 180.412364 98.58933 
L 184.673455 88.338051 
L 190.152 75.209955 
L 192.789818 69.480883 
L 194.818909 65.569469 
L 196.645091 62.529381 
L 198.268364 60.279452 
L 199.688727 58.703684 
L 200.906182 57.669612 
L 202.123636 56.945041 
L 203.138182 56.587117 
L 204.152727 56.45881 
L 205.167273 56.563921 
L 206.181818 56.904332 
L 207.196364 57.479986 
L 208.210909 58.288844 
L 209.428364 59.561524 
L 210.645818 61.15355 
L 212.066182 63.395041 
L 213.689455 66.427041 
L 215.515636 70.373492 
L 217.544727 75.318683 
L 220.182545 82.40966 
L 224.240727 94.08477 
L 228.907636 107.339997 
L 231.748364 114.719039 
L 234.183273 120.403086 
L 236.212364 124.616262 
L 238.241455 128.324656 
L 240.067636 131.226958 
L 241.893818 133.727428 
L 243.72 135.846951 
L 245.546182 137.614423 
L 247.372364 139.064264 
L 249.198545 140.234018 
L 251.227636 141.252068 
L 253.256727 142.023319 
L 255.488727 142.64354 
L 258.126545 143.142307 
L 261.373091 143.513443 
L 265.634182 143.755578 
L 272.330182 143.880619 
L 291.200727 143.91033 
L 373.581818 143.910422 
L 373.581818 143.910422 
" clip-path="url(#p1ff03d8d76)" style="fill: none; stroke: #d62728; stroke-width: 1.5; stroke-linecap: square"/>
   </g>
   <g id="line2d_18">
    <path d="M 69.218182 143.910422 
L 69.421091 45.258235 
L 69.826909 161.690589 
L 70.029818 176.509793 
L 70.638545 152.073111 
L 71.044364 148.441826 
L 71.247273 148.086113 
L 71.450182 237.527473 
L 71.653091 164.135624 
L 71.856 131.476809 
L 72.058909 128.228465 
L 72.667636 142.887469 
L 73.073455 146.14654 
L 73.479273 147.210262 
L 73.885091 147.685837 
L 74.493818 148.008832 
L 75.102545 148.040813 
L 75.914182 147.776018 
L 77.131636 147.059487 
L 79.160727 145.885045 
L 80.784 145.219887 
L 82.610182 144.715796 
L 85.045091 144.286659 
L 87.48 143.999613 
L 87.682909 144.33443 
L 88.088727 148.365795 
L 88.494545 152.071027 
L 88.697455 152.298498 
L 88.900364 151.558626 
L 90.523636 141.418634 
L 91.335273 138.22101 
L 91.944 136.614487 
L 92.349818 136.028669 
L 92.755636 135.826221 
L 93.161455 135.947753 
L 93.770182 136.54424 
L 95.190545 138.576459 
L 96.205091 139.820199 
L 96.813818 140.289524 
L 97.625455 140.603025 
L 99.654545 140.954198 
L 100.669091 140.929704 
L 102.089455 140.638797 
L 104.727273 139.866695 
L 106.350545 139.178566 
L 107.973818 138.22915 
L 109.394182 137.147076 
L 111.017455 135.603724 
L 112.640727 133.726138 
L 114.264 131.510549 
L 116.090182 128.606748 
L 117.916364 125.256207 
L 119.742545 121.448475 
L 121.771636 116.678416 
L 124.003636 110.796136 
L 126.438545 103.698123 
L 129.279273 94.711908 
L 134.757818 76.405186 
L 138.004364 66.014338 
L 140.236364 59.576868 
L 142.062545 54.948096 
L 143.685818 51.431145 
L 145.106182 48.883069 
L 146.323636 47.130056 
L 147.338182 45.992146 
L 148.352727 45.16002 
L 149.367273 44.642246 
L 150.178909 44.45827 
L 150.990545 44.480699 
L 151.802182 44.709825 
L 152.613818 45.144698 
L 153.628364 45.974163 
L 154.642909 47.114639 
L 155.860364 48.879696 
L 157.077818 51.056125 
L 158.498182 54.078398 
L 160.121455 58.105828 
L 161.947636 63.26166 
L 164.179636 70.264858 
L 167.426182 81.301181 
L 173.513455 102.128018 
L 176.151273 110.294367 
L 178.383273 116.518516 
L 180.412364 121.552287 
L 182.238545 125.546809 
L 184.064727 129.031008 
L 185.890909 132.01925 
L 187.514182 134.281269 
L 189.137455 136.199416 
L 190.760727 137.804326 
L 192.384 139.129242 
L 194.210182 140.327721 
L 196.036364 141.263214 
L 198.065455 142.049362 
L 200.297455 142.670952 
L 202.935273 143.161752 
L 206.181818 143.520147 
L 210.442909 143.750827 
L 217.544727 143.876084 
L 237.024 143.910189 
L 373.581818 143.910422 
L 373.581818 143.910422 
" clip-path="url(#p1ff03d8d76)" style="fill: none; stroke: #9467bd; stroke-width: 1.5; stroke-linecap: square"/>
   </g>
   <g id="line2d_19">
    <path d="M 69.218182 143.910422 
L 96.408 143.814751 
L 98.234182 143.562706 
L 99.857455 143.09448 
L 101.683636 142.326799 
L 103.915636 141.127334 
L 105.944727 139.808663 
L 107.770909 138.382609 
L 109.597091 136.677824 
L 111.423273 134.655532 
L 113.249455 132.284691 
L 115.075636 129.539094 
L 116.901818 126.397143 
L 118.930909 122.422461 
L 120.96 117.929638 
L 123.192 112.397243 
L 125.626909 105.699992 
L 128.264727 97.774539 
L 131.917091 86.017956 
L 137.598545 67.674339 
L 140.033455 60.602235 
L 141.859636 55.903125 
L 143.482909 52.28307 
L 144.903273 49.617198 
L 146.120727 47.746349 
L 147.338182 46.287424 
L 148.352727 45.402881 
L 149.367273 44.830413 
L 150.178909 44.602065 
L 150.990545 44.580378 
L 151.802182 44.766344 
L 152.613818 45.159657 
L 153.628364 45.940313 
L 154.642909 47.036403 
L 155.657455 48.438919 
L 156.874909 50.509419 
L 158.295273 53.426031 
L 159.918545 57.358193 
L 161.744727 62.440226 
L 163.976727 69.399409 
L 167.020364 79.740463 
L 173.716364 102.774566 
L 176.354182 110.9141 
L 178.586182 117.089794 
L 180.615273 122.063744 
L 182.441455 125.995981 
L 184.267636 129.414066 
L 186.093818 132.336226 
L 187.717091 134.542259 
L 189.340364 136.408984 
L 190.963636 137.968358 
L 192.789818 139.397651 
L 194.616 140.53002 
L 196.442182 141.412905 
L 198.471273 142.1548 
L 200.703273 142.742145 
L 203.341091 143.207225 
L 206.587636 143.548282 
L 211.051636 143.774799 
L 218.559273 143.88861 
L 242.096727 143.910406 
L 373.581818 143.910422 
L 373.581818 143.910422 
" clip-path="url(#p1ff03d8d76)" style="fill: none; stroke: #8c564b; stroke-width: 1.5; stroke-linecap: square"/>
   </g>
   <g id="patch_3">
    <path d="M 54 252 
L 54 34.56 
" style="fill: none; stroke: #000000; stroke-width: 0.8; stroke-linejoin: miter; stroke-linecap: square"/>
   </g>
   <g id="patch_4">
    <path d="M 388.8 252 
L 388.8 34.56 
" style="fill: none; stroke: #000000; stroke-width: 0.8; stroke-linejoin: miter; stroke-linecap: square"/>
   </g>
   <g id="patch_5">
    <path d="M 54 252 
L 388.8 252 
" style="fill: none; stroke: #000000; stroke-width: 0.8; stroke-linejoin: miter; stroke-linecap: square"/>
   </g>
   <g id="patch_6">
    <path d="M 54 34.56 
L 388.8 34.56 
" style="fill: none; stroke: #000000; stroke-width: 0.8; stroke-linejoin: miter; stroke-linecap: square"/>
   </g>
   <g id="legend_1">
    <g id="patch_7">
     <path d="M 274.595312 247 
L 381.8 247 
Q 383.8 247 383.8 245 
L 383.8 157.93125 
Q 383.8 155.93125 381.8 155.93125 
L 274.595312 155.93125 
Q 272.595312 155.93125 272.595312 157.93125 
L 272.595312 245 
Q 272.595312 247 274.595312 247 
z
" style="fill: #ffffff; opacity: 0.8; stroke: #cccccc; stroke-linejoin: miter"/>
    </g>
    <g id="line2d_20">
     <path d="M 276.595312 164.029688 
L 286.595312 164.029688 
L 296.595312 164.029688 
" style="fill: none; stroke: #1f77b4; stroke-width: 1.5; stroke-linecap: square"/>
    </g>
    <g id="text_16">
     <!-- c1 - #Cells = 1 -->
     <g transform="translate(304.595312 167.529688) scale(0.1 -0.1)">
      <defs>
       <path id="DejaVuSans-2d" d="M 313 2009 
L 1997 2009 
L 1997 1497 
L 313 1497 
L 313 2009 
z
" transform="scale(0.015625)"/>
       <path id="DejaVuSans-23" d="M 3272 2816 
L 2363 2816 
L 2100 1772 
L 3016 1772 
L 3272 2816 
z
M 2803 4594 
L 2478 3297 
L 3391 3297 
L 3719 4594 
L 4219 4594 
L 3897 3297 
L 4872 3297 
L 4872 2816 
L 3775 2816 
L 3519 1772 
L 4513 1772 
L 4513 1294 
L 3397 1294 
L 3072 0 
L 2572 0 
L 2894 1294 
L 1978 1294 
L 1656 0 
L 1153 0 
L 1478 1294 
L 494 1294 
L 494 1772 
L 1594 1772 
L 1856 2816 
L 850 2816 
L 850 3297 
L 1978 3297 
L 2297 4594 
L 2803 4594 
z
" transform="scale(0.015625)"/>
       <path id="DejaVuSans-3d" d="M 678 2906 
L 4684 2906 
L 4684 2381 
L 678 2381 
L 678 2906 
z
M 678 1631 
L 4684 1631 
L 4684 1100 
L 678 1100 
L 678 1631 
z
" transform="scale(0.015625)"/>
      </defs>
      <use xlink:href="#DejaVuSans-63"/>
      <use xlink:href="#DejaVuSans-31" x="54.980469"/>
      <use xlink:href="#DejaVuSans-20" x="118.603516"/>
      <use xlink:href="#DejaVuSans-2d" x="150.390625"/>
      <use xlink:href="#DejaVuSans-20" x="186.474609"/>
      <use xlink:href="#DejaVuSans-23" x="218.261719"/>
      <use xlink:href="#DejaVuSans-43" x="302.050781"/>
      <use xlink:href="#DejaVuSans-65" x="371.875"/>
      <use xlink:href="#DejaVuSans-6c" x="433.398438"/>
      <use xlink:href="#DejaVuSans-6c" x="461.181641"/>
      <use xlink:href="#DejaVuSans-73" x="488.964844"/>
      <use xlink:href="#DejaVuSans-20" x="541.064453"/>
      <use xlink:href="#DejaVuSans-3d" x="572.851562"/>
      <use xlink:href="#DejaVuSans-20" x="656.640625"/>
      <use xlink:href="#DejaVuSans-31" x="688.427734"/>
     </g>
    </g>
    <g id="line2d_21">
     <path d="M 276.595312 178.707813 
L 286.595312 178.707813 
L 296.595312 178.707813 
" style="fill: none; stroke: #ff7f0e; stroke-width: 1.5; stroke-linecap: square"/>
    </g>
    <g id="text_17">
     <!-- c1 - #Cells = 4 -->
     <g transform="translate(304.595312 182.207813) scale(0.1 -0.1)">
      <use xlink:href="#DejaVuSans-63"/>
      <use xlink:href="#DejaVuSans-31" x="54.980469"/>
      <use xlink:href="#DejaVuSans-20" x="118.603516"/>
      <use xlink:href="#DejaVuSans-2d" x="150.390625"/>
      <use xlink:href="#DejaVuSans-20" x="186.474609"/>
      <use xlink:href="#DejaVuSans-23" x="218.261719"/>
      <use xlink:href="#DejaVuSans-43" x="302.050781"/>
      <use xlink:href="#DejaVuSans-65" x="371.875"/>
      <use xlink:href="#DejaVuSans-6c" x="433.398438"/>
      <use xlink:href="#DejaVuSans-6c" x="461.181641"/>
      <use xlink:href="#DejaVuSans-73" x="488.964844"/>
      <use xlink:href="#DejaVuSans-20" x="541.064453"/>
      <use xlink:href="#DejaVuSans-3d" x="572.851562"/>
      <use xlink:href="#DejaVuSans-20" x="656.640625"/>
      <use xlink:href="#DejaVuSans-34" x="688.427734"/>
     </g>
    </g>
    <g id="line2d_22">
     <path d="M 276.595312 193.385938 
L 286.595312 193.385938 
L 296.595312 193.385938 
" style="fill: none; stroke: #2ca02c; stroke-width: 1.5; stroke-linecap: square"/>
    </g>
    <g id="text_18">
     <!-- c2 - #Cells = 1 -->
     <g transform="translate(304.595312 196.885938) scale(0.1 -0.1)">
      <use xlink:href="#DejaVuSans-63"/>
      <use xlink:href="#DejaVuSans-32" x="54.980469"/>
      <use xlink:href="#DejaVuSans-20" x="118.603516"/>
      <use xlink:href="#DejaVuSans-2d" x="150.390625"/>
      <use xlink:href="#DejaVuSans-20" x="186.474609"/>
      <use xlink:href="#DejaVuSans-23" x="218.261719"/>
      <use xlink:href="#DejaVuSans-43" x="302.050781"/>
      <use xlink:href="#DejaVuSans-65" x="371.875"/>
      <use xlink:href="#DejaVuSans-6c" x="433.398438"/>
      <use xlink:href="#DejaVuSans-6c" x="461.181641"/>
      <use xlink:href="#DejaVuSans-73" x="488.964844"/>
      <use xlink:href="#DejaVuSans-20" x="541.064453"/>
      <use xlink:href="#DejaVuSans-3d" x="572.851562"/>
      <use xlink:href="#DejaVuSans-20" x="656.640625"/>
      <use xlink:href="#DejaVuSans-31" x="688.427734"/>
     </g>
    </g>
    <g id="line2d_23">
     <path d="M 276.595312 208.064063 
L 286.595312 208.064063 
L 296.595312 208.064063 
" style="fill: none; stroke: #d62728; stroke-width: 1.5; stroke-linecap: square"/>
    </g>
    <g id="text_19">
     <!-- c2 - #Cells = 4 -->
     <g transform="translate(304.595312 211.564063) scale(0.1 -0.1)">
      <use xlink:href="#DejaVuSans-63"/>
      <use xlink:href="#DejaVuSans-32" x="54.980469"/>
      <use xlink:href="#DejaVuSans-20" x="118.603516"/>
      <use xlink:href="#DejaVuSans-2d" x="150.390625"/>
      <use xlink:href="#DejaVuSans-20" x="186.474609"/>
      <use xlink:href="#DejaVuSans-23" x="218.261719"/>
      <use xlink:href="#DejaVuSans-43" x="302.050781"/>
      <use xlink:href="#DejaVuSans-65" x="371.875"/>
      <use xlink:href="#DejaVuSans-6c" x="433.398438"/>
      <use xlink:href="#DejaVuSans-6c" x="461.181641"/>
      <use xlink:href="#DejaVuSans-73" x="488.964844"/>
      <use xlink:href="#DejaVuSans-20" x="541.064453"/>
      <use xlink:href="#DejaVuSans-3d" x="572.851562"/>
      <use xlink:href="#DejaVuSans-20" x="656.640625"/>
      <use xlink:href="#DejaVuSans-34" x="688.427734"/>
     </g>
    </g>
    <g id="line2d_24">
     <path d="M 276.595312 222.742188 
L 286.595312 222.742188 
L 296.595312 222.742188 
" style="fill: none; stroke: #9467bd; stroke-width: 1.5; stroke-linecap: square"/>
    </g>
    <g id="text_20">
     <!-- c3 - #Cells = 1 -->
     <g transform="translate(304.595312 226.242188) scale(0.1 -0.1)">
      <defs>
       <path id="DejaVuSans-33" d="M 2597 2516 
Q 3050 2419 3304 2112 
Q 3559 1806 3559 1356 
Q 3559 666 3084 287 
Q 2609 -91 1734 -91 
Q 1441 -91 1130 -33 
Q 819 25 488 141 
L 488 750 
Q 750 597 1062 519 
Q 1375 441 1716 441 
Q 2309 441 2620 675 
Q 2931 909 2931 1356 
Q 2931 1769 2642 2001 
Q 2353 2234 1838 2234 
L 1294 2234 
L 1294 2753 
L 1863 2753 
Q 2328 2753 2575 2939 
Q 2822 3125 2822 3475 
Q 2822 3834 2567 4026 
Q 2313 4219 1838 4219 
Q 1578 4219 1281 4162 
Q 984 4106 628 3988 
L 628 4550 
Q 988 4650 1302 4700 
Q 1616 4750 1894 4750 
Q 2613 4750 3031 4423 
Q 3450 4097 3450 3541 
Q 3450 3153 3228 2886 
Q 3006 2619 2597 2516 
z
" transform="scale(0.015625)"/>
      </defs>
      <use xlink:href="#DejaVuSans-63"/>
      <use xlink:href="#DejaVuSans-33" x="54.980469"/>
      <use xlink:href="#DejaVuSans-20" x="118.603516"/>
      <use xlink:href="#DejaVuSans-2d" x="150.390625"/>
      <use xlink:href="#DejaVuSans-20" x="186.474609"/>
      <use xlink:href="#DejaVuSans-23" x="218.261719"/>
      <use xlink:href="#DejaVuSans-43" x="302.050781"/>
      <use xlink:href="#DejaVuSans-65" x="371.875"/>
      <use xlink:href="#DejaVuSans-6c" x="433.398438"/>
      <use xlink:href="#DejaVuSans-6c" x="461.181641"/>
      <use xlink:href="#DejaVuSans-73" x="488.964844"/>
      <use xlink:href="#DejaVuSans-20" x="541.064453"/>
      <use xlink:href="#DejaVuSans-3d" x="572.851562"/>
      <use xlink:href="#DejaVuSans-20" x="656.640625"/>
      <use xlink:href="#DejaVuSans-31" x="688.427734"/>
     </g>
    </g>
    <g id="line2d_25">
     <path d="M 276.595312 237.420313 
L 286.595312 237.420313 
L 296.595312 237.420313 
" style="fill: none; stroke: #8c564b; stroke-width: 1.5; stroke-linecap: square"/>
    </g>
    <g id="text_21">
     <!-- c3 - #Cells = 4 -->
     <g transform="translate(304.595312 240.920313) scale(0.1 -0.1)">
      <use xlink:href="#DejaVuSans-63"/>
      <use xlink:href="#DejaVuSans-33" x="54.980469"/>
      <use xlink:href="#DejaVuSans-20" x="118.603516"/>
      <use xlink:href="#DejaVuSans-2d" x="150.390625"/>
      <use xlink:href="#DejaVuSans-20" x="186.474609"/>
      <use xlink:href="#DejaVuSans-23" x="218.261719"/>
      <use xlink:href="#DejaVuSans-43" x="302.050781"/>
      <use xlink:href="#DejaVuSans-65" x="371.875"/>
      <use xlink:href="#DejaVuSans-6c" x="433.398438"/>
      <use xlink:href="#DejaVuSans-6c" x="461.181641"/>
      <use xlink:href="#DejaVuSans-73" x="488.964844"/>
      <use xlink:href="#DejaVuSans-20" x="541.064453"/>
      <use xlink:href="#DejaVuSans-3d" x="572.851562"/>
      <use xlink:href="#DejaVuSans-20" x="656.640625"/>
      <use xlink:href="#DejaVuSans-34" x="688.427734"/>
     </g>
    </g>
   </g>
  </g>
 </g>
 <defs>
  <clipPath id="p1ff03d8d76">
   <rect x="54" y="34.56" width="334.8" height="217.44"/>
  </clipPath>
 </defs>
</svg>
