<?xml version="1.0" encoding="utf-8" standalone="no"?>
<!DOCTYPE svg PUBLIC "-//W3C//DTD SVG 1.1//EN"
  "http://www.w3.org/Graphics/SVG/1.1/DTD/svg11.dtd">
<svg xmlns:xlink="http://www.w3.org/1999/xlink" width="814.545313pt" height="616.23375pt" viewBox="0 0 814.545313 616.23375" xmlns="http://www.w3.org/2000/svg" version="1.1">
 <metadata>
  <rdf:RDF xmlns:dc="http://purl.org/dc/elements/1.1/" xmlns:cc="http://creativecommons.org/ns#" xmlns:rdf="http://www.w3.org/1999/02/22-rdf-syntax-ns#">
   <cc:Work>
    <dc:type rdf:resource="http://purl.org/dc/dcmitype/StillImage"/>
    <dc:date>2024-03-18T08:48:32.636214</dc:date>
    <dc:format>image/svg+xml</dc:format>
    <dc:creator>
     <cc:Agent>
      <dc:title>Matplotlib v3.7.1, https://matplotlib.org/</dc:title>
     </cc:Agent>
    </dc:creator>
   </cc:Work>
  </rdf:RDF>
 </metadata>
 <defs>
  <style type="text/css">*{stroke-linejoin: round; stroke-linecap: butt}</style>
 </defs>
 <g id="figure_1">
  <g id="patch_1">
   <path d="M 0 616.23375 
L 814.545313 616.23375 
L 814.545313 0 
L 0 0 
z
" style="fill: #ffffff"/>
  </g>
  <g id="axes_1">
   <g id="patch_2">
    <path d="M 94.095313 352.8 
L 735.795313 352.8 
L 735.795313 7.2 
L 94.095313 7.2 
z
" style="fill: #ffffff"/>
   </g>
   <g id="matplotlib.axis_1">
    <g id="xtick_1">
     <g id="line2d_1">
      <path d="M 103.526294 352.8 
L 103.526294 7.2 
" clip-path="url(#pf106a2cb44)" style="fill: none; stroke-dasharray: 1.85,0.8; stroke-dashoffset: 0; stroke: #b0b0b0; stroke-width: 0.5"/>
     </g>
     <g id="line2d_2">
      <defs>
       <path id="m95bc49d289" d="M 0 0 
L 0 3.5 
" style="stroke: #000000; stroke-width: 0.8"/>
      </defs>
      <g>
       <use xlink:href="#m95bc49d289" x="103.526294" y="352.8" style="stroke: #000000; stroke-width: 0.8"/>
      </g>
     </g>
     <g id="text_1">
      <!-- $\mathdefault{10^{2}}$ -->
      <g transform="translate(84.166294 376.516562) scale(0.22 -0.22)">
       <defs>
        <path id="DejaVuSans-31" d="M 794 531 
L 1825 531 
L 1825 4091 
L 703 3866 
L 703 4441 
L 1819 4666 
L 2450 4666 
L 2450 531 
L 3481 531 
L 3481 0 
L 794 0 
L 794 531 
z
" transform="scale(0.015625)"/>
        <path id="DejaVuSans-30" d="M 2034 4250 
Q 1547 4250 1301 3770 
Q 1056 3291 1056 2328 
Q 1056 1369 1301 889 
Q 1547 409 2034 409 
Q 2525 409 2770 889 
Q 3016 1369 3016 2328 
Q 3016 3291 2770 3770 
Q 2525 4250 2034 4250 
z
M 2034 4750 
Q 2819 4750 3233 4129 
Q 3647 3509 3647 2328 
Q 3647 1150 3233 529 
Q 2819 -91 2034 -91 
Q 1250 -91 836 529 
Q 422 1150 422 2328 
Q 422 3509 836 4129 
Q 1250 4750 2034 4750 
z
" transform="scale(0.015625)"/>
        <path id="DejaVuSans-32" d="M 1228 531 
L 3431 531 
L 3431 0 
L 469 0 
L 469 531 
Q 828 903 1448 1529 
Q 2069 2156 2228 2338 
Q 2531 2678 2651 2914 
Q 2772 3150 2772 3378 
Q 2772 3750 2511 3984 
Q 2250 4219 1831 4219 
Q 1534 4219 1204 4116 
Q 875 4013 500 3803 
L 500 4441 
Q 881 4594 1212 4672 
Q 1544 4750 1819 4750 
Q 2544 4750 2975 4387 
Q 3406 4025 3406 3419 
Q 3406 3131 3298 2873 
Q 3191 2616 2906 2266 
Q 2828 2175 2409 1742 
Q 1991 1309 1228 531 
z
" transform="scale(0.015625)"/>
       </defs>
       <use xlink:href="#DejaVuSans-31" transform="translate(0 0.765625)"/>
       <use xlink:href="#DejaVuSans-30" transform="translate(63.623047 0.765625)"/>
       <use xlink:href="#DejaVuSans-32" transform="translate(128.203125 39.046875) scale(0.7)"/>
      </g>
     </g>
    </g>
    <g id="xtick_2">
     <g id="line2d_3">
      <path d="M 580.354518 352.8 
L 580.354518 7.2 
" clip-path="url(#pf106a2cb44)" style="fill: none; stroke-dasharray: 1.85,0.8; stroke-dashoffset: 0; stroke: #b0b0b0; stroke-width: 0.5"/>
     </g>
     <g id="line2d_4">
      <g>
       <use xlink:href="#m95bc49d289" x="580.354518" y="352.8" style="stroke: #000000; stroke-width: 0.8"/>
      </g>
     </g>
     <g id="text_2">
      <!-- $\mathdefault{10^{3}}$ -->
      <g transform="translate(560.994518 376.516562) scale(0.22 -0.22)">
       <defs>
        <path id="DejaVuSans-33" d="M 2597 2516 
Q 3050 2419 3304 2112 
Q 3559 1806 3559 1356 
Q 3559 666 3084 287 
Q 2609 -91 1734 -91 
Q 1441 -91 1130 -33 
Q 819 25 488 141 
L 488 750 
Q 750 597 1062 519 
Q 1375 441 1716 441 
Q 2309 441 2620 675 
Q 2931 909 2931 1356 
Q 2931 1769 2642 2001 
Q 2353 2234 1838 2234 
L 1294 2234 
L 1294 2753 
L 1863 2753 
Q 2328 2753 2575 2939 
Q 2822 3125 2822 3475 
Q 2822 3834 2567 4026 
Q 2313 4219 1838 4219 
Q 1578 4219 1281 4162 
Q 984 4106 628 3988 
L 628 4550 
Q 988 4650 1302 4700 
Q 1616 4750 1894 4750 
Q 2613 4750 3031 4423 
Q 3450 4097 3450 3541 
Q 3450 3153 3228 2886 
Q 3006 2619 2597 2516 
z
" transform="scale(0.015625)"/>
       </defs>
       <use xlink:href="#DejaVuSans-31" transform="translate(0 0.765625)"/>
       <use xlink:href="#DejaVuSans-30" transform="translate(63.623047 0.765625)"/>
       <use xlink:href="#DejaVuSans-33" transform="translate(128.203125 39.046875) scale(0.7)"/>
      </g>
     </g>
    </g>
    <g id="xtick_3">
     <g id="line2d_5">
      <path d="M 247.065892 352.8 
L 247.065892 7.2 
" clip-path="url(#pf106a2cb44)" style="fill: none; stroke-dasharray: 1.85,0.8; stroke-dashoffset: 0; stroke: #b0b0b0; stroke-width: 0.5"/>
     </g>
     <g id="line2d_6">
      <defs>
       <path id="m6712be128b" d="M 0 0 
L 0 2 
" style="stroke: #000000; stroke-width: 0.6"/>
      </defs>
      <g>
       <use xlink:href="#m6712be128b" x="247.065892" y="352.8" style="stroke: #000000; stroke-width: 0.6"/>
      </g>
     </g>
    </g>
    <g id="xtick_4">
     <g id="line2d_7">
      <path d="M 331.031175 352.8 
L 331.031175 7.2 
" clip-path="url(#pf106a2cb44)" style="fill: none; stroke-dasharray: 1.85,0.8; stroke-dashoffset: 0; stroke: #b0b0b0; stroke-width: 0.5"/>
     </g>
     <g id="line2d_8">
      <g>
       <use xlink:href="#m6712be128b" x="331.031175" y="352.8" style="stroke: #000000; stroke-width: 0.6"/>
      </g>
     </g>
    </g>
    <g id="xtick_5">
     <g id="line2d_9">
      <path d="M 390.60549 352.8 
L 390.60549 7.2 
" clip-path="url(#pf106a2cb44)" style="fill: none; stroke-dasharray: 1.85,0.8; stroke-dashoffset: 0; stroke: #b0b0b0; stroke-width: 0.5"/>
     </g>
     <g id="line2d_10">
      <g>
       <use xlink:href="#m6712be128b" x="390.60549" y="352.8" style="stroke: #000000; stroke-width: 0.6"/>
      </g>
     </g>
    </g>
    <g id="xtick_6">
     <g id="line2d_11">
      <path d="M 436.81492 352.8 
L 436.81492 7.2 
" clip-path="url(#pf106a2cb44)" style="fill: none; stroke-dasharray: 1.85,0.8; stroke-dashoffset: 0; stroke: #b0b0b0; stroke-width: 0.5"/>
     </g>
     <g id="line2d_12">
      <g>
       <use xlink:href="#m6712be128b" x="436.81492" y="352.8" style="stroke: #000000; stroke-width: 0.6"/>
      </g>
     </g>
    </g>
    <g id="xtick_7">
     <g id="line2d_13">
      <path d="M 474.570773 352.8 
L 474.570773 7.2 
" clip-path="url(#pf106a2cb44)" style="fill: none; stroke-dasharray: 1.85,0.8; stroke-dashoffset: 0; stroke: #b0b0b0; stroke-width: 0.5"/>
     </g>
     <g id="line2d_14">
      <g>
       <use xlink:href="#m6712be128b" x="474.570773" y="352.8" style="stroke: #000000; stroke-width: 0.6"/>
      </g>
     </g>
    </g>
    <g id="xtick_8">
     <g id="line2d_15">
      <path d="M 506.492892 352.8 
L 506.492892 7.2 
" clip-path="url(#pf106a2cb44)" style="fill: none; stroke-dasharray: 1.85,0.8; stroke-dashoffset: 0; stroke: #b0b0b0; stroke-width: 0.5"/>
     </g>
     <g id="line2d_16">
      <g>
       <use xlink:href="#m6712be128b" x="506.492892" y="352.8" style="stroke: #000000; stroke-width: 0.6"/>
      </g>
     </g>
    </g>
    <g id="xtick_9">
     <g id="line2d_17">
      <path d="M 534.145089 352.8 
L 534.145089 7.2 
" clip-path="url(#pf106a2cb44)" style="fill: none; stroke-dasharray: 1.85,0.8; stroke-dashoffset: 0; stroke: #b0b0b0; stroke-width: 0.5"/>
     </g>
     <g id="line2d_18">
      <g>
       <use xlink:href="#m6712be128b" x="534.145089" y="352.8" style="stroke: #000000; stroke-width: 0.6"/>
      </g>
     </g>
    </g>
    <g id="xtick_10">
     <g id="line2d_19">
      <path d="M 558.536055 352.8 
L 558.536055 7.2 
" clip-path="url(#pf106a2cb44)" style="fill: none; stroke-dasharray: 1.85,0.8; stroke-dashoffset: 0; stroke: #b0b0b0; stroke-width: 0.5"/>
     </g>
     <g id="line2d_20">
      <g>
       <use xlink:href="#m6712be128b" x="558.536055" y="352.8" style="stroke: #000000; stroke-width: 0.6"/>
      </g>
     </g>
    </g>
    <g id="xtick_11">
     <g id="line2d_21">
      <path d="M 723.894117 352.8 
L 723.894117 7.2 
" clip-path="url(#pf106a2cb44)" style="fill: none; stroke-dasharray: 1.85,0.8; stroke-dashoffset: 0; stroke: #b0b0b0; stroke-width: 0.5"/>
     </g>
     <g id="line2d_22">
      <g>
       <use xlink:href="#m6712be128b" x="723.894117" y="352.8" style="stroke: #000000; stroke-width: 0.6"/>
      </g>
     </g>
    </g>
    <g id="text_3">
     <!-- DOF -->
     <g transform="translate(388.291016 404.087969) scale(0.25 -0.25)">
      <defs>
       <path id="DejaVuSans-44" d="M 1259 4147 
L 1259 519 
L 2022 519 
Q 2988 519 3436 956 
Q 3884 1394 3884 2338 
Q 3884 3275 3436 3711 
Q 2988 4147 2022 4147 
L 1259 4147 
z
M 628 4666 
L 1925 4666 
Q 3281 4666 3915 4102 
Q 4550 3538 4550 2338 
Q 4550 1131 3912 565 
Q 3275 0 1925 0 
L 628 0 
L 628 4666 
z
" transform="scale(0.015625)"/>
       <path id="DejaVuSans-4f" d="M 2522 4238 
Q 1834 4238 1429 3725 
Q 1025 3213 1025 2328 
Q 1025 1447 1429 934 
Q 1834 422 2522 422 
Q 3209 422 3611 934 
Q 4013 1447 4013 2328 
Q 4013 3213 3611 3725 
Q 3209 4238 2522 4238 
z
M 2522 4750 
Q 3503 4750 4090 4092 
Q 4678 3434 4678 2328 
Q 4678 1225 4090 567 
Q 3503 -91 2522 -91 
Q 1538 -91 948 565 
Q 359 1222 359 2328 
Q 359 3434 948 4092 
Q 1538 4750 2522 4750 
z
" transform="scale(0.015625)"/>
       <path id="DejaVuSans-46" d="M 628 4666 
L 3309 4666 
L 3309 4134 
L 1259 4134 
L 1259 2759 
L 3109 2759 
L 3109 2228 
L 1259 2228 
L 1259 0 
L 628 0 
L 628 4666 
z
" transform="scale(0.015625)"/>
      </defs>
      <use xlink:href="#DejaVuSans-44"/>
      <use xlink:href="#DejaVuSans-4f" x="77.001953"/>
      <use xlink:href="#DejaVuSans-46" x="155.712891"/>
     </g>
    </g>
   </g>
   <g id="matplotlib.axis_2">
    <g id="ytick_1">
     <g id="line2d_23">
      <path d="M 94.095313 295.067793 
L 735.795313 295.067793 
" clip-path="url(#pf106a2cb44)" style="fill: none; stroke-dasharray: 1.85,0.8; stroke-dashoffset: 0; stroke: #b0b0b0; stroke-width: 0.5"/>
     </g>
     <g id="line2d_24">
      <defs>
       <path id="mc3dbe978a8" d="M 0 0 
L -3.5 0 
" style="stroke: #000000; stroke-width: 0.8"/>
      </defs>
      <g>
       <use xlink:href="#mc3dbe978a8" x="94.095313" y="295.067793" style="stroke: #000000; stroke-width: 0.8"/>
      </g>
     </g>
     <g id="text_4">
      <!-- $\mathdefault{10^{-5}}$ -->
      <g transform="translate(35.395313 303.426075) scale(0.22 -0.22)">
       <defs>
        <path id="DejaVuSans-2212" d="M 678 2272 
L 4684 2272 
L 4684 1741 
L 678 1741 
L 678 2272 
z
" transform="scale(0.015625)"/>
        <path id="DejaVuSans-35" d="M 691 4666 
L 3169 4666 
L 3169 4134 
L 1269 4134 
L 1269 2991 
Q 1406 3038 1543 3061 
Q 1681 3084 1819 3084 
Q 2600 3084 3056 2656 
Q 3513 2228 3513 1497 
Q 3513 744 3044 326 
Q 2575 -91 1722 -91 
Q 1428 -91 1123 -41 
Q 819 9 494 109 
L 494 744 
Q 775 591 1075 516 
Q 1375 441 1709 441 
Q 2250 441 2565 725 
Q 2881 1009 2881 1497 
Q 2881 1984 2565 2268 
Q 2250 2553 1709 2553 
Q 1456 2553 1204 2497 
Q 953 2441 691 2322 
L 691 4666 
z
" transform="scale(0.015625)"/>
       </defs>
       <use xlink:href="#DejaVuSans-31" transform="translate(0 0.684375)"/>
       <use xlink:href="#DejaVuSans-30" transform="translate(63.623047 0.684375)"/>
       <use xlink:href="#DejaVuSans-2212" transform="translate(128.203125 38.965625) scale(0.7)"/>
       <use xlink:href="#DejaVuSans-35" transform="translate(186.855469 38.965625) scale(0.7)"/>
      </g>
     </g>
    </g>
    <g id="ytick_2">
     <g id="line2d_25">
      <path d="M 94.095313 180.767518 
L 735.795313 180.767518 
" clip-path="url(#pf106a2cb44)" style="fill: none; stroke-dasharray: 1.85,0.8; stroke-dashoffset: 0; stroke: #b0b0b0; stroke-width: 0.5"/>
     </g>
     <g id="line2d_26">
      <g>
       <use xlink:href="#mc3dbe978a8" x="94.095313" y="180.767518" style="stroke: #000000; stroke-width: 0.8"/>
      </g>
     </g>
     <g id="text_5">
      <!-- $\mathdefault{10^{-3}}$ -->
      <g transform="translate(35.395313 189.125799) scale(0.22 -0.22)">
       <use xlink:href="#DejaVuSans-31" transform="translate(0 0.765625)"/>
       <use xlink:href="#DejaVuSans-30" transform="translate(63.623047 0.765625)"/>
       <use xlink:href="#DejaVuSans-2212" transform="translate(128.203125 39.046875) scale(0.7)"/>
       <use xlink:href="#DejaVuSans-33" transform="translate(186.855469 39.046875) scale(0.7)"/>
      </g>
     </g>
    </g>
    <g id="ytick_3">
     <g id="line2d_27">
      <path d="M 94.095313 66.467242 
L 735.795313 66.467242 
" clip-path="url(#pf106a2cb44)" style="fill: none; stroke-dasharray: 1.85,0.8; stroke-dashoffset: 0; stroke: #b0b0b0; stroke-width: 0.5"/>
     </g>
     <g id="line2d_28">
      <g>
       <use xlink:href="#mc3dbe978a8" x="94.095313" y="66.467242" style="stroke: #000000; stroke-width: 0.8"/>
      </g>
     </g>
     <g id="text_6">
      <!-- $\mathdefault{10^{-1}}$ -->
      <g transform="translate(35.395313 74.825523) scale(0.22 -0.22)">
       <use xlink:href="#DejaVuSans-31" transform="translate(0 0.684375)"/>
       <use xlink:href="#DejaVuSans-30" transform="translate(63.623047 0.684375)"/>
       <use xlink:href="#DejaVuSans-2212" transform="translate(128.203125 38.965625) scale(0.7)"/>
       <use xlink:href="#DejaVuSans-31" transform="translate(186.855469 38.965625) scale(0.7)"/>
      </g>
     </g>
    </g>
    <g id="text_7">
     <!-- Max abs error (mol/L) -->
     <g transform="translate(26.196094 314.351562) rotate(-90) scale(0.25 -0.25)">
      <defs>
       <path id="DejaVuSans-4d" d="M 628 4666 
L 1569 4666 
L 2759 1491 
L 3956 4666 
L 4897 4666 
L 4897 0 
L 4281 0 
L 4281 4097 
L 3078 897 
L 2444 897 
L 1241 4097 
L 1241 0 
L 628 0 
L 628 4666 
z
" transform="scale(0.015625)"/>
       <path id="DejaVuSans-61" d="M 2194 1759 
Q 1497 1759 1228 1600 
Q 959 1441 959 1056 
Q 959 750 1161 570 
Q 1363 391 1709 391 
Q 2188 391 2477 730 
Q 2766 1069 2766 1631 
L 2766 1759 
L 2194 1759 
z
M 3341 1997 
L 3341 0 
L 2766 0 
L 2766 531 
Q 2569 213 2275 61 
Q 1981 -91 1556 -91 
Q 1019 -91 701 211 
Q 384 513 384 1019 
Q 384 1609 779 1909 
Q 1175 2209 1959 2209 
L 2766 2209 
L 2766 2266 
Q 2766 2663 2505 2880 
Q 2244 3097 1772 3097 
Q 1472 3097 1187 3025 
Q 903 2953 641 2809 
L 641 3341 
Q 956 3463 1253 3523 
Q 1550 3584 1831 3584 
Q 2591 3584 2966 3190 
Q 3341 2797 3341 1997 
z
" transform="scale(0.015625)"/>
       <path id="DejaVuSans-78" d="M 3513 3500 
L 2247 1797 
L 3578 0 
L 2900 0 
L 1881 1375 
L 863 0 
L 184 0 
L 1544 1831 
L 300 3500 
L 978 3500 
L 1906 2253 
L 2834 3500 
L 3513 3500 
z
" transform="scale(0.015625)"/>
       <path id="DejaVuSans-20" transform="scale(0.015625)"/>
       <path id="DejaVuSans-62" d="M 3116 1747 
Q 3116 2381 2855 2742 
Q 2594 3103 2138 3103 
Q 1681 3103 1420 2742 
Q 1159 2381 1159 1747 
Q 1159 1113 1420 752 
Q 1681 391 2138 391 
Q 2594 391 2855 752 
Q 3116 1113 3116 1747 
z
M 1159 2969 
Q 1341 3281 1617 3432 
Q 1894 3584 2278 3584 
Q 2916 3584 3314 3078 
Q 3713 2572 3713 1747 
Q 3713 922 3314 415 
Q 2916 -91 2278 -91 
Q 1894 -91 1617 61 
Q 1341 213 1159 525 
L 1159 0 
L 581 0 
L 581 4863 
L 1159 4863 
L 1159 2969 
z
" transform="scale(0.015625)"/>
       <path id="DejaVuSans-73" d="M 2834 3397 
L 2834 2853 
Q 2591 2978 2328 3040 
Q 2066 3103 1784 3103 
Q 1356 3103 1142 2972 
Q 928 2841 928 2578 
Q 928 2378 1081 2264 
Q 1234 2150 1697 2047 
L 1894 2003 
Q 2506 1872 2764 1633 
Q 3022 1394 3022 966 
Q 3022 478 2636 193 
Q 2250 -91 1575 -91 
Q 1294 -91 989 -36 
Q 684 19 347 128 
L 347 722 
Q 666 556 975 473 
Q 1284 391 1588 391 
Q 1994 391 2212 530 
Q 2431 669 2431 922 
Q 2431 1156 2273 1281 
Q 2116 1406 1581 1522 
L 1381 1569 
Q 847 1681 609 1914 
Q 372 2147 372 2553 
Q 372 3047 722 3315 
Q 1072 3584 1716 3584 
Q 2034 3584 2315 3537 
Q 2597 3491 2834 3397 
z
" transform="scale(0.015625)"/>
       <path id="DejaVuSans-65" d="M 3597 1894 
L 3597 1613 
L 953 1613 
Q 991 1019 1311 708 
Q 1631 397 2203 397 
Q 2534 397 2845 478 
Q 3156 559 3463 722 
L 3463 178 
Q 3153 47 2828 -22 
Q 2503 -91 2169 -91 
Q 1331 -91 842 396 
Q 353 884 353 1716 
Q 353 2575 817 3079 
Q 1281 3584 2069 3584 
Q 2775 3584 3186 3129 
Q 3597 2675 3597 1894 
z
M 3022 2063 
Q 3016 2534 2758 2815 
Q 2500 3097 2075 3097 
Q 1594 3097 1305 2825 
Q 1016 2553 972 2059 
L 3022 2063 
z
" transform="scale(0.015625)"/>
       <path id="DejaVuSans-72" d="M 2631 2963 
Q 2534 3019 2420 3045 
Q 2306 3072 2169 3072 
Q 1681 3072 1420 2755 
Q 1159 2438 1159 1844 
L 1159 0 
L 581 0 
L 581 3500 
L 1159 3500 
L 1159 2956 
Q 1341 3275 1631 3429 
Q 1922 3584 2338 3584 
Q 2397 3584 2469 3576 
Q 2541 3569 2628 3553 
L 2631 2963 
z
" transform="scale(0.015625)"/>
       <path id="DejaVuSans-6f" d="M 1959 3097 
Q 1497 3097 1228 2736 
Q 959 2375 959 1747 
Q 959 1119 1226 758 
Q 1494 397 1959 397 
Q 2419 397 2687 759 
Q 2956 1122 2956 1747 
Q 2956 2369 2687 2733 
Q 2419 3097 1959 3097 
z
M 1959 3584 
Q 2709 3584 3137 3096 
Q 3566 2609 3566 1747 
Q 3566 888 3137 398 
Q 2709 -91 1959 -91 
Q 1206 -91 779 398 
Q 353 888 353 1747 
Q 353 2609 779 3096 
Q 1206 3584 1959 3584 
z
" transform="scale(0.015625)"/>
       <path id="DejaVuSans-28" d="M 1984 4856 
Q 1566 4138 1362 3434 
Q 1159 2731 1159 2009 
Q 1159 1288 1364 580 
Q 1569 -128 1984 -844 
L 1484 -844 
Q 1016 -109 783 600 
Q 550 1309 550 2009 
Q 550 2706 781 3412 
Q 1013 4119 1484 4856 
L 1984 4856 
z
" transform="scale(0.015625)"/>
       <path id="DejaVuSans-6d" d="M 3328 2828 
Q 3544 3216 3844 3400 
Q 4144 3584 4550 3584 
Q 5097 3584 5394 3201 
Q 5691 2819 5691 2113 
L 5691 0 
L 5113 0 
L 5113 2094 
Q 5113 2597 4934 2840 
Q 4756 3084 4391 3084 
Q 3944 3084 3684 2787 
Q 3425 2491 3425 1978 
L 3425 0 
L 2847 0 
L 2847 2094 
Q 2847 2600 2669 2842 
Q 2491 3084 2119 3084 
Q 1678 3084 1418 2786 
Q 1159 2488 1159 1978 
L 1159 0 
L 581 0 
L 581 3500 
L 1159 3500 
L 1159 2956 
Q 1356 3278 1631 3431 
Q 1906 3584 2284 3584 
Q 2666 3584 2933 3390 
Q 3200 3197 3328 2828 
z
" transform="scale(0.015625)"/>
       <path id="DejaVuSans-6c" d="M 603 4863 
L 1178 4863 
L 1178 0 
L 603 0 
L 603 4863 
z
" transform="scale(0.015625)"/>
       <path id="DejaVuSans-2f" d="M 1625 4666 
L 2156 4666 
L 531 -594 
L 0 -594 
L 1625 4666 
z
" transform="scale(0.015625)"/>
       <path id="DejaVuSans-4c" d="M 628 4666 
L 1259 4666 
L 1259 531 
L 3531 531 
L 3531 0 
L 628 0 
L 628 4666 
z
" transform="scale(0.015625)"/>
       <path id="DejaVuSans-29" d="M 513 4856 
L 1013 4856 
Q 1481 4119 1714 3412 
Q 1947 2706 1947 2009 
Q 1947 1309 1714 600 
Q 1481 -109 1013 -844 
L 513 -844 
Q 928 -128 1133 580 
Q 1338 1288 1338 2009 
Q 1338 2731 1133 3434 
Q 928 4138 513 4856 
z
" transform="scale(0.015625)"/>
      </defs>
      <use xlink:href="#DejaVuSans-4d"/>
      <use xlink:href="#DejaVuSans-61" x="86.279297"/>
      <use xlink:href="#DejaVuSans-78" x="147.558594"/>
      <use xlink:href="#DejaVuSans-20" x="206.738281"/>
      <use xlink:href="#DejaVuSans-61" x="238.525391"/>
      <use xlink:href="#DejaVuSans-62" x="299.804688"/>
      <use xlink:href="#DejaVuSans-73" x="363.28125"/>
      <use xlink:href="#DejaVuSans-20" x="415.380859"/>
      <use xlink:href="#DejaVuSans-65" x="447.167969"/>
      <use xlink:href="#DejaVuSans-72" x="508.691406"/>
      <use xlink:href="#DejaVuSans-72" x="548.054688"/>
      <use xlink:href="#DejaVuSans-6f" x="586.917969"/>
      <use xlink:href="#DejaVuSans-72" x="648.099609"/>
      <use xlink:href="#DejaVuSans-20" x="689.212891"/>
      <use xlink:href="#DejaVuSans-28" x="721"/>
      <use xlink:href="#DejaVuSans-6d" x="760.013672"/>
      <use xlink:href="#DejaVuSans-6f" x="857.425781"/>
      <use xlink:href="#DejaVuSans-6c" x="918.607422"/>
      <use xlink:href="#DejaVuSans-2f" x="946.390625"/>
      <use xlink:href="#DejaVuSans-4c" x="980.082031"/>
      <use xlink:href="#DejaVuSans-29" x="1035.794922"/>
     </g>
    </g>
   </g>
   <g id="line2d_29">
    <path d="M 123.263494 22.909091 
L 266.803093 91.595809 
L 410.342691 228.921547 
L 553.882289 298.530759 
" clip-path="url(#pf106a2cb44)" style="fill: none; stroke-dasharray: 7.4,3.2; stroke-dashoffset: 0; stroke: #1f77b4; stroke-width: 2"/>
    <defs>
     <path id="mf42467b26a" d="M 0 2.5 
C 0.663008 2.5 1.29895 2.236584 1.767767 1.767767 
C 2.236584 1.29895 2.5 0.663008 2.5 0 
C 2.5 -0.663008 2.236584 -1.29895 1.767767 -1.767767 
C 1.29895 -2.236584 0.663008 -2.5 0 -2.5 
C -0.663008 -2.5 -1.29895 -2.236584 -1.767767 -1.767767 
C -2.236584 -1.29895 -2.5 -0.663008 -2.5 0 
C -2.5 0.663008 -2.236584 1.29895 -1.767767 1.767767 
C -1.29895 2.236584 -0.663008 2.5 0 2.5 
z
" style="stroke: #1f77b4"/>
    </defs>
    <g clip-path="url(#pf106a2cb44)">
     <use xlink:href="#mf42467b26a" x="123.263494" y="22.909091" style="fill: #1f77b4; stroke: #1f77b4"/>
     <use xlink:href="#mf42467b26a" x="266.803093" y="91.595809" style="fill: #1f77b4; stroke: #1f77b4"/>
     <use xlink:href="#mf42467b26a" x="410.342691" y="228.921547" style="fill: #1f77b4; stroke: #1f77b4"/>
     <use xlink:href="#mf42467b26a" x="553.882289" y="298.530759" style="fill: #1f77b4; stroke: #1f77b4"/>
    </g>
   </g>
   <g id="line2d_30">
    <path d="M 123.263494 40.764353 
L 266.803093 118.982803 
L 410.342691 235.292646 
L 553.882289 299.25543 
" clip-path="url(#pf106a2cb44)" style="fill: none; stroke-dasharray: 7.4,3.2; stroke-dashoffset: 0; stroke: #ff7f0e; stroke-width: 2"/>
    <defs>
     <path id="mb0934f1db5" d="M 0 2.5 
C 0.663008 2.5 1.29895 2.236584 1.767767 1.767767 
C 2.236584 1.29895 2.5 0.663008 2.5 0 
C 2.5 -0.663008 2.236584 -1.29895 1.767767 -1.767767 
C 1.29895 -2.236584 0.663008 -2.5 0 -2.5 
C -0.663008 -2.5 -1.29895 -2.236584 -1.767767 -1.767767 
C -2.236584 -1.29895 -2.5 -0.663008 -2.5 0 
C -2.5 0.663008 -2.236584 1.29895 -1.767767 1.767767 
C -1.29895 2.236584 -0.663008 2.5 0 2.5 
z
" style="stroke: #ff7f0e"/>
    </defs>
    <g clip-path="url(#pf106a2cb44)">
     <use xlink:href="#mb0934f1db5" x="123.263494" y="40.764353" style="fill: #ff7f0e; stroke: #ff7f0e"/>
     <use xlink:href="#mb0934f1db5" x="266.803093" y="118.982803" style="fill: #ff7f0e; stroke: #ff7f0e"/>
     <use xlink:href="#mb0934f1db5" x="410.342691" y="235.292646" style="fill: #ff7f0e; stroke: #ff7f0e"/>
     <use xlink:href="#mb0934f1db5" x="553.882289" y="299.25543" style="fill: #ff7f0e; stroke: #ff7f0e"/>
    </g>
   </g>
   <g id="line2d_31">
    <path d="M 123.263494 40.764354 
L 266.803093 118.982774 
L 410.342691 235.29334 
L 553.882289 299.256995 
" clip-path="url(#pf106a2cb44)" style="fill: none; stroke: #2ca02c; stroke-width: 2; stroke-linecap: square"/>
    <defs>
     <path id="me39d6c67f5" d="M 0 2.5 
C 0.663008 2.5 1.29895 2.236584 1.767767 1.767767 
C 2.236584 1.29895 2.5 0.663008 2.5 0 
C 2.5 -0.663008 2.236584 -1.29895 1.767767 -1.767767 
C 1.29895 -2.236584 0.663008 -2.5 0 -2.5 
C -0.663008 -2.5 -1.29895 -2.236584 -1.767767 -1.767767 
C -2.236584 -1.29895 -2.5 -0.663008 -2.5 0 
C -2.5 0.663008 -2.236584 1.29895 -1.767767 1.767767 
C -1.29895 2.236584 -0.663008 2.5 0 2.5 
z
" style="stroke: #2ca02c"/>
    </defs>
    <g clip-path="url(#pf106a2cb44)">
     <use xlink:href="#me39d6c67f5" x="123.263494" y="40.764354" style="fill: #2ca02c; stroke: #2ca02c"/>
     <use xlink:href="#me39d6c67f5" x="266.803093" y="118.982774" style="fill: #2ca02c; stroke: #2ca02c"/>
     <use xlink:href="#me39d6c67f5" x="410.342691" y="235.29334" style="fill: #2ca02c; stroke: #2ca02c"/>
     <use xlink:href="#me39d6c67f5" x="553.882289" y="299.256995" style="fill: #2ca02c; stroke: #2ca02c"/>
    </g>
   </g>
   <g id="line2d_32">
    <path d="M 123.263494 40.764354 
L 266.803093 118.982774 
L 410.342691 235.29334 
L 553.882289 299.256995 
" clip-path="url(#pf106a2cb44)" style="fill: none; stroke: #d62728; stroke-width: 2; stroke-linecap: square"/>
    <defs>
     <path id="m6fca5ef577" d="M 0 2.5 
C 0.663008 2.5 1.29895 2.236584 1.767767 1.767767 
C 2.236584 1.29895 2.5 0.663008 2.5 0 
C 2.5 -0.663008 2.236584 -1.29895 1.767767 -1.767767 
C 1.29895 -2.236584 0.663008 -2.5 0 -2.5 
C -0.663008 -2.5 -1.29895 -2.236584 -1.767767 -1.767767 
C -2.236584 -1.29895 -2.5 -0.663008 -2.5 0 
C -2.5 0.663008 -2.236584 1.29895 -1.767767 1.767767 
C -1.29895 2.236584 -0.663008 2.5 0 2.5 
z
" style="stroke: #d62728"/>
    </defs>
    <g clip-path="url(#pf106a2cb44)">
     <use xlink:href="#m6fca5ef577" x="123.263494" y="40.764354" style="fill: #d62728; stroke: #d62728"/>
     <use xlink:href="#m6fca5ef577" x="266.803093" y="118.982774" style="fill: #d62728; stroke: #d62728"/>
     <use xlink:href="#m6fca5ef577" x="410.342691" y="235.29334" style="fill: #d62728; stroke: #d62728"/>
     <use xlink:href="#m6fca5ef577" x="553.882289" y="299.256995" style="fill: #d62728; stroke: #d62728"/>
    </g>
   </g>
   <g id="line2d_33">
    <path d="M 157.8577 40.765612 
L 301.397298 118.971486 
L 444.936897 234.786251 
L 588.476495 337.090909 
" clip-path="url(#pf106a2cb44)" style="fill: none; stroke: #9467bd; stroke-width: 2; stroke-linecap: square"/>
    <defs>
     <path id="md0447c140d" d="M 0 2.5 
C 0.663008 2.5 1.29895 2.236584 1.767767 1.767767 
C 2.236584 1.29895 2.5 0.663008 2.5 0 
C 2.5 -0.663008 2.236584 -1.29895 1.767767 -1.767767 
C 1.29895 -2.236584 0.663008 -2.5 0 -2.5 
C -0.663008 -2.5 -1.29895 -2.236584 -1.767767 -1.767767 
C -2.236584 -1.29895 -2.5 -0.663008 -2.5 0 
C -2.5 0.663008 -2.236584 1.29895 -1.767767 1.767767 
C -1.29895 2.236584 -0.663008 2.5 0 2.5 
z
" style="stroke: #9467bd"/>
    </defs>
    <g clip-path="url(#pf106a2cb44)">
     <use xlink:href="#md0447c140d" x="157.8577" y="40.765612" style="fill: #9467bd; stroke: #9467bd"/>
     <use xlink:href="#md0447c140d" x="301.397298" y="118.971486" style="fill: #9467bd; stroke: #9467bd"/>
     <use xlink:href="#md0447c140d" x="444.936897" y="234.786251" style="fill: #9467bd; stroke: #9467bd"/>
     <use xlink:href="#md0447c140d" x="588.476495" y="337.090909" style="fill: #9467bd; stroke: #9467bd"/>
    </g>
   </g>
   <g id="line2d_34">
    <path d="M 157.8577 40.765612 
L 301.397298 118.971486 
L 444.936897 234.786251 
L 588.476495 337.090909 
" clip-path="url(#pf106a2cb44)" style="fill: none; stroke: #8c564b; stroke-width: 2; stroke-linecap: square"/>
    <defs>
     <path id="m49c57a0af5" d="M 0 2.5 
C 0.663008 2.5 1.29895 2.236584 1.767767 1.767767 
C 2.236584 1.29895 2.5 0.663008 2.5 0 
C 2.5 -0.663008 2.236584 -1.29895 1.767767 -1.767767 
C 1.29895 -2.236584 0.663008 -2.5 0 -2.5 
C -0.663008 -2.5 -1.29895 -2.236584 -1.767767 -1.767767 
C -2.236584 -1.29895 -2.5 -0.663008 -2.5 0 
C -2.5 0.663008 -2.236584 1.29895 -1.767767 1.767767 
C -1.29895 2.236584 -0.663008 2.5 0 2.5 
z
" style="stroke: #8c564b"/>
    </defs>
    <g clip-path="url(#pf106a2cb44)">
     <use xlink:href="#m49c57a0af5" x="157.8577" y="40.765612" style="fill: #8c564b; stroke: #8c564b"/>
     <use xlink:href="#m49c57a0af5" x="301.397298" y="118.971486" style="fill: #8c564b; stroke: #8c564b"/>
     <use xlink:href="#m49c57a0af5" x="444.936897" y="234.786251" style="fill: #8c564b; stroke: #8c564b"/>
     <use xlink:href="#m49c57a0af5" x="588.476495" y="337.090909" style="fill: #8c564b; stroke: #8c564b"/>
    </g>
   </g>
   <g id="line2d_35">
    <path d="M 187.491576 40.765427 
L 331.031175 118.971631 
L 474.570773 234.814725 
L 618.110371 332.954417 
" clip-path="url(#pf106a2cb44)" style="fill: none; stroke: #e377c2; stroke-width: 2; stroke-linecap: square"/>
    <defs>
     <path id="mfc0bd13612" d="M 0 2.5 
C 0.663008 2.5 1.29895 2.236584 1.767767 1.767767 
C 2.236584 1.29895 2.5 0.663008 2.5 0 
C 2.5 -0.663008 2.236584 -1.29895 1.767767 -1.767767 
C 1.29895 -2.236584 0.663008 -2.5 0 -2.5 
C -0.663008 -2.5 -1.29895 -2.236584 -1.767767 -1.767767 
C -2.236584 -1.29895 -2.5 -0.663008 -2.5 0 
C -2.5 0.663008 -2.236584 1.29895 -1.767767 1.767767 
C -1.29895 2.236584 -0.663008 2.5 0 2.5 
z
" style="stroke: #e377c2"/>
    </defs>
    <g clip-path="url(#pf106a2cb44)">
     <use xlink:href="#mfc0bd13612" x="187.491576" y="40.765427" style="fill: #e377c2; stroke: #e377c2"/>
     <use xlink:href="#mfc0bd13612" x="331.031175" y="118.971631" style="fill: #e377c2; stroke: #e377c2"/>
     <use xlink:href="#mfc0bd13612" x="474.570773" y="234.814725" style="fill: #e377c2; stroke: #e377c2"/>
     <use xlink:href="#mfc0bd13612" x="618.110371" y="332.954417" style="fill: #e377c2; stroke: #e377c2"/>
    </g>
   </g>
   <g id="line2d_36">
    <path d="M 187.491576 40.765427 
L 331.031175 118.971631 
L 474.570773 234.814725 
L 618.110371 332.954417 
" clip-path="url(#pf106a2cb44)" style="fill: none; stroke: #7f7f7f; stroke-width: 2; stroke-linecap: square"/>
    <defs>
     <path id="m10e2ef2330" d="M 0 2.5 
C 0.663008 2.5 1.29895 2.236584 1.767767 1.767767 
C 2.236584 1.29895 2.5 0.663008 2.5 0 
C 2.5 -0.663008 2.236584 -1.29895 1.767767 -1.767767 
C 1.29895 -2.236584 0.663008 -2.5 0 -2.5 
C -0.663008 -2.5 -1.29895 -2.236584 -1.767767 -1.767767 
C -2.236584 -1.29895 -2.5 -0.663008 -2.5 0 
C -2.5 0.663008 -2.236584 1.29895 -1.767767 1.767767 
C -1.29895 2.236584 -0.663008 2.5 0 2.5 
z
" style="stroke: #7f7f7f"/>
    </defs>
    <g clip-path="url(#pf106a2cb44)">
     <use xlink:href="#m10e2ef2330" x="187.491576" y="40.765427" style="fill: #7f7f7f; stroke: #7f7f7f"/>
     <use xlink:href="#m10e2ef2330" x="331.031175" y="118.971631" style="fill: #7f7f7f; stroke: #7f7f7f"/>
     <use xlink:href="#m10e2ef2330" x="474.570773" y="234.814725" style="fill: #7f7f7f; stroke: #7f7f7f"/>
     <use xlink:href="#m10e2ef2330" x="618.110371" y="332.954417" style="fill: #7f7f7f; stroke: #7f7f7f"/>
    </g>
   </g>
   <g id="line2d_37">
    <path d="M 236.443878 40.765415 
L 379.983477 118.971616 
L 523.523075 234.8227 
L 667.062673 332.568167 
" clip-path="url(#pf106a2cb44)" style="fill: none; stroke: #bcbd22; stroke-width: 2; stroke-linecap: square"/>
    <defs>
     <path id="m6d103bb716" d="M 0 2.5 
C 0.663008 2.5 1.29895 2.236584 1.767767 1.767767 
C 2.236584 1.29895 2.5 0.663008 2.5 0 
C 2.5 -0.663008 2.236584 -1.29895 1.767767 -1.767767 
C 1.29895 -2.236584 0.663008 -2.5 0 -2.5 
C -0.663008 -2.5 -1.29895 -2.236584 -1.767767 -1.767767 
C -2.236584 -1.29895 -2.5 -0.663008 -2.5 0 
C -2.5 0.663008 -2.236584 1.29895 -1.767767 1.767767 
C -1.29895 2.236584 -0.663008 2.5 0 2.5 
z
" style="stroke: #bcbd22"/>
    </defs>
    <g clip-path="url(#pf106a2cb44)">
     <use xlink:href="#m6d103bb716" x="236.443878" y="40.765415" style="fill: #bcbd22; stroke: #bcbd22"/>
     <use xlink:href="#m6d103bb716" x="379.983477" y="118.971616" style="fill: #bcbd22; stroke: #bcbd22"/>
     <use xlink:href="#m6d103bb716" x="523.523075" y="234.8227" style="fill: #bcbd22; stroke: #bcbd22"/>
     <use xlink:href="#m6d103bb716" x="667.062673" y="332.568167" style="fill: #bcbd22; stroke: #bcbd22"/>
    </g>
   </g>
   <g id="line2d_38">
    <path d="M 236.443878 40.765415 
L 379.983477 118.971616 
L 523.523075 234.8227 
L 667.062673 332.568167 
" clip-path="url(#pf106a2cb44)" style="fill: none; stroke: #17becf; stroke-width: 2; stroke-linecap: square"/>
    <defs>
     <path id="ma39b9de451" d="M 0 2.5 
C 0.663008 2.5 1.29895 2.236584 1.767767 1.767767 
C 2.236584 1.29895 2.5 0.663008 2.5 0 
C 2.5 -0.663008 2.236584 -1.29895 1.767767 -1.767767 
C 1.29895 -2.236584 0.663008 -2.5 0 -2.5 
C -0.663008 -2.5 -1.29895 -2.236584 -1.767767 -1.767767 
C -2.236584 -1.29895 -2.5 -0.663008 -2.5 0 
C -2.5 0.663008 -2.236584 1.29895 -1.767767 1.767767 
C -1.29895 2.236584 -0.663008 2.5 0 2.5 
z
" style="stroke: #17becf"/>
    </defs>
    <g clip-path="url(#pf106a2cb44)">
     <use xlink:href="#ma39b9de451" x="236.443878" y="40.765415" style="fill: #17becf; stroke: #17becf"/>
     <use xlink:href="#ma39b9de451" x="379.983477" y="118.971616" style="fill: #17becf; stroke: #17becf"/>
     <use xlink:href="#ma39b9de451" x="523.523075" y="234.8227" style="fill: #17becf; stroke: #17becf"/>
     <use xlink:href="#ma39b9de451" x="667.062673" y="332.568167" style="fill: #17becf; stroke: #17becf"/>
    </g>
   </g>
   <g id="line2d_39">
    <path d="M 276.008336 40.765415 
L 419.547934 118.971615 
L 563.087532 234.822886 
L 706.627131 332.555388 
" clip-path="url(#pf106a2cb44)" style="fill: none; stroke: #1f77b4; stroke-width: 2; stroke-linecap: square"/>
    <g clip-path="url(#pf106a2cb44)">
     <use xlink:href="#mf42467b26a" x="276.008336" y="40.765415" style="fill: #1f77b4; stroke: #1f77b4"/>
     <use xlink:href="#mf42467b26a" x="419.547934" y="118.971615" style="fill: #1f77b4; stroke: #1f77b4"/>
     <use xlink:href="#mf42467b26a" x="563.087532" y="234.822886" style="fill: #1f77b4; stroke: #1f77b4"/>
     <use xlink:href="#mf42467b26a" x="706.627131" y="332.555388" style="fill: #1f77b4; stroke: #1f77b4"/>
    </g>
   </g>
   <g id="line2d_40">
    <path d="M 276.008336 40.765415 
L 419.547934 118.971615 
L 563.087532 234.822886 
L 706.627131 332.555388 
" clip-path="url(#pf106a2cb44)" style="fill: none; stroke: #ff7f0e; stroke-width: 2; stroke-linecap: square"/>
    <g clip-path="url(#pf106a2cb44)">
     <use xlink:href="#mb0934f1db5" x="276.008336" y="40.765415" style="fill: #ff7f0e; stroke: #ff7f0e"/>
     <use xlink:href="#mb0934f1db5" x="419.547934" y="118.971615" style="fill: #ff7f0e; stroke: #ff7f0e"/>
     <use xlink:href="#mb0934f1db5" x="563.087532" y="234.822886" style="fill: #ff7f0e; stroke: #ff7f0e"/>
     <use xlink:href="#mb0934f1db5" x="706.627131" y="332.555388" style="fill: #ff7f0e; stroke: #ff7f0e"/>
    </g>
   </g>
   <g id="patch_3">
    <path d="M 94.095313 352.8 
L 94.095313 7.2 
" style="fill: none; stroke: #000000; stroke-width: 0.8; stroke-linejoin: miter; stroke-linecap: square"/>
   </g>
   <g id="patch_4">
    <path d="M 735.795313 352.8 
L 735.795313 7.2 
" style="fill: none; stroke: #000000; stroke-width: 0.8; stroke-linejoin: miter; stroke-linecap: square"/>
   </g>
   <g id="patch_5">
    <path d="M 94.095312 352.8 
L 735.795312 352.8 
" style="fill: none; stroke: #000000; stroke-width: 0.8; stroke-linejoin: miter; stroke-linecap: square"/>
   </g>
   <g id="patch_6">
    <path d="M 94.095312 7.2 
L 735.795312 7.2 
" style="fill: none; stroke: #000000; stroke-width: 0.8; stroke-linejoin: miter; stroke-linecap: square"/>
   </g>
   <g id="legend_1">
    <g id="patch_7">
     <path d="M 26.545312 609.03375 
L 803.345313 609.03375 
Q 807.345313 609.03375 807.345313 605.03375 
L 807.345313 418.64 
Q 807.345313 414.64 803.345313 414.64 
L 26.545312 414.64 
Q 22.545312 414.64 22.545312 418.64 
L 22.545312 605.03375 
Q 22.545312 609.03375 26.545312 609.03375 
z
" style="fill: #ffffff; stroke: #cccccc; stroke-linejoin: miter"/>
    </g>
    <g id="line2d_41">
     <path d="M 30.545312 430.84 
L 50.545312 430.84 
L 70.545312 430.84 
" style="fill: none; stroke-dasharray: 7.4,3.2; stroke-dashoffset: 0; stroke: #1f77b4; stroke-width: 2"/>
     <g>
      <use xlink:href="#mf42467b26a" x="50.545312" y="430.84" style="fill: #1f77b4; stroke: #1f77b4"/>
     </g>
    </g>
    <g id="text_8">
     <!-- CADET-Julia, Exact, $N_p$=4 -->
     <g transform="translate(86.545312 437.84) scale(0.2 -0.2)">
      <defs>
       <path id="DejaVuSans-43" d="M 4122 4306 
L 4122 3641 
Q 3803 3938 3442 4084 
Q 3081 4231 2675 4231 
Q 1875 4231 1450 3742 
Q 1025 3253 1025 2328 
Q 1025 1406 1450 917 
Q 1875 428 2675 428 
Q 3081 428 3442 575 
Q 3803 722 4122 1019 
L 4122 359 
Q 3791 134 3420 21 
Q 3050 -91 2638 -91 
Q 1578 -91 968 557 
Q 359 1206 359 2328 
Q 359 3453 968 4101 
Q 1578 4750 2638 4750 
Q 3056 4750 3426 4639 
Q 3797 4528 4122 4306 
z
" transform="scale(0.015625)"/>
       <path id="DejaVuSans-41" d="M 2188 4044 
L 1331 1722 
L 3047 1722 
L 2188 4044 
z
M 1831 4666 
L 2547 4666 
L 4325 0 
L 3669 0 
L 3244 1197 
L 1141 1197 
L 716 0 
L 50 0 
L 1831 4666 
z
" transform="scale(0.015625)"/>
       <path id="DejaVuSans-45" d="M 628 4666 
L 3578 4666 
L 3578 4134 
L 1259 4134 
L 1259 2753 
L 3481 2753 
L 3481 2222 
L 1259 2222 
L 1259 531 
L 3634 531 
L 3634 0 
L 628 0 
L 628 4666 
z
" transform="scale(0.015625)"/>
       <path id="DejaVuSans-54" d="M -19 4666 
L 3928 4666 
L 3928 4134 
L 2272 4134 
L 2272 0 
L 1638 0 
L 1638 4134 
L -19 4134 
L -19 4666 
z
" transform="scale(0.015625)"/>
       <path id="DejaVuSans-2d" d="M 313 2009 
L 1997 2009 
L 1997 1497 
L 313 1497 
L 313 2009 
z
" transform="scale(0.015625)"/>
       <path id="DejaVuSans-4a" d="M 628 4666 
L 1259 4666 
L 1259 325 
Q 1259 -519 939 -900 
Q 619 -1281 -91 -1281 
L -331 -1281 
L -331 -750 
L -134 -750 
Q 284 -750 456 -515 
Q 628 -281 628 325 
L 628 4666 
z
" transform="scale(0.015625)"/>
       <path id="DejaVuSans-75" d="M 544 1381 
L 544 3500 
L 1119 3500 
L 1119 1403 
Q 1119 906 1312 657 
Q 1506 409 1894 409 
Q 2359 409 2629 706 
Q 2900 1003 2900 1516 
L 2900 3500 
L 3475 3500 
L 3475 0 
L 2900 0 
L 2900 538 
Q 2691 219 2414 64 
Q 2138 -91 1772 -91 
Q 1169 -91 856 284 
Q 544 659 544 1381 
z
M 1991 3584 
L 1991 3584 
z
" transform="scale(0.015625)"/>
       <path id="DejaVuSans-69" d="M 603 3500 
L 1178 3500 
L 1178 0 
L 603 0 
L 603 3500 
z
M 603 4863 
L 1178 4863 
L 1178 4134 
L 603 4134 
L 603 4863 
z
" transform="scale(0.015625)"/>
       <path id="DejaVuSans-2c" d="M 750 794 
L 1409 794 
L 1409 256 
L 897 -744 
L 494 -744 
L 750 256 
L 750 794 
z
" transform="scale(0.015625)"/>
       <path id="DejaVuSans-63" d="M 3122 3366 
L 3122 2828 
Q 2878 2963 2633 3030 
Q 2388 3097 2138 3097 
Q 1578 3097 1268 2742 
Q 959 2388 959 1747 
Q 959 1106 1268 751 
Q 1578 397 2138 397 
Q 2388 397 2633 464 
Q 2878 531 3122 666 
L 3122 134 
Q 2881 22 2623 -34 
Q 2366 -91 2075 -91 
Q 1284 -91 818 406 
Q 353 903 353 1747 
Q 353 2603 823 3093 
Q 1294 3584 2113 3584 
Q 2378 3584 2631 3529 
Q 2884 3475 3122 3366 
z
" transform="scale(0.015625)"/>
       <path id="DejaVuSans-74" d="M 1172 4494 
L 1172 3500 
L 2356 3500 
L 2356 3053 
L 1172 3053 
L 1172 1153 
Q 1172 725 1289 603 
Q 1406 481 1766 481 
L 2356 481 
L 2356 0 
L 1766 0 
Q 1100 0 847 248 
Q 594 497 594 1153 
L 594 3053 
L 172 3053 
L 172 3500 
L 594 3500 
L 594 4494 
L 1172 4494 
z
" transform="scale(0.015625)"/>
       <path id="DejaVuSans-Oblique-4e" d="M 1081 4666 
L 1931 4666 
L 3219 666 
L 4000 4666 
L 4616 4666 
L 3706 0 
L 2853 0 
L 1569 4025 
L 788 0 
L 172 0 
L 1081 4666 
z
" transform="scale(0.015625)"/>
       <path id="DejaVuSans-Oblique-70" d="M 3175 2156 
Q 3175 2616 2975 2859 
Q 2775 3103 2400 3103 
Q 2144 3103 1911 2972 
Q 1678 2841 1497 2591 
Q 1319 2344 1212 1994 
Q 1106 1644 1106 1300 
Q 1106 863 1306 627 
Q 1506 391 1875 391 
Q 2147 391 2380 519 
Q 2613 647 2778 891 
Q 2956 1147 3065 1494 
Q 3175 1841 3175 2156 
z
M 1394 2969 
Q 1625 3272 1939 3428 
Q 2253 3584 2638 3584 
Q 3175 3584 3472 3232 
Q 3769 2881 3769 2247 
Q 3769 1728 3584 1258 
Q 3400 788 3053 416 
Q 2822 169 2531 39 
Q 2241 -91 1919 -91 
Q 1547 -91 1294 64 
Q 1041 219 916 525 
L 556 -1331 
L -19 -1331 
L 922 3500 
L 1497 3500 
L 1394 2969 
z
" transform="scale(0.015625)"/>
       <path id="DejaVuSans-3d" d="M 678 2906 
L 4684 2906 
L 4684 2381 
L 678 2381 
L 678 2906 
z
M 678 1631 
L 4684 1631 
L 4684 1100 
L 678 1100 
L 678 1631 
z
" transform="scale(0.015625)"/>
       <path id="DejaVuSans-34" d="M 2419 4116 
L 825 1625 
L 2419 1625 
L 2419 4116 
z
M 2253 4666 
L 3047 4666 
L 3047 1625 
L 3713 1625 
L 3713 1100 
L 3047 1100 
L 3047 0 
L 2419 0 
L 2419 1100 
L 313 1100 
L 313 1709 
L 2253 4666 
z
" transform="scale(0.015625)"/>
      </defs>
      <use xlink:href="#DejaVuSans-43" transform="translate(0 0.015625)"/>
      <use xlink:href="#DejaVuSans-41" transform="translate(69.824219 0.015625)"/>
      <use xlink:href="#DejaVuSans-44" transform="translate(138.232422 0.015625)"/>
      <use xlink:href="#DejaVuSans-45" transform="translate(215.234375 0.015625)"/>
      <use xlink:href="#DejaVuSans-54" transform="translate(278.417969 0.015625)"/>
      <use xlink:href="#DejaVuSans-2d" transform="translate(339.501953 0.015625)"/>
      <use xlink:href="#DejaVuSans-4a" transform="translate(375.585938 0.015625)"/>
      <use xlink:href="#DejaVuSans-75" transform="translate(405.078125 0.015625)"/>
      <use xlink:href="#DejaVuSans-6c" transform="translate(468.457031 0.015625)"/>
      <use xlink:href="#DejaVuSans-69" transform="translate(496.240234 0.015625)"/>
      <use xlink:href="#DejaVuSans-61" transform="translate(524.023438 0.015625)"/>
      <use xlink:href="#DejaVuSans-2c" transform="translate(585.302734 0.015625)"/>
      <use xlink:href="#DejaVuSans-20" transform="translate(617.089844 0.015625)"/>
      <use xlink:href="#DejaVuSans-45" transform="translate(648.876953 0.015625)"/>
      <use xlink:href="#DejaVuSans-78" transform="translate(712.060547 0.015625)"/>
      <use xlink:href="#DejaVuSans-61" transform="translate(771.240234 0.015625)"/>
      <use xlink:href="#DejaVuSans-63" transform="translate(832.519531 0.015625)"/>
      <use xlink:href="#DejaVuSans-74" transform="translate(887.5 0.015625)"/>
      <use xlink:href="#DejaVuSans-2c" transform="translate(926.708984 0.015625)"/>
      <use xlink:href="#DejaVuSans-20" transform="translate(958.496094 0.015625)"/>
      <use xlink:href="#DejaVuSans-Oblique-4e" transform="translate(990.283203 0.015625)"/>
      <use xlink:href="#DejaVuSans-Oblique-70" transform="translate(1065.087891 -16.390625) scale(0.7)"/>
      <use xlink:href="#DejaVuSans-3d" transform="translate(1112.255859 0.015625)"/>
      <use xlink:href="#DejaVuSans-34" transform="translate(1196.044922 0.015625)"/>
     </g>
    </g>
    <g id="line2d_42">
     <path d="M 30.545312 462.24 
L 50.545312 462.24 
L 70.545312 462.24 
" style="fill: none; stroke-dasharray: 7.4,3.2; stroke-dashoffset: 0; stroke: #ff7f0e; stroke-width: 2"/>
     <g>
      <use xlink:href="#mb0934f1db5" x="50.545312" y="462.24" style="fill: #ff7f0e; stroke: #ff7f0e"/>
     </g>
    </g>
    <g id="text_9">
     <!-- CADET-Julia, Collocation, $N_p$=4 -->
     <g transform="translate(86.545312 469.24) scale(0.2 -0.2)">
      <defs>
       <path id="DejaVuSans-6e" d="M 3513 2113 
L 3513 0 
L 2938 0 
L 2938 2094 
Q 2938 2591 2744 2837 
Q 2550 3084 2163 3084 
Q 1697 3084 1428 2787 
Q 1159 2491 1159 1978 
L 1159 0 
L 581 0 
L 581 3500 
L 1159 3500 
L 1159 2956 
Q 1366 3272 1645 3428 
Q 1925 3584 2291 3584 
Q 2894 3584 3203 3211 
Q 3513 2838 3513 2113 
z
" transform="scale(0.015625)"/>
      </defs>
      <use xlink:href="#DejaVuSans-43" transform="translate(0 0.015625)"/>
      <use xlink:href="#DejaVuSans-41" transform="translate(69.824219 0.015625)"/>
      <use xlink:href="#DejaVuSans-44" transform="translate(138.232422 0.015625)"/>
      <use xlink:href="#DejaVuSans-45" transform="translate(215.234375 0.015625)"/>
      <use xlink:href="#DejaVuSans-54" transform="translate(278.417969 0.015625)"/>
      <use xlink:href="#DejaVuSans-2d" transform="translate(339.501953 0.015625)"/>
      <use xlink:href="#DejaVuSans-4a" transform="translate(375.585938 0.015625)"/>
      <use xlink:href="#DejaVuSans-75" transform="translate(405.078125 0.015625)"/>
      <use xlink:href="#DejaVuSans-6c" transform="translate(468.457031 0.015625)"/>
      <use xlink:href="#DejaVuSans-69" transform="translate(496.240234 0.015625)"/>
      <use xlink:href="#DejaVuSans-61" transform="translate(524.023438 0.015625)"/>
      <use xlink:href="#DejaVuSans-2c" transform="translate(585.302734 0.015625)"/>
      <use xlink:href="#DejaVuSans-20" transform="translate(617.089844 0.015625)"/>
      <use xlink:href="#DejaVuSans-43" transform="translate(648.876953 0.015625)"/>
      <use xlink:href="#DejaVuSans-6f" transform="translate(718.701172 0.015625)"/>
      <use xlink:href="#DejaVuSans-6c" transform="translate(779.882812 0.015625)"/>
      <use xlink:href="#DejaVuSans-6c" transform="translate(807.666016 0.015625)"/>
      <use xlink:href="#DejaVuSans-6f" transform="translate(835.449219 0.015625)"/>
      <use xlink:href="#DejaVuSans-63" transform="translate(896.630859 0.015625)"/>
      <use xlink:href="#DejaVuSans-61" transform="translate(951.611328 0.015625)"/>
      <use xlink:href="#DejaVuSans-74" transform="translate(1012.890625 0.015625)"/>
      <use xlink:href="#DejaVuSans-69" transform="translate(1052.099609 0.015625)"/>
      <use xlink:href="#DejaVuSans-6f" transform="translate(1079.882812 0.015625)"/>
      <use xlink:href="#DejaVuSans-6e" transform="translate(1141.064453 0.015625)"/>
      <use xlink:href="#DejaVuSans-2c" transform="translate(1204.443359 0.015625)"/>
      <use xlink:href="#DejaVuSans-20" transform="translate(1236.230469 0.015625)"/>
      <use xlink:href="#DejaVuSans-Oblique-4e" transform="translate(1268.017578 0.015625)"/>
      <use xlink:href="#DejaVuSans-Oblique-70" transform="translate(1342.822266 -16.390625) scale(0.7)"/>
      <use xlink:href="#DejaVuSans-3d" transform="translate(1389.990234 0.015625)"/>
      <use xlink:href="#DejaVuSans-34" transform="translate(1473.779297 0.015625)"/>
     </g>
    </g>
    <g id="line2d_43">
     <path d="M 30.545312 493.636875 
L 50.545312 493.636875 
L 70.545312 493.636875 
" style="fill: none; stroke: #2ca02c; stroke-width: 2; stroke-linecap: square"/>
     <g>
      <use xlink:href="#me39d6c67f5" x="50.545312" y="493.636875" style="fill: #2ca02c; stroke: #2ca02c"/>
     </g>
    </g>
    <g id="text_10">
     <!-- CADET-DG, Exact, $N_p$=4 -->
     <g transform="translate(86.545312 500.636875) scale(0.2 -0.2)">
      <defs>
       <path id="DejaVuSans-47" d="M 3809 666 
L 3809 1919 
L 2778 1919 
L 2778 2438 
L 4434 2438 
L 4434 434 
Q 4069 175 3628 42 
Q 3188 -91 2688 -91 
Q 1594 -91 976 548 
Q 359 1188 359 2328 
Q 359 3472 976 4111 
Q 1594 4750 2688 4750 
Q 3144 4750 3555 4637 
Q 3966 4525 4313 4306 
L 4313 3634 
Q 3963 3931 3569 4081 
Q 3175 4231 2741 4231 
Q 1884 4231 1454 3753 
Q 1025 3275 1025 2328 
Q 1025 1384 1454 906 
Q 1884 428 2741 428 
Q 3075 428 3337 486 
Q 3600 544 3809 666 
z
" transform="scale(0.015625)"/>
      </defs>
      <use xlink:href="#DejaVuSans-43" transform="translate(0 0.78125)"/>
      <use xlink:href="#DejaVuSans-41" transform="translate(69.824219 0.78125)"/>
      <use xlink:href="#DejaVuSans-44" transform="translate(138.232422 0.78125)"/>
      <use xlink:href="#DejaVuSans-45" transform="translate(215.234375 0.78125)"/>
      <use xlink:href="#DejaVuSans-54" transform="translate(278.417969 0.78125)"/>
      <use xlink:href="#DejaVuSans-2d" transform="translate(339.501953 0.78125)"/>
      <use xlink:href="#DejaVuSans-44" transform="translate(375.585938 0.78125)"/>
      <use xlink:href="#DejaVuSans-47" transform="translate(452.587891 0.78125)"/>
      <use xlink:href="#DejaVuSans-2c" transform="translate(530.078125 0.78125)"/>
      <use xlink:href="#DejaVuSans-20" transform="translate(561.865234 0.78125)"/>
      <use xlink:href="#DejaVuSans-45" transform="translate(593.652344 0.78125)"/>
      <use xlink:href="#DejaVuSans-78" transform="translate(656.835938 0.78125)"/>
      <use xlink:href="#DejaVuSans-61" transform="translate(716.015625 0.78125)"/>
      <use xlink:href="#DejaVuSans-63" transform="translate(777.294922 0.78125)"/>
      <use xlink:href="#DejaVuSans-74" transform="translate(832.275391 0.78125)"/>
      <use xlink:href="#DejaVuSans-2c" transform="translate(871.484375 0.78125)"/>
      <use xlink:href="#DejaVuSans-20" transform="translate(903.271484 0.78125)"/>
      <use xlink:href="#DejaVuSans-Oblique-4e" transform="translate(935.058594 0.78125)"/>
      <use xlink:href="#DejaVuSans-Oblique-70" transform="translate(1009.863281 -15.625) scale(0.7)"/>
      <use xlink:href="#DejaVuSans-3d" transform="translate(1057.03125 0.78125)"/>
      <use xlink:href="#DejaVuSans-34" transform="translate(1140.820312 0.78125)"/>
     </g>
    </g>
    <g id="line2d_44">
     <path d="M 30.545312 525.036875 
L 50.545312 525.036875 
L 70.545312 525.036875 
" style="fill: none; stroke: #d62728; stroke-width: 2; stroke-linecap: square"/>
     <g>
      <use xlink:href="#m6fca5ef577" x="50.545312" y="525.036875" style="fill: #d62728; stroke: #d62728"/>
     </g>
    </g>
    <g id="text_11">
     <!-- CADET-DG, Collocation, $N_p$=4 -->
     <g transform="translate(86.545312 532.036875) scale(0.2 -0.2)">
      <use xlink:href="#DejaVuSans-43" transform="translate(0 0.015625)"/>
      <use xlink:href="#DejaVuSans-41" transform="translate(69.824219 0.015625)"/>
      <use xlink:href="#DejaVuSans-44" transform="translate(138.232422 0.015625)"/>
      <use xlink:href="#DejaVuSans-45" transform="translate(215.234375 0.015625)"/>
      <use xlink:href="#DejaVuSans-54" transform="translate(278.417969 0.015625)"/>
      <use xlink:href="#DejaVuSans-2d" transform="translate(339.501953 0.015625)"/>
      <use xlink:href="#DejaVuSans-44" transform="translate(375.585938 0.015625)"/>
      <use xlink:href="#DejaVuSans-47" transform="translate(452.587891 0.015625)"/>
      <use xlink:href="#DejaVuSans-2c" transform="translate(530.078125 0.015625)"/>
      <use xlink:href="#DejaVuSans-20" transform="translate(561.865234 0.015625)"/>
      <use xlink:href="#DejaVuSans-43" transform="translate(593.652344 0.015625)"/>
      <use xlink:href="#DejaVuSans-6f" transform="translate(663.476562 0.015625)"/>
      <use xlink:href="#DejaVuSans-6c" transform="translate(724.658203 0.015625)"/>
      <use xlink:href="#DejaVuSans-6c" transform="translate(752.441406 0.015625)"/>
      <use xlink:href="#DejaVuSans-6f" transform="translate(780.224609 0.015625)"/>
      <use xlink:href="#DejaVuSans-63" transform="translate(841.40625 0.015625)"/>
      <use xlink:href="#DejaVuSans-61" transform="translate(896.386719 0.015625)"/>
      <use xlink:href="#DejaVuSans-74" transform="translate(957.666016 0.015625)"/>
      <use xlink:href="#DejaVuSans-69" transform="translate(996.875 0.015625)"/>
      <use xlink:href="#DejaVuSans-6f" transform="translate(1024.658203 0.015625)"/>
      <use xlink:href="#DejaVuSans-6e" transform="translate(1085.839844 0.015625)"/>
      <use xlink:href="#DejaVuSans-2c" transform="translate(1149.21875 0.015625)"/>
      <use xlink:href="#DejaVuSans-20" transform="translate(1181.005859 0.015625)"/>
      <use xlink:href="#DejaVuSans-Oblique-4e" transform="translate(1212.792969 0.015625)"/>
      <use xlink:href="#DejaVuSans-Oblique-70" transform="translate(1287.597656 -16.390625) scale(0.7)"/>
      <use xlink:href="#DejaVuSans-3d" transform="translate(1334.765625 0.015625)"/>
      <use xlink:href="#DejaVuSans-34" transform="translate(1418.554688 0.015625)"/>
     </g>
    </g>
    <g id="line2d_45">
     <path d="M 30.545312 556.43375 
L 50.545312 556.43375 
L 70.545312 556.43375 
" style="fill: none; stroke: #9467bd; stroke-width: 2; stroke-linecap: square"/>
     <g>
      <use xlink:href="#md0447c140d" x="50.545312" y="556.43375" style="fill: #9467bd; stroke: #9467bd"/>
     </g>
    </g>
    <g id="text_12">
     <!-- CADET-DG, Exact, $N_p$=5 -->
     <g transform="translate(86.545312 563.43375) scale(0.2 -0.2)">
      <use xlink:href="#DejaVuSans-43" transform="translate(0 0.78125)"/>
      <use xlink:href="#DejaVuSans-41" transform="translate(69.824219 0.78125)"/>
      <use xlink:href="#DejaVuSans-44" transform="translate(138.232422 0.78125)"/>
      <use xlink:href="#DejaVuSans-45" transform="translate(215.234375 0.78125)"/>
      <use xlink:href="#DejaVuSans-54" transform="translate(278.417969 0.78125)"/>
      <use xlink:href="#DejaVuSans-2d" transform="translate(339.501953 0.78125)"/>
      <use xlink:href="#DejaVuSans-44" transform="translate(375.585938 0.78125)"/>
      <use xlink:href="#DejaVuSans-47" transform="translate(452.587891 0.78125)"/>
      <use xlink:href="#DejaVuSans-2c" transform="translate(530.078125 0.78125)"/>
      <use xlink:href="#DejaVuSans-20" transform="translate(561.865234 0.78125)"/>
      <use xlink:href="#DejaVuSans-45" transform="translate(593.652344 0.78125)"/>
      <use xlink:href="#DejaVuSans-78" transform="translate(656.835938 0.78125)"/>
      <use xlink:href="#DejaVuSans-61" transform="translate(716.015625 0.78125)"/>
      <use xlink:href="#DejaVuSans-63" transform="translate(777.294922 0.78125)"/>
      <use xlink:href="#DejaVuSans-74" transform="translate(832.275391 0.78125)"/>
      <use xlink:href="#DejaVuSans-2c" transform="translate(871.484375 0.78125)"/>
      <use xlink:href="#DejaVuSans-20" transform="translate(903.271484 0.78125)"/>
      <use xlink:href="#DejaVuSans-Oblique-4e" transform="translate(935.058594 0.78125)"/>
      <use xlink:href="#DejaVuSans-Oblique-70" transform="translate(1009.863281 -15.625) scale(0.7)"/>
      <use xlink:href="#DejaVuSans-3d" transform="translate(1057.03125 0.78125)"/>
      <use xlink:href="#DejaVuSans-35" transform="translate(1140.820312 0.78125)"/>
     </g>
    </g>
    <g id="line2d_46">
     <path d="M 30.545312 587.83375 
L 50.545312 587.83375 
L 70.545312 587.83375 
" style="fill: none; stroke: #8c564b; stroke-width: 2; stroke-linecap: square"/>
     <g>
      <use xlink:href="#m49c57a0af5" x="50.545312" y="587.83375" style="fill: #8c564b; stroke: #8c564b"/>
     </g>
    </g>
    <g id="text_13">
     <!-- CADET-DG, Collocation, $N_p$=5 -->
     <g transform="translate(86.545312 594.83375) scale(0.2 -0.2)">
      <use xlink:href="#DejaVuSans-43" transform="translate(0 0.015625)"/>
      <use xlink:href="#DejaVuSans-41" transform="translate(69.824219 0.015625)"/>
      <use xlink:href="#DejaVuSans-44" transform="translate(138.232422 0.015625)"/>
      <use xlink:href="#DejaVuSans-45" transform="translate(215.234375 0.015625)"/>
      <use xlink:href="#DejaVuSans-54" transform="translate(278.417969 0.015625)"/>
      <use xlink:href="#DejaVuSans-2d" transform="translate(339.501953 0.015625)"/>
      <use xlink:href="#DejaVuSans-44" transform="translate(375.585938 0.015625)"/>
      <use xlink:href="#DejaVuSans-47" transform="translate(452.587891 0.015625)"/>
      <use xlink:href="#DejaVuSans-2c" transform="translate(530.078125 0.015625)"/>
      <use xlink:href="#DejaVuSans-20" transform="translate(561.865234 0.015625)"/>
      <use xlink:href="#DejaVuSans-43" transform="translate(593.652344 0.015625)"/>
      <use xlink:href="#DejaVuSans-6f" transform="translate(663.476562 0.015625)"/>
      <use xlink:href="#DejaVuSans-6c" transform="translate(724.658203 0.015625)"/>
      <use xlink:href="#DejaVuSans-6c" transform="translate(752.441406 0.015625)"/>
      <use xlink:href="#DejaVuSans-6f" transform="translate(780.224609 0.015625)"/>
      <use xlink:href="#DejaVuSans-63" transform="translate(841.40625 0.015625)"/>
      <use xlink:href="#DejaVuSans-61" transform="translate(896.386719 0.015625)"/>
      <use xlink:href="#DejaVuSans-74" transform="translate(957.666016 0.015625)"/>
      <use xlink:href="#DejaVuSans-69" transform="translate(996.875 0.015625)"/>
      <use xlink:href="#DejaVuSans-6f" transform="translate(1024.658203 0.015625)"/>
      <use xlink:href="#DejaVuSans-6e" transform="translate(1085.839844 0.015625)"/>
      <use xlink:href="#DejaVuSans-2c" transform="translate(1149.21875 0.015625)"/>
      <use xlink:href="#DejaVuSans-20" transform="translate(1181.005859 0.015625)"/>
      <use xlink:href="#DejaVuSans-Oblique-4e" transform="translate(1212.792969 0.015625)"/>
      <use xlink:href="#DejaVuSans-Oblique-70" transform="translate(1287.597656 -16.390625) scale(0.7)"/>
      <use xlink:href="#DejaVuSans-3d" transform="translate(1334.765625 0.015625)"/>
      <use xlink:href="#DejaVuSans-35" transform="translate(1418.554688 0.015625)"/>
     </g>
    </g>
    <g id="line2d_47">
     <path d="M 434.145312 430.84 
L 454.145312 430.84 
L 474.145312 430.84 
" style="fill: none; stroke: #e377c2; stroke-width: 2; stroke-linecap: square"/>
     <g>
      <use xlink:href="#mfc0bd13612" x="454.145312" y="430.84" style="fill: #e377c2; stroke: #e377c2"/>
     </g>
    </g>
    <g id="text_14">
     <!-- CADET-DG, Exact, $N_p$=6 -->
     <g transform="translate(490.145312 437.84) scale(0.2 -0.2)">
      <defs>
       <path id="DejaVuSans-36" d="M 2113 2584 
Q 1688 2584 1439 2293 
Q 1191 2003 1191 1497 
Q 1191 994 1439 701 
Q 1688 409 2113 409 
Q 2538 409 2786 701 
Q 3034 994 3034 1497 
Q 3034 2003 2786 2293 
Q 2538 2584 2113 2584 
z
M 3366 4563 
L 3366 3988 
Q 3128 4100 2886 4159 
Q 2644 4219 2406 4219 
Q 1781 4219 1451 3797 
Q 1122 3375 1075 2522 
Q 1259 2794 1537 2939 
Q 1816 3084 2150 3084 
Q 2853 3084 3261 2657 
Q 3669 2231 3669 1497 
Q 3669 778 3244 343 
Q 2819 -91 2113 -91 
Q 1303 -91 875 529 
Q 447 1150 447 2328 
Q 447 3434 972 4092 
Q 1497 4750 2381 4750 
Q 2619 4750 2861 4703 
Q 3103 4656 3366 4563 
z
" transform="scale(0.015625)"/>
      </defs>
      <use xlink:href="#DejaVuSans-43" transform="translate(0 0.78125)"/>
      <use xlink:href="#DejaVuSans-41" transform="translate(69.824219 0.78125)"/>
      <use xlink:href="#DejaVuSans-44" transform="translate(138.232422 0.78125)"/>
      <use xlink:href="#DejaVuSans-45" transform="translate(215.234375 0.78125)"/>
      <use xlink:href="#DejaVuSans-54" transform="translate(278.417969 0.78125)"/>
      <use xlink:href="#DejaVuSans-2d" transform="translate(339.501953 0.78125)"/>
      <use xlink:href="#DejaVuSans-44" transform="translate(375.585938 0.78125)"/>
      <use xlink:href="#DejaVuSans-47" transform="translate(452.587891 0.78125)"/>
      <use xlink:href="#DejaVuSans-2c" transform="translate(530.078125 0.78125)"/>
      <use xlink:href="#DejaVuSans-20" transform="translate(561.865234 0.78125)"/>
      <use xlink:href="#DejaVuSans-45" transform="translate(593.652344 0.78125)"/>
      <use xlink:href="#DejaVuSans-78" transform="translate(656.835938 0.78125)"/>
      <use xlink:href="#DejaVuSans-61" transform="translate(716.015625 0.78125)"/>
      <use xlink:href="#DejaVuSans-63" transform="translate(777.294922 0.78125)"/>
      <use xlink:href="#DejaVuSans-74" transform="translate(832.275391 0.78125)"/>
      <use xlink:href="#DejaVuSans-2c" transform="translate(871.484375 0.78125)"/>
      <use xlink:href="#DejaVuSans-20" transform="translate(903.271484 0.78125)"/>
      <use xlink:href="#DejaVuSans-Oblique-4e" transform="translate(935.058594 0.78125)"/>
      <use xlink:href="#DejaVuSans-Oblique-70" transform="translate(1009.863281 -15.625) scale(0.7)"/>
      <use xlink:href="#DejaVuSans-3d" transform="translate(1057.03125 0.78125)"/>
      <use xlink:href="#DejaVuSans-36" transform="translate(1140.820312 0.78125)"/>
     </g>
    </g>
    <g id="line2d_48">
     <path d="M 434.145312 462.24 
L 454.145312 462.24 
L 474.145312 462.24 
" style="fill: none; stroke: #7f7f7f; stroke-width: 2; stroke-linecap: square"/>
     <g>
      <use xlink:href="#m10e2ef2330" x="454.145312" y="462.24" style="fill: #7f7f7f; stroke: #7f7f7f"/>
     </g>
    </g>
    <g id="text_15">
     <!-- CADET-DG, Collocation, $N_p$=6 -->
     <g transform="translate(490.145312 469.24) scale(0.2 -0.2)">
      <use xlink:href="#DejaVuSans-43" transform="translate(0 0.015625)"/>
      <use xlink:href="#DejaVuSans-41" transform="translate(69.824219 0.015625)"/>
      <use xlink:href="#DejaVuSans-44" transform="translate(138.232422 0.015625)"/>
      <use xlink:href="#DejaVuSans-45" transform="translate(215.234375 0.015625)"/>
      <use xlink:href="#DejaVuSans-54" transform="translate(278.417969 0.015625)"/>
      <use xlink:href="#DejaVuSans-2d" transform="translate(339.501953 0.015625)"/>
      <use xlink:href="#DejaVuSans-44" transform="translate(375.585938 0.015625)"/>
      <use xlink:href="#DejaVuSans-47" transform="translate(452.587891 0.015625)"/>
      <use xlink:href="#DejaVuSans-2c" transform="translate(530.078125 0.015625)"/>
      <use xlink:href="#DejaVuSans-20" transform="translate(561.865234 0.015625)"/>
      <use xlink:href="#DejaVuSans-43" transform="translate(593.652344 0.015625)"/>
      <use xlink:href="#DejaVuSans-6f" transform="translate(663.476562 0.015625)"/>
      <use xlink:href="#DejaVuSans-6c" transform="translate(724.658203 0.015625)"/>
      <use xlink:href="#DejaVuSans-6c" transform="translate(752.441406 0.015625)"/>
      <use xlink:href="#DejaVuSans-6f" transform="translate(780.224609 0.015625)"/>
      <use xlink:href="#DejaVuSans-63" transform="translate(841.40625 0.015625)"/>
      <use xlink:href="#DejaVuSans-61" transform="translate(896.386719 0.015625)"/>
      <use xlink:href="#DejaVuSans-74" transform="translate(957.666016 0.015625)"/>
      <use xlink:href="#DejaVuSans-69" transform="translate(996.875 0.015625)"/>
      <use xlink:href="#DejaVuSans-6f" transform="translate(1024.658203 0.015625)"/>
      <use xlink:href="#DejaVuSans-6e" transform="translate(1085.839844 0.015625)"/>
      <use xlink:href="#DejaVuSans-2c" transform="translate(1149.21875 0.015625)"/>
      <use xlink:href="#DejaVuSans-20" transform="translate(1181.005859 0.015625)"/>
      <use xlink:href="#DejaVuSans-Oblique-4e" transform="translate(1212.792969 0.015625)"/>
      <use xlink:href="#DejaVuSans-Oblique-70" transform="translate(1287.597656 -16.390625) scale(0.7)"/>
      <use xlink:href="#DejaVuSans-3d" transform="translate(1334.765625 0.015625)"/>
      <use xlink:href="#DejaVuSans-36" transform="translate(1418.554688 0.015625)"/>
     </g>
    </g>
    <g id="line2d_49">
     <path d="M 434.145312 493.636875 
L 454.145312 493.636875 
L 474.145312 493.636875 
" style="fill: none; stroke: #bcbd22; stroke-width: 2; stroke-linecap: square"/>
     <g>
      <use xlink:href="#m6d103bb716" x="454.145312" y="493.636875" style="fill: #bcbd22; stroke: #bcbd22"/>
     </g>
    </g>
    <g id="text_16">
     <!-- CADET-DG, Exact, $N_p$=8 -->
     <g transform="translate(490.145312 500.636875) scale(0.2 -0.2)">
      <defs>
       <path id="DejaVuSans-38" d="M 2034 2216 
Q 1584 2216 1326 1975 
Q 1069 1734 1069 1313 
Q 1069 891 1326 650 
Q 1584 409 2034 409 
Q 2484 409 2743 651 
Q 3003 894 3003 1313 
Q 3003 1734 2745 1975 
Q 2488 2216 2034 2216 
z
M 1403 2484 
Q 997 2584 770 2862 
Q 544 3141 544 3541 
Q 544 4100 942 4425 
Q 1341 4750 2034 4750 
Q 2731 4750 3128 4425 
Q 3525 4100 3525 3541 
Q 3525 3141 3298 2862 
Q 3072 2584 2669 2484 
Q 3125 2378 3379 2068 
Q 3634 1759 3634 1313 
Q 3634 634 3220 271 
Q 2806 -91 2034 -91 
Q 1263 -91 848 271 
Q 434 634 434 1313 
Q 434 1759 690 2068 
Q 947 2378 1403 2484 
z
M 1172 3481 
Q 1172 3119 1398 2916 
Q 1625 2713 2034 2713 
Q 2441 2713 2670 2916 
Q 2900 3119 2900 3481 
Q 2900 3844 2670 4047 
Q 2441 4250 2034 4250 
Q 1625 4250 1398 4047 
Q 1172 3844 1172 3481 
z
" transform="scale(0.015625)"/>
      </defs>
      <use xlink:href="#DejaVuSans-43" transform="translate(0 0.78125)"/>
      <use xlink:href="#DejaVuSans-41" transform="translate(69.824219 0.78125)"/>
      <use xlink:href="#DejaVuSans-44" transform="translate(138.232422 0.78125)"/>
      <use xlink:href="#DejaVuSans-45" transform="translate(215.234375 0.78125)"/>
      <use xlink:href="#DejaVuSans-54" transform="translate(278.417969 0.78125)"/>
      <use xlink:href="#DejaVuSans-2d" transform="translate(339.501953 0.78125)"/>
      <use xlink:href="#DejaVuSans-44" transform="translate(375.585938 0.78125)"/>
      <use xlink:href="#DejaVuSans-47" transform="translate(452.587891 0.78125)"/>
      <use xlink:href="#DejaVuSans-2c" transform="translate(530.078125 0.78125)"/>
      <use xlink:href="#DejaVuSans-20" transform="translate(561.865234 0.78125)"/>
      <use xlink:href="#DejaVuSans-45" transform="translate(593.652344 0.78125)"/>
      <use xlink:href="#DejaVuSans-78" transform="translate(656.835938 0.78125)"/>
      <use xlink:href="#DejaVuSans-61" transform="translate(716.015625 0.78125)"/>
      <use xlink:href="#DejaVuSans-63" transform="translate(777.294922 0.78125)"/>
      <use xlink:href="#DejaVuSans-74" transform="translate(832.275391 0.78125)"/>
      <use xlink:href="#DejaVuSans-2c" transform="translate(871.484375 0.78125)"/>
      <use xlink:href="#DejaVuSans-20" transform="translate(903.271484 0.78125)"/>
      <use xlink:href="#DejaVuSans-Oblique-4e" transform="translate(935.058594 0.78125)"/>
      <use xlink:href="#DejaVuSans-Oblique-70" transform="translate(1009.863281 -15.625) scale(0.7)"/>
      <use xlink:href="#DejaVuSans-3d" transform="translate(1057.03125 0.78125)"/>
      <use xlink:href="#DejaVuSans-38" transform="translate(1140.820312 0.78125)"/>
     </g>
    </g>
    <g id="line2d_50">
     <path d="M 434.145312 525.036875 
L 454.145312 525.036875 
L 474.145312 525.036875 
" style="fill: none; stroke: #17becf; stroke-width: 2; stroke-linecap: square"/>
     <g>
      <use xlink:href="#ma39b9de451" x="454.145312" y="525.036875" style="fill: #17becf; stroke: #17becf"/>
     </g>
    </g>
    <g id="text_17">
     <!-- CADET-DG, Collocation, $N_p$=8 -->
     <g transform="translate(490.145312 532.036875) scale(0.2 -0.2)">
      <use xlink:href="#DejaVuSans-43" transform="translate(0 0.015625)"/>
      <use xlink:href="#DejaVuSans-41" transform="translate(69.824219 0.015625)"/>
      <use xlink:href="#DejaVuSans-44" transform="translate(138.232422 0.015625)"/>
      <use xlink:href="#DejaVuSans-45" transform="translate(215.234375 0.015625)"/>
      <use xlink:href="#DejaVuSans-54" transform="translate(278.417969 0.015625)"/>
      <use xlink:href="#DejaVuSans-2d" transform="translate(339.501953 0.015625)"/>
      <use xlink:href="#DejaVuSans-44" transform="translate(375.585938 0.015625)"/>
      <use xlink:href="#DejaVuSans-47" transform="translate(452.587891 0.015625)"/>
      <use xlink:href="#DejaVuSans-2c" transform="translate(530.078125 0.015625)"/>
      <use xlink:href="#DejaVuSans-20" transform="translate(561.865234 0.015625)"/>
      <use xlink:href="#DejaVuSans-43" transform="translate(593.652344 0.015625)"/>
      <use xlink:href="#DejaVuSans-6f" transform="translate(663.476562 0.015625)"/>
      <use xlink:href="#DejaVuSans-6c" transform="translate(724.658203 0.015625)"/>
      <use xlink:href="#DejaVuSans-6c" transform="translate(752.441406 0.015625)"/>
      <use xlink:href="#DejaVuSans-6f" transform="translate(780.224609 0.015625)"/>
      <use xlink:href="#DejaVuSans-63" transform="translate(841.40625 0.015625)"/>
      <use xlink:href="#DejaVuSans-61" transform="translate(896.386719 0.015625)"/>
      <use xlink:href="#DejaVuSans-74" transform="translate(957.666016 0.015625)"/>
      <use xlink:href="#DejaVuSans-69" transform="translate(996.875 0.015625)"/>
      <use xlink:href="#DejaVuSans-6f" transform="translate(1024.658203 0.015625)"/>
      <use xlink:href="#DejaVuSans-6e" transform="translate(1085.839844 0.015625)"/>
      <use xlink:href="#DejaVuSans-2c" transform="translate(1149.21875 0.015625)"/>
      <use xlink:href="#DejaVuSans-20" transform="translate(1181.005859 0.015625)"/>
      <use xlink:href="#DejaVuSans-Oblique-4e" transform="translate(1212.792969 0.015625)"/>
      <use xlink:href="#DejaVuSans-Oblique-70" transform="translate(1287.597656 -16.390625) scale(0.7)"/>
      <use xlink:href="#DejaVuSans-3d" transform="translate(1334.765625 0.015625)"/>
      <use xlink:href="#DejaVuSans-38" transform="translate(1418.554688 0.015625)"/>
     </g>
    </g>
    <g id="line2d_51">
     <path d="M 434.145312 556.43375 
L 454.145312 556.43375 
L 474.145312 556.43375 
" style="fill: none; stroke: #1f77b4; stroke-width: 2; stroke-linecap: square"/>
     <g>
      <use xlink:href="#mf42467b26a" x="454.145312" y="556.43375" style="fill: #1f77b4; stroke: #1f77b4"/>
     </g>
    </g>
    <g id="text_18">
     <!-- CADET-DG, Exact, $N_p$=10 -->
     <g transform="translate(490.145312 563.43375) scale(0.2 -0.2)">
      <use xlink:href="#DejaVuSans-43" transform="translate(0 0.78125)"/>
      <use xlink:href="#DejaVuSans-41" transform="translate(69.824219 0.78125)"/>
      <use xlink:href="#DejaVuSans-44" transform="translate(138.232422 0.78125)"/>
      <use xlink:href="#DejaVuSans-45" transform="translate(215.234375 0.78125)"/>
      <use xlink:href="#DejaVuSans-54" transform="translate(278.417969 0.78125)"/>
      <use xlink:href="#DejaVuSans-2d" transform="translate(339.501953 0.78125)"/>
      <use xlink:href="#DejaVuSans-44" transform="translate(375.585938 0.78125)"/>
      <use xlink:href="#DejaVuSans-47" transform="translate(452.587891 0.78125)"/>
      <use xlink:href="#DejaVuSans-2c" transform="translate(530.078125 0.78125)"/>
      <use xlink:href="#DejaVuSans-20" transform="translate(561.865234 0.78125)"/>
      <use xlink:href="#DejaVuSans-45" transform="translate(593.652344 0.78125)"/>
      <use xlink:href="#DejaVuSans-78" transform="translate(656.835938 0.78125)"/>
      <use xlink:href="#DejaVuSans-61" transform="translate(716.015625 0.78125)"/>
      <use xlink:href="#DejaVuSans-63" transform="translate(777.294922 0.78125)"/>
      <use xlink:href="#DejaVuSans-74" transform="translate(832.275391 0.78125)"/>
      <use xlink:href="#DejaVuSans-2c" transform="translate(871.484375 0.78125)"/>
      <use xlink:href="#DejaVuSans-20" transform="translate(903.271484 0.78125)"/>
      <use xlink:href="#DejaVuSans-Oblique-4e" transform="translate(935.058594 0.78125)"/>
      <use xlink:href="#DejaVuSans-Oblique-70" transform="translate(1009.863281 -15.625) scale(0.7)"/>
      <use xlink:href="#DejaVuSans-3d" transform="translate(1057.03125 0.78125)"/>
      <use xlink:href="#DejaVuSans-31" transform="translate(1140.820312 0.78125)"/>
      <use xlink:href="#DejaVuSans-30" transform="translate(1204.443359 0.78125)"/>
     </g>
    </g>
    <g id="line2d_52">
     <path d="M 434.145312 587.83375 
L 454.145312 587.83375 
L 474.145312 587.83375 
" style="fill: none; stroke: #ff7f0e; stroke-width: 2; stroke-linecap: square"/>
     <g>
      <use xlink:href="#mb0934f1db5" x="454.145312" y="587.83375" style="fill: #ff7f0e; stroke: #ff7f0e"/>
     </g>
    </g>
    <g id="text_19">
     <!-- CADET-DG, Collocation, $N_p$=10 -->
     <g transform="translate(490.145312 594.83375) scale(0.2 -0.2)">
      <use xlink:href="#DejaVuSans-43" transform="translate(0 0.015625)"/>
      <use xlink:href="#DejaVuSans-41" transform="translate(69.824219 0.015625)"/>
      <use xlink:href="#DejaVuSans-44" transform="translate(138.232422 0.015625)"/>
      <use xlink:href="#DejaVuSans-45" transform="translate(215.234375 0.015625)"/>
      <use xlink:href="#DejaVuSans-54" transform="translate(278.417969 0.015625)"/>
      <use xlink:href="#DejaVuSans-2d" transform="translate(339.501953 0.015625)"/>
      <use xlink:href="#DejaVuSans-44" transform="translate(375.585938 0.015625)"/>
      <use xlink:href="#DejaVuSans-47" transform="translate(452.587891 0.015625)"/>
      <use xlink:href="#DejaVuSans-2c" transform="translate(530.078125 0.015625)"/>
      <use xlink:href="#DejaVuSans-20" transform="translate(561.865234 0.015625)"/>
      <use xlink:href="#DejaVuSans-43" transform="translate(593.652344 0.015625)"/>
      <use xlink:href="#DejaVuSans-6f" transform="translate(663.476562 0.015625)"/>
      <use xlink:href="#DejaVuSans-6c" transform="translate(724.658203 0.015625)"/>
      <use xlink:href="#DejaVuSans-6c" transform="translate(752.441406 0.015625)"/>
      <use xlink:href="#DejaVuSans-6f" transform="translate(780.224609 0.015625)"/>
      <use xlink:href="#DejaVuSans-63" transform="translate(841.40625 0.015625)"/>
      <use xlink:href="#DejaVuSans-61" transform="translate(896.386719 0.015625)"/>
      <use xlink:href="#DejaVuSans-74" transform="translate(957.666016 0.015625)"/>
      <use xlink:href="#DejaVuSans-69" transform="translate(996.875 0.015625)"/>
      <use xlink:href="#DejaVuSans-6f" transform="translate(1024.658203 0.015625)"/>
      <use xlink:href="#DejaVuSans-6e" transform="translate(1085.839844 0.015625)"/>
      <use xlink:href="#DejaVuSans-2c" transform="translate(1149.21875 0.015625)"/>
      <use xlink:href="#DejaVuSans-20" transform="translate(1181.005859 0.015625)"/>
      <use xlink:href="#DejaVuSans-Oblique-4e" transform="translate(1212.792969 0.015625)"/>
      <use xlink:href="#DejaVuSans-Oblique-70" transform="translate(1287.597656 -16.390625) scale(0.7)"/>
      <use xlink:href="#DejaVuSans-3d" transform="translate(1334.765625 0.015625)"/>
      <use xlink:href="#DejaVuSans-31" transform="translate(1418.554688 0.015625)"/>
      <use xlink:href="#DejaVuSans-30" transform="translate(1482.177734 0.015625)"/>
     </g>
    </g>
   </g>
  </g>
 </g>
 <defs>
  <clipPath id="pf106a2cb44">
   <rect x="94.095313" y="7.2" width="641.7" height="345.6"/>
  </clipPath>
 </defs>
</svg>
