<?xml version="1.0" encoding="utf-8"?>
<svg xmlns="http://www.w3.org/2000/svg" xmlns:xlink="http://www.w3.org/1999/xlink" width="600" height="400" viewBox="0 0 2400 1600">
<defs>
  <clipPath id="clip210">
    <rect x="0" y="0" width="2400" height="1600"/>
  </clipPath>
</defs>
<path clip-path="url(#clip210)" d="M0 1600 L2400 1600 L2400 0 L0 0  Z" fill="#ffffff" fill-rule="evenodd" fill-opacity="1"/>
<defs>
  <clipPath id="clip211">
    <rect x="480" y="0" width="1681" height="1600"/>
  </clipPath>
</defs>
<path clip-path="url(#clip210)" d="M307.401 1410.9 L2352.76 1410.9 L2352.76 123.472 L307.401 123.472  Z" fill="#ffffff" fill-rule="evenodd" fill-opacity="1"/>
<defs>
  <clipPath id="clip212">
    <rect x="307" y="123" width="2046" height="1288"/>
  </clipPath>
</defs>
<polyline clip-path="url(#clip212)" style="stroke:#000000; stroke-linecap:round; stroke-linejoin:round; stroke-width:2; stroke-opacity:0.1; fill:none" points="1008.48,1410.9 1008.48,123.472 "/>
<polyline clip-path="url(#clip212)" style="stroke:#000000; stroke-linecap:round; stroke-linejoin:round; stroke-width:2; stroke-opacity:0.1; fill:none" points="2076.8,1410.9 2076.8,123.472 "/>
<polyline clip-path="url(#clip210)" style="stroke:#000000; stroke-linecap:round; stroke-linejoin:round; stroke-width:4; stroke-opacity:1; fill:none" points="307.401,1410.9 2352.76,1410.9 "/>
<polyline clip-path="url(#clip210)" style="stroke:#000000; stroke-linecap:round; stroke-linejoin:round; stroke-width:4; stroke-opacity:1; fill:none" points="1008.48,1410.9 1008.48,1392 "/>
<polyline clip-path="url(#clip210)" style="stroke:#000000; stroke-linecap:round; stroke-linejoin:round; stroke-width:4; stroke-opacity:1; fill:none" points="2076.8,1410.9 2076.8,1392 "/>
<path clip-path="url(#clip210)" d="M955.23 1485.02 L962.869 1485.02 L962.869 1458.66 L954.559 1460.32 L954.559 1456.06 L962.823 1454.4 L967.499 1454.4 L967.499 1485.02 L975.137 1485.02 L975.137 1488.96 L955.23 1488.96 L955.23 1485.02 Z" fill="#000000" fill-rule="nonzero" fill-opacity="1" /><path clip-path="url(#clip210)" d="M994.582 1457.48 Q990.971 1457.48 989.142 1461.04 Q987.336 1464.58 987.336 1471.71 Q987.336 1478.82 989.142 1482.38 Q990.971 1485.92 994.582 1485.92 Q998.216 1485.92 1000.02 1482.38 Q1001.85 1478.82 1001.85 1471.71 Q1001.85 1464.58 1000.02 1461.04 Q998.216 1457.48 994.582 1457.48 M994.582 1453.77 Q1000.39 1453.77 1003.45 1458.38 Q1006.53 1462.96 1006.53 1471.71 Q1006.53 1480.44 1003.45 1485.04 Q1000.39 1489.63 994.582 1489.63 Q988.772 1489.63 985.693 1485.04 Q982.637 1480.44 982.637 1471.71 Q982.637 1462.96 985.693 1458.38 Q988.772 1453.77 994.582 1453.77 Z" fill="#000000" fill-rule="nonzero" fill-opacity="1" /><path clip-path="url(#clip210)" d="M1011.1 1458.35 L1024.36 1458.35 L1024.36 1461.55 L1006.53 1461.55 L1006.53 1458.35 Q1008.69 1456.11 1012.41 1452.35 Q1016.16 1448.57 1017.11 1447.48 Q1018.94 1445.43 1019.65 1444.02 Q1020.39 1442.59 1020.39 1441.22 Q1020.39 1438.98 1018.81 1437.57 Q1017.25 1436.16 1014.73 1436.16 Q1012.94 1436.16 1010.95 1436.78 Q1008.97 1437.4 1006.71 1438.66 L1006.71 1434.82 Q1009.01 1433.9 1011 1433.43 Q1013 1432.96 1014.65 1432.96 Q1019.01 1432.96 1021.61 1435.14 Q1024.21 1437.32 1024.21 1440.97 Q1024.21 1442.7 1023.55 1444.26 Q1022.91 1445.8 1021.2 1447.91 Q1020.73 1448.46 1018.21 1451.07 Q1015.69 1453.67 1011.1 1458.35 Z" fill="#000000" fill-rule="nonzero" fill-opacity="1" /><path clip-path="url(#clip210)" d="M1032.33 1456.77 L1036.3 1456.77 L1036.3 1461.55 L1032.33 1461.55 L1032.33 1456.77 Z" fill="#000000" fill-rule="nonzero" fill-opacity="1" /><path clip-path="url(#clip210)" d="M1052.7 1435.97 Q1049.77 1435.97 1048.28 1438.86 Q1046.81 1441.74 1046.81 1447.53 Q1046.81 1453.31 1048.28 1456.2 Q1049.77 1459.08 1052.7 1459.08 Q1055.65 1459.08 1057.12 1456.2 Q1058.6 1453.31 1058.6 1447.53 Q1058.6 1441.74 1057.12 1438.86 Q1055.65 1435.97 1052.7 1435.97 M1052.7 1432.96 Q1057.42 1432.96 1059.9 1436.7 Q1062.4 1440.43 1062.4 1447.53 Q1062.4 1454.62 1059.9 1458.37 Q1057.42 1462.09 1052.7 1462.09 Q1047.98 1462.09 1045.48 1458.37 Q1042.99 1454.62 1042.99 1447.53 Q1042.99 1440.43 1045.48 1436.7 Q1047.98 1432.96 1052.7 1432.96 Z" fill="#000000" fill-rule="nonzero" fill-opacity="1" /><path clip-path="url(#clip210)" d="M2023.96 1485.02 L2031.59 1485.02 L2031.59 1458.66 L2023.28 1460.32 L2023.28 1456.06 L2031.55 1454.4 L2036.22 1454.4 L2036.22 1485.02 L2043.86 1485.02 L2043.86 1488.96 L2023.96 1488.96 L2023.96 1485.02 Z" fill="#000000" fill-rule="nonzero" fill-opacity="1" /><path clip-path="url(#clip210)" d="M2063.31 1457.48 Q2059.7 1457.48 2057.87 1461.04 Q2056.06 1464.58 2056.06 1471.71 Q2056.06 1478.82 2057.87 1482.38 Q2059.7 1485.92 2063.31 1485.92 Q2066.94 1485.92 2068.75 1482.38 Q2070.58 1478.82 2070.58 1471.71 Q2070.58 1464.58 2068.75 1461.04 Q2066.94 1457.48 2063.31 1457.48 M2063.31 1453.77 Q2069.12 1453.77 2072.17 1458.38 Q2075.25 1462.96 2075.25 1471.71 Q2075.25 1480.44 2072.17 1485.04 Q2069.12 1489.63 2063.31 1489.63 Q2057.5 1489.63 2054.42 1485.04 Q2051.36 1480.44 2051.36 1471.71 Q2051.36 1462.96 2054.42 1458.38 Q2057.5 1453.77 2063.31 1453.77 Z" fill="#000000" fill-rule="nonzero" fill-opacity="1" /><path clip-path="url(#clip210)" d="M2079.82 1458.35 L2093.08 1458.35 L2093.08 1461.55 L2075.25 1461.55 L2075.25 1458.35 Q2077.41 1456.11 2081.14 1452.35 Q2084.88 1448.57 2085.84 1447.48 Q2087.66 1445.43 2088.38 1444.02 Q2089.11 1442.59 2089.11 1441.22 Q2089.11 1438.98 2087.53 1437.57 Q2085.97 1436.16 2083.45 1436.16 Q2081.67 1436.16 2079.67 1436.78 Q2077.7 1437.4 2075.44 1438.66 L2075.44 1434.82 Q2077.73 1433.9 2079.73 1433.43 Q2081.72 1432.96 2083.38 1432.96 Q2087.74 1432.96 2090.34 1435.14 Q2092.93 1437.32 2092.93 1440.97 Q2092.93 1442.7 2092.27 1444.26 Q2091.63 1445.8 2089.92 1447.91 Q2089.45 1448.46 2086.93 1451.07 Q2084.41 1453.67 2079.82 1458.35 Z" fill="#000000" fill-rule="nonzero" fill-opacity="1" /><path clip-path="url(#clip210)" d="M2101.06 1456.77 L2105.02 1456.77 L2105.02 1461.55 L2101.06 1461.55 L2101.06 1456.77 Z" fill="#000000" fill-rule="nonzero" fill-opacity="1" /><path clip-path="url(#clip210)" d="M2113.34 1433.47 L2128.25 1433.47 L2128.25 1436.66 L2116.82 1436.66 L2116.82 1443.55 Q2117.64 1443.27 2118.47 1443.13 Q2119.3 1442.98 2120.13 1442.98 Q2124.83 1442.98 2127.58 1445.56 Q2130.32 1448.14 2130.32 1452.54 Q2130.32 1457.07 2127.5 1459.59 Q2124.68 1462.09 2119.54 1462.09 Q2117.78 1462.09 2115.93 1461.79 Q2114.11 1461.49 2112.15 1460.89 L2112.15 1457.07 Q2113.85 1457.99 2115.65 1458.44 Q2117.46 1458.89 2119.47 1458.89 Q2122.72 1458.89 2124.62 1457.18 Q2126.52 1455.47 2126.52 1452.54 Q2126.52 1449.6 2124.62 1447.89 Q2122.72 1446.18 2119.47 1446.18 Q2117.95 1446.18 2116.42 1446.52 Q2114.92 1446.86 2113.34 1447.57 L2113.34 1433.47 Z" fill="#000000" fill-rule="nonzero" fill-opacity="1" /><path clip-path="url(#clip210)" d="M1272.1 1531.95 L1272.1 1568.9 L1279.87 1568.9 Q1289.7 1568.9 1294.26 1564.45 Q1298.84 1559.99 1298.84 1550.38 Q1298.84 1540.83 1294.26 1536.4 Q1289.7 1531.95 1279.87 1531.95 L1272.1 1531.95 M1265.67 1526.67 L1278.88 1526.67 Q1292.7 1526.67 1299.16 1532.43 Q1305.62 1538.16 1305.62 1550.38 Q1305.62 1562.66 1299.12 1568.42 Q1292.63 1574.19 1278.88 1574.19 L1265.67 1574.19 L1265.67 1526.67 Z" fill="#000000" fill-rule="nonzero" fill-opacity="1" /><path clip-path="url(#clip210)" d="M1335.15 1531.03 Q1328.15 1531.03 1324.01 1536.25 Q1319.91 1541.47 1319.91 1550.47 Q1319.91 1559.45 1324.01 1564.67 Q1328.15 1569.89 1335.15 1569.89 Q1342.16 1569.89 1346.23 1564.67 Q1350.34 1559.45 1350.34 1550.47 Q1350.34 1541.47 1346.23 1536.25 Q1342.16 1531.03 1335.15 1531.03 M1335.15 1525.81 Q1345.15 1525.81 1351.13 1532.52 Q1357.12 1539.21 1357.12 1550.47 Q1357.12 1561.71 1351.13 1568.42 Q1345.15 1575.11 1335.15 1575.11 Q1325.13 1575.11 1319.11 1568.42 Q1313.13 1561.74 1313.13 1550.47 Q1313.13 1539.21 1319.11 1532.52 Q1325.13 1525.81 1335.15 1525.81 Z" fill="#000000" fill-rule="nonzero" fill-opacity="1" /><path clip-path="url(#clip210)" d="M1367.17 1526.67 L1394.48 1526.67 L1394.48 1532.08 L1373.6 1532.08 L1373.6 1546.08 L1392.45 1546.08 L1392.45 1551.49 L1373.6 1551.49 L1373.6 1574.19 L1367.17 1574.19 L1367.17 1526.67 Z" fill="#000000" fill-rule="nonzero" fill-opacity="1" /><polyline clip-path="url(#clip212)" style="stroke:#000000; stroke-linecap:round; stroke-linejoin:round; stroke-width:2; stroke-opacity:0.1; fill:none" points="307.401,1219.48 2352.76,1219.48 "/>
<polyline clip-path="url(#clip212)" style="stroke:#000000; stroke-linecap:round; stroke-linejoin:round; stroke-width:2; stroke-opacity:0.1; fill:none" points="307.401,630.653 2352.76,630.653 "/>
<polyline clip-path="url(#clip210)" style="stroke:#000000; stroke-linecap:round; stroke-linejoin:round; stroke-width:4; stroke-opacity:1; fill:none" points="307.401,1410.9 307.401,123.472 "/>
<polyline clip-path="url(#clip210)" style="stroke:#000000; stroke-linecap:round; stroke-linejoin:round; stroke-width:4; stroke-opacity:1; fill:none" points="307.401,1219.48 326.298,1219.48 "/>
<polyline clip-path="url(#clip210)" style="stroke:#000000; stroke-linecap:round; stroke-linejoin:round; stroke-width:4; stroke-opacity:1; fill:none" points="307.401,630.653 326.298,630.653 "/>
<path clip-path="url(#clip210)" d="M115.007 1239.27 L122.646 1239.27 L122.646 1212.91 L114.335 1214.57 L114.335 1210.31 L122.599 1208.65 L127.275 1208.65 L127.275 1239.27 L134.914 1239.27 L134.914 1243.21 L115.007 1243.21 L115.007 1239.27 Z" fill="#000000" fill-rule="nonzero" fill-opacity="1" /><path clip-path="url(#clip210)" d="M154.358 1211.73 Q150.747 1211.73 148.919 1215.29 Q147.113 1218.83 147.113 1225.96 Q147.113 1233.07 148.919 1236.63 Q150.747 1240.18 154.358 1240.18 Q157.993 1240.18 159.798 1236.63 Q161.627 1233.07 161.627 1225.96 Q161.627 1218.83 159.798 1215.29 Q157.993 1211.73 154.358 1211.73 M154.358 1208.02 Q160.168 1208.02 163.224 1212.63 Q166.303 1217.21 166.303 1225.96 Q166.303 1234.69 163.224 1239.3 Q160.168 1243.88 154.358 1243.88 Q148.548 1243.88 145.469 1239.3 Q142.414 1234.69 142.414 1225.96 Q142.414 1217.21 145.469 1212.63 Q148.548 1208.02 154.358 1208.02 Z" fill="#000000" fill-rule="nonzero" fill-opacity="1" /><path clip-path="url(#clip210)" d="M176.008 1190.22 Q173.073 1190.22 171.588 1193.12 Q170.121 1195.99 170.121 1201.79 Q170.121 1207.56 171.588 1210.46 Q173.073 1213.33 176.008 1213.33 Q178.96 1213.33 180.427 1210.46 Q181.913 1207.56 181.913 1201.79 Q181.913 1195.99 180.427 1193.12 Q178.96 1190.22 176.008 1190.22 M176.008 1187.21 Q180.728 1187.21 183.211 1190.95 Q185.712 1194.68 185.712 1201.79 Q185.712 1208.88 183.211 1212.62 Q180.728 1216.34 176.008 1216.34 Q171.287 1216.34 168.785 1212.62 Q166.303 1208.88 166.303 1201.79 Q166.303 1194.68 168.785 1190.95 Q171.287 1187.21 176.008 1187.21 Z" fill="#000000" fill-rule="nonzero" fill-opacity="1" /><path clip-path="url(#clip210)" d="M192.389 1211.02 L196.358 1211.02 L196.358 1215.8 L192.389 1215.8 L192.389 1211.02 Z" fill="#000000" fill-rule="nonzero" fill-opacity="1" /><path clip-path="url(#clip210)" d="M205.291 1212.6 L211.498 1212.6 L211.498 1191.18 L204.746 1192.53 L204.746 1189.07 L211.46 1187.72 L215.259 1187.72 L215.259 1212.6 L221.466 1212.6 L221.466 1215.8 L205.291 1215.8 L205.291 1212.6 Z" fill="#000000" fill-rule="nonzero" fill-opacity="1" /><path clip-path="url(#clip210)" d="M240.65 1200.66 Q243.377 1201.24 244.9 1203.08 Q246.443 1204.93 246.443 1207.63 Q246.443 1211.79 243.584 1214.07 Q240.725 1216.34 235.459 1216.34 Q233.691 1216.34 231.81 1215.99 Q229.948 1215.65 227.955 1214.95 L227.955 1211.28 Q229.534 1212.21 231.415 1212.68 Q233.296 1213.15 235.346 1213.15 Q238.92 1213.15 240.781 1211.74 Q242.662 1210.32 242.662 1207.63 Q242.662 1205.15 240.913 1203.76 Q239.183 1202.35 236.08 1202.35 L232.807 1202.35 L232.807 1199.23 L236.23 1199.23 Q239.032 1199.23 240.518 1198.12 Q242.004 1196.99 242.004 1194.88 Q242.004 1192.72 240.462 1191.57 Q238.938 1190.41 236.08 1190.41 Q234.518 1190.41 232.732 1190.75 Q230.945 1191.08 228.801 1191.8 L228.801 1188.41 Q230.964 1187.81 232.845 1187.51 Q234.744 1187.21 236.418 1187.21 Q240.744 1187.21 243.264 1189.18 Q245.784 1191.14 245.784 1194.49 Q245.784 1196.82 244.449 1198.44 Q243.114 1200.04 240.65 1200.66 Z" fill="#000000" fill-rule="nonzero" fill-opacity="1" /><path clip-path="url(#clip210)" d="M261.771 1202.46 Q259.063 1202.46 257.502 1203.91 Q255.959 1205.36 255.959 1207.9 Q255.959 1210.44 257.502 1211.89 Q259.063 1213.33 261.771 1213.33 Q264.479 1213.33 266.04 1211.89 Q267.601 1210.42 267.601 1207.9 Q267.601 1205.36 266.04 1203.91 Q264.498 1202.46 261.771 1202.46 M257.972 1200.85 Q255.527 1200.24 254.154 1198.57 Q252.8 1196.9 252.8 1194.49 Q252.8 1191.12 255.188 1189.17 Q257.596 1187.21 261.771 1187.21 Q265.965 1187.21 268.354 1189.17 Q270.742 1191.12 270.742 1194.49 Q270.742 1196.9 269.369 1198.57 Q268.015 1200.24 265.589 1200.85 Q268.335 1201.48 269.858 1203.35 Q271.401 1205.21 271.401 1207.9 Q271.401 1211.98 268.899 1214.16 Q266.416 1216.34 261.771 1216.34 Q257.125 1216.34 254.624 1214.16 Q252.141 1211.98 252.141 1207.9 Q252.141 1205.21 253.684 1203.35 Q255.226 1201.48 257.972 1200.85 M256.58 1194.85 Q256.58 1197.03 257.934 1198.25 Q259.307 1199.47 261.771 1199.47 Q264.216 1199.47 265.589 1198.25 Q266.981 1197.03 266.981 1194.85 Q266.981 1192.66 265.589 1191.44 Q264.216 1190.22 261.771 1190.22 Q259.307 1190.22 257.934 1191.44 Q256.58 1192.66 256.58 1194.85 Z" fill="#000000" fill-rule="nonzero" fill-opacity="1" /><path clip-path="url(#clip210)" d="M114.931 650.446 L122.57 650.446 L122.57 624.08 L114.26 625.747 L114.26 621.487 L122.524 619.821 L127.2 619.821 L127.2 650.446 L134.839 650.446 L134.839 654.381 L114.931 654.381 L114.931 650.446 Z" fill="#000000" fill-rule="nonzero" fill-opacity="1" /><path clip-path="url(#clip210)" d="M154.283 622.899 Q150.672 622.899 148.843 626.464 Q147.038 630.006 147.038 637.135 Q147.038 644.242 148.843 647.807 Q150.672 651.348 154.283 651.348 Q157.917 651.348 159.723 647.807 Q161.552 644.242 161.552 637.135 Q161.552 630.006 159.723 626.464 Q157.917 622.899 154.283 622.899 M154.283 619.196 Q160.093 619.196 163.149 623.802 Q166.227 628.385 166.227 637.135 Q166.227 645.862 163.149 650.469 Q160.093 655.052 154.283 655.052 Q148.473 655.052 145.394 650.469 Q142.339 645.862 142.339 637.135 Q142.339 628.385 145.394 623.802 Q148.473 619.196 154.283 619.196 Z" fill="#000000" fill-rule="nonzero" fill-opacity="1" /><path clip-path="url(#clip210)" d="M175.932 601.392 Q172.998 601.392 171.512 604.288 Q170.045 607.166 170.045 612.959 Q170.045 618.733 171.512 621.629 Q172.998 624.506 175.932 624.506 Q178.885 624.506 180.352 621.629 Q181.838 618.733 181.838 612.959 Q181.838 607.166 180.352 604.288 Q178.885 601.392 175.932 601.392 M175.932 598.382 Q180.653 598.382 183.136 602.125 Q185.637 605.849 185.637 612.959 Q185.637 620.049 183.136 623.792 Q180.653 627.516 175.932 627.516 Q171.212 627.516 168.71 623.792 Q166.227 620.049 166.227 612.959 Q166.227 605.849 168.71 602.125 Q171.212 598.382 175.932 598.382 Z" fill="#000000" fill-rule="nonzero" fill-opacity="1" /><path clip-path="url(#clip210)" d="M192.314 622.193 L196.282 622.193 L196.282 626.97 L192.314 626.97 L192.314 622.193 Z" fill="#000000" fill-rule="nonzero" fill-opacity="1" /><path clip-path="url(#clip210)" d="M205.216 623.773 L211.423 623.773 L211.423 602.351 L204.671 603.705 L204.671 600.244 L211.385 598.89 L215.184 598.89 L215.184 623.773 L221.391 623.773 L221.391 626.97 L205.216 626.97 L205.216 623.773 Z" fill="#000000" fill-rule="nonzero" fill-opacity="1" /><path clip-path="url(#clip210)" d="M239.503 602.2 L229.911 617.19 L239.503 617.19 L239.503 602.2 M238.506 598.89 L243.283 598.89 L243.283 617.19 L247.289 617.19 L247.289 620.35 L243.283 620.35 L243.283 626.97 L239.503 626.97 L239.503 620.35 L226.826 620.35 L226.826 616.682 L238.506 598.89 Z" fill="#000000" fill-rule="nonzero" fill-opacity="1" /><path clip-path="url(#clip210)" d="M261.696 601.392 Q258.762 601.392 257.276 604.288 Q255.809 607.166 255.809 612.959 Q255.809 618.733 257.276 621.629 Q258.762 624.506 261.696 624.506 Q264.649 624.506 266.116 621.629 Q267.601 618.733 267.601 612.959 Q267.601 607.166 266.116 604.288 Q264.649 601.392 261.696 601.392 M261.696 598.382 Q266.416 598.382 268.899 602.125 Q271.401 605.849 271.401 612.959 Q271.401 620.049 268.899 623.792 Q266.416 627.516 261.696 627.516 Q256.975 627.516 254.474 623.792 Q251.991 620.049 251.991 612.959 Q251.991 605.849 254.474 602.125 Q256.975 598.382 261.696 598.382 Z" fill="#000000" fill-rule="nonzero" fill-opacity="1" /><path clip-path="url(#clip210)" d="M22.818 975.757 L46.4666 984.478 L46.4666 967.004 L22.818 975.757 M16.4842 979.385 L16.4842 972.096 L64.0042 953.986 L64.0042 960.67 L51.8138 964.999 L51.8138 986.419 L64.0042 990.748 L64.0042 997.527 L16.4842 979.385 Z" fill="#000000" fill-rule="nonzero" fill-opacity="1" /><path clip-path="url(#clip210)" d="M46.212 921.712 Q39.7508 921.712 36.0905 924.386 Q32.3984 927.027 32.3984 931.674 Q32.3984 936.321 36.0905 938.995 Q39.7508 941.637 46.212 941.637 Q52.6732 941.637 56.3653 938.995 Q60.0256 936.321 60.0256 931.674 Q60.0256 927.027 56.3653 924.386 Q52.6732 921.712 46.212 921.712 M33.7671 941.637 Q30.5842 939.791 29.0564 936.99 Q27.4968 934.157 27.4968 930.242 Q27.4968 923.749 32.6531 919.707 Q37.8093 915.633 46.212 915.633 Q54.6147 915.633 59.771 919.707 Q64.9272 923.749 64.9272 930.242 Q64.9272 934.157 63.3994 936.99 Q61.8398 939.791 58.657 941.637 L64.0042 941.637 L64.0042 947.525 L14.479 947.525 L14.479 941.637 L33.7671 941.637 Z" fill="#000000" fill-rule="nonzero" fill-opacity="1" /><path clip-path="url(#clip210)" d="M29.4065 883.199 L34.9447 883.199 Q33.6716 885.682 33.035 888.356 Q32.3984 891.029 32.3984 893.894 Q32.3984 898.254 33.7352 900.45 Q35.072 902.615 37.7456 902.615 Q39.7826 902.615 40.9603 901.055 Q42.1061 899.496 43.1565 894.785 L43.6021 892.78 Q44.9389 886.541 47.3897 883.931 Q49.8086 881.29 54.1691 881.29 Q59.1344 881.29 62.0308 885.236 Q64.9272 889.151 64.9272 896.026 Q64.9272 898.891 64.3543 902.01 Q63.8132 905.097 62.6992 908.535 L56.6518 908.535 Q58.3387 905.288 59.198 902.137 Q60.0256 898.986 60.0256 895.899 Q60.0256 891.761 58.6251 889.533 Q57.1929 887.305 54.6147 887.305 Q52.2276 887.305 50.9545 888.929 Q49.6813 890.52 48.5037 895.963 L48.0262 898 Q46.8804 903.442 44.5251 905.861 Q42.138 908.28 38.0002 908.28 Q32.9713 908.28 30.2341 904.715 Q27.4968 901.151 27.4968 894.594 Q27.4968 891.347 27.9743 888.483 Q28.4517 885.618 29.4065 883.199 Z" fill="#000000" fill-rule="nonzero" fill-opacity="1" /><path clip-path="url(#clip210)" d="M35.1993 823.489 Q31.2526 821.293 29.3747 818.237 Q27.4968 815.182 27.4968 811.044 Q27.4968 805.474 31.4117 802.45 Q35.2948 799.427 42.4881 799.427 L64.0042 799.427 L64.0042 805.315 L42.679 805.315 Q37.5546 805.315 35.072 807.129 Q32.5894 808.943 32.5894 812.667 Q32.5894 817.219 35.6131 819.861 Q38.6368 822.502 43.8567 822.502 L64.0042 822.502 L64.0042 828.391 L42.679 828.391 Q37.5228 828.391 35.072 830.205 Q32.5894 832.019 32.5894 835.807 Q32.5894 840.295 35.6449 842.936 Q38.6686 845.578 43.8567 845.578 L64.0042 845.578 L64.0042 851.466 L28.3562 851.466 L28.3562 845.578 L33.8944 845.578 Q30.616 843.573 29.0564 840.772 Q27.4968 837.971 27.4968 834.12 Q27.4968 830.237 29.4702 827.531 Q31.4436 824.794 35.1993 823.489 Z" fill="#000000" fill-rule="nonzero" fill-opacity="1" /><path clip-path="url(#clip210)" d="M46.0847 771.545 Q46.0847 778.643 47.7079 781.38 Q49.3312 784.117 53.2461 784.117 Q56.3653 784.117 58.2114 782.08 Q60.0256 780.011 60.0256 776.478 Q60.0256 771.609 56.5881 768.68 Q53.1188 765.72 47.3897 765.72 L46.0847 765.72 L46.0847 771.545 M43.6657 759.864 L64.0042 759.864 L64.0042 765.72 L58.5933 765.72 Q61.8398 767.725 63.3994 770.717 Q64.9272 773.709 64.9272 778.038 Q64.9272 783.512 61.8716 786.759 Q58.7843 789.974 53.6281 789.974 Q47.6125 789.974 44.5569 785.963 Q41.5014 781.921 41.5014 773.932 L41.5014 765.72 L40.9285 765.72 Q36.8862 765.72 34.6901 768.394 Q32.4621 771.036 32.4621 775.842 Q32.4621 778.897 33.1941 781.794 Q33.9262 784.69 35.3903 787.364 L29.9795 787.364 Q28.7381 784.149 28.1334 781.125 Q27.4968 778.102 27.4968 775.237 Q27.4968 767.503 31.5072 763.683 Q35.5176 759.864 43.6657 759.864 Z" fill="#000000" fill-rule="nonzero" fill-opacity="1" /><path clip-path="url(#clip210)" d="M28.3562 718.168 L45.7028 731.059 L64.0042 717.5 L64.0042 724.407 L49.9996 734.783 L64.0042 745.159 L64.0042 752.066 L45.3526 738.22 L28.3562 750.888 L28.3562 743.981 L41.0558 734.528 L28.3562 725.075 L28.3562 718.168 Z" fill="#000000" fill-rule="nonzero" fill-opacity="1" /><path clip-path="url(#clip210)" d="M44.7161 658.013 L47.5806 658.013 L47.5806 684.939 Q53.6281 684.558 56.8109 681.311 Q59.9619 678.033 59.9619 672.208 Q59.9619 668.834 59.1344 665.683 Q58.3069 662.5 56.6518 659.381 L62.1899 659.381 Q63.5267 662.532 64.227 665.842 Q64.9272 669.153 64.9272 672.558 Q64.9272 681.088 59.9619 686.085 Q54.9967 691.051 46.5303 691.051 Q37.7774 691.051 32.6531 686.34 Q27.4968 681.597 27.4968 673.577 Q27.4968 666.383 32.1438 662.214 Q36.7589 658.013 44.7161 658.013 M42.9973 663.869 Q38.1912 663.933 35.3266 666.574 Q32.4621 669.184 32.4621 673.513 Q32.4621 678.415 35.2312 681.375 Q38.0002 684.303 43.0292 684.748 L42.9973 663.869 Z" fill="#000000" fill-rule="nonzero" fill-opacity="1" /><path clip-path="url(#clip210)" d="M33.8307 627.744 Q33.2578 628.73 33.0032 629.908 Q32.7167 631.054 32.7167 632.454 Q32.7167 637.419 35.9632 640.093 Q39.1779 642.735 45.2253 642.735 L64.0042 642.735 L64.0042 648.623 L28.3562 648.623 L28.3562 642.735 L33.8944 642.735 Q30.6479 640.889 29.0883 637.929 Q27.4968 634.969 27.4968 630.735 Q27.4968 630.131 27.5923 629.399 Q27.656 628.667 27.8151 627.775 L33.8307 627.744 Z" fill="#000000" fill-rule="nonzero" fill-opacity="1" /><path clip-path="url(#clip210)" d="M33.8307 602.09 Q33.2578 603.076 33.0032 604.254 Q32.7167 605.4 32.7167 606.8 Q32.7167 611.766 35.9632 614.439 Q39.1779 617.081 45.2253 617.081 L64.0042 617.081 L64.0042 622.969 L28.3562 622.969 L28.3562 617.081 L33.8944 617.081 Q30.6479 615.235 29.0883 612.275 Q27.4968 609.315 27.4968 605.082 Q27.4968 604.477 27.5923 603.745 Q27.656 603.013 27.8151 602.122 L33.8307 602.09 Z" fill="#000000" fill-rule="nonzero" fill-opacity="1" /><path clip-path="url(#clip210)" d="M32.4621 583.566 Q32.4621 588.276 36.1542 591.013 Q39.8145 593.751 46.212 593.751 Q52.6095 593.751 56.3017 591.045 Q59.9619 588.308 59.9619 583.566 Q59.9619 578.887 56.2698 576.15 Q52.5777 573.412 46.212 573.412 Q39.8781 573.412 36.186 576.15 Q32.4621 578.887 32.4621 583.566 M27.4968 583.566 Q27.4968 575.927 32.4621 571.566 Q37.4273 567.206 46.212 567.206 Q54.9649 567.206 59.9619 571.566 Q64.9272 575.927 64.9272 583.566 Q64.9272 591.236 59.9619 595.597 Q54.9649 599.925 46.212 599.925 Q37.4273 599.925 32.4621 595.597 Q27.4968 591.236 27.4968 583.566 Z" fill="#000000" fill-rule="nonzero" fill-opacity="1" /><path clip-path="url(#clip210)" d="M33.8307 536.841 Q33.2578 537.828 33.0032 539.006 Q32.7167 540.151 32.7167 541.552 Q32.7167 546.517 35.9632 549.191 Q39.1779 551.833 45.2253 551.833 L64.0042 551.833 L64.0042 557.721 L28.3562 557.721 L28.3562 551.833 L33.8944 551.833 Q30.6479 549.986 29.0883 547.026 Q27.4968 544.066 27.4968 539.833 Q27.4968 539.228 27.5923 538.496 Q27.656 537.764 27.8151 536.873 L33.8307 536.841 Z" fill="#000000" fill-rule="nonzero" fill-opacity="1" /><path clip-path="url(#clip210)" d="M1109.89 16.7545 L1109.89 25.383 Q1105.76 21.5346 1101.06 19.6307 Q1096.4 17.7268 1091.14 17.7268 Q1080.77 17.7268 1075.26 24.0867 Q1069.75 30.4061 1069.75 42.3968 Q1069.75 54.3469 1075.26 60.7069 Q1080.77 67.0263 1091.14 67.0263 Q1096.4 67.0263 1101.06 65.1223 Q1105.76 63.2184 1109.89 59.3701 L1109.89 67.9175 Q1105.6 70.8341 1100.78 72.2924 Q1096 73.7508 1090.65 73.7508 Q1076.92 73.7508 1069.02 65.3654 Q1061.12 56.9395 1061.12 42.3968 Q1061.12 27.8135 1069.02 19.4281 Q1076.92 11.0023 1090.65 11.0023 Q1096.08 11.0023 1100.86 12.4606 Q1105.68 13.8784 1109.89 16.7545 Z" fill="#000000" fill-rule="nonzero" fill-opacity="1" /><path clip-path="url(#clip210)" d="M1139.79 32.4315 Q1133.79 32.4315 1130.31 37.1306 Q1126.82 41.7891 1126.82 49.9314 Q1126.82 58.0738 1130.27 62.7728 Q1133.75 67.4314 1139.79 67.4314 Q1145.74 67.4314 1149.23 62.7323 Q1152.71 58.0333 1152.71 49.9314 Q1152.71 41.8701 1149.23 37.1711 Q1145.74 32.4315 1139.79 32.4315 M1139.79 26.1121 Q1149.51 26.1121 1155.06 32.4315 Q1160.61 38.7509 1160.61 49.9314 Q1160.61 61.0714 1155.06 67.4314 Q1149.51 73.7508 1139.79 73.7508 Q1130.02 73.7508 1124.47 67.4314 Q1118.97 61.0714 1118.97 49.9314 Q1118.97 38.7509 1124.47 32.4315 Q1130.02 26.1121 1139.79 26.1121 Z" fill="#000000" fill-rule="nonzero" fill-opacity="1" /><path clip-path="url(#clip210)" d="M1210.68 45.1919 L1210.68 72.576 L1203.22 72.576 L1203.22 45.4349 Q1203.22 38.994 1200.71 35.7938 Q1198.2 32.5936 1193.18 32.5936 Q1187.14 32.5936 1183.66 36.4419 Q1180.17 40.2903 1180.17 46.9338 L1180.17 72.576 L1172.68 72.576 L1172.68 27.2059 L1180.17 27.2059 L1180.17 34.2544 Q1182.85 30.163 1186.45 28.1376 Q1190.1 26.1121 1194.84 26.1121 Q1202.66 26.1121 1206.67 30.9732 Q1210.68 35.7938 1210.68 45.1919 Z" fill="#000000" fill-rule="nonzero" fill-opacity="1" /><path clip-path="url(#clip210)" d="M1220.2 27.2059 L1228.1 27.2059 L1242.27 65.2844 L1256.45 27.2059 L1264.35 27.2059 L1247.34 72.576 L1237.21 72.576 L1220.2 27.2059 Z" fill="#000000" fill-rule="nonzero" fill-opacity="1" /><path clip-path="url(#clip210)" d="M1313.45 48.0275 L1313.45 51.6733 L1279.18 51.6733 Q1279.66 59.3701 1283.8 63.421 Q1287.97 67.4314 1295.38 67.4314 Q1299.68 67.4314 1303.69 66.3781 Q1307.74 65.3249 1311.71 63.2184 L1311.71 70.267 Q1307.7 71.9684 1303.48 72.8596 Q1299.27 73.7508 1294.94 73.7508 Q1284.08 73.7508 1277.72 67.4314 Q1271.4 61.1119 1271.4 50.3365 Q1271.4 39.1965 1277.4 32.6746 Q1283.43 26.1121 1293.64 26.1121 Q1302.8 26.1121 1308.1 32.0264 Q1313.45 37.9003 1313.45 48.0275 M1306 45.84 Q1305.91 39.7232 1302.55 36.0774 Q1299.23 32.4315 1293.72 32.4315 Q1287.48 32.4315 1283.72 35.9558 Q1279.99 39.4801 1279.42 45.8805 L1306 45.84 Z" fill="#000000" fill-rule="nonzero" fill-opacity="1" /><path clip-path="url(#clip210)" d="M1351.97 34.1734 Q1350.72 33.4443 1349.22 33.1202 Q1347.76 32.7556 1345.98 32.7556 Q1339.66 32.7556 1336.26 36.8875 Q1332.89 40.9789 1332.89 48.6757 L1332.89 72.576 L1325.4 72.576 L1325.4 27.2059 L1332.89 27.2059 L1332.89 34.2544 Q1335.24 30.1225 1339.01 28.1376 Q1342.78 26.1121 1348.17 26.1121 Q1348.94 26.1121 1349.87 26.2337 Q1350.8 26.3147 1351.93 26.5172 L1351.97 34.1734 Z" fill="#000000" fill-rule="nonzero" fill-opacity="1" /><path clip-path="url(#clip210)" d="M1388.19 49.3643 Q1388.19 41.2625 1384.83 36.8065 Q1381.5 32.3505 1375.47 32.3505 Q1369.47 32.3505 1366.11 36.8065 Q1362.79 41.2625 1362.79 49.3643 Q1362.79 57.4256 1366.11 61.8816 Q1369.47 66.3376 1375.47 66.3376 Q1381.5 66.3376 1384.83 61.8816 Q1388.19 57.4256 1388.19 49.3643 M1395.64 66.9452 Q1395.64 78.5308 1390.5 84.1616 Q1385.35 89.8329 1374.74 89.8329 Q1370.81 89.8329 1367.33 89.2252 Q1363.84 88.6581 1360.56 87.4428 L1360.56 80.1917 Q1363.84 81.9741 1367.04 82.8248 Q1370.24 83.6755 1373.56 83.6755 Q1380.9 83.6755 1384.54 79.8271 Q1388.19 76.0193 1388.19 68.282 L1388.19 64.5957 Q1385.88 68.6061 1382.27 70.5911 Q1378.67 72.576 1373.65 72.576 Q1365.3 72.576 1360.2 66.2161 Q1355.09 59.8562 1355.09 49.3643 Q1355.09 38.832 1360.2 32.472 Q1365.3 26.1121 1373.65 26.1121 Q1378.67 26.1121 1382.27 28.0971 Q1385.88 30.082 1388.19 34.0924 L1388.19 27.2059 L1395.64 27.2059 L1395.64 66.9452 Z" fill="#000000" fill-rule="nonzero" fill-opacity="1" /><path clip-path="url(#clip210)" d="M1449.8 48.0275 L1449.8 51.6733 L1415.53 51.6733 Q1416.02 59.3701 1420.15 63.421 Q1424.32 67.4314 1431.74 67.4314 Q1436.03 67.4314 1440.04 66.3781 Q1444.09 65.3249 1448.06 63.2184 L1448.06 70.267 Q1444.05 71.9684 1439.84 72.8596 Q1435.62 73.7508 1431.29 73.7508 Q1420.43 73.7508 1414.07 67.4314 Q1407.75 61.1119 1407.75 50.3365 Q1407.75 39.1965 1413.75 32.6746 Q1419.79 26.1121 1429.99 26.1121 Q1439.15 26.1121 1444.46 32.0264 Q1449.8 37.9003 1449.8 48.0275 M1442.35 45.84 Q1442.27 39.7232 1438.91 36.0774 Q1435.58 32.4315 1430.07 32.4315 Q1423.84 32.4315 1420.07 35.9558 Q1416.34 39.4801 1415.78 45.8805 L1442.35 45.84 Z" fill="#000000" fill-rule="nonzero" fill-opacity="1" /><path clip-path="url(#clip210)" d="M1499.75 45.1919 L1499.75 72.576 L1492.3 72.576 L1492.3 45.4349 Q1492.3 38.994 1489.79 35.7938 Q1487.27 32.5936 1482.25 32.5936 Q1476.21 32.5936 1472.73 36.4419 Q1469.25 40.2903 1469.25 46.9338 L1469.25 72.576 L1461.75 72.576 L1461.75 27.2059 L1469.25 27.2059 L1469.25 34.2544 Q1471.92 30.163 1475.53 28.1376 Q1479.17 26.1121 1483.91 26.1121 Q1491.73 26.1121 1495.74 30.9732 Q1499.75 35.7938 1499.75 45.1919 Z" fill="#000000" fill-rule="nonzero" fill-opacity="1" /><path clip-path="url(#clip210)" d="M1547.27 28.9478 L1547.27 35.9153 Q1544.11 34.1734 1540.91 33.3227 Q1537.75 32.4315 1534.51 32.4315 Q1527.26 32.4315 1523.25 37.0496 Q1519.24 41.6271 1519.24 49.9314 Q1519.24 58.2358 1523.25 62.8538 Q1527.26 67.4314 1534.51 67.4314 Q1537.75 67.4314 1540.91 66.5807 Q1544.11 65.6895 1547.27 63.9476 L1547.27 70.8341 Q1544.15 72.2924 1540.79 73.0216 Q1537.46 73.7508 1533.7 73.7508 Q1523.45 73.7508 1517.41 67.3098 Q1511.38 60.8689 1511.38 49.9314 Q1511.38 38.832 1517.45 32.472 Q1523.57 26.1121 1534.18 26.1121 Q1537.63 26.1121 1540.91 26.8413 Q1544.19 27.5299 1547.27 28.9478 Z" fill="#000000" fill-rule="nonzero" fill-opacity="1" /><path clip-path="url(#clip210)" d="M1599.04 48.0275 L1599.04 51.6733 L1564.77 51.6733 Q1565.25 59.3701 1569.39 63.421 Q1573.56 67.4314 1580.97 67.4314 Q1585.26 67.4314 1589.28 66.3781 Q1593.33 65.3249 1597.3 63.2184 L1597.3 70.267 Q1593.29 71.9684 1589.07 72.8596 Q1584.86 73.7508 1580.53 73.7508 Q1569.67 73.7508 1563.31 67.4314 Q1556.99 61.1119 1556.99 50.3365 Q1556.99 39.1965 1562.98 32.6746 Q1569.02 26.1121 1579.23 26.1121 Q1588.38 26.1121 1593.69 32.0264 Q1599.04 37.9003 1599.04 48.0275 M1591.58 45.84 Q1591.5 39.7232 1588.14 36.0774 Q1584.82 32.4315 1579.31 32.4315 Q1573.07 32.4315 1569.3 35.9558 Q1565.58 39.4801 1565.01 45.8805 L1591.58 45.84 Z" fill="#000000" fill-rule="nonzero" fill-opacity="1" /><polyline clip-path="url(#clip212)" style="stroke:#009af9; stroke-linecap:round; stroke-linejoin:round; stroke-width:4; stroke-opacity:1; fill:none" stroke-dasharray="2, 4" points="365.288,1374.46 1008.48,164.238 1651.67,159.909 2294.87,160.711 "/>
<circle clip-path="url(#clip212)" cx="365.288" cy="1374.46" r="14.4" fill="#009af9" fill-rule="evenodd" fill-opacity="1" stroke="#000000" stroke-opacity="1" stroke-width="3.2"/>
<circle clip-path="url(#clip212)" cx="1008.48" cy="164.238" r="14.4" fill="#009af9" fill-rule="evenodd" fill-opacity="1" stroke="#000000" stroke-opacity="1" stroke-width="3.2"/>
<circle clip-path="url(#clip212)" cx="1651.67" cy="159.909" r="14.4" fill="#009af9" fill-rule="evenodd" fill-opacity="1" stroke="#000000" stroke-opacity="1" stroke-width="3.2"/>
<circle clip-path="url(#clip212)" cx="2294.87" cy="160.711" r="14.4" fill="#009af9" fill-rule="evenodd" fill-opacity="1" stroke="#000000" stroke-opacity="1" stroke-width="3.2"/>
<polyline clip-path="url(#clip212)" style="stroke:#e26f46; stroke-linecap:round; stroke-linejoin:round; stroke-width:4; stroke-opacity:1; fill:none" stroke-dasharray="2, 4" points="365.288,1374.46 1008.48,164.238 1651.67,159.909 2294.87,160.711 "/>
<circle clip-path="url(#clip212)" cx="365.288" cy="1374.46" r="14.4" fill="#e26f46" fill-rule="evenodd" fill-opacity="1" stroke="#000000" stroke-opacity="1" stroke-width="3.2"/>
<circle clip-path="url(#clip212)" cx="1008.48" cy="164.238" r="14.4" fill="#e26f46" fill-rule="evenodd" fill-opacity="1" stroke="#000000" stroke-opacity="1" stroke-width="3.2"/>
<circle clip-path="url(#clip212)" cx="1651.67" cy="159.909" r="14.4" fill="#e26f46" fill-rule="evenodd" fill-opacity="1" stroke="#000000" stroke-opacity="1" stroke-width="3.2"/>
<circle clip-path="url(#clip212)" cx="2294.87" cy="160.711" r="14.4" fill="#e26f46" fill-rule="evenodd" fill-opacity="1" stroke="#000000" stroke-opacity="1" stroke-width="3.2"/>
<polyline clip-path="url(#clip212)" style="stroke:#3da44d; stroke-linecap:round; stroke-linejoin:round; stroke-width:4; stroke-opacity:1; fill:none" stroke-dasharray="2, 4" points="365.288,1374.46 1008.48,164.238 1651.67,159.909 2294.87,160.711 "/>
<circle clip-path="url(#clip212)" cx="365.288" cy="1374.46" r="14.4" fill="#3da44d" fill-rule="evenodd" fill-opacity="1" stroke="#000000" stroke-opacity="1" stroke-width="3.2"/>
<circle clip-path="url(#clip212)" cx="1008.48" cy="164.238" r="14.4" fill="#3da44d" fill-rule="evenodd" fill-opacity="1" stroke="#000000" stroke-opacity="1" stroke-width="3.2"/>
<circle clip-path="url(#clip212)" cx="1651.67" cy="159.909" r="14.4" fill="#3da44d" fill-rule="evenodd" fill-opacity="1" stroke="#000000" stroke-opacity="1" stroke-width="3.2"/>
<circle clip-path="url(#clip212)" cx="2294.87" cy="160.711" r="14.4" fill="#3da44d" fill-rule="evenodd" fill-opacity="1" stroke="#000000" stroke-opacity="1" stroke-width="3.2"/>
<polyline clip-path="url(#clip212)" style="stroke:#c271d2; stroke-linecap:round; stroke-linejoin:round; stroke-width:4; stroke-opacity:1; fill:none" stroke-dasharray="2, 4" points="365.288,1374.46 1008.48,164.238 1651.67,159.909 2294.87,160.711 "/>
<circle clip-path="url(#clip212)" cx="365.288" cy="1374.46" r="14.4" fill="#c271d2" fill-rule="evenodd" fill-opacity="1" stroke="#000000" stroke-opacity="1" stroke-width="3.2"/>
<circle clip-path="url(#clip212)" cx="1008.48" cy="164.238" r="14.4" fill="#c271d2" fill-rule="evenodd" fill-opacity="1" stroke="#000000" stroke-opacity="1" stroke-width="3.2"/>
<circle clip-path="url(#clip212)" cx="1651.67" cy="159.909" r="14.4" fill="#c271d2" fill-rule="evenodd" fill-opacity="1" stroke="#000000" stroke-opacity="1" stroke-width="3.2"/>
<circle clip-path="url(#clip212)" cx="2294.87" cy="160.711" r="14.4" fill="#c271d2" fill-rule="evenodd" fill-opacity="1" stroke="#000000" stroke-opacity="1" stroke-width="3.2"/>
<polyline clip-path="url(#clip212)" style="stroke:#ac8d18; stroke-linecap:round; stroke-linejoin:round; stroke-width:4; stroke-opacity:1; fill:none" stroke-dasharray="2, 4" points="365.288,1374.46 1008.48,164.238 1651.67,159.909 2294.87,160.711 "/>
<circle clip-path="url(#clip212)" cx="365.288" cy="1374.46" r="14.4" fill="#ac8d18" fill-rule="evenodd" fill-opacity="1" stroke="#000000" stroke-opacity="1" stroke-width="3.2"/>
<circle clip-path="url(#clip212)" cx="1008.48" cy="164.238" r="14.4" fill="#ac8d18" fill-rule="evenodd" fill-opacity="1" stroke="#000000" stroke-opacity="1" stroke-width="3.2"/>
<circle clip-path="url(#clip212)" cx="1651.67" cy="159.909" r="14.4" fill="#ac8d18" fill-rule="evenodd" fill-opacity="1" stroke="#000000" stroke-opacity="1" stroke-width="3.2"/>
<circle clip-path="url(#clip212)" cx="2294.87" cy="160.711" r="14.4" fill="#ac8d18" fill-rule="evenodd" fill-opacity="1" stroke="#000000" stroke-opacity="1" stroke-width="3.2"/>
<polyline clip-path="url(#clip212)" style="stroke:#00a9ad; stroke-linecap:round; stroke-linejoin:round; stroke-width:4; stroke-opacity:1; fill:none" stroke-dasharray="2, 4" points="365.288,1374.46 1008.48,164.238 1651.67,159.909 2294.87,160.711 "/>
<circle clip-path="url(#clip212)" cx="365.288" cy="1374.46" r="14.4" fill="#00a9ad" fill-rule="evenodd" fill-opacity="1" stroke="#000000" stroke-opacity="1" stroke-width="3.2"/>
<circle clip-path="url(#clip212)" cx="1008.48" cy="164.238" r="14.4" fill="#00a9ad" fill-rule="evenodd" fill-opacity="1" stroke="#000000" stroke-opacity="1" stroke-width="3.2"/>
<circle clip-path="url(#clip212)" cx="1651.67" cy="159.909" r="14.4" fill="#00a9ad" fill-rule="evenodd" fill-opacity="1" stroke="#000000" stroke-opacity="1" stroke-width="3.2"/>
<circle clip-path="url(#clip212)" cx="2294.87" cy="160.711" r="14.4" fill="#00a9ad" fill-rule="evenodd" fill-opacity="1" stroke="#000000" stroke-opacity="1" stroke-width="3.2"/>
<polyline clip-path="url(#clip212)" style="stroke:#ed5d92; stroke-linecap:round; stroke-linejoin:round; stroke-width:4; stroke-opacity:1; fill:none" stroke-dasharray="2, 4" points="365.288,1374.46 1008.48,164.238 1651.67,159.909 2294.87,160.711 "/>
<circle clip-path="url(#clip212)" cx="365.288" cy="1374.46" r="14.4" fill="#ed5d92" fill-rule="evenodd" fill-opacity="1" stroke="#000000" stroke-opacity="1" stroke-width="3.2"/>
<circle clip-path="url(#clip212)" cx="1008.48" cy="164.238" r="14.4" fill="#ed5d92" fill-rule="evenodd" fill-opacity="1" stroke="#000000" stroke-opacity="1" stroke-width="3.2"/>
<circle clip-path="url(#clip212)" cx="1651.67" cy="159.909" r="14.4" fill="#ed5d92" fill-rule="evenodd" fill-opacity="1" stroke="#000000" stroke-opacity="1" stroke-width="3.2"/>
<circle clip-path="url(#clip212)" cx="2294.87" cy="160.711" r="14.4" fill="#ed5d92" fill-rule="evenodd" fill-opacity="1" stroke="#000000" stroke-opacity="1" stroke-width="3.2"/>
<polyline clip-path="url(#clip212)" style="stroke:#c68125; stroke-linecap:round; stroke-linejoin:round; stroke-width:4; stroke-opacity:1; fill:none" stroke-dasharray="2, 4" points="365.288,1374.46 1008.48,164.238 1651.67,159.909 2294.87,160.711 "/>
<circle clip-path="url(#clip212)" cx="365.288" cy="1374.46" r="14.4" fill="#c68125" fill-rule="evenodd" fill-opacity="1" stroke="#000000" stroke-opacity="1" stroke-width="3.2"/>
<circle clip-path="url(#clip212)" cx="1008.48" cy="164.238" r="14.4" fill="#c68125" fill-rule="evenodd" fill-opacity="1" stroke="#000000" stroke-opacity="1" stroke-width="3.2"/>
<circle clip-path="url(#clip212)" cx="1651.67" cy="159.909" r="14.4" fill="#c68125" fill-rule="evenodd" fill-opacity="1" stroke="#000000" stroke-opacity="1" stroke-width="3.2"/>
<circle clip-path="url(#clip212)" cx="2294.87" cy="160.711" r="14.4" fill="#c68125" fill-rule="evenodd" fill-opacity="1" stroke="#000000" stroke-opacity="1" stroke-width="3.2"/>
<polyline clip-path="url(#clip212)" style="stroke:#00a98d; stroke-linecap:round; stroke-linejoin:round; stroke-width:4; stroke-opacity:1; fill:none" stroke-dasharray="2, 4" points="365.288,1374.46 1008.48,164.238 1651.67,159.909 2294.87,160.711 "/>
<circle clip-path="url(#clip212)" cx="365.288" cy="1374.46" r="14.4" fill="#00a98d" fill-rule="evenodd" fill-opacity="1" stroke="#000000" stroke-opacity="1" stroke-width="3.2"/>
<circle clip-path="url(#clip212)" cx="1008.48" cy="164.238" r="14.4" fill="#00a98d" fill-rule="evenodd" fill-opacity="1" stroke="#000000" stroke-opacity="1" stroke-width="3.2"/>
<circle clip-path="url(#clip212)" cx="1651.67" cy="159.909" r="14.4" fill="#00a98d" fill-rule="evenodd" fill-opacity="1" stroke="#000000" stroke-opacity="1" stroke-width="3.2"/>
<circle clip-path="url(#clip212)" cx="2294.87" cy="160.711" r="14.4" fill="#00a98d" fill-rule="evenodd" fill-opacity="1" stroke="#000000" stroke-opacity="1" stroke-width="3.2"/>
<polyline clip-path="url(#clip212)" style="stroke:#8e971d; stroke-linecap:round; stroke-linejoin:round; stroke-width:4; stroke-opacity:1; fill:none" stroke-dasharray="2, 4" points="365.288,1374.46 1008.48,164.238 1651.67,159.909 2294.87,160.711 "/>
<circle clip-path="url(#clip212)" cx="365.288" cy="1374.46" r="14.4" fill="#8e971d" fill-rule="evenodd" fill-opacity="1" stroke="#000000" stroke-opacity="1" stroke-width="3.2"/>
<circle clip-path="url(#clip212)" cx="1008.48" cy="164.238" r="14.4" fill="#8e971d" fill-rule="evenodd" fill-opacity="1" stroke="#000000" stroke-opacity="1" stroke-width="3.2"/>
<circle clip-path="url(#clip212)" cx="1651.67" cy="159.909" r="14.4" fill="#8e971d" fill-rule="evenodd" fill-opacity="1" stroke="#000000" stroke-opacity="1" stroke-width="3.2"/>
<circle clip-path="url(#clip212)" cx="2294.87" cy="160.711" r="14.4" fill="#8e971d" fill-rule="evenodd" fill-opacity="1" stroke="#000000" stroke-opacity="1" stroke-width="3.2"/>
<polyline clip-path="url(#clip212)" style="stroke:#00a8cb; stroke-linecap:round; stroke-linejoin:round; stroke-width:4; stroke-opacity:1; fill:none" stroke-dasharray="2, 4" points="365.288,1374.46 1008.48,164.238 1651.67,159.909 2294.87,160.711 "/>
<circle clip-path="url(#clip212)" cx="365.288" cy="1374.46" r="14.4" fill="#00a8cb" fill-rule="evenodd" fill-opacity="1" stroke="#000000" stroke-opacity="1" stroke-width="3.2"/>
<circle clip-path="url(#clip212)" cx="1008.48" cy="164.238" r="14.4" fill="#00a8cb" fill-rule="evenodd" fill-opacity="1" stroke="#000000" stroke-opacity="1" stroke-width="3.2"/>
<circle clip-path="url(#clip212)" cx="1651.67" cy="159.909" r="14.4" fill="#00a8cb" fill-rule="evenodd" fill-opacity="1" stroke="#000000" stroke-opacity="1" stroke-width="3.2"/>
<circle clip-path="url(#clip212)" cx="2294.87" cy="160.711" r="14.4" fill="#00a8cb" fill-rule="evenodd" fill-opacity="1" stroke="#000000" stroke-opacity="1" stroke-width="3.2"/>
<polyline clip-path="url(#clip212)" style="stroke:#9b7fe8; stroke-linecap:round; stroke-linejoin:round; stroke-width:4; stroke-opacity:1; fill:none" stroke-dasharray="2, 4" points="365.288,1374.46 1008.48,164.238 1651.67,159.909 2294.87,160.711 "/>
<circle clip-path="url(#clip212)" cx="365.288" cy="1374.46" r="14.4" fill="#9b7fe8" fill-rule="evenodd" fill-opacity="1" stroke="#000000" stroke-opacity="1" stroke-width="3.2"/>
<circle clip-path="url(#clip212)" cx="1008.48" cy="164.238" r="14.4" fill="#9b7fe8" fill-rule="evenodd" fill-opacity="1" stroke="#000000" stroke-opacity="1" stroke-width="3.2"/>
<circle clip-path="url(#clip212)" cx="1651.67" cy="159.909" r="14.4" fill="#9b7fe8" fill-rule="evenodd" fill-opacity="1" stroke="#000000" stroke-opacity="1" stroke-width="3.2"/>
<circle clip-path="url(#clip212)" cx="2294.87" cy="160.711" r="14.4" fill="#9b7fe8" fill-rule="evenodd" fill-opacity="1" stroke="#000000" stroke-opacity="1" stroke-width="3.2"/>
<path clip-path="url(#clip210)" d="M1752.52 1367.98 L2284.58 1367.98 L2284.58 694.062 L1752.52 694.062  Z" fill="#ffffff" fill-rule="evenodd" fill-opacity="1"/>
<polyline clip-path="url(#clip210)" style="stroke:#000000; stroke-linecap:round; stroke-linejoin:round; stroke-width:4; stroke-opacity:1; fill:none" points="1752.52,1367.98 2284.58,1367.98 2284.58,694.062 1752.52,694.062 1752.52,1367.98 "/>
<polyline clip-path="url(#clip210)" style="stroke:#009af9; stroke-linecap:round; stroke-linejoin:round; stroke-width:4; stroke-opacity:1; fill:none" stroke-dasharray="2, 4" points="1775.25,745.902 1911.6,745.902 "/>
<circle clip-path="url(#clip210)" cx="1843.43" cy="745.902" r="18.9385" fill="#009af9" fill-rule="evenodd" fill-opacity="1" stroke="#000000" stroke-opacity="1" stroke-width="4.55111"/>
<path clip-path="url(#clip210)" d="M1934.33 728.622 L1954.19 728.622 L1954.19 732.558 L1939.01 732.558 L1939.01 742.743 L1952.71 742.743 L1952.71 746.678 L1939.01 746.678 L1939.01 763.182 L1934.33 763.182 L1934.33 728.622 Z" fill="#000000" fill-rule="nonzero" fill-opacity="1" /><path clip-path="url(#clip210)" d="M1966.27 746.678 L1966.27 759.34 L1973.77 759.34 Q1977.55 759.34 1979.35 757.789 Q1981.18 756.215 1981.18 752.997 Q1981.18 749.757 1979.35 748.229 Q1977.55 746.678 1973.77 746.678 L1966.27 746.678 M1966.27 732.465 L1966.27 742.882 L1973.2 742.882 Q1976.62 742.882 1978.29 741.609 Q1979.98 740.312 1979.98 737.673 Q1979.98 735.058 1978.29 733.761 Q1976.62 732.465 1973.2 732.465 L1966.27 732.465 M1961.6 728.622 L1973.54 728.622 Q1978.89 728.622 1981.78 730.845 Q1984.68 733.067 1984.68 737.164 Q1984.68 740.335 1983.2 742.21 Q1981.71 744.085 1978.84 744.548 Q1982.29 745.289 1984.19 747.65 Q1986.11 749.988 1986.11 753.507 Q1986.11 758.136 1982.96 760.659 Q1979.82 763.182 1974.01 763.182 L1961.6 763.182 L1961.6 728.622 Z" fill="#000000" fill-rule="nonzero" fill-opacity="1" /><path clip-path="url(#clip210)" d="M1998.8 732.465 L1998.8 759.34 L2004.45 759.34 Q2011.6 759.34 2014.91 756.099 Q2018.24 752.858 2018.24 745.868 Q2018.24 738.923 2014.91 735.706 Q2011.6 732.465 2004.45 732.465 L1998.8 732.465 M1994.12 728.622 L2003.73 728.622 Q2013.77 728.622 2018.47 732.812 Q2023.17 736.979 2023.17 745.868 Q2023.17 754.803 2018.45 758.993 Q2013.73 763.182 2003.73 763.182 L1994.12 763.182 L1994.12 728.622 Z" fill="#000000" fill-rule="nonzero" fill-opacity="1" /><path clip-path="url(#clip210)" d="M2030.63 728.622 L2050.49 728.622 L2050.49 732.558 L2035.3 732.558 L2035.3 742.743 L2049.01 742.743 L2049.01 746.678 L2035.3 746.678 L2035.3 763.182 L2030.63 763.182 L2030.63 728.622 Z" fill="#000000" fill-rule="nonzero" fill-opacity="1" /><polyline clip-path="url(#clip210)" style="stroke:#e26f46; stroke-linecap:round; stroke-linejoin:round; stroke-width:4; stroke-opacity:1; fill:none" stroke-dasharray="2, 4" points="1775.25,797.742 1911.6,797.742 "/>
<circle clip-path="url(#clip210)" cx="1843.43" cy="797.742" r="18.9385" fill="#e26f46" fill-rule="evenodd" fill-opacity="1" stroke="#000000" stroke-opacity="1" stroke-width="4.55111"/>
<path clip-path="url(#clip210)" d="M1934.33 780.462 L1954.19 780.462 L1954.19 784.398 L1939.01 784.398 L1939.01 794.583 L1952.71 794.583 L1952.71 798.518 L1939.01 798.518 L1939.01 815.022 L1934.33 815.022 L1934.33 780.462 Z" fill="#000000" fill-rule="nonzero" fill-opacity="1" /><path clip-path="url(#clip210)" d="M1966.27 798.518 L1966.27 811.18 L1973.77 811.18 Q1977.55 811.18 1979.35 809.629 Q1981.18 808.055 1981.18 804.837 Q1981.18 801.597 1979.35 800.069 Q1977.55 798.518 1973.77 798.518 L1966.27 798.518 M1966.27 784.305 L1966.27 794.722 L1973.2 794.722 Q1976.62 794.722 1978.29 793.449 Q1979.98 792.152 1979.98 789.513 Q1979.98 786.898 1978.29 785.601 Q1976.62 784.305 1973.2 784.305 L1966.27 784.305 M1961.6 780.462 L1973.54 780.462 Q1978.89 780.462 1981.78 782.685 Q1984.68 784.907 1984.68 789.004 Q1984.68 792.175 1983.2 794.05 Q1981.71 795.925 1978.84 796.388 Q1982.29 797.129 1984.19 799.49 Q1986.11 801.828 1986.11 805.347 Q1986.11 809.976 1982.96 812.499 Q1979.82 815.022 1974.01 815.022 L1961.6 815.022 L1961.6 780.462 Z" fill="#000000" fill-rule="nonzero" fill-opacity="1" /><path clip-path="url(#clip210)" d="M1998.8 784.305 L1998.8 811.18 L2004.45 811.18 Q2011.6 811.18 2014.91 807.939 Q2018.24 804.698 2018.24 797.708 Q2018.24 790.763 2014.91 787.546 Q2011.6 784.305 2004.45 784.305 L1998.8 784.305 M1994.12 780.462 L2003.73 780.462 Q2013.77 780.462 2018.47 784.652 Q2023.17 788.819 2023.17 797.708 Q2023.17 806.643 2018.45 810.833 Q2013.73 815.022 2003.73 815.022 L1994.12 815.022 L1994.12 780.462 Z" fill="#000000" fill-rule="nonzero" fill-opacity="1" /><path clip-path="url(#clip210)" d="M2030.63 780.462 L2050.49 780.462 L2050.49 784.398 L2035.3 784.398 L2035.3 794.583 L2049.01 794.583 L2049.01 798.518 L2035.3 798.518 L2035.3 815.022 L2030.63 815.022 L2030.63 780.462 Z" fill="#000000" fill-rule="nonzero" fill-opacity="1" /><path clip-path="url(#clip210)" d="M2077.41 822.893 L2077.41 826.203 L2052.78 826.203 L2052.78 822.893 L2077.41 822.893 Z" fill="#000000" fill-rule="nonzero" fill-opacity="1" /><path clip-path="url(#clip210)" d="M2081.41 789.097 L2085.67 789.097 L2085.67 815.485 Q2085.67 820.439 2083.77 822.661 Q2081.9 824.884 2077.71 824.884 L2076.09 824.884 L2076.09 821.272 L2077.22 821.272 Q2079.65 821.272 2080.53 820.138 Q2081.41 819.027 2081.41 815.485 L2081.41 789.097 M2081.41 779.004 L2085.67 779.004 L2085.67 784.398 L2081.41 784.398 L2081.41 779.004 Z" fill="#000000" fill-rule="nonzero" fill-opacity="1" /><path clip-path="url(#clip210)" d="M2106.37 801.99 Q2101.2 801.99 2099.21 803.171 Q2097.22 804.351 2097.22 807.198 Q2097.22 809.467 2098.7 810.81 Q2100.21 812.129 2102.78 812.129 Q2106.32 812.129 2108.45 809.629 Q2110.6 807.106 2110.6 802.939 L2110.6 801.99 L2106.37 801.99 M2114.86 800.231 L2114.86 815.022 L2110.6 815.022 L2110.6 811.087 Q2109.14 813.448 2106.97 814.583 Q2104.79 815.694 2101.64 815.694 Q2097.66 815.694 2095.3 813.472 Q2092.96 811.226 2092.96 807.476 Q2092.96 803.101 2095.88 800.879 Q2098.82 798.657 2104.63 798.657 L2110.6 798.657 L2110.6 798.24 Q2110.6 795.3 2108.66 793.703 Q2106.74 792.083 2103.24 792.083 Q2101.02 792.083 2098.91 792.615 Q2096.81 793.148 2094.86 794.212 L2094.86 790.277 Q2097.2 789.374 2099.4 788.935 Q2101.6 788.472 2103.68 788.472 Q2109.31 788.472 2112.08 791.388 Q2114.86 794.305 2114.86 800.231 Z" fill="#000000" fill-rule="nonzero" fill-opacity="1" /><path clip-path="url(#clip210)" d="M2142.29 790.092 L2142.29 794.074 Q2140.49 793.078 2138.66 792.592 Q2136.85 792.083 2135 792.083 Q2130.86 792.083 2128.56 794.722 Q2126.27 797.337 2126.27 802.083 Q2126.27 806.828 2128.56 809.467 Q2130.86 812.083 2135 812.083 Q2136.85 812.083 2138.66 811.597 Q2140.49 811.087 2142.29 810.092 L2142.29 814.027 Q2140.51 814.86 2138.59 815.277 Q2136.69 815.694 2134.54 815.694 Q2128.68 815.694 2125.23 812.013 Q2121.78 808.333 2121.78 802.083 Q2121.78 795.74 2125.25 792.106 Q2128.75 788.472 2134.81 788.472 Q2136.78 788.472 2138.66 788.888 Q2140.53 789.282 2142.29 790.092 Z" fill="#000000" fill-rule="nonzero" fill-opacity="1" /><polyline clip-path="url(#clip210)" style="stroke:#3da44d; stroke-linecap:round; stroke-linejoin:round; stroke-width:4; stroke-opacity:1; fill:none" stroke-dasharray="2, 4" points="1775.25,849.582 1911.6,849.582 "/>
<circle clip-path="url(#clip210)" cx="1843.43" cy="849.582" r="18.9385" fill="#3da44d" fill-rule="evenodd" fill-opacity="1" stroke="#000000" stroke-opacity="1" stroke-width="4.55111"/>
<path clip-path="url(#clip210)" d="M1934.33 832.302 L1954.19 832.302 L1954.19 836.238 L1939.01 836.238 L1939.01 846.423 L1952.71 846.423 L1952.71 850.358 L1939.01 850.358 L1939.01 866.862 L1934.33 866.862 L1934.33 832.302 Z" fill="#000000" fill-rule="nonzero" fill-opacity="1" /><path clip-path="url(#clip210)" d="M1966.27 850.358 L1966.27 863.02 L1973.77 863.02 Q1977.55 863.02 1979.35 861.469 Q1981.18 859.895 1981.18 856.677 Q1981.18 853.437 1979.35 851.909 Q1977.55 850.358 1973.77 850.358 L1966.27 850.358 M1966.27 836.145 L1966.27 846.562 L1973.2 846.562 Q1976.62 846.562 1978.29 845.289 Q1979.98 843.992 1979.98 841.353 Q1979.98 838.738 1978.29 837.441 Q1976.62 836.145 1973.2 836.145 L1966.27 836.145 M1961.6 832.302 L1973.54 832.302 Q1978.89 832.302 1981.78 834.525 Q1984.68 836.747 1984.68 840.844 Q1984.68 844.015 1983.2 845.89 Q1981.71 847.765 1978.84 848.228 Q1982.29 848.969 1984.19 851.33 Q1986.11 853.668 1986.11 857.187 Q1986.11 861.816 1982.96 864.339 Q1979.82 866.862 1974.01 866.862 L1961.6 866.862 L1961.6 832.302 Z" fill="#000000" fill-rule="nonzero" fill-opacity="1" /><path clip-path="url(#clip210)" d="M1998.8 836.145 L1998.8 863.02 L2004.45 863.02 Q2011.6 863.02 2014.91 859.779 Q2018.24 856.538 2018.24 849.548 Q2018.24 842.603 2014.91 839.386 Q2011.6 836.145 2004.45 836.145 L1998.8 836.145 M1994.12 832.302 L2003.73 832.302 Q2013.77 832.302 2018.47 836.492 Q2023.17 840.659 2023.17 849.548 Q2023.17 858.483 2018.45 862.673 Q2013.73 866.862 2003.73 866.862 L1994.12 866.862 L1994.12 832.302 Z" fill="#000000" fill-rule="nonzero" fill-opacity="1" /><path clip-path="url(#clip210)" d="M2030.63 832.302 L2050.49 832.302 L2050.49 836.238 L2035.3 836.238 L2035.3 846.423 L2049.01 846.423 L2049.01 850.358 L2035.3 850.358 L2035.3 866.862 L2030.63 866.862 L2030.63 832.302 Z" fill="#000000" fill-rule="nonzero" fill-opacity="1" /><path clip-path="url(#clip210)" d="M2077.41 874.733 L2077.41 878.043 L2052.78 878.043 L2052.78 874.733 L2077.41 874.733 Z" fill="#000000" fill-rule="nonzero" fill-opacity="1" /><path clip-path="url(#clip210)" d="M2085.53 862.974 L2085.53 876.724 L2081.25 876.724 L2081.25 840.937 L2085.53 840.937 L2085.53 844.872 Q2086.88 842.557 2088.91 841.446 Q2090.97 840.312 2093.82 840.312 Q2098.54 840.312 2101.48 844.062 Q2104.44 847.812 2104.44 853.923 Q2104.44 860.034 2101.48 863.784 Q2098.54 867.534 2093.82 867.534 Q2090.97 867.534 2088.91 866.423 Q2086.88 865.288 2085.53 862.974 M2100.02 853.923 Q2100.02 849.224 2098.08 846.562 Q2096.16 843.877 2092.78 843.877 Q2089.4 843.877 2087.45 846.562 Q2085.53 849.224 2085.53 853.923 Q2085.53 858.622 2087.45 861.307 Q2089.4 863.969 2092.78 863.969 Q2096.16 863.969 2098.08 861.307 Q2100.02 858.622 2100.02 853.923 Z" fill="#000000" fill-rule="nonzero" fill-opacity="1" /><path clip-path="url(#clip210)" d="M2126.53 844.918 Q2125.81 844.502 2124.95 844.316 Q2124.12 844.108 2123.1 844.108 Q2119.49 844.108 2117.55 846.469 Q2115.63 848.807 2115.63 853.205 L2115.63 866.862 L2111.34 866.862 L2111.34 840.937 L2115.63 840.937 L2115.63 844.964 Q2116.97 842.603 2119.12 841.469 Q2121.27 840.312 2124.35 840.312 Q2124.79 840.312 2125.32 840.381 Q2125.86 840.427 2126.5 840.543 L2126.53 844.918 Z" fill="#000000" fill-rule="nonzero" fill-opacity="1" /><path clip-path="url(#clip210)" d="M2152.13 852.835 L2152.13 854.918 L2132.55 854.918 Q2132.82 859.316 2135.19 861.631 Q2137.57 863.923 2141.81 863.923 Q2144.26 863.923 2146.55 863.321 Q2148.87 862.719 2151.13 861.515 L2151.13 865.543 Q2148.84 866.515 2146.44 867.025 Q2144.03 867.534 2141.55 867.534 Q2135.35 867.534 2131.71 863.923 Q2128.1 860.312 2128.1 854.154 Q2128.1 847.789 2131.53 844.062 Q2134.98 840.312 2140.81 840.312 Q2146.04 840.312 2149.07 843.691 Q2152.13 847.048 2152.13 852.835 M2147.87 851.585 Q2147.82 848.089 2145.9 846.006 Q2144 843.923 2140.86 843.923 Q2137.29 843.923 2135.14 845.937 Q2133.01 847.951 2132.69 851.608 L2147.87 851.585 Z" fill="#000000" fill-rule="nonzero" fill-opacity="1" /><path clip-path="url(#clip210)" d="M2177.78 841.932 L2177.78 845.914 Q2175.97 844.918 2174.14 844.432 Q2172.34 843.923 2170.49 843.923 Q2166.34 843.923 2164.05 846.562 Q2161.76 849.177 2161.76 853.923 Q2161.76 858.668 2164.05 861.307 Q2166.34 863.923 2170.49 863.923 Q2172.34 863.923 2174.14 863.437 Q2175.97 862.927 2177.78 861.932 L2177.78 865.867 Q2176 866.7 2174.07 867.117 Q2172.18 867.534 2170.02 867.534 Q2164.17 867.534 2160.72 863.853 Q2157.27 860.173 2157.27 853.923 Q2157.27 847.58 2160.74 843.946 Q2164.24 840.312 2170.3 840.312 Q2172.27 840.312 2174.14 840.728 Q2176.02 841.122 2177.78 841.932 Z" fill="#000000" fill-rule="nonzero" fill-opacity="1" /><polyline clip-path="url(#clip210)" style="stroke:#c271d2; stroke-linecap:round; stroke-linejoin:round; stroke-width:4; stroke-opacity:1; fill:none" stroke-dasharray="2, 4" points="1775.25,901.422 1911.6,901.422 "/>
<circle clip-path="url(#clip210)" cx="1843.43" cy="901.422" r="18.9385" fill="#c271d2" fill-rule="evenodd" fill-opacity="1" stroke="#000000" stroke-opacity="1" stroke-width="4.55111"/>
<path clip-path="url(#clip210)" d="M1934.33 884.142 L1954.19 884.142 L1954.19 888.078 L1939.01 888.078 L1939.01 898.263 L1952.71 898.263 L1952.71 902.198 L1939.01 902.198 L1939.01 918.702 L1934.33 918.702 L1934.33 884.142 Z" fill="#000000" fill-rule="nonzero" fill-opacity="1" /><path clip-path="url(#clip210)" d="M1966.27 902.198 L1966.27 914.86 L1973.77 914.86 Q1977.55 914.86 1979.35 913.309 Q1981.18 911.735 1981.18 908.517 Q1981.18 905.277 1979.35 903.749 Q1977.55 902.198 1973.77 902.198 L1966.27 902.198 M1966.27 887.985 L1966.27 898.402 L1973.2 898.402 Q1976.62 898.402 1978.29 897.129 Q1979.98 895.832 1979.98 893.193 Q1979.98 890.578 1978.29 889.281 Q1976.62 887.985 1973.2 887.985 L1966.27 887.985 M1961.6 884.142 L1973.54 884.142 Q1978.89 884.142 1981.78 886.365 Q1984.68 888.587 1984.68 892.684 Q1984.68 895.855 1983.2 897.73 Q1981.71 899.605 1978.84 900.068 Q1982.29 900.809 1984.19 903.17 Q1986.11 905.508 1986.11 909.027 Q1986.11 913.656 1982.96 916.179 Q1979.82 918.702 1974.01 918.702 L1961.6 918.702 L1961.6 884.142 Z" fill="#000000" fill-rule="nonzero" fill-opacity="1" /><path clip-path="url(#clip210)" d="M1998.8 887.985 L1998.8 914.86 L2004.45 914.86 Q2011.6 914.86 2014.91 911.619 Q2018.24 908.378 2018.24 901.388 Q2018.24 894.443 2014.91 891.226 Q2011.6 887.985 2004.45 887.985 L1998.8 887.985 M1994.12 884.142 L2003.73 884.142 Q2013.77 884.142 2018.47 888.332 Q2023.17 892.499 2023.17 901.388 Q2023.17 910.323 2018.45 914.513 Q2013.73 918.702 2003.73 918.702 L1994.12 918.702 L1994.12 884.142 Z" fill="#000000" fill-rule="nonzero" fill-opacity="1" /><path clip-path="url(#clip210)" d="M2030.63 884.142 L2050.49 884.142 L2050.49 888.078 L2035.3 888.078 L2035.3 898.263 L2049.01 898.263 L2049.01 902.198 L2035.3 902.198 L2035.3 918.702 L2030.63 918.702 L2030.63 884.142 Z" fill="#000000" fill-rule="nonzero" fill-opacity="1" /><path clip-path="url(#clip210)" d="M2077.41 926.573 L2077.41 929.883 L2052.78 929.883 L2052.78 926.573 L2077.41 926.573 Z" fill="#000000" fill-rule="nonzero" fill-opacity="1" /><path clip-path="url(#clip210)" d="M2085.53 914.814 L2085.53 928.564 L2081.25 928.564 L2081.25 892.777 L2085.53 892.777 L2085.53 896.712 Q2086.88 894.397 2088.91 893.286 Q2090.97 892.152 2093.82 892.152 Q2098.54 892.152 2101.48 895.902 Q2104.44 899.652 2104.44 905.763 Q2104.44 911.874 2101.48 915.624 Q2098.54 919.374 2093.82 919.374 Q2090.97 919.374 2088.91 918.263 Q2086.88 917.128 2085.53 914.814 M2100.02 905.763 Q2100.02 901.064 2098.08 898.402 Q2096.16 895.717 2092.78 895.717 Q2089.4 895.717 2087.45 898.402 Q2085.53 901.064 2085.53 905.763 Q2085.53 910.462 2087.45 913.147 Q2089.4 915.809 2092.78 915.809 Q2096.16 915.809 2098.08 913.147 Q2100.02 910.462 2100.02 905.763 Z" fill="#000000" fill-rule="nonzero" fill-opacity="1" /><path clip-path="url(#clip210)" d="M2126.53 896.758 Q2125.81 896.342 2124.95 896.156 Q2124.12 895.948 2123.1 895.948 Q2119.49 895.948 2117.55 898.309 Q2115.63 900.647 2115.63 905.045 L2115.63 918.702 L2111.34 918.702 L2111.34 892.777 L2115.63 892.777 L2115.63 896.804 Q2116.97 894.443 2119.12 893.309 Q2121.27 892.152 2124.35 892.152 Q2124.79 892.152 2125.32 892.221 Q2125.86 892.267 2126.5 892.383 L2126.53 896.758 Z" fill="#000000" fill-rule="nonzero" fill-opacity="1" /><path clip-path="url(#clip210)" d="M2152.13 904.675 L2152.13 906.758 L2132.55 906.758 Q2132.82 911.156 2135.19 913.471 Q2137.57 915.763 2141.81 915.763 Q2144.26 915.763 2146.55 915.161 Q2148.87 914.559 2151.13 913.355 L2151.13 917.383 Q2148.84 918.355 2146.44 918.865 Q2144.03 919.374 2141.55 919.374 Q2135.35 919.374 2131.71 915.763 Q2128.1 912.152 2128.1 905.994 Q2128.1 899.629 2131.53 895.902 Q2134.98 892.152 2140.81 892.152 Q2146.04 892.152 2149.07 895.531 Q2152.13 898.888 2152.13 904.675 M2147.87 903.425 Q2147.82 899.929 2145.9 897.846 Q2144 895.763 2140.86 895.763 Q2137.29 895.763 2135.14 897.777 Q2133.01 899.791 2132.69 903.448 L2147.87 903.425 Z" fill="#000000" fill-rule="nonzero" fill-opacity="1" /><path clip-path="url(#clip210)" d="M2177.78 893.772 L2177.78 897.754 Q2175.97 896.758 2174.14 896.272 Q2172.34 895.763 2170.49 895.763 Q2166.34 895.763 2164.05 898.402 Q2161.76 901.017 2161.76 905.763 Q2161.76 910.508 2164.05 913.147 Q2166.34 915.763 2170.49 915.763 Q2172.34 915.763 2174.14 915.277 Q2175.97 914.767 2177.78 913.772 L2177.78 917.707 Q2176 918.54 2174.07 918.957 Q2172.18 919.374 2170.02 919.374 Q2164.17 919.374 2160.72 915.693 Q2157.27 912.013 2157.27 905.763 Q2157.27 899.42 2160.74 895.786 Q2164.24 892.152 2170.3 892.152 Q2172.27 892.152 2174.14 892.568 Q2176.02 892.962 2177.78 893.772 Z" fill="#000000" fill-rule="nonzero" fill-opacity="1" /><path clip-path="url(#clip210)" d="M2185.37 884.142 L2190.05 884.142 L2190.05 916.295 Q2190.05 922.545 2187.66 925.369 Q2185.3 928.193 2180.05 928.193 L2178.26 928.193 L2178.26 924.258 L2179.72 924.258 Q2182.82 924.258 2184.1 922.522 Q2185.37 920.786 2185.37 916.295 L2185.37 884.142 Z" fill="#000000" fill-rule="nonzero" fill-opacity="1" /><path clip-path="url(#clip210)" d="M2210.95 905.67 Q2205.79 905.67 2203.8 906.851 Q2201.81 908.031 2201.81 910.878 Q2201.81 913.147 2203.29 914.49 Q2204.79 915.809 2207.36 915.809 Q2210.9 915.809 2213.03 913.309 Q2215.18 910.786 2215.18 906.619 L2215.18 905.67 L2210.95 905.67 M2219.44 903.911 L2219.44 918.702 L2215.18 918.702 L2215.18 914.767 Q2213.73 917.128 2211.55 918.263 Q2209.37 919.374 2206.23 919.374 Q2202.25 919.374 2199.88 917.152 Q2197.55 914.906 2197.55 911.156 Q2197.55 906.781 2200.46 904.559 Q2203.4 902.337 2209.21 902.337 L2215.18 902.337 L2215.18 901.92 Q2215.18 898.98 2213.24 897.383 Q2211.32 895.763 2207.82 895.763 Q2205.6 895.763 2203.5 896.295 Q2201.39 896.828 2199.44 897.892 L2199.44 893.957 Q2201.78 893.054 2203.98 892.615 Q2206.18 892.152 2208.26 892.152 Q2213.89 892.152 2216.67 895.068 Q2219.44 897.985 2219.44 903.911 Z" fill="#000000" fill-rule="nonzero" fill-opacity="1" /><path clip-path="url(#clip210)" d="M2246.87 893.772 L2246.87 897.754 Q2245.07 896.758 2243.24 896.272 Q2241.43 895.763 2239.58 895.763 Q2235.44 895.763 2233.15 898.402 Q2230.86 901.017 2230.86 905.763 Q2230.86 910.508 2233.15 913.147 Q2235.44 915.763 2239.58 915.763 Q2241.43 915.763 2243.24 915.277 Q2245.07 914.767 2246.87 913.772 L2246.87 917.707 Q2245.09 918.54 2243.17 918.957 Q2241.27 919.374 2239.12 919.374 Q2233.26 919.374 2229.81 915.693 Q2226.37 912.013 2226.37 905.763 Q2226.37 899.42 2229.84 895.786 Q2233.33 892.152 2239.4 892.152 Q2241.37 892.152 2243.24 892.568 Q2245.12 892.962 2246.87 893.772 Z" fill="#000000" fill-rule="nonzero" fill-opacity="1" /><polyline clip-path="url(#clip210)" style="stroke:#ac8d18; stroke-linecap:round; stroke-linejoin:round; stroke-width:4; stroke-opacity:1; fill:none" stroke-dasharray="2, 4" points="1775.25,953.262 1911.6,953.262 "/>
<circle clip-path="url(#clip210)" cx="1843.43" cy="953.262" r="18.9385" fill="#ac8d18" fill-rule="evenodd" fill-opacity="1" stroke="#000000" stroke-opacity="1" stroke-width="4.55111"/>
<path clip-path="url(#clip210)" d="M1950.35 939.154 Q1945.26 939.154 1942.25 942.95 Q1939.26 946.746 1939.26 953.297 Q1939.26 959.825 1942.25 963.621 Q1945.26 967.418 1950.35 967.418 Q1955.44 967.418 1958.4 963.621 Q1961.39 959.825 1961.39 953.297 Q1961.39 946.746 1958.4 942.95 Q1955.44 939.154 1950.35 939.154 M1956.9 969.917 L1963.06 976.654 L1957.41 976.654 L1952.29 971.121 Q1951.53 971.167 1951.11 971.191 Q1950.72 971.214 1950.35 971.214 Q1943.06 971.214 1938.68 966.353 Q1934.33 961.468 1934.33 953.297 Q1934.33 945.103 1938.68 940.242 Q1943.06 935.357 1950.35 935.357 Q1957.62 935.357 1961.97 940.242 Q1966.32 945.103 1966.32 953.297 Q1966.32 959.316 1963.89 963.598 Q1961.48 967.88 1956.9 969.917 Z" fill="#000000" fill-rule="nonzero" fill-opacity="1" /><path clip-path="url(#clip210)" d="M1973.64 935.982 L1979.93 935.982 L1995.26 964.894 L1995.26 935.982 L1999.79 935.982 L1999.79 970.542 L1993.5 970.542 L1978.17 941.631 L1978.17 970.542 L1973.64 970.542 L1973.64 935.982 Z" fill="#000000" fill-rule="nonzero" fill-opacity="1" /><path clip-path="url(#clip210)" d="M2013.77 939.825 L2013.77 966.7 L2019.42 966.7 Q2026.57 966.7 2029.88 963.459 Q2033.22 960.218 2033.22 953.228 Q2033.22 946.283 2029.88 943.066 Q2026.57 939.825 2019.42 939.825 L2013.77 939.825 M2009.1 935.982 L2018.7 935.982 Q2028.75 935.982 2033.45 940.172 Q2038.15 944.339 2038.15 953.228 Q2038.15 962.163 2033.43 966.353 Q2028.7 970.542 2018.7 970.542 L2009.1 970.542 L2009.1 935.982 Z" fill="#000000" fill-rule="nonzero" fill-opacity="1" /><path clip-path="url(#clip210)" d="M2045.6 935.982 L2065.46 935.982 L2065.46 939.918 L2050.28 939.918 L2050.28 950.103 L2063.98 950.103 L2063.98 954.038 L2050.28 954.038 L2050.28 970.542 L2045.6 970.542 L2045.6 935.982 Z" fill="#000000" fill-rule="nonzero" fill-opacity="1" /><polyline clip-path="url(#clip210)" style="stroke:#00a9ad; stroke-linecap:round; stroke-linejoin:round; stroke-width:4; stroke-opacity:1; fill:none" stroke-dasharray="2, 4" points="1775.25,1005.1 1911.6,1005.1 "/>
<circle clip-path="url(#clip210)" cx="1843.43" cy="1005.1" r="18.9385" fill="#00a9ad" fill-rule="evenodd" fill-opacity="1" stroke="#000000" stroke-opacity="1" stroke-width="4.55111"/>
<path clip-path="url(#clip210)" d="M1950.35 990.994 Q1945.26 990.994 1942.25 994.79 Q1939.26 998.586 1939.26 1005.14 Q1939.26 1011.66 1942.25 1015.46 Q1945.26 1019.26 1950.35 1019.26 Q1955.44 1019.26 1958.4 1015.46 Q1961.39 1011.66 1961.39 1005.14 Q1961.39 998.586 1958.4 994.79 Q1955.44 990.994 1950.35 990.994 M1956.9 1021.76 L1963.06 1028.49 L1957.41 1028.49 L1952.29 1022.96 Q1951.53 1023.01 1951.11 1023.03 Q1950.72 1023.05 1950.35 1023.05 Q1943.06 1023.05 1938.68 1018.19 Q1934.33 1013.31 1934.33 1005.14 Q1934.33 996.943 1938.68 992.082 Q1943.06 987.197 1950.35 987.197 Q1957.62 987.197 1961.97 992.082 Q1966.32 996.943 1966.32 1005.14 Q1966.32 1011.16 1963.89 1015.44 Q1961.48 1019.72 1956.9 1021.76 Z" fill="#000000" fill-rule="nonzero" fill-opacity="1" /><path clip-path="url(#clip210)" d="M1973.64 987.822 L1979.93 987.822 L1995.26 1016.73 L1995.26 987.822 L1999.79 987.822 L1999.79 1022.38 L1993.5 1022.38 L1978.17 993.471 L1978.17 1022.38 L1973.64 1022.38 L1973.64 987.822 Z" fill="#000000" fill-rule="nonzero" fill-opacity="1" /><path clip-path="url(#clip210)" d="M2013.77 991.665 L2013.77 1018.54 L2019.42 1018.54 Q2026.57 1018.54 2029.88 1015.3 Q2033.22 1012.06 2033.22 1005.07 Q2033.22 998.123 2029.88 994.906 Q2026.57 991.665 2019.42 991.665 L2013.77 991.665 M2009.1 987.822 L2018.7 987.822 Q2028.75 987.822 2033.45 992.012 Q2038.15 996.179 2038.15 1005.07 Q2038.15 1014 2033.43 1018.19 Q2028.7 1022.38 2018.7 1022.38 L2009.1 1022.38 L2009.1 987.822 Z" fill="#000000" fill-rule="nonzero" fill-opacity="1" /><path clip-path="url(#clip210)" d="M2045.6 987.822 L2065.46 987.822 L2065.46 991.758 L2050.28 991.758 L2050.28 1001.94 L2063.98 1001.94 L2063.98 1005.88 L2050.28 1005.88 L2050.28 1022.38 L2045.6 1022.38 L2045.6 987.822 Z" fill="#000000" fill-rule="nonzero" fill-opacity="1" /><path clip-path="url(#clip210)" d="M2092.38 1030.25 L2092.38 1033.56 L2067.76 1033.56 L2067.76 1030.25 L2092.38 1030.25 Z" fill="#000000" fill-rule="nonzero" fill-opacity="1" /><path clip-path="url(#clip210)" d="M2096.39 996.457 L2100.65 996.457 L2100.65 1022.85 Q2100.65 1027.8 2098.75 1030.02 Q2096.88 1032.24 2092.69 1032.24 L2091.07 1032.24 L2091.07 1028.63 L2092.2 1028.63 Q2094.63 1028.63 2095.51 1027.5 Q2096.39 1026.39 2096.39 1022.85 L2096.39 996.457 M2096.39 986.364 L2100.65 986.364 L2100.65 991.758 L2096.39 991.758 L2096.39 986.364 Z" fill="#000000" fill-rule="nonzero" fill-opacity="1" /><path clip-path="url(#clip210)" d="M2121.34 1009.35 Q2116.18 1009.35 2114.19 1010.53 Q2112.2 1011.71 2112.2 1014.56 Q2112.2 1016.83 2113.68 1018.17 Q2115.19 1019.49 2117.75 1019.49 Q2121.3 1019.49 2123.43 1016.99 Q2125.58 1014.47 2125.58 1010.3 L2125.58 1009.35 L2121.34 1009.35 M2129.84 1007.59 L2129.84 1022.38 L2125.58 1022.38 L2125.58 1018.45 Q2124.12 1020.81 2121.94 1021.94 Q2119.77 1023.05 2116.62 1023.05 Q2112.64 1023.05 2110.28 1020.83 Q2107.94 1018.59 2107.94 1014.84 Q2107.94 1010.46 2110.86 1008.24 Q2113.8 1006.02 2119.61 1006.02 L2125.58 1006.02 L2125.58 1005.6 Q2125.58 1002.66 2123.63 1001.06 Q2121.71 999.443 2118.22 999.443 Q2116 999.443 2113.89 999.975 Q2111.78 1000.51 2109.84 1001.57 L2109.84 997.637 Q2112.18 996.734 2114.38 996.295 Q2116.57 995.832 2118.66 995.832 Q2124.28 995.832 2127.06 998.748 Q2129.84 1001.67 2129.84 1007.59 Z" fill="#000000" fill-rule="nonzero" fill-opacity="1" /><path clip-path="url(#clip210)" d="M2157.27 997.452 L2157.27 1001.43 Q2155.46 1000.44 2153.63 999.952 Q2151.83 999.443 2149.98 999.443 Q2145.83 999.443 2143.54 1002.08 Q2141.25 1004.7 2141.25 1009.44 Q2141.25 1014.19 2143.54 1016.83 Q2145.83 1019.44 2149.98 1019.44 Q2151.83 1019.44 2153.63 1018.96 Q2155.46 1018.45 2157.27 1017.45 L2157.27 1021.39 Q2155.49 1022.22 2153.56 1022.64 Q2151.67 1023.05 2149.51 1023.05 Q2143.66 1023.05 2140.21 1019.37 Q2136.76 1015.69 2136.76 1009.44 Q2136.76 1003.1 2140.23 999.466 Q2143.73 995.832 2149.79 995.832 Q2151.76 995.832 2153.63 996.248 Q2155.51 996.642 2157.27 997.452 Z" fill="#000000" fill-rule="nonzero" fill-opacity="1" /><polyline clip-path="url(#clip210)" style="stroke:#ed5d92; stroke-linecap:round; stroke-linejoin:round; stroke-width:4; stroke-opacity:1; fill:none" stroke-dasharray="2, 4" points="1775.25,1056.94 1911.6,1056.94 "/>
<circle clip-path="url(#clip210)" cx="1843.43" cy="1056.94" r="18.9385" fill="#ed5d92" fill-rule="evenodd" fill-opacity="1" stroke="#000000" stroke-opacity="1" stroke-width="4.55111"/>
<path clip-path="url(#clip210)" d="M1950.35 1042.83 Q1945.26 1042.83 1942.25 1046.63 Q1939.26 1050.43 1939.26 1056.98 Q1939.26 1063.5 1942.25 1067.3 Q1945.26 1071.1 1950.35 1071.1 Q1955.44 1071.1 1958.4 1067.3 Q1961.39 1063.5 1961.39 1056.98 Q1961.39 1050.43 1958.4 1046.63 Q1955.44 1042.83 1950.35 1042.83 M1956.9 1073.6 L1963.06 1080.33 L1957.41 1080.33 L1952.29 1074.8 Q1951.53 1074.85 1951.11 1074.87 Q1950.72 1074.89 1950.35 1074.89 Q1943.06 1074.89 1938.68 1070.03 Q1934.33 1065.15 1934.33 1056.98 Q1934.33 1048.78 1938.68 1043.92 Q1943.06 1039.04 1950.35 1039.04 Q1957.62 1039.04 1961.97 1043.92 Q1966.32 1048.78 1966.32 1056.98 Q1966.32 1063 1963.89 1067.28 Q1961.48 1071.56 1956.9 1073.6 Z" fill="#000000" fill-rule="nonzero" fill-opacity="1" /><path clip-path="url(#clip210)" d="M1973.64 1039.66 L1979.93 1039.66 L1995.26 1068.57 L1995.26 1039.66 L1999.79 1039.66 L1999.79 1074.22 L1993.5 1074.22 L1978.17 1045.31 L1978.17 1074.22 L1973.64 1074.22 L1973.64 1039.66 Z" fill="#000000" fill-rule="nonzero" fill-opacity="1" /><path clip-path="url(#clip210)" d="M2013.77 1043.51 L2013.77 1070.38 L2019.42 1070.38 Q2026.57 1070.38 2029.88 1067.14 Q2033.22 1063.9 2033.22 1056.91 Q2033.22 1049.96 2029.88 1046.75 Q2026.57 1043.51 2019.42 1043.51 L2013.77 1043.51 M2009.1 1039.66 L2018.7 1039.66 Q2028.75 1039.66 2033.45 1043.85 Q2038.15 1048.02 2038.15 1056.91 Q2038.15 1065.84 2033.43 1070.03 Q2028.7 1074.22 2018.7 1074.22 L2009.1 1074.22 L2009.1 1039.66 Z" fill="#000000" fill-rule="nonzero" fill-opacity="1" /><path clip-path="url(#clip210)" d="M2045.6 1039.66 L2065.46 1039.66 L2065.46 1043.6 L2050.28 1043.6 L2050.28 1053.78 L2063.98 1053.78 L2063.98 1057.72 L2050.28 1057.72 L2050.28 1074.22 L2045.6 1074.22 L2045.6 1039.66 Z" fill="#000000" fill-rule="nonzero" fill-opacity="1" /><path clip-path="url(#clip210)" d="M2092.38 1082.09 L2092.38 1085.4 L2067.76 1085.4 L2067.76 1082.09 L2092.38 1082.09 Z" fill="#000000" fill-rule="nonzero" fill-opacity="1" /><path clip-path="url(#clip210)" d="M2100.51 1070.33 L2100.51 1084.08 L2096.23 1084.08 L2096.23 1048.3 L2100.51 1048.3 L2100.51 1052.23 Q2101.85 1049.92 2103.89 1048.81 Q2105.95 1047.67 2108.8 1047.67 Q2113.52 1047.67 2116.46 1051.42 Q2119.42 1055.17 2119.42 1061.28 Q2119.42 1067.39 2116.46 1071.14 Q2113.52 1074.89 2108.8 1074.89 Q2105.95 1074.89 2103.89 1073.78 Q2101.85 1072.65 2100.51 1070.33 M2115 1061.28 Q2115 1056.58 2113.06 1053.92 Q2111.13 1051.24 2107.75 1051.24 Q2104.38 1051.24 2102.43 1053.92 Q2100.51 1056.58 2100.51 1061.28 Q2100.51 1065.98 2102.43 1068.67 Q2104.38 1071.33 2107.75 1071.33 Q2111.13 1071.33 2113.06 1068.67 Q2115 1065.98 2115 1061.28 Z" fill="#000000" fill-rule="nonzero" fill-opacity="1" /><path clip-path="url(#clip210)" d="M2141.5 1052.28 Q2140.79 1051.86 2139.93 1051.68 Q2139.1 1051.47 2138.08 1051.47 Q2134.47 1051.47 2132.52 1053.83 Q2130.6 1056.17 2130.6 1060.57 L2130.6 1074.22 L2126.32 1074.22 L2126.32 1048.3 L2130.6 1048.3 L2130.6 1052.32 Q2131.94 1049.96 2134.1 1048.83 Q2136.25 1047.67 2139.33 1047.67 Q2139.77 1047.67 2140.3 1047.74 Q2140.83 1047.79 2141.48 1047.9 L2141.5 1052.28 Z" fill="#000000" fill-rule="nonzero" fill-opacity="1" /><path clip-path="url(#clip210)" d="M2167.11 1060.19 L2167.11 1062.28 L2147.52 1062.28 Q2147.8 1066.68 2150.16 1068.99 Q2152.55 1071.28 2156.78 1071.28 Q2159.24 1071.28 2161.53 1070.68 Q2163.84 1070.08 2166.11 1068.88 L2166.11 1072.9 Q2163.82 1073.88 2161.41 1074.38 Q2159 1074.89 2156.53 1074.89 Q2150.32 1074.89 2146.69 1071.28 Q2143.08 1067.67 2143.08 1061.51 Q2143.08 1055.15 2146.5 1051.42 Q2149.95 1047.67 2155.79 1047.67 Q2161.02 1047.67 2164.05 1051.05 Q2167.11 1054.41 2167.11 1060.19 M2162.85 1058.94 Q2162.8 1055.45 2160.88 1053.37 Q2158.98 1051.28 2155.83 1051.28 Q2152.27 1051.28 2150.12 1053.3 Q2147.99 1055.31 2147.66 1058.97 L2162.85 1058.94 Z" fill="#000000" fill-rule="nonzero" fill-opacity="1" /><path clip-path="url(#clip210)" d="M2192.75 1049.29 L2192.75 1053.27 Q2190.95 1052.28 2189.12 1051.79 Q2187.31 1051.28 2185.46 1051.28 Q2181.32 1051.28 2179.03 1053.92 Q2176.74 1056.54 2176.74 1061.28 Q2176.74 1066.03 2179.03 1068.67 Q2181.32 1071.28 2185.46 1071.28 Q2187.31 1071.28 2189.12 1070.8 Q2190.95 1070.29 2192.75 1069.29 L2192.75 1073.23 Q2190.97 1074.06 2189.05 1074.48 Q2187.15 1074.89 2185 1074.89 Q2179.14 1074.89 2175.69 1071.21 Q2172.25 1067.53 2172.25 1061.28 Q2172.25 1054.94 2175.72 1051.31 Q2179.21 1047.67 2185.28 1047.67 Q2187.25 1047.67 2189.12 1048.09 Q2191 1048.48 2192.75 1049.29 Z" fill="#000000" fill-rule="nonzero" fill-opacity="1" /><polyline clip-path="url(#clip210)" style="stroke:#c68125; stroke-linecap:round; stroke-linejoin:round; stroke-width:4; stroke-opacity:1; fill:none" stroke-dasharray="2, 4" points="1775.25,1108.78 1911.6,1108.78 "/>
<circle clip-path="url(#clip210)" cx="1843.43" cy="1108.78" r="18.9385" fill="#c68125" fill-rule="evenodd" fill-opacity="1" stroke="#000000" stroke-opacity="1" stroke-width="4.55111"/>
<path clip-path="url(#clip210)" d="M1950.35 1094.67 Q1945.26 1094.67 1942.25 1098.47 Q1939.26 1102.27 1939.26 1108.82 Q1939.26 1115.34 1942.25 1119.14 Q1945.26 1122.94 1950.35 1122.94 Q1955.44 1122.94 1958.4 1119.14 Q1961.39 1115.34 1961.39 1108.82 Q1961.39 1102.27 1958.4 1098.47 Q1955.44 1094.67 1950.35 1094.67 M1956.9 1125.44 L1963.06 1132.17 L1957.41 1132.17 L1952.29 1126.64 Q1951.53 1126.69 1951.11 1126.71 Q1950.72 1126.73 1950.35 1126.73 Q1943.06 1126.73 1938.68 1121.87 Q1934.33 1116.99 1934.33 1108.82 Q1934.33 1100.62 1938.68 1095.76 Q1943.06 1090.88 1950.35 1090.88 Q1957.62 1090.88 1961.97 1095.76 Q1966.32 1100.62 1966.32 1108.82 Q1966.32 1114.84 1963.89 1119.12 Q1961.48 1123.4 1956.9 1125.44 Z" fill="#000000" fill-rule="nonzero" fill-opacity="1" /><path clip-path="url(#clip210)" d="M1973.64 1091.5 L1979.93 1091.5 L1995.26 1120.41 L1995.26 1091.5 L1999.79 1091.5 L1999.79 1126.06 L1993.5 1126.06 L1978.17 1097.15 L1978.17 1126.06 L1973.64 1126.06 L1973.64 1091.5 Z" fill="#000000" fill-rule="nonzero" fill-opacity="1" /><path clip-path="url(#clip210)" d="M2013.77 1095.35 L2013.77 1122.22 L2019.42 1122.22 Q2026.57 1122.22 2029.88 1118.98 Q2033.22 1115.74 2033.22 1108.75 Q2033.22 1101.8 2029.88 1098.59 Q2026.57 1095.35 2019.42 1095.35 L2013.77 1095.35 M2009.1 1091.5 L2018.7 1091.5 Q2028.75 1091.5 2033.45 1095.69 Q2038.15 1099.86 2038.15 1108.75 Q2038.15 1117.68 2033.43 1121.87 Q2028.7 1126.06 2018.7 1126.06 L2009.1 1126.06 L2009.1 1091.5 Z" fill="#000000" fill-rule="nonzero" fill-opacity="1" /><path clip-path="url(#clip210)" d="M2045.6 1091.5 L2065.46 1091.5 L2065.46 1095.44 L2050.28 1095.44 L2050.28 1105.62 L2063.98 1105.62 L2063.98 1109.56 L2050.28 1109.56 L2050.28 1126.06 L2045.6 1126.06 L2045.6 1091.5 Z" fill="#000000" fill-rule="nonzero" fill-opacity="1" /><path clip-path="url(#clip210)" d="M2092.38 1133.93 L2092.38 1137.24 L2067.76 1137.24 L2067.76 1133.93 L2092.38 1133.93 Z" fill="#000000" fill-rule="nonzero" fill-opacity="1" /><path clip-path="url(#clip210)" d="M2100.51 1122.17 L2100.51 1135.92 L2096.23 1135.92 L2096.23 1100.14 L2100.51 1100.14 L2100.51 1104.07 Q2101.85 1101.76 2103.89 1100.65 Q2105.95 1099.51 2108.8 1099.51 Q2113.52 1099.51 2116.46 1103.26 Q2119.42 1107.01 2119.42 1113.12 Q2119.42 1119.23 2116.46 1122.98 Q2113.52 1126.73 2108.8 1126.73 Q2105.95 1126.73 2103.89 1125.62 Q2101.85 1124.49 2100.51 1122.17 M2115 1113.12 Q2115 1108.42 2113.06 1105.76 Q2111.13 1103.08 2107.75 1103.08 Q2104.38 1103.08 2102.43 1105.76 Q2100.51 1108.42 2100.51 1113.12 Q2100.51 1117.82 2102.43 1120.51 Q2104.38 1123.17 2107.75 1123.17 Q2111.13 1123.17 2113.06 1120.51 Q2115 1117.82 2115 1113.12 Z" fill="#000000" fill-rule="nonzero" fill-opacity="1" /><path clip-path="url(#clip210)" d="M2141.5 1104.12 Q2140.79 1103.7 2139.93 1103.52 Q2139.1 1103.31 2138.08 1103.31 Q2134.47 1103.31 2132.52 1105.67 Q2130.6 1108.01 2130.6 1112.41 L2130.6 1126.06 L2126.32 1126.06 L2126.32 1100.14 L2130.6 1100.14 L2130.6 1104.16 Q2131.94 1101.8 2134.1 1100.67 Q2136.25 1099.51 2139.33 1099.51 Q2139.77 1099.51 2140.3 1099.58 Q2140.83 1099.63 2141.48 1099.74 L2141.5 1104.12 Z" fill="#000000" fill-rule="nonzero" fill-opacity="1" /><path clip-path="url(#clip210)" d="M2167.11 1112.03 L2167.11 1114.12 L2147.52 1114.12 Q2147.8 1118.52 2150.16 1120.83 Q2152.55 1123.12 2156.78 1123.12 Q2159.24 1123.12 2161.53 1122.52 Q2163.84 1121.92 2166.11 1120.72 L2166.11 1124.74 Q2163.82 1125.72 2161.41 1126.22 Q2159 1126.73 2156.53 1126.73 Q2150.32 1126.73 2146.69 1123.12 Q2143.08 1119.51 2143.08 1113.35 Q2143.08 1106.99 2146.5 1103.26 Q2149.95 1099.51 2155.79 1099.51 Q2161.02 1099.51 2164.05 1102.89 Q2167.11 1106.25 2167.11 1112.03 M2162.85 1110.78 Q2162.8 1107.29 2160.88 1105.21 Q2158.98 1103.12 2155.83 1103.12 Q2152.27 1103.12 2150.12 1105.14 Q2147.99 1107.15 2147.66 1110.81 L2162.85 1110.78 Z" fill="#000000" fill-rule="nonzero" fill-opacity="1" /><path clip-path="url(#clip210)" d="M2192.75 1101.13 L2192.75 1105.11 Q2190.95 1104.12 2189.12 1103.63 Q2187.31 1103.12 2185.46 1103.12 Q2181.32 1103.12 2179.03 1105.76 Q2176.74 1108.38 2176.74 1113.12 Q2176.74 1117.87 2179.03 1120.51 Q2181.32 1123.12 2185.46 1123.12 Q2187.31 1123.12 2189.12 1122.64 Q2190.95 1122.13 2192.75 1121.13 L2192.75 1125.07 Q2190.97 1125.9 2189.05 1126.32 Q2187.15 1126.73 2185 1126.73 Q2179.14 1126.73 2175.69 1123.05 Q2172.25 1119.37 2172.25 1113.12 Q2172.25 1106.78 2175.72 1103.15 Q2179.21 1099.51 2185.28 1099.51 Q2187.25 1099.51 2189.12 1099.93 Q2191 1100.32 2192.75 1101.13 Z" fill="#000000" fill-rule="nonzero" fill-opacity="1" /><path clip-path="url(#clip210)" d="M2200.35 1091.5 L2205.02 1091.5 L2205.02 1123.66 Q2205.02 1129.91 2202.64 1132.73 Q2200.28 1135.55 2195.02 1135.55 L2193.24 1135.55 L2193.24 1131.62 L2194.7 1131.62 Q2197.8 1131.62 2199.07 1129.88 Q2200.35 1128.15 2200.35 1123.66 L2200.35 1091.5 Z" fill="#000000" fill-rule="nonzero" fill-opacity="1" /><path clip-path="url(#clip210)" d="M2225.93 1113.03 Q2220.76 1113.03 2218.77 1114.21 Q2216.78 1115.39 2216.78 1118.24 Q2216.78 1120.51 2218.26 1121.85 Q2219.77 1123.17 2222.34 1123.17 Q2225.88 1123.17 2228.01 1120.67 Q2230.16 1118.15 2230.16 1113.98 L2230.16 1113.03 L2225.93 1113.03 M2234.42 1111.27 L2234.42 1126.06 L2230.16 1126.06 L2230.16 1122.13 Q2228.7 1124.49 2226.53 1125.62 Q2224.35 1126.73 2221.2 1126.73 Q2217.22 1126.73 2214.86 1124.51 Q2212.52 1122.27 2212.52 1118.52 Q2212.52 1114.14 2215.44 1111.92 Q2218.38 1109.7 2224.19 1109.7 L2230.16 1109.7 L2230.16 1109.28 Q2230.16 1106.34 2228.22 1104.74 Q2226.3 1103.12 2222.8 1103.12 Q2220.58 1103.12 2218.47 1103.66 Q2216.37 1104.19 2214.42 1105.25 L2214.42 1101.32 Q2216.76 1100.41 2218.96 1099.97 Q2221.16 1099.51 2223.24 1099.51 Q2228.87 1099.51 2231.64 1102.43 Q2234.42 1105.35 2234.42 1111.27 Z" fill="#000000" fill-rule="nonzero" fill-opacity="1" /><path clip-path="url(#clip210)" d="M2261.85 1101.13 L2261.85 1105.11 Q2260.05 1104.12 2258.22 1103.63 Q2256.41 1103.12 2254.56 1103.12 Q2250.42 1103.12 2248.12 1105.76 Q2245.83 1108.38 2245.83 1113.12 Q2245.83 1117.87 2248.12 1120.51 Q2250.42 1123.12 2254.56 1123.12 Q2256.41 1123.12 2258.22 1122.64 Q2260.05 1122.13 2261.85 1121.13 L2261.85 1125.07 Q2260.07 1125.9 2258.15 1126.32 Q2256.25 1126.73 2254.1 1126.73 Q2248.24 1126.73 2244.79 1123.05 Q2241.34 1119.37 2241.34 1113.12 Q2241.34 1106.78 2244.81 1103.15 Q2248.31 1099.51 2254.37 1099.51 Q2256.34 1099.51 2258.22 1099.93 Q2260.09 1100.32 2261.85 1101.13 Z" fill="#000000" fill-rule="nonzero" fill-opacity="1" /><polyline clip-path="url(#clip210)" style="stroke:#00a98d; stroke-linecap:round; stroke-linejoin:round; stroke-width:4; stroke-opacity:1; fill:none" stroke-dasharray="2, 4" points="1775.25,1160.62 1911.6,1160.62 "/>
<circle clip-path="url(#clip210)" cx="1843.43" cy="1160.62" r="18.9385" fill="#00a98d" fill-rule="evenodd" fill-opacity="1" stroke="#000000" stroke-opacity="1" stroke-width="4.55111"/>
<path clip-path="url(#clip210)" d="M1950.35 1146.51 Q1945.26 1146.51 1942.25 1150.31 Q1939.26 1154.11 1939.26 1160.66 Q1939.26 1167.18 1942.25 1170.98 Q1945.26 1174.78 1950.35 1174.78 Q1955.44 1174.78 1958.4 1170.98 Q1961.39 1167.18 1961.39 1160.66 Q1961.39 1154.11 1958.4 1150.31 Q1955.44 1146.51 1950.35 1146.51 M1956.9 1177.28 L1963.06 1184.01 L1957.41 1184.01 L1952.29 1178.48 Q1951.53 1178.53 1951.11 1178.55 Q1950.72 1178.57 1950.35 1178.57 Q1943.06 1178.57 1938.68 1173.71 Q1934.33 1168.83 1934.33 1160.66 Q1934.33 1152.46 1938.68 1147.6 Q1943.06 1142.72 1950.35 1142.72 Q1957.62 1142.72 1961.97 1147.6 Q1966.32 1152.46 1966.32 1160.66 Q1966.32 1166.68 1963.89 1170.96 Q1961.48 1175.24 1956.9 1177.28 Z" fill="#000000" fill-rule="nonzero" fill-opacity="1" /><path clip-path="url(#clip210)" d="M1978.31 1161.4 L1978.31 1174.06 L1985.81 1174.06 Q1989.58 1174.06 1991.39 1172.51 Q1993.22 1170.93 1993.22 1167.72 Q1993.22 1164.48 1991.39 1162.95 Q1989.58 1161.4 1985.81 1161.4 L1978.31 1161.4 M1978.31 1147.19 L1978.31 1157.6 L1985.23 1157.6 Q1988.66 1157.6 1990.32 1156.33 Q1992.01 1155.03 1992.01 1152.39 Q1992.01 1149.78 1990.32 1148.48 Q1988.66 1147.19 1985.23 1147.19 L1978.31 1147.19 M1973.64 1143.34 L1985.58 1143.34 Q1990.93 1143.34 1993.82 1145.56 Q1996.71 1147.79 1996.71 1151.88 Q1996.71 1155.06 1995.23 1156.93 Q1993.75 1158.81 1990.88 1159.27 Q1994.33 1160.01 1996.23 1162.37 Q1998.15 1164.71 1998.15 1168.23 Q1998.15 1172.86 1995 1175.38 Q1991.85 1177.9 1986.04 1177.9 L1973.64 1177.9 L1973.64 1143.34 Z" fill="#000000" fill-rule="nonzero" fill-opacity="1" /><path clip-path="url(#clip210)" d="M2010.83 1147.19 L2010.83 1174.06 L2016.48 1174.06 Q2023.63 1174.06 2026.95 1170.82 Q2030.28 1167.58 2030.28 1160.59 Q2030.28 1153.64 2026.95 1150.43 Q2023.63 1147.19 2016.48 1147.19 L2010.83 1147.19 M2006.16 1143.34 L2015.76 1143.34 Q2025.81 1143.34 2030.51 1147.53 Q2035.21 1151.7 2035.21 1160.59 Q2035.21 1169.52 2030.49 1173.71 Q2025.76 1177.9 2015.76 1177.9 L2006.16 1177.9 L2006.16 1143.34 Z" fill="#000000" fill-rule="nonzero" fill-opacity="1" /><path clip-path="url(#clip210)" d="M2042.66 1143.34 L2062.52 1143.34 L2062.52 1147.28 L2047.34 1147.28 L2047.34 1157.46 L2061.04 1157.46 L2061.04 1161.4 L2047.34 1161.4 L2047.34 1177.9 L2042.66 1177.9 L2042.66 1143.34 Z" fill="#000000" fill-rule="nonzero" fill-opacity="1" /><polyline clip-path="url(#clip210)" style="stroke:#8e971d; stroke-linecap:round; stroke-linejoin:round; stroke-width:4; stroke-opacity:1; fill:none" stroke-dasharray="2, 4" points="1775.25,1212.46 1911.6,1212.46 "/>
<circle clip-path="url(#clip210)" cx="1843.43" cy="1212.46" r="18.9385" fill="#8e971d" fill-rule="evenodd" fill-opacity="1" stroke="#000000" stroke-opacity="1" stroke-width="4.55111"/>
<path clip-path="url(#clip210)" d="M1950.35 1198.35 Q1945.26 1198.35 1942.25 1202.15 Q1939.26 1205.95 1939.26 1212.5 Q1939.26 1219.02 1942.25 1222.82 Q1945.26 1226.62 1950.35 1226.62 Q1955.44 1226.62 1958.4 1222.82 Q1961.39 1219.02 1961.39 1212.5 Q1961.39 1205.95 1958.4 1202.15 Q1955.44 1198.35 1950.35 1198.35 M1956.9 1229.12 L1963.06 1235.85 L1957.41 1235.85 L1952.29 1230.32 Q1951.53 1230.37 1951.11 1230.39 Q1950.72 1230.41 1950.35 1230.41 Q1943.06 1230.41 1938.68 1225.55 Q1934.33 1220.67 1934.33 1212.5 Q1934.33 1204.3 1938.68 1199.44 Q1943.06 1194.56 1950.35 1194.56 Q1957.62 1194.56 1961.97 1199.44 Q1966.32 1204.3 1966.32 1212.5 Q1966.32 1218.52 1963.89 1222.8 Q1961.48 1227.08 1956.9 1229.12 Z" fill="#000000" fill-rule="nonzero" fill-opacity="1" /><path clip-path="url(#clip210)" d="M1978.31 1213.24 L1978.31 1225.9 L1985.81 1225.9 Q1989.58 1225.9 1991.39 1224.35 Q1993.22 1222.77 1993.22 1219.56 Q1993.22 1216.32 1991.39 1214.79 Q1989.58 1213.24 1985.81 1213.24 L1978.31 1213.24 M1978.31 1199.03 L1978.31 1209.44 L1985.23 1209.44 Q1988.66 1209.44 1990.32 1208.17 Q1992.01 1206.87 1992.01 1204.23 Q1992.01 1201.62 1990.32 1200.32 Q1988.66 1199.03 1985.23 1199.03 L1978.31 1199.03 M1973.64 1195.18 L1985.58 1195.18 Q1990.93 1195.18 1993.82 1197.4 Q1996.71 1199.63 1996.71 1203.72 Q1996.71 1206.9 1995.23 1208.77 Q1993.75 1210.65 1990.88 1211.11 Q1994.33 1211.85 1996.23 1214.21 Q1998.15 1216.55 1998.15 1220.07 Q1998.15 1224.7 1995 1227.22 Q1991.85 1229.74 1986.04 1229.74 L1973.64 1229.74 L1973.64 1195.18 Z" fill="#000000" fill-rule="nonzero" fill-opacity="1" /><path clip-path="url(#clip210)" d="M2010.83 1199.03 L2010.83 1225.9 L2016.48 1225.9 Q2023.63 1225.9 2026.95 1222.66 Q2030.28 1219.42 2030.28 1212.43 Q2030.28 1205.48 2026.95 1202.27 Q2023.63 1199.03 2016.48 1199.03 L2010.83 1199.03 M2006.16 1195.18 L2015.76 1195.18 Q2025.81 1195.18 2030.51 1199.37 Q2035.21 1203.54 2035.21 1212.43 Q2035.21 1221.36 2030.49 1225.55 Q2025.76 1229.74 2015.76 1229.74 L2006.16 1229.74 L2006.16 1195.18 Z" fill="#000000" fill-rule="nonzero" fill-opacity="1" /><path clip-path="url(#clip210)" d="M2042.66 1195.18 L2062.52 1195.18 L2062.52 1199.12 L2047.34 1199.12 L2047.34 1209.3 L2061.04 1209.3 L2061.04 1213.24 L2047.34 1213.24 L2047.34 1229.74 L2042.66 1229.74 L2042.66 1195.18 Z" fill="#000000" fill-rule="nonzero" fill-opacity="1" /><path clip-path="url(#clip210)" d="M2089.44 1237.61 L2089.44 1240.92 L2064.82 1240.92 L2064.82 1237.61 L2089.44 1237.61 Z" fill="#000000" fill-rule="nonzero" fill-opacity="1" /><path clip-path="url(#clip210)" d="M2093.45 1203.82 L2097.71 1203.82 L2097.71 1230.21 Q2097.71 1235.16 2095.81 1237.38 Q2093.94 1239.6 2089.75 1239.6 L2088.13 1239.6 L2088.13 1235.99 L2089.26 1235.99 Q2091.69 1235.99 2092.57 1234.86 Q2093.45 1233.75 2093.45 1230.21 L2093.45 1203.82 M2093.45 1193.72 L2097.71 1193.72 L2097.71 1199.12 L2093.45 1199.12 L2093.45 1193.72 Z" fill="#000000" fill-rule="nonzero" fill-opacity="1" /><path clip-path="url(#clip210)" d="M2118.4 1216.71 Q2113.24 1216.71 2111.25 1217.89 Q2109.26 1219.07 2109.26 1221.92 Q2109.26 1224.19 2110.74 1225.53 Q2112.25 1226.85 2114.81 1226.85 Q2118.36 1226.85 2120.49 1224.35 Q2122.64 1221.83 2122.64 1217.66 L2122.64 1216.71 L2118.4 1216.71 M2126.9 1214.95 L2126.9 1229.74 L2122.64 1229.74 L2122.64 1225.81 Q2121.18 1228.17 2119 1229.3 Q2116.83 1230.41 2113.68 1230.41 Q2109.7 1230.41 2107.34 1228.19 Q2105 1225.95 2105 1222.2 Q2105 1217.82 2107.92 1215.6 Q2110.86 1213.38 2116.67 1213.38 L2122.64 1213.38 L2122.64 1212.96 Q2122.64 1210.02 2120.69 1208.42 Q2118.77 1206.8 2115.28 1206.8 Q2113.06 1206.8 2110.95 1207.34 Q2108.84 1207.87 2106.9 1208.93 L2106.9 1205 Q2109.24 1204.09 2111.44 1203.65 Q2113.63 1203.19 2115.72 1203.19 Q2121.34 1203.19 2124.12 1206.11 Q2126.9 1209.03 2126.9 1214.95 Z" fill="#000000" fill-rule="nonzero" fill-opacity="1" /><path clip-path="url(#clip210)" d="M2154.33 1204.81 L2154.33 1208.79 Q2152.52 1207.8 2150.69 1207.31 Q2148.89 1206.8 2147.04 1206.8 Q2142.89 1206.8 2140.6 1209.44 Q2138.31 1212.06 2138.31 1216.8 Q2138.31 1221.55 2140.6 1224.19 Q2142.89 1226.8 2147.04 1226.8 Q2148.89 1226.8 2150.69 1226.32 Q2152.52 1225.81 2154.33 1224.81 L2154.33 1228.75 Q2152.55 1229.58 2150.62 1230 Q2148.73 1230.41 2146.57 1230.41 Q2140.72 1230.41 2137.27 1226.73 Q2133.82 1223.05 2133.82 1216.8 Q2133.82 1210.46 2137.29 1206.83 Q2140.79 1203.19 2146.85 1203.19 Q2148.82 1203.19 2150.69 1203.61 Q2152.57 1204 2154.33 1204.81 Z" fill="#000000" fill-rule="nonzero" fill-opacity="1" /><polyline clip-path="url(#clip210)" style="stroke:#00a8cb; stroke-linecap:round; stroke-linejoin:round; stroke-width:4; stroke-opacity:1; fill:none" stroke-dasharray="2, 4" points="1775.25,1264.3 1911.6,1264.3 "/>
<circle clip-path="url(#clip210)" cx="1843.43" cy="1264.3" r="18.9385" fill="#00a8cb" fill-rule="evenodd" fill-opacity="1" stroke="#000000" stroke-opacity="1" stroke-width="4.55111"/>
<path clip-path="url(#clip210)" d="M1950.35 1250.19 Q1945.26 1250.19 1942.25 1253.99 Q1939.26 1257.79 1939.26 1264.34 Q1939.26 1270.86 1942.25 1274.66 Q1945.26 1278.46 1950.35 1278.46 Q1955.44 1278.46 1958.4 1274.66 Q1961.39 1270.86 1961.39 1264.34 Q1961.39 1257.79 1958.4 1253.99 Q1955.44 1250.19 1950.35 1250.19 M1956.9 1280.96 L1963.06 1287.69 L1957.41 1287.69 L1952.29 1282.16 Q1951.53 1282.21 1951.11 1282.23 Q1950.72 1282.25 1950.35 1282.25 Q1943.06 1282.25 1938.68 1277.39 Q1934.33 1272.51 1934.33 1264.34 Q1934.33 1256.14 1938.68 1251.28 Q1943.06 1246.4 1950.35 1246.4 Q1957.62 1246.4 1961.97 1251.28 Q1966.32 1256.14 1966.32 1264.34 Q1966.32 1270.36 1963.89 1274.64 Q1961.48 1278.92 1956.9 1280.96 Z" fill="#000000" fill-rule="nonzero" fill-opacity="1" /><path clip-path="url(#clip210)" d="M1978.31 1265.08 L1978.31 1277.74 L1985.81 1277.74 Q1989.58 1277.74 1991.39 1276.19 Q1993.22 1274.61 1993.22 1271.4 Q1993.22 1268.16 1991.39 1266.63 Q1989.58 1265.08 1985.81 1265.08 L1978.31 1265.08 M1978.31 1250.87 L1978.31 1261.28 L1985.23 1261.28 Q1988.66 1261.28 1990.32 1260.01 Q1992.01 1258.71 1992.01 1256.07 Q1992.01 1253.46 1990.32 1252.16 Q1988.66 1250.87 1985.23 1250.87 L1978.31 1250.87 M1973.64 1247.02 L1985.58 1247.02 Q1990.93 1247.02 1993.82 1249.24 Q1996.71 1251.47 1996.71 1255.56 Q1996.71 1258.74 1995.23 1260.61 Q1993.75 1262.49 1990.88 1262.95 Q1994.33 1263.69 1996.23 1266.05 Q1998.15 1268.39 1998.15 1271.91 Q1998.15 1276.54 1995 1279.06 Q1991.85 1281.58 1986.04 1281.58 L1973.64 1281.58 L1973.64 1247.02 Z" fill="#000000" fill-rule="nonzero" fill-opacity="1" /><path clip-path="url(#clip210)" d="M2010.83 1250.87 L2010.83 1277.74 L2016.48 1277.74 Q2023.63 1277.74 2026.95 1274.5 Q2030.28 1271.26 2030.28 1264.27 Q2030.28 1257.32 2026.95 1254.11 Q2023.63 1250.87 2016.48 1250.87 L2010.83 1250.87 M2006.16 1247.02 L2015.76 1247.02 Q2025.81 1247.02 2030.51 1251.21 Q2035.21 1255.38 2035.21 1264.27 Q2035.21 1273.2 2030.49 1277.39 Q2025.76 1281.58 2015.76 1281.58 L2006.16 1281.58 L2006.16 1247.02 Z" fill="#000000" fill-rule="nonzero" fill-opacity="1" /><path clip-path="url(#clip210)" d="M2042.66 1247.02 L2062.52 1247.02 L2062.52 1250.96 L2047.34 1250.96 L2047.34 1261.14 L2061.04 1261.14 L2061.04 1265.08 L2047.34 1265.08 L2047.34 1281.58 L2042.66 1281.58 L2042.66 1247.02 Z" fill="#000000" fill-rule="nonzero" fill-opacity="1" /><path clip-path="url(#clip210)" d="M2089.44 1289.45 L2089.44 1292.76 L2064.82 1292.76 L2064.82 1289.45 L2089.44 1289.45 Z" fill="#000000" fill-rule="nonzero" fill-opacity="1" /><path clip-path="url(#clip210)" d="M2097.57 1277.69 L2097.57 1291.44 L2093.29 1291.44 L2093.29 1255.66 L2097.57 1255.66 L2097.57 1259.59 Q2098.91 1257.28 2100.95 1256.17 Q2103.01 1255.03 2105.86 1255.03 Q2110.58 1255.03 2113.52 1258.78 Q2116.48 1262.53 2116.48 1268.64 Q2116.48 1274.75 2113.52 1278.5 Q2110.58 1282.25 2105.86 1282.25 Q2103.01 1282.25 2100.95 1281.14 Q2098.91 1280.01 2097.57 1277.69 M2112.06 1268.64 Q2112.06 1263.94 2110.12 1261.28 Q2108.19 1258.6 2104.82 1258.6 Q2101.44 1258.6 2099.49 1261.28 Q2097.57 1263.94 2097.57 1268.64 Q2097.57 1273.34 2099.49 1276.03 Q2101.44 1278.69 2104.82 1278.69 Q2108.19 1278.69 2110.12 1276.03 Q2112.06 1273.34 2112.06 1268.64 Z" fill="#000000" fill-rule="nonzero" fill-opacity="1" /><path clip-path="url(#clip210)" d="M2138.56 1259.64 Q2137.85 1259.22 2136.99 1259.04 Q2136.16 1258.83 2135.14 1258.83 Q2131.53 1258.83 2129.58 1261.19 Q2127.66 1263.53 2127.66 1267.93 L2127.66 1281.58 L2123.38 1281.58 L2123.38 1255.66 L2127.66 1255.66 L2127.66 1259.68 Q2129 1257.32 2131.16 1256.19 Q2133.31 1255.03 2136.39 1255.03 Q2136.83 1255.03 2137.36 1255.1 Q2137.89 1255.15 2138.54 1255.26 L2138.56 1259.64 Z" fill="#000000" fill-rule="nonzero" fill-opacity="1" /><path clip-path="url(#clip210)" d="M2164.17 1267.55 L2164.17 1269.64 L2144.58 1269.64 Q2144.86 1274.04 2147.22 1276.35 Q2149.61 1278.64 2153.84 1278.64 Q2156.3 1278.64 2158.59 1278.04 Q2160.9 1277.44 2163.17 1276.24 L2163.17 1280.26 Q2160.88 1281.24 2158.47 1281.74 Q2156.06 1282.25 2153.59 1282.25 Q2147.38 1282.25 2143.75 1278.64 Q2140.14 1275.03 2140.14 1268.87 Q2140.14 1262.51 2143.56 1258.78 Q2147.01 1255.03 2152.85 1255.03 Q2158.08 1255.03 2161.11 1258.41 Q2164.17 1261.77 2164.17 1267.55 M2159.91 1266.3 Q2159.86 1262.81 2157.94 1260.73 Q2156.04 1258.64 2152.89 1258.64 Q2149.33 1258.64 2147.18 1260.66 Q2145.05 1262.67 2144.72 1266.33 L2159.91 1266.3 Z" fill="#000000" fill-rule="nonzero" fill-opacity="1" /><path clip-path="url(#clip210)" d="M2189.81 1256.65 L2189.81 1260.63 Q2188.01 1259.64 2186.18 1259.15 Q2184.37 1258.64 2182.52 1258.64 Q2178.38 1258.64 2176.09 1261.28 Q2173.8 1263.9 2173.8 1268.64 Q2173.8 1273.39 2176.09 1276.03 Q2178.38 1278.64 2182.52 1278.64 Q2184.37 1278.64 2186.18 1278.16 Q2188.01 1277.65 2189.81 1276.65 L2189.81 1280.59 Q2188.03 1281.42 2186.11 1281.84 Q2184.21 1282.25 2182.06 1282.25 Q2176.2 1282.25 2172.75 1278.57 Q2169.31 1274.89 2169.31 1268.64 Q2169.31 1262.3 2172.78 1258.67 Q2176.27 1255.03 2182.34 1255.03 Q2184.31 1255.03 2186.18 1255.45 Q2188.06 1255.84 2189.81 1256.65 Z" fill="#000000" fill-rule="nonzero" fill-opacity="1" /><polyline clip-path="url(#clip210)" style="stroke:#9b7fe8; stroke-linecap:round; stroke-linejoin:round; stroke-width:4; stroke-opacity:1; fill:none" stroke-dasharray="2, 4" points="1775.25,1316.14 1911.6,1316.14 "/>
<circle clip-path="url(#clip210)" cx="1843.43" cy="1316.14" r="18.9385" fill="#9b7fe8" fill-rule="evenodd" fill-opacity="1" stroke="#000000" stroke-opacity="1" stroke-width="4.55111"/>
<path clip-path="url(#clip210)" d="M1950.35 1302.03 Q1945.26 1302.03 1942.25 1305.83 Q1939.26 1309.63 1939.26 1316.18 Q1939.26 1322.7 1942.25 1326.5 Q1945.26 1330.3 1950.35 1330.3 Q1955.44 1330.3 1958.4 1326.5 Q1961.39 1322.7 1961.39 1316.18 Q1961.39 1309.63 1958.4 1305.83 Q1955.44 1302.03 1950.35 1302.03 M1956.9 1332.8 L1963.06 1339.53 L1957.41 1339.53 L1952.29 1334 Q1951.53 1334.05 1951.11 1334.07 Q1950.72 1334.09 1950.35 1334.09 Q1943.06 1334.09 1938.68 1329.23 Q1934.33 1324.35 1934.33 1316.18 Q1934.33 1307.98 1938.68 1303.12 Q1943.06 1298.24 1950.35 1298.24 Q1957.62 1298.24 1961.97 1303.12 Q1966.32 1307.98 1966.32 1316.18 Q1966.32 1322.2 1963.89 1326.48 Q1961.48 1330.76 1956.9 1332.8 Z" fill="#000000" fill-rule="nonzero" fill-opacity="1" /><path clip-path="url(#clip210)" d="M1978.31 1316.92 L1978.31 1329.58 L1985.81 1329.58 Q1989.58 1329.58 1991.39 1328.03 Q1993.22 1326.45 1993.22 1323.24 Q1993.22 1320 1991.39 1318.47 Q1989.58 1316.92 1985.81 1316.92 L1978.31 1316.92 M1978.31 1302.71 L1978.31 1313.12 L1985.23 1313.12 Q1988.66 1313.12 1990.32 1311.85 Q1992.01 1310.55 1992.01 1307.91 Q1992.01 1305.3 1990.32 1304 Q1988.66 1302.71 1985.23 1302.71 L1978.31 1302.71 M1973.64 1298.86 L1985.58 1298.86 Q1990.93 1298.86 1993.82 1301.08 Q1996.71 1303.31 1996.71 1307.4 Q1996.71 1310.58 1995.23 1312.45 Q1993.75 1314.33 1990.88 1314.79 Q1994.33 1315.53 1996.23 1317.89 Q1998.15 1320.23 1998.15 1323.75 Q1998.15 1328.38 1995 1330.9 Q1991.85 1333.42 1986.04 1333.42 L1973.64 1333.42 L1973.64 1298.86 Z" fill="#000000" fill-rule="nonzero" fill-opacity="1" /><path clip-path="url(#clip210)" d="M2010.83 1302.71 L2010.83 1329.58 L2016.48 1329.58 Q2023.63 1329.58 2026.95 1326.34 Q2030.28 1323.1 2030.28 1316.11 Q2030.28 1309.16 2026.95 1305.95 Q2023.63 1302.71 2016.48 1302.71 L2010.83 1302.71 M2006.16 1298.86 L2015.76 1298.86 Q2025.81 1298.86 2030.51 1303.05 Q2035.21 1307.22 2035.21 1316.11 Q2035.21 1325.04 2030.49 1329.23 Q2025.76 1333.42 2015.76 1333.42 L2006.16 1333.42 L2006.16 1298.86 Z" fill="#000000" fill-rule="nonzero" fill-opacity="1" /><path clip-path="url(#clip210)" d="M2042.66 1298.86 L2062.52 1298.86 L2062.52 1302.8 L2047.34 1302.8 L2047.34 1312.98 L2061.04 1312.98 L2061.04 1316.92 L2047.34 1316.92 L2047.34 1333.42 L2042.66 1333.42 L2042.66 1298.86 Z" fill="#000000" fill-rule="nonzero" fill-opacity="1" /><path clip-path="url(#clip210)" d="M2089.44 1341.29 L2089.44 1344.6 L2064.82 1344.6 L2064.82 1341.29 L2089.44 1341.29 Z" fill="#000000" fill-rule="nonzero" fill-opacity="1" /><path clip-path="url(#clip210)" d="M2097.57 1329.53 L2097.57 1343.28 L2093.29 1343.28 L2093.29 1307.5 L2097.57 1307.5 L2097.57 1311.43 Q2098.91 1309.12 2100.95 1308.01 Q2103.01 1306.87 2105.86 1306.87 Q2110.58 1306.87 2113.52 1310.62 Q2116.48 1314.37 2116.48 1320.48 Q2116.48 1326.59 2113.52 1330.34 Q2110.58 1334.09 2105.86 1334.09 Q2103.01 1334.09 2100.95 1332.98 Q2098.91 1331.85 2097.57 1329.53 M2112.06 1320.48 Q2112.06 1315.78 2110.12 1313.12 Q2108.19 1310.44 2104.82 1310.44 Q2101.44 1310.44 2099.49 1313.12 Q2097.57 1315.78 2097.57 1320.48 Q2097.57 1325.18 2099.49 1327.87 Q2101.44 1330.53 2104.82 1330.53 Q2108.19 1330.53 2110.12 1327.87 Q2112.06 1325.18 2112.06 1320.48 Z" fill="#000000" fill-rule="nonzero" fill-opacity="1" /><path clip-path="url(#clip210)" d="M2138.56 1311.48 Q2137.85 1311.06 2136.99 1310.88 Q2136.16 1310.67 2135.14 1310.67 Q2131.53 1310.67 2129.58 1313.03 Q2127.66 1315.37 2127.66 1319.77 L2127.66 1333.42 L2123.38 1333.42 L2123.38 1307.5 L2127.66 1307.5 L2127.66 1311.52 Q2129 1309.16 2131.16 1308.03 Q2133.31 1306.87 2136.39 1306.87 Q2136.83 1306.87 2137.36 1306.94 Q2137.89 1306.99 2138.54 1307.1 L2138.56 1311.48 Z" fill="#000000" fill-rule="nonzero" fill-opacity="1" /><path clip-path="url(#clip210)" d="M2164.17 1319.39 L2164.17 1321.48 L2144.58 1321.48 Q2144.86 1325.88 2147.22 1328.19 Q2149.61 1330.48 2153.84 1330.48 Q2156.3 1330.48 2158.59 1329.88 Q2160.9 1329.28 2163.17 1328.08 L2163.17 1332.1 Q2160.88 1333.08 2158.47 1333.58 Q2156.06 1334.09 2153.59 1334.09 Q2147.38 1334.09 2143.75 1330.48 Q2140.14 1326.87 2140.14 1320.71 Q2140.14 1314.35 2143.56 1310.62 Q2147.01 1306.87 2152.85 1306.87 Q2158.08 1306.87 2161.11 1310.25 Q2164.17 1313.61 2164.17 1319.39 M2159.91 1318.14 Q2159.86 1314.65 2157.94 1312.57 Q2156.04 1310.48 2152.89 1310.48 Q2149.33 1310.48 2147.18 1312.5 Q2145.05 1314.51 2144.72 1318.17 L2159.91 1318.14 Z" fill="#000000" fill-rule="nonzero" fill-opacity="1" /><path clip-path="url(#clip210)" d="M2189.81 1308.49 L2189.81 1312.47 Q2188.01 1311.48 2186.18 1310.99 Q2184.37 1310.48 2182.52 1310.48 Q2178.38 1310.48 2176.09 1313.12 Q2173.8 1315.74 2173.8 1320.48 Q2173.8 1325.23 2176.09 1327.87 Q2178.38 1330.48 2182.52 1330.48 Q2184.37 1330.48 2186.18 1330 Q2188.01 1329.49 2189.81 1328.49 L2189.81 1332.43 Q2188.03 1333.26 2186.11 1333.68 Q2184.21 1334.09 2182.06 1334.09 Q2176.2 1334.09 2172.75 1330.41 Q2169.31 1326.73 2169.31 1320.48 Q2169.31 1314.14 2172.78 1310.51 Q2176.27 1306.87 2182.34 1306.87 Q2184.31 1306.87 2186.18 1307.29 Q2188.06 1307.68 2189.81 1308.49 Z" fill="#000000" fill-rule="nonzero" fill-opacity="1" /><path clip-path="url(#clip210)" d="M2197.41 1298.86 L2202.08 1298.86 L2202.08 1331.02 Q2202.08 1337.27 2199.7 1340.09 Q2197.34 1342.91 2192.08 1342.91 L2190.3 1342.91 L2190.3 1338.98 L2191.76 1338.98 Q2194.86 1338.98 2196.13 1337.24 Q2197.41 1335.51 2197.41 1331.02 L2197.41 1298.86 Z" fill="#000000" fill-rule="nonzero" fill-opacity="1" /><path clip-path="url(#clip210)" d="M2222.99 1320.39 Q2217.82 1320.39 2215.83 1321.57 Q2213.84 1322.75 2213.84 1325.6 Q2213.84 1327.87 2215.32 1329.21 Q2216.83 1330.53 2219.4 1330.53 Q2222.94 1330.53 2225.07 1328.03 Q2227.22 1325.51 2227.22 1321.34 L2227.22 1320.39 L2222.99 1320.39 M2231.48 1318.63 L2231.48 1333.42 L2227.22 1333.42 L2227.22 1329.49 Q2225.76 1331.85 2223.59 1332.98 Q2221.41 1334.09 2218.26 1334.09 Q2214.28 1334.09 2211.92 1331.87 Q2209.58 1329.63 2209.58 1325.88 Q2209.58 1321.5 2212.5 1319.28 Q2215.44 1317.06 2221.25 1317.06 L2227.22 1317.06 L2227.22 1316.64 Q2227.22 1313.7 2225.28 1312.1 Q2223.36 1310.48 2219.86 1310.48 Q2217.64 1310.48 2215.53 1311.02 Q2213.43 1311.55 2211.48 1312.61 L2211.48 1308.68 Q2213.82 1307.77 2216.02 1307.33 Q2218.22 1306.87 2220.3 1306.87 Q2225.93 1306.87 2228.7 1309.79 Q2231.48 1312.71 2231.48 1318.63 Z" fill="#000000" fill-rule="nonzero" fill-opacity="1" /><path clip-path="url(#clip210)" d="M2258.91 1308.49 L2258.91 1312.47 Q2257.11 1311.48 2255.28 1310.99 Q2253.47 1310.48 2251.62 1310.48 Q2247.48 1310.48 2245.18 1313.12 Q2242.89 1315.74 2242.89 1320.48 Q2242.89 1325.23 2245.18 1327.87 Q2247.48 1330.48 2251.62 1330.48 Q2253.47 1330.48 2255.28 1330 Q2257.11 1329.49 2258.91 1328.49 L2258.91 1332.43 Q2257.13 1333.26 2255.21 1333.68 Q2253.31 1334.09 2251.16 1334.09 Q2245.3 1334.09 2241.85 1330.41 Q2238.4 1326.73 2238.4 1320.48 Q2238.4 1314.14 2241.87 1310.51 Q2245.37 1306.87 2251.43 1306.87 Q2253.4 1306.87 2255.28 1307.29 Q2257.15 1307.68 2258.91 1308.49 Z" fill="#000000" fill-rule="nonzero" fill-opacity="1" /></svg>
