<?xml version="1.0" encoding="utf-8"?>
<svg xmlns="http://www.w3.org/2000/svg" xmlns:xlink="http://www.w3.org/1999/xlink" width="600" height="400" viewBox="0 0 2400 1600">
<defs>
  <clipPath id="clip560">
    <rect x="0" y="0" width="2400" height="1600"/>
  </clipPath>
</defs>
<path clip-path="url(#clip560)" d="M0 1600 L2400 1600 L2400 0 L0 0  Z" fill="#ffffff" fill-rule="evenodd" fill-opacity="1"/>
<defs>
  <clipPath id="clip561">
    <rect x="480" y="0" width="1681" height="1600"/>
  </clipPath>
</defs>
<path clip-path="url(#clip560)" d="M289.119 1410.9 L2352.76 1410.9 L2352.76 123.472 L289.119 123.472  Z" fill="#ffffff" fill-rule="evenodd" fill-opacity="1"/>
<defs>
  <clipPath id="clip562">
    <rect x="289" y="123" width="2065" height="1288"/>
  </clipPath>
</defs>
<polyline clip-path="url(#clip562)" style="stroke:#000000; stroke-linecap:round; stroke-linejoin:round; stroke-width:2; stroke-opacity:0.1; fill:none" points="996.466,1410.9 996.466,123.472 "/>
<polyline clip-path="url(#clip562)" style="stroke:#000000; stroke-linecap:round; stroke-linejoin:round; stroke-width:2; stroke-opacity:0.1; fill:none" points="2074.34,1410.9 2074.34,123.472 "/>
<polyline clip-path="url(#clip560)" style="stroke:#000000; stroke-linecap:round; stroke-linejoin:round; stroke-width:4; stroke-opacity:1; fill:none" points="289.119,1410.9 2352.76,1410.9 "/>
<polyline clip-path="url(#clip560)" style="stroke:#000000; stroke-linecap:round; stroke-linejoin:round; stroke-width:4; stroke-opacity:1; fill:none" points="996.466,1410.9 996.466,1392 "/>
<polyline clip-path="url(#clip560)" style="stroke:#000000; stroke-linecap:round; stroke-linejoin:round; stroke-width:4; stroke-opacity:1; fill:none" points="2074.34,1410.9 2074.34,1392 "/>
<path clip-path="url(#clip560)" d="M943.215 1485.02 L950.854 1485.02 L950.854 1458.66 L942.544 1460.32 L942.544 1456.06 L950.808 1454.4 L955.484 1454.4 L955.484 1485.02 L963.122 1485.02 L963.122 1488.96 L943.215 1488.96 L943.215 1485.02 Z" fill="#000000" fill-rule="nonzero" fill-opacity="1" /><path clip-path="url(#clip560)" d="M982.567 1457.48 Q978.956 1457.48 977.127 1461.04 Q975.321 1464.58 975.321 1471.71 Q975.321 1478.82 977.127 1482.38 Q978.956 1485.92 982.567 1485.92 Q986.201 1485.92 988.007 1482.38 Q989.835 1478.82 989.835 1471.71 Q989.835 1464.58 988.007 1461.04 Q986.201 1457.48 982.567 1457.48 M982.567 1453.77 Q988.377 1453.77 991.433 1458.38 Q994.511 1462.96 994.511 1471.71 Q994.511 1480.44 991.433 1485.04 Q988.377 1489.63 982.567 1489.63 Q976.757 1489.63 973.678 1485.04 Q970.622 1480.44 970.622 1471.71 Q970.622 1462.96 973.678 1458.38 Q976.757 1453.77 982.567 1453.77 Z" fill="#000000" fill-rule="nonzero" fill-opacity="1" /><path clip-path="url(#clip560)" d="M999.081 1458.35 L1012.34 1458.35 L1012.34 1461.55 L994.511 1461.55 L994.511 1458.35 Q996.674 1456.11 1000.4 1452.35 Q1004.14 1448.57 1005.1 1447.48 Q1006.92 1445.43 1007.64 1444.02 Q1008.37 1442.59 1008.37 1441.22 Q1008.37 1438.98 1006.79 1437.57 Q1005.23 1436.16 1002.71 1436.16 Q1000.92 1436.16 998.931 1436.78 Q996.956 1437.4 994.699 1438.66 L994.699 1434.82 Q996.994 1433.9 998.987 1433.43 Q1000.98 1432.96 1002.64 1432.96 Q1007 1432.96 1009.6 1435.14 Q1012.19 1437.32 1012.19 1440.97 Q1012.19 1442.7 1011.53 1444.26 Q1010.89 1445.8 1009.18 1447.91 Q1008.71 1448.46 1006.19 1451.07 Q1003.67 1453.67 999.081 1458.35 Z" fill="#000000" fill-rule="nonzero" fill-opacity="1" /><path clip-path="url(#clip560)" d="M1020.32 1456.77 L1024.28 1456.77 L1024.28 1461.55 L1020.32 1461.55 L1020.32 1456.77 Z" fill="#000000" fill-rule="nonzero" fill-opacity="1" /><path clip-path="url(#clip560)" d="M1040.68 1435.97 Q1037.75 1435.97 1036.26 1438.86 Q1034.8 1441.74 1034.8 1447.53 Q1034.8 1453.31 1036.26 1456.2 Q1037.75 1459.08 1040.68 1459.08 Q1043.64 1459.08 1045.1 1456.2 Q1046.59 1453.31 1046.59 1447.53 Q1046.59 1441.74 1045.1 1438.86 Q1043.64 1435.97 1040.68 1435.97 M1040.68 1432.96 Q1045.41 1432.96 1047.89 1436.7 Q1050.39 1440.43 1050.39 1447.53 Q1050.39 1454.62 1047.89 1458.37 Q1045.41 1462.09 1040.68 1462.09 Q1035.96 1462.09 1033.46 1458.37 Q1030.98 1454.62 1030.98 1447.53 Q1030.98 1440.43 1033.46 1436.7 Q1035.96 1432.96 1040.68 1432.96 Z" fill="#000000" fill-rule="nonzero" fill-opacity="1" /><path clip-path="url(#clip560)" d="M2021.49 1485.02 L2029.13 1485.02 L2029.13 1458.66 L2020.82 1460.32 L2020.82 1456.06 L2029.08 1454.4 L2033.76 1454.4 L2033.76 1485.02 L2041.4 1485.02 L2041.4 1488.96 L2021.49 1488.96 L2021.49 1485.02 Z" fill="#000000" fill-rule="nonzero" fill-opacity="1" /><path clip-path="url(#clip560)" d="M2060.84 1457.48 Q2057.23 1457.48 2055.4 1461.04 Q2053.6 1464.58 2053.6 1471.71 Q2053.6 1478.82 2055.4 1482.38 Q2057.23 1485.92 2060.84 1485.92 Q2064.48 1485.92 2066.28 1482.38 Q2068.11 1478.82 2068.11 1471.71 Q2068.11 1464.58 2066.28 1461.04 Q2064.48 1457.48 2060.84 1457.48 M2060.84 1453.77 Q2066.65 1453.77 2069.71 1458.38 Q2072.79 1462.96 2072.79 1471.71 Q2072.79 1480.44 2069.71 1485.04 Q2066.65 1489.63 2060.84 1489.63 Q2055.03 1489.63 2051.95 1485.04 Q2048.9 1480.44 2048.9 1471.71 Q2048.9 1462.96 2051.95 1458.38 Q2055.03 1453.77 2060.84 1453.77 Z" fill="#000000" fill-rule="nonzero" fill-opacity="1" /><path clip-path="url(#clip560)" d="M2077.36 1458.35 L2090.62 1458.35 L2090.62 1461.55 L2072.79 1461.55 L2072.79 1458.35 Q2074.95 1456.11 2078.67 1452.35 Q2082.41 1448.57 2083.37 1447.48 Q2085.2 1445.43 2085.91 1444.02 Q2086.65 1442.59 2086.65 1441.22 Q2086.65 1438.98 2085.07 1437.57 Q2083.51 1436.16 2080.99 1436.16 Q2079.2 1436.16 2077.21 1436.78 Q2075.23 1437.4 2072.97 1438.66 L2072.97 1434.82 Q2075.27 1433.9 2077.26 1433.43 Q2079.26 1432.96 2080.91 1432.96 Q2085.27 1432.96 2087.87 1435.14 Q2090.46 1437.32 2090.46 1440.97 Q2090.46 1442.7 2089.81 1444.26 Q2089.17 1445.8 2087.46 1447.91 Q2086.99 1448.46 2084.47 1451.07 Q2081.94 1453.67 2077.36 1458.35 Z" fill="#000000" fill-rule="nonzero" fill-opacity="1" /><path clip-path="url(#clip560)" d="M2098.59 1456.77 L2102.56 1456.77 L2102.56 1461.55 L2098.59 1461.55 L2098.59 1456.77 Z" fill="#000000" fill-rule="nonzero" fill-opacity="1" /><path clip-path="url(#clip560)" d="M2110.87 1433.47 L2125.79 1433.47 L2125.79 1436.66 L2114.35 1436.66 L2114.35 1443.55 Q2115.18 1443.27 2116.01 1443.13 Q2116.83 1442.98 2117.66 1442.98 Q2122.36 1442.98 2125.11 1445.56 Q2127.85 1448.14 2127.85 1452.54 Q2127.85 1457.07 2125.03 1459.59 Q2122.21 1462.09 2117.08 1462.09 Q2115.31 1462.09 2113.47 1461.79 Q2111.64 1461.49 2109.69 1460.89 L2109.69 1457.07 Q2111.38 1457.99 2113.18 1458.44 Q2114.99 1458.89 2117 1458.89 Q2120.26 1458.89 2122.16 1457.18 Q2124.06 1455.47 2124.06 1452.54 Q2124.06 1449.6 2122.16 1447.89 Q2120.26 1446.18 2117 1446.18 Q2115.48 1446.18 2113.96 1446.52 Q2112.45 1446.86 2110.87 1447.57 L2110.87 1433.47 Z" fill="#000000" fill-rule="nonzero" fill-opacity="1" /><path clip-path="url(#clip560)" d="M1262.96 1531.95 L1262.96 1568.9 L1270.73 1568.9 Q1280.56 1568.9 1285.11 1564.45 Q1289.7 1559.99 1289.7 1550.38 Q1289.7 1540.83 1285.11 1536.4 Q1280.56 1531.95 1270.73 1531.95 L1262.96 1531.95 M1256.53 1526.67 L1269.74 1526.67 Q1283.56 1526.67 1290.02 1532.43 Q1296.48 1538.16 1296.48 1550.38 Q1296.48 1562.66 1289.98 1568.42 Q1283.49 1574.19 1269.74 1574.19 L1256.53 1574.19 L1256.53 1526.67 Z" fill="#000000" fill-rule="nonzero" fill-opacity="1" /><path clip-path="url(#clip560)" d="M1326.01 1531.03 Q1319.01 1531.03 1314.87 1536.25 Q1310.77 1541.47 1310.77 1550.47 Q1310.77 1559.45 1314.87 1564.67 Q1319.01 1569.89 1326.01 1569.89 Q1333.02 1569.89 1337.09 1564.67 Q1341.2 1559.45 1341.2 1550.47 Q1341.2 1541.47 1337.09 1536.25 Q1333.02 1531.03 1326.01 1531.03 M1326.01 1525.81 Q1336.01 1525.81 1341.99 1532.52 Q1347.98 1539.21 1347.98 1550.47 Q1347.98 1561.71 1341.99 1568.42 Q1336.01 1575.11 1326.01 1575.11 Q1315.99 1575.11 1309.97 1568.42 Q1303.99 1561.74 1303.99 1550.47 Q1303.99 1539.21 1309.97 1532.52 Q1315.99 1525.81 1326.01 1525.81 Z" fill="#000000" fill-rule="nonzero" fill-opacity="1" /><path clip-path="url(#clip560)" d="M1358.03 1526.67 L1385.34 1526.67 L1385.34 1532.08 L1364.46 1532.08 L1364.46 1546.08 L1383.31 1546.08 L1383.31 1551.49 L1364.46 1551.49 L1364.46 1574.19 L1358.03 1574.19 L1358.03 1526.67 Z" fill="#000000" fill-rule="nonzero" fill-opacity="1" /><polyline clip-path="url(#clip562)" style="stroke:#000000; stroke-linecap:round; stroke-linejoin:round; stroke-width:2; stroke-opacity:0.1; fill:none" points="289.119,966.86 2352.76,966.86 "/>
<polyline clip-path="url(#clip562)" style="stroke:#000000; stroke-linecap:round; stroke-linejoin:round; stroke-width:2; stroke-opacity:0.1; fill:none" points="289.119,462.355 2352.76,462.355 "/>
<polyline clip-path="url(#clip560)" style="stroke:#000000; stroke-linecap:round; stroke-linejoin:round; stroke-width:4; stroke-opacity:1; fill:none" points="289.119,1410.9 289.119,123.472 "/>
<polyline clip-path="url(#clip560)" style="stroke:#000000; stroke-linecap:round; stroke-linejoin:round; stroke-width:4; stroke-opacity:1; fill:none" points="289.119,966.86 308.017,966.86 "/>
<polyline clip-path="url(#clip560)" style="stroke:#000000; stroke-linecap:round; stroke-linejoin:round; stroke-width:4; stroke-opacity:1; fill:none" points="289.119,462.355 308.017,462.355 "/>
<path clip-path="url(#clip560)" d="M114.931 986.652 L122.57 986.652 L122.57 960.286 L114.26 961.953 L114.26 957.694 L122.524 956.027 L127.2 956.027 L127.2 986.652 L134.839 986.652 L134.839 990.587 L114.931 990.587 L114.931 986.652 Z" fill="#000000" fill-rule="nonzero" fill-opacity="1" /><path clip-path="url(#clip560)" d="M154.283 959.106 Q150.672 959.106 148.843 962.671 Q147.038 966.212 147.038 973.342 Q147.038 980.448 148.843 984.013 Q150.672 987.555 154.283 987.555 Q157.917 987.555 159.723 984.013 Q161.552 980.448 161.552 973.342 Q161.552 966.212 159.723 962.671 Q157.917 959.106 154.283 959.106 M154.283 955.402 Q160.093 955.402 163.149 960.009 Q166.227 964.592 166.227 973.342 Q166.227 982.069 163.149 986.675 Q160.093 991.258 154.283 991.258 Q148.473 991.258 145.394 986.675 Q142.339 982.069 142.339 973.342 Q142.339 964.592 145.394 960.009 Q148.473 955.402 154.283 955.402 Z" fill="#000000" fill-rule="nonzero" fill-opacity="1" /><path clip-path="url(#clip560)" d="M166.227 949.504 L190.339 949.504 L190.339 952.701 L166.227 952.701 L166.227 949.504 Z" fill="#000000" fill-rule="nonzero" fill-opacity="1" /><path clip-path="url(#clip560)" d="M199.197 959.979 L205.404 959.979 L205.404 938.557 L198.652 939.912 L198.652 936.451 L205.366 935.097 L209.166 935.097 L209.166 959.979 L215.372 959.979 L215.372 963.177 L199.197 963.177 L199.197 959.979 Z" fill="#000000" fill-rule="nonzero" fill-opacity="1" /><path clip-path="url(#clip560)" d="M223.046 958.4 L227.014 958.4 L227.014 963.177 L223.046 963.177 L223.046 958.4 Z" fill="#000000" fill-rule="nonzero" fill-opacity="1" /><path clip-path="url(#clip560)" d="M243.415 937.598 Q240.481 937.598 238.995 940.495 Q237.528 943.372 237.528 949.165 Q237.528 954.939 238.995 957.835 Q240.481 960.713 243.415 960.713 Q246.367 960.713 247.834 957.835 Q249.32 954.939 249.32 949.165 Q249.32 943.372 247.834 940.495 Q246.367 937.598 243.415 937.598 M243.415 934.589 Q248.135 934.589 250.618 938.332 Q253.119 942.056 253.119 949.165 Q253.119 956.255 250.618 959.998 Q248.135 963.722 243.415 963.722 Q238.694 963.722 236.192 959.998 Q233.71 956.255 233.71 949.165 Q233.71 942.056 236.192 938.332 Q238.694 934.589 243.415 934.589 Z" fill="#000000" fill-rule="nonzero" fill-opacity="1" /><path clip-path="url(#clip560)" d="M115.74 482.147 L123.379 482.147 L123.379 455.781 L115.069 457.448 L115.069 453.189 L123.333 451.522 L128.009 451.522 L128.009 482.147 L135.647 482.147 L135.647 486.082 L115.74 486.082 L115.74 482.147 Z" fill="#000000" fill-rule="nonzero" fill-opacity="1" /><path clip-path="url(#clip560)" d="M155.092 454.601 Q151.481 454.601 149.652 458.166 Q147.846 461.707 147.846 468.837 Q147.846 475.943 149.652 479.508 Q151.481 483.05 155.092 483.05 Q158.726 483.05 160.532 479.508 Q162.36 475.943 162.36 468.837 Q162.36 461.707 160.532 458.166 Q158.726 454.601 155.092 454.601 M155.092 450.897 Q160.902 450.897 163.958 455.504 Q167.036 460.087 167.036 468.837 Q167.036 477.564 163.958 482.17 Q160.902 486.753 155.092 486.753 Q149.282 486.753 146.203 482.17 Q143.147 477.564 143.147 468.837 Q143.147 460.087 146.203 455.504 Q149.282 450.897 155.092 450.897 Z" fill="#000000" fill-rule="nonzero" fill-opacity="1" /><path clip-path="url(#clip560)" d="M167.036 444.999 L191.148 444.999 L191.148 448.196 L167.036 448.196 L167.036 444.999 Z" fill="#000000" fill-rule="nonzero" fill-opacity="1" /><path clip-path="url(#clip560)" d="M207.473 433.093 Q204.539 433.093 203.053 435.99 Q201.586 438.867 201.586 444.66 Q201.586 450.434 203.053 453.33 Q204.539 456.208 207.473 456.208 Q210.426 456.208 211.893 453.33 Q213.379 450.434 213.379 444.66 Q213.379 438.867 211.893 435.99 Q210.426 433.093 207.473 433.093 M207.473 430.084 Q212.194 430.084 214.676 433.827 Q217.178 437.551 217.178 444.66 Q217.178 451.751 214.676 455.493 Q212.194 459.217 207.473 459.217 Q202.752 459.217 200.251 455.493 Q197.768 451.751 197.768 444.66 Q197.768 437.551 200.251 433.827 Q202.752 430.084 207.473 430.084 Z" fill="#000000" fill-rule="nonzero" fill-opacity="1" /><path clip-path="url(#clip560)" d="M223.854 453.895 L227.823 453.895 L227.823 458.672 L223.854 458.672 L223.854 453.895 Z" fill="#000000" fill-rule="nonzero" fill-opacity="1" /><path clip-path="url(#clip560)" d="M236.136 430.592 L251.051 430.592 L251.051 433.789 L239.615 433.789 L239.615 440.673 Q240.443 440.391 241.27 440.259 Q242.098 440.109 242.926 440.109 Q247.627 440.109 250.373 442.685 Q253.119 445.262 253.119 449.663 Q253.119 454.196 250.298 456.716 Q247.477 459.217 242.343 459.217 Q240.575 459.217 238.731 458.916 Q236.907 458.615 234.951 458.014 L234.951 454.196 Q236.644 455.117 238.449 455.569 Q240.255 456.02 242.267 456.02 Q245.521 456.02 247.421 454.308 Q249.32 452.597 249.32 449.663 Q249.32 446.729 247.421 445.017 Q245.521 443.306 242.267 443.306 Q240.744 443.306 239.22 443.644 Q237.716 443.983 236.136 444.698 L236.136 430.592 Z" fill="#000000" fill-rule="nonzero" fill-opacity="1" /><path clip-path="url(#clip560)" d="M22.818 975.757 L46.4666 984.478 L46.4666 967.004 L22.818 975.757 M16.4842 979.385 L16.4842 972.096 L64.0042 953.986 L64.0042 960.67 L51.8138 964.999 L51.8138 986.419 L64.0042 990.748 L64.0042 997.527 L16.4842 979.385 Z" fill="#000000" fill-rule="nonzero" fill-opacity="1" /><path clip-path="url(#clip560)" d="M46.212 921.712 Q39.7508 921.712 36.0905 924.386 Q32.3984 927.027 32.3984 931.674 Q32.3984 936.321 36.0905 938.995 Q39.7508 941.637 46.212 941.637 Q52.6732 941.637 56.3653 938.995 Q60.0256 936.321 60.0256 931.674 Q60.0256 927.027 56.3653 924.386 Q52.6732 921.712 46.212 921.712 M33.7671 941.637 Q30.5842 939.791 29.0564 936.99 Q27.4968 934.157 27.4968 930.242 Q27.4968 923.749 32.6531 919.707 Q37.8093 915.633 46.212 915.633 Q54.6147 915.633 59.771 919.707 Q64.9272 923.749 64.9272 930.242 Q64.9272 934.157 63.3994 936.99 Q61.8398 939.791 58.657 941.637 L64.0042 941.637 L64.0042 947.525 L14.479 947.525 L14.479 941.637 L33.7671 941.637 Z" fill="#000000" fill-rule="nonzero" fill-opacity="1" /><path clip-path="url(#clip560)" d="M29.4065 883.199 L34.9447 883.199 Q33.6716 885.682 33.035 888.356 Q32.3984 891.029 32.3984 893.894 Q32.3984 898.254 33.7352 900.45 Q35.072 902.615 37.7456 902.615 Q39.7826 902.615 40.9603 901.055 Q42.1061 899.496 43.1565 894.785 L43.6021 892.78 Q44.9389 886.541 47.3897 883.931 Q49.8086 881.29 54.1691 881.29 Q59.1344 881.29 62.0308 885.236 Q64.9272 889.151 64.9272 896.026 Q64.9272 898.891 64.3543 902.01 Q63.8132 905.097 62.6992 908.535 L56.6518 908.535 Q58.3387 905.288 59.198 902.137 Q60.0256 898.986 60.0256 895.899 Q60.0256 891.761 58.6251 889.533 Q57.1929 887.305 54.6147 887.305 Q52.2276 887.305 50.9545 888.929 Q49.6813 890.52 48.5037 895.963 L48.0262 898 Q46.8804 903.442 44.5251 905.861 Q42.138 908.28 38.0002 908.28 Q32.9713 908.28 30.2341 904.715 Q27.4968 901.151 27.4968 894.594 Q27.4968 891.347 27.9743 888.483 Q28.4517 885.618 29.4065 883.199 Z" fill="#000000" fill-rule="nonzero" fill-opacity="1" /><path clip-path="url(#clip560)" d="M35.1993 823.489 Q31.2526 821.293 29.3747 818.237 Q27.4968 815.182 27.4968 811.044 Q27.4968 805.474 31.4117 802.45 Q35.2948 799.427 42.4881 799.427 L64.0042 799.427 L64.0042 805.315 L42.679 805.315 Q37.5546 805.315 35.072 807.129 Q32.5894 808.943 32.5894 812.667 Q32.5894 817.219 35.6131 819.861 Q38.6368 822.502 43.8567 822.502 L64.0042 822.502 L64.0042 828.391 L42.679 828.391 Q37.5228 828.391 35.072 830.205 Q32.5894 832.019 32.5894 835.807 Q32.5894 840.295 35.6449 842.936 Q38.6686 845.578 43.8567 845.578 L64.0042 845.578 L64.0042 851.466 L28.3562 851.466 L28.3562 845.578 L33.8944 845.578 Q30.616 843.573 29.0564 840.772 Q27.4968 837.971 27.4968 834.12 Q27.4968 830.237 29.4702 827.531 Q31.4436 824.794 35.1993 823.489 Z" fill="#000000" fill-rule="nonzero" fill-opacity="1" /><path clip-path="url(#clip560)" d="M46.0847 771.545 Q46.0847 778.643 47.7079 781.38 Q49.3312 784.117 53.2461 784.117 Q56.3653 784.117 58.2114 782.08 Q60.0256 780.011 60.0256 776.478 Q60.0256 771.609 56.5881 768.68 Q53.1188 765.72 47.3897 765.72 L46.0847 765.72 L46.0847 771.545 M43.6657 759.864 L64.0042 759.864 L64.0042 765.72 L58.5933 765.72 Q61.8398 767.725 63.3994 770.717 Q64.9272 773.709 64.9272 778.038 Q64.9272 783.512 61.8716 786.759 Q58.7843 789.974 53.6281 789.974 Q47.6125 789.974 44.5569 785.963 Q41.5014 781.921 41.5014 773.932 L41.5014 765.72 L40.9285 765.72 Q36.8862 765.72 34.6901 768.394 Q32.4621 771.036 32.4621 775.842 Q32.4621 778.897 33.1941 781.794 Q33.9262 784.69 35.3903 787.364 L29.9795 787.364 Q28.7381 784.149 28.1334 781.125 Q27.4968 778.102 27.4968 775.237 Q27.4968 767.503 31.5072 763.683 Q35.5176 759.864 43.6657 759.864 Z" fill="#000000" fill-rule="nonzero" fill-opacity="1" /><path clip-path="url(#clip560)" d="M28.3562 718.168 L45.7028 731.059 L64.0042 717.5 L64.0042 724.407 L49.9996 734.783 L64.0042 745.159 L64.0042 752.066 L45.3526 738.22 L28.3562 750.888 L28.3562 743.981 L41.0558 734.528 L28.3562 725.075 L28.3562 718.168 Z" fill="#000000" fill-rule="nonzero" fill-opacity="1" /><path clip-path="url(#clip560)" d="M44.7161 658.013 L47.5806 658.013 L47.5806 684.939 Q53.6281 684.558 56.8109 681.311 Q59.9619 678.033 59.9619 672.208 Q59.9619 668.834 59.1344 665.683 Q58.3069 662.5 56.6518 659.381 L62.1899 659.381 Q63.5267 662.532 64.227 665.842 Q64.9272 669.153 64.9272 672.558 Q64.9272 681.088 59.9619 686.085 Q54.9967 691.051 46.5303 691.051 Q37.7774 691.051 32.6531 686.34 Q27.4968 681.597 27.4968 673.577 Q27.4968 666.383 32.1438 662.214 Q36.7589 658.013 44.7161 658.013 M42.9973 663.869 Q38.1912 663.933 35.3266 666.574 Q32.4621 669.184 32.4621 673.513 Q32.4621 678.415 35.2312 681.375 Q38.0002 684.303 43.0292 684.748 L42.9973 663.869 Z" fill="#000000" fill-rule="nonzero" fill-opacity="1" /><path clip-path="url(#clip560)" d="M33.8307 627.744 Q33.2578 628.73 33.0032 629.908 Q32.7167 631.054 32.7167 632.454 Q32.7167 637.419 35.9632 640.093 Q39.1779 642.735 45.2253 642.735 L64.0042 642.735 L64.0042 648.623 L28.3562 648.623 L28.3562 642.735 L33.8944 642.735 Q30.6479 640.889 29.0883 637.929 Q27.4968 634.969 27.4968 630.735 Q27.4968 630.131 27.5923 629.399 Q27.656 628.667 27.8151 627.775 L33.8307 627.744 Z" fill="#000000" fill-rule="nonzero" fill-opacity="1" /><path clip-path="url(#clip560)" d="M33.8307 602.09 Q33.2578 603.076 33.0032 604.254 Q32.7167 605.4 32.7167 606.8 Q32.7167 611.766 35.9632 614.439 Q39.1779 617.081 45.2253 617.081 L64.0042 617.081 L64.0042 622.969 L28.3562 622.969 L28.3562 617.081 L33.8944 617.081 Q30.6479 615.235 29.0883 612.275 Q27.4968 609.315 27.4968 605.082 Q27.4968 604.477 27.5923 603.745 Q27.656 603.013 27.8151 602.122 L33.8307 602.09 Z" fill="#000000" fill-rule="nonzero" fill-opacity="1" /><path clip-path="url(#clip560)" d="M32.4621 583.566 Q32.4621 588.276 36.1542 591.013 Q39.8145 593.751 46.212 593.751 Q52.6095 593.751 56.3017 591.045 Q59.9619 588.308 59.9619 583.566 Q59.9619 578.887 56.2698 576.15 Q52.5777 573.412 46.212 573.412 Q39.8781 573.412 36.186 576.15 Q32.4621 578.887 32.4621 583.566 M27.4968 583.566 Q27.4968 575.927 32.4621 571.566 Q37.4273 567.206 46.212 567.206 Q54.9649 567.206 59.9619 571.566 Q64.9272 575.927 64.9272 583.566 Q64.9272 591.236 59.9619 595.597 Q54.9649 599.925 46.212 599.925 Q37.4273 599.925 32.4621 595.597 Q27.4968 591.236 27.4968 583.566 Z" fill="#000000" fill-rule="nonzero" fill-opacity="1" /><path clip-path="url(#clip560)" d="M33.8307 536.841 Q33.2578 537.828 33.0032 539.006 Q32.7167 540.151 32.7167 541.552 Q32.7167 546.517 35.9632 549.191 Q39.1779 551.833 45.2253 551.833 L64.0042 551.833 L64.0042 557.721 L28.3562 557.721 L28.3562 551.833 L33.8944 551.833 Q30.6479 549.986 29.0883 547.026 Q27.4968 544.066 27.4968 539.833 Q27.4968 539.228 27.5923 538.496 Q27.656 537.764 27.8151 536.873 L33.8307 536.841 Z" fill="#000000" fill-rule="nonzero" fill-opacity="1" /><path clip-path="url(#clip560)" d="M1100.75 16.7545 L1100.75 25.383 Q1096.62 21.5346 1091.92 19.6307 Q1087.26 17.7268 1082 17.7268 Q1071.62 17.7268 1066.12 24.0867 Q1060.61 30.4061 1060.61 42.3968 Q1060.61 54.3469 1066.12 60.7069 Q1071.62 67.0263 1082 67.0263 Q1087.26 67.0263 1091.92 65.1223 Q1096.62 63.2184 1100.75 59.3701 L1100.75 67.9175 Q1096.46 70.8341 1091.64 72.2924 Q1086.86 73.7508 1081.51 73.7508 Q1067.78 73.7508 1059.88 65.3654 Q1051.98 56.9395 1051.98 42.3968 Q1051.98 27.8135 1059.88 19.4281 Q1067.78 11.0023 1081.51 11.0023 Q1086.94 11.0023 1091.72 12.4606 Q1096.54 13.8784 1100.75 16.7545 Z" fill="#000000" fill-rule="nonzero" fill-opacity="1" /><path clip-path="url(#clip560)" d="M1130.65 32.4315 Q1124.65 32.4315 1121.17 37.1306 Q1117.68 41.7891 1117.68 49.9314 Q1117.68 58.0738 1121.13 62.7728 Q1124.61 67.4314 1130.65 67.4314 Q1136.6 67.4314 1140.09 62.7323 Q1143.57 58.0333 1143.57 49.9314 Q1143.57 41.8701 1140.09 37.1711 Q1136.6 32.4315 1130.65 32.4315 M1130.65 26.1121 Q1140.37 26.1121 1145.92 32.4315 Q1151.47 38.7509 1151.47 49.9314 Q1151.47 61.0714 1145.92 67.4314 Q1140.37 73.7508 1130.65 73.7508 Q1120.88 73.7508 1115.33 67.4314 Q1109.82 61.0714 1109.82 49.9314 Q1109.82 38.7509 1115.33 32.4315 Q1120.88 26.1121 1130.65 26.1121 Z" fill="#000000" fill-rule="nonzero" fill-opacity="1" /><path clip-path="url(#clip560)" d="M1201.54 45.1919 L1201.54 72.576 L1194.08 72.576 L1194.08 45.4349 Q1194.08 38.994 1191.57 35.7938 Q1189.06 32.5936 1184.04 32.5936 Q1178 32.5936 1174.52 36.4419 Q1171.03 40.2903 1171.03 46.9338 L1171.03 72.576 L1163.54 72.576 L1163.54 27.2059 L1171.03 27.2059 L1171.03 34.2544 Q1173.71 30.163 1177.31 28.1376 Q1180.96 26.1121 1185.7 26.1121 Q1193.52 26.1121 1197.53 30.9732 Q1201.54 35.7938 1201.54 45.1919 Z" fill="#000000" fill-rule="nonzero" fill-opacity="1" /><path clip-path="url(#clip560)" d="M1211.06 27.2059 L1218.96 27.2059 L1233.13 65.2844 L1247.31 27.2059 L1255.21 27.2059 L1238.2 72.576 L1228.07 72.576 L1211.06 27.2059 Z" fill="#000000" fill-rule="nonzero" fill-opacity="1" /><path clip-path="url(#clip560)" d="M1304.31 48.0275 L1304.31 51.6733 L1270.04 51.6733 Q1270.52 59.3701 1274.66 63.421 Q1278.83 67.4314 1286.24 67.4314 Q1290.54 67.4314 1294.55 66.3781 Q1298.6 65.3249 1302.57 63.2184 L1302.57 70.267 Q1298.56 71.9684 1294.34 72.8596 Q1290.13 73.7508 1285.8 73.7508 Q1274.94 73.7508 1268.58 67.4314 Q1262.26 61.1119 1262.26 50.3365 Q1262.26 39.1965 1268.26 32.6746 Q1274.29 26.1121 1284.5 26.1121 Q1293.65 26.1121 1298.96 32.0264 Q1304.31 37.9003 1304.31 48.0275 M1296.86 45.84 Q1296.77 39.7232 1293.41 36.0774 Q1290.09 32.4315 1284.58 32.4315 Q1278.34 32.4315 1274.58 35.9558 Q1270.85 39.4801 1270.28 45.8805 L1296.86 45.84 Z" fill="#000000" fill-rule="nonzero" fill-opacity="1" /><path clip-path="url(#clip560)" d="M1342.83 34.1734 Q1341.58 33.4443 1340.08 33.1202 Q1338.62 32.7556 1336.84 32.7556 Q1330.52 32.7556 1327.12 36.8875 Q1323.75 40.9789 1323.75 48.6757 L1323.75 72.576 L1316.26 72.576 L1316.26 27.2059 L1323.75 27.2059 L1323.75 34.2544 Q1326.1 30.1225 1329.87 28.1376 Q1333.64 26.1121 1339.02 26.1121 Q1339.79 26.1121 1340.73 26.2337 Q1341.66 26.3147 1342.79 26.5172 L1342.83 34.1734 Z" fill="#000000" fill-rule="nonzero" fill-opacity="1" /><path clip-path="url(#clip560)" d="M1379.05 49.3643 Q1379.05 41.2625 1375.69 36.8065 Q1372.36 32.3505 1366.33 32.3505 Q1360.33 32.3505 1356.97 36.8065 Q1353.65 41.2625 1353.65 49.3643 Q1353.65 57.4256 1356.97 61.8816 Q1360.33 66.3376 1366.33 66.3376 Q1372.36 66.3376 1375.69 61.8816 Q1379.05 57.4256 1379.05 49.3643 M1386.5 66.9452 Q1386.5 78.5308 1381.36 84.1616 Q1376.21 89.8329 1365.6 89.8329 Q1361.67 89.8329 1358.19 89.2252 Q1354.7 88.6581 1351.42 87.4428 L1351.42 80.1917 Q1354.7 81.9741 1357.9 82.8248 Q1361.1 83.6755 1364.42 83.6755 Q1371.76 83.6755 1375.4 79.8271 Q1379.05 76.0193 1379.05 68.282 L1379.05 64.5957 Q1376.74 68.6061 1373.13 70.5911 Q1369.53 72.576 1364.51 72.576 Q1356.16 72.576 1351.06 66.2161 Q1345.95 59.8562 1345.95 49.3643 Q1345.95 38.832 1351.06 32.472 Q1356.16 26.1121 1364.51 26.1121 Q1369.53 26.1121 1373.13 28.0971 Q1376.74 30.082 1379.05 34.0924 L1379.05 27.2059 L1386.5 27.2059 L1386.5 66.9452 Z" fill="#000000" fill-rule="nonzero" fill-opacity="1" /><path clip-path="url(#clip560)" d="M1440.66 48.0275 L1440.66 51.6733 L1406.39 51.6733 Q1406.88 59.3701 1411.01 63.421 Q1415.18 67.4314 1422.6 67.4314 Q1426.89 67.4314 1430.9 66.3781 Q1434.95 65.3249 1438.92 63.2184 L1438.92 70.267 Q1434.91 71.9684 1430.7 72.8596 Q1426.48 73.7508 1422.15 73.7508 Q1411.29 73.7508 1404.93 67.4314 Q1398.61 61.1119 1398.61 50.3365 Q1398.61 39.1965 1404.61 32.6746 Q1410.64 26.1121 1420.85 26.1121 Q1430.01 26.1121 1435.31 32.0264 Q1440.66 37.9003 1440.66 48.0275 M1433.21 45.84 Q1433.13 39.7232 1429.77 36.0774 Q1426.44 32.4315 1420.93 32.4315 Q1414.7 32.4315 1410.93 35.9558 Q1407.2 39.4801 1406.63 45.8805 L1433.21 45.84 Z" fill="#000000" fill-rule="nonzero" fill-opacity="1" /><path clip-path="url(#clip560)" d="M1490.61 45.1919 L1490.61 72.576 L1483.16 72.576 L1483.16 45.4349 Q1483.16 38.994 1480.64 35.7938 Q1478.13 32.5936 1473.11 32.5936 Q1467.07 32.5936 1463.59 36.4419 Q1460.11 40.2903 1460.11 46.9338 L1460.11 72.576 L1452.61 72.576 L1452.61 27.2059 L1460.11 27.2059 L1460.11 34.2544 Q1462.78 30.163 1466.39 28.1376 Q1470.03 26.1121 1474.77 26.1121 Q1482.59 26.1121 1486.6 30.9732 Q1490.61 35.7938 1490.61 45.1919 Z" fill="#000000" fill-rule="nonzero" fill-opacity="1" /><path clip-path="url(#clip560)" d="M1538.13 28.9478 L1538.13 35.9153 Q1534.97 34.1734 1531.77 33.3227 Q1528.61 32.4315 1525.37 32.4315 Q1518.12 32.4315 1514.11 37.0496 Q1510.09 41.6271 1510.09 49.9314 Q1510.09 58.2358 1514.11 62.8538 Q1518.12 67.4314 1525.37 67.4314 Q1528.61 67.4314 1531.77 66.5807 Q1534.97 65.6895 1538.13 63.9476 L1538.13 70.8341 Q1535.01 72.2924 1531.65 73.0216 Q1528.32 73.7508 1524.56 73.7508 Q1514.31 73.7508 1508.27 67.3098 Q1502.24 60.8689 1502.24 49.9314 Q1502.24 38.832 1508.31 32.472 Q1514.43 26.1121 1525.04 26.1121 Q1528.49 26.1121 1531.77 26.8413 Q1535.05 27.5299 1538.13 28.9478 Z" fill="#000000" fill-rule="nonzero" fill-opacity="1" /><path clip-path="url(#clip560)" d="M1589.9 48.0275 L1589.9 51.6733 L1555.63 51.6733 Q1556.11 59.3701 1560.24 63.421 Q1564.42 67.4314 1571.83 67.4314 Q1576.12 67.4314 1580.13 66.3781 Q1584.19 65.3249 1588.16 63.2184 L1588.16 70.267 Q1584.15 71.9684 1579.93 72.8596 Q1575.72 73.7508 1571.38 73.7508 Q1560.53 73.7508 1554.17 67.4314 Q1547.85 61.1119 1547.85 50.3365 Q1547.85 39.1965 1553.84 32.6746 Q1559.88 26.1121 1570.09 26.1121 Q1579.24 26.1121 1584.55 32.0264 Q1589.9 37.9003 1589.9 48.0275 M1582.44 45.84 Q1582.36 39.7232 1579 36.0774 Q1575.68 32.4315 1570.17 32.4315 Q1563.93 32.4315 1560.16 35.9558 Q1556.44 39.4801 1555.87 45.8805 L1582.44 45.84 Z" fill="#000000" fill-rule="nonzero" fill-opacity="1" /><polyline clip-path="url(#clip562)" style="stroke:#009af9; stroke-linecap:round; stroke-linejoin:round; stroke-width:4; stroke-opacity:1; fill:none" stroke-dasharray="2, 4" points="347.524,159.909 996.466,1353.09 1645.41,1374.46 2294.35,1374.33 "/>
<circle clip-path="url(#clip562)" cx="347.524" cy="159.909" r="14.4" fill="#009af9" fill-rule="evenodd" fill-opacity="1" stroke="#000000" stroke-opacity="1" stroke-width="3.2"/>
<circle clip-path="url(#clip562)" cx="996.466" cy="1353.09" r="14.4" fill="#009af9" fill-rule="evenodd" fill-opacity="1" stroke="#000000" stroke-opacity="1" stroke-width="3.2"/>
<circle clip-path="url(#clip562)" cx="1645.41" cy="1374.46" r="14.4" fill="#009af9" fill-rule="evenodd" fill-opacity="1" stroke="#000000" stroke-opacity="1" stroke-width="3.2"/>
<circle clip-path="url(#clip562)" cx="2294.35" cy="1374.33" r="14.4" fill="#009af9" fill-rule="evenodd" fill-opacity="1" stroke="#000000" stroke-opacity="1" stroke-width="3.2"/>
<polyline clip-path="url(#clip562)" style="stroke:#e26f46; stroke-linecap:round; stroke-linejoin:round; stroke-width:4; stroke-opacity:1; fill:none" stroke-dasharray="2, 4" points="347.524,159.909 996.466,1353.09 1645.41,1374.46 2294.35,1374.33 "/>
<circle clip-path="url(#clip562)" cx="347.524" cy="159.909" r="14.4" fill="#e26f46" fill-rule="evenodd" fill-opacity="1" stroke="#000000" stroke-opacity="1" stroke-width="3.2"/>
<circle clip-path="url(#clip562)" cx="996.466" cy="1353.09" r="14.4" fill="#e26f46" fill-rule="evenodd" fill-opacity="1" stroke="#000000" stroke-opacity="1" stroke-width="3.2"/>
<circle clip-path="url(#clip562)" cx="1645.41" cy="1374.46" r="14.4" fill="#e26f46" fill-rule="evenodd" fill-opacity="1" stroke="#000000" stroke-opacity="1" stroke-width="3.2"/>
<circle clip-path="url(#clip562)" cx="2294.35" cy="1374.33" r="14.4" fill="#e26f46" fill-rule="evenodd" fill-opacity="1" stroke="#000000" stroke-opacity="1" stroke-width="3.2"/>
<polyline clip-path="url(#clip562)" style="stroke:#3da44d; stroke-linecap:round; stroke-linejoin:round; stroke-width:4; stroke-opacity:1; fill:none" stroke-dasharray="2, 4" points="347.524,159.909 996.466,1353.09 1645.41,1374.46 2294.35,1374.33 "/>
<circle clip-path="url(#clip562)" cx="347.524" cy="159.909" r="14.4" fill="#3da44d" fill-rule="evenodd" fill-opacity="1" stroke="#000000" stroke-opacity="1" stroke-width="3.2"/>
<circle clip-path="url(#clip562)" cx="996.466" cy="1353.09" r="14.4" fill="#3da44d" fill-rule="evenodd" fill-opacity="1" stroke="#000000" stroke-opacity="1" stroke-width="3.2"/>
<circle clip-path="url(#clip562)" cx="1645.41" cy="1374.46" r="14.4" fill="#3da44d" fill-rule="evenodd" fill-opacity="1" stroke="#000000" stroke-opacity="1" stroke-width="3.2"/>
<circle clip-path="url(#clip562)" cx="2294.35" cy="1374.33" r="14.4" fill="#3da44d" fill-rule="evenodd" fill-opacity="1" stroke="#000000" stroke-opacity="1" stroke-width="3.2"/>
<polyline clip-path="url(#clip562)" style="stroke:#c271d2; stroke-linecap:round; stroke-linejoin:round; stroke-width:4; stroke-opacity:1; fill:none" stroke-dasharray="2, 4" points="347.524,159.909 996.466,1353.09 1645.41,1374.46 2294.35,1374.33 "/>
<circle clip-path="url(#clip562)" cx="347.524" cy="159.909" r="14.4" fill="#c271d2" fill-rule="evenodd" fill-opacity="1" stroke="#000000" stroke-opacity="1" stroke-width="3.2"/>
<circle clip-path="url(#clip562)" cx="996.466" cy="1353.09" r="14.4" fill="#c271d2" fill-rule="evenodd" fill-opacity="1" stroke="#000000" stroke-opacity="1" stroke-width="3.2"/>
<circle clip-path="url(#clip562)" cx="1645.41" cy="1374.46" r="14.4" fill="#c271d2" fill-rule="evenodd" fill-opacity="1" stroke="#000000" stroke-opacity="1" stroke-width="3.2"/>
<circle clip-path="url(#clip562)" cx="2294.35" cy="1374.33" r="14.4" fill="#c271d2" fill-rule="evenodd" fill-opacity="1" stroke="#000000" stroke-opacity="1" stroke-width="3.2"/>
<polyline clip-path="url(#clip562)" style="stroke:#ac8d18; stroke-linecap:round; stroke-linejoin:round; stroke-width:4; stroke-opacity:1; fill:none" stroke-dasharray="2, 4" points="347.524,159.909 996.466,1353.09 1645.41,1374.46 2294.35,1374.33 "/>
<circle clip-path="url(#clip562)" cx="347.524" cy="159.909" r="14.4" fill="#ac8d18" fill-rule="evenodd" fill-opacity="1" stroke="#000000" stroke-opacity="1" stroke-width="3.2"/>
<circle clip-path="url(#clip562)" cx="996.466" cy="1353.09" r="14.4" fill="#ac8d18" fill-rule="evenodd" fill-opacity="1" stroke="#000000" stroke-opacity="1" stroke-width="3.2"/>
<circle clip-path="url(#clip562)" cx="1645.41" cy="1374.46" r="14.4" fill="#ac8d18" fill-rule="evenodd" fill-opacity="1" stroke="#000000" stroke-opacity="1" stroke-width="3.2"/>
<circle clip-path="url(#clip562)" cx="2294.35" cy="1374.33" r="14.4" fill="#ac8d18" fill-rule="evenodd" fill-opacity="1" stroke="#000000" stroke-opacity="1" stroke-width="3.2"/>
<polyline clip-path="url(#clip562)" style="stroke:#00a9ad; stroke-linecap:round; stroke-linejoin:round; stroke-width:4; stroke-opacity:1; fill:none" stroke-dasharray="2, 4" points="347.524,159.909 996.466,1353.09 1645.41,1374.46 2294.35,1374.33 "/>
<circle clip-path="url(#clip562)" cx="347.524" cy="159.909" r="14.4" fill="#00a9ad" fill-rule="evenodd" fill-opacity="1" stroke="#000000" stroke-opacity="1" stroke-width="3.2"/>
<circle clip-path="url(#clip562)" cx="996.466" cy="1353.09" r="14.4" fill="#00a9ad" fill-rule="evenodd" fill-opacity="1" stroke="#000000" stroke-opacity="1" stroke-width="3.2"/>
<circle clip-path="url(#clip562)" cx="1645.41" cy="1374.46" r="14.4" fill="#00a9ad" fill-rule="evenodd" fill-opacity="1" stroke="#000000" stroke-opacity="1" stroke-width="3.2"/>
<circle clip-path="url(#clip562)" cx="2294.35" cy="1374.33" r="14.4" fill="#00a9ad" fill-rule="evenodd" fill-opacity="1" stroke="#000000" stroke-opacity="1" stroke-width="3.2"/>
<polyline clip-path="url(#clip562)" style="stroke:#ed5d92; stroke-linecap:round; stroke-linejoin:round; stroke-width:4; stroke-opacity:1; fill:none" stroke-dasharray="2, 4" points="347.524,159.909 996.466,1353.09 1645.41,1374.46 2294.35,1374.33 "/>
<circle clip-path="url(#clip562)" cx="347.524" cy="159.909" r="14.4" fill="#ed5d92" fill-rule="evenodd" fill-opacity="1" stroke="#000000" stroke-opacity="1" stroke-width="3.2"/>
<circle clip-path="url(#clip562)" cx="996.466" cy="1353.09" r="14.4" fill="#ed5d92" fill-rule="evenodd" fill-opacity="1" stroke="#000000" stroke-opacity="1" stroke-width="3.2"/>
<circle clip-path="url(#clip562)" cx="1645.41" cy="1374.46" r="14.4" fill="#ed5d92" fill-rule="evenodd" fill-opacity="1" stroke="#000000" stroke-opacity="1" stroke-width="3.2"/>
<circle clip-path="url(#clip562)" cx="2294.35" cy="1374.33" r="14.4" fill="#ed5d92" fill-rule="evenodd" fill-opacity="1" stroke="#000000" stroke-opacity="1" stroke-width="3.2"/>
<polyline clip-path="url(#clip562)" style="stroke:#c68125; stroke-linecap:round; stroke-linejoin:round; stroke-width:4; stroke-opacity:1; fill:none" stroke-dasharray="2, 4" points="347.524,159.909 996.466,1353.09 1645.41,1374.46 2294.35,1374.33 "/>
<circle clip-path="url(#clip562)" cx="347.524" cy="159.909" r="14.4" fill="#c68125" fill-rule="evenodd" fill-opacity="1" stroke="#000000" stroke-opacity="1" stroke-width="3.2"/>
<circle clip-path="url(#clip562)" cx="996.466" cy="1353.09" r="14.4" fill="#c68125" fill-rule="evenodd" fill-opacity="1" stroke="#000000" stroke-opacity="1" stroke-width="3.2"/>
<circle clip-path="url(#clip562)" cx="1645.41" cy="1374.46" r="14.4" fill="#c68125" fill-rule="evenodd" fill-opacity="1" stroke="#000000" stroke-opacity="1" stroke-width="3.2"/>
<circle clip-path="url(#clip562)" cx="2294.35" cy="1374.33" r="14.4" fill="#c68125" fill-rule="evenodd" fill-opacity="1" stroke="#000000" stroke-opacity="1" stroke-width="3.2"/>
<polyline clip-path="url(#clip562)" style="stroke:#00a98d; stroke-linecap:round; stroke-linejoin:round; stroke-width:4; stroke-opacity:1; fill:none" stroke-dasharray="2, 4" points="347.524,159.909 996.466,1353.09 1645.41,1374.46 2294.35,1374.33 "/>
<circle clip-path="url(#clip562)" cx="347.524" cy="159.909" r="14.4" fill="#00a98d" fill-rule="evenodd" fill-opacity="1" stroke="#000000" stroke-opacity="1" stroke-width="3.2"/>
<circle clip-path="url(#clip562)" cx="996.466" cy="1353.09" r="14.4" fill="#00a98d" fill-rule="evenodd" fill-opacity="1" stroke="#000000" stroke-opacity="1" stroke-width="3.2"/>
<circle clip-path="url(#clip562)" cx="1645.41" cy="1374.46" r="14.4" fill="#00a98d" fill-rule="evenodd" fill-opacity="1" stroke="#000000" stroke-opacity="1" stroke-width="3.2"/>
<circle clip-path="url(#clip562)" cx="2294.35" cy="1374.33" r="14.4" fill="#00a98d" fill-rule="evenodd" fill-opacity="1" stroke="#000000" stroke-opacity="1" stroke-width="3.2"/>
<polyline clip-path="url(#clip562)" style="stroke:#8e971d; stroke-linecap:round; stroke-linejoin:round; stroke-width:4; stroke-opacity:1; fill:none" stroke-dasharray="2, 4" points="347.524,159.909 996.466,1353.09 1645.41,1374.46 2294.35,1374.33 "/>
<circle clip-path="url(#clip562)" cx="347.524" cy="159.909" r="14.4" fill="#8e971d" fill-rule="evenodd" fill-opacity="1" stroke="#000000" stroke-opacity="1" stroke-width="3.2"/>
<circle clip-path="url(#clip562)" cx="996.466" cy="1353.09" r="14.4" fill="#8e971d" fill-rule="evenodd" fill-opacity="1" stroke="#000000" stroke-opacity="1" stroke-width="3.2"/>
<circle clip-path="url(#clip562)" cx="1645.41" cy="1374.46" r="14.4" fill="#8e971d" fill-rule="evenodd" fill-opacity="1" stroke="#000000" stroke-opacity="1" stroke-width="3.2"/>
<circle clip-path="url(#clip562)" cx="2294.35" cy="1374.33" r="14.4" fill="#8e971d" fill-rule="evenodd" fill-opacity="1" stroke="#000000" stroke-opacity="1" stroke-width="3.2"/>
<polyline clip-path="url(#clip562)" style="stroke:#00a8cb; stroke-linecap:round; stroke-linejoin:round; stroke-width:4; stroke-opacity:1; fill:none" stroke-dasharray="2, 4" points="347.524,159.909 996.466,1353.09 1645.41,1374.46 2294.35,1374.33 "/>
<circle clip-path="url(#clip562)" cx="347.524" cy="159.909" r="14.4" fill="#00a8cb" fill-rule="evenodd" fill-opacity="1" stroke="#000000" stroke-opacity="1" stroke-width="3.2"/>
<circle clip-path="url(#clip562)" cx="996.466" cy="1353.09" r="14.4" fill="#00a8cb" fill-rule="evenodd" fill-opacity="1" stroke="#000000" stroke-opacity="1" stroke-width="3.2"/>
<circle clip-path="url(#clip562)" cx="1645.41" cy="1374.46" r="14.4" fill="#00a8cb" fill-rule="evenodd" fill-opacity="1" stroke="#000000" stroke-opacity="1" stroke-width="3.2"/>
<circle clip-path="url(#clip562)" cx="2294.35" cy="1374.33" r="14.4" fill="#00a8cb" fill-rule="evenodd" fill-opacity="1" stroke="#000000" stroke-opacity="1" stroke-width="3.2"/>
<polyline clip-path="url(#clip562)" style="stroke:#9b7fe8; stroke-linecap:round; stroke-linejoin:round; stroke-width:4; stroke-opacity:1; fill:none" stroke-dasharray="2, 4" points="347.524,159.909 996.466,1353.09 1645.41,1374.46 2294.35,1374.33 "/>
<circle clip-path="url(#clip562)" cx="347.524" cy="159.909" r="14.4" fill="#9b7fe8" fill-rule="evenodd" fill-opacity="1" stroke="#000000" stroke-opacity="1" stroke-width="3.2"/>
<circle clip-path="url(#clip562)" cx="996.466" cy="1353.09" r="14.4" fill="#9b7fe8" fill-rule="evenodd" fill-opacity="1" stroke="#000000" stroke-opacity="1" stroke-width="3.2"/>
<circle clip-path="url(#clip562)" cx="1645.41" cy="1374.46" r="14.4" fill="#9b7fe8" fill-rule="evenodd" fill-opacity="1" stroke="#000000" stroke-opacity="1" stroke-width="3.2"/>
<circle clip-path="url(#clip562)" cx="2294.35" cy="1374.33" r="14.4" fill="#9b7fe8" fill-rule="evenodd" fill-opacity="1" stroke="#000000" stroke-opacity="1" stroke-width="3.2"/>
<path clip-path="url(#clip560)" d="M1750.08 840.306 L2283.97 840.306 L2283.97 166.386 L1750.08 166.386  Z" fill="#ffffff" fill-rule="evenodd" fill-opacity="1"/>
<polyline clip-path="url(#clip560)" style="stroke:#000000; stroke-linecap:round; stroke-linejoin:round; stroke-width:4; stroke-opacity:1; fill:none" points="1750.08,840.306 2283.97,840.306 2283.97,166.386 1750.08,166.386 1750.08,840.306 "/>
<polyline clip-path="url(#clip560)" style="stroke:#009af9; stroke-linecap:round; stroke-linejoin:round; stroke-width:4; stroke-opacity:1; fill:none" stroke-dasharray="2, 4" points="1773.01,218.226 1910.59,218.226 "/>
<circle clip-path="url(#clip560)" cx="1841.8" cy="218.226" r="19.1077" fill="#009af9" fill-rule="evenodd" fill-opacity="1" stroke="#000000" stroke-opacity="1" stroke-width="4.55111"/>
<path clip-path="url(#clip560)" d="M1933.52 200.946 L1953.38 200.946 L1953.38 204.881 L1938.19 204.881 L1938.19 215.067 L1951.9 215.067 L1951.9 219.002 L1938.19 219.002 L1938.19 235.506 L1933.52 235.506 L1933.52 200.946 Z" fill="#000000" fill-rule="nonzero" fill-opacity="1" /><path clip-path="url(#clip560)" d="M1965.46 219.002 L1965.46 231.664 L1972.96 231.664 Q1976.73 231.664 1978.54 230.113 Q1980.37 228.539 1980.37 225.321 Q1980.37 222.08 1978.54 220.553 Q1976.73 219.002 1972.96 219.002 L1965.46 219.002 M1965.46 204.789 L1965.46 215.205 L1972.38 215.205 Q1975.81 215.205 1977.48 213.932 Q1979.17 212.636 1979.17 209.997 Q1979.17 207.381 1977.48 206.085 Q1975.81 204.789 1972.38 204.789 L1965.46 204.789 M1960.79 200.946 L1972.73 200.946 Q1978.08 200.946 1980.97 203.168 Q1983.86 205.391 1983.86 209.488 Q1983.86 212.659 1982.38 214.534 Q1980.9 216.409 1978.03 216.872 Q1981.48 217.613 1983.38 219.974 Q1985.3 222.312 1985.3 225.83 Q1985.3 230.46 1982.15 232.983 Q1979 235.506 1973.19 235.506 L1960.79 235.506 L1960.79 200.946 Z" fill="#000000" fill-rule="nonzero" fill-opacity="1" /><path clip-path="url(#clip560)" d="M1997.98 204.789 L1997.98 231.664 L2003.63 231.664 Q2010.79 231.664 2014.1 228.423 Q2017.43 225.182 2017.43 218.192 Q2017.43 211.247 2014.1 208.03 Q2010.79 204.789 2003.63 204.789 L1997.98 204.789 M1993.31 200.946 L2002.92 200.946 Q2012.96 200.946 2017.66 205.136 Q2022.36 209.303 2022.36 218.192 Q2022.36 227.127 2017.64 231.316 Q2012.92 235.506 2002.92 235.506 L1993.31 235.506 L1993.31 200.946 Z" fill="#000000" fill-rule="nonzero" fill-opacity="1" /><path clip-path="url(#clip560)" d="M2029.81 200.946 L2049.67 200.946 L2049.67 204.881 L2034.49 204.881 L2034.49 215.067 L2048.19 215.067 L2048.19 219.002 L2034.49 219.002 L2034.49 235.506 L2029.81 235.506 L2029.81 200.946 Z" fill="#000000" fill-rule="nonzero" fill-opacity="1" /><polyline clip-path="url(#clip560)" style="stroke:#e26f46; stroke-linecap:round; stroke-linejoin:round; stroke-width:4; stroke-opacity:1; fill:none" stroke-dasharray="2, 4" points="1773.01,270.066 1910.59,270.066 "/>
<circle clip-path="url(#clip560)" cx="1841.8" cy="270.066" r="19.1077" fill="#e26f46" fill-rule="evenodd" fill-opacity="1" stroke="#000000" stroke-opacity="1" stroke-width="4.55111"/>
<path clip-path="url(#clip560)" d="M1933.52 252.786 L1953.38 252.786 L1953.38 256.721 L1938.19 256.721 L1938.19 266.907 L1951.9 266.907 L1951.9 270.842 L1938.19 270.842 L1938.19 287.346 L1933.52 287.346 L1933.52 252.786 Z" fill="#000000" fill-rule="nonzero" fill-opacity="1" /><path clip-path="url(#clip560)" d="M1965.46 270.842 L1965.46 283.504 L1972.96 283.504 Q1976.73 283.504 1978.54 281.953 Q1980.37 280.379 1980.37 277.161 Q1980.37 273.92 1978.54 272.393 Q1976.73 270.842 1972.96 270.842 L1965.46 270.842 M1965.46 256.629 L1965.46 267.045 L1972.38 267.045 Q1975.81 267.045 1977.48 265.772 Q1979.17 264.476 1979.17 261.837 Q1979.17 259.221 1977.48 257.925 Q1975.81 256.629 1972.38 256.629 L1965.46 256.629 M1960.79 252.786 L1972.73 252.786 Q1978.08 252.786 1980.97 255.008 Q1983.86 257.231 1983.86 261.328 Q1983.86 264.499 1982.38 266.374 Q1980.9 268.249 1978.03 268.712 Q1981.48 269.453 1983.38 271.814 Q1985.3 274.152 1985.3 277.67 Q1985.3 282.3 1982.15 284.823 Q1979 287.346 1973.19 287.346 L1960.79 287.346 L1960.79 252.786 Z" fill="#000000" fill-rule="nonzero" fill-opacity="1" /><path clip-path="url(#clip560)" d="M1997.98 256.629 L1997.98 283.504 L2003.63 283.504 Q2010.79 283.504 2014.1 280.263 Q2017.43 277.022 2017.43 270.032 Q2017.43 263.087 2014.1 259.87 Q2010.79 256.629 2003.63 256.629 L1997.98 256.629 M1993.31 252.786 L2002.92 252.786 Q2012.96 252.786 2017.66 256.976 Q2022.36 261.143 2022.36 270.032 Q2022.36 278.967 2017.64 283.156 Q2012.92 287.346 2002.92 287.346 L1993.31 287.346 L1993.31 252.786 Z" fill="#000000" fill-rule="nonzero" fill-opacity="1" /><path clip-path="url(#clip560)" d="M2029.81 252.786 L2049.67 252.786 L2049.67 256.721 L2034.49 256.721 L2034.49 266.907 L2048.19 266.907 L2048.19 270.842 L2034.49 270.842 L2034.49 287.346 L2029.81 287.346 L2029.81 252.786 Z" fill="#000000" fill-rule="nonzero" fill-opacity="1" /><path clip-path="url(#clip560)" d="M2076.6 295.217 L2076.6 298.527 L2051.97 298.527 L2051.97 295.217 L2076.6 295.217 Z" fill="#000000" fill-rule="nonzero" fill-opacity="1" /><path clip-path="url(#clip560)" d="M2080.6 261.42 L2084.86 261.42 L2084.86 287.809 Q2084.86 292.763 2082.96 294.985 Q2081.09 297.207 2076.9 297.207 L2075.28 297.207 L2075.28 293.596 L2076.41 293.596 Q2078.84 293.596 2079.72 292.462 Q2080.6 291.351 2080.6 287.809 L2080.6 261.42 M2080.6 251.328 L2084.86 251.328 L2084.86 256.721 L2080.6 256.721 L2080.6 251.328 Z" fill="#000000" fill-rule="nonzero" fill-opacity="1" /><path clip-path="url(#clip560)" d="M2105.55 274.314 Q2100.39 274.314 2098.4 275.494 Q2096.41 276.675 2096.41 279.522 Q2096.41 281.791 2097.89 283.133 Q2099.4 284.453 2101.97 284.453 Q2105.51 284.453 2107.64 281.953 Q2109.79 279.43 2109.79 275.263 L2109.79 274.314 L2105.55 274.314 M2114.05 272.555 L2114.05 287.346 L2109.79 287.346 L2109.79 283.411 Q2108.33 285.772 2106.16 286.906 Q2103.98 288.018 2100.83 288.018 Q2096.85 288.018 2094.49 285.795 Q2092.15 283.55 2092.15 279.8 Q2092.15 275.425 2095.07 273.203 Q2098.01 270.981 2103.82 270.981 L2109.79 270.981 L2109.79 270.564 Q2109.79 267.624 2107.85 266.027 Q2105.92 264.407 2102.43 264.407 Q2100.21 264.407 2098.1 264.939 Q2095.99 265.471 2094.05 266.536 L2094.05 262.601 Q2096.39 261.698 2098.59 261.258 Q2100.78 260.795 2102.87 260.795 Q2108.49 260.795 2111.27 263.712 Q2114.05 266.629 2114.05 272.555 Z" fill="#000000" fill-rule="nonzero" fill-opacity="1" /><path clip-path="url(#clip560)" d="M2141.48 262.416 L2141.48 266.397 Q2139.67 265.402 2137.84 264.916 Q2136.04 264.407 2134.19 264.407 Q2130.04 264.407 2127.75 267.045 Q2125.46 269.661 2125.46 274.407 Q2125.46 279.152 2127.75 281.791 Q2130.04 284.406 2134.19 284.406 Q2136.04 284.406 2137.84 283.92 Q2139.67 283.411 2141.48 282.416 L2141.48 286.351 Q2139.7 287.184 2137.78 287.601 Q2135.88 288.018 2133.72 288.018 Q2127.87 288.018 2124.42 284.337 Q2120.97 280.656 2120.97 274.407 Q2120.97 268.064 2124.44 264.43 Q2127.94 260.795 2134 260.795 Q2135.97 260.795 2137.84 261.212 Q2139.72 261.606 2141.48 262.416 Z" fill="#000000" fill-rule="nonzero" fill-opacity="1" /><polyline clip-path="url(#clip560)" style="stroke:#3da44d; stroke-linecap:round; stroke-linejoin:round; stroke-width:4; stroke-opacity:1; fill:none" stroke-dasharray="2, 4" points="1773.01,321.906 1910.59,321.906 "/>
<circle clip-path="url(#clip560)" cx="1841.8" cy="321.906" r="19.1077" fill="#3da44d" fill-rule="evenodd" fill-opacity="1" stroke="#000000" stroke-opacity="1" stroke-width="4.55111"/>
<path clip-path="url(#clip560)" d="M1933.52 304.626 L1953.38 304.626 L1953.38 308.561 L1938.19 308.561 L1938.19 318.747 L1951.9 318.747 L1951.9 322.682 L1938.19 322.682 L1938.19 339.186 L1933.52 339.186 L1933.52 304.626 Z" fill="#000000" fill-rule="nonzero" fill-opacity="1" /><path clip-path="url(#clip560)" d="M1965.46 322.682 L1965.46 335.344 L1972.96 335.344 Q1976.73 335.344 1978.54 333.793 Q1980.37 332.219 1980.37 329.001 Q1980.37 325.76 1978.54 324.233 Q1976.73 322.682 1972.96 322.682 L1965.46 322.682 M1965.46 308.469 L1965.46 318.885 L1972.38 318.885 Q1975.81 318.885 1977.48 317.612 Q1979.17 316.316 1979.17 313.677 Q1979.17 311.061 1977.48 309.765 Q1975.81 308.469 1972.38 308.469 L1965.46 308.469 M1960.79 304.626 L1972.73 304.626 Q1978.08 304.626 1980.97 306.848 Q1983.86 309.071 1983.86 313.168 Q1983.86 316.339 1982.38 318.214 Q1980.9 320.089 1978.03 320.552 Q1981.48 321.293 1983.38 323.654 Q1985.3 325.992 1985.3 329.51 Q1985.3 334.14 1982.15 336.663 Q1979 339.186 1973.19 339.186 L1960.79 339.186 L1960.79 304.626 Z" fill="#000000" fill-rule="nonzero" fill-opacity="1" /><path clip-path="url(#clip560)" d="M1997.98 308.469 L1997.98 335.344 L2003.63 335.344 Q2010.79 335.344 2014.1 332.103 Q2017.43 328.862 2017.43 321.872 Q2017.43 314.927 2014.1 311.71 Q2010.79 308.469 2003.63 308.469 L1997.98 308.469 M1993.31 304.626 L2002.92 304.626 Q2012.96 304.626 2017.66 308.816 Q2022.36 312.983 2022.36 321.872 Q2022.36 330.807 2017.64 334.996 Q2012.92 339.186 2002.92 339.186 L1993.31 339.186 L1993.31 304.626 Z" fill="#000000" fill-rule="nonzero" fill-opacity="1" /><path clip-path="url(#clip560)" d="M2029.81 304.626 L2049.67 304.626 L2049.67 308.561 L2034.49 308.561 L2034.49 318.747 L2048.19 318.747 L2048.19 322.682 L2034.49 322.682 L2034.49 339.186 L2029.81 339.186 L2029.81 304.626 Z" fill="#000000" fill-rule="nonzero" fill-opacity="1" /><path clip-path="url(#clip560)" d="M2076.6 347.057 L2076.6 350.367 L2051.97 350.367 L2051.97 347.057 L2076.6 347.057 Z" fill="#000000" fill-rule="nonzero" fill-opacity="1" /><path clip-path="url(#clip560)" d="M2084.72 335.297 L2084.72 349.047 L2080.44 349.047 L2080.44 313.26 L2084.72 313.26 L2084.72 317.196 Q2086.06 314.881 2088.1 313.77 Q2090.16 312.635 2093.01 312.635 Q2097.73 312.635 2100.67 316.385 Q2103.63 320.135 2103.63 326.247 Q2103.63 332.358 2100.67 336.108 Q2097.73 339.858 2093.01 339.858 Q2090.16 339.858 2088.1 338.746 Q2086.06 337.612 2084.72 335.297 M2099.21 326.247 Q2099.21 321.547 2097.27 318.885 Q2095.35 316.2 2091.97 316.2 Q2088.59 316.2 2086.64 318.885 Q2084.72 321.547 2084.72 326.247 Q2084.72 330.946 2086.64 333.631 Q2088.59 336.293 2091.97 336.293 Q2095.35 336.293 2097.27 333.631 Q2099.21 330.946 2099.21 326.247 Z" fill="#000000" fill-rule="nonzero" fill-opacity="1" /><path clip-path="url(#clip560)" d="M2125.72 317.242 Q2125 316.825 2124.14 316.64 Q2123.31 316.432 2122.29 316.432 Q2118.68 316.432 2116.73 318.793 Q2114.81 321.131 2114.81 325.529 L2114.81 339.186 L2110.53 339.186 L2110.53 313.26 L2114.81 313.26 L2114.81 317.288 Q2116.16 314.927 2118.31 313.793 Q2120.46 312.635 2123.54 312.635 Q2123.98 312.635 2124.51 312.705 Q2125.04 312.751 2125.69 312.867 L2125.72 317.242 Z" fill="#000000" fill-rule="nonzero" fill-opacity="1" /><path clip-path="url(#clip560)" d="M2151.32 325.159 L2151.32 327.242 L2131.73 327.242 Q2132.01 331.64 2134.37 333.955 Q2136.76 336.246 2140.99 336.246 Q2143.45 336.246 2145.74 335.645 Q2148.05 335.043 2150.32 333.839 L2150.32 337.867 Q2148.03 338.839 2145.62 339.348 Q2143.22 339.858 2140.74 339.858 Q2134.53 339.858 2130.9 336.246 Q2127.29 332.635 2127.29 326.478 Q2127.29 320.112 2130.72 316.385 Q2134.16 312.635 2140 312.635 Q2145.23 312.635 2148.26 316.015 Q2151.32 319.372 2151.32 325.159 M2147.06 323.909 Q2147.01 320.413 2145.09 318.33 Q2143.19 316.247 2140.04 316.247 Q2136.48 316.247 2134.33 318.26 Q2132.2 320.274 2131.87 323.932 L2147.06 323.909 Z" fill="#000000" fill-rule="nonzero" fill-opacity="1" /><path clip-path="url(#clip560)" d="M2176.97 314.256 L2176.97 318.237 Q2175.16 317.242 2173.33 316.756 Q2171.53 316.247 2169.67 316.247 Q2165.53 316.247 2163.24 318.885 Q2160.95 321.501 2160.95 326.247 Q2160.95 330.992 2163.24 333.631 Q2165.53 336.246 2169.67 336.246 Q2171.53 336.246 2173.33 335.76 Q2175.16 335.251 2176.97 334.256 L2176.97 338.191 Q2175.18 339.024 2173.26 339.441 Q2171.36 339.858 2169.21 339.858 Q2163.35 339.858 2159.91 336.177 Q2156.46 332.496 2156.46 326.247 Q2156.46 319.904 2159.93 316.27 Q2163.42 312.635 2169.49 312.635 Q2171.46 312.635 2173.33 313.052 Q2175.21 313.446 2176.97 314.256 Z" fill="#000000" fill-rule="nonzero" fill-opacity="1" /><polyline clip-path="url(#clip560)" style="stroke:#c271d2; stroke-linecap:round; stroke-linejoin:round; stroke-width:4; stroke-opacity:1; fill:none" stroke-dasharray="2, 4" points="1773.01,373.746 1910.59,373.746 "/>
<circle clip-path="url(#clip560)" cx="1841.8" cy="373.746" r="19.1077" fill="#c271d2" fill-rule="evenodd" fill-opacity="1" stroke="#000000" stroke-opacity="1" stroke-width="4.55111"/>
<path clip-path="url(#clip560)" d="M1933.52 356.466 L1953.38 356.466 L1953.38 360.401 L1938.19 360.401 L1938.19 370.587 L1951.9 370.587 L1951.9 374.522 L1938.19 374.522 L1938.19 391.026 L1933.52 391.026 L1933.52 356.466 Z" fill="#000000" fill-rule="nonzero" fill-opacity="1" /><path clip-path="url(#clip560)" d="M1965.46 374.522 L1965.46 387.184 L1972.96 387.184 Q1976.73 387.184 1978.54 385.633 Q1980.37 384.059 1980.37 380.841 Q1980.37 377.6 1978.54 376.073 Q1976.73 374.522 1972.96 374.522 L1965.46 374.522 M1965.46 360.309 L1965.46 370.725 L1972.38 370.725 Q1975.81 370.725 1977.48 369.452 Q1979.17 368.156 1979.17 365.517 Q1979.17 362.901 1977.48 361.605 Q1975.81 360.309 1972.38 360.309 L1965.46 360.309 M1960.79 356.466 L1972.73 356.466 Q1978.08 356.466 1980.97 358.688 Q1983.86 360.911 1983.86 365.008 Q1983.86 368.179 1982.38 370.054 Q1980.9 371.929 1978.03 372.392 Q1981.48 373.133 1983.38 375.494 Q1985.3 377.832 1985.3 381.35 Q1985.3 385.98 1982.15 388.503 Q1979 391.026 1973.19 391.026 L1960.79 391.026 L1960.79 356.466 Z" fill="#000000" fill-rule="nonzero" fill-opacity="1" /><path clip-path="url(#clip560)" d="M1997.98 360.309 L1997.98 387.184 L2003.63 387.184 Q2010.79 387.184 2014.1 383.943 Q2017.43 380.702 2017.43 373.712 Q2017.43 366.767 2014.1 363.55 Q2010.79 360.309 2003.63 360.309 L1997.98 360.309 M1993.31 356.466 L2002.92 356.466 Q2012.96 356.466 2017.66 360.656 Q2022.36 364.823 2022.36 373.712 Q2022.36 382.647 2017.64 386.836 Q2012.92 391.026 2002.92 391.026 L1993.31 391.026 L1993.31 356.466 Z" fill="#000000" fill-rule="nonzero" fill-opacity="1" /><path clip-path="url(#clip560)" d="M2029.81 356.466 L2049.67 356.466 L2049.67 360.401 L2034.49 360.401 L2034.49 370.587 L2048.19 370.587 L2048.19 374.522 L2034.49 374.522 L2034.49 391.026 L2029.81 391.026 L2029.81 356.466 Z" fill="#000000" fill-rule="nonzero" fill-opacity="1" /><path clip-path="url(#clip560)" d="M2076.6 398.897 L2076.6 402.207 L2051.97 402.207 L2051.97 398.897 L2076.6 398.897 Z" fill="#000000" fill-rule="nonzero" fill-opacity="1" /><path clip-path="url(#clip560)" d="M2084.72 387.137 L2084.72 400.887 L2080.44 400.887 L2080.44 365.1 L2084.72 365.1 L2084.72 369.036 Q2086.06 366.721 2088.1 365.61 Q2090.16 364.475 2093.01 364.475 Q2097.73 364.475 2100.67 368.225 Q2103.63 371.975 2103.63 378.087 Q2103.63 384.198 2100.67 387.948 Q2097.73 391.698 2093.01 391.698 Q2090.16 391.698 2088.1 390.586 Q2086.06 389.452 2084.72 387.137 M2099.21 378.087 Q2099.21 373.387 2097.27 370.725 Q2095.35 368.04 2091.97 368.04 Q2088.59 368.04 2086.64 370.725 Q2084.72 373.387 2084.72 378.087 Q2084.72 382.786 2086.64 385.471 Q2088.59 388.133 2091.97 388.133 Q2095.35 388.133 2097.27 385.471 Q2099.21 382.786 2099.21 378.087 Z" fill="#000000" fill-rule="nonzero" fill-opacity="1" /><path clip-path="url(#clip560)" d="M2125.72 369.082 Q2125 368.665 2124.14 368.48 Q2123.31 368.272 2122.29 368.272 Q2118.68 368.272 2116.73 370.633 Q2114.81 372.971 2114.81 377.369 L2114.81 391.026 L2110.53 391.026 L2110.53 365.1 L2114.81 365.1 L2114.81 369.128 Q2116.16 366.767 2118.31 365.633 Q2120.46 364.475 2123.54 364.475 Q2123.98 364.475 2124.51 364.545 Q2125.04 364.591 2125.69 364.707 L2125.72 369.082 Z" fill="#000000" fill-rule="nonzero" fill-opacity="1" /><path clip-path="url(#clip560)" d="M2151.32 376.999 L2151.32 379.082 L2131.73 379.082 Q2132.01 383.48 2134.37 385.795 Q2136.76 388.086 2140.99 388.086 Q2143.45 388.086 2145.74 387.485 Q2148.05 386.883 2150.32 385.679 L2150.32 389.707 Q2148.03 390.679 2145.62 391.188 Q2143.22 391.698 2140.74 391.698 Q2134.53 391.698 2130.9 388.086 Q2127.29 384.475 2127.29 378.318 Q2127.29 371.952 2130.72 368.225 Q2134.16 364.475 2140 364.475 Q2145.23 364.475 2148.26 367.855 Q2151.32 371.212 2151.32 376.999 M2147.06 375.749 Q2147.01 372.253 2145.09 370.17 Q2143.19 368.087 2140.04 368.087 Q2136.48 368.087 2134.33 370.1 Q2132.2 372.114 2131.87 375.772 L2147.06 375.749 Z" fill="#000000" fill-rule="nonzero" fill-opacity="1" /><path clip-path="url(#clip560)" d="M2176.97 366.096 L2176.97 370.077 Q2175.16 369.082 2173.33 368.596 Q2171.53 368.087 2169.67 368.087 Q2165.53 368.087 2163.24 370.725 Q2160.95 373.341 2160.95 378.087 Q2160.95 382.832 2163.24 385.471 Q2165.53 388.086 2169.67 388.086 Q2171.53 388.086 2173.33 387.6 Q2175.16 387.091 2176.97 386.096 L2176.97 390.031 Q2175.18 390.864 2173.26 391.281 Q2171.36 391.698 2169.21 391.698 Q2163.35 391.698 2159.91 388.017 Q2156.46 384.336 2156.46 378.087 Q2156.46 371.744 2159.93 368.11 Q2163.42 364.475 2169.49 364.475 Q2171.46 364.475 2173.33 364.892 Q2175.21 365.286 2176.97 366.096 Z" fill="#000000" fill-rule="nonzero" fill-opacity="1" /><path clip-path="url(#clip560)" d="M2184.56 356.466 L2189.23 356.466 L2189.23 388.619 Q2189.23 394.869 2186.85 397.693 Q2184.49 400.517 2179.23 400.517 L2177.45 400.517 L2177.45 396.582 L2178.91 396.582 Q2182.01 396.582 2183.28 394.846 Q2184.56 393.11 2184.56 388.619 L2184.56 356.466 Z" fill="#000000" fill-rule="nonzero" fill-opacity="1" /><path clip-path="url(#clip560)" d="M2210.14 377.994 Q2204.97 377.994 2202.98 379.174 Q2200.99 380.355 2200.99 383.202 Q2200.99 385.471 2202.47 386.813 Q2203.98 388.133 2206.55 388.133 Q2210.09 388.133 2212.22 385.633 Q2214.37 383.11 2214.37 378.943 L2214.37 377.994 L2210.14 377.994 M2218.63 376.235 L2218.63 391.026 L2214.37 391.026 L2214.37 387.091 Q2212.91 389.452 2210.74 390.586 Q2208.56 391.698 2205.41 391.698 Q2201.43 391.698 2199.07 389.475 Q2196.73 387.23 2196.73 383.48 Q2196.73 379.105 2199.65 376.883 Q2202.59 374.661 2208.4 374.661 L2214.37 374.661 L2214.37 374.244 Q2214.37 371.304 2212.43 369.707 Q2210.51 368.087 2207.01 368.087 Q2204.79 368.087 2202.68 368.619 Q2200.58 369.151 2198.63 370.216 L2198.63 366.281 Q2200.97 365.378 2203.17 364.938 Q2205.37 364.475 2207.45 364.475 Q2213.08 364.475 2215.85 367.392 Q2218.63 370.309 2218.63 376.235 Z" fill="#000000" fill-rule="nonzero" fill-opacity="1" /><path clip-path="url(#clip560)" d="M2246.06 366.096 L2246.06 370.077 Q2244.26 369.082 2242.43 368.596 Q2240.62 368.087 2238.77 368.087 Q2234.63 368.087 2232.34 370.725 Q2230.04 373.341 2230.04 378.087 Q2230.04 382.832 2232.34 385.471 Q2234.63 388.086 2238.77 388.086 Q2240.62 388.086 2242.43 387.6 Q2244.26 387.091 2246.06 386.096 L2246.06 390.031 Q2244.28 390.864 2242.36 391.281 Q2240.46 391.698 2238.31 391.698 Q2232.45 391.698 2229 388.017 Q2225.55 384.336 2225.55 378.087 Q2225.55 371.744 2229.03 368.11 Q2232.52 364.475 2238.59 364.475 Q2240.55 364.475 2242.43 364.892 Q2244.3 365.286 2246.06 366.096 Z" fill="#000000" fill-rule="nonzero" fill-opacity="1" /><polyline clip-path="url(#clip560)" style="stroke:#ac8d18; stroke-linecap:round; stroke-linejoin:round; stroke-width:4; stroke-opacity:1; fill:none" stroke-dasharray="2, 4" points="1773.01,425.586 1910.59,425.586 "/>
<circle clip-path="url(#clip560)" cx="1841.8" cy="425.586" r="19.1077" fill="#ac8d18" fill-rule="evenodd" fill-opacity="1" stroke="#000000" stroke-opacity="1" stroke-width="4.55111"/>
<path clip-path="url(#clip560)" d="M1949.54 411.478 Q1944.44 411.478 1941.43 415.274 Q1938.45 419.07 1938.45 425.621 Q1938.45 432.149 1941.43 435.945 Q1944.44 439.741 1949.54 439.741 Q1954.63 439.741 1957.59 435.945 Q1960.58 432.149 1960.58 425.621 Q1960.58 419.07 1957.59 415.274 Q1954.63 411.478 1949.54 411.478 M1956.09 442.241 L1962.24 448.977 L1956.6 448.977 L1951.48 443.445 Q1950.72 443.491 1950.3 443.514 Q1949.91 443.538 1949.54 443.538 Q1942.24 443.538 1937.87 438.676 Q1933.52 433.792 1933.52 425.621 Q1933.52 417.427 1937.87 412.566 Q1942.24 407.681 1949.54 407.681 Q1956.8 407.681 1961.16 412.566 Q1965.51 417.427 1965.51 425.621 Q1965.51 431.639 1963.08 435.922 Q1960.67 440.204 1956.09 442.241 Z" fill="#000000" fill-rule="nonzero" fill-opacity="1" /><path clip-path="url(#clip560)" d="M1972.82 408.306 L1979.12 408.306 L1994.44 437.218 L1994.44 408.306 L1998.98 408.306 L1998.98 442.866 L1992.68 442.866 L1977.36 413.954 L1977.36 442.866 L1972.82 442.866 L1972.82 408.306 Z" fill="#000000" fill-rule="nonzero" fill-opacity="1" /><path clip-path="url(#clip560)" d="M2012.96 412.149 L2012.96 439.024 L2018.61 439.024 Q2025.76 439.024 2029.07 435.783 Q2032.41 432.542 2032.41 425.552 Q2032.41 418.607 2029.07 415.39 Q2025.76 412.149 2018.61 412.149 L2012.96 412.149 M2008.29 408.306 L2017.89 408.306 Q2027.94 408.306 2032.64 412.496 Q2037.34 416.663 2037.34 425.552 Q2037.34 434.487 2032.61 438.676 Q2027.89 442.866 2017.89 442.866 L2008.29 442.866 L2008.29 408.306 Z" fill="#000000" fill-rule="nonzero" fill-opacity="1" /><path clip-path="url(#clip560)" d="M2044.79 408.306 L2064.65 408.306 L2064.65 412.241 L2049.47 412.241 L2049.47 422.427 L2063.17 422.427 L2063.17 426.362 L2049.47 426.362 L2049.47 442.866 L2044.79 442.866 L2044.79 408.306 Z" fill="#000000" fill-rule="nonzero" fill-opacity="1" /><polyline clip-path="url(#clip560)" style="stroke:#00a9ad; stroke-linecap:round; stroke-linejoin:round; stroke-width:4; stroke-opacity:1; fill:none" stroke-dasharray="2, 4" points="1773.01,477.426 1910.59,477.426 "/>
<circle clip-path="url(#clip560)" cx="1841.8" cy="477.426" r="19.1077" fill="#00a9ad" fill-rule="evenodd" fill-opacity="1" stroke="#000000" stroke-opacity="1" stroke-width="4.55111"/>
<path clip-path="url(#clip560)" d="M1949.54 463.318 Q1944.44 463.318 1941.43 467.114 Q1938.45 470.91 1938.45 477.461 Q1938.45 483.989 1941.43 487.785 Q1944.44 491.581 1949.54 491.581 Q1954.63 491.581 1957.59 487.785 Q1960.58 483.989 1960.58 477.461 Q1960.58 470.91 1957.59 467.114 Q1954.63 463.318 1949.54 463.318 M1956.09 494.081 L1962.24 500.817 L1956.6 500.817 L1951.48 495.285 Q1950.72 495.331 1950.3 495.354 Q1949.91 495.378 1949.54 495.378 Q1942.24 495.378 1937.87 490.516 Q1933.52 485.632 1933.52 477.461 Q1933.52 469.267 1937.87 464.406 Q1942.24 459.521 1949.54 459.521 Q1956.8 459.521 1961.16 464.406 Q1965.51 469.267 1965.51 477.461 Q1965.51 483.479 1963.08 487.762 Q1960.67 492.044 1956.09 494.081 Z" fill="#000000" fill-rule="nonzero" fill-opacity="1" /><path clip-path="url(#clip560)" d="M1972.82 460.146 L1979.12 460.146 L1994.44 489.058 L1994.44 460.146 L1998.98 460.146 L1998.98 494.706 L1992.68 494.706 L1977.36 465.794 L1977.36 494.706 L1972.82 494.706 L1972.82 460.146 Z" fill="#000000" fill-rule="nonzero" fill-opacity="1" /><path clip-path="url(#clip560)" d="M2012.96 463.989 L2012.96 490.864 L2018.61 490.864 Q2025.76 490.864 2029.07 487.623 Q2032.41 484.382 2032.41 477.392 Q2032.41 470.447 2029.07 467.23 Q2025.76 463.989 2018.61 463.989 L2012.96 463.989 M2008.29 460.146 L2017.89 460.146 Q2027.94 460.146 2032.64 464.336 Q2037.34 468.503 2037.34 477.392 Q2037.34 486.327 2032.61 490.516 Q2027.89 494.706 2017.89 494.706 L2008.29 494.706 L2008.29 460.146 Z" fill="#000000" fill-rule="nonzero" fill-opacity="1" /><path clip-path="url(#clip560)" d="M2044.79 460.146 L2064.65 460.146 L2064.65 464.081 L2049.47 464.081 L2049.47 474.267 L2063.17 474.267 L2063.17 478.202 L2049.47 478.202 L2049.47 494.706 L2044.79 494.706 L2044.79 460.146 Z" fill="#000000" fill-rule="nonzero" fill-opacity="1" /><path clip-path="url(#clip560)" d="M2091.57 502.577 L2091.57 505.887 L2066.94 505.887 L2066.94 502.577 L2091.57 502.577 Z" fill="#000000" fill-rule="nonzero" fill-opacity="1" /><path clip-path="url(#clip560)" d="M2095.58 468.78 L2099.84 468.78 L2099.84 495.169 Q2099.84 500.123 2097.94 502.345 Q2096.06 504.567 2091.87 504.567 L2090.25 504.567 L2090.25 500.956 L2091.39 500.956 Q2093.82 500.956 2094.7 499.822 Q2095.58 498.711 2095.58 495.169 L2095.58 468.78 M2095.58 458.688 L2099.84 458.688 L2099.84 464.081 L2095.58 464.081 L2095.58 458.688 Z" fill="#000000" fill-rule="nonzero" fill-opacity="1" /><path clip-path="url(#clip560)" d="M2120.53 481.674 Q2115.37 481.674 2113.38 482.854 Q2111.39 484.035 2111.39 486.882 Q2111.39 489.151 2112.87 490.493 Q2114.37 491.813 2116.94 491.813 Q2120.48 491.813 2122.61 489.313 Q2124.77 486.79 2124.77 482.623 L2124.77 481.674 L2120.53 481.674 M2129.03 479.915 L2129.03 494.706 L2124.77 494.706 L2124.77 490.771 Q2123.31 493.132 2121.13 494.266 Q2118.96 495.378 2115.81 495.378 Q2111.83 495.378 2109.47 493.155 Q2107.13 490.91 2107.13 487.16 Q2107.13 482.785 2110.04 480.563 Q2112.98 478.341 2118.79 478.341 L2124.77 478.341 L2124.77 477.924 Q2124.77 474.984 2122.82 473.387 Q2120.9 471.767 2117.41 471.767 Q2115.18 471.767 2113.08 472.299 Q2110.97 472.831 2109.03 473.896 L2109.03 469.961 Q2111.36 469.058 2113.56 468.618 Q2115.76 468.155 2117.85 468.155 Q2123.47 468.155 2126.25 471.072 Q2129.03 473.989 2129.03 479.915 Z" fill="#000000" fill-rule="nonzero" fill-opacity="1" /><path clip-path="url(#clip560)" d="M2156.46 469.776 L2156.46 473.757 Q2154.65 472.762 2152.82 472.276 Q2151.02 471.767 2149.16 471.767 Q2145.02 471.767 2142.73 474.405 Q2140.44 477.021 2140.44 481.767 Q2140.44 486.512 2142.73 489.151 Q2145.02 491.766 2149.16 491.766 Q2151.02 491.766 2152.82 491.28 Q2154.65 490.771 2156.46 489.776 L2156.46 493.711 Q2154.67 494.544 2152.75 494.961 Q2150.85 495.378 2148.7 495.378 Q2142.84 495.378 2139.4 491.697 Q2135.95 488.016 2135.95 481.767 Q2135.95 475.424 2139.42 471.79 Q2142.91 468.155 2148.98 468.155 Q2150.95 468.155 2152.82 468.572 Q2154.7 468.966 2156.46 469.776 Z" fill="#000000" fill-rule="nonzero" fill-opacity="1" /><polyline clip-path="url(#clip560)" style="stroke:#ed5d92; stroke-linecap:round; stroke-linejoin:round; stroke-width:4; stroke-opacity:1; fill:none" stroke-dasharray="2, 4" points="1773.01,529.266 1910.59,529.266 "/>
<circle clip-path="url(#clip560)" cx="1841.8" cy="529.266" r="19.1077" fill="#ed5d92" fill-rule="evenodd" fill-opacity="1" stroke="#000000" stroke-opacity="1" stroke-width="4.55111"/>
<path clip-path="url(#clip560)" d="M1949.54 515.158 Q1944.44 515.158 1941.43 518.954 Q1938.45 522.75 1938.45 529.301 Q1938.45 535.829 1941.43 539.625 Q1944.44 543.421 1949.54 543.421 Q1954.63 543.421 1957.59 539.625 Q1960.58 535.829 1960.58 529.301 Q1960.58 522.75 1957.59 518.954 Q1954.63 515.158 1949.54 515.158 M1956.09 545.921 L1962.24 552.657 L1956.6 552.657 L1951.48 547.125 Q1950.72 547.171 1950.3 547.194 Q1949.91 547.218 1949.54 547.218 Q1942.24 547.218 1937.87 542.356 Q1933.52 537.472 1933.52 529.301 Q1933.52 521.107 1937.87 516.246 Q1942.24 511.361 1949.54 511.361 Q1956.8 511.361 1961.16 516.246 Q1965.51 521.107 1965.51 529.301 Q1965.51 535.319 1963.08 539.602 Q1960.67 543.884 1956.09 545.921 Z" fill="#000000" fill-rule="nonzero" fill-opacity="1" /><path clip-path="url(#clip560)" d="M1972.82 511.986 L1979.12 511.986 L1994.44 540.898 L1994.44 511.986 L1998.98 511.986 L1998.98 546.546 L1992.68 546.546 L1977.36 517.634 L1977.36 546.546 L1972.82 546.546 L1972.82 511.986 Z" fill="#000000" fill-rule="nonzero" fill-opacity="1" /><path clip-path="url(#clip560)" d="M2012.96 515.829 L2012.96 542.704 L2018.61 542.704 Q2025.76 542.704 2029.07 539.463 Q2032.41 536.222 2032.41 529.232 Q2032.41 522.287 2029.07 519.07 Q2025.76 515.829 2018.61 515.829 L2012.96 515.829 M2008.29 511.986 L2017.89 511.986 Q2027.94 511.986 2032.64 516.176 Q2037.34 520.343 2037.34 529.232 Q2037.34 538.167 2032.61 542.356 Q2027.89 546.546 2017.89 546.546 L2008.29 546.546 L2008.29 511.986 Z" fill="#000000" fill-rule="nonzero" fill-opacity="1" /><path clip-path="url(#clip560)" d="M2044.79 511.986 L2064.65 511.986 L2064.65 515.921 L2049.47 515.921 L2049.47 526.107 L2063.17 526.107 L2063.17 530.042 L2049.47 530.042 L2049.47 546.546 L2044.79 546.546 L2044.79 511.986 Z" fill="#000000" fill-rule="nonzero" fill-opacity="1" /><path clip-path="url(#clip560)" d="M2091.57 554.417 L2091.57 557.727 L2066.94 557.727 L2066.94 554.417 L2091.57 554.417 Z" fill="#000000" fill-rule="nonzero" fill-opacity="1" /><path clip-path="url(#clip560)" d="M2099.7 542.657 L2099.7 556.407 L2095.41 556.407 L2095.41 520.62 L2099.7 520.62 L2099.7 524.556 Q2101.04 522.241 2103.08 521.13 Q2105.14 519.995 2107.98 519.995 Q2112.71 519.995 2115.65 523.745 Q2118.61 527.495 2118.61 533.607 Q2118.61 539.718 2115.65 543.468 Q2112.71 547.218 2107.98 547.218 Q2105.14 547.218 2103.08 546.106 Q2101.04 544.972 2099.7 542.657 M2114.19 533.607 Q2114.19 528.907 2112.24 526.245 Q2110.32 523.56 2106.94 523.56 Q2103.56 523.56 2101.62 526.245 Q2099.7 528.907 2099.7 533.607 Q2099.7 538.306 2101.62 540.991 Q2103.56 543.653 2106.94 543.653 Q2110.32 543.653 2112.24 540.991 Q2114.19 538.306 2114.19 533.607 Z" fill="#000000" fill-rule="nonzero" fill-opacity="1" /><path clip-path="url(#clip560)" d="M2140.69 524.602 Q2139.97 524.185 2139.12 524 Q2138.28 523.792 2137.27 523.792 Q2133.66 523.792 2131.71 526.153 Q2129.79 528.491 2129.79 532.889 L2129.79 546.546 L2125.51 546.546 L2125.51 520.62 L2129.79 520.62 L2129.79 524.648 Q2131.13 522.287 2133.28 521.153 Q2135.44 519.995 2138.52 519.995 Q2138.96 519.995 2139.49 520.065 Q2140.02 520.111 2140.67 520.227 L2140.69 524.602 Z" fill="#000000" fill-rule="nonzero" fill-opacity="1" /><path clip-path="url(#clip560)" d="M2166.29 532.519 L2166.29 534.602 L2146.71 534.602 Q2146.99 539 2149.35 541.315 Q2151.73 543.606 2155.97 543.606 Q2158.42 543.606 2160.72 543.005 Q2163.03 542.403 2165.3 541.199 L2165.3 545.227 Q2163.01 546.199 2160.6 546.708 Q2158.19 547.218 2155.72 547.218 Q2149.51 547.218 2145.88 543.606 Q2142.27 539.995 2142.27 533.838 Q2142.27 527.472 2145.69 523.745 Q2149.14 519.995 2154.97 519.995 Q2160.21 519.995 2163.24 523.375 Q2166.29 526.732 2166.29 532.519 M2162.03 531.269 Q2161.99 527.773 2160.07 525.69 Q2158.17 523.607 2155.02 523.607 Q2151.46 523.607 2149.3 525.62 Q2147.17 527.634 2146.85 531.292 L2162.03 531.269 Z" fill="#000000" fill-rule="nonzero" fill-opacity="1" /><path clip-path="url(#clip560)" d="M2191.94 521.616 L2191.94 525.597 Q2190.14 524.602 2188.31 524.116 Q2186.5 523.607 2184.65 523.607 Q2180.51 523.607 2178.22 526.245 Q2175.92 528.861 2175.92 533.607 Q2175.92 538.352 2178.22 540.991 Q2180.51 543.606 2184.65 543.606 Q2186.5 543.606 2188.31 543.12 Q2190.14 542.611 2191.94 541.616 L2191.94 545.551 Q2190.16 546.384 2188.24 546.801 Q2186.34 547.218 2184.19 547.218 Q2178.33 547.218 2174.88 543.537 Q2171.43 539.856 2171.43 533.607 Q2171.43 527.264 2174.9 523.63 Q2178.4 519.995 2184.47 519.995 Q2186.43 519.995 2188.31 520.412 Q2190.18 520.806 2191.94 521.616 Z" fill="#000000" fill-rule="nonzero" fill-opacity="1" /><polyline clip-path="url(#clip560)" style="stroke:#c68125; stroke-linecap:round; stroke-linejoin:round; stroke-width:4; stroke-opacity:1; fill:none" stroke-dasharray="2, 4" points="1773.01,581.106 1910.59,581.106 "/>
<circle clip-path="url(#clip560)" cx="1841.8" cy="581.106" r="19.1077" fill="#c68125" fill-rule="evenodd" fill-opacity="1" stroke="#000000" stroke-opacity="1" stroke-width="4.55111"/>
<path clip-path="url(#clip560)" d="M1949.54 566.998 Q1944.44 566.998 1941.43 570.794 Q1938.45 574.59 1938.45 581.141 Q1938.45 587.669 1941.43 591.465 Q1944.44 595.261 1949.54 595.261 Q1954.63 595.261 1957.59 591.465 Q1960.58 587.669 1960.58 581.141 Q1960.58 574.59 1957.59 570.794 Q1954.63 566.998 1949.54 566.998 M1956.09 597.761 L1962.24 604.497 L1956.6 604.497 L1951.48 598.965 Q1950.72 599.011 1950.3 599.034 Q1949.91 599.058 1949.54 599.058 Q1942.24 599.058 1937.87 594.196 Q1933.52 589.312 1933.52 581.141 Q1933.52 572.947 1937.87 568.086 Q1942.24 563.201 1949.54 563.201 Q1956.8 563.201 1961.16 568.086 Q1965.51 572.947 1965.51 581.141 Q1965.51 587.159 1963.08 591.442 Q1960.67 595.724 1956.09 597.761 Z" fill="#000000" fill-rule="nonzero" fill-opacity="1" /><path clip-path="url(#clip560)" d="M1972.82 563.826 L1979.12 563.826 L1994.44 592.738 L1994.44 563.826 L1998.98 563.826 L1998.98 598.386 L1992.68 598.386 L1977.36 569.474 L1977.36 598.386 L1972.82 598.386 L1972.82 563.826 Z" fill="#000000" fill-rule="nonzero" fill-opacity="1" /><path clip-path="url(#clip560)" d="M2012.96 567.669 L2012.96 594.544 L2018.61 594.544 Q2025.76 594.544 2029.07 591.303 Q2032.41 588.062 2032.41 581.072 Q2032.41 574.127 2029.07 570.91 Q2025.76 567.669 2018.61 567.669 L2012.96 567.669 M2008.29 563.826 L2017.89 563.826 Q2027.94 563.826 2032.64 568.016 Q2037.34 572.183 2037.34 581.072 Q2037.34 590.007 2032.61 594.196 Q2027.89 598.386 2017.89 598.386 L2008.29 598.386 L2008.29 563.826 Z" fill="#000000" fill-rule="nonzero" fill-opacity="1" /><path clip-path="url(#clip560)" d="M2044.79 563.826 L2064.65 563.826 L2064.65 567.761 L2049.47 567.761 L2049.47 577.947 L2063.17 577.947 L2063.17 581.882 L2049.47 581.882 L2049.47 598.386 L2044.79 598.386 L2044.79 563.826 Z" fill="#000000" fill-rule="nonzero" fill-opacity="1" /><path clip-path="url(#clip560)" d="M2091.57 606.257 L2091.57 609.567 L2066.94 609.567 L2066.94 606.257 L2091.57 606.257 Z" fill="#000000" fill-rule="nonzero" fill-opacity="1" /><path clip-path="url(#clip560)" d="M2099.7 594.497 L2099.7 608.247 L2095.41 608.247 L2095.41 572.46 L2099.7 572.46 L2099.7 576.396 Q2101.04 574.081 2103.08 572.97 Q2105.14 571.835 2107.98 571.835 Q2112.71 571.835 2115.65 575.585 Q2118.61 579.335 2118.61 585.447 Q2118.61 591.558 2115.65 595.308 Q2112.71 599.058 2107.98 599.058 Q2105.14 599.058 2103.08 597.946 Q2101.04 596.812 2099.7 594.497 M2114.19 585.447 Q2114.19 580.747 2112.24 578.085 Q2110.32 575.4 2106.94 575.4 Q2103.56 575.4 2101.62 578.085 Q2099.7 580.747 2099.7 585.447 Q2099.7 590.146 2101.62 592.831 Q2103.56 595.493 2106.94 595.493 Q2110.32 595.493 2112.24 592.831 Q2114.19 590.146 2114.19 585.447 Z" fill="#000000" fill-rule="nonzero" fill-opacity="1" /><path clip-path="url(#clip560)" d="M2140.69 576.442 Q2139.97 576.025 2139.12 575.84 Q2138.28 575.632 2137.27 575.632 Q2133.66 575.632 2131.71 577.993 Q2129.79 580.331 2129.79 584.729 L2129.79 598.386 L2125.51 598.386 L2125.51 572.46 L2129.79 572.46 L2129.79 576.488 Q2131.13 574.127 2133.28 572.993 Q2135.44 571.835 2138.52 571.835 Q2138.96 571.835 2139.49 571.905 Q2140.02 571.951 2140.67 572.067 L2140.69 576.442 Z" fill="#000000" fill-rule="nonzero" fill-opacity="1" /><path clip-path="url(#clip560)" d="M2166.29 584.359 L2166.29 586.442 L2146.71 586.442 Q2146.99 590.84 2149.35 593.155 Q2151.73 595.446 2155.97 595.446 Q2158.42 595.446 2160.72 594.845 Q2163.03 594.243 2165.3 593.039 L2165.3 597.067 Q2163.01 598.039 2160.6 598.548 Q2158.19 599.058 2155.72 599.058 Q2149.51 599.058 2145.88 595.446 Q2142.27 591.835 2142.27 585.678 Q2142.27 579.312 2145.69 575.585 Q2149.14 571.835 2154.97 571.835 Q2160.21 571.835 2163.24 575.215 Q2166.29 578.572 2166.29 584.359 M2162.03 583.109 Q2161.99 579.613 2160.07 577.53 Q2158.17 575.447 2155.02 575.447 Q2151.46 575.447 2149.3 577.46 Q2147.17 579.474 2146.85 583.132 L2162.03 583.109 Z" fill="#000000" fill-rule="nonzero" fill-opacity="1" /><path clip-path="url(#clip560)" d="M2191.94 573.456 L2191.94 577.437 Q2190.14 576.442 2188.31 575.956 Q2186.5 575.447 2184.65 575.447 Q2180.51 575.447 2178.22 578.085 Q2175.92 580.701 2175.92 585.447 Q2175.92 590.192 2178.22 592.831 Q2180.51 595.446 2184.65 595.446 Q2186.5 595.446 2188.31 594.96 Q2190.14 594.451 2191.94 593.456 L2191.94 597.391 Q2190.16 598.224 2188.24 598.641 Q2186.34 599.058 2184.19 599.058 Q2178.33 599.058 2174.88 595.377 Q2171.43 591.696 2171.43 585.447 Q2171.43 579.104 2174.9 575.47 Q2178.4 571.835 2184.47 571.835 Q2186.43 571.835 2188.31 572.252 Q2190.18 572.646 2191.94 573.456 Z" fill="#000000" fill-rule="nonzero" fill-opacity="1" /><path clip-path="url(#clip560)" d="M2199.53 563.826 L2204.21 563.826 L2204.21 595.979 Q2204.21 602.229 2201.83 605.053 Q2199.46 607.877 2194.21 607.877 L2192.43 607.877 L2192.43 603.942 L2193.89 603.942 Q2196.99 603.942 2198.26 602.206 Q2199.53 600.47 2199.53 595.979 L2199.53 563.826 Z" fill="#000000" fill-rule="nonzero" fill-opacity="1" /><path clip-path="url(#clip560)" d="M2225.11 585.354 Q2219.95 585.354 2217.96 586.534 Q2215.97 587.715 2215.97 590.562 Q2215.97 592.831 2217.45 594.173 Q2218.96 595.493 2221.53 595.493 Q2225.07 595.493 2227.2 592.993 Q2229.35 590.47 2229.35 586.303 L2229.35 585.354 L2225.11 585.354 M2233.61 583.595 L2233.61 598.386 L2229.35 598.386 L2229.35 594.451 Q2227.89 596.812 2225.71 597.946 Q2223.54 599.058 2220.39 599.058 Q2216.41 599.058 2214.05 596.835 Q2211.71 594.59 2211.71 590.84 Q2211.71 586.465 2214.63 584.243 Q2217.57 582.021 2223.38 582.021 L2229.35 582.021 L2229.35 581.604 Q2229.35 578.664 2227.4 577.067 Q2225.48 575.447 2221.99 575.447 Q2219.77 575.447 2217.66 575.979 Q2215.55 576.511 2213.61 577.576 L2213.61 573.641 Q2215.95 572.738 2218.15 572.298 Q2220.34 571.835 2222.43 571.835 Q2228.05 571.835 2230.83 574.752 Q2233.61 577.669 2233.61 583.595 Z" fill="#000000" fill-rule="nonzero" fill-opacity="1" /><path clip-path="url(#clip560)" d="M2261.04 573.456 L2261.04 577.437 Q2259.23 576.442 2257.4 575.956 Q2255.6 575.447 2253.75 575.447 Q2249.6 575.447 2247.31 578.085 Q2245.02 580.701 2245.02 585.447 Q2245.02 590.192 2247.31 592.831 Q2249.6 595.446 2253.75 595.446 Q2255.6 595.446 2257.4 594.96 Q2259.23 594.451 2261.04 593.456 L2261.04 597.391 Q2259.26 598.224 2257.34 598.641 Q2255.44 599.058 2253.28 599.058 Q2247.43 599.058 2243.98 595.377 Q2240.53 591.696 2240.53 585.447 Q2240.53 579.104 2244 575.47 Q2247.5 571.835 2253.56 571.835 Q2255.53 571.835 2257.4 572.252 Q2259.28 572.646 2261.04 573.456 Z" fill="#000000" fill-rule="nonzero" fill-opacity="1" /><polyline clip-path="url(#clip560)" style="stroke:#00a98d; stroke-linecap:round; stroke-linejoin:round; stroke-width:4; stroke-opacity:1; fill:none" stroke-dasharray="2, 4" points="1773.01,632.946 1910.59,632.946 "/>
<circle clip-path="url(#clip560)" cx="1841.8" cy="632.946" r="19.1077" fill="#00a98d" fill-rule="evenodd" fill-opacity="1" stroke="#000000" stroke-opacity="1" stroke-width="4.55111"/>
<path clip-path="url(#clip560)" d="M1949.54 618.838 Q1944.44 618.838 1941.43 622.634 Q1938.45 626.43 1938.45 632.981 Q1938.45 639.509 1941.43 643.305 Q1944.44 647.101 1949.54 647.101 Q1954.63 647.101 1957.59 643.305 Q1960.58 639.509 1960.58 632.981 Q1960.58 626.43 1957.59 622.634 Q1954.63 618.838 1949.54 618.838 M1956.09 649.601 L1962.24 656.337 L1956.6 656.337 L1951.48 650.805 Q1950.72 650.851 1950.3 650.874 Q1949.91 650.898 1949.54 650.898 Q1942.24 650.898 1937.87 646.036 Q1933.52 641.152 1933.52 632.981 Q1933.52 624.787 1937.87 619.926 Q1942.24 615.041 1949.54 615.041 Q1956.8 615.041 1961.16 619.926 Q1965.51 624.787 1965.51 632.981 Q1965.51 638.999 1963.08 643.282 Q1960.67 647.564 1956.09 649.601 Z" fill="#000000" fill-rule="nonzero" fill-opacity="1" /><path clip-path="url(#clip560)" d="M1977.5 633.722 L1977.5 646.384 L1985 646.384 Q1988.77 646.384 1990.58 644.833 Q1992.41 643.259 1992.41 640.041 Q1992.41 636.8 1990.58 635.273 Q1988.77 633.722 1985 633.722 L1977.5 633.722 M1977.5 619.509 L1977.5 629.925 L1984.42 629.925 Q1987.85 629.925 1989.51 628.652 Q1991.2 627.356 1991.2 624.717 Q1991.2 622.101 1989.51 620.805 Q1987.85 619.509 1984.42 619.509 L1977.5 619.509 M1972.82 615.666 L1984.77 615.666 Q1990.11 615.666 1993.01 617.888 Q1995.9 620.111 1995.9 624.208 Q1995.9 627.379 1994.42 629.254 Q1992.94 631.129 1990.07 631.592 Q1993.52 632.333 1995.42 634.694 Q1997.34 637.032 1997.34 640.55 Q1997.34 645.18 1994.19 647.703 Q1991.04 650.226 1985.23 650.226 L1972.82 650.226 L1972.82 615.666 Z" fill="#000000" fill-rule="nonzero" fill-opacity="1" /><path clip-path="url(#clip560)" d="M2010.02 619.509 L2010.02 646.384 L2015.67 646.384 Q2022.82 646.384 2026.13 643.143 Q2029.47 639.902 2029.47 632.912 Q2029.47 625.967 2026.13 622.75 Q2022.82 619.509 2015.67 619.509 L2010.02 619.509 M2005.35 615.666 L2014.95 615.666 Q2025 615.666 2029.7 619.856 Q2034.4 624.023 2034.4 632.912 Q2034.4 641.847 2029.67 646.036 Q2024.95 650.226 2014.95 650.226 L2005.35 650.226 L2005.35 615.666 Z" fill="#000000" fill-rule="nonzero" fill-opacity="1" /><path clip-path="url(#clip560)" d="M2041.85 615.666 L2061.71 615.666 L2061.71 619.601 L2046.53 619.601 L2046.53 629.787 L2060.23 629.787 L2060.23 633.722 L2046.53 633.722 L2046.53 650.226 L2041.85 650.226 L2041.85 615.666 Z" fill="#000000" fill-rule="nonzero" fill-opacity="1" /><polyline clip-path="url(#clip560)" style="stroke:#8e971d; stroke-linecap:round; stroke-linejoin:round; stroke-width:4; stroke-opacity:1; fill:none" stroke-dasharray="2, 4" points="1773.01,684.786 1910.59,684.786 "/>
<circle clip-path="url(#clip560)" cx="1841.8" cy="684.786" r="19.1077" fill="#8e971d" fill-rule="evenodd" fill-opacity="1" stroke="#000000" stroke-opacity="1" stroke-width="4.55111"/>
<path clip-path="url(#clip560)" d="M1949.54 670.678 Q1944.44 670.678 1941.43 674.474 Q1938.45 678.27 1938.45 684.821 Q1938.45 691.349 1941.43 695.145 Q1944.44 698.941 1949.54 698.941 Q1954.63 698.941 1957.59 695.145 Q1960.58 691.349 1960.58 684.821 Q1960.58 678.27 1957.59 674.474 Q1954.63 670.678 1949.54 670.678 M1956.09 701.441 L1962.24 708.177 L1956.6 708.177 L1951.48 702.645 Q1950.72 702.691 1950.3 702.714 Q1949.91 702.738 1949.54 702.738 Q1942.24 702.738 1937.87 697.876 Q1933.52 692.992 1933.52 684.821 Q1933.52 676.627 1937.87 671.766 Q1942.24 666.881 1949.54 666.881 Q1956.8 666.881 1961.16 671.766 Q1965.51 676.627 1965.51 684.821 Q1965.51 690.839 1963.08 695.122 Q1960.67 699.404 1956.09 701.441 Z" fill="#000000" fill-rule="nonzero" fill-opacity="1" /><path clip-path="url(#clip560)" d="M1977.5 685.562 L1977.5 698.224 L1985 698.224 Q1988.77 698.224 1990.58 696.673 Q1992.41 695.099 1992.41 691.881 Q1992.41 688.64 1990.58 687.113 Q1988.77 685.562 1985 685.562 L1977.5 685.562 M1977.5 671.349 L1977.5 681.765 L1984.42 681.765 Q1987.85 681.765 1989.51 680.492 Q1991.2 679.196 1991.2 676.557 Q1991.2 673.941 1989.51 672.645 Q1987.85 671.349 1984.42 671.349 L1977.5 671.349 M1972.82 667.506 L1984.77 667.506 Q1990.11 667.506 1993.01 669.728 Q1995.9 671.951 1995.9 676.048 Q1995.9 679.219 1994.42 681.094 Q1992.94 682.969 1990.07 683.432 Q1993.52 684.173 1995.42 686.534 Q1997.34 688.872 1997.34 692.39 Q1997.34 697.02 1994.19 699.543 Q1991.04 702.066 1985.23 702.066 L1972.82 702.066 L1972.82 667.506 Z" fill="#000000" fill-rule="nonzero" fill-opacity="1" /><path clip-path="url(#clip560)" d="M2010.02 671.349 L2010.02 698.224 L2015.67 698.224 Q2022.82 698.224 2026.13 694.983 Q2029.47 691.742 2029.47 684.752 Q2029.47 677.807 2026.13 674.59 Q2022.82 671.349 2015.67 671.349 L2010.02 671.349 M2005.35 667.506 L2014.95 667.506 Q2025 667.506 2029.7 671.696 Q2034.4 675.863 2034.4 684.752 Q2034.4 693.687 2029.67 697.876 Q2024.95 702.066 2014.95 702.066 L2005.35 702.066 L2005.35 667.506 Z" fill="#000000" fill-rule="nonzero" fill-opacity="1" /><path clip-path="url(#clip560)" d="M2041.85 667.506 L2061.71 667.506 L2061.71 671.441 L2046.53 671.441 L2046.53 681.627 L2060.23 681.627 L2060.23 685.562 L2046.53 685.562 L2046.53 702.066 L2041.85 702.066 L2041.85 667.506 Z" fill="#000000" fill-rule="nonzero" fill-opacity="1" /><path clip-path="url(#clip560)" d="M2088.63 709.937 L2088.63 713.247 L2064 713.247 L2064 709.937 L2088.63 709.937 Z" fill="#000000" fill-rule="nonzero" fill-opacity="1" /><path clip-path="url(#clip560)" d="M2092.64 676.14 L2096.9 676.14 L2096.9 702.529 Q2096.9 707.483 2095 709.705 Q2093.12 711.927 2088.93 711.927 L2087.31 711.927 L2087.31 708.316 L2088.45 708.316 Q2090.88 708.316 2091.76 707.182 Q2092.64 706.071 2092.64 702.529 L2092.64 676.14 M2092.64 666.048 L2096.9 666.048 L2096.9 671.441 L2092.64 671.441 L2092.64 666.048 Z" fill="#000000" fill-rule="nonzero" fill-opacity="1" /><path clip-path="url(#clip560)" d="M2117.59 689.034 Q2112.43 689.034 2110.44 690.214 Q2108.45 691.395 2108.45 694.242 Q2108.45 696.511 2109.93 697.853 Q2111.43 699.173 2114 699.173 Q2117.54 699.173 2119.67 696.673 Q2121.83 694.15 2121.83 689.983 L2121.83 689.034 L2117.59 689.034 M2126.09 687.275 L2126.09 702.066 L2121.83 702.066 L2121.83 698.131 Q2120.37 700.492 2118.19 701.626 Q2116.02 702.738 2112.87 702.738 Q2108.89 702.738 2106.53 700.515 Q2104.19 698.27 2104.19 694.52 Q2104.19 690.145 2107.1 687.923 Q2110.04 685.701 2115.85 685.701 L2121.83 685.701 L2121.83 685.284 Q2121.83 682.344 2119.88 680.747 Q2117.96 679.127 2114.47 679.127 Q2112.24 679.127 2110.14 679.659 Q2108.03 680.191 2106.09 681.256 L2106.09 677.321 Q2108.42 676.418 2110.62 675.978 Q2112.82 675.515 2114.91 675.515 Q2120.53 675.515 2123.31 678.432 Q2126.09 681.349 2126.09 687.275 Z" fill="#000000" fill-rule="nonzero" fill-opacity="1" /><path clip-path="url(#clip560)" d="M2153.52 677.136 L2153.52 681.117 Q2151.71 680.122 2149.88 679.636 Q2148.08 679.127 2146.22 679.127 Q2142.08 679.127 2139.79 681.765 Q2137.5 684.381 2137.5 689.127 Q2137.5 693.872 2139.79 696.511 Q2142.08 699.126 2146.22 699.126 Q2148.08 699.126 2149.88 698.64 Q2151.71 698.131 2153.52 697.136 L2153.52 701.071 Q2151.73 701.904 2149.81 702.321 Q2147.91 702.738 2145.76 702.738 Q2139.91 702.738 2136.46 699.057 Q2133.01 695.376 2133.01 689.127 Q2133.01 682.784 2136.48 679.15 Q2139.97 675.515 2146.04 675.515 Q2148.01 675.515 2149.88 675.932 Q2151.76 676.326 2153.52 677.136 Z" fill="#000000" fill-rule="nonzero" fill-opacity="1" /><polyline clip-path="url(#clip560)" style="stroke:#00a8cb; stroke-linecap:round; stroke-linejoin:round; stroke-width:4; stroke-opacity:1; fill:none" stroke-dasharray="2, 4" points="1773.01,736.626 1910.59,736.626 "/>
<circle clip-path="url(#clip560)" cx="1841.8" cy="736.626" r="19.1077" fill="#00a8cb" fill-rule="evenodd" fill-opacity="1" stroke="#000000" stroke-opacity="1" stroke-width="4.55111"/>
<path clip-path="url(#clip560)" d="M1949.54 722.518 Q1944.44 722.518 1941.43 726.314 Q1938.45 730.11 1938.45 736.661 Q1938.45 743.189 1941.43 746.985 Q1944.44 750.781 1949.54 750.781 Q1954.63 750.781 1957.59 746.985 Q1960.58 743.189 1960.58 736.661 Q1960.58 730.11 1957.59 726.314 Q1954.63 722.518 1949.54 722.518 M1956.09 753.281 L1962.24 760.017 L1956.6 760.017 L1951.48 754.485 Q1950.72 754.531 1950.3 754.554 Q1949.91 754.578 1949.54 754.578 Q1942.24 754.578 1937.87 749.716 Q1933.52 744.832 1933.52 736.661 Q1933.52 728.467 1937.87 723.606 Q1942.24 718.721 1949.54 718.721 Q1956.8 718.721 1961.16 723.606 Q1965.51 728.467 1965.51 736.661 Q1965.51 742.679 1963.08 746.962 Q1960.67 751.244 1956.09 753.281 Z" fill="#000000" fill-rule="nonzero" fill-opacity="1" /><path clip-path="url(#clip560)" d="M1977.5 737.402 L1977.5 750.064 L1985 750.064 Q1988.77 750.064 1990.58 748.513 Q1992.41 746.939 1992.41 743.721 Q1992.41 740.48 1990.58 738.953 Q1988.77 737.402 1985 737.402 L1977.5 737.402 M1977.5 723.189 L1977.5 733.605 L1984.42 733.605 Q1987.85 733.605 1989.51 732.332 Q1991.2 731.036 1991.2 728.397 Q1991.2 725.781 1989.51 724.485 Q1987.85 723.189 1984.42 723.189 L1977.5 723.189 M1972.82 719.346 L1984.77 719.346 Q1990.11 719.346 1993.01 721.568 Q1995.9 723.791 1995.9 727.888 Q1995.9 731.059 1994.42 732.934 Q1992.94 734.809 1990.07 735.272 Q1993.52 736.013 1995.42 738.374 Q1997.34 740.712 1997.34 744.23 Q1997.34 748.86 1994.19 751.383 Q1991.04 753.906 1985.23 753.906 L1972.82 753.906 L1972.82 719.346 Z" fill="#000000" fill-rule="nonzero" fill-opacity="1" /><path clip-path="url(#clip560)" d="M2010.02 723.189 L2010.02 750.064 L2015.67 750.064 Q2022.82 750.064 2026.13 746.823 Q2029.47 743.582 2029.47 736.592 Q2029.47 729.647 2026.13 726.43 Q2022.82 723.189 2015.67 723.189 L2010.02 723.189 M2005.35 719.346 L2014.95 719.346 Q2025 719.346 2029.7 723.536 Q2034.4 727.703 2034.4 736.592 Q2034.4 745.527 2029.67 749.716 Q2024.95 753.906 2014.95 753.906 L2005.35 753.906 L2005.35 719.346 Z" fill="#000000" fill-rule="nonzero" fill-opacity="1" /><path clip-path="url(#clip560)" d="M2041.85 719.346 L2061.71 719.346 L2061.71 723.281 L2046.53 723.281 L2046.53 733.467 L2060.23 733.467 L2060.23 737.402 L2046.53 737.402 L2046.53 753.906 L2041.85 753.906 L2041.85 719.346 Z" fill="#000000" fill-rule="nonzero" fill-opacity="1" /><path clip-path="url(#clip560)" d="M2088.63 761.777 L2088.63 765.087 L2064 765.087 L2064 761.777 L2088.63 761.777 Z" fill="#000000" fill-rule="nonzero" fill-opacity="1" /><path clip-path="url(#clip560)" d="M2096.76 750.017 L2096.76 763.767 L2092.47 763.767 L2092.47 727.98 L2096.76 727.98 L2096.76 731.916 Q2098.1 729.601 2100.14 728.49 Q2102.2 727.355 2105.04 727.355 Q2109.77 727.355 2112.71 731.105 Q2115.67 734.855 2115.67 740.967 Q2115.67 747.078 2112.71 750.828 Q2109.77 754.578 2105.04 754.578 Q2102.2 754.578 2100.14 753.466 Q2098.1 752.332 2096.76 750.017 M2111.25 740.967 Q2111.25 736.267 2109.3 733.605 Q2107.38 730.92 2104 730.92 Q2100.62 730.92 2098.68 733.605 Q2096.76 736.267 2096.76 740.967 Q2096.76 745.666 2098.68 748.351 Q2100.62 751.013 2104 751.013 Q2107.38 751.013 2109.3 748.351 Q2111.25 745.666 2111.25 740.967 Z" fill="#000000" fill-rule="nonzero" fill-opacity="1" /><path clip-path="url(#clip560)" d="M2137.75 731.962 Q2137.03 731.545 2136.18 731.36 Q2135.34 731.152 2134.33 731.152 Q2130.72 731.152 2128.77 733.513 Q2126.85 735.851 2126.85 740.249 L2126.85 753.906 L2122.57 753.906 L2122.57 727.98 L2126.85 727.98 L2126.85 732.008 Q2128.19 729.647 2130.34 728.513 Q2132.5 727.355 2135.58 727.355 Q2136.02 727.355 2136.55 727.425 Q2137.08 727.471 2137.73 727.587 L2137.75 731.962 Z" fill="#000000" fill-rule="nonzero" fill-opacity="1" /><path clip-path="url(#clip560)" d="M2163.35 739.879 L2163.35 741.962 L2143.77 741.962 Q2144.05 746.36 2146.41 748.675 Q2148.79 750.966 2153.03 750.966 Q2155.48 750.966 2157.78 750.365 Q2160.09 749.763 2162.36 748.559 L2162.36 752.587 Q2160.07 753.559 2157.66 754.068 Q2155.25 754.578 2152.78 754.578 Q2146.57 754.578 2142.94 750.966 Q2139.33 747.355 2139.33 741.198 Q2139.33 734.832 2142.75 731.105 Q2146.2 727.355 2152.03 727.355 Q2157.27 727.355 2160.3 730.735 Q2163.35 734.092 2163.35 739.879 M2159.09 738.629 Q2159.05 735.133 2157.13 733.05 Q2155.23 730.967 2152.08 730.967 Q2148.52 730.967 2146.36 732.98 Q2144.23 734.994 2143.91 738.652 L2159.09 738.629 Z" fill="#000000" fill-rule="nonzero" fill-opacity="1" /><path clip-path="url(#clip560)" d="M2189 728.976 L2189 732.957 Q2187.2 731.962 2185.37 731.476 Q2183.56 730.967 2181.71 730.967 Q2177.57 730.967 2175.28 733.605 Q2172.98 736.221 2172.98 740.967 Q2172.98 745.712 2175.28 748.351 Q2177.57 750.966 2181.71 750.966 Q2183.56 750.966 2185.37 750.48 Q2187.2 749.971 2189 748.976 L2189 752.911 Q2187.22 753.744 2185.3 754.161 Q2183.4 754.578 2181.25 754.578 Q2175.39 754.578 2171.94 750.897 Q2168.49 747.216 2168.49 740.967 Q2168.49 734.624 2171.97 730.99 Q2175.46 727.355 2181.53 727.355 Q2183.49 727.355 2185.37 727.772 Q2187.24 728.166 2189 728.976 Z" fill="#000000" fill-rule="nonzero" fill-opacity="1" /><polyline clip-path="url(#clip560)" style="stroke:#9b7fe8; stroke-linecap:round; stroke-linejoin:round; stroke-width:4; stroke-opacity:1; fill:none" stroke-dasharray="2, 4" points="1773.01,788.466 1910.59,788.466 "/>
<circle clip-path="url(#clip560)" cx="1841.8" cy="788.466" r="19.1077" fill="#9b7fe8" fill-rule="evenodd" fill-opacity="1" stroke="#000000" stroke-opacity="1" stroke-width="4.55111"/>
<path clip-path="url(#clip560)" d="M1949.54 774.358 Q1944.44 774.358 1941.43 778.154 Q1938.45 781.95 1938.45 788.501 Q1938.45 795.029 1941.43 798.825 Q1944.44 802.621 1949.54 802.621 Q1954.63 802.621 1957.59 798.825 Q1960.58 795.029 1960.58 788.501 Q1960.58 781.95 1957.59 778.154 Q1954.63 774.358 1949.54 774.358 M1956.09 805.121 L1962.24 811.857 L1956.6 811.857 L1951.48 806.325 Q1950.72 806.371 1950.3 806.394 Q1949.91 806.418 1949.54 806.418 Q1942.24 806.418 1937.87 801.556 Q1933.52 796.672 1933.52 788.501 Q1933.52 780.307 1937.87 775.446 Q1942.24 770.561 1949.54 770.561 Q1956.8 770.561 1961.16 775.446 Q1965.51 780.307 1965.51 788.501 Q1965.51 794.519 1963.08 798.802 Q1960.67 803.084 1956.09 805.121 Z" fill="#000000" fill-rule="nonzero" fill-opacity="1" /><path clip-path="url(#clip560)" d="M1977.5 789.242 L1977.5 801.904 L1985 801.904 Q1988.77 801.904 1990.58 800.353 Q1992.41 798.779 1992.41 795.561 Q1992.41 792.32 1990.58 790.793 Q1988.77 789.242 1985 789.242 L1977.5 789.242 M1977.5 775.029 L1977.5 785.445 L1984.42 785.445 Q1987.85 785.445 1989.51 784.172 Q1991.2 782.876 1991.2 780.237 Q1991.2 777.621 1989.51 776.325 Q1987.85 775.029 1984.42 775.029 L1977.5 775.029 M1972.82 771.186 L1984.77 771.186 Q1990.11 771.186 1993.01 773.408 Q1995.9 775.631 1995.9 779.728 Q1995.9 782.899 1994.42 784.774 Q1992.94 786.649 1990.07 787.112 Q1993.52 787.853 1995.42 790.214 Q1997.34 792.552 1997.34 796.07 Q1997.34 800.7 1994.19 803.223 Q1991.04 805.746 1985.23 805.746 L1972.82 805.746 L1972.82 771.186 Z" fill="#000000" fill-rule="nonzero" fill-opacity="1" /><path clip-path="url(#clip560)" d="M2010.02 775.029 L2010.02 801.904 L2015.67 801.904 Q2022.82 801.904 2026.13 798.663 Q2029.47 795.422 2029.47 788.432 Q2029.47 781.487 2026.13 778.27 Q2022.82 775.029 2015.67 775.029 L2010.02 775.029 M2005.35 771.186 L2014.95 771.186 Q2025 771.186 2029.7 775.376 Q2034.4 779.543 2034.4 788.432 Q2034.4 797.367 2029.67 801.556 Q2024.95 805.746 2014.95 805.746 L2005.35 805.746 L2005.35 771.186 Z" fill="#000000" fill-rule="nonzero" fill-opacity="1" /><path clip-path="url(#clip560)" d="M2041.85 771.186 L2061.71 771.186 L2061.71 775.121 L2046.53 775.121 L2046.53 785.307 L2060.23 785.307 L2060.23 789.242 L2046.53 789.242 L2046.53 805.746 L2041.85 805.746 L2041.85 771.186 Z" fill="#000000" fill-rule="nonzero" fill-opacity="1" /><path clip-path="url(#clip560)" d="M2088.63 813.617 L2088.63 816.927 L2064 816.927 L2064 813.617 L2088.63 813.617 Z" fill="#000000" fill-rule="nonzero" fill-opacity="1" /><path clip-path="url(#clip560)" d="M2096.76 801.857 L2096.76 815.607 L2092.47 815.607 L2092.47 779.82 L2096.76 779.82 L2096.76 783.756 Q2098.1 781.441 2100.14 780.33 Q2102.2 779.195 2105.04 779.195 Q2109.77 779.195 2112.71 782.945 Q2115.67 786.695 2115.67 792.807 Q2115.67 798.918 2112.71 802.668 Q2109.77 806.418 2105.04 806.418 Q2102.2 806.418 2100.14 805.306 Q2098.1 804.172 2096.76 801.857 M2111.25 792.807 Q2111.25 788.107 2109.3 785.445 Q2107.38 782.76 2104 782.76 Q2100.62 782.76 2098.68 785.445 Q2096.76 788.107 2096.76 792.807 Q2096.76 797.506 2098.68 800.191 Q2100.62 802.853 2104 802.853 Q2107.38 802.853 2109.3 800.191 Q2111.25 797.506 2111.25 792.807 Z" fill="#000000" fill-rule="nonzero" fill-opacity="1" /><path clip-path="url(#clip560)" d="M2137.75 783.802 Q2137.03 783.385 2136.18 783.2 Q2135.34 782.992 2134.33 782.992 Q2130.72 782.992 2128.77 785.353 Q2126.85 787.691 2126.85 792.089 L2126.85 805.746 L2122.57 805.746 L2122.57 779.82 L2126.85 779.82 L2126.85 783.848 Q2128.19 781.487 2130.34 780.353 Q2132.5 779.195 2135.58 779.195 Q2136.02 779.195 2136.55 779.265 Q2137.08 779.311 2137.73 779.427 L2137.75 783.802 Z" fill="#000000" fill-rule="nonzero" fill-opacity="1" /><path clip-path="url(#clip560)" d="M2163.35 791.719 L2163.35 793.802 L2143.77 793.802 Q2144.05 798.2 2146.41 800.515 Q2148.79 802.806 2153.03 802.806 Q2155.48 802.806 2157.78 802.205 Q2160.09 801.603 2162.36 800.399 L2162.36 804.427 Q2160.07 805.399 2157.66 805.908 Q2155.25 806.418 2152.78 806.418 Q2146.57 806.418 2142.94 802.806 Q2139.33 799.195 2139.33 793.038 Q2139.33 786.672 2142.75 782.945 Q2146.2 779.195 2152.03 779.195 Q2157.27 779.195 2160.3 782.575 Q2163.35 785.932 2163.35 791.719 M2159.09 790.469 Q2159.05 786.973 2157.13 784.89 Q2155.23 782.807 2152.08 782.807 Q2148.52 782.807 2146.36 784.82 Q2144.23 786.834 2143.91 790.492 L2159.09 790.469 Z" fill="#000000" fill-rule="nonzero" fill-opacity="1" /><path clip-path="url(#clip560)" d="M2189 780.816 L2189 784.797 Q2187.2 783.802 2185.37 783.316 Q2183.56 782.807 2181.71 782.807 Q2177.57 782.807 2175.28 785.445 Q2172.98 788.061 2172.98 792.807 Q2172.98 797.552 2175.28 800.191 Q2177.57 802.806 2181.71 802.806 Q2183.56 802.806 2185.37 802.32 Q2187.2 801.811 2189 800.816 L2189 804.751 Q2187.22 805.584 2185.3 806.001 Q2183.4 806.418 2181.25 806.418 Q2175.39 806.418 2171.94 802.737 Q2168.49 799.056 2168.49 792.807 Q2168.49 786.464 2171.97 782.83 Q2175.46 779.195 2181.53 779.195 Q2183.49 779.195 2185.37 779.612 Q2187.24 780.006 2189 780.816 Z" fill="#000000" fill-rule="nonzero" fill-opacity="1" /><path clip-path="url(#clip560)" d="M2196.59 771.186 L2201.27 771.186 L2201.27 803.339 Q2201.27 809.589 2198.89 812.413 Q2196.53 815.237 2191.27 815.237 L2189.49 815.237 L2189.49 811.302 L2190.95 811.302 Q2194.05 811.302 2195.32 809.566 Q2196.59 807.83 2196.59 803.339 L2196.59 771.186 Z" fill="#000000" fill-rule="nonzero" fill-opacity="1" /><path clip-path="url(#clip560)" d="M2222.17 792.714 Q2217.01 792.714 2215.02 793.894 Q2213.03 795.075 2213.03 797.922 Q2213.03 800.191 2214.51 801.533 Q2216.02 802.853 2218.59 802.853 Q2222.13 802.853 2224.26 800.353 Q2226.41 797.83 2226.41 793.663 L2226.41 792.714 L2222.17 792.714 M2230.67 790.955 L2230.67 805.746 L2226.41 805.746 L2226.41 801.811 Q2224.95 804.172 2222.78 805.306 Q2220.6 806.418 2217.45 806.418 Q2213.47 806.418 2211.11 804.195 Q2208.77 801.95 2208.77 798.2 Q2208.77 793.825 2211.69 791.603 Q2214.63 789.381 2220.44 789.381 L2226.41 789.381 L2226.41 788.964 Q2226.41 786.024 2224.46 784.427 Q2222.54 782.807 2219.05 782.807 Q2216.83 782.807 2214.72 783.339 Q2212.61 783.871 2210.67 784.936 L2210.67 781.001 Q2213.01 780.098 2215.21 779.658 Q2217.4 779.195 2219.49 779.195 Q2225.11 779.195 2227.89 782.112 Q2230.67 785.029 2230.67 790.955 Z" fill="#000000" fill-rule="nonzero" fill-opacity="1" /><path clip-path="url(#clip560)" d="M2258.1 780.816 L2258.1 784.797 Q2256.29 783.802 2254.46 783.316 Q2252.66 782.807 2250.81 782.807 Q2246.66 782.807 2244.37 785.445 Q2242.08 788.061 2242.08 792.807 Q2242.08 797.552 2244.37 800.191 Q2246.66 802.806 2250.81 802.806 Q2252.66 802.806 2254.46 802.32 Q2256.29 801.811 2258.1 800.816 L2258.1 804.751 Q2256.32 805.584 2254.4 806.001 Q2252.5 806.418 2250.34 806.418 Q2244.49 806.418 2241.04 802.737 Q2237.59 799.056 2237.59 792.807 Q2237.59 786.464 2241.06 782.83 Q2244.56 779.195 2250.62 779.195 Q2252.59 779.195 2254.46 779.612 Q2256.34 780.006 2258.1 780.816 Z" fill="#000000" fill-rule="nonzero" fill-opacity="1" /></svg>
