<?xml version="1.0" encoding="utf-8"?>
<svg xmlns="http://www.w3.org/2000/svg" xmlns:xlink="http://www.w3.org/1999/xlink" width="600" height="400" viewBox="0 0 2400 1600">
<defs>
  <clipPath id="clip140">
    <rect x="0" y="0" width="2400" height="1600"/>
  </clipPath>
</defs>
<path clip-path="url(#clip140)" d="M0 1600 L2400 1600 L2400 0 L0 0  Z" fill="#ffffff" fill-rule="evenodd" fill-opacity="1"/>
<defs>
  <clipPath id="clip141">
    <rect x="480" y="0" width="1681" height="1600"/>
  </clipPath>
</defs>
<path clip-path="url(#clip140)" d="M219.866 1423.18 L2352.76 1423.18 L2352.76 123.472 L219.866 123.472  Z" fill="#ffffff" fill-rule="evenodd" fill-opacity="1"/>
<defs>
  <clipPath id="clip142">
    <rect x="219" y="123" width="2134" height="1301"/>
  </clipPath>
</defs>
<polyline clip-path="url(#clip142)" style="stroke:#000000; stroke-linecap:round; stroke-linejoin:round; stroke-width:2; stroke-opacity:0.1; fill:none" points="567.683,1423.18 567.683,123.472 "/>
<polyline clip-path="url(#clip142)" style="stroke:#000000; stroke-linecap:round; stroke-linejoin:round; stroke-width:2; stroke-opacity:0.1; fill:none" points="1142.59,1423.18 1142.59,123.472 "/>
<polyline clip-path="url(#clip142)" style="stroke:#000000; stroke-linecap:round; stroke-linejoin:round; stroke-width:2; stroke-opacity:0.1; fill:none" points="1717.49,1423.18 1717.49,123.472 "/>
<polyline clip-path="url(#clip142)" style="stroke:#000000; stroke-linecap:round; stroke-linejoin:round; stroke-width:2; stroke-opacity:0.1; fill:none" points="2292.39,1423.18 2292.39,123.472 "/>
<polyline clip-path="url(#clip140)" style="stroke:#000000; stroke-linecap:round; stroke-linejoin:round; stroke-width:4; stroke-opacity:1; fill:none" points="219.866,1423.18 2352.76,1423.18 "/>
<polyline clip-path="url(#clip140)" style="stroke:#000000; stroke-linecap:round; stroke-linejoin:round; stroke-width:4; stroke-opacity:1; fill:none" points="567.683,1423.18 567.683,1404.28 "/>
<polyline clip-path="url(#clip140)" style="stroke:#000000; stroke-linecap:round; stroke-linejoin:round; stroke-width:4; stroke-opacity:1; fill:none" points="1142.59,1423.18 1142.59,1404.28 "/>
<polyline clip-path="url(#clip140)" style="stroke:#000000; stroke-linecap:round; stroke-linejoin:round; stroke-width:4; stroke-opacity:1; fill:none" points="1717.49,1423.18 1717.49,1404.28 "/>
<polyline clip-path="url(#clip140)" style="stroke:#000000; stroke-linecap:round; stroke-linejoin:round; stroke-width:4; stroke-opacity:1; fill:none" points="2292.39,1423.18 2292.39,1404.28 "/>
<path clip-path="url(#clip140)" d="M527.289 1481.64 L534.928 1481.64 L534.928 1455.28 L526.618 1456.95 L526.618 1452.69 L534.882 1451.02 L539.558 1451.02 L539.558 1481.64 L547.196 1481.64 L547.196 1485.58 L527.289 1485.58 L527.289 1481.64 Z" fill="#000000" fill-rule="nonzero" fill-opacity="1" /><path clip-path="url(#clip140)" d="M566.641 1454.1 Q563.03 1454.1 561.201 1457.66 Q559.396 1461.2 559.396 1468.33 Q559.396 1475.44 561.201 1479.01 Q563.03 1482.55 566.641 1482.55 Q570.275 1482.55 572.081 1479.01 Q573.909 1475.44 573.909 1468.33 Q573.909 1461.2 572.081 1457.66 Q570.275 1454.1 566.641 1454.1 M566.641 1450.39 Q572.451 1450.39 575.507 1455 Q578.585 1459.58 578.585 1468.33 Q578.585 1477.06 575.507 1481.67 Q572.451 1486.25 566.641 1486.25 Q560.831 1486.25 557.752 1481.67 Q554.696 1477.06 554.696 1468.33 Q554.696 1459.58 557.752 1455 Q560.831 1450.39 566.641 1450.39 Z" fill="#000000" fill-rule="nonzero" fill-opacity="1" /><path clip-path="url(#clip140)" d="M596.803 1454.1 Q593.192 1454.1 591.363 1457.66 Q589.557 1461.2 589.557 1468.33 Q589.557 1475.44 591.363 1479.01 Q593.192 1482.55 596.803 1482.55 Q600.437 1482.55 602.243 1479.01 Q604.071 1475.44 604.071 1468.33 Q604.071 1461.2 602.243 1457.66 Q600.437 1454.1 596.803 1454.1 M596.803 1450.39 Q602.613 1450.39 605.668 1455 Q608.747 1459.58 608.747 1468.33 Q608.747 1477.06 605.668 1481.67 Q602.613 1486.25 596.803 1486.25 Q590.993 1486.25 587.914 1481.67 Q584.858 1477.06 584.858 1468.33 Q584.858 1459.58 587.914 1455 Q590.993 1450.39 596.803 1450.39 Z" fill="#000000" fill-rule="nonzero" fill-opacity="1" /><path clip-path="url(#clip140)" d="M1106.28 1481.64 L1122.6 1481.64 L1122.6 1485.58 L1100.65 1485.58 L1100.65 1481.64 Q1103.31 1478.89 1107.9 1474.26 Q1112.5 1469.61 1113.69 1468.27 Q1115.93 1465.74 1116.81 1464.01 Q1117.71 1462.25 1117.71 1460.56 Q1117.71 1457.8 1115.77 1456.07 Q1113.85 1454.33 1110.75 1454.33 Q1108.55 1454.33 1106.09 1455.09 Q1103.66 1455.86 1100.88 1457.41 L1100.88 1452.69 Q1103.71 1451.55 1106.16 1450.97 Q1108.62 1450.39 1110.65 1450.39 Q1116.02 1450.39 1119.22 1453.08 Q1122.41 1455.77 1122.41 1460.26 Q1122.41 1462.39 1121.6 1464.31 Q1120.81 1466.2 1118.71 1468.8 Q1118.13 1469.47 1115.03 1472.69 Q1111.93 1475.88 1106.28 1481.64 Z" fill="#000000" fill-rule="nonzero" fill-opacity="1" /><path clip-path="url(#clip140)" d="M1142.41 1454.1 Q1138.8 1454.1 1136.97 1457.66 Q1135.17 1461.2 1135.17 1468.33 Q1135.17 1475.44 1136.97 1479.01 Q1138.8 1482.55 1142.41 1482.55 Q1146.05 1482.55 1147.85 1479.01 Q1149.68 1475.44 1149.68 1468.33 Q1149.68 1461.2 1147.85 1457.66 Q1146.05 1454.1 1142.41 1454.1 M1142.41 1450.39 Q1148.22 1450.39 1151.28 1455 Q1154.36 1459.58 1154.36 1468.33 Q1154.36 1477.06 1151.28 1481.67 Q1148.22 1486.25 1142.41 1486.25 Q1136.6 1486.25 1133.52 1481.67 Q1130.47 1477.06 1130.47 1468.33 Q1130.47 1459.58 1133.52 1455 Q1136.6 1450.39 1142.41 1450.39 Z" fill="#000000" fill-rule="nonzero" fill-opacity="1" /><path clip-path="url(#clip140)" d="M1172.57 1454.1 Q1168.96 1454.1 1167.13 1457.66 Q1165.33 1461.2 1165.33 1468.33 Q1165.33 1475.44 1167.13 1479.01 Q1168.96 1482.55 1172.57 1482.55 Q1176.21 1482.55 1178.01 1479.01 Q1179.84 1475.44 1179.84 1468.33 Q1179.84 1461.2 1178.01 1457.66 Q1176.21 1454.1 1172.57 1454.1 M1172.57 1450.39 Q1178.38 1450.39 1181.44 1455 Q1184.52 1459.58 1184.52 1468.33 Q1184.52 1477.06 1181.44 1481.67 Q1178.38 1486.25 1172.57 1486.25 Q1166.76 1486.25 1163.68 1481.67 Q1160.63 1477.06 1160.63 1468.33 Q1160.63 1459.58 1163.68 1455 Q1166.76 1450.39 1172.57 1450.39 Z" fill="#000000" fill-rule="nonzero" fill-opacity="1" /><path clip-path="url(#clip140)" d="M1691.25 1466.95 Q1694.61 1467.66 1696.48 1469.93 Q1698.38 1472.2 1698.38 1475.53 Q1698.38 1480.65 1694.86 1483.45 Q1691.34 1486.25 1684.86 1486.25 Q1682.69 1486.25 1680.37 1485.81 Q1678.08 1485.39 1675.63 1484.54 L1675.63 1480.02 Q1677.57 1481.16 1679.88 1481.74 Q1682.2 1482.32 1684.72 1482.32 Q1689.12 1482.32 1691.41 1480.58 Q1693.73 1478.84 1693.73 1475.53 Q1693.73 1472.48 1691.57 1470.77 Q1689.44 1469.03 1685.62 1469.03 L1681.6 1469.03 L1681.6 1465.19 L1685.81 1465.19 Q1689.26 1465.19 1691.09 1463.82 Q1692.92 1462.43 1692.92 1459.84 Q1692.92 1457.18 1691.02 1455.77 Q1689.14 1454.33 1685.62 1454.33 Q1683.7 1454.33 1681.5 1454.75 Q1679.31 1455.16 1676.67 1456.04 L1676.67 1451.88 Q1679.33 1451.14 1681.64 1450.77 Q1683.98 1450.39 1686.04 1450.39 Q1691.37 1450.39 1694.47 1452.83 Q1697.57 1455.23 1697.57 1459.35 Q1697.57 1462.22 1695.93 1464.21 Q1694.28 1466.18 1691.25 1466.95 Z" fill="#000000" fill-rule="nonzero" fill-opacity="1" /><path clip-path="url(#clip140)" d="M1717.25 1454.1 Q1713.63 1454.1 1711.81 1457.66 Q1710 1461.2 1710 1468.33 Q1710 1475.44 1711.81 1479.01 Q1713.63 1482.55 1717.25 1482.55 Q1720.88 1482.55 1722.68 1479.01 Q1724.51 1475.44 1724.51 1468.33 Q1724.51 1461.2 1722.68 1457.66 Q1720.88 1454.1 1717.25 1454.1 M1717.25 1450.39 Q1723.06 1450.39 1726.11 1455 Q1729.19 1459.58 1729.19 1468.33 Q1729.19 1477.06 1726.11 1481.67 Q1723.06 1486.25 1717.25 1486.25 Q1711.44 1486.25 1708.36 1481.67 Q1705.3 1477.06 1705.3 1468.33 Q1705.3 1459.58 1708.36 1455 Q1711.44 1450.39 1717.25 1450.39 Z" fill="#000000" fill-rule="nonzero" fill-opacity="1" /><path clip-path="url(#clip140)" d="M1747.41 1454.1 Q1743.8 1454.1 1741.97 1457.66 Q1740.16 1461.2 1740.16 1468.33 Q1740.16 1475.44 1741.97 1479.01 Q1743.8 1482.55 1747.41 1482.55 Q1751.04 1482.55 1752.85 1479.01 Q1754.68 1475.44 1754.68 1468.33 Q1754.68 1461.2 1752.85 1457.66 Q1751.04 1454.1 1747.41 1454.1 M1747.41 1450.39 Q1753.22 1450.39 1756.27 1455 Q1759.35 1459.58 1759.35 1468.33 Q1759.35 1477.06 1756.27 1481.67 Q1753.22 1486.25 1747.41 1486.25 Q1741.6 1486.25 1738.52 1481.67 Q1735.46 1477.06 1735.46 1468.33 Q1735.46 1459.58 1738.52 1455 Q1741.6 1450.39 1747.41 1450.39 Z" fill="#000000" fill-rule="nonzero" fill-opacity="1" /><path clip-path="url(#clip140)" d="M2265.48 1455.09 L2253.68 1473.54 L2265.48 1473.54 L2265.48 1455.09 M2264.25 1451.02 L2270.13 1451.02 L2270.13 1473.54 L2275.06 1473.54 L2275.06 1477.43 L2270.13 1477.43 L2270.13 1485.58 L2265.48 1485.58 L2265.48 1477.43 L2249.88 1477.43 L2249.88 1472.92 L2264.25 1451.02 Z" fill="#000000" fill-rule="nonzero" fill-opacity="1" /><path clip-path="url(#clip140)" d="M2292.8 1454.1 Q2289.19 1454.1 2287.36 1457.66 Q2285.55 1461.2 2285.55 1468.33 Q2285.55 1475.44 2287.36 1479.01 Q2289.19 1482.55 2292.8 1482.55 Q2296.43 1482.55 2298.24 1479.01 Q2300.06 1475.44 2300.06 1468.33 Q2300.06 1461.2 2298.24 1457.66 Q2296.43 1454.1 2292.8 1454.1 M2292.8 1450.39 Q2298.61 1450.39 2301.66 1455 Q2304.74 1459.58 2304.74 1468.33 Q2304.74 1477.06 2301.66 1481.67 Q2298.61 1486.25 2292.8 1486.25 Q2286.99 1486.25 2283.91 1481.67 Q2280.85 1477.06 2280.85 1468.33 Q2280.85 1459.58 2283.91 1455 Q2286.99 1450.39 2292.8 1450.39 Z" fill="#000000" fill-rule="nonzero" fill-opacity="1" /><path clip-path="url(#clip140)" d="M2322.96 1454.1 Q2319.35 1454.1 2317.52 1457.66 Q2315.71 1461.2 2315.71 1468.33 Q2315.71 1475.44 2317.52 1479.01 Q2319.35 1482.55 2322.96 1482.55 Q2326.59 1482.55 2328.4 1479.01 Q2330.23 1475.44 2330.23 1468.33 Q2330.23 1461.2 2328.4 1457.66 Q2326.59 1454.1 2322.96 1454.1 M2322.96 1450.39 Q2328.77 1450.39 2331.82 1455 Q2334.9 1459.58 2334.9 1468.33 Q2334.9 1477.06 2331.82 1481.67 Q2328.77 1486.25 2322.96 1486.25 Q2317.15 1486.25 2314.07 1481.67 Q2311.01 1477.06 2311.01 1468.33 Q2311.01 1459.58 2314.07 1455 Q2317.15 1450.39 2322.96 1450.39 Z" fill="#000000" fill-rule="nonzero" fill-opacity="1" /><path clip-path="url(#clip140)" d="M1228.34 1525.81 L1228.34 1562.76 L1236.1 1562.76 Q1245.94 1562.76 1250.49 1558.3 Q1255.07 1553.85 1255.07 1544.24 Q1255.07 1534.69 1250.49 1530.26 Q1245.94 1525.81 1236.1 1525.81 L1228.34 1525.81 M1221.91 1520.52 L1235.11 1520.52 Q1248.93 1520.52 1255.39 1526.28 Q1261.85 1532.01 1261.85 1544.24 Q1261.85 1556.52 1255.36 1562.28 Q1248.86 1568.04 1235.11 1568.04 L1221.91 1568.04 L1221.91 1520.52 Z" fill="#000000" fill-rule="nonzero" fill-opacity="1" /><path clip-path="url(#clip140)" d="M1291.39 1524.88 Q1284.39 1524.88 1280.25 1530.1 Q1276.14 1535.32 1276.14 1544.33 Q1276.14 1553.31 1280.25 1558.53 Q1284.39 1563.75 1291.39 1563.75 Q1298.39 1563.75 1302.46 1558.53 Q1306.57 1553.31 1306.57 1544.33 Q1306.57 1535.32 1302.46 1530.1 Q1298.39 1524.88 1291.39 1524.88 M1291.39 1519.66 Q1301.38 1519.66 1307.37 1526.38 Q1313.35 1533.06 1313.35 1544.33 Q1313.35 1555.57 1307.37 1562.28 Q1301.38 1568.97 1291.39 1568.97 Q1281.36 1568.97 1275.35 1562.28 Q1269.36 1555.6 1269.36 1544.33 Q1269.36 1533.06 1275.35 1526.38 Q1281.36 1519.66 1291.39 1519.66 Z" fill="#000000" fill-rule="nonzero" fill-opacity="1" /><path clip-path="url(#clip140)" d="M1323.41 1520.52 L1350.72 1520.52 L1350.72 1525.93 L1329.84 1525.93 L1329.84 1539.94 L1348.68 1539.94 L1348.68 1545.35 L1329.84 1545.35 L1329.84 1568.04 L1323.41 1568.04 L1323.41 1520.52 Z" fill="#000000" fill-rule="nonzero" fill-opacity="1" /><polyline clip-path="url(#clip142)" style="stroke:#000000; stroke-linecap:round; stroke-linejoin:round; stroke-width:2; stroke-opacity:0.1; fill:none" points="219.866,1158.36 2352.76,1158.36 "/>
<polyline clip-path="url(#clip142)" style="stroke:#000000; stroke-linecap:round; stroke-linejoin:round; stroke-width:2; stroke-opacity:0.1; fill:none" points="219.866,840.736 2352.76,840.736 "/>
<polyline clip-path="url(#clip142)" style="stroke:#000000; stroke-linecap:round; stroke-linejoin:round; stroke-width:2; stroke-opacity:0.1; fill:none" points="219.866,523.115 2352.76,523.115 "/>
<polyline clip-path="url(#clip142)" style="stroke:#000000; stroke-linecap:round; stroke-linejoin:round; stroke-width:2; stroke-opacity:0.1; fill:none" points="219.866,205.494 2352.76,205.494 "/>
<polyline clip-path="url(#clip140)" style="stroke:#000000; stroke-linecap:round; stroke-linejoin:round; stroke-width:4; stroke-opacity:1; fill:none" points="219.866,1423.18 219.866,123.472 "/>
<polyline clip-path="url(#clip140)" style="stroke:#000000; stroke-linecap:round; stroke-linejoin:round; stroke-width:4; stroke-opacity:1; fill:none" points="219.866,1158.36 238.764,1158.36 "/>
<polyline clip-path="url(#clip140)" style="stroke:#000000; stroke-linecap:round; stroke-linejoin:round; stroke-width:4; stroke-opacity:1; fill:none" points="219.866,840.736 238.764,840.736 "/>
<polyline clip-path="url(#clip140)" style="stroke:#000000; stroke-linecap:round; stroke-linejoin:round; stroke-width:4; stroke-opacity:1; fill:none" points="219.866,523.115 238.764,523.115 "/>
<polyline clip-path="url(#clip140)" style="stroke:#000000; stroke-linecap:round; stroke-linejoin:round; stroke-width:4; stroke-opacity:1; fill:none" points="219.866,205.494 238.764,205.494 "/>
<path clip-path="url(#clip140)" d="M127.917 1144.16 Q124.306 1144.16 122.478 1147.72 Q120.672 1151.26 120.672 1158.39 Q120.672 1165.5 122.478 1169.06 Q124.306 1172.6 127.917 1172.6 Q131.552 1172.6 133.357 1169.06 Q135.186 1165.5 135.186 1158.39 Q135.186 1151.26 133.357 1147.72 Q131.552 1144.16 127.917 1144.16 M127.917 1140.45 Q133.728 1140.45 136.783 1145.06 Q139.862 1149.64 139.862 1158.39 Q139.862 1167.12 136.783 1171.73 Q133.728 1176.31 127.917 1176.31 Q122.107 1176.31 119.029 1171.73 Q115.973 1167.12 115.973 1158.39 Q115.973 1149.64 119.029 1145.06 Q122.107 1140.45 127.917 1140.45 Z" fill="#000000" fill-rule="nonzero" fill-opacity="1" /><path clip-path="url(#clip140)" d="M148.079 1169.76 L152.964 1169.76 L152.964 1175.64 L148.079 1175.64 L148.079 1169.76 Z" fill="#000000" fill-rule="nonzero" fill-opacity="1" /><path clip-path="url(#clip140)" d="M163.959 1171.7 L171.598 1171.7 L171.598 1145.34 L163.288 1147 L163.288 1142.74 L171.552 1141.08 L176.227 1141.08 L176.227 1171.7 L183.866 1171.7 L183.866 1175.64 L163.959 1175.64 L163.959 1171.7 Z" fill="#000000" fill-rule="nonzero" fill-opacity="1" /><path clip-path="url(#clip140)" d="M128.288 826.535 Q124.677 826.535 122.848 830.1 Q121.043 833.641 121.043 840.771 Q121.043 847.877 122.848 851.442 Q124.677 854.984 128.288 854.984 Q131.922 854.984 133.728 851.442 Q135.556 847.877 135.556 840.771 Q135.556 833.641 133.728 830.1 Q131.922 826.535 128.288 826.535 M128.288 822.831 Q134.098 822.831 137.154 827.438 Q140.232 832.021 140.232 840.771 Q140.232 849.498 137.154 854.104 Q134.098 858.688 128.288 858.688 Q122.478 858.688 119.399 854.104 Q116.343 849.498 116.343 840.771 Q116.343 832.021 119.399 827.438 Q122.478 822.831 128.288 822.831 Z" fill="#000000" fill-rule="nonzero" fill-opacity="1" /><path clip-path="url(#clip140)" d="M148.45 852.137 L153.334 852.137 L153.334 858.016 L148.45 858.016 L148.45 852.137 Z" fill="#000000" fill-rule="nonzero" fill-opacity="1" /><path clip-path="url(#clip140)" d="M167.547 854.081 L183.866 854.081 L183.866 858.016 L161.922 858.016 L161.922 854.081 Q164.584 851.327 169.167 846.697 Q173.774 842.044 174.954 840.702 Q177.2 838.178 178.079 836.442 Q178.982 834.683 178.982 832.993 Q178.982 830.239 177.038 828.503 Q175.116 826.766 172.014 826.766 Q169.815 826.766 167.362 827.53 Q164.931 828.294 162.153 829.845 L162.153 825.123 Q164.977 823.989 167.431 823.41 Q169.885 822.831 171.922 822.831 Q177.292 822.831 180.487 825.516 Q183.681 828.202 183.681 832.692 Q183.681 834.822 182.871 836.743 Q182.084 838.641 179.977 841.234 Q179.399 841.905 176.297 845.123 Q173.195 848.317 167.547 854.081 Z" fill="#000000" fill-rule="nonzero" fill-opacity="1" /><path clip-path="url(#clip140)" d="M127.339 508.914 Q123.728 508.914 121.899 512.479 Q120.093 516.02 120.093 523.15 Q120.093 530.256 121.899 533.821 Q123.728 537.363 127.339 537.363 Q130.973 537.363 132.779 533.821 Q134.607 530.256 134.607 523.15 Q134.607 516.02 132.779 512.479 Q130.973 508.914 127.339 508.914 M127.339 505.21 Q133.149 505.21 136.204 509.817 Q139.283 514.4 139.283 523.15 Q139.283 531.877 136.204 536.483 Q133.149 541.067 127.339 541.067 Q121.529 541.067 118.45 536.483 Q115.394 531.877 115.394 523.15 Q115.394 514.4 118.45 509.817 Q121.529 505.21 127.339 505.21 Z" fill="#000000" fill-rule="nonzero" fill-opacity="1" /><path clip-path="url(#clip140)" d="M147.501 534.516 L152.385 534.516 L152.385 540.395 L147.501 540.395 L147.501 534.516 Z" fill="#000000" fill-rule="nonzero" fill-opacity="1" /><path clip-path="url(#clip140)" d="M176.737 521.761 Q180.093 522.479 181.968 524.747 Q183.866 527.016 183.866 530.349 Q183.866 535.465 180.348 538.266 Q176.829 541.067 170.348 541.067 Q168.172 541.067 165.857 540.627 Q163.565 540.21 161.112 539.354 L161.112 534.84 Q163.056 535.974 165.371 536.553 Q167.686 537.131 170.209 537.131 Q174.607 537.131 176.899 535.395 Q179.214 533.659 179.214 530.349 Q179.214 527.293 177.061 525.58 Q174.931 523.844 171.112 523.844 L167.084 523.844 L167.084 520.002 L171.297 520.002 Q174.746 520.002 176.575 518.636 Q178.403 517.247 178.403 514.655 Q178.403 511.993 176.505 510.581 Q174.63 509.145 171.112 509.145 Q169.19 509.145 166.991 509.562 Q164.792 509.979 162.153 510.858 L162.153 506.692 Q164.815 505.951 167.13 505.581 Q169.468 505.21 171.528 505.21 Q176.852 505.21 179.954 507.641 Q183.056 510.048 183.056 514.168 Q183.056 517.039 181.413 519.03 Q179.769 520.997 176.737 521.761 Z" fill="#000000" fill-rule="nonzero" fill-opacity="1" /><path clip-path="url(#clip140)" d="M126.205 191.293 Q122.593 191.293 120.765 194.858 Q118.959 198.399 118.959 205.529 Q118.959 212.635 120.765 216.2 Q122.593 219.742 126.205 219.742 Q129.839 219.742 131.644 216.2 Q133.473 212.635 133.473 205.529 Q133.473 198.399 131.644 194.858 Q129.839 191.293 126.205 191.293 M126.205 187.589 Q132.015 187.589 135.07 192.196 Q138.149 196.779 138.149 205.529 Q138.149 214.256 135.07 218.862 Q132.015 223.445 126.205 223.445 Q120.394 223.445 117.316 218.862 Q114.26 214.256 114.26 205.529 Q114.26 196.779 117.316 192.196 Q120.394 187.589 126.205 187.589 Z" fill="#000000" fill-rule="nonzero" fill-opacity="1" /><path clip-path="url(#clip140)" d="M146.366 216.895 L151.251 216.895 L151.251 222.774 L146.366 222.774 L146.366 216.895 Z" fill="#000000" fill-rule="nonzero" fill-opacity="1" /><path clip-path="url(#clip140)" d="M174.283 192.288 L162.477 210.737 L174.283 210.737 L174.283 192.288 M173.056 188.214 L178.936 188.214 L178.936 210.737 L183.866 210.737 L183.866 214.626 L178.936 214.626 L178.936 222.774 L174.283 222.774 L174.283 214.626 L158.681 214.626 L158.681 210.112 L173.056 188.214 Z" fill="#000000" fill-rule="nonzero" fill-opacity="1" /><path clip-path="url(#clip140)" d="M41.7242 933.694 Q42.4244 931.625 44.7161 929.684 Q47.0077 927.71 51.0181 925.737 L64.0042 919.212 L64.0042 926.119 L51.8138 932.198 Q47.0395 934.553 45.48 936.781 Q43.9204 938.978 43.9204 942.797 L43.9204 949.799 L64.0042 949.799 L64.0042 956.229 L16.4842 956.229 L16.4842 941.715 Q16.4842 933.567 19.8898 929.556 Q23.2955 925.546 30.1704 925.546 Q34.6582 925.546 37.6183 927.647 Q40.5784 929.715 41.7242 933.694 M21.7677 949.799 L38.6368 949.799 L38.6368 941.715 Q38.6368 937.068 36.5043 934.713 Q34.34 932.325 30.1704 932.325 Q26.0009 932.325 23.9002 934.713 Q21.7677 937.068 21.7677 941.715 L21.7677 949.799 Z" fill="#000000" fill-rule="nonzero" fill-opacity="1" /><path clip-path="url(#clip140)" d="M49.9359 914.724 L28.3562 914.724 L28.3562 908.868 L49.7131 908.868 Q54.7739 908.868 57.3202 906.894 Q59.8346 904.921 59.8346 900.974 Q59.8346 896.232 56.8109 893.495 Q53.7872 890.726 48.5673 890.726 L28.3562 890.726 L28.3562 884.869 L64.0042 884.869 L64.0042 890.726 L58.5296 890.726 Q61.7762 892.858 63.3676 895.691 Q64.9272 898.492 64.9272 902.216 Q64.9272 908.359 61.1078 911.541 Q57.2883 914.724 49.9359 914.724 M27.4968 899.988 L27.4968 899.988 Z" fill="#000000" fill-rule="nonzero" fill-opacity="1" /><path clip-path="url(#clip140)" d="M42.4881 843.174 L64.0042 843.174 L64.0042 849.03 L42.679 849.03 Q37.6183 849.03 35.1038 851.004 Q32.5894 852.977 32.5894 856.924 Q32.5894 861.666 35.6131 864.403 Q38.6368 867.141 43.8567 867.141 L64.0042 867.141 L64.0042 873.029 L28.3562 873.029 L28.3562 867.141 L33.8944 867.141 Q30.6797 865.04 29.0883 862.207 Q27.4968 859.343 27.4968 855.619 Q27.4968 849.476 31.3163 846.325 Q35.1038 843.174 42.4881 843.174 Z" fill="#000000" fill-rule="nonzero" fill-opacity="1" /><path clip-path="url(#clip140)" d="M18.2347 825.7 L28.3562 825.7 L28.3562 813.637 L32.9077 813.637 L32.9077 825.7 L52.2594 825.7 Q56.6199 825.7 57.8613 824.522 Q59.1026 823.313 59.1026 819.652 L59.1026 813.637 L64.0042 813.637 L64.0042 819.652 Q64.0042 826.432 61.4897 829.01 Q58.9434 831.588 52.2594 831.588 L32.9077 831.588 L32.9077 835.885 L28.3562 835.885 L28.3562 831.588 L18.2347 831.588 L18.2347 825.7 Z" fill="#000000" fill-rule="nonzero" fill-opacity="1" /><path clip-path="url(#clip140)" d="M28.3562 805.934 L28.3562 800.078 L64.0042 800.078 L64.0042 805.934 L28.3562 805.934 M14.479 805.934 L14.479 800.078 L21.895 800.078 L21.895 805.934 L14.479 805.934 Z" fill="#000000" fill-rule="nonzero" fill-opacity="1" /><path clip-path="url(#clip140)" d="M35.1993 760.069 Q31.2526 757.873 29.3747 754.818 Q27.4968 751.762 27.4968 747.624 Q27.4968 742.054 31.4117 739.031 Q35.2948 736.007 42.4881 736.007 L64.0042 736.007 L64.0042 741.895 L42.679 741.895 Q37.5546 741.895 35.072 743.71 Q32.5894 745.524 32.5894 749.248 Q32.5894 753.799 35.6131 756.441 Q38.6368 759.083 43.8567 759.083 L64.0042 759.083 L64.0042 764.971 L42.679 764.971 Q37.5228 764.971 35.072 766.785 Q32.5894 768.599 32.5894 772.387 Q32.5894 776.875 35.6449 779.517 Q38.6686 782.158 43.8567 782.158 L64.0042 782.158 L64.0042 788.047 L28.3562 788.047 L28.3562 782.158 L33.8944 782.158 Q30.616 780.153 29.0564 777.352 Q27.4968 774.551 27.4968 770.7 Q27.4968 766.817 29.4702 764.112 Q31.4436 761.374 35.1993 760.069 Z" fill="#000000" fill-rule="nonzero" fill-opacity="1" /><path clip-path="url(#clip140)" d="M44.7161 693.834 L47.5806 693.834 L47.5806 720.761 Q53.6281 720.379 56.8109 717.133 Q59.9619 713.854 59.9619 708.03 Q59.9619 704.656 59.1344 701.505 Q58.3069 698.322 56.6518 695.203 L62.1899 695.203 Q63.5267 698.354 64.227 701.664 Q64.9272 704.974 64.9272 708.38 Q64.9272 716.91 59.9619 721.907 Q54.9967 726.872 46.5303 726.872 Q37.7774 726.872 32.6531 722.162 Q27.4968 717.419 27.4968 709.398 Q27.4968 702.205 32.1438 698.036 Q36.7589 693.834 44.7161 693.834 M42.9973 699.691 Q38.1912 699.754 35.3266 702.396 Q32.4621 705.006 32.4621 709.335 Q32.4621 714.236 35.2312 717.196 Q38.0002 720.125 43.0292 720.57 L42.9973 699.691 Z" fill="#000000" fill-rule="nonzero" fill-opacity="1" /><path clip-path="url(#clip140)" d="M14.5426 649.433 Q21.8632 653.698 29.0246 655.767 Q36.186 657.836 43.5384 657.836 Q50.8908 657.836 58.1159 655.767 Q65.3091 653.667 72.5979 649.433 L72.5979 654.526 Q65.1182 659.3 57.8931 661.687 Q50.668 664.043 43.5384 664.043 Q36.4406 664.043 29.2474 661.687 Q22.0542 659.332 14.5426 654.526 L14.5426 649.433 Z" fill="#000000" fill-rule="nonzero" fill-opacity="1" /><path clip-path="url(#clip140)" d="M29.4065 615.345 L34.9447 615.345 Q33.6716 617.828 33.035 620.501 Q32.3984 623.175 32.3984 626.039 Q32.3984 630.4 33.7352 632.596 Q35.072 634.76 37.7456 634.76 Q39.7826 634.76 40.9603 633.201 Q42.1061 631.641 43.1565 626.931 L43.6021 624.925 Q44.9389 618.687 47.3897 616.077 Q49.8086 613.435 54.1691 613.435 Q59.1344 613.435 62.0308 617.382 Q64.9272 621.297 64.9272 628.172 Q64.9272 631.037 64.3543 634.156 Q63.8132 637.243 62.6992 640.681 L56.6518 640.681 Q58.3387 637.434 59.198 634.283 Q60.0256 631.132 60.0256 628.045 Q60.0256 623.907 58.6251 621.679 Q57.1929 619.451 54.6147 619.451 Q52.2276 619.451 50.9545 621.074 Q49.6813 622.666 48.5037 628.108 L48.0262 630.145 Q46.8804 635.588 44.5251 638.007 Q42.138 640.426 38.0002 640.426 Q32.9713 640.426 30.2341 636.861 Q27.4968 633.296 27.4968 626.74 Q27.4968 623.493 27.9743 620.629 Q28.4517 617.764 29.4065 615.345 Z" fill="#000000" fill-rule="nonzero" fill-opacity="1" /><path clip-path="url(#clip140)" d="M14.5426 605.033 L14.5426 599.94 Q22.0542 595.166 29.2474 592.81 Q36.4406 590.423 43.5384 590.423 Q50.668 590.423 57.8931 592.81 Q65.1182 595.166 72.5979 599.94 L72.5979 605.033 Q65.3091 600.799 58.1159 598.731 Q50.8908 596.63 43.5384 596.63 Q36.186 596.63 29.0246 598.731 Q21.8632 600.799 14.5426 605.033 Z" fill="#000000" fill-rule="nonzero" fill-opacity="1" /><path clip-path="url(#clip140)" d="M1148.01 44.2197 Q1150.65 45.1109 1153.12 48.0275 Q1155.63 50.9442 1158.14 56.0483 L1166.44 72.576 L1157.65 72.576 L1149.92 57.061 Q1146.92 50.9847 1144.08 48.9997 Q1141.29 47.0148 1136.43 47.0148 L1127.52 47.0148 L1127.52 72.576 L1119.33 72.576 L1119.33 12.096 L1137.8 12.096 Q1148.18 12.096 1153.28 16.4305 Q1158.38 20.7649 1158.38 29.5149 Q1158.38 35.2267 1155.71 38.994 Q1153.08 42.7613 1148.01 44.2197 M1127.52 18.8205 L1127.52 40.2903 L1137.8 40.2903 Q1143.72 40.2903 1146.72 37.5762 Q1149.76 34.8216 1149.76 29.5149 Q1149.76 24.2082 1146.72 21.5346 Q1143.72 18.8205 1137.8 18.8205 L1127.52 18.8205 Z" fill="#000000" fill-rule="nonzero" fill-opacity="1" /><path clip-path="url(#clip140)" d="M1172.16 54.671 L1172.16 27.2059 L1179.61 27.2059 L1179.61 54.3874 Q1179.61 60.8284 1182.12 64.0691 Q1184.63 67.2693 1189.66 67.2693 Q1195.69 67.2693 1199.18 63.421 Q1202.7 59.5726 1202.7 52.9291 L1202.7 27.2059 L1210.15 27.2059 L1210.15 72.576 L1202.7 72.576 L1202.7 65.6084 Q1199.99 69.7404 1196.38 71.7658 Q1192.82 73.7508 1188.08 73.7508 Q1180.26 73.7508 1176.21 68.8897 Q1172.16 64.0286 1172.16 54.671 M1190.91 26.1121 L1190.91 26.1121 Z" fill="#000000" fill-rule="nonzero" fill-opacity="1" /><path clip-path="url(#clip140)" d="M1263.22 45.1919 L1263.22 72.576 L1255.77 72.576 L1255.77 45.4349 Q1255.77 38.994 1253.26 35.7938 Q1250.74 32.5936 1245.72 32.5936 Q1239.69 32.5936 1236.2 36.4419 Q1232.72 40.2903 1232.72 46.9338 L1232.72 72.576 L1225.22 72.576 L1225.22 27.2059 L1232.72 27.2059 L1232.72 34.2544 Q1235.39 30.163 1239 28.1376 Q1242.64 26.1121 1247.38 26.1121 Q1255.2 26.1121 1259.21 30.9732 Q1263.22 35.7938 1263.22 45.1919 Z" fill="#000000" fill-rule="nonzero" fill-opacity="1" /><path clip-path="url(#clip140)" d="M1285.46 14.324 L1285.46 27.2059 L1300.81 27.2059 L1300.81 32.9987 L1285.46 32.9987 L1285.46 57.6282 Q1285.46 63.1779 1286.96 64.7578 Q1288.5 66.3376 1293.16 66.3376 L1300.81 66.3376 L1300.81 72.576 L1293.16 72.576 Q1284.53 72.576 1281.25 69.3758 Q1277.97 66.1351 1277.97 57.6282 L1277.97 32.9987 L1272.5 32.9987 L1272.5 27.2059 L1277.97 27.2059 L1277.97 14.324 L1285.46 14.324 Z" fill="#000000" fill-rule="nonzero" fill-opacity="1" /><path clip-path="url(#clip140)" d="M1310.62 27.2059 L1318.07 27.2059 L1318.07 72.576 L1310.62 72.576 L1310.62 27.2059 M1310.62 9.54393 L1318.07 9.54393 L1318.07 18.9825 L1310.62 18.9825 L1310.62 9.54393 Z" fill="#000000" fill-rule="nonzero" fill-opacity="1" /><path clip-path="url(#clip140)" d="M1368.99 35.9153 Q1371.79 30.8922 1375.67 28.5022 Q1379.56 26.1121 1384.83 26.1121 Q1391.92 26.1121 1395.77 31.0947 Q1399.61 36.0368 1399.61 45.1919 L1399.61 72.576 L1392.12 72.576 L1392.12 45.4349 Q1392.12 38.913 1389.81 35.7533 Q1387.5 32.5936 1382.76 32.5936 Q1376.97 32.5936 1373.61 36.4419 Q1370.25 40.2903 1370.25 46.9338 L1370.25 72.576 L1362.75 72.576 L1362.75 45.4349 Q1362.75 38.8725 1360.44 35.7533 Q1358.13 32.5936 1353.31 32.5936 Q1347.6 32.5936 1344.24 36.4824 Q1340.88 40.3308 1340.88 46.9338 L1340.88 72.576 L1333.38 72.576 L1333.38 27.2059 L1340.88 27.2059 L1340.88 34.2544 Q1343.43 30.082 1346.99 28.0971 Q1350.56 26.1121 1355.46 26.1121 Q1360.4 26.1121 1363.85 28.6237 Q1367.33 31.1352 1368.99 35.9153 Z" fill="#000000" fill-rule="nonzero" fill-opacity="1" /><path clip-path="url(#clip140)" d="M1453.29 48.0275 L1453.29 51.6733 L1419.02 51.6733 Q1419.5 59.3701 1423.64 63.421 Q1427.81 67.4314 1435.22 67.4314 Q1439.52 67.4314 1443.53 66.3781 Q1447.58 65.3249 1451.55 63.2184 L1451.55 70.267 Q1447.54 71.9684 1443.32 72.8596 Q1439.11 73.7508 1434.78 73.7508 Q1423.92 73.7508 1417.56 67.4314 Q1411.24 61.1119 1411.24 50.3365 Q1411.24 39.1965 1417.24 32.6746 Q1423.27 26.1121 1433.48 26.1121 Q1442.64 26.1121 1447.94 32.0264 Q1453.29 37.9003 1453.29 48.0275 M1445.84 45.84 Q1445.75 39.7232 1442.39 36.0774 Q1439.07 32.4315 1433.56 32.4315 Q1427.32 32.4315 1423.56 35.9558 Q1419.83 39.4801 1419.26 45.8805 L1445.84 45.84 Z" fill="#000000" fill-rule="nonzero" fill-opacity="1" /><polyline clip-path="url(#clip142)" style="stroke:#009af9; stroke-linecap:round; stroke-linejoin:round; stroke-width:4; stroke-opacity:1; fill:none" stroke-dasharray="2, 4" points="280.231,1302.7 567.683,1088.17 1142.59,848.154 2292.39,201.618 "/>
<circle clip-path="url(#clip142)" cx="280.231" cy="1302.7" r="14.4" fill="#009af9" fill-rule="evenodd" fill-opacity="1" stroke="#000000" stroke-opacity="1" stroke-width="3.2"/>
<circle clip-path="url(#clip142)" cx="567.683" cy="1088.17" r="14.4" fill="#009af9" fill-rule="evenodd" fill-opacity="1" stroke="#000000" stroke-opacity="1" stroke-width="3.2"/>
<circle clip-path="url(#clip142)" cx="1142.59" cy="848.154" r="14.4" fill="#009af9" fill-rule="evenodd" fill-opacity="1" stroke="#000000" stroke-opacity="1" stroke-width="3.2"/>
<circle clip-path="url(#clip142)" cx="2292.39" cy="201.618" r="14.4" fill="#009af9" fill-rule="evenodd" fill-opacity="1" stroke="#000000" stroke-opacity="1" stroke-width="3.2"/>
<polyline clip-path="url(#clip142)" style="stroke:#e26f46; stroke-linecap:round; stroke-linejoin:round; stroke-width:4; stroke-opacity:1; fill:none" stroke-dasharray="2, 4" points="280.231,1308.89 567.683,1142.77 1142.59,788.863 2292.39,286.238 "/>
<circle clip-path="url(#clip142)" cx="280.231" cy="1308.89" r="14.4" fill="#e26f46" fill-rule="evenodd" fill-opacity="1" stroke="#000000" stroke-opacity="1" stroke-width="3.2"/>
<circle clip-path="url(#clip142)" cx="567.683" cy="1142.77" r="14.4" fill="#e26f46" fill-rule="evenodd" fill-opacity="1" stroke="#000000" stroke-opacity="1" stroke-width="3.2"/>
<circle clip-path="url(#clip142)" cx="1142.59" cy="788.863" r="14.4" fill="#e26f46" fill-rule="evenodd" fill-opacity="1" stroke="#000000" stroke-opacity="1" stroke-width="3.2"/>
<circle clip-path="url(#clip142)" cx="2292.39" cy="286.238" r="14.4" fill="#e26f46" fill-rule="evenodd" fill-opacity="1" stroke="#000000" stroke-opacity="1" stroke-width="3.2"/>
<polyline clip-path="url(#clip142)" style="stroke:#3da44d; stroke-linecap:round; stroke-linejoin:round; stroke-width:4; stroke-opacity:1; fill:none" stroke-dasharray="2, 4" points="280.231,1290.47 567.683,1124.28 1142.59,780.467 2292.39,161.35 "/>
<circle clip-path="url(#clip142)" cx="280.231" cy="1290.47" r="14.4" fill="#3da44d" fill-rule="evenodd" fill-opacity="1" stroke="#000000" stroke-opacity="1" stroke-width="3.2"/>
<circle clip-path="url(#clip142)" cx="567.683" cy="1124.28" r="14.4" fill="#3da44d" fill-rule="evenodd" fill-opacity="1" stroke="#000000" stroke-opacity="1" stroke-width="3.2"/>
<circle clip-path="url(#clip142)" cx="1142.59" cy="780.467" r="14.4" fill="#3da44d" fill-rule="evenodd" fill-opacity="1" stroke="#000000" stroke-opacity="1" stroke-width="3.2"/>
<circle clip-path="url(#clip142)" cx="2292.39" cy="161.35" r="14.4" fill="#3da44d" fill-rule="evenodd" fill-opacity="1" stroke="#000000" stroke-opacity="1" stroke-width="3.2"/>
<polyline clip-path="url(#clip142)" style="stroke:#c271d2; stroke-linecap:round; stroke-linejoin:round; stroke-width:4; stroke-opacity:1; fill:none" stroke-dasharray="2, 4" points="280.231,1285.67 567.683,1115.98 1142.59,482.772 2292.39,160.256 "/>
<circle clip-path="url(#clip142)" cx="280.231" cy="1285.67" r="14.4" fill="#c271d2" fill-rule="evenodd" fill-opacity="1" stroke="#000000" stroke-opacity="1" stroke-width="3.2"/>
<circle clip-path="url(#clip142)" cx="567.683" cy="1115.98" r="14.4" fill="#c271d2" fill-rule="evenodd" fill-opacity="1" stroke="#000000" stroke-opacity="1" stroke-width="3.2"/>
<circle clip-path="url(#clip142)" cx="1142.59" cy="482.772" r="14.4" fill="#c271d2" fill-rule="evenodd" fill-opacity="1" stroke="#000000" stroke-opacity="1" stroke-width="3.2"/>
<circle clip-path="url(#clip142)" cx="2292.39" cy="160.256" r="14.4" fill="#c271d2" fill-rule="evenodd" fill-opacity="1" stroke="#000000" stroke-opacity="1" stroke-width="3.2"/>
<polyline clip-path="url(#clip142)" style="stroke:#ac8d18; stroke-linecap:round; stroke-linejoin:round; stroke-width:4; stroke-opacity:1; fill:none" stroke-dasharray="2, 4" points="280.231,1386.4 567.683,1240.76 1142.59,1146.56 2292.39,773.95 "/>
<circle clip-path="url(#clip142)" cx="280.231" cy="1386.4" r="14.4" fill="#ac8d18" fill-rule="evenodd" fill-opacity="1" stroke="#000000" stroke-opacity="1" stroke-width="3.2"/>
<circle clip-path="url(#clip142)" cx="567.683" cy="1240.76" r="14.4" fill="#ac8d18" fill-rule="evenodd" fill-opacity="1" stroke="#000000" stroke-opacity="1" stroke-width="3.2"/>
<circle clip-path="url(#clip142)" cx="1142.59" cy="1146.56" r="14.4" fill="#ac8d18" fill-rule="evenodd" fill-opacity="1" stroke="#000000" stroke-opacity="1" stroke-width="3.2"/>
<circle clip-path="url(#clip142)" cx="2292.39" cy="773.95" r="14.4" fill="#ac8d18" fill-rule="evenodd" fill-opacity="1" stroke="#000000" stroke-opacity="1" stroke-width="3.2"/>
<polyline clip-path="url(#clip142)" style="stroke:#00a9ad; stroke-linecap:round; stroke-linejoin:round; stroke-width:4; stroke-opacity:1; fill:none" stroke-dasharray="2, 4" points="280.231,1384.41 567.683,1307.57 1142.59,1086.64 2292.39,781.141 "/>
<circle clip-path="url(#clip142)" cx="280.231" cy="1384.41" r="14.4" fill="#00a9ad" fill-rule="evenodd" fill-opacity="1" stroke="#000000" stroke-opacity="1" stroke-width="3.2"/>
<circle clip-path="url(#clip142)" cx="567.683" cy="1307.57" r="14.4" fill="#00a9ad" fill-rule="evenodd" fill-opacity="1" stroke="#000000" stroke-opacity="1" stroke-width="3.2"/>
<circle clip-path="url(#clip142)" cx="1142.59" cy="1086.64" r="14.4" fill="#00a9ad" fill-rule="evenodd" fill-opacity="1" stroke="#000000" stroke-opacity="1" stroke-width="3.2"/>
<circle clip-path="url(#clip142)" cx="2292.39" cy="781.141" r="14.4" fill="#00a9ad" fill-rule="evenodd" fill-opacity="1" stroke="#000000" stroke-opacity="1" stroke-width="3.2"/>
<polyline clip-path="url(#clip142)" style="stroke:#ed5d92; stroke-linecap:round; stroke-linejoin:round; stroke-width:4; stroke-opacity:1; fill:none" stroke-dasharray="2, 4" points="280.231,1370.6 567.683,1315.69 1142.59,1082.12 2292.39,775.296 "/>
<circle clip-path="url(#clip142)" cx="280.231" cy="1370.6" r="14.4" fill="#ed5d92" fill-rule="evenodd" fill-opacity="1" stroke="#000000" stroke-opacity="1" stroke-width="3.2"/>
<circle clip-path="url(#clip142)" cx="567.683" cy="1315.69" r="14.4" fill="#ed5d92" fill-rule="evenodd" fill-opacity="1" stroke="#000000" stroke-opacity="1" stroke-width="3.2"/>
<circle clip-path="url(#clip142)" cx="1142.59" cy="1082.12" r="14.4" fill="#ed5d92" fill-rule="evenodd" fill-opacity="1" stroke="#000000" stroke-opacity="1" stroke-width="3.2"/>
<circle clip-path="url(#clip142)" cx="2292.39" cy="775.296" r="14.4" fill="#ed5d92" fill-rule="evenodd" fill-opacity="1" stroke="#000000" stroke-opacity="1" stroke-width="3.2"/>
<polyline clip-path="url(#clip142)" style="stroke:#c68125; stroke-linecap:round; stroke-linejoin:round; stroke-width:4; stroke-opacity:1; fill:none" stroke-dasharray="2, 4" points="280.231,1371.87 567.683,1312.39 1142.59,1143.04 2292.39,805.787 "/>
<circle clip-path="url(#clip142)" cx="280.231" cy="1371.87" r="14.4" fill="#c68125" fill-rule="evenodd" fill-opacity="1" stroke="#000000" stroke-opacity="1" stroke-width="3.2"/>
<circle clip-path="url(#clip142)" cx="567.683" cy="1312.39" r="14.4" fill="#c68125" fill-rule="evenodd" fill-opacity="1" stroke="#000000" stroke-opacity="1" stroke-width="3.2"/>
<circle clip-path="url(#clip142)" cx="1142.59" cy="1143.04" r="14.4" fill="#c68125" fill-rule="evenodd" fill-opacity="1" stroke="#000000" stroke-opacity="1" stroke-width="3.2"/>
<circle clip-path="url(#clip142)" cx="2292.39" cy="805.787" r="14.4" fill="#c68125" fill-rule="evenodd" fill-opacity="1" stroke="#000000" stroke-opacity="1" stroke-width="3.2"/>
<polyline clip-path="url(#clip142)" style="stroke:#00a98d; stroke-linecap:round; stroke-linejoin:round; stroke-width:4; stroke-opacity:1; fill:none" stroke-dasharray="2, 4" points="280.231,1380.26 567.683,1305.08 1142.59,1145.65 2292.39,743.665 "/>
<circle clip-path="url(#clip142)" cx="280.231" cy="1380.26" r="14.4" fill="#00a98d" fill-rule="evenodd" fill-opacity="1" stroke="#000000" stroke-opacity="1" stroke-width="3.2"/>
<circle clip-path="url(#clip142)" cx="567.683" cy="1305.08" r="14.4" fill="#00a98d" fill-rule="evenodd" fill-opacity="1" stroke="#000000" stroke-opacity="1" stroke-width="3.2"/>
<circle clip-path="url(#clip142)" cx="1142.59" cy="1145.65" r="14.4" fill="#00a98d" fill-rule="evenodd" fill-opacity="1" stroke="#000000" stroke-opacity="1" stroke-width="3.2"/>
<circle clip-path="url(#clip142)" cx="2292.39" cy="743.665" r="14.4" fill="#00a98d" fill-rule="evenodd" fill-opacity="1" stroke="#000000" stroke-opacity="1" stroke-width="3.2"/>
<polyline clip-path="url(#clip142)" style="stroke:#8e971d; stroke-linecap:round; stroke-linejoin:round; stroke-width:4; stroke-opacity:1; fill:none" stroke-dasharray="2, 4" points="280.231,1382.47 567.683,1301.13 1142.59,1125.39 2292.39,812.805 "/>
<circle clip-path="url(#clip142)" cx="280.231" cy="1382.47" r="14.4" fill="#8e971d" fill-rule="evenodd" fill-opacity="1" stroke="#000000" stroke-opacity="1" stroke-width="3.2"/>
<circle clip-path="url(#clip142)" cx="567.683" cy="1301.13" r="14.4" fill="#8e971d" fill-rule="evenodd" fill-opacity="1" stroke="#000000" stroke-opacity="1" stroke-width="3.2"/>
<circle clip-path="url(#clip142)" cx="1142.59" cy="1125.39" r="14.4" fill="#8e971d" fill-rule="evenodd" fill-opacity="1" stroke="#000000" stroke-opacity="1" stroke-width="3.2"/>
<circle clip-path="url(#clip142)" cx="2292.39" cy="812.805" r="14.4" fill="#8e971d" fill-rule="evenodd" fill-opacity="1" stroke="#000000" stroke-opacity="1" stroke-width="3.2"/>
<polyline clip-path="url(#clip142)" style="stroke:#00a8cb; stroke-linecap:round; stroke-linejoin:round; stroke-width:4; stroke-opacity:1; fill:none" stroke-dasharray="2, 4" points="280.231,1343.74 567.683,1284.32 1142.59,1083.86 2292.39,806.068 "/>
<circle clip-path="url(#clip142)" cx="280.231" cy="1343.74" r="14.4" fill="#00a8cb" fill-rule="evenodd" fill-opacity="1" stroke="#000000" stroke-opacity="1" stroke-width="3.2"/>
<circle clip-path="url(#clip142)" cx="567.683" cy="1284.32" r="14.4" fill="#00a8cb" fill-rule="evenodd" fill-opacity="1" stroke="#000000" stroke-opacity="1" stroke-width="3.2"/>
<circle clip-path="url(#clip142)" cx="1142.59" cy="1083.86" r="14.4" fill="#00a8cb" fill-rule="evenodd" fill-opacity="1" stroke="#000000" stroke-opacity="1" stroke-width="3.2"/>
<circle clip-path="url(#clip142)" cx="2292.39" cy="806.068" r="14.4" fill="#00a8cb" fill-rule="evenodd" fill-opacity="1" stroke="#000000" stroke-opacity="1" stroke-width="3.2"/>
<polyline clip-path="url(#clip142)" style="stroke:#9b7fe8; stroke-linecap:round; stroke-linejoin:round; stroke-width:4; stroke-opacity:1; fill:none" stroke-dasharray="2, 4" points="280.231,1371.6 567.683,1285.53 1142.59,872.923 2292.39,772.121 "/>
<circle clip-path="url(#clip142)" cx="280.231" cy="1371.6" r="14.4" fill="#9b7fe8" fill-rule="evenodd" fill-opacity="1" stroke="#000000" stroke-opacity="1" stroke-width="3.2"/>
<circle clip-path="url(#clip142)" cx="567.683" cy="1285.53" r="14.4" fill="#9b7fe8" fill-rule="evenodd" fill-opacity="1" stroke="#000000" stroke-opacity="1" stroke-width="3.2"/>
<circle clip-path="url(#clip142)" cx="1142.59" cy="872.923" r="14.4" fill="#9b7fe8" fill-rule="evenodd" fill-opacity="1" stroke="#000000" stroke-opacity="1" stroke-width="3.2"/>
<circle clip-path="url(#clip142)" cx="2292.39" cy="772.121" r="14.4" fill="#9b7fe8" fill-rule="evenodd" fill-opacity="1" stroke="#000000" stroke-opacity="1" stroke-width="3.2"/>
<path clip-path="url(#clip140)" d="M290.963 840.716 L831.773 840.716 L831.773 166.796 L290.963 166.796  Z" fill="#ffffff" fill-rule="evenodd" fill-opacity="1"/>
<polyline clip-path="url(#clip140)" style="stroke:#000000; stroke-linecap:round; stroke-linejoin:round; stroke-width:4; stroke-opacity:1; fill:none" points="290.963,840.716 831.773,840.716 831.773,166.796 290.963,166.796 290.963,840.716 "/>
<polyline clip-path="url(#clip140)" style="stroke:#009af9; stroke-linecap:round; stroke-linejoin:round; stroke-width:4; stroke-opacity:1; fill:none" stroke-dasharray="2, 4" points="314.661,218.636 456.854,218.636 "/>
<circle clip-path="url(#clip140)" cx="385.758" cy="218.636" r="19.749" fill="#009af9" fill-rule="evenodd" fill-opacity="1" stroke="#000000" stroke-opacity="1" stroke-width="4.55111"/>
<path clip-path="url(#clip140)" d="M480.553 201.356 L500.414 201.356 L500.414 205.291 L485.229 205.291 L485.229 215.476 L498.932 215.476 L498.932 219.411 L485.229 219.411 L485.229 235.916 L480.553 235.916 L480.553 201.356 Z" fill="#000000" fill-rule="nonzero" fill-opacity="1" /><path clip-path="url(#clip140)" d="M512.497 219.411 L512.497 232.073 L519.997 232.073 Q523.77 232.073 525.576 230.522 Q527.404 228.948 527.404 225.731 Q527.404 222.49 525.576 220.962 Q523.77 219.411 519.997 219.411 L512.497 219.411 M512.497 205.198 L512.497 215.615 L519.418 215.615 Q522.844 215.615 524.511 214.342 Q526.201 213.045 526.201 210.407 Q526.201 207.791 524.511 206.495 Q522.844 205.198 519.418 205.198 L512.497 205.198 M507.821 201.356 L519.766 201.356 Q525.113 201.356 528.006 203.578 Q530.9 205.8 530.9 209.897 Q530.9 213.069 529.418 214.944 Q527.937 216.819 525.066 217.282 Q528.515 218.022 530.414 220.383 Q532.335 222.721 532.335 226.24 Q532.335 230.869 529.187 233.393 Q526.039 235.916 520.228 235.916 L507.821 235.916 L507.821 201.356 Z" fill="#000000" fill-rule="nonzero" fill-opacity="1" /><path clip-path="url(#clip140)" d="M545.02 205.198 L545.02 232.073 L550.668 232.073 Q557.821 232.073 561.131 228.832 Q564.464 225.592 564.464 218.601 Q564.464 211.657 561.131 208.439 Q557.821 205.198 550.668 205.198 L545.02 205.198 M540.344 201.356 L549.951 201.356 Q559.997 201.356 564.696 205.546 Q569.395 209.712 569.395 218.601 Q569.395 227.536 564.673 231.726 Q559.951 235.916 549.951 235.916 L540.344 235.916 L540.344 201.356 Z" fill="#000000" fill-rule="nonzero" fill-opacity="1" /><path clip-path="url(#clip140)" d="M576.849 201.356 L596.71 201.356 L596.71 205.291 L581.524 205.291 L581.524 215.476 L595.228 215.476 L595.228 219.411 L581.524 219.411 L581.524 235.916 L576.849 235.916 L576.849 201.356 Z" fill="#000000" fill-rule="nonzero" fill-opacity="1" /><polyline clip-path="url(#clip140)" style="stroke:#e26f46; stroke-linecap:round; stroke-linejoin:round; stroke-width:4; stroke-opacity:1; fill:none" stroke-dasharray="2, 4" points="314.661,270.476 456.854,270.476 "/>
<circle clip-path="url(#clip140)" cx="385.758" cy="270.476" r="19.749" fill="#e26f46" fill-rule="evenodd" fill-opacity="1" stroke="#000000" stroke-opacity="1" stroke-width="4.55111"/>
<path clip-path="url(#clip140)" d="M480.553 253.196 L500.414 253.196 L500.414 257.131 L485.229 257.131 L485.229 267.316 L498.932 267.316 L498.932 271.251 L485.229 271.251 L485.229 287.756 L480.553 287.756 L480.553 253.196 Z" fill="#000000" fill-rule="nonzero" fill-opacity="1" /><path clip-path="url(#clip140)" d="M512.497 271.251 L512.497 283.913 L519.997 283.913 Q523.77 283.913 525.576 282.362 Q527.404 280.788 527.404 277.571 Q527.404 274.33 525.576 272.802 Q523.77 271.251 519.997 271.251 L512.497 271.251 M512.497 257.038 L512.497 267.455 L519.418 267.455 Q522.844 267.455 524.511 266.182 Q526.201 264.885 526.201 262.247 Q526.201 259.631 524.511 258.335 Q522.844 257.038 519.418 257.038 L512.497 257.038 M507.821 253.196 L519.766 253.196 Q525.113 253.196 528.006 255.418 Q530.9 257.64 530.9 261.737 Q530.9 264.909 529.418 266.784 Q527.937 268.659 525.066 269.122 Q528.515 269.862 530.414 272.223 Q532.335 274.561 532.335 278.08 Q532.335 282.709 529.187 285.233 Q526.039 287.756 520.228 287.756 L507.821 287.756 L507.821 253.196 Z" fill="#000000" fill-rule="nonzero" fill-opacity="1" /><path clip-path="url(#clip140)" d="M545.02 257.038 L545.02 283.913 L550.668 283.913 Q557.821 283.913 561.131 280.672 Q564.464 277.432 564.464 270.441 Q564.464 263.497 561.131 260.279 Q557.821 257.038 550.668 257.038 L545.02 257.038 M540.344 253.196 L549.951 253.196 Q559.997 253.196 564.696 257.386 Q569.395 261.552 569.395 270.441 Q569.395 279.376 564.673 283.566 Q559.951 287.756 549.951 287.756 L540.344 287.756 L540.344 253.196 Z" fill="#000000" fill-rule="nonzero" fill-opacity="1" /><path clip-path="url(#clip140)" d="M576.849 253.196 L596.71 253.196 L596.71 257.131 L581.524 257.131 L581.524 267.316 L595.228 267.316 L595.228 271.251 L581.524 271.251 L581.524 287.756 L576.849 287.756 L576.849 253.196 Z" fill="#000000" fill-rule="nonzero" fill-opacity="1" /><path clip-path="url(#clip140)" d="M623.631 295.626 L623.631 298.936 L599.001 298.936 L599.001 295.626 L623.631 295.626 Z" fill="#000000" fill-rule="nonzero" fill-opacity="1" /><path clip-path="url(#clip140)" d="M627.635 261.83 L631.895 261.83 L631.895 288.219 Q631.895 293.172 629.996 295.395 Q628.121 297.617 623.932 297.617 L622.311 297.617 L622.311 294.006 L623.446 294.006 Q625.876 294.006 626.756 292.871 Q627.635 291.76 627.635 288.219 L627.635 261.83 M627.635 251.737 L631.895 251.737 L631.895 257.131 L627.635 257.131 L627.635 251.737 Z" fill="#000000" fill-rule="nonzero" fill-opacity="1" /><path clip-path="url(#clip140)" d="M652.589 274.723 Q647.427 274.723 645.436 275.904 Q643.445 277.084 643.445 279.932 Q643.445 282.2 644.927 283.543 Q646.432 284.862 649.001 284.862 Q652.543 284.862 654.672 282.362 Q656.825 279.839 656.825 275.672 L656.825 274.723 L652.589 274.723 M661.084 272.964 L661.084 287.756 L656.825 287.756 L656.825 283.821 Q655.367 286.182 653.191 287.316 Q651.015 288.427 647.867 288.427 Q643.885 288.427 641.524 286.205 Q639.186 283.959 639.186 280.209 Q639.186 275.834 642.103 273.612 Q645.043 271.39 650.853 271.39 L656.825 271.39 L656.825 270.973 Q656.825 268.034 654.881 266.436 Q652.959 264.816 649.464 264.816 Q647.242 264.816 645.135 265.348 Q643.029 265.881 641.084 266.946 L641.084 263.01 Q643.422 262.108 645.621 261.668 Q647.82 261.205 649.904 261.205 Q655.529 261.205 658.306 264.122 Q661.084 267.038 661.084 272.964 Z" fill="#000000" fill-rule="nonzero" fill-opacity="1" /><path clip-path="url(#clip140)" d="M688.515 262.825 L688.515 266.807 Q686.709 265.811 684.88 265.325 Q683.075 264.816 681.223 264.816 Q677.08 264.816 674.788 267.455 Q672.496 270.071 672.496 274.816 Q672.496 279.561 674.788 282.2 Q677.08 284.816 681.223 284.816 Q683.075 284.816 684.88 284.33 Q686.709 283.821 688.515 282.825 L688.515 286.76 Q686.732 287.594 684.811 288.01 Q682.913 288.427 680.76 288.427 Q674.904 288.427 671.455 284.746 Q668.005 281.066 668.005 274.816 Q668.005 268.473 671.478 264.839 Q674.973 261.205 681.038 261.205 Q683.005 261.205 684.88 261.622 Q686.755 262.015 688.515 262.825 Z" fill="#000000" fill-rule="nonzero" fill-opacity="1" /><polyline clip-path="url(#clip140)" style="stroke:#3da44d; stroke-linecap:round; stroke-linejoin:round; stroke-width:4; stroke-opacity:1; fill:none" stroke-dasharray="2, 4" points="314.661,322.316 456.854,322.316 "/>
<circle clip-path="url(#clip140)" cx="385.758" cy="322.316" r="19.749" fill="#3da44d" fill-rule="evenodd" fill-opacity="1" stroke="#000000" stroke-opacity="1" stroke-width="4.55111"/>
<path clip-path="url(#clip140)" d="M480.553 305.036 L500.414 305.036 L500.414 308.971 L485.229 308.971 L485.229 319.156 L498.932 319.156 L498.932 323.091 L485.229 323.091 L485.229 339.596 L480.553 339.596 L480.553 305.036 Z" fill="#000000" fill-rule="nonzero" fill-opacity="1" /><path clip-path="url(#clip140)" d="M512.497 323.091 L512.497 335.753 L519.997 335.753 Q523.77 335.753 525.576 334.202 Q527.404 332.628 527.404 329.411 Q527.404 326.17 525.576 324.642 Q523.77 323.091 519.997 323.091 L512.497 323.091 M512.497 308.878 L512.497 319.295 L519.418 319.295 Q522.844 319.295 524.511 318.022 Q526.201 316.725 526.201 314.087 Q526.201 311.471 524.511 310.175 Q522.844 308.878 519.418 308.878 L512.497 308.878 M507.821 305.036 L519.766 305.036 Q525.113 305.036 528.006 307.258 Q530.9 309.48 530.9 313.577 Q530.9 316.749 529.418 318.624 Q527.937 320.499 525.066 320.962 Q528.515 321.702 530.414 324.063 Q532.335 326.401 532.335 329.92 Q532.335 334.549 529.187 337.073 Q526.039 339.596 520.228 339.596 L507.821 339.596 L507.821 305.036 Z" fill="#000000" fill-rule="nonzero" fill-opacity="1" /><path clip-path="url(#clip140)" d="M545.02 308.878 L545.02 335.753 L550.668 335.753 Q557.821 335.753 561.131 332.512 Q564.464 329.272 564.464 322.281 Q564.464 315.337 561.131 312.119 Q557.821 308.878 550.668 308.878 L545.02 308.878 M540.344 305.036 L549.951 305.036 Q559.997 305.036 564.696 309.226 Q569.395 313.392 569.395 322.281 Q569.395 331.216 564.673 335.406 Q559.951 339.596 549.951 339.596 L540.344 339.596 L540.344 305.036 Z" fill="#000000" fill-rule="nonzero" fill-opacity="1" /><path clip-path="url(#clip140)" d="M576.849 305.036 L596.71 305.036 L596.71 308.971 L581.524 308.971 L581.524 319.156 L595.228 319.156 L595.228 323.091 L581.524 323.091 L581.524 339.596 L576.849 339.596 L576.849 305.036 Z" fill="#000000" fill-rule="nonzero" fill-opacity="1" /><path clip-path="url(#clip140)" d="M623.631 347.466 L623.631 350.776 L599.001 350.776 L599.001 347.466 L623.631 347.466 Z" fill="#000000" fill-rule="nonzero" fill-opacity="1" /><path clip-path="url(#clip140)" d="M631.756 335.707 L631.756 349.457 L627.473 349.457 L627.473 313.67 L631.756 313.67 L631.756 317.605 Q633.098 315.29 635.135 314.179 Q637.195 313.045 640.043 313.045 Q644.765 313.045 647.705 316.795 Q650.668 320.545 650.668 326.656 Q650.668 332.767 647.705 336.517 Q644.765 340.267 640.043 340.267 Q637.195 340.267 635.135 339.156 Q633.098 338.022 631.756 335.707 M646.246 326.656 Q646.246 321.957 644.302 319.295 Q642.381 316.61 639.001 316.61 Q635.621 316.61 633.677 319.295 Q631.756 321.957 631.756 326.656 Q631.756 331.355 633.677 334.04 Q635.621 336.702 639.001 336.702 Q642.381 336.702 644.302 334.04 Q646.246 331.355 646.246 326.656 Z" fill="#000000" fill-rule="nonzero" fill-opacity="1" /><path clip-path="url(#clip140)" d="M672.751 317.651 Q672.033 317.235 671.177 317.05 Q670.343 316.841 669.325 316.841 Q665.714 316.841 663.769 319.202 Q661.848 321.54 661.848 325.938 L661.848 339.596 L657.566 339.596 L657.566 313.67 L661.848 313.67 L661.848 317.698 Q663.191 315.337 665.343 314.202 Q667.496 313.045 670.575 313.045 Q671.015 313.045 671.547 313.114 Q672.08 313.161 672.728 313.276 L672.751 317.651 Z" fill="#000000" fill-rule="nonzero" fill-opacity="1" /><path clip-path="url(#clip140)" d="M698.353 325.568 L698.353 327.651 L678.769 327.651 Q679.047 332.049 681.408 334.364 Q683.792 336.656 688.029 336.656 Q690.482 336.656 692.774 336.054 Q695.089 335.452 697.357 334.249 L697.357 338.276 Q695.066 339.248 692.658 339.758 Q690.251 340.267 687.774 340.267 Q681.57 340.267 677.936 336.656 Q674.325 333.045 674.325 326.887 Q674.325 320.522 677.751 316.795 Q681.2 313.045 687.033 313.045 Q692.265 313.045 695.297 316.425 Q698.353 319.781 698.353 325.568 M694.093 324.318 Q694.047 320.823 692.126 318.739 Q690.228 316.656 687.079 316.656 Q683.515 316.656 681.362 318.67 Q679.232 320.684 678.908 324.341 L694.093 324.318 Z" fill="#000000" fill-rule="nonzero" fill-opacity="1" /><path clip-path="url(#clip140)" d="M724.001 314.665 L724.001 318.647 Q722.195 317.651 720.366 317.165 Q718.561 316.656 716.709 316.656 Q712.565 316.656 710.274 319.295 Q707.982 321.911 707.982 326.656 Q707.982 331.401 710.274 334.04 Q712.565 336.656 716.709 336.656 Q718.561 336.656 720.366 336.17 Q722.195 335.661 724.001 334.665 L724.001 338.6 Q722.218 339.434 720.297 339.85 Q718.399 340.267 716.246 340.267 Q710.39 340.267 706.94 336.586 Q703.491 332.906 703.491 326.656 Q703.491 320.313 706.964 316.679 Q710.459 313.045 716.524 313.045 Q718.491 313.045 720.366 313.462 Q722.241 313.855 724.001 314.665 Z" fill="#000000" fill-rule="nonzero" fill-opacity="1" /><polyline clip-path="url(#clip140)" style="stroke:#c271d2; stroke-linecap:round; stroke-linejoin:round; stroke-width:4; stroke-opacity:1; fill:none" stroke-dasharray="2, 4" points="314.661,374.156 456.854,374.156 "/>
<circle clip-path="url(#clip140)" cx="385.758" cy="374.156" r="19.749" fill="#c271d2" fill-rule="evenodd" fill-opacity="1" stroke="#000000" stroke-opacity="1" stroke-width="4.55111"/>
<path clip-path="url(#clip140)" d="M480.553 356.876 L500.414 356.876 L500.414 360.811 L485.229 360.811 L485.229 370.996 L498.932 370.996 L498.932 374.931 L485.229 374.931 L485.229 391.436 L480.553 391.436 L480.553 356.876 Z" fill="#000000" fill-rule="nonzero" fill-opacity="1" /><path clip-path="url(#clip140)" d="M512.497 374.931 L512.497 387.593 L519.997 387.593 Q523.77 387.593 525.576 386.042 Q527.404 384.468 527.404 381.251 Q527.404 378.01 525.576 376.482 Q523.77 374.931 519.997 374.931 L512.497 374.931 M512.497 360.718 L512.497 371.135 L519.418 371.135 Q522.844 371.135 524.511 369.862 Q526.201 368.565 526.201 365.927 Q526.201 363.311 524.511 362.015 Q522.844 360.718 519.418 360.718 L512.497 360.718 M507.821 356.876 L519.766 356.876 Q525.113 356.876 528.006 359.098 Q530.9 361.32 530.9 365.417 Q530.9 368.589 529.418 370.464 Q527.937 372.339 525.066 372.802 Q528.515 373.542 530.414 375.903 Q532.335 378.241 532.335 381.76 Q532.335 386.389 529.187 388.913 Q526.039 391.436 520.228 391.436 L507.821 391.436 L507.821 356.876 Z" fill="#000000" fill-rule="nonzero" fill-opacity="1" /><path clip-path="url(#clip140)" d="M545.02 360.718 L545.02 387.593 L550.668 387.593 Q557.821 387.593 561.131 384.352 Q564.464 381.112 564.464 374.121 Q564.464 367.177 561.131 363.959 Q557.821 360.718 550.668 360.718 L545.02 360.718 M540.344 356.876 L549.951 356.876 Q559.997 356.876 564.696 361.066 Q569.395 365.232 569.395 374.121 Q569.395 383.056 564.673 387.246 Q559.951 391.436 549.951 391.436 L540.344 391.436 L540.344 356.876 Z" fill="#000000" fill-rule="nonzero" fill-opacity="1" /><path clip-path="url(#clip140)" d="M576.849 356.876 L596.71 356.876 L596.71 360.811 L581.524 360.811 L581.524 370.996 L595.228 370.996 L595.228 374.931 L581.524 374.931 L581.524 391.436 L576.849 391.436 L576.849 356.876 Z" fill="#000000" fill-rule="nonzero" fill-opacity="1" /><path clip-path="url(#clip140)" d="M623.631 399.306 L623.631 402.616 L599.001 402.616 L599.001 399.306 L623.631 399.306 Z" fill="#000000" fill-rule="nonzero" fill-opacity="1" /><path clip-path="url(#clip140)" d="M631.756 387.547 L631.756 401.297 L627.473 401.297 L627.473 365.51 L631.756 365.51 L631.756 369.445 Q633.098 367.13 635.135 366.019 Q637.195 364.885 640.043 364.885 Q644.765 364.885 647.705 368.635 Q650.668 372.385 650.668 378.496 Q650.668 384.607 647.705 388.357 Q644.765 392.107 640.043 392.107 Q637.195 392.107 635.135 390.996 Q633.098 389.862 631.756 387.547 M646.246 378.496 Q646.246 373.797 644.302 371.135 Q642.381 368.45 639.001 368.45 Q635.621 368.45 633.677 371.135 Q631.756 373.797 631.756 378.496 Q631.756 383.195 633.677 385.88 Q635.621 388.542 639.001 388.542 Q642.381 388.542 644.302 385.88 Q646.246 383.195 646.246 378.496 Z" fill="#000000" fill-rule="nonzero" fill-opacity="1" /><path clip-path="url(#clip140)" d="M672.751 369.491 Q672.033 369.075 671.177 368.89 Q670.343 368.681 669.325 368.681 Q665.714 368.681 663.769 371.042 Q661.848 373.38 661.848 377.778 L661.848 391.436 L657.566 391.436 L657.566 365.51 L661.848 365.51 L661.848 369.538 Q663.191 367.177 665.343 366.042 Q667.496 364.885 670.575 364.885 Q671.015 364.885 671.547 364.954 Q672.08 365.001 672.728 365.116 L672.751 369.491 Z" fill="#000000" fill-rule="nonzero" fill-opacity="1" /><path clip-path="url(#clip140)" d="M698.353 377.408 L698.353 379.491 L678.769 379.491 Q679.047 383.889 681.408 386.204 Q683.792 388.496 688.029 388.496 Q690.482 388.496 692.774 387.894 Q695.089 387.292 697.357 386.089 L697.357 390.116 Q695.066 391.088 692.658 391.598 Q690.251 392.107 687.774 392.107 Q681.57 392.107 677.936 388.496 Q674.325 384.885 674.325 378.727 Q674.325 372.362 677.751 368.635 Q681.2 364.885 687.033 364.885 Q692.265 364.885 695.297 368.265 Q698.353 371.621 698.353 377.408 M694.093 376.158 Q694.047 372.663 692.126 370.579 Q690.228 368.496 687.079 368.496 Q683.515 368.496 681.362 370.51 Q679.232 372.524 678.908 376.181 L694.093 376.158 Z" fill="#000000" fill-rule="nonzero" fill-opacity="1" /><path clip-path="url(#clip140)" d="M724.001 366.505 L724.001 370.487 Q722.195 369.491 720.366 369.005 Q718.561 368.496 716.709 368.496 Q712.565 368.496 710.274 371.135 Q707.982 373.751 707.982 378.496 Q707.982 383.241 710.274 385.88 Q712.565 388.496 716.709 388.496 Q718.561 388.496 720.366 388.01 Q722.195 387.501 724.001 386.505 L724.001 390.44 Q722.218 391.274 720.297 391.69 Q718.399 392.107 716.246 392.107 Q710.39 392.107 706.94 388.426 Q703.491 384.746 703.491 378.496 Q703.491 372.153 706.964 368.519 Q710.459 364.885 716.524 364.885 Q718.491 364.885 720.366 365.302 Q722.241 365.695 724.001 366.505 Z" fill="#000000" fill-rule="nonzero" fill-opacity="1" /><path clip-path="url(#clip140)" d="M731.593 356.876 L736.269 356.876 L736.269 389.028 Q736.269 395.278 733.885 398.102 Q731.524 400.926 726.269 400.926 L724.487 400.926 L724.487 396.991 L725.945 396.991 Q729.047 396.991 730.32 395.255 Q731.593 393.519 731.593 389.028 L731.593 356.876 Z" fill="#000000" fill-rule="nonzero" fill-opacity="1" /><path clip-path="url(#clip140)" d="M757.172 378.403 Q752.01 378.403 750.019 379.584 Q748.028 380.764 748.028 383.612 Q748.028 385.88 749.51 387.223 Q751.014 388.542 753.584 388.542 Q757.125 388.542 759.255 386.042 Q761.408 383.519 761.408 379.352 L761.408 378.403 L757.172 378.403 M765.667 376.644 L765.667 391.436 L761.408 391.436 L761.408 387.501 Q759.949 389.862 757.774 390.996 Q755.598 392.107 752.449 392.107 Q748.468 392.107 746.107 389.885 Q743.769 387.639 743.769 383.889 Q743.769 379.514 746.686 377.292 Q749.625 375.07 755.436 375.07 L761.408 375.07 L761.408 374.653 Q761.408 371.714 759.463 370.116 Q757.542 368.496 754.047 368.496 Q751.824 368.496 749.718 369.028 Q747.612 369.561 745.667 370.626 L745.667 366.69 Q748.005 365.788 750.204 365.348 Q752.403 364.885 754.486 364.885 Q760.111 364.885 762.889 367.802 Q765.667 370.718 765.667 376.644 Z" fill="#000000" fill-rule="nonzero" fill-opacity="1" /><path clip-path="url(#clip140)" d="M793.097 366.505 L793.097 370.487 Q791.292 369.491 789.463 369.005 Q787.658 368.496 785.806 368.496 Q781.662 368.496 779.371 371.135 Q777.079 373.751 777.079 378.496 Q777.079 383.241 779.371 385.88 Q781.662 388.496 785.806 388.496 Q787.658 388.496 789.463 388.01 Q791.292 387.501 793.097 386.505 L793.097 390.44 Q791.315 391.274 789.394 391.69 Q787.496 392.107 785.343 392.107 Q779.486 392.107 776.037 388.426 Q772.588 384.746 772.588 378.496 Q772.588 372.153 776.06 368.519 Q779.556 364.885 785.621 364.885 Q787.588 364.885 789.463 365.302 Q791.338 365.695 793.097 366.505 Z" fill="#000000" fill-rule="nonzero" fill-opacity="1" /><polyline clip-path="url(#clip140)" style="stroke:#ac8d18; stroke-linecap:round; stroke-linejoin:round; stroke-width:4; stroke-opacity:1; fill:none" stroke-dasharray="2, 4" points="314.661,425.996 456.854,425.996 "/>
<circle clip-path="url(#clip140)" cx="385.758" cy="425.996" r="19.749" fill="#ac8d18" fill-rule="evenodd" fill-opacity="1" stroke="#000000" stroke-opacity="1" stroke-width="4.55111"/>
<path clip-path="url(#clip140)" d="M496.571 411.887 Q491.479 411.887 488.469 415.683 Q485.483 419.48 485.483 426.03 Q485.483 432.558 488.469 436.354 Q491.479 440.151 496.571 440.151 Q501.664 440.151 504.627 436.354 Q507.613 432.558 507.613 426.03 Q507.613 419.48 504.627 415.683 Q501.664 411.887 496.571 411.887 M503.122 442.651 L509.279 449.387 L503.631 449.387 L498.516 443.854 Q497.752 443.901 497.335 443.924 Q496.942 443.947 496.571 443.947 Q489.28 443.947 484.905 439.086 Q480.553 434.202 480.553 426.03 Q480.553 417.836 484.905 412.975 Q489.28 408.091 496.571 408.091 Q503.84 408.091 508.192 412.975 Q512.543 417.836 512.543 426.03 Q512.543 432.049 510.113 436.331 Q507.705 440.614 503.122 442.651 Z" fill="#000000" fill-rule="nonzero" fill-opacity="1" /><path clip-path="url(#clip140)" d="M519.858 408.716 L526.154 408.716 L541.478 437.628 L541.478 408.716 L546.015 408.716 L546.015 443.276 L539.719 443.276 L524.395 414.364 L524.395 443.276 L519.858 443.276 L519.858 408.716 Z" fill="#000000" fill-rule="nonzero" fill-opacity="1" /><path clip-path="url(#clip140)" d="M559.997 412.558 L559.997 439.433 L565.645 439.433 Q572.798 439.433 576.108 436.192 Q579.441 432.952 579.441 425.961 Q579.441 419.017 576.108 415.799 Q572.798 412.558 565.645 412.558 L559.997 412.558 M555.321 408.716 L564.927 408.716 Q574.974 408.716 579.673 412.906 Q584.372 417.072 584.372 425.961 Q584.372 434.896 579.649 439.086 Q574.927 443.276 564.927 443.276 L555.321 443.276 L555.321 408.716 Z" fill="#000000" fill-rule="nonzero" fill-opacity="1" /><path clip-path="url(#clip140)" d="M591.825 408.716 L611.686 408.716 L611.686 412.651 L596.501 412.651 L596.501 422.836 L610.205 422.836 L610.205 426.771 L596.501 426.771 L596.501 443.276 L591.825 443.276 L591.825 408.716 Z" fill="#000000" fill-rule="nonzero" fill-opacity="1" /><polyline clip-path="url(#clip140)" style="stroke:#00a9ad; stroke-linecap:round; stroke-linejoin:round; stroke-width:4; stroke-opacity:1; fill:none" stroke-dasharray="2, 4" points="314.661,477.836 456.854,477.836 "/>
<circle clip-path="url(#clip140)" cx="385.758" cy="477.836" r="19.749" fill="#00a9ad" fill-rule="evenodd" fill-opacity="1" stroke="#000000" stroke-opacity="1" stroke-width="4.55111"/>
<path clip-path="url(#clip140)" d="M496.571 463.727 Q491.479 463.727 488.469 467.523 Q485.483 471.32 485.483 477.87 Q485.483 484.398 488.469 488.194 Q491.479 491.991 496.571 491.991 Q501.664 491.991 504.627 488.194 Q507.613 484.398 507.613 477.87 Q507.613 471.32 504.627 467.523 Q501.664 463.727 496.571 463.727 M503.122 494.491 L509.279 501.227 L503.631 501.227 L498.516 495.694 Q497.752 495.741 497.335 495.764 Q496.942 495.787 496.571 495.787 Q489.28 495.787 484.905 490.926 Q480.553 486.042 480.553 477.87 Q480.553 469.676 484.905 464.815 Q489.28 459.931 496.571 459.931 Q503.84 459.931 508.192 464.815 Q512.543 469.676 512.543 477.87 Q512.543 483.889 510.113 488.171 Q507.705 492.454 503.122 494.491 Z" fill="#000000" fill-rule="nonzero" fill-opacity="1" /><path clip-path="url(#clip140)" d="M519.858 460.556 L526.154 460.556 L541.478 489.468 L541.478 460.556 L546.015 460.556 L546.015 495.116 L539.719 495.116 L524.395 466.204 L524.395 495.116 L519.858 495.116 L519.858 460.556 Z" fill="#000000" fill-rule="nonzero" fill-opacity="1" /><path clip-path="url(#clip140)" d="M559.997 464.398 L559.997 491.273 L565.645 491.273 Q572.798 491.273 576.108 488.032 Q579.441 484.792 579.441 477.801 Q579.441 470.857 576.108 467.639 Q572.798 464.398 565.645 464.398 L559.997 464.398 M555.321 460.556 L564.927 460.556 Q574.974 460.556 579.673 464.746 Q584.372 468.912 584.372 477.801 Q584.372 486.736 579.649 490.926 Q574.927 495.116 564.927 495.116 L555.321 495.116 L555.321 460.556 Z" fill="#000000" fill-rule="nonzero" fill-opacity="1" /><path clip-path="url(#clip140)" d="M591.825 460.556 L611.686 460.556 L611.686 464.491 L596.501 464.491 L596.501 474.676 L610.205 474.676 L610.205 478.611 L596.501 478.611 L596.501 495.116 L591.825 495.116 L591.825 460.556 Z" fill="#000000" fill-rule="nonzero" fill-opacity="1" /><path clip-path="url(#clip140)" d="M638.607 502.986 L638.607 506.296 L613.978 506.296 L613.978 502.986 L638.607 502.986 Z" fill="#000000" fill-rule="nonzero" fill-opacity="1" /><path clip-path="url(#clip140)" d="M642.612 469.19 L646.871 469.19 L646.871 495.579 Q646.871 500.532 644.973 502.755 Q643.098 504.977 638.908 504.977 L637.288 504.977 L637.288 501.366 L638.422 501.366 Q640.853 501.366 641.732 500.231 Q642.612 499.12 642.612 495.579 L642.612 469.19 M642.612 459.097 L646.871 459.097 L646.871 464.491 L642.612 464.491 L642.612 459.097 Z" fill="#000000" fill-rule="nonzero" fill-opacity="1" /><path clip-path="url(#clip140)" d="M667.566 482.083 Q662.404 482.083 660.413 483.264 Q658.422 484.444 658.422 487.292 Q658.422 489.56 659.904 490.903 Q661.408 492.222 663.978 492.222 Q667.519 492.222 669.649 489.722 Q671.802 487.199 671.802 483.032 L671.802 482.083 L667.566 482.083 M676.061 480.324 L676.061 495.116 L671.802 495.116 L671.802 491.181 Q670.343 493.542 668.168 494.676 Q665.992 495.787 662.843 495.787 Q658.862 495.787 656.501 493.565 Q654.163 491.319 654.163 487.569 Q654.163 483.194 657.08 480.972 Q660.019 478.75 665.83 478.75 L671.802 478.75 L671.802 478.333 Q671.802 475.394 669.857 473.796 Q667.936 472.176 664.441 472.176 Q662.218 472.176 660.112 472.708 Q658.006 473.241 656.061 474.306 L656.061 470.37 Q658.399 469.468 660.598 469.028 Q662.797 468.565 664.88 468.565 Q670.505 468.565 673.283 471.482 Q676.061 474.398 676.061 480.324 Z" fill="#000000" fill-rule="nonzero" fill-opacity="1" /><path clip-path="url(#clip140)" d="M703.491 470.185 L703.491 474.167 Q701.686 473.171 699.857 472.685 Q698.052 472.176 696.2 472.176 Q692.056 472.176 689.765 474.815 Q687.473 477.431 687.473 482.176 Q687.473 486.921 689.765 489.56 Q692.056 492.176 696.2 492.176 Q698.052 492.176 699.857 491.69 Q701.686 491.181 703.491 490.185 L703.491 494.12 Q701.709 494.954 699.788 495.37 Q697.89 495.787 695.737 495.787 Q689.88 495.787 686.431 492.106 Q682.982 488.426 682.982 482.176 Q682.982 475.833 686.454 472.199 Q689.95 468.565 696.015 468.565 Q697.982 468.565 699.857 468.982 Q701.732 469.375 703.491 470.185 Z" fill="#000000" fill-rule="nonzero" fill-opacity="1" /><polyline clip-path="url(#clip140)" style="stroke:#ed5d92; stroke-linecap:round; stroke-linejoin:round; stroke-width:4; stroke-opacity:1; fill:none" stroke-dasharray="2, 4" points="314.661,529.676 456.854,529.676 "/>
<circle clip-path="url(#clip140)" cx="385.758" cy="529.676" r="19.749" fill="#ed5d92" fill-rule="evenodd" fill-opacity="1" stroke="#000000" stroke-opacity="1" stroke-width="4.55111"/>
<path clip-path="url(#clip140)" d="M496.571 515.567 Q491.479 515.567 488.469 519.363 Q485.483 523.16 485.483 529.71 Q485.483 536.238 488.469 540.034 Q491.479 543.831 496.571 543.831 Q501.664 543.831 504.627 540.034 Q507.613 536.238 507.613 529.71 Q507.613 523.16 504.627 519.363 Q501.664 515.567 496.571 515.567 M503.122 546.331 L509.279 553.067 L503.631 553.067 L498.516 547.534 Q497.752 547.581 497.335 547.604 Q496.942 547.627 496.571 547.627 Q489.28 547.627 484.905 542.766 Q480.553 537.882 480.553 529.71 Q480.553 521.516 484.905 516.655 Q489.28 511.771 496.571 511.771 Q503.84 511.771 508.192 516.655 Q512.543 521.516 512.543 529.71 Q512.543 535.729 510.113 540.011 Q507.705 544.294 503.122 546.331 Z" fill="#000000" fill-rule="nonzero" fill-opacity="1" /><path clip-path="url(#clip140)" d="M519.858 512.396 L526.154 512.396 L541.478 541.308 L541.478 512.396 L546.015 512.396 L546.015 546.956 L539.719 546.956 L524.395 518.044 L524.395 546.956 L519.858 546.956 L519.858 512.396 Z" fill="#000000" fill-rule="nonzero" fill-opacity="1" /><path clip-path="url(#clip140)" d="M559.997 516.238 L559.997 543.113 L565.645 543.113 Q572.798 543.113 576.108 539.872 Q579.441 536.632 579.441 529.641 Q579.441 522.697 576.108 519.479 Q572.798 516.238 565.645 516.238 L559.997 516.238 M555.321 512.396 L564.927 512.396 Q574.974 512.396 579.673 516.586 Q584.372 520.752 584.372 529.641 Q584.372 538.576 579.649 542.766 Q574.927 546.956 564.927 546.956 L555.321 546.956 L555.321 512.396 Z" fill="#000000" fill-rule="nonzero" fill-opacity="1" /><path clip-path="url(#clip140)" d="M591.825 512.396 L611.686 512.396 L611.686 516.331 L596.501 516.331 L596.501 526.516 L610.205 526.516 L610.205 530.451 L596.501 530.451 L596.501 546.956 L591.825 546.956 L591.825 512.396 Z" fill="#000000" fill-rule="nonzero" fill-opacity="1" /><path clip-path="url(#clip140)" d="M638.607 554.826 L638.607 558.136 L613.978 558.136 L613.978 554.826 L638.607 554.826 Z" fill="#000000" fill-rule="nonzero" fill-opacity="1" /><path clip-path="url(#clip140)" d="M646.732 543.067 L646.732 556.817 L642.45 556.817 L642.45 521.03 L646.732 521.03 L646.732 524.965 Q648.075 522.65 650.112 521.539 Q652.172 520.405 655.019 520.405 Q659.742 520.405 662.681 524.155 Q665.644 527.905 665.644 534.016 Q665.644 540.127 662.681 543.877 Q659.742 547.627 655.019 547.627 Q652.172 547.627 650.112 546.516 Q648.075 545.382 646.732 543.067 M661.223 534.016 Q661.223 529.317 659.279 526.655 Q657.357 523.97 653.978 523.97 Q650.598 523.97 648.654 526.655 Q646.732 529.317 646.732 534.016 Q646.732 538.715 648.654 541.4 Q650.598 544.062 653.978 544.062 Q657.357 544.062 659.279 541.4 Q661.223 538.715 661.223 534.016 Z" fill="#000000" fill-rule="nonzero" fill-opacity="1" /><path clip-path="url(#clip140)" d="M687.728 525.011 Q687.01 524.595 686.154 524.41 Q685.32 524.201 684.302 524.201 Q680.691 524.201 678.746 526.562 Q676.825 528.9 676.825 533.298 L676.825 546.956 L672.542 546.956 L672.542 521.03 L676.825 521.03 L676.825 525.058 Q678.167 522.697 680.32 521.562 Q682.473 520.405 685.552 520.405 Q685.991 520.405 686.524 520.474 Q687.056 520.521 687.704 520.636 L687.728 525.011 Z" fill="#000000" fill-rule="nonzero" fill-opacity="1" /><path clip-path="url(#clip140)" d="M713.329 532.928 L713.329 535.011 L693.746 535.011 Q694.024 539.409 696.385 541.724 Q698.769 544.016 703.005 544.016 Q705.459 544.016 707.751 543.414 Q710.065 542.812 712.334 541.609 L712.334 545.636 Q710.042 546.608 707.635 547.118 Q705.227 547.627 702.751 547.627 Q696.547 547.627 692.913 544.016 Q689.302 540.405 689.302 534.247 Q689.302 527.882 692.728 524.155 Q696.177 520.405 702.01 520.405 Q707.241 520.405 710.274 523.785 Q713.329 527.141 713.329 532.928 M709.07 531.678 Q709.024 528.183 707.102 526.099 Q705.204 524.016 702.056 524.016 Q698.491 524.016 696.339 526.03 Q694.209 528.044 693.885 531.701 L709.07 531.678 Z" fill="#000000" fill-rule="nonzero" fill-opacity="1" /><path clip-path="url(#clip140)" d="M738.977 522.025 L738.977 526.007 Q737.172 525.011 735.343 524.525 Q733.538 524.016 731.686 524.016 Q727.542 524.016 725.251 526.655 Q722.959 529.271 722.959 534.016 Q722.959 538.761 725.251 541.4 Q727.542 544.016 731.686 544.016 Q733.538 544.016 735.343 543.53 Q737.172 543.021 738.977 542.025 L738.977 545.96 Q737.195 546.794 735.274 547.21 Q733.375 547.627 731.223 547.627 Q725.366 547.627 721.917 543.946 Q718.468 540.266 718.468 534.016 Q718.468 527.673 721.94 524.039 Q725.436 520.405 731.501 520.405 Q733.468 520.405 735.343 520.822 Q737.218 521.215 738.977 522.025 Z" fill="#000000" fill-rule="nonzero" fill-opacity="1" /><polyline clip-path="url(#clip140)" style="stroke:#c68125; stroke-linecap:round; stroke-linejoin:round; stroke-width:4; stroke-opacity:1; fill:none" stroke-dasharray="2, 4" points="314.661,581.516 456.854,581.516 "/>
<circle clip-path="url(#clip140)" cx="385.758" cy="581.516" r="19.749" fill="#c68125" fill-rule="evenodd" fill-opacity="1" stroke="#000000" stroke-opacity="1" stroke-width="4.55111"/>
<path clip-path="url(#clip140)" d="M496.571 567.407 Q491.479 567.407 488.469 571.203 Q485.483 575 485.483 581.55 Q485.483 588.078 488.469 591.874 Q491.479 595.671 496.571 595.671 Q501.664 595.671 504.627 591.874 Q507.613 588.078 507.613 581.55 Q507.613 575 504.627 571.203 Q501.664 567.407 496.571 567.407 M503.122 598.171 L509.279 604.907 L503.631 604.907 L498.516 599.374 Q497.752 599.421 497.335 599.444 Q496.942 599.467 496.571 599.467 Q489.28 599.467 484.905 594.606 Q480.553 589.722 480.553 581.55 Q480.553 573.356 484.905 568.495 Q489.28 563.611 496.571 563.611 Q503.84 563.611 508.192 568.495 Q512.543 573.356 512.543 581.55 Q512.543 587.569 510.113 591.851 Q507.705 596.134 503.122 598.171 Z" fill="#000000" fill-rule="nonzero" fill-opacity="1" /><path clip-path="url(#clip140)" d="M519.858 564.236 L526.154 564.236 L541.478 593.148 L541.478 564.236 L546.015 564.236 L546.015 598.796 L539.719 598.796 L524.395 569.884 L524.395 598.796 L519.858 598.796 L519.858 564.236 Z" fill="#000000" fill-rule="nonzero" fill-opacity="1" /><path clip-path="url(#clip140)" d="M559.997 568.078 L559.997 594.953 L565.645 594.953 Q572.798 594.953 576.108 591.712 Q579.441 588.472 579.441 581.481 Q579.441 574.537 576.108 571.319 Q572.798 568.078 565.645 568.078 L559.997 568.078 M555.321 564.236 L564.927 564.236 Q574.974 564.236 579.673 568.426 Q584.372 572.592 584.372 581.481 Q584.372 590.416 579.649 594.606 Q574.927 598.796 564.927 598.796 L555.321 598.796 L555.321 564.236 Z" fill="#000000" fill-rule="nonzero" fill-opacity="1" /><path clip-path="url(#clip140)" d="M591.825 564.236 L611.686 564.236 L611.686 568.171 L596.501 568.171 L596.501 578.356 L610.205 578.356 L610.205 582.291 L596.501 582.291 L596.501 598.796 L591.825 598.796 L591.825 564.236 Z" fill="#000000" fill-rule="nonzero" fill-opacity="1" /><path clip-path="url(#clip140)" d="M638.607 606.666 L638.607 609.976 L613.978 609.976 L613.978 606.666 L638.607 606.666 Z" fill="#000000" fill-rule="nonzero" fill-opacity="1" /><path clip-path="url(#clip140)" d="M646.732 594.907 L646.732 608.657 L642.45 608.657 L642.45 572.87 L646.732 572.87 L646.732 576.805 Q648.075 574.49 650.112 573.379 Q652.172 572.245 655.019 572.245 Q659.742 572.245 662.681 575.995 Q665.644 579.745 665.644 585.856 Q665.644 591.967 662.681 595.717 Q659.742 599.467 655.019 599.467 Q652.172 599.467 650.112 598.356 Q648.075 597.222 646.732 594.907 M661.223 585.856 Q661.223 581.157 659.279 578.495 Q657.357 575.81 653.978 575.81 Q650.598 575.81 648.654 578.495 Q646.732 581.157 646.732 585.856 Q646.732 590.555 648.654 593.24 Q650.598 595.902 653.978 595.902 Q657.357 595.902 659.279 593.24 Q661.223 590.555 661.223 585.856 Z" fill="#000000" fill-rule="nonzero" fill-opacity="1" /><path clip-path="url(#clip140)" d="M687.728 576.851 Q687.01 576.435 686.154 576.25 Q685.32 576.041 684.302 576.041 Q680.691 576.041 678.746 578.402 Q676.825 580.74 676.825 585.138 L676.825 598.796 L672.542 598.796 L672.542 572.87 L676.825 572.87 L676.825 576.898 Q678.167 574.537 680.32 573.402 Q682.473 572.245 685.552 572.245 Q685.991 572.245 686.524 572.314 Q687.056 572.361 687.704 572.476 L687.728 576.851 Z" fill="#000000" fill-rule="nonzero" fill-opacity="1" /><path clip-path="url(#clip140)" d="M713.329 584.768 L713.329 586.851 L693.746 586.851 Q694.024 591.249 696.385 593.564 Q698.769 595.856 703.005 595.856 Q705.459 595.856 707.751 595.254 Q710.065 594.652 712.334 593.449 L712.334 597.476 Q710.042 598.448 707.635 598.958 Q705.227 599.467 702.751 599.467 Q696.547 599.467 692.913 595.856 Q689.302 592.245 689.302 586.087 Q689.302 579.722 692.728 575.995 Q696.177 572.245 702.01 572.245 Q707.241 572.245 710.274 575.625 Q713.329 578.981 713.329 584.768 M709.07 583.518 Q709.024 580.023 707.102 577.939 Q705.204 575.856 702.056 575.856 Q698.491 575.856 696.339 577.87 Q694.209 579.884 693.885 583.541 L709.07 583.518 Z" fill="#000000" fill-rule="nonzero" fill-opacity="1" /><path clip-path="url(#clip140)" d="M738.977 573.865 L738.977 577.847 Q737.172 576.851 735.343 576.365 Q733.538 575.856 731.686 575.856 Q727.542 575.856 725.251 578.495 Q722.959 581.111 722.959 585.856 Q722.959 590.601 725.251 593.24 Q727.542 595.856 731.686 595.856 Q733.538 595.856 735.343 595.37 Q737.172 594.861 738.977 593.865 L738.977 597.8 Q737.195 598.634 735.274 599.05 Q733.375 599.467 731.223 599.467 Q725.366 599.467 721.917 595.786 Q718.468 592.106 718.468 585.856 Q718.468 579.513 721.94 575.879 Q725.436 572.245 731.501 572.245 Q733.468 572.245 735.343 572.662 Q737.218 573.055 738.977 573.865 Z" fill="#000000" fill-rule="nonzero" fill-opacity="1" /><path clip-path="url(#clip140)" d="M746.57 564.236 L751.246 564.236 L751.246 596.388 Q751.246 602.638 748.862 605.462 Q746.5 608.286 741.246 608.286 L739.463 608.286 L739.463 604.351 L740.922 604.351 Q744.024 604.351 745.297 602.615 Q746.57 600.879 746.57 596.388 L746.57 564.236 Z" fill="#000000" fill-rule="nonzero" fill-opacity="1" /><path clip-path="url(#clip140)" d="M772.148 585.763 Q766.986 585.763 764.996 586.944 Q763.005 588.124 763.005 590.972 Q763.005 593.24 764.486 594.583 Q765.991 595.902 768.56 595.902 Q772.102 595.902 774.232 593.402 Q776.385 590.879 776.385 586.712 L776.385 585.763 L772.148 585.763 M780.644 584.004 L780.644 598.796 L776.385 598.796 L776.385 594.861 Q774.926 597.222 772.75 598.356 Q770.574 599.467 767.426 599.467 Q763.445 599.467 761.084 597.245 Q758.746 594.999 758.746 591.249 Q758.746 586.874 761.662 584.652 Q764.602 582.43 770.412 582.43 L776.385 582.43 L776.385 582.013 Q776.385 579.074 774.44 577.476 Q772.519 575.856 769.023 575.856 Q766.801 575.856 764.695 576.388 Q762.588 576.921 760.644 577.986 L760.644 574.05 Q762.982 573.148 765.181 572.708 Q767.38 572.245 769.463 572.245 Q775.088 572.245 777.866 575.162 Q780.644 578.078 780.644 584.004 Z" fill="#000000" fill-rule="nonzero" fill-opacity="1" /><path clip-path="url(#clip140)" d="M808.074 573.865 L808.074 577.847 Q806.269 576.851 804.44 576.365 Q802.634 575.856 800.783 575.856 Q796.639 575.856 794.347 578.495 Q792.056 581.111 792.056 585.856 Q792.056 590.601 794.347 593.24 Q796.639 595.856 800.783 595.856 Q802.634 595.856 804.44 595.37 Q806.269 594.861 808.074 593.865 L808.074 597.8 Q806.292 598.634 804.37 599.05 Q802.472 599.467 800.32 599.467 Q794.463 599.467 791.014 595.786 Q787.565 592.106 787.565 585.856 Q787.565 579.513 791.037 575.879 Q794.533 572.245 800.597 572.245 Q802.565 572.245 804.44 572.662 Q806.315 573.055 808.074 573.865 Z" fill="#000000" fill-rule="nonzero" fill-opacity="1" /><polyline clip-path="url(#clip140)" style="stroke:#00a98d; stroke-linecap:round; stroke-linejoin:round; stroke-width:4; stroke-opacity:1; fill:none" stroke-dasharray="2, 4" points="314.661,633.356 456.854,633.356 "/>
<circle clip-path="url(#clip140)" cx="385.758" cy="633.356" r="19.749" fill="#00a98d" fill-rule="evenodd" fill-opacity="1" stroke="#000000" stroke-opacity="1" stroke-width="4.55111"/>
<path clip-path="url(#clip140)" d="M496.571 619.247 Q491.479 619.247 488.469 623.043 Q485.483 626.84 485.483 633.39 Q485.483 639.918 488.469 643.714 Q491.479 647.511 496.571 647.511 Q501.664 647.511 504.627 643.714 Q507.613 639.918 507.613 633.39 Q507.613 626.84 504.627 623.043 Q501.664 619.247 496.571 619.247 M503.122 650.011 L509.279 656.747 L503.631 656.747 L498.516 651.214 Q497.752 651.261 497.335 651.284 Q496.942 651.307 496.571 651.307 Q489.28 651.307 484.905 646.446 Q480.553 641.562 480.553 633.39 Q480.553 625.196 484.905 620.335 Q489.28 615.451 496.571 615.451 Q503.84 615.451 508.192 620.335 Q512.543 625.196 512.543 633.39 Q512.543 639.409 510.113 643.691 Q507.705 647.974 503.122 650.011 Z" fill="#000000" fill-rule="nonzero" fill-opacity="1" /><path clip-path="url(#clip140)" d="M524.534 634.131 L524.534 646.793 L532.034 646.793 Q535.807 646.793 537.613 645.242 Q539.441 643.668 539.441 640.451 Q539.441 637.21 537.613 635.682 Q535.807 634.131 532.034 634.131 L524.534 634.131 M524.534 619.918 L524.534 630.335 L531.455 630.335 Q534.881 630.335 536.548 629.062 Q538.238 627.765 538.238 625.127 Q538.238 622.511 536.548 621.215 Q534.881 619.918 531.455 619.918 L524.534 619.918 M519.858 616.076 L531.803 616.076 Q537.15 616.076 540.043 618.298 Q542.937 620.52 542.937 624.617 Q542.937 627.789 541.455 629.664 Q539.974 631.539 537.103 632.002 Q540.552 632.742 542.451 635.103 Q544.372 637.441 544.372 640.96 Q544.372 645.589 541.224 648.113 Q538.076 650.636 532.265 650.636 L519.858 650.636 L519.858 616.076 Z" fill="#000000" fill-rule="nonzero" fill-opacity="1" /><path clip-path="url(#clip140)" d="M557.057 619.918 L557.057 646.793 L562.705 646.793 Q569.858 646.793 573.168 643.552 Q576.501 640.312 576.501 633.321 Q576.501 626.377 573.168 623.159 Q569.858 619.918 562.705 619.918 L557.057 619.918 M552.381 616.076 L561.988 616.076 Q572.034 616.076 576.733 620.266 Q581.432 624.432 581.432 633.321 Q581.432 642.256 576.71 646.446 Q571.987 650.636 561.988 650.636 L552.381 650.636 L552.381 616.076 Z" fill="#000000" fill-rule="nonzero" fill-opacity="1" /><path clip-path="url(#clip140)" d="M588.886 616.076 L608.747 616.076 L608.747 620.011 L593.561 620.011 L593.561 630.196 L607.265 630.196 L607.265 634.131 L593.561 634.131 L593.561 650.636 L588.886 650.636 L588.886 616.076 Z" fill="#000000" fill-rule="nonzero" fill-opacity="1" /><polyline clip-path="url(#clip140)" style="stroke:#8e971d; stroke-linecap:round; stroke-linejoin:round; stroke-width:4; stroke-opacity:1; fill:none" stroke-dasharray="2, 4" points="314.661,685.196 456.854,685.196 "/>
<circle clip-path="url(#clip140)" cx="385.758" cy="685.196" r="19.749" fill="#8e971d" fill-rule="evenodd" fill-opacity="1" stroke="#000000" stroke-opacity="1" stroke-width="4.55111"/>
<path clip-path="url(#clip140)" d="M496.571 671.087 Q491.479 671.087 488.469 674.883 Q485.483 678.68 485.483 685.23 Q485.483 691.758 488.469 695.554 Q491.479 699.351 496.571 699.351 Q501.664 699.351 504.627 695.554 Q507.613 691.758 507.613 685.23 Q507.613 678.68 504.627 674.883 Q501.664 671.087 496.571 671.087 M503.122 701.851 L509.279 708.587 L503.631 708.587 L498.516 703.054 Q497.752 703.101 497.335 703.124 Q496.942 703.147 496.571 703.147 Q489.28 703.147 484.905 698.286 Q480.553 693.402 480.553 685.23 Q480.553 677.036 484.905 672.175 Q489.28 667.291 496.571 667.291 Q503.84 667.291 508.192 672.175 Q512.543 677.036 512.543 685.23 Q512.543 691.249 510.113 695.531 Q507.705 699.814 503.122 701.851 Z" fill="#000000" fill-rule="nonzero" fill-opacity="1" /><path clip-path="url(#clip140)" d="M524.534 685.971 L524.534 698.633 L532.034 698.633 Q535.807 698.633 537.613 697.082 Q539.441 695.508 539.441 692.291 Q539.441 689.05 537.613 687.522 Q535.807 685.971 532.034 685.971 L524.534 685.971 M524.534 671.758 L524.534 682.175 L531.455 682.175 Q534.881 682.175 536.548 680.902 Q538.238 679.605 538.238 676.967 Q538.238 674.351 536.548 673.055 Q534.881 671.758 531.455 671.758 L524.534 671.758 M519.858 667.916 L531.803 667.916 Q537.15 667.916 540.043 670.138 Q542.937 672.36 542.937 676.457 Q542.937 679.629 541.455 681.504 Q539.974 683.379 537.103 683.842 Q540.552 684.582 542.451 686.943 Q544.372 689.281 544.372 692.8 Q544.372 697.429 541.224 699.953 Q538.076 702.476 532.265 702.476 L519.858 702.476 L519.858 667.916 Z" fill="#000000" fill-rule="nonzero" fill-opacity="1" /><path clip-path="url(#clip140)" d="M557.057 671.758 L557.057 698.633 L562.705 698.633 Q569.858 698.633 573.168 695.392 Q576.501 692.152 576.501 685.161 Q576.501 678.217 573.168 674.999 Q569.858 671.758 562.705 671.758 L557.057 671.758 M552.381 667.916 L561.988 667.916 Q572.034 667.916 576.733 672.106 Q581.432 676.272 581.432 685.161 Q581.432 694.096 576.71 698.286 Q571.987 702.476 561.988 702.476 L552.381 702.476 L552.381 667.916 Z" fill="#000000" fill-rule="nonzero" fill-opacity="1" /><path clip-path="url(#clip140)" d="M588.886 667.916 L608.747 667.916 L608.747 671.851 L593.561 671.851 L593.561 682.036 L607.265 682.036 L607.265 685.971 L593.561 685.971 L593.561 702.476 L588.886 702.476 L588.886 667.916 Z" fill="#000000" fill-rule="nonzero" fill-opacity="1" /><path clip-path="url(#clip140)" d="M635.668 710.346 L635.668 713.656 L611.038 713.656 L611.038 710.346 L635.668 710.346 Z" fill="#000000" fill-rule="nonzero" fill-opacity="1" /><path clip-path="url(#clip140)" d="M639.672 676.55 L643.932 676.55 L643.932 702.939 Q643.932 707.892 642.033 710.115 Q640.158 712.337 635.969 712.337 L634.348 712.337 L634.348 708.726 L635.483 708.726 Q637.913 708.726 638.793 707.591 Q639.672 706.48 639.672 702.939 L639.672 676.55 M639.672 666.457 L643.932 666.457 L643.932 671.851 L639.672 671.851 L639.672 666.457 Z" fill="#000000" fill-rule="nonzero" fill-opacity="1" /><path clip-path="url(#clip140)" d="M664.626 689.443 Q659.464 689.443 657.473 690.624 Q655.482 691.804 655.482 694.652 Q655.482 696.92 656.964 698.263 Q658.468 699.582 661.038 699.582 Q664.58 699.582 666.709 697.082 Q668.862 694.559 668.862 690.392 L668.862 689.443 L664.626 689.443 M673.121 687.684 L673.121 702.476 L668.862 702.476 L668.862 698.541 Q667.404 700.902 665.228 702.036 Q663.052 703.147 659.904 703.147 Q655.922 703.147 653.561 700.925 Q651.223 698.679 651.223 694.929 Q651.223 690.554 654.14 688.332 Q657.08 686.11 662.89 686.11 L668.862 686.11 L668.862 685.693 Q668.862 682.754 666.918 681.156 Q664.996 679.536 661.501 679.536 Q659.279 679.536 657.172 680.068 Q655.066 680.601 653.121 681.666 L653.121 677.73 Q655.459 676.828 657.658 676.388 Q659.857 675.925 661.941 675.925 Q667.566 675.925 670.343 678.842 Q673.121 681.758 673.121 687.684 Z" fill="#000000" fill-rule="nonzero" fill-opacity="1" /><path clip-path="url(#clip140)" d="M700.552 677.545 L700.552 681.527 Q698.746 680.531 696.917 680.045 Q695.112 679.536 693.26 679.536 Q689.116 679.536 686.825 682.175 Q684.533 684.791 684.533 689.536 Q684.533 694.281 686.825 696.92 Q689.116 699.536 693.26 699.536 Q695.112 699.536 696.917 699.05 Q698.746 698.541 700.552 697.545 L700.552 701.48 Q698.769 702.314 696.848 702.73 Q694.95 703.147 692.797 703.147 Q686.941 703.147 683.492 699.466 Q680.042 695.786 680.042 689.536 Q680.042 683.193 683.515 679.559 Q687.01 675.925 693.075 675.925 Q695.042 675.925 696.917 676.342 Q698.792 676.735 700.552 677.545 Z" fill="#000000" fill-rule="nonzero" fill-opacity="1" /><polyline clip-path="url(#clip140)" style="stroke:#00a8cb; stroke-linecap:round; stroke-linejoin:round; stroke-width:4; stroke-opacity:1; fill:none" stroke-dasharray="2, 4" points="314.661,737.036 456.854,737.036 "/>
<circle clip-path="url(#clip140)" cx="385.758" cy="737.036" r="19.749" fill="#00a8cb" fill-rule="evenodd" fill-opacity="1" stroke="#000000" stroke-opacity="1" stroke-width="4.55111"/>
<path clip-path="url(#clip140)" d="M496.571 722.927 Q491.479 722.927 488.469 726.723 Q485.483 730.52 485.483 737.07 Q485.483 743.598 488.469 747.394 Q491.479 751.191 496.571 751.191 Q501.664 751.191 504.627 747.394 Q507.613 743.598 507.613 737.07 Q507.613 730.52 504.627 726.723 Q501.664 722.927 496.571 722.927 M503.122 753.691 L509.279 760.427 L503.631 760.427 L498.516 754.894 Q497.752 754.941 497.335 754.964 Q496.942 754.987 496.571 754.987 Q489.28 754.987 484.905 750.126 Q480.553 745.242 480.553 737.07 Q480.553 728.876 484.905 724.015 Q489.28 719.131 496.571 719.131 Q503.84 719.131 508.192 724.015 Q512.543 728.876 512.543 737.07 Q512.543 743.089 510.113 747.371 Q507.705 751.654 503.122 753.691 Z" fill="#000000" fill-rule="nonzero" fill-opacity="1" /><path clip-path="url(#clip140)" d="M524.534 737.811 L524.534 750.473 L532.034 750.473 Q535.807 750.473 537.613 748.922 Q539.441 747.348 539.441 744.131 Q539.441 740.89 537.613 739.362 Q535.807 737.811 532.034 737.811 L524.534 737.811 M524.534 723.598 L524.534 734.015 L531.455 734.015 Q534.881 734.015 536.548 732.742 Q538.238 731.445 538.238 728.807 Q538.238 726.191 536.548 724.895 Q534.881 723.598 531.455 723.598 L524.534 723.598 M519.858 719.756 L531.803 719.756 Q537.15 719.756 540.043 721.978 Q542.937 724.2 542.937 728.297 Q542.937 731.469 541.455 733.344 Q539.974 735.219 537.103 735.682 Q540.552 736.422 542.451 738.783 Q544.372 741.121 544.372 744.64 Q544.372 749.269 541.224 751.793 Q538.076 754.316 532.265 754.316 L519.858 754.316 L519.858 719.756 Z" fill="#000000" fill-rule="nonzero" fill-opacity="1" /><path clip-path="url(#clip140)" d="M557.057 723.598 L557.057 750.473 L562.705 750.473 Q569.858 750.473 573.168 747.232 Q576.501 743.992 576.501 737.001 Q576.501 730.057 573.168 726.839 Q569.858 723.598 562.705 723.598 L557.057 723.598 M552.381 719.756 L561.988 719.756 Q572.034 719.756 576.733 723.946 Q581.432 728.112 581.432 737.001 Q581.432 745.936 576.71 750.126 Q571.987 754.316 561.988 754.316 L552.381 754.316 L552.381 719.756 Z" fill="#000000" fill-rule="nonzero" fill-opacity="1" /><path clip-path="url(#clip140)" d="M588.886 719.756 L608.747 719.756 L608.747 723.691 L593.561 723.691 L593.561 733.876 L607.265 733.876 L607.265 737.811 L593.561 737.811 L593.561 754.316 L588.886 754.316 L588.886 719.756 Z" fill="#000000" fill-rule="nonzero" fill-opacity="1" /><path clip-path="url(#clip140)" d="M635.668 762.186 L635.668 765.496 L611.038 765.496 L611.038 762.186 L635.668 762.186 Z" fill="#000000" fill-rule="nonzero" fill-opacity="1" /><path clip-path="url(#clip140)" d="M643.793 750.427 L643.793 764.177 L639.51 764.177 L639.51 728.39 L643.793 728.39 L643.793 732.325 Q645.135 730.01 647.172 728.899 Q649.232 727.765 652.08 727.765 Q656.802 727.765 659.742 731.515 Q662.705 735.265 662.705 741.376 Q662.705 747.487 659.742 751.237 Q656.802 754.987 652.08 754.987 Q649.232 754.987 647.172 753.876 Q645.135 752.742 643.793 750.427 M658.283 741.376 Q658.283 736.677 656.339 734.015 Q654.418 731.33 651.038 731.33 Q647.658 731.33 645.714 734.015 Q643.793 736.677 643.793 741.376 Q643.793 746.075 645.714 748.76 Q647.658 751.422 651.038 751.422 Q654.418 751.422 656.339 748.76 Q658.283 746.075 658.283 741.376 Z" fill="#000000" fill-rule="nonzero" fill-opacity="1" /><path clip-path="url(#clip140)" d="M684.788 732.371 Q684.07 731.955 683.214 731.77 Q682.38 731.561 681.362 731.561 Q677.751 731.561 675.806 733.922 Q673.885 736.26 673.885 740.658 L673.885 754.316 L669.603 754.316 L669.603 728.39 L673.885 728.39 L673.885 732.418 Q675.228 730.057 677.38 728.922 Q679.533 727.765 682.612 727.765 Q683.052 727.765 683.584 727.834 Q684.117 727.881 684.765 727.996 L684.788 732.371 Z" fill="#000000" fill-rule="nonzero" fill-opacity="1" /><path clip-path="url(#clip140)" d="M710.39 740.288 L710.39 742.371 L690.806 742.371 Q691.084 746.769 693.445 749.084 Q695.829 751.376 700.065 751.376 Q702.519 751.376 704.811 750.774 Q707.126 750.172 709.394 748.969 L709.394 752.996 Q707.102 753.968 704.695 754.478 Q702.288 754.987 699.811 754.987 Q693.607 754.987 689.973 751.376 Q686.362 747.765 686.362 741.607 Q686.362 735.242 689.788 731.515 Q693.237 727.765 699.07 727.765 Q704.302 727.765 707.334 731.145 Q710.39 734.501 710.39 740.288 M706.13 739.038 Q706.084 735.543 704.163 733.459 Q702.265 731.376 699.116 731.376 Q695.552 731.376 693.399 733.39 Q691.269 735.404 690.945 739.061 L706.13 739.038 Z" fill="#000000" fill-rule="nonzero" fill-opacity="1" /><path clip-path="url(#clip140)" d="M736.038 729.385 L736.038 733.367 Q734.232 732.371 732.403 731.885 Q730.598 731.376 728.746 731.376 Q724.602 731.376 722.311 734.015 Q720.019 736.631 720.019 741.376 Q720.019 746.121 722.311 748.76 Q724.602 751.376 728.746 751.376 Q730.598 751.376 732.403 750.89 Q734.232 750.381 736.038 749.385 L736.038 753.32 Q734.255 754.154 732.334 754.57 Q730.436 754.987 728.283 754.987 Q722.426 754.987 718.977 751.306 Q715.528 747.626 715.528 741.376 Q715.528 735.033 719.001 731.399 Q722.496 727.765 728.561 727.765 Q730.528 727.765 732.403 728.182 Q734.278 728.575 736.038 729.385 Z" fill="#000000" fill-rule="nonzero" fill-opacity="1" /><polyline clip-path="url(#clip140)" style="stroke:#9b7fe8; stroke-linecap:round; stroke-linejoin:round; stroke-width:4; stroke-opacity:1; fill:none" stroke-dasharray="2, 4" points="314.661,788.876 456.854,788.876 "/>
<circle clip-path="url(#clip140)" cx="385.758" cy="788.876" r="19.749" fill="#9b7fe8" fill-rule="evenodd" fill-opacity="1" stroke="#000000" stroke-opacity="1" stroke-width="4.55111"/>
<path clip-path="url(#clip140)" d="M496.571 774.767 Q491.479 774.767 488.469 778.563 Q485.483 782.36 485.483 788.91 Q485.483 795.438 488.469 799.234 Q491.479 803.031 496.571 803.031 Q501.664 803.031 504.627 799.234 Q507.613 795.438 507.613 788.91 Q507.613 782.36 504.627 778.563 Q501.664 774.767 496.571 774.767 M503.122 805.531 L509.279 812.267 L503.631 812.267 L498.516 806.734 Q497.752 806.781 497.335 806.804 Q496.942 806.827 496.571 806.827 Q489.28 806.827 484.905 801.966 Q480.553 797.082 480.553 788.91 Q480.553 780.716 484.905 775.855 Q489.28 770.971 496.571 770.971 Q503.84 770.971 508.192 775.855 Q512.543 780.716 512.543 788.91 Q512.543 794.929 510.113 799.211 Q507.705 803.494 503.122 805.531 Z" fill="#000000" fill-rule="nonzero" fill-opacity="1" /><path clip-path="url(#clip140)" d="M524.534 789.651 L524.534 802.313 L532.034 802.313 Q535.807 802.313 537.613 800.762 Q539.441 799.188 539.441 795.971 Q539.441 792.73 537.613 791.202 Q535.807 789.651 532.034 789.651 L524.534 789.651 M524.534 775.438 L524.534 785.855 L531.455 785.855 Q534.881 785.855 536.548 784.582 Q538.238 783.285 538.238 780.647 Q538.238 778.031 536.548 776.735 Q534.881 775.438 531.455 775.438 L524.534 775.438 M519.858 771.596 L531.803 771.596 Q537.15 771.596 540.043 773.818 Q542.937 776.04 542.937 780.137 Q542.937 783.309 541.455 785.184 Q539.974 787.059 537.103 787.522 Q540.552 788.262 542.451 790.623 Q544.372 792.961 544.372 796.48 Q544.372 801.109 541.224 803.633 Q538.076 806.156 532.265 806.156 L519.858 806.156 L519.858 771.596 Z" fill="#000000" fill-rule="nonzero" fill-opacity="1" /><path clip-path="url(#clip140)" d="M557.057 775.438 L557.057 802.313 L562.705 802.313 Q569.858 802.313 573.168 799.072 Q576.501 795.832 576.501 788.841 Q576.501 781.897 573.168 778.679 Q569.858 775.438 562.705 775.438 L557.057 775.438 M552.381 771.596 L561.988 771.596 Q572.034 771.596 576.733 775.786 Q581.432 779.952 581.432 788.841 Q581.432 797.776 576.71 801.966 Q571.987 806.156 561.988 806.156 L552.381 806.156 L552.381 771.596 Z" fill="#000000" fill-rule="nonzero" fill-opacity="1" /><path clip-path="url(#clip140)" d="M588.886 771.596 L608.747 771.596 L608.747 775.531 L593.561 775.531 L593.561 785.716 L607.265 785.716 L607.265 789.651 L593.561 789.651 L593.561 806.156 L588.886 806.156 L588.886 771.596 Z" fill="#000000" fill-rule="nonzero" fill-opacity="1" /><path clip-path="url(#clip140)" d="M635.668 814.026 L635.668 817.336 L611.038 817.336 L611.038 814.026 L635.668 814.026 Z" fill="#000000" fill-rule="nonzero" fill-opacity="1" /><path clip-path="url(#clip140)" d="M643.793 802.267 L643.793 816.017 L639.51 816.017 L639.51 780.23 L643.793 780.23 L643.793 784.165 Q645.135 781.85 647.172 780.739 Q649.232 779.605 652.08 779.605 Q656.802 779.605 659.742 783.355 Q662.705 787.105 662.705 793.216 Q662.705 799.327 659.742 803.077 Q656.802 806.827 652.08 806.827 Q649.232 806.827 647.172 805.716 Q645.135 804.582 643.793 802.267 M658.283 793.216 Q658.283 788.517 656.339 785.855 Q654.418 783.17 651.038 783.17 Q647.658 783.17 645.714 785.855 Q643.793 788.517 643.793 793.216 Q643.793 797.915 645.714 800.6 Q647.658 803.262 651.038 803.262 Q654.418 803.262 656.339 800.6 Q658.283 797.915 658.283 793.216 Z" fill="#000000" fill-rule="nonzero" fill-opacity="1" /><path clip-path="url(#clip140)" d="M684.788 784.211 Q684.07 783.795 683.214 783.61 Q682.38 783.401 681.362 783.401 Q677.751 783.401 675.806 785.762 Q673.885 788.1 673.885 792.498 L673.885 806.156 L669.603 806.156 L669.603 780.23 L673.885 780.23 L673.885 784.258 Q675.228 781.897 677.38 780.762 Q679.533 779.605 682.612 779.605 Q683.052 779.605 683.584 779.674 Q684.117 779.721 684.765 779.836 L684.788 784.211 Z" fill="#000000" fill-rule="nonzero" fill-opacity="1" /><path clip-path="url(#clip140)" d="M710.39 792.128 L710.39 794.211 L690.806 794.211 Q691.084 798.609 693.445 800.924 Q695.829 803.216 700.065 803.216 Q702.519 803.216 704.811 802.614 Q707.126 802.012 709.394 800.809 L709.394 804.836 Q707.102 805.808 704.695 806.318 Q702.288 806.827 699.811 806.827 Q693.607 806.827 689.973 803.216 Q686.362 799.605 686.362 793.447 Q686.362 787.082 689.788 783.355 Q693.237 779.605 699.07 779.605 Q704.302 779.605 707.334 782.985 Q710.39 786.341 710.39 792.128 M706.13 790.878 Q706.084 787.383 704.163 785.299 Q702.265 783.216 699.116 783.216 Q695.552 783.216 693.399 785.23 Q691.269 787.244 690.945 790.901 L706.13 790.878 Z" fill="#000000" fill-rule="nonzero" fill-opacity="1" /><path clip-path="url(#clip140)" d="M736.038 781.225 L736.038 785.207 Q734.232 784.211 732.403 783.725 Q730.598 783.216 728.746 783.216 Q724.602 783.216 722.311 785.855 Q720.019 788.471 720.019 793.216 Q720.019 797.961 722.311 800.6 Q724.602 803.216 728.746 803.216 Q730.598 803.216 732.403 802.73 Q734.232 802.221 736.038 801.225 L736.038 805.16 Q734.255 805.994 732.334 806.41 Q730.436 806.827 728.283 806.827 Q722.426 806.827 718.977 803.146 Q715.528 799.466 715.528 793.216 Q715.528 786.873 719.001 783.239 Q722.496 779.605 728.561 779.605 Q730.528 779.605 732.403 780.022 Q734.278 780.415 736.038 781.225 Z" fill="#000000" fill-rule="nonzero" fill-opacity="1" /><path clip-path="url(#clip140)" d="M743.63 771.596 L748.306 771.596 L748.306 803.748 Q748.306 809.998 745.922 812.822 Q743.561 815.646 738.306 815.646 L736.524 815.646 L736.524 811.711 L737.982 811.711 Q741.084 811.711 742.357 809.975 Q743.63 808.239 743.63 803.748 L743.63 771.596 Z" fill="#000000" fill-rule="nonzero" fill-opacity="1" /><path clip-path="url(#clip140)" d="M769.209 793.123 Q764.047 793.123 762.056 794.304 Q760.065 795.484 760.065 798.332 Q760.065 800.6 761.547 801.943 Q763.051 803.262 765.621 803.262 Q769.162 803.262 771.292 800.762 Q773.445 798.239 773.445 794.072 L773.445 793.123 L769.209 793.123 M777.704 791.364 L777.704 806.156 L773.445 806.156 L773.445 802.221 Q771.986 804.582 769.81 805.716 Q767.635 806.827 764.486 806.827 Q760.505 806.827 758.144 804.605 Q755.806 802.359 755.806 798.609 Q755.806 794.234 758.723 792.012 Q761.662 789.79 767.473 789.79 L773.445 789.79 L773.445 789.373 Q773.445 786.434 771.5 784.836 Q769.579 783.216 766.084 783.216 Q763.861 783.216 761.755 783.748 Q759.649 784.281 757.704 785.346 L757.704 781.41 Q760.042 780.508 762.241 780.068 Q764.44 779.605 766.523 779.605 Q772.148 779.605 774.926 782.522 Q777.704 785.438 777.704 791.364 Z" fill="#000000" fill-rule="nonzero" fill-opacity="1" /><path clip-path="url(#clip140)" d="M805.134 781.225 L805.134 785.207 Q803.329 784.211 801.5 783.725 Q799.695 783.216 797.843 783.216 Q793.699 783.216 791.408 785.855 Q789.116 788.471 789.116 793.216 Q789.116 797.961 791.408 800.6 Q793.699 803.216 797.843 803.216 Q799.695 803.216 801.5 802.73 Q803.329 802.221 805.134 801.225 L805.134 805.16 Q803.352 805.994 801.431 806.41 Q799.533 806.827 797.38 806.827 Q791.523 806.827 788.074 803.146 Q784.625 799.466 784.625 793.216 Q784.625 786.873 788.097 783.239 Q791.593 779.605 797.658 779.605 Q799.625 779.605 801.5 780.022 Q803.375 780.415 805.134 781.225 Z" fill="#000000" fill-rule="nonzero" fill-opacity="1" /></svg>
