<?xml version="1.0" encoding="utf-8"?>
<svg xmlns="http://www.w3.org/2000/svg" xmlns:xlink="http://www.w3.org/1999/xlink" width="600" height="400" viewBox="0 0 2400 1600">
<defs>
  <clipPath id="clip240">
    <rect x="0" y="0" width="2400" height="1600"/>
  </clipPath>
</defs>
<path clip-path="url(#clip240)" d="M0 1600 L2400 1600 L2400 0 L0 0  Z" fill="#ffffff" fill-rule="evenodd" fill-opacity="1"/>
<defs>
  <clipPath id="clip241">
    <rect x="480" y="0" width="1681" height="1600"/>
  </clipPath>
</defs>
<path clip-path="url(#clip240)" d="M174.149 1423.18 L2352.76 1423.18 L2352.76 123.472 L174.149 123.472  Z" fill="#ffffff" fill-rule="evenodd" fill-opacity="1"/>
<defs>
  <clipPath id="clip242">
    <rect x="174" y="123" width="2180" height="1301"/>
  </clipPath>
</defs>
<polyline clip-path="url(#clip242)" style="stroke:#000000; stroke-linecap:round; stroke-linejoin:round; stroke-width:2; stroke-opacity:0.1; fill:none" points="529.42,1423.18 529.42,123.472 "/>
<polyline clip-path="url(#clip242)" style="stroke:#000000; stroke-linecap:round; stroke-linejoin:round; stroke-width:2; stroke-opacity:0.1; fill:none" points="1116.65,1423.18 1116.65,123.472 "/>
<polyline clip-path="url(#clip242)" style="stroke:#000000; stroke-linecap:round; stroke-linejoin:round; stroke-width:2; stroke-opacity:0.1; fill:none" points="1703.87,1423.18 1703.87,123.472 "/>
<polyline clip-path="url(#clip242)" style="stroke:#000000; stroke-linecap:round; stroke-linejoin:round; stroke-width:2; stroke-opacity:0.1; fill:none" points="2291.1,1423.18 2291.1,123.472 "/>
<polyline clip-path="url(#clip240)" style="stroke:#000000; stroke-linecap:round; stroke-linejoin:round; stroke-width:4; stroke-opacity:1; fill:none" points="174.149,1423.18 2352.76,1423.18 "/>
<polyline clip-path="url(#clip240)" style="stroke:#000000; stroke-linecap:round; stroke-linejoin:round; stroke-width:4; stroke-opacity:1; fill:none" points="529.42,1423.18 529.42,1404.28 "/>
<polyline clip-path="url(#clip240)" style="stroke:#000000; stroke-linecap:round; stroke-linejoin:round; stroke-width:4; stroke-opacity:1; fill:none" points="1116.65,1423.18 1116.65,1404.28 "/>
<polyline clip-path="url(#clip240)" style="stroke:#000000; stroke-linecap:round; stroke-linejoin:round; stroke-width:4; stroke-opacity:1; fill:none" points="1703.87,1423.18 1703.87,1404.28 "/>
<polyline clip-path="url(#clip240)" style="stroke:#000000; stroke-linecap:round; stroke-linejoin:round; stroke-width:4; stroke-opacity:1; fill:none" points="2291.1,1423.18 2291.1,1404.28 "/>
<path clip-path="url(#clip240)" d="M489.027 1481.64 L496.666 1481.64 L496.666 1455.28 L488.356 1456.95 L488.356 1452.69 L496.62 1451.02 L501.296 1451.02 L501.296 1481.64 L508.934 1481.64 L508.934 1485.58 L489.027 1485.58 L489.027 1481.64 Z" fill="#000000" fill-rule="nonzero" fill-opacity="1" /><path clip-path="url(#clip240)" d="M528.379 1454.1 Q524.768 1454.1 522.939 1457.66 Q521.133 1461.2 521.133 1468.33 Q521.133 1475.44 522.939 1479.01 Q524.768 1482.55 528.379 1482.55 Q532.013 1482.55 533.819 1479.01 Q535.647 1475.44 535.647 1468.33 Q535.647 1461.2 533.819 1457.66 Q532.013 1454.1 528.379 1454.1 M528.379 1450.39 Q534.189 1450.39 537.244 1455 Q540.323 1459.58 540.323 1468.33 Q540.323 1477.06 537.244 1481.67 Q534.189 1486.25 528.379 1486.25 Q522.569 1486.25 519.49 1481.67 Q516.434 1477.06 516.434 1468.33 Q516.434 1459.58 519.49 1455 Q522.569 1450.39 528.379 1450.39 Z" fill="#000000" fill-rule="nonzero" fill-opacity="1" /><path clip-path="url(#clip240)" d="M558.541 1454.1 Q554.93 1454.1 553.101 1457.66 Q551.295 1461.2 551.295 1468.33 Q551.295 1475.44 553.101 1479.01 Q554.93 1482.55 558.541 1482.55 Q562.175 1482.55 563.98 1479.01 Q565.809 1475.44 565.809 1468.33 Q565.809 1461.2 563.98 1457.66 Q562.175 1454.1 558.541 1454.1 M558.541 1450.39 Q564.351 1450.39 567.406 1455 Q570.485 1459.58 570.485 1468.33 Q570.485 1477.06 567.406 1481.67 Q564.351 1486.25 558.541 1486.25 Q552.73 1486.25 549.652 1481.67 Q546.596 1477.06 546.596 1468.33 Q546.596 1459.58 549.652 1455 Q552.73 1450.39 558.541 1450.39 Z" fill="#000000" fill-rule="nonzero" fill-opacity="1" /><path clip-path="url(#clip240)" d="M1080.34 1481.64 L1096.66 1481.64 L1096.66 1485.58 L1074.71 1485.58 L1074.71 1481.64 Q1077.38 1478.89 1081.96 1474.26 Q1086.57 1469.61 1087.75 1468.27 Q1089.99 1465.74 1090.87 1464.01 Q1091.77 1462.25 1091.77 1460.56 Q1091.77 1457.8 1089.83 1456.07 Q1087.91 1454.33 1084.81 1454.33 Q1082.61 1454.33 1080.15 1455.09 Q1077.72 1455.86 1074.94 1457.41 L1074.94 1452.69 Q1077.77 1451.55 1080.22 1450.97 Q1082.68 1450.39 1084.71 1450.39 Q1090.08 1450.39 1093.28 1453.08 Q1096.47 1455.77 1096.47 1460.26 Q1096.47 1462.39 1095.66 1464.31 Q1094.88 1466.2 1092.77 1468.8 Q1092.19 1469.47 1089.09 1472.69 Q1085.99 1475.88 1080.34 1481.64 Z" fill="#000000" fill-rule="nonzero" fill-opacity="1" /><path clip-path="url(#clip240)" d="M1116.47 1454.1 Q1112.86 1454.1 1111.03 1457.66 Q1109.23 1461.2 1109.23 1468.33 Q1109.23 1475.44 1111.03 1479.01 Q1112.86 1482.55 1116.47 1482.55 Q1120.11 1482.55 1121.91 1479.01 Q1123.74 1475.44 1123.74 1468.33 Q1123.74 1461.2 1121.91 1457.66 Q1120.11 1454.1 1116.47 1454.1 M1116.47 1450.39 Q1122.28 1450.39 1125.34 1455 Q1128.42 1459.58 1128.42 1468.33 Q1128.42 1477.06 1125.34 1481.67 Q1122.28 1486.25 1116.47 1486.25 Q1110.66 1486.25 1107.58 1481.67 Q1104.53 1477.06 1104.53 1468.33 Q1104.53 1459.58 1107.58 1455 Q1110.66 1450.39 1116.47 1450.39 Z" fill="#000000" fill-rule="nonzero" fill-opacity="1" /><path clip-path="url(#clip240)" d="M1146.63 1454.1 Q1143.02 1454.1 1141.19 1457.66 Q1139.39 1461.2 1139.39 1468.33 Q1139.39 1475.44 1141.19 1479.01 Q1143.02 1482.55 1146.63 1482.55 Q1150.27 1482.55 1152.07 1479.01 Q1153.9 1475.44 1153.9 1468.33 Q1153.9 1461.2 1152.07 1457.66 Q1150.27 1454.1 1146.63 1454.1 M1146.63 1450.39 Q1152.44 1450.39 1155.5 1455 Q1158.58 1459.58 1158.58 1468.33 Q1158.58 1477.06 1155.5 1481.67 Q1152.44 1486.25 1146.63 1486.25 Q1140.82 1486.25 1137.75 1481.67 Q1134.69 1477.06 1134.69 1468.33 Q1134.69 1459.58 1137.75 1455 Q1140.82 1450.39 1146.63 1450.39 Z" fill="#000000" fill-rule="nonzero" fill-opacity="1" /><path clip-path="url(#clip240)" d="M1677.63 1466.95 Q1680.99 1467.66 1682.86 1469.93 Q1684.76 1472.2 1684.76 1475.53 Q1684.76 1480.65 1681.24 1483.45 Q1677.73 1486.25 1671.24 1486.25 Q1669.07 1486.25 1666.75 1485.81 Q1664.46 1485.39 1662.01 1484.54 L1662.01 1480.02 Q1663.95 1481.16 1666.27 1481.74 Q1668.58 1482.32 1671.11 1482.32 Q1675.5 1482.32 1677.8 1480.58 Q1680.11 1478.84 1680.11 1475.53 Q1680.11 1472.48 1677.96 1470.77 Q1675.83 1469.03 1672.01 1469.03 L1667.98 1469.03 L1667.98 1465.19 L1672.19 1465.19 Q1675.64 1465.19 1677.47 1463.82 Q1679.3 1462.43 1679.3 1459.84 Q1679.3 1457.18 1677.4 1455.77 Q1675.53 1454.33 1672.01 1454.33 Q1670.09 1454.33 1667.89 1454.75 Q1665.69 1455.16 1663.05 1456.04 L1663.05 1451.88 Q1665.71 1451.14 1668.03 1450.77 Q1670.36 1450.39 1672.43 1450.39 Q1677.75 1450.39 1680.85 1452.83 Q1683.95 1455.23 1683.95 1459.35 Q1683.95 1462.22 1682.31 1464.21 Q1680.67 1466.18 1677.63 1466.95 Z" fill="#000000" fill-rule="nonzero" fill-opacity="1" /><path clip-path="url(#clip240)" d="M1703.63 1454.1 Q1700.02 1454.1 1698.19 1457.66 Q1696.38 1461.2 1696.38 1468.33 Q1696.38 1475.44 1698.19 1479.01 Q1700.02 1482.55 1703.63 1482.55 Q1707.26 1482.55 1709.07 1479.01 Q1710.9 1475.44 1710.9 1468.33 Q1710.9 1461.2 1709.07 1457.66 Q1707.26 1454.1 1703.63 1454.1 M1703.63 1450.39 Q1709.44 1450.39 1712.49 1455 Q1715.57 1459.58 1715.57 1468.33 Q1715.57 1477.06 1712.49 1481.67 Q1709.44 1486.25 1703.63 1486.25 Q1697.82 1486.25 1694.74 1481.67 Q1691.68 1477.06 1691.68 1468.33 Q1691.68 1459.58 1694.74 1455 Q1697.82 1450.39 1703.63 1450.39 Z" fill="#000000" fill-rule="nonzero" fill-opacity="1" /><path clip-path="url(#clip240)" d="M1733.79 1454.1 Q1730.18 1454.1 1728.35 1457.66 Q1726.55 1461.2 1726.55 1468.33 Q1726.55 1475.44 1728.35 1479.01 Q1730.18 1482.55 1733.79 1482.55 Q1737.42 1482.55 1739.23 1479.01 Q1741.06 1475.44 1741.06 1468.33 Q1741.06 1461.2 1739.23 1457.66 Q1737.42 1454.1 1733.79 1454.1 M1733.79 1450.39 Q1739.6 1450.39 1742.66 1455 Q1745.73 1459.58 1745.73 1468.33 Q1745.73 1477.06 1742.66 1481.67 Q1739.6 1486.25 1733.79 1486.25 Q1727.98 1486.25 1724.9 1481.67 Q1721.85 1477.06 1721.85 1468.33 Q1721.85 1459.58 1724.9 1455 Q1727.98 1450.39 1733.79 1450.39 Z" fill="#000000" fill-rule="nonzero" fill-opacity="1" /><path clip-path="url(#clip240)" d="M2264.19 1455.09 L2252.38 1473.54 L2264.19 1473.54 L2264.19 1455.09 M2262.96 1451.02 L2268.84 1451.02 L2268.84 1473.54 L2273.77 1473.54 L2273.77 1477.43 L2268.84 1477.43 L2268.84 1485.58 L2264.19 1485.58 L2264.19 1477.43 L2248.59 1477.43 L2248.59 1472.92 L2262.96 1451.02 Z" fill="#000000" fill-rule="nonzero" fill-opacity="1" /><path clip-path="url(#clip240)" d="M2291.5 1454.1 Q2287.89 1454.1 2286.06 1457.66 Q2284.26 1461.2 2284.26 1468.33 Q2284.26 1475.44 2286.06 1479.01 Q2287.89 1482.55 2291.5 1482.55 Q2295.14 1482.55 2296.94 1479.01 Q2298.77 1475.44 2298.77 1468.33 Q2298.77 1461.2 2296.94 1457.66 Q2295.14 1454.1 2291.5 1454.1 M2291.5 1450.39 Q2297.31 1450.39 2300.37 1455 Q2303.45 1459.58 2303.45 1468.33 Q2303.45 1477.06 2300.37 1481.67 Q2297.31 1486.25 2291.5 1486.25 Q2285.69 1486.25 2282.61 1481.67 Q2279.56 1477.06 2279.56 1468.33 Q2279.56 1459.58 2282.61 1455 Q2285.69 1450.39 2291.5 1450.39 Z" fill="#000000" fill-rule="nonzero" fill-opacity="1" /><path clip-path="url(#clip240)" d="M2321.66 1454.1 Q2318.05 1454.1 2316.22 1457.66 Q2314.42 1461.2 2314.42 1468.33 Q2314.42 1475.44 2316.22 1479.01 Q2318.05 1482.55 2321.66 1482.55 Q2325.3 1482.55 2327.1 1479.01 Q2328.93 1475.44 2328.93 1468.33 Q2328.93 1461.2 2327.1 1457.66 Q2325.3 1454.1 2321.66 1454.1 M2321.66 1450.39 Q2327.47 1450.39 2330.53 1455 Q2333.61 1459.58 2333.61 1468.33 Q2333.61 1477.06 2330.53 1481.67 Q2327.47 1486.25 2321.66 1486.25 Q2315.85 1486.25 2312.78 1481.67 Q2309.72 1477.06 2309.72 1468.33 Q2309.72 1459.58 2312.78 1455 Q2315.85 1450.39 2321.66 1450.39 Z" fill="#000000" fill-rule="nonzero" fill-opacity="1" /><path clip-path="url(#clip240)" d="M1205.48 1525.81 L1205.48 1562.76 L1213.24 1562.76 Q1223.08 1562.76 1227.63 1558.3 Q1232.21 1553.85 1232.21 1544.24 Q1232.21 1534.69 1227.63 1530.26 Q1223.08 1525.81 1213.24 1525.81 L1205.48 1525.81 M1199.05 1520.52 L1212.26 1520.52 Q1226.07 1520.52 1232.53 1526.28 Q1238.99 1532.01 1238.99 1544.24 Q1238.99 1556.52 1232.5 1562.28 Q1226.01 1568.04 1212.26 1568.04 L1199.05 1568.04 L1199.05 1520.52 Z" fill="#000000" fill-rule="nonzero" fill-opacity="1" /><path clip-path="url(#clip240)" d="M1268.53 1524.88 Q1261.53 1524.88 1257.39 1530.1 Q1253.28 1535.32 1253.28 1544.33 Q1253.28 1553.31 1257.39 1558.53 Q1261.53 1563.75 1268.53 1563.75 Q1275.53 1563.75 1279.61 1558.53 Q1283.71 1553.31 1283.71 1544.33 Q1283.71 1535.32 1279.61 1530.1 Q1275.53 1524.88 1268.53 1524.88 M1268.53 1519.66 Q1278.52 1519.66 1284.51 1526.38 Q1290.49 1533.06 1290.49 1544.33 Q1290.49 1555.57 1284.51 1562.28 Q1278.52 1568.97 1268.53 1568.97 Q1258.5 1568.97 1252.49 1562.28 Q1246.5 1555.6 1246.5 1544.33 Q1246.5 1533.06 1252.49 1526.38 Q1258.5 1519.66 1268.53 1519.66 Z" fill="#000000" fill-rule="nonzero" fill-opacity="1" /><path clip-path="url(#clip240)" d="M1300.55 1520.52 L1327.86 1520.52 L1327.86 1525.93 L1306.98 1525.93 L1306.98 1539.94 L1325.82 1539.94 L1325.82 1545.35 L1306.98 1545.35 L1306.98 1568.04 L1300.55 1568.04 L1300.55 1520.52 Z" fill="#000000" fill-rule="nonzero" fill-opacity="1" /><polyline clip-path="url(#clip242)" style="stroke:#000000; stroke-linecap:round; stroke-linejoin:round; stroke-width:2; stroke-opacity:0.1; fill:none" points="174.149,1413.97 2352.76,1413.97 "/>
<polyline clip-path="url(#clip242)" style="stroke:#000000; stroke-linecap:round; stroke-linejoin:round; stroke-width:2; stroke-opacity:0.1; fill:none" points="174.149,1064.03 2352.76,1064.03 "/>
<polyline clip-path="url(#clip242)" style="stroke:#000000; stroke-linecap:round; stroke-linejoin:round; stroke-width:2; stroke-opacity:0.1; fill:none" points="174.149,714.077 2352.76,714.077 "/>
<polyline clip-path="url(#clip242)" style="stroke:#000000; stroke-linecap:round; stroke-linejoin:round; stroke-width:2; stroke-opacity:0.1; fill:none" points="174.149,364.128 2352.76,364.128 "/>
<polyline clip-path="url(#clip240)" style="stroke:#000000; stroke-linecap:round; stroke-linejoin:round; stroke-width:4; stroke-opacity:1; fill:none" points="174.149,1423.18 174.149,123.472 "/>
<polyline clip-path="url(#clip240)" style="stroke:#000000; stroke-linecap:round; stroke-linejoin:round; stroke-width:4; stroke-opacity:1; fill:none" points="174.149,1413.97 193.047,1413.97 "/>
<polyline clip-path="url(#clip240)" style="stroke:#000000; stroke-linecap:round; stroke-linejoin:round; stroke-width:4; stroke-opacity:1; fill:none" points="174.149,1064.03 193.047,1064.03 "/>
<polyline clip-path="url(#clip240)" style="stroke:#000000; stroke-linecap:round; stroke-linejoin:round; stroke-width:4; stroke-opacity:1; fill:none" points="174.149,714.077 193.047,714.077 "/>
<polyline clip-path="url(#clip240)" style="stroke:#000000; stroke-linecap:round; stroke-linejoin:round; stroke-width:4; stroke-opacity:1; fill:none" points="174.149,364.128 193.047,364.128 "/>
<path clip-path="url(#clip240)" d="M126.205 1399.77 Q122.593 1399.77 120.765 1403.34 Q118.959 1406.88 118.959 1414.01 Q118.959 1421.12 120.765 1424.68 Q122.593 1428.22 126.205 1428.22 Q129.839 1428.22 131.644 1424.68 Q133.473 1421.12 133.473 1414.01 Q133.473 1406.88 131.644 1403.34 Q129.839 1399.77 126.205 1399.77 M126.205 1396.07 Q132.015 1396.07 135.07 1400.68 Q138.149 1405.26 138.149 1414.01 Q138.149 1422.74 135.07 1427.34 Q132.015 1431.93 126.205 1431.93 Q120.394 1431.93 117.316 1427.34 Q114.26 1422.74 114.26 1414.01 Q114.26 1405.26 117.316 1400.68 Q120.394 1396.07 126.205 1396.07 Z" fill="#000000" fill-rule="nonzero" fill-opacity="1" /><path clip-path="url(#clip240)" d="M118.242 1077.37 L125.88 1077.37 L125.88 1051.01 L117.57 1052.67 L117.57 1048.41 L125.834 1046.75 L130.51 1046.75 L130.51 1077.37 L138.149 1077.37 L138.149 1081.31 L118.242 1081.31 L118.242 1077.37 Z" fill="#000000" fill-rule="nonzero" fill-opacity="1" /><path clip-path="url(#clip240)" d="M121.83 727.422 L138.149 727.422 L138.149 731.357 L116.205 731.357 L116.205 727.422 Q118.867 724.667 123.45 720.038 Q128.056 715.385 129.237 714.042 Q131.482 711.519 132.362 709.783 Q133.265 708.024 133.265 706.334 Q133.265 703.58 131.32 701.843 Q129.399 700.107 126.297 700.107 Q124.098 700.107 121.644 700.871 Q119.214 701.635 116.436 703.186 L116.436 698.464 Q119.26 697.33 121.714 696.751 Q124.168 696.172 126.205 696.172 Q131.575 696.172 134.769 698.857 Q137.964 701.543 137.964 706.033 Q137.964 708.163 137.154 710.084 Q136.367 711.982 134.26 714.575 Q133.681 715.246 130.58 718.464 Q127.478 721.658 121.83 727.422 Z" fill="#000000" fill-rule="nonzero" fill-opacity="1" /><path clip-path="url(#clip240)" d="M131.019 362.774 Q134.376 363.492 136.251 365.76 Q138.149 368.029 138.149 371.362 Q138.149 376.478 134.63 379.279 Q131.112 382.08 124.63 382.08 Q122.455 382.08 120.14 381.64 Q117.848 381.223 115.394 380.367 L115.394 375.853 Q117.339 376.987 119.654 377.566 Q121.968 378.145 124.492 378.145 Q128.89 378.145 131.181 376.408 Q133.496 374.672 133.496 371.362 Q133.496 368.307 131.343 366.594 Q129.214 364.858 125.394 364.858 L121.367 364.858 L121.367 361.015 L125.58 361.015 Q129.029 361.015 130.857 359.649 Q132.686 358.26 132.686 355.668 Q132.686 353.006 130.788 351.594 Q128.913 350.159 125.394 350.159 Q123.473 350.159 121.274 350.575 Q119.075 350.992 116.436 351.872 L116.436 347.705 Q119.098 346.964 121.413 346.594 Q123.751 346.223 125.811 346.223 Q131.135 346.223 134.237 348.654 Q137.339 351.061 137.339 355.182 Q137.339 358.052 135.695 360.043 Q134.052 362.01 131.019 362.774 Z" fill="#000000" fill-rule="nonzero" fill-opacity="1" /><path clip-path="url(#clip240)" d="M41.7242 933.694 Q42.4244 931.625 44.7161 929.684 Q47.0077 927.71 51.0181 925.737 L64.0042 919.212 L64.0042 926.119 L51.8138 932.198 Q47.0395 934.553 45.48 936.781 Q43.9204 938.978 43.9204 942.797 L43.9204 949.799 L64.0042 949.799 L64.0042 956.229 L16.4842 956.229 L16.4842 941.715 Q16.4842 933.567 19.8898 929.556 Q23.2955 925.546 30.1704 925.546 Q34.6582 925.546 37.6183 927.647 Q40.5784 929.715 41.7242 933.694 M21.7677 949.799 L38.6368 949.799 L38.6368 941.715 Q38.6368 937.068 36.5043 934.713 Q34.34 932.325 30.1704 932.325 Q26.0009 932.325 23.9002 934.713 Q21.7677 937.068 21.7677 941.715 L21.7677 949.799 Z" fill="#000000" fill-rule="nonzero" fill-opacity="1" /><path clip-path="url(#clip240)" d="M49.9359 914.724 L28.3562 914.724 L28.3562 908.868 L49.7131 908.868 Q54.7739 908.868 57.3202 906.894 Q59.8346 904.921 59.8346 900.974 Q59.8346 896.232 56.8109 893.495 Q53.7872 890.726 48.5673 890.726 L28.3562 890.726 L28.3562 884.869 L64.0042 884.869 L64.0042 890.726 L58.5296 890.726 Q61.7762 892.858 63.3676 895.691 Q64.9272 898.492 64.9272 902.216 Q64.9272 908.359 61.1078 911.541 Q57.2883 914.724 49.9359 914.724 M27.4968 899.988 L27.4968 899.988 Z" fill="#000000" fill-rule="nonzero" fill-opacity="1" /><path clip-path="url(#clip240)" d="M42.4881 843.174 L64.0042 843.174 L64.0042 849.03 L42.679 849.03 Q37.6183 849.03 35.1038 851.004 Q32.5894 852.977 32.5894 856.924 Q32.5894 861.666 35.6131 864.403 Q38.6368 867.141 43.8567 867.141 L64.0042 867.141 L64.0042 873.029 L28.3562 873.029 L28.3562 867.141 L33.8944 867.141 Q30.6797 865.04 29.0883 862.207 Q27.4968 859.343 27.4968 855.619 Q27.4968 849.476 31.3163 846.325 Q35.1038 843.174 42.4881 843.174 Z" fill="#000000" fill-rule="nonzero" fill-opacity="1" /><path clip-path="url(#clip240)" d="M18.2347 825.7 L28.3562 825.7 L28.3562 813.637 L32.9077 813.637 L32.9077 825.7 L52.2594 825.7 Q56.6199 825.7 57.8613 824.522 Q59.1026 823.313 59.1026 819.652 L59.1026 813.637 L64.0042 813.637 L64.0042 819.652 Q64.0042 826.432 61.4897 829.01 Q58.9434 831.588 52.2594 831.588 L32.9077 831.588 L32.9077 835.885 L28.3562 835.885 L28.3562 831.588 L18.2347 831.588 L18.2347 825.7 Z" fill="#000000" fill-rule="nonzero" fill-opacity="1" /><path clip-path="url(#clip240)" d="M28.3562 805.934 L28.3562 800.078 L64.0042 800.078 L64.0042 805.934 L28.3562 805.934 M14.479 805.934 L14.479 800.078 L21.895 800.078 L21.895 805.934 L14.479 805.934 Z" fill="#000000" fill-rule="nonzero" fill-opacity="1" /><path clip-path="url(#clip240)" d="M35.1993 760.069 Q31.2526 757.873 29.3747 754.818 Q27.4968 751.762 27.4968 747.624 Q27.4968 742.054 31.4117 739.031 Q35.2948 736.007 42.4881 736.007 L64.0042 736.007 L64.0042 741.895 L42.679 741.895 Q37.5546 741.895 35.072 743.71 Q32.5894 745.524 32.5894 749.248 Q32.5894 753.799 35.6131 756.441 Q38.6368 759.083 43.8567 759.083 L64.0042 759.083 L64.0042 764.971 L42.679 764.971 Q37.5228 764.971 35.072 766.785 Q32.5894 768.599 32.5894 772.387 Q32.5894 776.875 35.6449 779.517 Q38.6686 782.158 43.8567 782.158 L64.0042 782.158 L64.0042 788.047 L28.3562 788.047 L28.3562 782.158 L33.8944 782.158 Q30.616 780.153 29.0564 777.352 Q27.4968 774.551 27.4968 770.7 Q27.4968 766.817 29.4702 764.112 Q31.4436 761.374 35.1993 760.069 Z" fill="#000000" fill-rule="nonzero" fill-opacity="1" /><path clip-path="url(#clip240)" d="M44.7161 693.834 L47.5806 693.834 L47.5806 720.761 Q53.6281 720.379 56.8109 717.133 Q59.9619 713.854 59.9619 708.03 Q59.9619 704.656 59.1344 701.505 Q58.3069 698.322 56.6518 695.203 L62.1899 695.203 Q63.5267 698.354 64.227 701.664 Q64.9272 704.974 64.9272 708.38 Q64.9272 716.91 59.9619 721.907 Q54.9967 726.872 46.5303 726.872 Q37.7774 726.872 32.6531 722.162 Q27.4968 717.419 27.4968 709.398 Q27.4968 702.205 32.1438 698.036 Q36.7589 693.834 44.7161 693.834 M42.9973 699.691 Q38.1912 699.754 35.3266 702.396 Q32.4621 705.006 32.4621 709.335 Q32.4621 714.236 35.2312 717.196 Q38.0002 720.125 43.0292 720.57 L42.9973 699.691 Z" fill="#000000" fill-rule="nonzero" fill-opacity="1" /><path clip-path="url(#clip240)" d="M14.5426 649.433 Q21.8632 653.698 29.0246 655.767 Q36.186 657.836 43.5384 657.836 Q50.8908 657.836 58.1159 655.767 Q65.3091 653.667 72.5979 649.433 L72.5979 654.526 Q65.1182 659.3 57.8931 661.687 Q50.668 664.043 43.5384 664.043 Q36.4406 664.043 29.2474 661.687 Q22.0542 659.332 14.5426 654.526 L14.5426 649.433 Z" fill="#000000" fill-rule="nonzero" fill-opacity="1" /><path clip-path="url(#clip240)" d="M29.4065 615.345 L34.9447 615.345 Q33.6716 617.828 33.035 620.501 Q32.3984 623.175 32.3984 626.039 Q32.3984 630.4 33.7352 632.596 Q35.072 634.76 37.7456 634.76 Q39.7826 634.76 40.9603 633.201 Q42.1061 631.641 43.1565 626.931 L43.6021 624.925 Q44.9389 618.687 47.3897 616.077 Q49.8086 613.435 54.1691 613.435 Q59.1344 613.435 62.0308 617.382 Q64.9272 621.297 64.9272 628.172 Q64.9272 631.037 64.3543 634.156 Q63.8132 637.243 62.6992 640.681 L56.6518 640.681 Q58.3387 637.434 59.198 634.283 Q60.0256 631.132 60.0256 628.045 Q60.0256 623.907 58.6251 621.679 Q57.1929 619.451 54.6147 619.451 Q52.2276 619.451 50.9545 621.074 Q49.6813 622.666 48.5037 628.108 L48.0262 630.145 Q46.8804 635.588 44.5251 638.007 Q42.138 640.426 38.0002 640.426 Q32.9713 640.426 30.2341 636.861 Q27.4968 633.296 27.4968 626.74 Q27.4968 623.493 27.9743 620.629 Q28.4517 617.764 29.4065 615.345 Z" fill="#000000" fill-rule="nonzero" fill-opacity="1" /><path clip-path="url(#clip240)" d="M14.5426 605.033 L14.5426 599.94 Q22.0542 595.166 29.2474 592.81 Q36.4406 590.423 43.5384 590.423 Q50.668 590.423 57.8931 592.81 Q65.1182 595.166 72.5979 599.94 L72.5979 605.033 Q65.3091 600.799 58.1159 598.731 Q50.8908 596.63 43.5384 596.63 Q36.186 596.63 29.0246 598.731 Q21.8632 600.799 14.5426 605.033 Z" fill="#000000" fill-rule="nonzero" fill-opacity="1" /><path clip-path="url(#clip240)" d="M1125.15 44.2197 Q1127.79 45.1109 1130.26 48.0275 Q1132.77 50.9442 1135.28 56.0483 L1143.59 72.576 L1134.8 72.576 L1127.06 57.061 Q1124.06 50.9847 1121.23 48.9997 Q1118.43 47.0148 1113.57 47.0148 L1104.66 47.0148 L1104.66 72.576 L1096.47 72.576 L1096.47 12.096 L1114.95 12.096 Q1125.32 12.096 1130.42 16.4305 Q1135.52 20.7649 1135.52 29.5149 Q1135.52 35.2267 1132.85 38.994 Q1130.22 42.7613 1125.15 44.2197 M1104.66 18.8205 L1104.66 40.2903 L1114.95 40.2903 Q1120.86 40.2903 1123.86 37.5762 Q1126.9 34.8216 1126.9 29.5149 Q1126.9 24.2082 1123.86 21.5346 Q1120.86 18.8205 1114.95 18.8205 L1104.66 18.8205 Z" fill="#000000" fill-rule="nonzero" fill-opacity="1" /><path clip-path="url(#clip240)" d="M1149.3 54.671 L1149.3 27.2059 L1156.75 27.2059 L1156.75 54.3874 Q1156.75 60.8284 1159.26 64.0691 Q1161.77 67.2693 1166.8 67.2693 Q1172.83 67.2693 1176.32 63.421 Q1179.84 59.5726 1179.84 52.9291 L1179.84 27.2059 L1187.3 27.2059 L1187.3 72.576 L1179.84 72.576 L1179.84 65.6084 Q1177.13 69.7404 1173.52 71.7658 Q1169.96 73.7508 1165.22 73.7508 Q1157.4 73.7508 1153.35 68.8897 Q1149.3 64.0286 1149.3 54.671 M1168.05 26.1121 L1168.05 26.1121 Z" fill="#000000" fill-rule="nonzero" fill-opacity="1" /><path clip-path="url(#clip240)" d="M1240.36 45.1919 L1240.36 72.576 L1232.91 72.576 L1232.91 45.4349 Q1232.91 38.994 1230.4 35.7938 Q1227.89 32.5936 1222.86 32.5936 Q1216.83 32.5936 1213.34 36.4419 Q1209.86 40.2903 1209.86 46.9338 L1209.86 72.576 L1202.36 72.576 L1202.36 27.2059 L1209.86 27.2059 L1209.86 34.2544 Q1212.53 30.163 1216.14 28.1376 Q1219.78 26.1121 1224.52 26.1121 Q1232.34 26.1121 1236.35 30.9732 Q1240.36 35.7938 1240.36 45.1919 Z" fill="#000000" fill-rule="nonzero" fill-opacity="1" /><path clip-path="url(#clip240)" d="M1262.6 14.324 L1262.6 27.2059 L1277.95 27.2059 L1277.95 32.9987 L1262.6 32.9987 L1262.6 57.6282 Q1262.6 63.1779 1264.1 64.7578 Q1265.64 66.3376 1270.3 66.3376 L1277.95 66.3376 L1277.95 72.576 L1270.3 72.576 Q1261.67 72.576 1258.39 69.3758 Q1255.11 66.1351 1255.11 57.6282 L1255.11 32.9987 L1249.64 32.9987 L1249.64 27.2059 L1255.11 27.2059 L1255.11 14.324 L1262.6 14.324 Z" fill="#000000" fill-rule="nonzero" fill-opacity="1" /><path clip-path="url(#clip240)" d="M1287.76 27.2059 L1295.21 27.2059 L1295.21 72.576 L1287.76 72.576 L1287.76 27.2059 M1287.76 9.54393 L1295.21 9.54393 L1295.21 18.9825 L1287.76 18.9825 L1287.76 9.54393 Z" fill="#000000" fill-rule="nonzero" fill-opacity="1" /><path clip-path="url(#clip240)" d="M1346.13 35.9153 Q1348.93 30.8922 1352.82 28.5022 Q1356.7 26.1121 1361.97 26.1121 Q1369.06 26.1121 1372.91 31.0947 Q1376.76 36.0368 1376.76 45.1919 L1376.76 72.576 L1369.26 72.576 L1369.26 45.4349 Q1369.26 38.913 1366.95 35.7533 Q1364.64 32.5936 1359.9 32.5936 Q1354.11 32.5936 1350.75 36.4419 Q1347.39 40.2903 1347.39 46.9338 L1347.39 72.576 L1339.89 72.576 L1339.89 45.4349 Q1339.89 38.8725 1337.58 35.7533 Q1335.27 32.5936 1330.45 32.5936 Q1324.74 32.5936 1321.38 36.4824 Q1318.02 40.3308 1318.02 46.9338 L1318.02 72.576 L1310.52 72.576 L1310.52 27.2059 L1318.02 27.2059 L1318.02 34.2544 Q1320.57 30.082 1324.13 28.0971 Q1327.7 26.1121 1332.6 26.1121 Q1337.54 26.1121 1340.99 28.6237 Q1344.47 31.1352 1346.13 35.9153 Z" fill="#000000" fill-rule="nonzero" fill-opacity="1" /><path clip-path="url(#clip240)" d="M1430.43 48.0275 L1430.43 51.6733 L1396.16 51.6733 Q1396.65 59.3701 1400.78 63.421 Q1404.95 67.4314 1412.36 67.4314 Q1416.66 67.4314 1420.67 66.3781 Q1424.72 65.3249 1428.69 63.2184 L1428.69 70.267 Q1424.68 71.9684 1420.47 72.8596 Q1416.25 73.7508 1411.92 73.7508 Q1401.06 73.7508 1394.7 67.4314 Q1388.38 61.1119 1388.38 50.3365 Q1388.38 39.1965 1394.38 32.6746 Q1400.41 26.1121 1410.62 26.1121 Q1419.78 26.1121 1425.08 32.0264 Q1430.43 37.9003 1430.43 48.0275 M1422.98 45.84 Q1422.9 39.7232 1419.53 36.0774 Q1416.21 32.4315 1410.7 32.4315 Q1404.46 32.4315 1400.7 35.9558 Q1396.97 39.4801 1396.4 45.8805 L1422.98 45.84 Z" fill="#000000" fill-rule="nonzero" fill-opacity="1" /><polyline clip-path="url(#clip242)" style="stroke:#009af9; stroke-linecap:round; stroke-linejoin:round; stroke-width:4; stroke-opacity:1; fill:none" stroke-dasharray="2, 4" points="235.808,296.395 529.42,724.544 1116.65,1281.66 2291.1,1242.25 "/>
<circle clip-path="url(#clip242)" cx="235.808" cy="296.395" r="14.4" fill="#009af9" fill-rule="evenodd" fill-opacity="1" stroke="#000000" stroke-opacity="1" stroke-width="3.2"/>
<circle clip-path="url(#clip242)" cx="529.42" cy="724.544" r="14.4" fill="#009af9" fill-rule="evenodd" fill-opacity="1" stroke="#000000" stroke-opacity="1" stroke-width="3.2"/>
<circle clip-path="url(#clip242)" cx="1116.65" cy="1281.66" r="14.4" fill="#009af9" fill-rule="evenodd" fill-opacity="1" stroke="#000000" stroke-opacity="1" stroke-width="3.2"/>
<circle clip-path="url(#clip242)" cx="2291.1" cy="1242.25" r="14.4" fill="#009af9" fill-rule="evenodd" fill-opacity="1" stroke="#000000" stroke-opacity="1" stroke-width="3.2"/>
<polyline clip-path="url(#clip242)" style="stroke:#e26f46; stroke-linecap:round; stroke-linejoin:round; stroke-width:4; stroke-opacity:1; fill:none" stroke-dasharray="2, 4" points="235.808,160.256 529.42,785.798 1116.65,1324.24 2291.1,1249.03 "/>
<circle clip-path="url(#clip242)" cx="235.808" cy="160.256" r="14.4" fill="#e26f46" fill-rule="evenodd" fill-opacity="1" stroke="#000000" stroke-opacity="1" stroke-width="3.2"/>
<circle clip-path="url(#clip242)" cx="529.42" cy="785.798" r="14.4" fill="#e26f46" fill-rule="evenodd" fill-opacity="1" stroke="#000000" stroke-opacity="1" stroke-width="3.2"/>
<circle clip-path="url(#clip242)" cx="1116.65" cy="1324.24" r="14.4" fill="#e26f46" fill-rule="evenodd" fill-opacity="1" stroke="#000000" stroke-opacity="1" stroke-width="3.2"/>
<circle clip-path="url(#clip242)" cx="2291.1" cy="1249.03" r="14.4" fill="#e26f46" fill-rule="evenodd" fill-opacity="1" stroke="#000000" stroke-opacity="1" stroke-width="3.2"/>
<polyline clip-path="url(#clip242)" style="stroke:#3da44d; stroke-linecap:round; stroke-linejoin:round; stroke-width:4; stroke-opacity:1; fill:none" stroke-dasharray="2, 4" points="235.808,188.178 529.42,460.614 1116.65,1317.06 2291.1,1248.26 "/>
<circle clip-path="url(#clip242)" cx="235.808" cy="188.178" r="14.4" fill="#3da44d" fill-rule="evenodd" fill-opacity="1" stroke="#000000" stroke-opacity="1" stroke-width="3.2"/>
<circle clip-path="url(#clip242)" cx="529.42" cy="460.614" r="14.4" fill="#3da44d" fill-rule="evenodd" fill-opacity="1" stroke="#000000" stroke-opacity="1" stroke-width="3.2"/>
<circle clip-path="url(#clip242)" cx="1116.65" cy="1317.06" r="14.4" fill="#3da44d" fill-rule="evenodd" fill-opacity="1" stroke="#000000" stroke-opacity="1" stroke-width="3.2"/>
<circle clip-path="url(#clip242)" cx="2291.1" cy="1248.26" r="14.4" fill="#3da44d" fill-rule="evenodd" fill-opacity="1" stroke="#000000" stroke-opacity="1" stroke-width="3.2"/>
<polyline clip-path="url(#clip242)" style="stroke:#c271d2; stroke-linecap:round; stroke-linejoin:round; stroke-width:4; stroke-opacity:1; fill:none" stroke-dasharray="2, 4" points="235.808,426.865 529.42,277.502 1116.65,1305.24 2291.1,1245.85 "/>
<circle clip-path="url(#clip242)" cx="235.808" cy="426.865" r="14.4" fill="#c271d2" fill-rule="evenodd" fill-opacity="1" stroke="#000000" stroke-opacity="1" stroke-width="3.2"/>
<circle clip-path="url(#clip242)" cx="529.42" cy="277.502" r="14.4" fill="#c271d2" fill-rule="evenodd" fill-opacity="1" stroke="#000000" stroke-opacity="1" stroke-width="3.2"/>
<circle clip-path="url(#clip242)" cx="1116.65" cy="1305.24" r="14.4" fill="#c271d2" fill-rule="evenodd" fill-opacity="1" stroke="#000000" stroke-opacity="1" stroke-width="3.2"/>
<circle clip-path="url(#clip242)" cx="2291.1" cy="1245.85" r="14.4" fill="#c271d2" fill-rule="evenodd" fill-opacity="1" stroke="#000000" stroke-opacity="1" stroke-width="3.2"/>
<polyline clip-path="url(#clip242)" style="stroke:#ac8d18; stroke-linecap:round; stroke-linejoin:round; stroke-width:4; stroke-opacity:1; fill:none" stroke-dasharray="2, 4" points="235.808,904.991 529.42,1386.4 1116.65,1371.74 2291.1,1330.1 "/>
<circle clip-path="url(#clip242)" cx="235.808" cy="904.991" r="14.4" fill="#ac8d18" fill-rule="evenodd" fill-opacity="1" stroke="#000000" stroke-opacity="1" stroke-width="3.2"/>
<circle clip-path="url(#clip242)" cx="529.42" cy="1386.4" r="14.4" fill="#ac8d18" fill-rule="evenodd" fill-opacity="1" stroke="#000000" stroke-opacity="1" stroke-width="3.2"/>
<circle clip-path="url(#clip242)" cx="1116.65" cy="1371.74" r="14.4" fill="#ac8d18" fill-rule="evenodd" fill-opacity="1" stroke="#000000" stroke-opacity="1" stroke-width="3.2"/>
<circle clip-path="url(#clip242)" cx="2291.1" cy="1330.1" r="14.4" fill="#ac8d18" fill-rule="evenodd" fill-opacity="1" stroke="#000000" stroke-opacity="1" stroke-width="3.2"/>
<polyline clip-path="url(#clip242)" style="stroke:#00a9ad; stroke-linecap:round; stroke-linejoin:round; stroke-width:4; stroke-opacity:1; fill:none" stroke-dasharray="2, 4" points="235.808,850.075 529.42,906.201 1116.65,1364.77 2291.1,1321.5 "/>
<circle clip-path="url(#clip242)" cx="235.808" cy="850.075" r="14.4" fill="#00a9ad" fill-rule="evenodd" fill-opacity="1" stroke="#000000" stroke-opacity="1" stroke-width="3.2"/>
<circle clip-path="url(#clip242)" cx="529.42" cy="906.201" r="14.4" fill="#00a9ad" fill-rule="evenodd" fill-opacity="1" stroke="#000000" stroke-opacity="1" stroke-width="3.2"/>
<circle clip-path="url(#clip242)" cx="1116.65" cy="1364.77" r="14.4" fill="#00a9ad" fill-rule="evenodd" fill-opacity="1" stroke="#000000" stroke-opacity="1" stroke-width="3.2"/>
<circle clip-path="url(#clip242)" cx="2291.1" cy="1321.5" r="14.4" fill="#00a9ad" fill-rule="evenodd" fill-opacity="1" stroke="#000000" stroke-opacity="1" stroke-width="3.2"/>
<polyline clip-path="url(#clip242)" style="stroke:#ed5d92; stroke-linecap:round; stroke-linejoin:round; stroke-width:4; stroke-opacity:1; fill:none" stroke-dasharray="2, 4" points="235.808,729.887 529.42,821.041 1116.65,1369.1 2291.1,1327.5 "/>
<circle clip-path="url(#clip242)" cx="235.808" cy="729.887" r="14.4" fill="#ed5d92" fill-rule="evenodd" fill-opacity="1" stroke="#000000" stroke-opacity="1" stroke-width="3.2"/>
<circle clip-path="url(#clip242)" cx="529.42" cy="821.041" r="14.4" fill="#ed5d92" fill-rule="evenodd" fill-opacity="1" stroke="#000000" stroke-opacity="1" stroke-width="3.2"/>
<circle clip-path="url(#clip242)" cx="1116.65" cy="1369.1" r="14.4" fill="#ed5d92" fill-rule="evenodd" fill-opacity="1" stroke="#000000" stroke-opacity="1" stroke-width="3.2"/>
<circle clip-path="url(#clip242)" cx="2291.1" cy="1327.5" r="14.4" fill="#ed5d92" fill-rule="evenodd" fill-opacity="1" stroke="#000000" stroke-opacity="1" stroke-width="3.2"/>
<polyline clip-path="url(#clip242)" style="stroke:#c68125; stroke-linecap:round; stroke-linejoin:round; stroke-width:4; stroke-opacity:1; fill:none" stroke-dasharray="2, 4" points="235.808,775.955 529.42,818.543 1116.65,1362.53 2291.1,1320.16 "/>
<circle clip-path="url(#clip242)" cx="235.808" cy="775.955" r="14.4" fill="#c68125" fill-rule="evenodd" fill-opacity="1" stroke="#000000" stroke-opacity="1" stroke-width="3.2"/>
<circle clip-path="url(#clip242)" cx="529.42" cy="818.543" r="14.4" fill="#c68125" fill-rule="evenodd" fill-opacity="1" stroke="#000000" stroke-opacity="1" stroke-width="3.2"/>
<circle clip-path="url(#clip242)" cx="1116.65" cy="1362.53" r="14.4" fill="#c68125" fill-rule="evenodd" fill-opacity="1" stroke="#000000" stroke-opacity="1" stroke-width="3.2"/>
<circle clip-path="url(#clip242)" cx="2291.1" cy="1320.16" r="14.4" fill="#c68125" fill-rule="evenodd" fill-opacity="1" stroke="#000000" stroke-opacity="1" stroke-width="3.2"/>
<polyline clip-path="url(#clip242)" style="stroke:#00a98d; stroke-linecap:round; stroke-linejoin:round; stroke-width:4; stroke-opacity:1; fill:none" stroke-dasharray="2, 4" points="235.808,802.26 529.42,890.21 1116.65,1367.78 2291.1,1322.35 "/>
<circle clip-path="url(#clip242)" cx="235.808" cy="802.26" r="14.4" fill="#00a98d" fill-rule="evenodd" fill-opacity="1" stroke="#000000" stroke-opacity="1" stroke-width="3.2"/>
<circle clip-path="url(#clip242)" cx="529.42" cy="890.21" r="14.4" fill="#00a98d" fill-rule="evenodd" fill-opacity="1" stroke="#000000" stroke-opacity="1" stroke-width="3.2"/>
<circle clip-path="url(#clip242)" cx="1116.65" cy="1367.78" r="14.4" fill="#00a98d" fill-rule="evenodd" fill-opacity="1" stroke="#000000" stroke-opacity="1" stroke-width="3.2"/>
<circle clip-path="url(#clip242)" cx="2291.1" cy="1322.35" r="14.4" fill="#00a98d" fill-rule="evenodd" fill-opacity="1" stroke="#000000" stroke-opacity="1" stroke-width="3.2"/>
<polyline clip-path="url(#clip242)" style="stroke:#8e971d; stroke-linecap:round; stroke-linejoin:round; stroke-width:4; stroke-opacity:1; fill:none" stroke-dasharray="2, 4" points="235.808,853.979 529.42,901.792 1116.65,1365.94 2291.1,1318.83 "/>
<circle clip-path="url(#clip242)" cx="235.808" cy="853.979" r="14.4" fill="#8e971d" fill-rule="evenodd" fill-opacity="1" stroke="#000000" stroke-opacity="1" stroke-width="3.2"/>
<circle clip-path="url(#clip242)" cx="529.42" cy="901.792" r="14.4" fill="#8e971d" fill-rule="evenodd" fill-opacity="1" stroke="#000000" stroke-opacity="1" stroke-width="3.2"/>
<circle clip-path="url(#clip242)" cx="1116.65" cy="1365.94" r="14.4" fill="#8e971d" fill-rule="evenodd" fill-opacity="1" stroke="#000000" stroke-opacity="1" stroke-width="3.2"/>
<circle clip-path="url(#clip242)" cx="2291.1" cy="1318.83" r="14.4" fill="#8e971d" fill-rule="evenodd" fill-opacity="1" stroke="#000000" stroke-opacity="1" stroke-width="3.2"/>
<polyline clip-path="url(#clip242)" style="stroke:#00a8cb; stroke-linecap:round; stroke-linejoin:round; stroke-width:4; stroke-opacity:1; fill:none" stroke-dasharray="2, 4" points="235.808,737.052 529.42,826.402 1116.65,1254.01 2291.1,1309.42 "/>
<circle clip-path="url(#clip242)" cx="235.808" cy="737.052" r="14.4" fill="#00a8cb" fill-rule="evenodd" fill-opacity="1" stroke="#000000" stroke-opacity="1" stroke-width="3.2"/>
<circle clip-path="url(#clip242)" cx="529.42" cy="826.402" r="14.4" fill="#00a8cb" fill-rule="evenodd" fill-opacity="1" stroke="#000000" stroke-opacity="1" stroke-width="3.2"/>
<circle clip-path="url(#clip242)" cx="1116.65" cy="1254.01" r="14.4" fill="#00a8cb" fill-rule="evenodd" fill-opacity="1" stroke="#000000" stroke-opacity="1" stroke-width="3.2"/>
<circle clip-path="url(#clip242)" cx="2291.1" cy="1309.42" r="14.4" fill="#00a8cb" fill-rule="evenodd" fill-opacity="1" stroke="#000000" stroke-opacity="1" stroke-width="3.2"/>
<polyline clip-path="url(#clip242)" style="stroke:#9b7fe8; stroke-linecap:round; stroke-linejoin:round; stroke-width:4; stroke-opacity:1; fill:none" stroke-dasharray="2, 4" points="235.808,776.647 529.42,746.588 1116.65,1367.26 2291.1,1308.11 "/>
<circle clip-path="url(#clip242)" cx="235.808" cy="776.647" r="14.4" fill="#9b7fe8" fill-rule="evenodd" fill-opacity="1" stroke="#000000" stroke-opacity="1" stroke-width="3.2"/>
<circle clip-path="url(#clip242)" cx="529.42" cy="746.588" r="14.4" fill="#9b7fe8" fill-rule="evenodd" fill-opacity="1" stroke="#000000" stroke-opacity="1" stroke-width="3.2"/>
<circle clip-path="url(#clip242)" cx="1116.65" cy="1367.26" r="14.4" fill="#9b7fe8" fill-rule="evenodd" fill-opacity="1" stroke="#000000" stroke-opacity="1" stroke-width="3.2"/>
<circle clip-path="url(#clip242)" cx="2291.1" cy="1308.11" r="14.4" fill="#9b7fe8" fill-rule="evenodd" fill-opacity="1" stroke="#000000" stroke-opacity="1" stroke-width="3.2"/>
<path clip-path="url(#clip240)" d="M1734.75 840.716 L2280.14 840.716 L2280.14 166.796 L1734.75 166.796  Z" fill="#ffffff" fill-rule="evenodd" fill-opacity="1"/>
<polyline clip-path="url(#clip240)" style="stroke:#000000; stroke-linecap:round; stroke-linejoin:round; stroke-width:4; stroke-opacity:1; fill:none" points="1734.75,840.716 2280.14,840.716 2280.14,166.796 1734.75,166.796 1734.75,840.716 "/>
<polyline clip-path="url(#clip240)" style="stroke:#009af9; stroke-linecap:round; stroke-linejoin:round; stroke-width:4; stroke-opacity:1; fill:none" stroke-dasharray="2, 4" points="1758.96,218.636 1904.2,218.636 "/>
<circle clip-path="url(#clip240)" cx="1831.58" cy="218.636" r="20.1723" fill="#009af9" fill-rule="evenodd" fill-opacity="1" stroke="#000000" stroke-opacity="1" stroke-width="4.55111"/>
<path clip-path="url(#clip240)" d="M1928.41 201.356 L1948.27 201.356 L1948.27 205.291 L1933.08 205.291 L1933.08 215.476 L1946.79 215.476 L1946.79 219.411 L1933.08 219.411 L1933.08 235.916 L1928.41 235.916 L1928.41 201.356 Z" fill="#000000" fill-rule="nonzero" fill-opacity="1" /><path clip-path="url(#clip240)" d="M1960.35 219.411 L1960.35 232.073 L1967.85 232.073 Q1971.62 232.073 1973.43 230.522 Q1975.26 228.948 1975.26 225.731 Q1975.26 222.49 1973.43 220.962 Q1971.62 219.411 1967.85 219.411 L1960.35 219.411 M1960.35 205.198 L1960.35 215.615 L1967.27 215.615 Q1970.7 215.615 1972.37 214.342 Q1974.06 213.045 1974.06 210.407 Q1974.06 207.791 1972.37 206.495 Q1970.7 205.198 1967.27 205.198 L1960.35 205.198 M1955.68 201.356 L1967.62 201.356 Q1972.97 201.356 1975.86 203.578 Q1978.75 205.8 1978.75 209.897 Q1978.75 213.069 1977.27 214.944 Q1975.79 216.819 1972.92 217.282 Q1976.37 218.022 1978.27 220.383 Q1980.19 222.721 1980.19 226.24 Q1980.19 230.869 1977.04 233.393 Q1973.89 235.916 1968.08 235.916 L1955.68 235.916 L1955.68 201.356 Z" fill="#000000" fill-rule="nonzero" fill-opacity="1" /><path clip-path="url(#clip240)" d="M1992.87 205.198 L1992.87 232.073 L1998.52 232.073 Q2005.68 232.073 2008.99 228.832 Q2012.32 225.592 2012.32 218.601 Q2012.32 211.657 2008.99 208.439 Q2005.68 205.198 1998.52 205.198 L1992.87 205.198 M1988.2 201.356 L1997.81 201.356 Q2007.85 201.356 2012.55 205.546 Q2017.25 209.712 2017.25 218.601 Q2017.25 227.536 2012.53 231.726 Q2007.81 235.916 1997.81 235.916 L1988.2 235.916 L1988.2 201.356 Z" fill="#000000" fill-rule="nonzero" fill-opacity="1" /><path clip-path="url(#clip240)" d="M2024.7 201.356 L2044.56 201.356 L2044.56 205.291 L2029.38 205.291 L2029.38 215.476 L2043.08 215.476 L2043.08 219.411 L2029.38 219.411 L2029.38 235.916 L2024.7 235.916 L2024.7 201.356 Z" fill="#000000" fill-rule="nonzero" fill-opacity="1" /><polyline clip-path="url(#clip240)" style="stroke:#e26f46; stroke-linecap:round; stroke-linejoin:round; stroke-width:4; stroke-opacity:1; fill:none" stroke-dasharray="2, 4" points="1758.96,270.476 1904.2,270.476 "/>
<circle clip-path="url(#clip240)" cx="1831.58" cy="270.476" r="20.1723" fill="#e26f46" fill-rule="evenodd" fill-opacity="1" stroke="#000000" stroke-opacity="1" stroke-width="4.55111"/>
<path clip-path="url(#clip240)" d="M1928.41 253.196 L1948.27 253.196 L1948.27 257.131 L1933.08 257.131 L1933.08 267.316 L1946.79 267.316 L1946.79 271.251 L1933.08 271.251 L1933.08 287.756 L1928.41 287.756 L1928.41 253.196 Z" fill="#000000" fill-rule="nonzero" fill-opacity="1" /><path clip-path="url(#clip240)" d="M1960.35 271.251 L1960.35 283.913 L1967.85 283.913 Q1971.62 283.913 1973.43 282.362 Q1975.26 280.788 1975.26 277.571 Q1975.26 274.33 1973.43 272.802 Q1971.62 271.251 1967.85 271.251 L1960.35 271.251 M1960.35 257.038 L1960.35 267.455 L1967.27 267.455 Q1970.7 267.455 1972.37 266.182 Q1974.06 264.885 1974.06 262.247 Q1974.06 259.631 1972.37 258.335 Q1970.7 257.038 1967.27 257.038 L1960.35 257.038 M1955.68 253.196 L1967.62 253.196 Q1972.97 253.196 1975.86 255.418 Q1978.75 257.64 1978.75 261.737 Q1978.75 264.909 1977.27 266.784 Q1975.79 268.659 1972.92 269.122 Q1976.37 269.862 1978.27 272.223 Q1980.19 274.561 1980.19 278.08 Q1980.19 282.709 1977.04 285.233 Q1973.89 287.756 1968.08 287.756 L1955.68 287.756 L1955.68 253.196 Z" fill="#000000" fill-rule="nonzero" fill-opacity="1" /><path clip-path="url(#clip240)" d="M1992.87 257.038 L1992.87 283.913 L1998.52 283.913 Q2005.68 283.913 2008.99 280.672 Q2012.32 277.432 2012.32 270.441 Q2012.32 263.497 2008.99 260.279 Q2005.68 257.038 1998.52 257.038 L1992.87 257.038 M1988.2 253.196 L1997.81 253.196 Q2007.85 253.196 2012.55 257.386 Q2017.25 261.552 2017.25 270.441 Q2017.25 279.376 2012.53 283.566 Q2007.81 287.756 1997.81 287.756 L1988.2 287.756 L1988.2 253.196 Z" fill="#000000" fill-rule="nonzero" fill-opacity="1" /><path clip-path="url(#clip240)" d="M2024.7 253.196 L2044.56 253.196 L2044.56 257.131 L2029.38 257.131 L2029.38 267.316 L2043.08 267.316 L2043.08 271.251 L2029.38 271.251 L2029.38 287.756 L2024.7 287.756 L2024.7 253.196 Z" fill="#000000" fill-rule="nonzero" fill-opacity="1" /><path clip-path="url(#clip240)" d="M2071.49 295.626 L2071.49 298.936 L2046.86 298.936 L2046.86 295.626 L2071.49 295.626 Z" fill="#000000" fill-rule="nonzero" fill-opacity="1" /><path clip-path="url(#clip240)" d="M2075.49 261.83 L2079.75 261.83 L2079.75 288.219 Q2079.75 293.172 2077.85 295.395 Q2075.98 297.617 2071.79 297.617 L2070.17 297.617 L2070.17 294.006 L2071.3 294.006 Q2073.73 294.006 2074.61 292.871 Q2075.49 291.76 2075.49 288.219 L2075.49 261.83 M2075.49 251.737 L2079.75 251.737 L2079.75 257.131 L2075.49 257.131 L2075.49 251.737 Z" fill="#000000" fill-rule="nonzero" fill-opacity="1" /><path clip-path="url(#clip240)" d="M2100.44 274.723 Q2095.28 274.723 2093.29 275.904 Q2091.3 277.084 2091.3 279.932 Q2091.3 282.2 2092.78 283.543 Q2094.29 284.862 2096.86 284.862 Q2100.4 284.862 2102.53 282.362 Q2104.68 279.839 2104.68 275.672 L2104.68 274.723 L2100.44 274.723 M2108.94 272.964 L2108.94 287.756 L2104.68 287.756 L2104.68 283.821 Q2103.22 286.182 2101.05 287.316 Q2098.87 288.427 2095.72 288.427 Q2091.74 288.427 2089.38 286.205 Q2087.04 283.959 2087.04 280.209 Q2087.04 275.834 2089.96 273.612 Q2092.9 271.39 2098.71 271.39 L2104.68 271.39 L2104.68 270.973 Q2104.68 268.034 2102.74 266.436 Q2100.81 264.816 2097.32 264.816 Q2095.1 264.816 2092.99 265.348 Q2090.88 265.881 2088.94 266.946 L2088.94 263.01 Q2091.28 262.108 2093.48 261.668 Q2095.68 261.205 2097.76 261.205 Q2103.38 261.205 2106.16 264.122 Q2108.94 267.038 2108.94 272.964 Z" fill="#000000" fill-rule="nonzero" fill-opacity="1" /><path clip-path="url(#clip240)" d="M2136.37 262.825 L2136.37 266.807 Q2134.56 265.811 2132.74 265.325 Q2130.93 264.816 2129.08 264.816 Q2124.93 264.816 2122.64 267.455 Q2120.35 270.071 2120.35 274.816 Q2120.35 279.561 2122.64 282.2 Q2124.93 284.816 2129.08 284.816 Q2130.93 284.816 2132.74 284.33 Q2134.56 283.821 2136.37 282.825 L2136.37 286.76 Q2134.59 287.594 2132.67 288.01 Q2130.77 288.427 2128.61 288.427 Q2122.76 288.427 2119.31 284.746 Q2115.86 281.066 2115.86 274.816 Q2115.86 268.473 2119.33 264.839 Q2122.83 261.205 2128.89 261.205 Q2130.86 261.205 2132.74 261.622 Q2134.61 262.015 2136.37 262.825 Z" fill="#000000" fill-rule="nonzero" fill-opacity="1" /><polyline clip-path="url(#clip240)" style="stroke:#3da44d; stroke-linecap:round; stroke-linejoin:round; stroke-width:4; stroke-opacity:1; fill:none" stroke-dasharray="2, 4" points="1758.96,322.316 1904.2,322.316 "/>
<circle clip-path="url(#clip240)" cx="1831.58" cy="322.316" r="20.1723" fill="#3da44d" fill-rule="evenodd" fill-opacity="1" stroke="#000000" stroke-opacity="1" stroke-width="4.55111"/>
<path clip-path="url(#clip240)" d="M1928.41 305.036 L1948.27 305.036 L1948.27 308.971 L1933.08 308.971 L1933.08 319.156 L1946.79 319.156 L1946.79 323.091 L1933.08 323.091 L1933.08 339.596 L1928.41 339.596 L1928.41 305.036 Z" fill="#000000" fill-rule="nonzero" fill-opacity="1" /><path clip-path="url(#clip240)" d="M1960.35 323.091 L1960.35 335.753 L1967.85 335.753 Q1971.62 335.753 1973.43 334.202 Q1975.26 332.628 1975.26 329.411 Q1975.26 326.17 1973.43 324.642 Q1971.62 323.091 1967.85 323.091 L1960.35 323.091 M1960.35 308.878 L1960.35 319.295 L1967.27 319.295 Q1970.7 319.295 1972.37 318.022 Q1974.06 316.725 1974.06 314.087 Q1974.06 311.471 1972.37 310.175 Q1970.7 308.878 1967.27 308.878 L1960.35 308.878 M1955.68 305.036 L1967.62 305.036 Q1972.97 305.036 1975.86 307.258 Q1978.75 309.48 1978.75 313.577 Q1978.75 316.749 1977.27 318.624 Q1975.79 320.499 1972.92 320.962 Q1976.37 321.702 1978.27 324.063 Q1980.19 326.401 1980.19 329.92 Q1980.19 334.549 1977.04 337.073 Q1973.89 339.596 1968.08 339.596 L1955.68 339.596 L1955.68 305.036 Z" fill="#000000" fill-rule="nonzero" fill-opacity="1" /><path clip-path="url(#clip240)" d="M1992.87 308.878 L1992.87 335.753 L1998.52 335.753 Q2005.68 335.753 2008.99 332.512 Q2012.32 329.272 2012.32 322.281 Q2012.32 315.337 2008.99 312.119 Q2005.68 308.878 1998.52 308.878 L1992.87 308.878 M1988.2 305.036 L1997.81 305.036 Q2007.85 305.036 2012.55 309.226 Q2017.25 313.392 2017.25 322.281 Q2017.25 331.216 2012.53 335.406 Q2007.81 339.596 1997.81 339.596 L1988.2 339.596 L1988.2 305.036 Z" fill="#000000" fill-rule="nonzero" fill-opacity="1" /><path clip-path="url(#clip240)" d="M2024.7 305.036 L2044.56 305.036 L2044.56 308.971 L2029.38 308.971 L2029.38 319.156 L2043.08 319.156 L2043.08 323.091 L2029.38 323.091 L2029.38 339.596 L2024.7 339.596 L2024.7 305.036 Z" fill="#000000" fill-rule="nonzero" fill-opacity="1" /><path clip-path="url(#clip240)" d="M2071.49 347.466 L2071.49 350.776 L2046.86 350.776 L2046.86 347.466 L2071.49 347.466 Z" fill="#000000" fill-rule="nonzero" fill-opacity="1" /><path clip-path="url(#clip240)" d="M2079.61 335.707 L2079.61 349.457 L2075.33 349.457 L2075.33 313.67 L2079.61 313.67 L2079.61 317.605 Q2080.95 315.29 2082.99 314.179 Q2085.05 313.045 2087.9 313.045 Q2092.62 313.045 2095.56 316.795 Q2098.52 320.545 2098.52 326.656 Q2098.52 332.767 2095.56 336.517 Q2092.62 340.267 2087.9 340.267 Q2085.05 340.267 2082.99 339.156 Q2080.95 338.022 2079.61 335.707 M2094.1 326.656 Q2094.1 321.957 2092.16 319.295 Q2090.24 316.61 2086.86 316.61 Q2083.48 316.61 2081.53 319.295 Q2079.61 321.957 2079.61 326.656 Q2079.61 331.355 2081.53 334.04 Q2083.48 336.702 2086.86 336.702 Q2090.24 336.702 2092.16 334.04 Q2094.1 331.355 2094.1 326.656 Z" fill="#000000" fill-rule="nonzero" fill-opacity="1" /><path clip-path="url(#clip240)" d="M2120.61 317.651 Q2119.89 317.235 2119.03 317.05 Q2118.2 316.841 2117.18 316.841 Q2113.57 316.841 2111.62 319.202 Q2109.7 321.54 2109.7 325.938 L2109.7 339.596 L2105.42 339.596 L2105.42 313.67 L2109.7 313.67 L2109.7 317.698 Q2111.05 315.337 2113.2 314.202 Q2115.35 313.045 2118.43 313.045 Q2118.87 313.045 2119.4 313.114 Q2119.93 313.161 2120.58 313.276 L2120.61 317.651 Z" fill="#000000" fill-rule="nonzero" fill-opacity="1" /><path clip-path="url(#clip240)" d="M2146.21 325.568 L2146.21 327.651 L2126.62 327.651 Q2126.9 332.049 2129.26 334.364 Q2131.65 336.656 2135.88 336.656 Q2138.34 336.656 2140.63 336.054 Q2142.94 335.452 2145.21 334.249 L2145.21 338.276 Q2142.92 339.248 2140.51 339.758 Q2138.11 340.267 2135.63 340.267 Q2129.42 340.267 2125.79 336.656 Q2122.18 333.045 2122.18 326.887 Q2122.18 320.522 2125.61 316.795 Q2129.05 313.045 2134.89 313.045 Q2140.12 313.045 2143.15 316.425 Q2146.21 319.781 2146.21 325.568 M2141.95 324.318 Q2141.9 320.823 2139.98 318.739 Q2138.08 316.656 2134.93 316.656 Q2131.37 316.656 2129.22 318.67 Q2127.09 320.684 2126.76 324.341 L2141.95 324.318 Z" fill="#000000" fill-rule="nonzero" fill-opacity="1" /><path clip-path="url(#clip240)" d="M2171.86 314.665 L2171.86 318.647 Q2170.05 317.651 2168.22 317.165 Q2166.42 316.656 2164.56 316.656 Q2160.42 316.656 2158.13 319.295 Q2155.84 321.911 2155.84 326.656 Q2155.84 331.401 2158.13 334.04 Q2160.42 336.656 2164.56 336.656 Q2166.42 336.656 2168.22 336.17 Q2170.05 335.661 2171.86 334.665 L2171.86 338.6 Q2170.07 339.434 2168.15 339.85 Q2166.25 340.267 2164.1 340.267 Q2158.24 340.267 2154.8 336.586 Q2151.35 332.906 2151.35 326.656 Q2151.35 320.313 2154.82 316.679 Q2158.31 313.045 2164.38 313.045 Q2166.35 313.045 2168.22 313.462 Q2170.1 313.855 2171.86 314.665 Z" fill="#000000" fill-rule="nonzero" fill-opacity="1" /><polyline clip-path="url(#clip240)" style="stroke:#c271d2; stroke-linecap:round; stroke-linejoin:round; stroke-width:4; stroke-opacity:1; fill:none" stroke-dasharray="2, 4" points="1758.96,374.156 1904.2,374.156 "/>
<circle clip-path="url(#clip240)" cx="1831.58" cy="374.156" r="20.1723" fill="#c271d2" fill-rule="evenodd" fill-opacity="1" stroke="#000000" stroke-opacity="1" stroke-width="4.55111"/>
<path clip-path="url(#clip240)" d="M1928.41 356.876 L1948.27 356.876 L1948.27 360.811 L1933.08 360.811 L1933.08 370.996 L1946.79 370.996 L1946.79 374.931 L1933.08 374.931 L1933.08 391.436 L1928.41 391.436 L1928.41 356.876 Z" fill="#000000" fill-rule="nonzero" fill-opacity="1" /><path clip-path="url(#clip240)" d="M1960.35 374.931 L1960.35 387.593 L1967.85 387.593 Q1971.62 387.593 1973.43 386.042 Q1975.26 384.468 1975.26 381.251 Q1975.26 378.01 1973.43 376.482 Q1971.62 374.931 1967.85 374.931 L1960.35 374.931 M1960.35 360.718 L1960.35 371.135 L1967.27 371.135 Q1970.7 371.135 1972.37 369.862 Q1974.06 368.565 1974.06 365.927 Q1974.06 363.311 1972.37 362.015 Q1970.7 360.718 1967.27 360.718 L1960.35 360.718 M1955.68 356.876 L1967.62 356.876 Q1972.97 356.876 1975.86 359.098 Q1978.75 361.32 1978.75 365.417 Q1978.75 368.589 1977.27 370.464 Q1975.79 372.339 1972.92 372.802 Q1976.37 373.542 1978.27 375.903 Q1980.19 378.241 1980.19 381.76 Q1980.19 386.389 1977.04 388.913 Q1973.89 391.436 1968.08 391.436 L1955.68 391.436 L1955.68 356.876 Z" fill="#000000" fill-rule="nonzero" fill-opacity="1" /><path clip-path="url(#clip240)" d="M1992.87 360.718 L1992.87 387.593 L1998.52 387.593 Q2005.68 387.593 2008.99 384.352 Q2012.32 381.112 2012.32 374.121 Q2012.32 367.177 2008.99 363.959 Q2005.68 360.718 1998.52 360.718 L1992.87 360.718 M1988.2 356.876 L1997.81 356.876 Q2007.85 356.876 2012.55 361.066 Q2017.25 365.232 2017.25 374.121 Q2017.25 383.056 2012.53 387.246 Q2007.81 391.436 1997.81 391.436 L1988.2 391.436 L1988.2 356.876 Z" fill="#000000" fill-rule="nonzero" fill-opacity="1" /><path clip-path="url(#clip240)" d="M2024.7 356.876 L2044.56 356.876 L2044.56 360.811 L2029.38 360.811 L2029.38 370.996 L2043.08 370.996 L2043.08 374.931 L2029.38 374.931 L2029.38 391.436 L2024.7 391.436 L2024.7 356.876 Z" fill="#000000" fill-rule="nonzero" fill-opacity="1" /><path clip-path="url(#clip240)" d="M2071.49 399.306 L2071.49 402.616 L2046.86 402.616 L2046.86 399.306 L2071.49 399.306 Z" fill="#000000" fill-rule="nonzero" fill-opacity="1" /><path clip-path="url(#clip240)" d="M2079.61 387.547 L2079.61 401.297 L2075.33 401.297 L2075.33 365.51 L2079.61 365.51 L2079.61 369.445 Q2080.95 367.13 2082.99 366.019 Q2085.05 364.885 2087.9 364.885 Q2092.62 364.885 2095.56 368.635 Q2098.52 372.385 2098.52 378.496 Q2098.52 384.607 2095.56 388.357 Q2092.62 392.107 2087.9 392.107 Q2085.05 392.107 2082.99 390.996 Q2080.95 389.862 2079.61 387.547 M2094.1 378.496 Q2094.1 373.797 2092.16 371.135 Q2090.24 368.45 2086.86 368.45 Q2083.48 368.45 2081.53 371.135 Q2079.61 373.797 2079.61 378.496 Q2079.61 383.195 2081.53 385.88 Q2083.48 388.542 2086.86 388.542 Q2090.24 388.542 2092.16 385.88 Q2094.1 383.195 2094.1 378.496 Z" fill="#000000" fill-rule="nonzero" fill-opacity="1" /><path clip-path="url(#clip240)" d="M2120.61 369.491 Q2119.89 369.075 2119.03 368.89 Q2118.2 368.681 2117.18 368.681 Q2113.57 368.681 2111.62 371.042 Q2109.7 373.38 2109.7 377.778 L2109.7 391.436 L2105.42 391.436 L2105.42 365.51 L2109.7 365.51 L2109.7 369.538 Q2111.05 367.177 2113.2 366.042 Q2115.35 364.885 2118.43 364.885 Q2118.87 364.885 2119.4 364.954 Q2119.93 365.001 2120.58 365.116 L2120.61 369.491 Z" fill="#000000" fill-rule="nonzero" fill-opacity="1" /><path clip-path="url(#clip240)" d="M2146.21 377.408 L2146.21 379.491 L2126.62 379.491 Q2126.9 383.889 2129.26 386.204 Q2131.65 388.496 2135.88 388.496 Q2138.34 388.496 2140.63 387.894 Q2142.94 387.292 2145.21 386.089 L2145.21 390.116 Q2142.92 391.088 2140.51 391.598 Q2138.11 392.107 2135.63 392.107 Q2129.42 392.107 2125.79 388.496 Q2122.18 384.885 2122.18 378.727 Q2122.18 372.362 2125.61 368.635 Q2129.05 364.885 2134.89 364.885 Q2140.12 364.885 2143.15 368.265 Q2146.21 371.621 2146.21 377.408 M2141.95 376.158 Q2141.9 372.663 2139.98 370.579 Q2138.08 368.496 2134.93 368.496 Q2131.37 368.496 2129.22 370.51 Q2127.09 372.524 2126.76 376.181 L2141.95 376.158 Z" fill="#000000" fill-rule="nonzero" fill-opacity="1" /><path clip-path="url(#clip240)" d="M2171.86 366.505 L2171.86 370.487 Q2170.05 369.491 2168.22 369.005 Q2166.42 368.496 2164.56 368.496 Q2160.42 368.496 2158.13 371.135 Q2155.84 373.751 2155.84 378.496 Q2155.84 383.241 2158.13 385.88 Q2160.42 388.496 2164.56 388.496 Q2166.42 388.496 2168.22 388.01 Q2170.05 387.501 2171.86 386.505 L2171.86 390.44 Q2170.07 391.274 2168.15 391.69 Q2166.25 392.107 2164.1 392.107 Q2158.24 392.107 2154.8 388.426 Q2151.35 384.746 2151.35 378.496 Q2151.35 372.153 2154.82 368.519 Q2158.31 364.885 2164.38 364.885 Q2166.35 364.885 2168.22 365.302 Q2170.1 365.695 2171.86 366.505 Z" fill="#000000" fill-rule="nonzero" fill-opacity="1" /><path clip-path="url(#clip240)" d="M2179.45 356.876 L2184.12 356.876 L2184.12 389.028 Q2184.12 395.278 2181.74 398.102 Q2179.38 400.926 2174.12 400.926 L2172.34 400.926 L2172.34 396.991 L2173.8 396.991 Q2176.9 396.991 2178.17 395.255 Q2179.45 393.519 2179.45 389.028 L2179.45 356.876 Z" fill="#000000" fill-rule="nonzero" fill-opacity="1" /><path clip-path="url(#clip240)" d="M2205.03 378.403 Q2199.86 378.403 2197.87 379.584 Q2195.88 380.764 2195.88 383.612 Q2195.88 385.88 2197.36 387.223 Q2198.87 388.542 2201.44 388.542 Q2204.98 388.542 2207.11 386.042 Q2209.26 383.519 2209.26 379.352 L2209.26 378.403 L2205.03 378.403 M2213.52 376.644 L2213.52 391.436 L2209.26 391.436 L2209.26 387.501 Q2207.8 389.862 2205.63 390.996 Q2203.45 392.107 2200.3 392.107 Q2196.32 392.107 2193.96 389.885 Q2191.62 387.639 2191.62 383.889 Q2191.62 379.514 2194.54 377.292 Q2197.48 375.07 2203.29 375.07 L2209.26 375.07 L2209.26 374.653 Q2209.26 371.714 2207.32 370.116 Q2205.4 368.496 2201.9 368.496 Q2199.68 368.496 2197.57 369.028 Q2195.47 369.561 2193.52 370.626 L2193.52 366.69 Q2195.86 365.788 2198.06 365.348 Q2200.26 364.885 2202.34 364.885 Q2207.97 364.885 2210.74 367.802 Q2213.52 370.718 2213.52 376.644 Z" fill="#000000" fill-rule="nonzero" fill-opacity="1" /><path clip-path="url(#clip240)" d="M2240.95 366.505 L2240.95 370.487 Q2239.15 369.491 2237.32 369.005 Q2235.51 368.496 2233.66 368.496 Q2229.52 368.496 2227.23 371.135 Q2224.93 373.751 2224.93 378.496 Q2224.93 383.241 2227.23 385.88 Q2229.52 388.496 2233.66 388.496 Q2235.51 388.496 2237.32 388.01 Q2239.15 387.501 2240.95 386.505 L2240.95 390.44 Q2239.17 391.274 2237.25 391.69 Q2235.35 392.107 2233.2 392.107 Q2227.34 392.107 2223.89 388.426 Q2220.44 384.746 2220.44 378.496 Q2220.44 372.153 2223.92 368.519 Q2227.41 364.885 2233.48 364.885 Q2235.44 364.885 2237.32 365.302 Q2239.19 365.695 2240.95 366.505 Z" fill="#000000" fill-rule="nonzero" fill-opacity="1" /><polyline clip-path="url(#clip240)" style="stroke:#ac8d18; stroke-linecap:round; stroke-linejoin:round; stroke-width:4; stroke-opacity:1; fill:none" stroke-dasharray="2, 4" points="1758.96,425.996 1904.2,425.996 "/>
<circle clip-path="url(#clip240)" cx="1831.58" cy="425.996" r="20.1723" fill="#ac8d18" fill-rule="evenodd" fill-opacity="1" stroke="#000000" stroke-opacity="1" stroke-width="4.55111"/>
<path clip-path="url(#clip240)" d="M1944.43 411.887 Q1939.33 411.887 1936.32 415.683 Q1933.34 419.48 1933.34 426.03 Q1933.34 432.558 1936.32 436.354 Q1939.33 440.151 1944.43 440.151 Q1949.52 440.151 1952.48 436.354 Q1955.47 432.558 1955.47 426.03 Q1955.47 419.48 1952.48 415.683 Q1949.52 411.887 1944.43 411.887 M1950.98 442.651 L1957.13 449.387 L1951.49 449.387 L1946.37 443.854 Q1945.61 443.901 1945.19 443.924 Q1944.8 443.947 1944.43 443.947 Q1937.13 443.947 1932.76 439.086 Q1928.41 434.202 1928.41 426.03 Q1928.41 417.836 1932.76 412.975 Q1937.13 408.091 1944.43 408.091 Q1951.69 408.091 1956.05 412.975 Q1960.4 417.836 1960.4 426.03 Q1960.4 432.049 1957.97 436.331 Q1955.56 440.614 1950.98 442.651 Z" fill="#000000" fill-rule="nonzero" fill-opacity="1" /><path clip-path="url(#clip240)" d="M1967.71 408.716 L1974.01 408.716 L1989.33 437.628 L1989.33 408.716 L1993.87 408.716 L1993.87 443.276 L1987.57 443.276 L1972.25 414.364 L1972.25 443.276 L1967.71 443.276 L1967.71 408.716 Z" fill="#000000" fill-rule="nonzero" fill-opacity="1" /><path clip-path="url(#clip240)" d="M2007.85 412.558 L2007.85 439.433 L2013.5 439.433 Q2020.65 439.433 2023.96 436.192 Q2027.3 432.952 2027.3 425.961 Q2027.3 419.017 2023.96 415.799 Q2020.65 412.558 2013.5 412.558 L2007.85 412.558 M2003.18 408.716 L2012.78 408.716 Q2022.83 408.716 2027.53 412.906 Q2032.23 417.072 2032.23 425.961 Q2032.23 434.896 2027.5 439.086 Q2022.78 443.276 2012.78 443.276 L2003.18 443.276 L2003.18 408.716 Z" fill="#000000" fill-rule="nonzero" fill-opacity="1" /><path clip-path="url(#clip240)" d="M2039.68 408.716 L2059.54 408.716 L2059.54 412.651 L2044.36 412.651 L2044.36 422.836 L2058.06 422.836 L2058.06 426.771 L2044.36 426.771 L2044.36 443.276 L2039.68 443.276 L2039.68 408.716 Z" fill="#000000" fill-rule="nonzero" fill-opacity="1" /><polyline clip-path="url(#clip240)" style="stroke:#00a9ad; stroke-linecap:round; stroke-linejoin:round; stroke-width:4; stroke-opacity:1; fill:none" stroke-dasharray="2, 4" points="1758.96,477.836 1904.2,477.836 "/>
<circle clip-path="url(#clip240)" cx="1831.58" cy="477.836" r="20.1723" fill="#00a9ad" fill-rule="evenodd" fill-opacity="1" stroke="#000000" stroke-opacity="1" stroke-width="4.55111"/>
<path clip-path="url(#clip240)" d="M1944.43 463.727 Q1939.33 463.727 1936.32 467.523 Q1933.34 471.32 1933.34 477.87 Q1933.34 484.398 1936.32 488.194 Q1939.33 491.991 1944.43 491.991 Q1949.52 491.991 1952.48 488.194 Q1955.47 484.398 1955.47 477.87 Q1955.47 471.32 1952.48 467.523 Q1949.52 463.727 1944.43 463.727 M1950.98 494.491 L1957.13 501.227 L1951.49 501.227 L1946.37 495.694 Q1945.61 495.741 1945.19 495.764 Q1944.8 495.787 1944.43 495.787 Q1937.13 495.787 1932.76 490.926 Q1928.41 486.042 1928.41 477.87 Q1928.41 469.676 1932.76 464.815 Q1937.13 459.931 1944.43 459.931 Q1951.69 459.931 1956.05 464.815 Q1960.4 469.676 1960.4 477.87 Q1960.4 483.889 1957.97 488.171 Q1955.56 492.454 1950.98 494.491 Z" fill="#000000" fill-rule="nonzero" fill-opacity="1" /><path clip-path="url(#clip240)" d="M1967.71 460.556 L1974.01 460.556 L1989.33 489.468 L1989.33 460.556 L1993.87 460.556 L1993.87 495.116 L1987.57 495.116 L1972.25 466.204 L1972.25 495.116 L1967.71 495.116 L1967.71 460.556 Z" fill="#000000" fill-rule="nonzero" fill-opacity="1" /><path clip-path="url(#clip240)" d="M2007.85 464.398 L2007.85 491.273 L2013.5 491.273 Q2020.65 491.273 2023.96 488.032 Q2027.3 484.792 2027.3 477.801 Q2027.3 470.857 2023.96 467.639 Q2020.65 464.398 2013.5 464.398 L2007.85 464.398 M2003.18 460.556 L2012.78 460.556 Q2022.83 460.556 2027.53 464.746 Q2032.23 468.912 2032.23 477.801 Q2032.23 486.736 2027.5 490.926 Q2022.78 495.116 2012.78 495.116 L2003.18 495.116 L2003.18 460.556 Z" fill="#000000" fill-rule="nonzero" fill-opacity="1" /><path clip-path="url(#clip240)" d="M2039.68 460.556 L2059.54 460.556 L2059.54 464.491 L2044.36 464.491 L2044.36 474.676 L2058.06 474.676 L2058.06 478.611 L2044.36 478.611 L2044.36 495.116 L2039.68 495.116 L2039.68 460.556 Z" fill="#000000" fill-rule="nonzero" fill-opacity="1" /><path clip-path="url(#clip240)" d="M2086.46 502.986 L2086.46 506.296 L2061.83 506.296 L2061.83 502.986 L2086.46 502.986 Z" fill="#000000" fill-rule="nonzero" fill-opacity="1" /><path clip-path="url(#clip240)" d="M2090.47 469.19 L2094.73 469.19 L2094.73 495.579 Q2094.73 500.532 2092.83 502.755 Q2090.95 504.977 2086.76 504.977 L2085.14 504.977 L2085.14 501.366 L2086.28 501.366 Q2088.71 501.366 2089.59 500.231 Q2090.47 499.12 2090.47 495.579 L2090.47 469.19 M2090.47 459.097 L2094.73 459.097 L2094.73 464.491 L2090.47 464.491 L2090.47 459.097 Z" fill="#000000" fill-rule="nonzero" fill-opacity="1" /><path clip-path="url(#clip240)" d="M2115.42 482.083 Q2110.26 482.083 2108.27 483.264 Q2106.28 484.444 2106.28 487.292 Q2106.28 489.56 2107.76 490.903 Q2109.26 492.222 2111.83 492.222 Q2115.37 492.222 2117.5 489.722 Q2119.66 487.199 2119.66 483.032 L2119.66 482.083 L2115.42 482.083 M2123.92 480.324 L2123.92 495.116 L2119.66 495.116 L2119.66 491.181 Q2118.2 493.542 2116.02 494.676 Q2113.85 495.787 2110.7 495.787 Q2106.72 495.787 2104.36 493.565 Q2102.02 491.319 2102.02 487.569 Q2102.02 483.194 2104.93 480.972 Q2107.87 478.75 2113.68 478.75 L2119.66 478.75 L2119.66 478.333 Q2119.66 475.394 2117.71 473.796 Q2115.79 472.176 2112.3 472.176 Q2110.07 472.176 2107.97 472.708 Q2105.86 473.241 2103.92 474.306 L2103.92 470.37 Q2106.25 469.468 2108.45 469.028 Q2110.65 468.565 2112.74 468.565 Q2118.36 468.565 2121.14 471.482 Q2123.92 474.398 2123.92 480.324 Z" fill="#000000" fill-rule="nonzero" fill-opacity="1" /><path clip-path="url(#clip240)" d="M2151.35 470.185 L2151.35 474.167 Q2149.54 473.171 2147.71 472.685 Q2145.91 472.176 2144.05 472.176 Q2139.91 472.176 2137.62 474.815 Q2135.33 477.431 2135.33 482.176 Q2135.33 486.921 2137.62 489.56 Q2139.91 492.176 2144.05 492.176 Q2145.91 492.176 2147.71 491.69 Q2149.54 491.181 2151.35 490.185 L2151.35 494.12 Q2149.56 494.954 2147.64 495.37 Q2145.74 495.787 2143.59 495.787 Q2137.74 495.787 2134.29 492.106 Q2130.84 488.426 2130.84 482.176 Q2130.84 475.833 2134.31 472.199 Q2137.8 468.565 2143.87 468.565 Q2145.84 468.565 2147.71 468.982 Q2149.59 469.375 2151.35 470.185 Z" fill="#000000" fill-rule="nonzero" fill-opacity="1" /><polyline clip-path="url(#clip240)" style="stroke:#ed5d92; stroke-linecap:round; stroke-linejoin:round; stroke-width:4; stroke-opacity:1; fill:none" stroke-dasharray="2, 4" points="1758.96,529.676 1904.2,529.676 "/>
<circle clip-path="url(#clip240)" cx="1831.58" cy="529.676" r="20.1723" fill="#ed5d92" fill-rule="evenodd" fill-opacity="1" stroke="#000000" stroke-opacity="1" stroke-width="4.55111"/>
<path clip-path="url(#clip240)" d="M1944.43 515.567 Q1939.33 515.567 1936.32 519.363 Q1933.34 523.16 1933.34 529.71 Q1933.34 536.238 1936.32 540.034 Q1939.33 543.831 1944.43 543.831 Q1949.52 543.831 1952.48 540.034 Q1955.47 536.238 1955.47 529.71 Q1955.47 523.16 1952.48 519.363 Q1949.52 515.567 1944.43 515.567 M1950.98 546.331 L1957.13 553.067 L1951.49 553.067 L1946.37 547.534 Q1945.61 547.581 1945.19 547.604 Q1944.8 547.627 1944.43 547.627 Q1937.13 547.627 1932.76 542.766 Q1928.41 537.882 1928.41 529.71 Q1928.41 521.516 1932.76 516.655 Q1937.13 511.771 1944.43 511.771 Q1951.69 511.771 1956.05 516.655 Q1960.4 521.516 1960.4 529.71 Q1960.4 535.729 1957.97 540.011 Q1955.56 544.294 1950.98 546.331 Z" fill="#000000" fill-rule="nonzero" fill-opacity="1" /><path clip-path="url(#clip240)" d="M1967.71 512.396 L1974.01 512.396 L1989.33 541.308 L1989.33 512.396 L1993.87 512.396 L1993.87 546.956 L1987.57 546.956 L1972.25 518.044 L1972.25 546.956 L1967.71 546.956 L1967.71 512.396 Z" fill="#000000" fill-rule="nonzero" fill-opacity="1" /><path clip-path="url(#clip240)" d="M2007.85 516.238 L2007.85 543.113 L2013.5 543.113 Q2020.65 543.113 2023.96 539.872 Q2027.3 536.632 2027.3 529.641 Q2027.3 522.697 2023.96 519.479 Q2020.65 516.238 2013.5 516.238 L2007.85 516.238 M2003.18 512.396 L2012.78 512.396 Q2022.83 512.396 2027.53 516.586 Q2032.23 520.752 2032.23 529.641 Q2032.23 538.576 2027.5 542.766 Q2022.78 546.956 2012.78 546.956 L2003.18 546.956 L2003.18 512.396 Z" fill="#000000" fill-rule="nonzero" fill-opacity="1" /><path clip-path="url(#clip240)" d="M2039.68 512.396 L2059.54 512.396 L2059.54 516.331 L2044.36 516.331 L2044.36 526.516 L2058.06 526.516 L2058.06 530.451 L2044.36 530.451 L2044.36 546.956 L2039.68 546.956 L2039.68 512.396 Z" fill="#000000" fill-rule="nonzero" fill-opacity="1" /><path clip-path="url(#clip240)" d="M2086.46 554.826 L2086.46 558.136 L2061.83 558.136 L2061.83 554.826 L2086.46 554.826 Z" fill="#000000" fill-rule="nonzero" fill-opacity="1" /><path clip-path="url(#clip240)" d="M2094.59 543.067 L2094.59 556.817 L2090.3 556.817 L2090.3 521.03 L2094.59 521.03 L2094.59 524.965 Q2095.93 522.65 2097.97 521.539 Q2100.03 520.405 2102.87 520.405 Q2107.6 520.405 2110.54 524.155 Q2113.5 527.905 2113.5 534.016 Q2113.5 540.127 2110.54 543.877 Q2107.6 547.627 2102.87 547.627 Q2100.03 547.627 2097.97 546.516 Q2095.93 545.382 2094.59 543.067 M2109.08 534.016 Q2109.08 529.317 2107.13 526.655 Q2105.21 523.97 2101.83 523.97 Q2098.45 523.97 2096.51 526.655 Q2094.59 529.317 2094.59 534.016 Q2094.59 538.715 2096.51 541.4 Q2098.45 544.062 2101.83 544.062 Q2105.21 544.062 2107.13 541.4 Q2109.08 538.715 2109.08 534.016 Z" fill="#000000" fill-rule="nonzero" fill-opacity="1" /><path clip-path="url(#clip240)" d="M2135.58 525.011 Q2134.86 524.595 2134.01 524.41 Q2133.17 524.201 2132.16 524.201 Q2128.55 524.201 2126.6 526.562 Q2124.68 528.9 2124.68 533.298 L2124.68 546.956 L2120.4 546.956 L2120.4 521.03 L2124.68 521.03 L2124.68 525.058 Q2126.02 522.697 2128.17 521.562 Q2130.33 520.405 2133.41 520.405 Q2133.85 520.405 2134.38 520.474 Q2134.91 520.521 2135.56 520.636 L2135.58 525.011 Z" fill="#000000" fill-rule="nonzero" fill-opacity="1" /><path clip-path="url(#clip240)" d="M2161.18 532.928 L2161.18 535.011 L2141.6 535.011 Q2141.88 539.409 2144.24 541.724 Q2146.62 544.016 2150.86 544.016 Q2153.31 544.016 2155.61 543.414 Q2157.92 542.812 2160.19 541.609 L2160.19 545.636 Q2157.9 546.608 2155.49 547.118 Q2153.08 547.627 2150.61 547.627 Q2144.4 547.627 2140.77 544.016 Q2137.16 540.405 2137.16 534.247 Q2137.16 527.882 2140.58 524.155 Q2144.03 520.405 2149.86 520.405 Q2155.1 520.405 2158.13 523.785 Q2161.18 527.141 2161.18 532.928 M2156.92 531.678 Q2156.88 528.183 2154.96 526.099 Q2153.06 524.016 2149.91 524.016 Q2146.35 524.016 2144.19 526.03 Q2142.06 528.044 2141.74 531.701 L2156.92 531.678 Z" fill="#000000" fill-rule="nonzero" fill-opacity="1" /><path clip-path="url(#clip240)" d="M2186.83 522.025 L2186.83 526.007 Q2185.03 525.011 2183.2 524.525 Q2181.39 524.016 2179.54 524.016 Q2175.4 524.016 2173.11 526.655 Q2170.81 529.271 2170.81 534.016 Q2170.81 538.761 2173.11 541.4 Q2175.4 544.016 2179.54 544.016 Q2181.39 544.016 2183.2 543.53 Q2185.03 543.021 2186.83 542.025 L2186.83 545.96 Q2185.05 546.794 2183.13 547.21 Q2181.23 547.627 2179.08 547.627 Q2173.22 547.627 2169.77 543.946 Q2166.32 540.266 2166.32 534.016 Q2166.32 527.673 2169.8 524.039 Q2173.29 520.405 2179.36 520.405 Q2181.32 520.405 2183.2 520.822 Q2185.07 521.215 2186.83 522.025 Z" fill="#000000" fill-rule="nonzero" fill-opacity="1" /><polyline clip-path="url(#clip240)" style="stroke:#c68125; stroke-linecap:round; stroke-linejoin:round; stroke-width:4; stroke-opacity:1; fill:none" stroke-dasharray="2, 4" points="1758.96,581.516 1904.2,581.516 "/>
<circle clip-path="url(#clip240)" cx="1831.58" cy="581.516" r="20.1723" fill="#c68125" fill-rule="evenodd" fill-opacity="1" stroke="#000000" stroke-opacity="1" stroke-width="4.55111"/>
<path clip-path="url(#clip240)" d="M1944.43 567.407 Q1939.33 567.407 1936.32 571.203 Q1933.34 575 1933.34 581.55 Q1933.34 588.078 1936.32 591.874 Q1939.33 595.671 1944.43 595.671 Q1949.52 595.671 1952.48 591.874 Q1955.47 588.078 1955.47 581.55 Q1955.47 575 1952.48 571.203 Q1949.52 567.407 1944.43 567.407 M1950.98 598.171 L1957.13 604.907 L1951.49 604.907 L1946.37 599.374 Q1945.61 599.421 1945.19 599.444 Q1944.8 599.467 1944.43 599.467 Q1937.13 599.467 1932.76 594.606 Q1928.41 589.722 1928.41 581.55 Q1928.41 573.356 1932.76 568.495 Q1937.13 563.611 1944.43 563.611 Q1951.69 563.611 1956.05 568.495 Q1960.4 573.356 1960.4 581.55 Q1960.4 587.569 1957.97 591.851 Q1955.56 596.134 1950.98 598.171 Z" fill="#000000" fill-rule="nonzero" fill-opacity="1" /><path clip-path="url(#clip240)" d="M1967.71 564.236 L1974.01 564.236 L1989.33 593.148 L1989.33 564.236 L1993.87 564.236 L1993.87 598.796 L1987.57 598.796 L1972.25 569.884 L1972.25 598.796 L1967.71 598.796 L1967.71 564.236 Z" fill="#000000" fill-rule="nonzero" fill-opacity="1" /><path clip-path="url(#clip240)" d="M2007.85 568.078 L2007.85 594.953 L2013.5 594.953 Q2020.65 594.953 2023.96 591.712 Q2027.3 588.472 2027.3 581.481 Q2027.3 574.537 2023.96 571.319 Q2020.65 568.078 2013.5 568.078 L2007.85 568.078 M2003.18 564.236 L2012.78 564.236 Q2022.83 564.236 2027.53 568.426 Q2032.23 572.592 2032.23 581.481 Q2032.23 590.416 2027.5 594.606 Q2022.78 598.796 2012.78 598.796 L2003.18 598.796 L2003.18 564.236 Z" fill="#000000" fill-rule="nonzero" fill-opacity="1" /><path clip-path="url(#clip240)" d="M2039.68 564.236 L2059.54 564.236 L2059.54 568.171 L2044.36 568.171 L2044.36 578.356 L2058.06 578.356 L2058.06 582.291 L2044.36 582.291 L2044.36 598.796 L2039.68 598.796 L2039.68 564.236 Z" fill="#000000" fill-rule="nonzero" fill-opacity="1" /><path clip-path="url(#clip240)" d="M2086.46 606.666 L2086.46 609.976 L2061.83 609.976 L2061.83 606.666 L2086.46 606.666 Z" fill="#000000" fill-rule="nonzero" fill-opacity="1" /><path clip-path="url(#clip240)" d="M2094.59 594.907 L2094.59 608.657 L2090.3 608.657 L2090.3 572.87 L2094.59 572.87 L2094.59 576.805 Q2095.93 574.49 2097.97 573.379 Q2100.03 572.245 2102.87 572.245 Q2107.6 572.245 2110.54 575.995 Q2113.5 579.745 2113.5 585.856 Q2113.5 591.967 2110.54 595.717 Q2107.6 599.467 2102.87 599.467 Q2100.03 599.467 2097.97 598.356 Q2095.93 597.222 2094.59 594.907 M2109.08 585.856 Q2109.08 581.157 2107.13 578.495 Q2105.21 575.81 2101.83 575.81 Q2098.45 575.81 2096.51 578.495 Q2094.59 581.157 2094.59 585.856 Q2094.59 590.555 2096.51 593.24 Q2098.45 595.902 2101.83 595.902 Q2105.21 595.902 2107.13 593.24 Q2109.08 590.555 2109.08 585.856 Z" fill="#000000" fill-rule="nonzero" fill-opacity="1" /><path clip-path="url(#clip240)" d="M2135.58 576.851 Q2134.86 576.435 2134.01 576.25 Q2133.17 576.041 2132.16 576.041 Q2128.55 576.041 2126.6 578.402 Q2124.68 580.74 2124.68 585.138 L2124.68 598.796 L2120.4 598.796 L2120.4 572.87 L2124.68 572.87 L2124.68 576.898 Q2126.02 574.537 2128.17 573.402 Q2130.33 572.245 2133.41 572.245 Q2133.85 572.245 2134.38 572.314 Q2134.91 572.361 2135.56 572.476 L2135.58 576.851 Z" fill="#000000" fill-rule="nonzero" fill-opacity="1" /><path clip-path="url(#clip240)" d="M2161.18 584.768 L2161.18 586.851 L2141.6 586.851 Q2141.88 591.249 2144.24 593.564 Q2146.62 595.856 2150.86 595.856 Q2153.31 595.856 2155.61 595.254 Q2157.92 594.652 2160.19 593.449 L2160.19 597.476 Q2157.9 598.448 2155.49 598.958 Q2153.08 599.467 2150.61 599.467 Q2144.4 599.467 2140.77 595.856 Q2137.16 592.245 2137.16 586.087 Q2137.16 579.722 2140.58 575.995 Q2144.03 572.245 2149.86 572.245 Q2155.1 572.245 2158.13 575.625 Q2161.18 578.981 2161.18 584.768 M2156.92 583.518 Q2156.88 580.023 2154.96 577.939 Q2153.06 575.856 2149.91 575.856 Q2146.35 575.856 2144.19 577.87 Q2142.06 579.884 2141.74 583.541 L2156.92 583.518 Z" fill="#000000" fill-rule="nonzero" fill-opacity="1" /><path clip-path="url(#clip240)" d="M2186.83 573.865 L2186.83 577.847 Q2185.03 576.851 2183.2 576.365 Q2181.39 575.856 2179.54 575.856 Q2175.4 575.856 2173.11 578.495 Q2170.81 581.111 2170.81 585.856 Q2170.81 590.601 2173.11 593.24 Q2175.4 595.856 2179.54 595.856 Q2181.39 595.856 2183.2 595.37 Q2185.03 594.861 2186.83 593.865 L2186.83 597.8 Q2185.05 598.634 2183.13 599.05 Q2181.23 599.467 2179.08 599.467 Q2173.22 599.467 2169.77 595.786 Q2166.32 592.106 2166.32 585.856 Q2166.32 579.513 2169.8 575.879 Q2173.29 572.245 2179.36 572.245 Q2181.32 572.245 2183.2 572.662 Q2185.07 573.055 2186.83 573.865 Z" fill="#000000" fill-rule="nonzero" fill-opacity="1" /><path clip-path="url(#clip240)" d="M2194.42 564.236 L2199.1 564.236 L2199.1 596.388 Q2199.1 602.638 2196.72 605.462 Q2194.36 608.286 2189.1 608.286 L2187.32 608.286 L2187.32 604.351 L2188.78 604.351 Q2191.88 604.351 2193.15 602.615 Q2194.42 600.879 2194.42 596.388 L2194.42 564.236 Z" fill="#000000" fill-rule="nonzero" fill-opacity="1" /><path clip-path="url(#clip240)" d="M2220 585.763 Q2214.84 585.763 2212.85 586.944 Q2210.86 588.124 2210.86 590.972 Q2210.86 593.24 2212.34 594.583 Q2213.85 595.902 2216.42 595.902 Q2219.96 595.902 2222.09 593.402 Q2224.24 590.879 2224.24 586.712 L2224.24 585.763 L2220 585.763 M2228.5 584.004 L2228.5 598.796 L2224.24 598.796 L2224.24 594.861 Q2222.78 597.222 2220.61 598.356 Q2218.43 599.467 2215.28 599.467 Q2211.3 599.467 2208.94 597.245 Q2206.6 594.999 2206.6 591.249 Q2206.6 586.874 2209.52 584.652 Q2212.46 582.43 2218.27 582.43 L2224.24 582.43 L2224.24 582.013 Q2224.24 579.074 2222.29 577.476 Q2220.37 575.856 2216.88 575.856 Q2214.66 575.856 2212.55 576.388 Q2210.44 576.921 2208.5 577.986 L2208.5 574.05 Q2210.84 573.148 2213.04 572.708 Q2215.23 572.245 2217.32 572.245 Q2222.94 572.245 2225.72 575.162 Q2228.5 578.078 2228.5 584.004 Z" fill="#000000" fill-rule="nonzero" fill-opacity="1" /><path clip-path="url(#clip240)" d="M2255.93 573.865 L2255.93 577.847 Q2254.12 576.851 2252.29 576.365 Q2250.49 575.856 2248.64 575.856 Q2244.49 575.856 2242.2 578.495 Q2239.91 581.111 2239.91 585.856 Q2239.91 590.601 2242.2 593.24 Q2244.49 595.856 2248.64 595.856 Q2250.49 595.856 2252.29 595.37 Q2254.12 594.861 2255.93 593.865 L2255.93 597.8 Q2254.15 598.634 2252.23 599.05 Q2250.33 599.467 2248.17 599.467 Q2242.32 599.467 2238.87 595.786 Q2235.42 592.106 2235.42 585.856 Q2235.42 579.513 2238.89 575.879 Q2242.39 572.245 2248.45 572.245 Q2250.42 572.245 2252.29 572.662 Q2254.17 573.055 2255.93 573.865 Z" fill="#000000" fill-rule="nonzero" fill-opacity="1" /><polyline clip-path="url(#clip240)" style="stroke:#00a98d; stroke-linecap:round; stroke-linejoin:round; stroke-width:4; stroke-opacity:1; fill:none" stroke-dasharray="2, 4" points="1758.96,633.356 1904.2,633.356 "/>
<circle clip-path="url(#clip240)" cx="1831.58" cy="633.356" r="20.1723" fill="#00a98d" fill-rule="evenodd" fill-opacity="1" stroke="#000000" stroke-opacity="1" stroke-width="4.55111"/>
<path clip-path="url(#clip240)" d="M1944.43 619.247 Q1939.33 619.247 1936.32 623.043 Q1933.34 626.84 1933.34 633.39 Q1933.34 639.918 1936.32 643.714 Q1939.33 647.511 1944.43 647.511 Q1949.52 647.511 1952.48 643.714 Q1955.47 639.918 1955.47 633.39 Q1955.47 626.84 1952.48 623.043 Q1949.52 619.247 1944.43 619.247 M1950.98 650.011 L1957.13 656.747 L1951.49 656.747 L1946.37 651.214 Q1945.61 651.261 1945.19 651.284 Q1944.8 651.307 1944.43 651.307 Q1937.13 651.307 1932.76 646.446 Q1928.41 641.562 1928.41 633.39 Q1928.41 625.196 1932.76 620.335 Q1937.13 615.451 1944.43 615.451 Q1951.69 615.451 1956.05 620.335 Q1960.4 625.196 1960.4 633.39 Q1960.4 639.409 1957.97 643.691 Q1955.56 647.974 1950.98 650.011 Z" fill="#000000" fill-rule="nonzero" fill-opacity="1" /><path clip-path="url(#clip240)" d="M1972.39 634.131 L1972.39 646.793 L1979.89 646.793 Q1983.66 646.793 1985.47 645.242 Q1987.3 643.668 1987.3 640.451 Q1987.3 637.21 1985.47 635.682 Q1983.66 634.131 1979.89 634.131 L1972.39 634.131 M1972.39 619.918 L1972.39 630.335 L1979.31 630.335 Q1982.74 630.335 1984.4 629.062 Q1986.09 627.765 1986.09 625.127 Q1986.09 622.511 1984.4 621.215 Q1982.74 619.918 1979.31 619.918 L1972.39 619.918 M1967.71 616.076 L1979.66 616.076 Q1985 616.076 1987.9 618.298 Q1990.79 620.52 1990.79 624.617 Q1990.79 627.789 1989.31 629.664 Q1987.83 631.539 1984.96 632.002 Q1988.41 632.742 1990.31 635.103 Q1992.23 637.441 1992.23 640.96 Q1992.23 645.589 1989.08 648.113 Q1985.93 650.636 1980.12 650.636 L1967.71 650.636 L1967.71 616.076 Z" fill="#000000" fill-rule="nonzero" fill-opacity="1" /><path clip-path="url(#clip240)" d="M2004.91 619.918 L2004.91 646.793 L2010.56 646.793 Q2017.71 646.793 2021.02 643.552 Q2024.36 640.312 2024.36 633.321 Q2024.36 626.377 2021.02 623.159 Q2017.71 619.918 2010.56 619.918 L2004.91 619.918 M2000.24 616.076 L2009.84 616.076 Q2019.89 616.076 2024.59 620.266 Q2029.29 624.432 2029.29 633.321 Q2029.29 642.256 2024.56 646.446 Q2019.84 650.636 2009.84 650.636 L2000.24 650.636 L2000.24 616.076 Z" fill="#000000" fill-rule="nonzero" fill-opacity="1" /><path clip-path="url(#clip240)" d="M2036.74 616.076 L2056.6 616.076 L2056.6 620.011 L2041.42 620.011 L2041.42 630.196 L2055.12 630.196 L2055.12 634.131 L2041.42 634.131 L2041.42 650.636 L2036.74 650.636 L2036.74 616.076 Z" fill="#000000" fill-rule="nonzero" fill-opacity="1" /><polyline clip-path="url(#clip240)" style="stroke:#8e971d; stroke-linecap:round; stroke-linejoin:round; stroke-width:4; stroke-opacity:1; fill:none" stroke-dasharray="2, 4" points="1758.96,685.196 1904.2,685.196 "/>
<circle clip-path="url(#clip240)" cx="1831.58" cy="685.196" r="20.1723" fill="#8e971d" fill-rule="evenodd" fill-opacity="1" stroke="#000000" stroke-opacity="1" stroke-width="4.55111"/>
<path clip-path="url(#clip240)" d="M1944.43 671.087 Q1939.33 671.087 1936.32 674.883 Q1933.34 678.68 1933.34 685.23 Q1933.34 691.758 1936.32 695.554 Q1939.33 699.351 1944.43 699.351 Q1949.52 699.351 1952.48 695.554 Q1955.47 691.758 1955.47 685.23 Q1955.47 678.68 1952.48 674.883 Q1949.52 671.087 1944.43 671.087 M1950.98 701.851 L1957.13 708.587 L1951.49 708.587 L1946.37 703.054 Q1945.61 703.101 1945.19 703.124 Q1944.8 703.147 1944.43 703.147 Q1937.13 703.147 1932.76 698.286 Q1928.41 693.402 1928.41 685.23 Q1928.41 677.036 1932.76 672.175 Q1937.13 667.291 1944.43 667.291 Q1951.69 667.291 1956.05 672.175 Q1960.4 677.036 1960.4 685.23 Q1960.4 691.249 1957.97 695.531 Q1955.56 699.814 1950.98 701.851 Z" fill="#000000" fill-rule="nonzero" fill-opacity="1" /><path clip-path="url(#clip240)" d="M1972.39 685.971 L1972.39 698.633 L1979.89 698.633 Q1983.66 698.633 1985.47 697.082 Q1987.3 695.508 1987.3 692.291 Q1987.3 689.05 1985.47 687.522 Q1983.66 685.971 1979.89 685.971 L1972.39 685.971 M1972.39 671.758 L1972.39 682.175 L1979.31 682.175 Q1982.74 682.175 1984.4 680.902 Q1986.09 679.605 1986.09 676.967 Q1986.09 674.351 1984.4 673.055 Q1982.74 671.758 1979.31 671.758 L1972.39 671.758 M1967.71 667.916 L1979.66 667.916 Q1985 667.916 1987.9 670.138 Q1990.79 672.36 1990.79 676.457 Q1990.79 679.629 1989.31 681.504 Q1987.83 683.379 1984.96 683.842 Q1988.41 684.582 1990.31 686.943 Q1992.23 689.281 1992.23 692.8 Q1992.23 697.429 1989.08 699.953 Q1985.93 702.476 1980.12 702.476 L1967.71 702.476 L1967.71 667.916 Z" fill="#000000" fill-rule="nonzero" fill-opacity="1" /><path clip-path="url(#clip240)" d="M2004.91 671.758 L2004.91 698.633 L2010.56 698.633 Q2017.71 698.633 2021.02 695.392 Q2024.36 692.152 2024.36 685.161 Q2024.36 678.217 2021.02 674.999 Q2017.71 671.758 2010.56 671.758 L2004.91 671.758 M2000.24 667.916 L2009.84 667.916 Q2019.89 667.916 2024.59 672.106 Q2029.29 676.272 2029.29 685.161 Q2029.29 694.096 2024.56 698.286 Q2019.84 702.476 2009.84 702.476 L2000.24 702.476 L2000.24 667.916 Z" fill="#000000" fill-rule="nonzero" fill-opacity="1" /><path clip-path="url(#clip240)" d="M2036.74 667.916 L2056.6 667.916 L2056.6 671.851 L2041.42 671.851 L2041.42 682.036 L2055.12 682.036 L2055.12 685.971 L2041.42 685.971 L2041.42 702.476 L2036.74 702.476 L2036.74 667.916 Z" fill="#000000" fill-rule="nonzero" fill-opacity="1" /><path clip-path="url(#clip240)" d="M2083.52 710.346 L2083.52 713.656 L2058.89 713.656 L2058.89 710.346 L2083.52 710.346 Z" fill="#000000" fill-rule="nonzero" fill-opacity="1" /><path clip-path="url(#clip240)" d="M2087.53 676.55 L2091.79 676.55 L2091.79 702.939 Q2091.79 707.892 2089.89 710.115 Q2088.01 712.337 2083.82 712.337 L2082.2 712.337 L2082.2 708.726 L2083.34 708.726 Q2085.77 708.726 2086.65 707.591 Q2087.53 706.48 2087.53 702.939 L2087.53 676.55 M2087.53 666.457 L2091.79 666.457 L2091.79 671.851 L2087.53 671.851 L2087.53 666.457 Z" fill="#000000" fill-rule="nonzero" fill-opacity="1" /><path clip-path="url(#clip240)" d="M2112.48 689.443 Q2107.32 689.443 2105.33 690.624 Q2103.34 691.804 2103.34 694.652 Q2103.34 696.92 2104.82 698.263 Q2106.32 699.582 2108.89 699.582 Q2112.43 699.582 2114.56 697.082 Q2116.72 694.559 2116.72 690.392 L2116.72 689.443 L2112.48 689.443 M2120.98 687.684 L2120.98 702.476 L2116.72 702.476 L2116.72 698.541 Q2115.26 700.902 2113.08 702.036 Q2110.91 703.147 2107.76 703.147 Q2103.78 703.147 2101.42 700.925 Q2099.08 698.679 2099.08 694.929 Q2099.08 690.554 2101.99 688.332 Q2104.93 686.11 2110.74 686.11 L2116.72 686.11 L2116.72 685.693 Q2116.72 682.754 2114.77 681.156 Q2112.85 679.536 2109.36 679.536 Q2107.13 679.536 2105.03 680.068 Q2102.92 680.601 2100.98 681.666 L2100.98 677.73 Q2103.31 676.828 2105.51 676.388 Q2107.71 675.925 2109.8 675.925 Q2115.42 675.925 2118.2 678.842 Q2120.98 681.758 2120.98 687.684 Z" fill="#000000" fill-rule="nonzero" fill-opacity="1" /><path clip-path="url(#clip240)" d="M2148.41 677.545 L2148.41 681.527 Q2146.6 680.531 2144.77 680.045 Q2142.97 679.536 2141.11 679.536 Q2136.97 679.536 2134.68 682.175 Q2132.39 684.791 2132.39 689.536 Q2132.39 694.281 2134.68 696.92 Q2136.97 699.536 2141.11 699.536 Q2142.97 699.536 2144.77 699.05 Q2146.6 698.541 2148.41 697.545 L2148.41 701.48 Q2146.62 702.314 2144.7 702.73 Q2142.8 703.147 2140.65 703.147 Q2134.8 703.147 2131.35 699.466 Q2127.9 695.786 2127.9 689.536 Q2127.9 683.193 2131.37 679.559 Q2134.86 675.925 2140.93 675.925 Q2142.9 675.925 2144.77 676.342 Q2146.65 676.735 2148.41 677.545 Z" fill="#000000" fill-rule="nonzero" fill-opacity="1" /><polyline clip-path="url(#clip240)" style="stroke:#00a8cb; stroke-linecap:round; stroke-linejoin:round; stroke-width:4; stroke-opacity:1; fill:none" stroke-dasharray="2, 4" points="1758.96,737.036 1904.2,737.036 "/>
<circle clip-path="url(#clip240)" cx="1831.58" cy="737.036" r="20.1723" fill="#00a8cb" fill-rule="evenodd" fill-opacity="1" stroke="#000000" stroke-opacity="1" stroke-width="4.55111"/>
<path clip-path="url(#clip240)" d="M1944.43 722.927 Q1939.33 722.927 1936.32 726.723 Q1933.34 730.52 1933.34 737.07 Q1933.34 743.598 1936.32 747.394 Q1939.33 751.191 1944.43 751.191 Q1949.52 751.191 1952.48 747.394 Q1955.47 743.598 1955.47 737.07 Q1955.47 730.52 1952.48 726.723 Q1949.52 722.927 1944.43 722.927 M1950.98 753.691 L1957.13 760.427 L1951.49 760.427 L1946.37 754.894 Q1945.61 754.941 1945.19 754.964 Q1944.8 754.987 1944.43 754.987 Q1937.13 754.987 1932.76 750.126 Q1928.41 745.242 1928.41 737.07 Q1928.41 728.876 1932.76 724.015 Q1937.13 719.131 1944.43 719.131 Q1951.69 719.131 1956.05 724.015 Q1960.4 728.876 1960.4 737.07 Q1960.4 743.089 1957.97 747.371 Q1955.56 751.654 1950.98 753.691 Z" fill="#000000" fill-rule="nonzero" fill-opacity="1" /><path clip-path="url(#clip240)" d="M1972.39 737.811 L1972.39 750.473 L1979.89 750.473 Q1983.66 750.473 1985.47 748.922 Q1987.3 747.348 1987.3 744.131 Q1987.3 740.89 1985.47 739.362 Q1983.66 737.811 1979.89 737.811 L1972.39 737.811 M1972.39 723.598 L1972.39 734.015 L1979.31 734.015 Q1982.74 734.015 1984.4 732.742 Q1986.09 731.445 1986.09 728.807 Q1986.09 726.191 1984.4 724.895 Q1982.74 723.598 1979.31 723.598 L1972.39 723.598 M1967.71 719.756 L1979.66 719.756 Q1985 719.756 1987.9 721.978 Q1990.79 724.2 1990.79 728.297 Q1990.79 731.469 1989.31 733.344 Q1987.83 735.219 1984.96 735.682 Q1988.41 736.422 1990.31 738.783 Q1992.23 741.121 1992.23 744.64 Q1992.23 749.269 1989.08 751.793 Q1985.93 754.316 1980.12 754.316 L1967.71 754.316 L1967.71 719.756 Z" fill="#000000" fill-rule="nonzero" fill-opacity="1" /><path clip-path="url(#clip240)" d="M2004.91 723.598 L2004.91 750.473 L2010.56 750.473 Q2017.71 750.473 2021.02 747.232 Q2024.36 743.992 2024.36 737.001 Q2024.36 730.057 2021.02 726.839 Q2017.71 723.598 2010.56 723.598 L2004.91 723.598 M2000.24 719.756 L2009.84 719.756 Q2019.89 719.756 2024.59 723.946 Q2029.29 728.112 2029.29 737.001 Q2029.29 745.936 2024.56 750.126 Q2019.84 754.316 2009.84 754.316 L2000.24 754.316 L2000.24 719.756 Z" fill="#000000" fill-rule="nonzero" fill-opacity="1" /><path clip-path="url(#clip240)" d="M2036.74 719.756 L2056.6 719.756 L2056.6 723.691 L2041.42 723.691 L2041.42 733.876 L2055.12 733.876 L2055.12 737.811 L2041.42 737.811 L2041.42 754.316 L2036.74 754.316 L2036.74 719.756 Z" fill="#000000" fill-rule="nonzero" fill-opacity="1" /><path clip-path="url(#clip240)" d="M2083.52 762.186 L2083.52 765.496 L2058.89 765.496 L2058.89 762.186 L2083.52 762.186 Z" fill="#000000" fill-rule="nonzero" fill-opacity="1" /><path clip-path="url(#clip240)" d="M2091.65 750.427 L2091.65 764.177 L2087.37 764.177 L2087.37 728.39 L2091.65 728.39 L2091.65 732.325 Q2092.99 730.01 2095.03 728.899 Q2097.09 727.765 2099.93 727.765 Q2104.66 727.765 2107.6 731.515 Q2110.56 735.265 2110.56 741.376 Q2110.56 747.487 2107.6 751.237 Q2104.66 754.987 2099.93 754.987 Q2097.09 754.987 2095.03 753.876 Q2092.99 752.742 2091.65 750.427 M2106.14 741.376 Q2106.14 736.677 2104.19 734.015 Q2102.27 731.33 2098.89 731.33 Q2095.51 731.33 2093.57 734.015 Q2091.65 736.677 2091.65 741.376 Q2091.65 746.075 2093.57 748.76 Q2095.51 751.422 2098.89 751.422 Q2102.27 751.422 2104.19 748.76 Q2106.14 746.075 2106.14 741.376 Z" fill="#000000" fill-rule="nonzero" fill-opacity="1" /><path clip-path="url(#clip240)" d="M2132.64 732.371 Q2131.92 731.955 2131.07 731.77 Q2130.24 731.561 2129.22 731.561 Q2125.61 731.561 2123.66 733.922 Q2121.74 736.26 2121.74 740.658 L2121.74 754.316 L2117.46 754.316 L2117.46 728.39 L2121.74 728.39 L2121.74 732.418 Q2123.08 730.057 2125.24 728.922 Q2127.39 727.765 2130.47 727.765 Q2130.91 727.765 2131.44 727.834 Q2131.97 727.881 2132.62 727.996 L2132.64 732.371 Z" fill="#000000" fill-rule="nonzero" fill-opacity="1" /><path clip-path="url(#clip240)" d="M2158.24 740.288 L2158.24 742.371 L2138.66 742.371 Q2138.94 746.769 2141.3 749.084 Q2143.68 751.376 2147.92 751.376 Q2150.37 751.376 2152.67 750.774 Q2154.98 750.172 2157.25 748.969 L2157.25 752.996 Q2154.96 753.968 2152.55 754.478 Q2150.14 754.987 2147.67 754.987 Q2141.46 754.987 2137.83 751.376 Q2134.22 747.765 2134.22 741.607 Q2134.22 735.242 2137.64 731.515 Q2141.09 727.765 2146.92 727.765 Q2152.16 727.765 2155.19 731.145 Q2158.24 734.501 2158.24 740.288 M2153.99 739.038 Q2153.94 735.543 2152.02 733.459 Q2150.12 731.376 2146.97 731.376 Q2143.41 731.376 2141.25 733.39 Q2139.12 735.404 2138.8 739.061 L2153.99 739.038 Z" fill="#000000" fill-rule="nonzero" fill-opacity="1" /><path clip-path="url(#clip240)" d="M2183.89 729.385 L2183.89 733.367 Q2182.09 732.371 2180.26 731.885 Q2178.45 731.376 2176.6 731.376 Q2172.46 731.376 2170.17 734.015 Q2167.87 736.631 2167.87 741.376 Q2167.87 746.121 2170.17 748.76 Q2172.46 751.376 2176.6 751.376 Q2178.45 751.376 2180.26 750.89 Q2182.09 750.381 2183.89 749.385 L2183.89 753.32 Q2182.11 754.154 2180.19 754.57 Q2178.29 754.987 2176.14 754.987 Q2170.28 754.987 2166.83 751.306 Q2163.38 747.626 2163.38 741.376 Q2163.38 735.033 2166.86 731.399 Q2170.35 727.765 2176.42 727.765 Q2178.38 727.765 2180.26 728.182 Q2182.13 728.575 2183.89 729.385 Z" fill="#000000" fill-rule="nonzero" fill-opacity="1" /><polyline clip-path="url(#clip240)" style="stroke:#9b7fe8; stroke-linecap:round; stroke-linejoin:round; stroke-width:4; stroke-opacity:1; fill:none" stroke-dasharray="2, 4" points="1758.96,788.876 1904.2,788.876 "/>
<circle clip-path="url(#clip240)" cx="1831.58" cy="788.876" r="20.1723" fill="#9b7fe8" fill-rule="evenodd" fill-opacity="1" stroke="#000000" stroke-opacity="1" stroke-width="4.55111"/>
<path clip-path="url(#clip240)" d="M1944.43 774.767 Q1939.33 774.767 1936.32 778.563 Q1933.34 782.36 1933.34 788.91 Q1933.34 795.438 1936.32 799.234 Q1939.33 803.031 1944.43 803.031 Q1949.52 803.031 1952.48 799.234 Q1955.47 795.438 1955.47 788.91 Q1955.47 782.36 1952.48 778.563 Q1949.52 774.767 1944.43 774.767 M1950.98 805.531 L1957.13 812.267 L1951.49 812.267 L1946.37 806.734 Q1945.61 806.781 1945.19 806.804 Q1944.8 806.827 1944.43 806.827 Q1937.13 806.827 1932.76 801.966 Q1928.41 797.082 1928.41 788.91 Q1928.41 780.716 1932.76 775.855 Q1937.13 770.971 1944.43 770.971 Q1951.69 770.971 1956.05 775.855 Q1960.4 780.716 1960.4 788.91 Q1960.4 794.929 1957.97 799.211 Q1955.56 803.494 1950.98 805.531 Z" fill="#000000" fill-rule="nonzero" fill-opacity="1" /><path clip-path="url(#clip240)" d="M1972.39 789.651 L1972.39 802.313 L1979.89 802.313 Q1983.66 802.313 1985.47 800.762 Q1987.3 799.188 1987.3 795.971 Q1987.3 792.73 1985.47 791.202 Q1983.66 789.651 1979.89 789.651 L1972.39 789.651 M1972.39 775.438 L1972.39 785.855 L1979.31 785.855 Q1982.74 785.855 1984.4 784.582 Q1986.09 783.285 1986.09 780.647 Q1986.09 778.031 1984.4 776.735 Q1982.74 775.438 1979.31 775.438 L1972.39 775.438 M1967.71 771.596 L1979.66 771.596 Q1985 771.596 1987.9 773.818 Q1990.79 776.04 1990.79 780.137 Q1990.79 783.309 1989.31 785.184 Q1987.83 787.059 1984.96 787.522 Q1988.41 788.262 1990.31 790.623 Q1992.23 792.961 1992.23 796.48 Q1992.23 801.109 1989.08 803.633 Q1985.93 806.156 1980.12 806.156 L1967.71 806.156 L1967.71 771.596 Z" fill="#000000" fill-rule="nonzero" fill-opacity="1" /><path clip-path="url(#clip240)" d="M2004.91 775.438 L2004.91 802.313 L2010.56 802.313 Q2017.71 802.313 2021.02 799.072 Q2024.36 795.832 2024.36 788.841 Q2024.36 781.897 2021.02 778.679 Q2017.71 775.438 2010.56 775.438 L2004.91 775.438 M2000.24 771.596 L2009.84 771.596 Q2019.89 771.596 2024.59 775.786 Q2029.29 779.952 2029.29 788.841 Q2029.29 797.776 2024.56 801.966 Q2019.84 806.156 2009.84 806.156 L2000.24 806.156 L2000.24 771.596 Z" fill="#000000" fill-rule="nonzero" fill-opacity="1" /><path clip-path="url(#clip240)" d="M2036.74 771.596 L2056.6 771.596 L2056.6 775.531 L2041.42 775.531 L2041.42 785.716 L2055.12 785.716 L2055.12 789.651 L2041.42 789.651 L2041.42 806.156 L2036.74 806.156 L2036.74 771.596 Z" fill="#000000" fill-rule="nonzero" fill-opacity="1" /><path clip-path="url(#clip240)" d="M2083.52 814.026 L2083.52 817.336 L2058.89 817.336 L2058.89 814.026 L2083.52 814.026 Z" fill="#000000" fill-rule="nonzero" fill-opacity="1" /><path clip-path="url(#clip240)" d="M2091.65 802.267 L2091.65 816.017 L2087.37 816.017 L2087.37 780.23 L2091.65 780.23 L2091.65 784.165 Q2092.99 781.85 2095.03 780.739 Q2097.09 779.605 2099.93 779.605 Q2104.66 779.605 2107.6 783.355 Q2110.56 787.105 2110.56 793.216 Q2110.56 799.327 2107.6 803.077 Q2104.66 806.827 2099.93 806.827 Q2097.09 806.827 2095.03 805.716 Q2092.99 804.582 2091.65 802.267 M2106.14 793.216 Q2106.14 788.517 2104.19 785.855 Q2102.27 783.17 2098.89 783.17 Q2095.51 783.17 2093.57 785.855 Q2091.65 788.517 2091.65 793.216 Q2091.65 797.915 2093.57 800.6 Q2095.51 803.262 2098.89 803.262 Q2102.27 803.262 2104.19 800.6 Q2106.14 797.915 2106.14 793.216 Z" fill="#000000" fill-rule="nonzero" fill-opacity="1" /><path clip-path="url(#clip240)" d="M2132.64 784.211 Q2131.92 783.795 2131.07 783.61 Q2130.24 783.401 2129.22 783.401 Q2125.61 783.401 2123.66 785.762 Q2121.74 788.1 2121.74 792.498 L2121.74 806.156 L2117.46 806.156 L2117.46 780.23 L2121.74 780.23 L2121.74 784.258 Q2123.08 781.897 2125.24 780.762 Q2127.39 779.605 2130.47 779.605 Q2130.91 779.605 2131.44 779.674 Q2131.97 779.721 2132.62 779.836 L2132.64 784.211 Z" fill="#000000" fill-rule="nonzero" fill-opacity="1" /><path clip-path="url(#clip240)" d="M2158.24 792.128 L2158.24 794.211 L2138.66 794.211 Q2138.94 798.609 2141.3 800.924 Q2143.68 803.216 2147.92 803.216 Q2150.37 803.216 2152.67 802.614 Q2154.98 802.012 2157.25 800.809 L2157.25 804.836 Q2154.96 805.808 2152.55 806.318 Q2150.14 806.827 2147.67 806.827 Q2141.46 806.827 2137.83 803.216 Q2134.22 799.605 2134.22 793.447 Q2134.22 787.082 2137.64 783.355 Q2141.09 779.605 2146.92 779.605 Q2152.16 779.605 2155.19 782.985 Q2158.24 786.341 2158.24 792.128 M2153.99 790.878 Q2153.94 787.383 2152.02 785.299 Q2150.12 783.216 2146.97 783.216 Q2143.41 783.216 2141.25 785.23 Q2139.12 787.244 2138.8 790.901 L2153.99 790.878 Z" fill="#000000" fill-rule="nonzero" fill-opacity="1" /><path clip-path="url(#clip240)" d="M2183.89 781.225 L2183.89 785.207 Q2182.09 784.211 2180.26 783.725 Q2178.45 783.216 2176.6 783.216 Q2172.46 783.216 2170.17 785.855 Q2167.87 788.471 2167.87 793.216 Q2167.87 797.961 2170.17 800.6 Q2172.46 803.216 2176.6 803.216 Q2178.45 803.216 2180.26 802.73 Q2182.09 802.221 2183.89 801.225 L2183.89 805.16 Q2182.11 805.994 2180.19 806.41 Q2178.29 806.827 2176.14 806.827 Q2170.28 806.827 2166.83 803.146 Q2163.38 799.466 2163.38 793.216 Q2163.38 786.873 2166.86 783.239 Q2170.35 779.605 2176.42 779.605 Q2178.38 779.605 2180.26 780.022 Q2182.13 780.415 2183.89 781.225 Z" fill="#000000" fill-rule="nonzero" fill-opacity="1" /><path clip-path="url(#clip240)" d="M2191.48 771.596 L2196.16 771.596 L2196.16 803.748 Q2196.16 809.998 2193.78 812.822 Q2191.42 815.646 2186.16 815.646 L2184.38 815.646 L2184.38 811.711 L2185.84 811.711 Q2188.94 811.711 2190.21 809.975 Q2191.48 808.239 2191.48 803.748 L2191.48 771.596 Z" fill="#000000" fill-rule="nonzero" fill-opacity="1" /><path clip-path="url(#clip240)" d="M2217.06 793.123 Q2211.9 793.123 2209.91 794.304 Q2207.92 795.484 2207.92 798.332 Q2207.92 800.6 2209.4 801.943 Q2210.91 803.262 2213.48 803.262 Q2217.02 803.262 2219.15 800.762 Q2221.3 798.239 2221.3 794.072 L2221.3 793.123 L2217.06 793.123 M2225.56 791.364 L2225.56 806.156 L2221.3 806.156 L2221.3 802.221 Q2219.84 804.582 2217.67 805.716 Q2215.49 806.827 2212.34 806.827 Q2208.36 806.827 2206 804.605 Q2203.66 802.359 2203.66 798.609 Q2203.66 794.234 2206.58 792.012 Q2209.52 789.79 2215.33 789.79 L2221.3 789.79 L2221.3 789.373 Q2221.3 786.434 2219.36 784.836 Q2217.43 783.216 2213.94 783.216 Q2211.72 783.216 2209.61 783.748 Q2207.5 784.281 2205.56 785.346 L2205.56 781.41 Q2207.9 780.508 2210.1 780.068 Q2212.29 779.605 2214.38 779.605 Q2220 779.605 2222.78 782.522 Q2225.56 785.438 2225.56 791.364 Z" fill="#000000" fill-rule="nonzero" fill-opacity="1" /><path clip-path="url(#clip240)" d="M2252.99 781.225 L2252.99 785.207 Q2251.18 784.211 2249.35 783.725 Q2247.55 783.216 2245.7 783.216 Q2241.55 783.216 2239.26 785.855 Q2236.97 788.471 2236.97 793.216 Q2236.97 797.961 2239.26 800.6 Q2241.55 803.216 2245.7 803.216 Q2247.55 803.216 2249.35 802.73 Q2251.18 802.221 2252.99 801.225 L2252.99 805.16 Q2251.21 805.994 2249.29 806.41 Q2247.39 806.827 2245.23 806.827 Q2239.38 806.827 2235.93 803.146 Q2232.48 799.466 2232.48 793.216 Q2232.48 786.873 2235.95 783.239 Q2239.45 779.605 2245.51 779.605 Q2247.48 779.605 2249.35 780.022 Q2251.23 780.415 2252.99 781.225 Z" fill="#000000" fill-rule="nonzero" fill-opacity="1" /></svg>
