<?xml version="1.0" encoding="utf-8"?>
<svg xmlns="http://www.w3.org/2000/svg" xmlns:xlink="http://www.w3.org/1999/xlink" width="600" height="400" viewBox="0 0 2400 1600">
<defs>
  <clipPath id="clip370">
    <rect x="0" y="0" width="2400" height="1600"/>
  </clipPath>
</defs>
<path clip-path="url(#clip370)" d="M0 1600 L2400 1600 L2400 0 L0 0  Z" fill="#ffffff" fill-rule="evenodd" fill-opacity="1"/>
<defs>
  <clipPath id="clip371">
    <rect x="480" y="0" width="1681" height="1600"/>
  </clipPath>
</defs>
<path clip-path="url(#clip370)" d="M174.149 1423.18 L2352.76 1423.18 L2352.76 123.472 L174.149 123.472  Z" fill="#ffffff" fill-rule="evenodd" fill-opacity="1"/>
<defs>
  <clipPath id="clip372">
    <rect x="174" y="123" width="2180" height="1301"/>
  </clipPath>
</defs>
<polyline clip-path="url(#clip372)" style="stroke:#000000; stroke-linecap:round; stroke-linejoin:round; stroke-width:2; stroke-opacity:0.1; fill:none" points="555.519,1423.18 555.519,123.472 "/>
<polyline clip-path="url(#clip372)" style="stroke:#000000; stroke-linecap:round; stroke-linejoin:round; stroke-width:2; stroke-opacity:0.1; fill:none" points="1012.25,1423.18 1012.25,123.472 "/>
<polyline clip-path="url(#clip372)" style="stroke:#000000; stroke-linecap:round; stroke-linejoin:round; stroke-width:2; stroke-opacity:0.1; fill:none" points="1468.98,1423.18 1468.98,123.472 "/>
<polyline clip-path="url(#clip372)" style="stroke:#000000; stroke-linecap:round; stroke-linejoin:round; stroke-width:2; stroke-opacity:0.1; fill:none" points="1925.71,1423.18 1925.71,123.472 "/>
<polyline clip-path="url(#clip370)" style="stroke:#000000; stroke-linecap:round; stroke-linejoin:round; stroke-width:4; stroke-opacity:1; fill:none" points="174.149,1423.18 2352.76,1423.18 "/>
<polyline clip-path="url(#clip370)" style="stroke:#000000; stroke-linecap:round; stroke-linejoin:round; stroke-width:4; stroke-opacity:1; fill:none" points="555.519,1423.18 555.519,1404.28 "/>
<polyline clip-path="url(#clip370)" style="stroke:#000000; stroke-linecap:round; stroke-linejoin:round; stroke-width:4; stroke-opacity:1; fill:none" points="1012.25,1423.18 1012.25,1404.28 "/>
<polyline clip-path="url(#clip370)" style="stroke:#000000; stroke-linecap:round; stroke-linejoin:round; stroke-width:4; stroke-opacity:1; fill:none" points="1468.98,1423.18 1468.98,1404.28 "/>
<polyline clip-path="url(#clip370)" style="stroke:#000000; stroke-linecap:round; stroke-linejoin:round; stroke-width:4; stroke-opacity:1; fill:none" points="1925.71,1423.18 1925.71,1404.28 "/>
<path clip-path="url(#clip370)" d="M519.212 1481.64 L535.531 1481.64 L535.531 1485.58 L513.587 1485.58 L513.587 1481.64 Q516.249 1478.89 520.832 1474.26 Q525.438 1469.61 526.619 1468.27 Q528.864 1465.74 529.744 1464.01 Q530.647 1462.25 530.647 1460.56 Q530.647 1457.8 528.702 1456.07 Q526.781 1454.33 523.679 1454.33 Q521.48 1454.33 519.026 1455.09 Q516.596 1455.86 513.818 1457.41 L513.818 1452.69 Q516.642 1451.55 519.096 1450.97 Q521.55 1450.39 523.587 1450.39 Q528.957 1450.39 532.151 1453.08 Q535.346 1455.77 535.346 1460.26 Q535.346 1462.39 534.536 1464.31 Q533.749 1466.2 531.642 1468.8 Q531.063 1469.47 527.962 1472.69 Q524.86 1475.88 519.212 1481.64 Z" fill="#000000" fill-rule="nonzero" fill-opacity="1" /><path clip-path="url(#clip370)" d="M555.346 1454.1 Q551.735 1454.1 549.906 1457.66 Q548.1 1461.2 548.1 1468.33 Q548.1 1475.44 549.906 1479.01 Q551.735 1482.55 555.346 1482.55 Q558.98 1482.55 560.785 1479.01 Q562.614 1475.44 562.614 1468.33 Q562.614 1461.2 560.785 1457.66 Q558.98 1454.1 555.346 1454.1 M555.346 1450.39 Q561.156 1450.39 564.211 1455 Q567.29 1459.58 567.29 1468.33 Q567.29 1477.06 564.211 1481.67 Q561.156 1486.25 555.346 1486.25 Q549.536 1486.25 546.457 1481.67 Q543.401 1477.06 543.401 1468.33 Q543.401 1459.58 546.457 1455 Q549.536 1450.39 555.346 1450.39 Z" fill="#000000" fill-rule="nonzero" fill-opacity="1" /><path clip-path="url(#clip370)" d="M585.508 1454.1 Q581.896 1454.1 580.068 1457.66 Q578.262 1461.2 578.262 1468.33 Q578.262 1475.44 580.068 1479.01 Q581.896 1482.55 585.508 1482.55 Q589.142 1482.55 590.947 1479.01 Q592.776 1475.44 592.776 1468.33 Q592.776 1461.2 590.947 1457.66 Q589.142 1454.1 585.508 1454.1 M585.508 1450.39 Q591.318 1450.39 594.373 1455 Q597.452 1459.58 597.452 1468.33 Q597.452 1477.06 594.373 1481.67 Q591.318 1486.25 585.508 1486.25 Q579.697 1486.25 576.619 1481.67 Q573.563 1477.06 573.563 1468.33 Q573.563 1459.58 576.619 1455 Q579.697 1450.39 585.508 1450.39 Z" fill="#000000" fill-rule="nonzero" fill-opacity="1" /><path clip-path="url(#clip370)" d="M985.341 1455.09 L973.535 1473.54 L985.341 1473.54 L985.341 1455.09 M984.114 1451.02 L989.994 1451.02 L989.994 1473.54 L994.924 1473.54 L994.924 1477.43 L989.994 1477.43 L989.994 1485.58 L985.341 1485.58 L985.341 1477.43 L969.739 1477.43 L969.739 1472.92 L984.114 1451.02 Z" fill="#000000" fill-rule="nonzero" fill-opacity="1" /><path clip-path="url(#clip370)" d="M1012.66 1454.1 Q1009.04 1454.1 1007.22 1457.66 Q1005.41 1461.2 1005.41 1468.33 Q1005.41 1475.44 1007.22 1479.01 Q1009.04 1482.55 1012.66 1482.55 Q1016.29 1482.55 1018.1 1479.01 Q1019.92 1475.44 1019.92 1468.33 Q1019.92 1461.2 1018.1 1457.66 Q1016.29 1454.1 1012.66 1454.1 M1012.66 1450.39 Q1018.47 1450.39 1021.52 1455 Q1024.6 1459.58 1024.6 1468.33 Q1024.6 1477.06 1021.52 1481.67 Q1018.47 1486.25 1012.66 1486.25 Q1006.85 1486.25 1003.77 1481.67 Q1000.71 1477.06 1000.71 1468.33 Q1000.71 1459.58 1003.77 1455 Q1006.85 1450.39 1012.66 1450.39 Z" fill="#000000" fill-rule="nonzero" fill-opacity="1" /><path clip-path="url(#clip370)" d="M1042.82 1454.1 Q1039.21 1454.1 1037.38 1457.66 Q1035.57 1461.2 1035.57 1468.33 Q1035.57 1475.44 1037.38 1479.01 Q1039.21 1482.55 1042.82 1482.55 Q1046.45 1482.55 1048.26 1479.01 Q1050.09 1475.44 1050.09 1468.33 Q1050.09 1461.2 1048.26 1457.66 Q1046.45 1454.1 1042.82 1454.1 M1042.82 1450.39 Q1048.63 1450.39 1051.68 1455 Q1054.76 1459.58 1054.76 1468.33 Q1054.76 1477.06 1051.68 1481.67 Q1048.63 1486.25 1042.82 1486.25 Q1037.01 1486.25 1033.93 1481.67 Q1030.87 1477.06 1030.87 1468.33 Q1030.87 1459.58 1033.93 1455 Q1037.01 1450.39 1042.82 1450.39 Z" fill="#000000" fill-rule="nonzero" fill-opacity="1" /><path clip-path="url(#clip370)" d="M1439.31 1466.44 Q1436.16 1466.44 1434.31 1468.59 Q1432.48 1470.74 1432.48 1474.49 Q1432.48 1478.22 1434.31 1480.39 Q1436.16 1482.55 1439.31 1482.55 Q1442.45 1482.55 1444.28 1480.39 Q1446.13 1478.22 1446.13 1474.49 Q1446.13 1470.74 1444.28 1468.59 Q1442.45 1466.44 1439.31 1466.44 M1448.59 1451.78 L1448.59 1456.04 Q1446.83 1455.21 1445.02 1454.77 Q1443.24 1454.33 1441.48 1454.33 Q1436.85 1454.33 1434.4 1457.45 Q1431.97 1460.58 1431.62 1466.9 Q1432.99 1464.89 1435.05 1463.82 Q1437.11 1462.73 1439.58 1462.73 Q1444.79 1462.73 1447.8 1465.9 Q1450.83 1469.05 1450.83 1474.49 Q1450.83 1479.82 1447.69 1483.03 Q1444.54 1486.25 1439.31 1486.25 Q1433.31 1486.25 1430.14 1481.67 Q1426.97 1477.06 1426.97 1468.33 Q1426.97 1460.14 1430.86 1455.28 Q1434.75 1450.39 1441.3 1450.39 Q1443.06 1450.39 1444.84 1450.74 Q1446.64 1451.09 1448.59 1451.78 Z" fill="#000000" fill-rule="nonzero" fill-opacity="1" /><path clip-path="url(#clip370)" d="M1468.89 1454.1 Q1465.28 1454.1 1463.45 1457.66 Q1461.64 1461.2 1461.64 1468.33 Q1461.64 1475.44 1463.45 1479.01 Q1465.28 1482.55 1468.89 1482.55 Q1472.52 1482.55 1474.33 1479.01 Q1476.16 1475.44 1476.16 1468.33 Q1476.16 1461.2 1474.33 1457.66 Q1472.52 1454.1 1468.89 1454.1 M1468.89 1450.39 Q1474.7 1450.39 1477.75 1455 Q1480.83 1459.58 1480.83 1468.33 Q1480.83 1477.06 1477.75 1481.67 Q1474.7 1486.25 1468.89 1486.25 Q1463.08 1486.25 1460 1481.67 Q1456.94 1477.06 1456.94 1468.33 Q1456.94 1459.58 1460 1455 Q1463.08 1450.39 1468.89 1450.39 Z" fill="#000000" fill-rule="nonzero" fill-opacity="1" /><path clip-path="url(#clip370)" d="M1499.05 1454.1 Q1495.44 1454.1 1493.61 1457.66 Q1491.81 1461.2 1491.81 1468.33 Q1491.81 1475.44 1493.61 1479.01 Q1495.44 1482.55 1499.05 1482.55 Q1502.68 1482.55 1504.49 1479.01 Q1506.32 1475.44 1506.32 1468.33 Q1506.32 1461.2 1504.49 1457.66 Q1502.68 1454.1 1499.05 1454.1 M1499.05 1450.39 Q1504.86 1450.39 1507.92 1455 Q1511 1459.58 1511 1468.33 Q1511 1477.06 1507.92 1481.67 Q1504.86 1486.25 1499.05 1486.25 Q1493.24 1486.25 1490.16 1481.67 Q1487.11 1477.06 1487.11 1468.33 Q1487.11 1459.58 1490.16 1455 Q1493.24 1450.39 1499.05 1450.39 Z" fill="#000000" fill-rule="nonzero" fill-opacity="1" /><path clip-path="url(#clip370)" d="M1895.5 1469.17 Q1892.17 1469.17 1890.25 1470.95 Q1888.35 1472.73 1888.35 1475.86 Q1888.35 1478.98 1890.25 1480.77 Q1892.17 1482.55 1895.5 1482.55 Q1898.84 1482.55 1900.76 1480.77 Q1902.68 1478.96 1902.68 1475.86 Q1902.68 1472.73 1900.76 1470.95 Q1898.86 1469.17 1895.5 1469.17 M1890.83 1467.18 Q1887.82 1466.44 1886.13 1464.38 Q1884.46 1462.32 1884.46 1459.35 Q1884.46 1455.21 1887.4 1452.8 Q1890.37 1450.39 1895.5 1450.39 Q1900.67 1450.39 1903.61 1452.8 Q1906.55 1455.21 1906.55 1459.35 Q1906.55 1462.32 1904.86 1464.38 Q1903.19 1466.44 1900.2 1467.18 Q1903.58 1467.96 1905.46 1470.26 Q1907.36 1472.55 1907.36 1475.86 Q1907.36 1480.88 1904.28 1483.57 Q1901.22 1486.25 1895.5 1486.25 Q1889.79 1486.25 1886.71 1483.57 Q1883.65 1480.88 1883.65 1475.86 Q1883.65 1472.55 1885.55 1470.26 Q1887.45 1467.96 1890.83 1467.18 M1889.12 1459.79 Q1889.12 1462.48 1890.78 1463.98 Q1892.47 1465.49 1895.5 1465.49 Q1898.51 1465.49 1900.2 1463.98 Q1901.92 1462.48 1901.92 1459.79 Q1901.92 1457.11 1900.2 1455.6 Q1898.51 1454.1 1895.5 1454.1 Q1892.47 1454.1 1890.78 1455.6 Q1889.12 1457.11 1889.12 1459.79 Z" fill="#000000" fill-rule="nonzero" fill-opacity="1" /><path clip-path="url(#clip370)" d="M1925.67 1454.1 Q1922.06 1454.1 1920.23 1457.66 Q1918.42 1461.2 1918.42 1468.33 Q1918.42 1475.44 1920.23 1479.01 Q1922.06 1482.55 1925.67 1482.55 Q1929.3 1482.55 1931.11 1479.01 Q1932.93 1475.44 1932.93 1468.33 Q1932.93 1461.2 1931.11 1457.66 Q1929.3 1454.1 1925.67 1454.1 M1925.67 1450.39 Q1931.48 1450.39 1934.53 1455 Q1937.61 1459.58 1937.61 1468.33 Q1937.61 1477.06 1934.53 1481.67 Q1931.48 1486.25 1925.67 1486.25 Q1919.86 1486.25 1916.78 1481.67 Q1913.72 1477.06 1913.72 1468.33 Q1913.72 1459.58 1916.78 1455 Q1919.86 1450.39 1925.67 1450.39 Z" fill="#000000" fill-rule="nonzero" fill-opacity="1" /><path clip-path="url(#clip370)" d="M1955.83 1454.1 Q1952.22 1454.1 1950.39 1457.66 Q1948.58 1461.2 1948.58 1468.33 Q1948.58 1475.44 1950.39 1479.01 Q1952.22 1482.55 1955.83 1482.55 Q1959.46 1482.55 1961.27 1479.01 Q1963.1 1475.44 1963.1 1468.33 Q1963.1 1461.2 1961.27 1457.66 Q1959.46 1454.1 1955.83 1454.1 M1955.83 1450.39 Q1961.64 1450.39 1964.69 1455 Q1967.77 1459.58 1967.77 1468.33 Q1967.77 1477.06 1964.69 1481.67 Q1961.64 1486.25 1955.83 1486.25 Q1950.02 1486.25 1946.94 1481.67 Q1943.88 1477.06 1943.88 1468.33 Q1943.88 1459.58 1946.94 1455 Q1950.02 1450.39 1955.83 1450.39 Z" fill="#000000" fill-rule="nonzero" fill-opacity="1" /><path clip-path="url(#clip370)" d="M1205.48 1525.81 L1205.48 1562.76 L1213.24 1562.76 Q1223.08 1562.76 1227.63 1558.3 Q1232.21 1553.85 1232.21 1544.24 Q1232.21 1534.69 1227.63 1530.26 Q1223.08 1525.81 1213.24 1525.81 L1205.48 1525.81 M1199.05 1520.52 L1212.26 1520.52 Q1226.07 1520.52 1232.53 1526.28 Q1238.99 1532.01 1238.99 1544.24 Q1238.99 1556.52 1232.5 1562.28 Q1226.01 1568.04 1212.26 1568.04 L1199.05 1568.04 L1199.05 1520.52 Z" fill="#000000" fill-rule="nonzero" fill-opacity="1" /><path clip-path="url(#clip370)" d="M1268.53 1524.88 Q1261.53 1524.88 1257.39 1530.1 Q1253.28 1535.32 1253.28 1544.33 Q1253.28 1553.31 1257.39 1558.53 Q1261.53 1563.75 1268.53 1563.75 Q1275.53 1563.75 1279.61 1558.53 Q1283.71 1553.31 1283.71 1544.33 Q1283.71 1535.32 1279.61 1530.1 Q1275.53 1524.88 1268.53 1524.88 M1268.53 1519.66 Q1278.52 1519.66 1284.51 1526.38 Q1290.49 1533.06 1290.49 1544.33 Q1290.49 1555.57 1284.51 1562.28 Q1278.52 1568.97 1268.53 1568.97 Q1258.5 1568.97 1252.49 1562.28 Q1246.5 1555.6 1246.5 1544.33 Q1246.5 1533.06 1252.49 1526.38 Q1258.5 1519.66 1268.53 1519.66 Z" fill="#000000" fill-rule="nonzero" fill-opacity="1" /><path clip-path="url(#clip370)" d="M1300.55 1520.52 L1327.86 1520.52 L1327.86 1525.93 L1306.98 1525.93 L1306.98 1539.94 L1325.82 1539.94 L1325.82 1545.35 L1306.98 1545.35 L1306.98 1568.04 L1300.55 1568.04 L1300.55 1520.52 Z" fill="#000000" fill-rule="nonzero" fill-opacity="1" /><polyline clip-path="url(#clip372)" style="stroke:#000000; stroke-linecap:round; stroke-linejoin:round; stroke-width:2; stroke-opacity:0.1; fill:none" points="174.149,1405.67 2352.76,1405.67 "/>
<polyline clip-path="url(#clip372)" style="stroke:#000000; stroke-linecap:round; stroke-linejoin:round; stroke-width:2; stroke-opacity:0.1; fill:none" points="174.149,983.605 2352.76,983.605 "/>
<polyline clip-path="url(#clip372)" style="stroke:#000000; stroke-linecap:round; stroke-linejoin:round; stroke-width:2; stroke-opacity:0.1; fill:none" points="174.149,561.538 2352.76,561.538 "/>
<polyline clip-path="url(#clip372)" style="stroke:#000000; stroke-linecap:round; stroke-linejoin:round; stroke-width:2; stroke-opacity:0.1; fill:none" points="174.149,139.471 2352.76,139.471 "/>
<polyline clip-path="url(#clip370)" style="stroke:#000000; stroke-linecap:round; stroke-linejoin:round; stroke-width:4; stroke-opacity:1; fill:none" points="174.149,1423.18 174.149,123.472 "/>
<polyline clip-path="url(#clip370)" style="stroke:#000000; stroke-linecap:round; stroke-linejoin:round; stroke-width:4; stroke-opacity:1; fill:none" points="174.149,1405.67 193.047,1405.67 "/>
<polyline clip-path="url(#clip370)" style="stroke:#000000; stroke-linecap:round; stroke-linejoin:round; stroke-width:4; stroke-opacity:1; fill:none" points="174.149,983.605 193.047,983.605 "/>
<polyline clip-path="url(#clip370)" style="stroke:#000000; stroke-linecap:round; stroke-linejoin:round; stroke-width:4; stroke-opacity:1; fill:none" points="174.149,561.538 193.047,561.538 "/>
<polyline clip-path="url(#clip370)" style="stroke:#000000; stroke-linecap:round; stroke-linejoin:round; stroke-width:4; stroke-opacity:1; fill:none" points="174.149,139.471 193.047,139.471 "/>
<path clip-path="url(#clip370)" d="M126.205 1391.47 Q122.593 1391.47 120.765 1395.03 Q118.959 1398.58 118.959 1405.71 Q118.959 1412.81 120.765 1416.38 Q122.593 1419.92 126.205 1419.92 Q129.839 1419.92 131.644 1416.38 Q133.473 1412.81 133.473 1405.71 Q133.473 1398.58 131.644 1395.03 Q129.839 1391.47 126.205 1391.47 M126.205 1387.77 Q132.015 1387.77 135.07 1392.37 Q138.149 1396.96 138.149 1405.71 Q138.149 1414.43 135.07 1419.04 Q132.015 1423.62 126.205 1423.62 Q120.394 1423.62 117.316 1419.04 Q114.26 1414.43 114.26 1405.71 Q114.26 1396.96 117.316 1392.37 Q120.394 1387.77 126.205 1387.77 Z" fill="#000000" fill-rule="nonzero" fill-opacity="1" /><path clip-path="url(#clip370)" d="M118.242 996.949 L125.88 996.949 L125.88 970.584 L117.57 972.25 L117.57 967.991 L125.834 966.325 L130.51 966.325 L130.51 996.949 L138.149 996.949 L138.149 1000.88 L118.242 1000.88 L118.242 996.949 Z" fill="#000000" fill-rule="nonzero" fill-opacity="1" /><path clip-path="url(#clip370)" d="M121.83 574.883 L138.149 574.883 L138.149 578.818 L116.205 578.818 L116.205 574.883 Q118.867 572.128 123.45 567.499 Q128.056 562.846 129.237 561.503 Q131.482 558.98 132.362 557.244 Q133.265 555.485 133.265 553.795 Q133.265 551.04 131.32 549.304 Q129.399 547.568 126.297 547.568 Q124.098 547.568 121.644 548.332 Q119.214 549.096 116.436 550.647 L116.436 545.925 Q119.26 544.79 121.714 544.212 Q124.168 543.633 126.205 543.633 Q131.575 543.633 134.769 546.318 Q137.964 549.003 137.964 553.494 Q137.964 555.624 137.154 557.545 Q136.367 559.443 134.26 562.036 Q133.681 562.707 130.58 565.925 Q127.478 569.119 121.83 574.883 Z" fill="#000000" fill-rule="nonzero" fill-opacity="1" /><path clip-path="url(#clip370)" d="M131.019 138.117 Q134.376 138.835 136.251 141.103 Q138.149 143.372 138.149 146.705 Q138.149 151.821 134.63 154.622 Q131.112 157.423 124.63 157.423 Q122.455 157.423 120.14 156.983 Q117.848 156.566 115.394 155.71 L115.394 151.196 Q117.339 152.33 119.654 152.909 Q121.968 153.488 124.492 153.488 Q128.89 153.488 131.181 151.751 Q133.496 150.015 133.496 146.705 Q133.496 143.65 131.343 141.937 Q129.214 140.201 125.394 140.201 L121.367 140.201 L121.367 136.358 L125.58 136.358 Q129.029 136.358 130.857 134.992 Q132.686 133.603 132.686 131.011 Q132.686 128.349 130.788 126.937 Q128.913 125.502 125.394 125.502 Q123.473 125.502 121.274 125.918 Q119.075 126.335 116.436 127.215 L116.436 123.048 Q119.098 122.307 121.413 121.937 Q123.751 121.566 125.811 121.566 Q131.135 121.566 134.237 123.997 Q137.339 126.404 137.339 130.525 Q137.339 133.395 135.695 135.386 Q134.052 137.353 131.019 138.117 Z" fill="#000000" fill-rule="nonzero" fill-opacity="1" /><path clip-path="url(#clip370)" d="M41.7242 933.694 Q42.4244 931.625 44.7161 929.684 Q47.0077 927.71 51.0181 925.737 L64.0042 919.212 L64.0042 926.119 L51.8138 932.198 Q47.0395 934.553 45.48 936.781 Q43.9204 938.978 43.9204 942.797 L43.9204 949.799 L64.0042 949.799 L64.0042 956.229 L16.4842 956.229 L16.4842 941.715 Q16.4842 933.567 19.8898 929.556 Q23.2955 925.546 30.1704 925.546 Q34.6582 925.546 37.6183 927.647 Q40.5784 929.715 41.7242 933.694 M21.7677 949.799 L38.6368 949.799 L38.6368 941.715 Q38.6368 937.068 36.5043 934.713 Q34.34 932.325 30.1704 932.325 Q26.0009 932.325 23.9002 934.713 Q21.7677 937.068 21.7677 941.715 L21.7677 949.799 Z" fill="#000000" fill-rule="nonzero" fill-opacity="1" /><path clip-path="url(#clip370)" d="M49.9359 914.724 L28.3562 914.724 L28.3562 908.868 L49.7131 908.868 Q54.7739 908.868 57.3202 906.894 Q59.8346 904.921 59.8346 900.974 Q59.8346 896.232 56.8109 893.495 Q53.7872 890.726 48.5673 890.726 L28.3562 890.726 L28.3562 884.869 L64.0042 884.869 L64.0042 890.726 L58.5296 890.726 Q61.7762 892.858 63.3676 895.691 Q64.9272 898.492 64.9272 902.216 Q64.9272 908.359 61.1078 911.541 Q57.2883 914.724 49.9359 914.724 M27.4968 899.988 L27.4968 899.988 Z" fill="#000000" fill-rule="nonzero" fill-opacity="1" /><path clip-path="url(#clip370)" d="M42.4881 843.174 L64.0042 843.174 L64.0042 849.03 L42.679 849.03 Q37.6183 849.03 35.1038 851.004 Q32.5894 852.977 32.5894 856.924 Q32.5894 861.666 35.6131 864.403 Q38.6368 867.141 43.8567 867.141 L64.0042 867.141 L64.0042 873.029 L28.3562 873.029 L28.3562 867.141 L33.8944 867.141 Q30.6797 865.04 29.0883 862.207 Q27.4968 859.343 27.4968 855.619 Q27.4968 849.476 31.3163 846.325 Q35.1038 843.174 42.4881 843.174 Z" fill="#000000" fill-rule="nonzero" fill-opacity="1" /><path clip-path="url(#clip370)" d="M18.2347 825.7 L28.3562 825.7 L28.3562 813.637 L32.9077 813.637 L32.9077 825.7 L52.2594 825.7 Q56.6199 825.7 57.8613 824.522 Q59.1026 823.313 59.1026 819.652 L59.1026 813.637 L64.0042 813.637 L64.0042 819.652 Q64.0042 826.432 61.4897 829.01 Q58.9434 831.588 52.2594 831.588 L32.9077 831.588 L32.9077 835.885 L28.3562 835.885 L28.3562 831.588 L18.2347 831.588 L18.2347 825.7 Z" fill="#000000" fill-rule="nonzero" fill-opacity="1" /><path clip-path="url(#clip370)" d="M28.3562 805.934 L28.3562 800.078 L64.0042 800.078 L64.0042 805.934 L28.3562 805.934 M14.479 805.934 L14.479 800.078 L21.895 800.078 L21.895 805.934 L14.479 805.934 Z" fill="#000000" fill-rule="nonzero" fill-opacity="1" /><path clip-path="url(#clip370)" d="M35.1993 760.069 Q31.2526 757.873 29.3747 754.818 Q27.4968 751.762 27.4968 747.624 Q27.4968 742.054 31.4117 739.031 Q35.2948 736.007 42.4881 736.007 L64.0042 736.007 L64.0042 741.895 L42.679 741.895 Q37.5546 741.895 35.072 743.71 Q32.5894 745.524 32.5894 749.248 Q32.5894 753.799 35.6131 756.441 Q38.6368 759.083 43.8567 759.083 L64.0042 759.083 L64.0042 764.971 L42.679 764.971 Q37.5228 764.971 35.072 766.785 Q32.5894 768.599 32.5894 772.387 Q32.5894 776.875 35.6449 779.517 Q38.6686 782.158 43.8567 782.158 L64.0042 782.158 L64.0042 788.047 L28.3562 788.047 L28.3562 782.158 L33.8944 782.158 Q30.616 780.153 29.0564 777.352 Q27.4968 774.551 27.4968 770.7 Q27.4968 766.817 29.4702 764.112 Q31.4436 761.374 35.1993 760.069 Z" fill="#000000" fill-rule="nonzero" fill-opacity="1" /><path clip-path="url(#clip370)" d="M44.7161 693.834 L47.5806 693.834 L47.5806 720.761 Q53.6281 720.379 56.8109 717.133 Q59.9619 713.854 59.9619 708.03 Q59.9619 704.656 59.1344 701.505 Q58.3069 698.322 56.6518 695.203 L62.1899 695.203 Q63.5267 698.354 64.227 701.664 Q64.9272 704.974 64.9272 708.38 Q64.9272 716.91 59.9619 721.907 Q54.9967 726.872 46.5303 726.872 Q37.7774 726.872 32.6531 722.162 Q27.4968 717.419 27.4968 709.398 Q27.4968 702.205 32.1438 698.036 Q36.7589 693.834 44.7161 693.834 M42.9973 699.691 Q38.1912 699.754 35.3266 702.396 Q32.4621 705.006 32.4621 709.335 Q32.4621 714.236 35.2312 717.196 Q38.0002 720.125 43.0292 720.57 L42.9973 699.691 Z" fill="#000000" fill-rule="nonzero" fill-opacity="1" /><path clip-path="url(#clip370)" d="M14.5426 649.433 Q21.8632 653.698 29.0246 655.767 Q36.186 657.836 43.5384 657.836 Q50.8908 657.836 58.1159 655.767 Q65.3091 653.667 72.5979 649.433 L72.5979 654.526 Q65.1182 659.3 57.8931 661.687 Q50.668 664.043 43.5384 664.043 Q36.4406 664.043 29.2474 661.687 Q22.0542 659.332 14.5426 654.526 L14.5426 649.433 Z" fill="#000000" fill-rule="nonzero" fill-opacity="1" /><path clip-path="url(#clip370)" d="M29.4065 615.345 L34.9447 615.345 Q33.6716 617.828 33.035 620.501 Q32.3984 623.175 32.3984 626.039 Q32.3984 630.4 33.7352 632.596 Q35.072 634.76 37.7456 634.76 Q39.7826 634.76 40.9603 633.201 Q42.1061 631.641 43.1565 626.931 L43.6021 624.925 Q44.9389 618.687 47.3897 616.077 Q49.8086 613.435 54.1691 613.435 Q59.1344 613.435 62.0308 617.382 Q64.9272 621.297 64.9272 628.172 Q64.9272 631.037 64.3543 634.156 Q63.8132 637.243 62.6992 640.681 L56.6518 640.681 Q58.3387 637.434 59.198 634.283 Q60.0256 631.132 60.0256 628.045 Q60.0256 623.907 58.6251 621.679 Q57.1929 619.451 54.6147 619.451 Q52.2276 619.451 50.9545 621.074 Q49.6813 622.666 48.5037 628.108 L48.0262 630.145 Q46.8804 635.588 44.5251 638.007 Q42.138 640.426 38.0002 640.426 Q32.9713 640.426 30.2341 636.861 Q27.4968 633.296 27.4968 626.74 Q27.4968 623.493 27.9743 620.629 Q28.4517 617.764 29.4065 615.345 Z" fill="#000000" fill-rule="nonzero" fill-opacity="1" /><path clip-path="url(#clip370)" d="M14.5426 605.033 L14.5426 599.94 Q22.0542 595.166 29.2474 592.81 Q36.4406 590.423 43.5384 590.423 Q50.668 590.423 57.8931 592.81 Q65.1182 595.166 72.5979 599.94 L72.5979 605.033 Q65.3091 600.799 58.1159 598.731 Q50.8908 596.63 43.5384 596.63 Q36.186 596.63 29.0246 598.731 Q21.8632 600.799 14.5426 605.033 Z" fill="#000000" fill-rule="nonzero" fill-opacity="1" /><path clip-path="url(#clip370)" d="M1125.15 44.2197 Q1127.79 45.1109 1130.26 48.0275 Q1132.77 50.9442 1135.28 56.0483 L1143.59 72.576 L1134.8 72.576 L1127.06 57.061 Q1124.06 50.9847 1121.23 48.9997 Q1118.43 47.0148 1113.57 47.0148 L1104.66 47.0148 L1104.66 72.576 L1096.47 72.576 L1096.47 12.096 L1114.95 12.096 Q1125.32 12.096 1130.42 16.4305 Q1135.52 20.7649 1135.52 29.5149 Q1135.52 35.2267 1132.85 38.994 Q1130.22 42.7613 1125.15 44.2197 M1104.66 18.8205 L1104.66 40.2903 L1114.95 40.2903 Q1120.86 40.2903 1123.86 37.5762 Q1126.9 34.8216 1126.9 29.5149 Q1126.9 24.2082 1123.86 21.5346 Q1120.86 18.8205 1114.95 18.8205 L1104.66 18.8205 Z" fill="#000000" fill-rule="nonzero" fill-opacity="1" /><path clip-path="url(#clip370)" d="M1149.3 54.671 L1149.3 27.2059 L1156.75 27.2059 L1156.75 54.3874 Q1156.75 60.8284 1159.26 64.0691 Q1161.77 67.2693 1166.8 67.2693 Q1172.83 67.2693 1176.32 63.421 Q1179.84 59.5726 1179.84 52.9291 L1179.84 27.2059 L1187.3 27.2059 L1187.3 72.576 L1179.84 72.576 L1179.84 65.6084 Q1177.13 69.7404 1173.52 71.7658 Q1169.96 73.7508 1165.22 73.7508 Q1157.4 73.7508 1153.35 68.8897 Q1149.3 64.0286 1149.3 54.671 M1168.05 26.1121 L1168.05 26.1121 Z" fill="#000000" fill-rule="nonzero" fill-opacity="1" /><path clip-path="url(#clip370)" d="M1240.36 45.1919 L1240.36 72.576 L1232.91 72.576 L1232.91 45.4349 Q1232.91 38.994 1230.4 35.7938 Q1227.89 32.5936 1222.86 32.5936 Q1216.83 32.5936 1213.34 36.4419 Q1209.86 40.2903 1209.86 46.9338 L1209.86 72.576 L1202.36 72.576 L1202.36 27.2059 L1209.86 27.2059 L1209.86 34.2544 Q1212.53 30.163 1216.14 28.1376 Q1219.78 26.1121 1224.52 26.1121 Q1232.34 26.1121 1236.35 30.9732 Q1240.36 35.7938 1240.36 45.1919 Z" fill="#000000" fill-rule="nonzero" fill-opacity="1" /><path clip-path="url(#clip370)" d="M1262.6 14.324 L1262.6 27.2059 L1277.95 27.2059 L1277.95 32.9987 L1262.6 32.9987 L1262.6 57.6282 Q1262.6 63.1779 1264.1 64.7578 Q1265.64 66.3376 1270.3 66.3376 L1277.95 66.3376 L1277.95 72.576 L1270.3 72.576 Q1261.67 72.576 1258.39 69.3758 Q1255.11 66.1351 1255.11 57.6282 L1255.11 32.9987 L1249.64 32.9987 L1249.64 27.2059 L1255.11 27.2059 L1255.11 14.324 L1262.6 14.324 Z" fill="#000000" fill-rule="nonzero" fill-opacity="1" /><path clip-path="url(#clip370)" d="M1287.76 27.2059 L1295.21 27.2059 L1295.21 72.576 L1287.76 72.576 L1287.76 27.2059 M1287.76 9.54393 L1295.21 9.54393 L1295.21 18.9825 L1287.76 18.9825 L1287.76 9.54393 Z" fill="#000000" fill-rule="nonzero" fill-opacity="1" /><path clip-path="url(#clip370)" d="M1346.13 35.9153 Q1348.93 30.8922 1352.82 28.5022 Q1356.7 26.1121 1361.97 26.1121 Q1369.06 26.1121 1372.91 31.0947 Q1376.76 36.0368 1376.76 45.1919 L1376.76 72.576 L1369.26 72.576 L1369.26 45.4349 Q1369.26 38.913 1366.95 35.7533 Q1364.64 32.5936 1359.9 32.5936 Q1354.11 32.5936 1350.75 36.4419 Q1347.39 40.2903 1347.39 46.9338 L1347.39 72.576 L1339.89 72.576 L1339.89 45.4349 Q1339.89 38.8725 1337.58 35.7533 Q1335.27 32.5936 1330.45 32.5936 Q1324.74 32.5936 1321.38 36.4824 Q1318.02 40.3308 1318.02 46.9338 L1318.02 72.576 L1310.52 72.576 L1310.52 27.2059 L1318.02 27.2059 L1318.02 34.2544 Q1320.57 30.082 1324.13 28.0971 Q1327.7 26.1121 1332.6 26.1121 Q1337.54 26.1121 1340.99 28.6237 Q1344.47 31.1352 1346.13 35.9153 Z" fill="#000000" fill-rule="nonzero" fill-opacity="1" /><path clip-path="url(#clip370)" d="M1430.43 48.0275 L1430.43 51.6733 L1396.16 51.6733 Q1396.65 59.3701 1400.78 63.421 Q1404.95 67.4314 1412.36 67.4314 Q1416.66 67.4314 1420.67 66.3781 Q1424.72 65.3249 1428.69 63.2184 L1428.69 70.267 Q1424.68 71.9684 1420.47 72.8596 Q1416.25 73.7508 1411.92 73.7508 Q1401.06 73.7508 1394.7 67.4314 Q1388.38 61.1119 1388.38 50.3365 Q1388.38 39.1965 1394.38 32.6746 Q1400.41 26.1121 1410.62 26.1121 Q1419.78 26.1121 1425.08 32.0264 Q1430.43 37.9003 1430.43 48.0275 M1422.98 45.84 Q1422.9 39.7232 1419.53 36.0774 Q1416.21 32.4315 1410.7 32.4315 Q1404.46 32.4315 1400.7 35.9558 Q1396.97 39.4801 1396.4 45.8805 L1422.98 45.84 Z" fill="#000000" fill-rule="nonzero" fill-opacity="1" /><polyline clip-path="url(#clip372)" style="stroke:#009af9; stroke-linecap:round; stroke-linejoin:round; stroke-width:4; stroke-opacity:1; fill:none" stroke-dasharray="2, 4" points="235.808,1365.89 372.827,1299.19 646.866,1127.89 1194.94,834.07 2291.1,160.256 "/>
<circle clip-path="url(#clip372)" cx="235.808" cy="1365.89" r="14.4" fill="#009af9" fill-rule="evenodd" fill-opacity="1" stroke="#000000" stroke-opacity="1" stroke-width="3.2"/>
<circle clip-path="url(#clip372)" cx="372.827" cy="1299.19" r="14.4" fill="#009af9" fill-rule="evenodd" fill-opacity="1" stroke="#000000" stroke-opacity="1" stroke-width="3.2"/>
<circle clip-path="url(#clip372)" cx="646.866" cy="1127.89" r="14.4" fill="#009af9" fill-rule="evenodd" fill-opacity="1" stroke="#000000" stroke-opacity="1" stroke-width="3.2"/>
<circle clip-path="url(#clip372)" cx="1194.94" cy="834.07" r="14.4" fill="#009af9" fill-rule="evenodd" fill-opacity="1" stroke="#000000" stroke-opacity="1" stroke-width="3.2"/>
<circle clip-path="url(#clip372)" cx="2291.1" cy="160.256" r="14.4" fill="#009af9" fill-rule="evenodd" fill-opacity="1" stroke="#000000" stroke-opacity="1" stroke-width="3.2"/>
<polyline clip-path="url(#clip372)" style="stroke:#e26f46; stroke-linecap:round; stroke-linejoin:round; stroke-width:4; stroke-opacity:1; fill:none" stroke-dasharray="2, 4" points="235.808,1366.25 372.827,1304.34 646.866,1120.48 1194.94,865.775 2291.1,230.577 "/>
<circle clip-path="url(#clip372)" cx="235.808" cy="1366.25" r="14.4" fill="#e26f46" fill-rule="evenodd" fill-opacity="1" stroke="#000000" stroke-opacity="1" stroke-width="3.2"/>
<circle clip-path="url(#clip372)" cx="372.827" cy="1304.34" r="14.4" fill="#e26f46" fill-rule="evenodd" fill-opacity="1" stroke="#000000" stroke-opacity="1" stroke-width="3.2"/>
<circle clip-path="url(#clip372)" cx="646.866" cy="1120.48" r="14.4" fill="#e26f46" fill-rule="evenodd" fill-opacity="1" stroke="#000000" stroke-opacity="1" stroke-width="3.2"/>
<circle clip-path="url(#clip372)" cx="1194.94" cy="865.775" r="14.4" fill="#e26f46" fill-rule="evenodd" fill-opacity="1" stroke="#000000" stroke-opacity="1" stroke-width="3.2"/>
<circle clip-path="url(#clip372)" cx="2291.1" cy="230.577" r="14.4" fill="#e26f46" fill-rule="evenodd" fill-opacity="1" stroke="#000000" stroke-opacity="1" stroke-width="3.2"/>
<polyline clip-path="url(#clip372)" style="stroke:#3da44d; stroke-linecap:round; stroke-linejoin:round; stroke-width:4; stroke-opacity:1; fill:none" stroke-dasharray="2, 4" points="235.808,1354.11 372.827,1294.15 646.866,1127.19 1194.94,854.846 2291.1,320.146 "/>
<circle clip-path="url(#clip372)" cx="235.808" cy="1354.11" r="14.4" fill="#3da44d" fill-rule="evenodd" fill-opacity="1" stroke="#000000" stroke-opacity="1" stroke-width="3.2"/>
<circle clip-path="url(#clip372)" cx="372.827" cy="1294.15" r="14.4" fill="#3da44d" fill-rule="evenodd" fill-opacity="1" stroke="#000000" stroke-opacity="1" stroke-width="3.2"/>
<circle clip-path="url(#clip372)" cx="646.866" cy="1127.19" r="14.4" fill="#3da44d" fill-rule="evenodd" fill-opacity="1" stroke="#000000" stroke-opacity="1" stroke-width="3.2"/>
<circle clip-path="url(#clip372)" cx="1194.94" cy="854.846" r="14.4" fill="#3da44d" fill-rule="evenodd" fill-opacity="1" stroke="#000000" stroke-opacity="1" stroke-width="3.2"/>
<circle clip-path="url(#clip372)" cx="2291.1" cy="320.146" r="14.4" fill="#3da44d" fill-rule="evenodd" fill-opacity="1" stroke="#000000" stroke-opacity="1" stroke-width="3.2"/>
<polyline clip-path="url(#clip372)" style="stroke:#c271d2; stroke-linecap:round; stroke-linejoin:round; stroke-width:4; stroke-opacity:1; fill:none" stroke-dasharray="2, 4" points="235.808,1363.25 372.827,1286.87 646.866,1139.25 1194.94,844.857 2291.1,327.834 "/>
<circle clip-path="url(#clip372)" cx="235.808" cy="1363.25" r="14.4" fill="#c271d2" fill-rule="evenodd" fill-opacity="1" stroke="#000000" stroke-opacity="1" stroke-width="3.2"/>
<circle clip-path="url(#clip372)" cx="372.827" cy="1286.87" r="14.4" fill="#c271d2" fill-rule="evenodd" fill-opacity="1" stroke="#000000" stroke-opacity="1" stroke-width="3.2"/>
<circle clip-path="url(#clip372)" cx="646.866" cy="1139.25" r="14.4" fill="#c271d2" fill-rule="evenodd" fill-opacity="1" stroke="#000000" stroke-opacity="1" stroke-width="3.2"/>
<circle clip-path="url(#clip372)" cx="1194.94" cy="844.857" r="14.4" fill="#c271d2" fill-rule="evenodd" fill-opacity="1" stroke="#000000" stroke-opacity="1" stroke-width="3.2"/>
<circle clip-path="url(#clip372)" cx="2291.1" cy="327.834" r="14.4" fill="#c271d2" fill-rule="evenodd" fill-opacity="1" stroke="#000000" stroke-opacity="1" stroke-width="3.2"/>
<polyline clip-path="url(#clip372)" style="stroke:#ac8d18; stroke-linecap:round; stroke-linejoin:round; stroke-width:4; stroke-opacity:1; fill:none" stroke-dasharray="2, 4" points="235.808,1384.9 372.827,1356.78 646.866,1288.1 1194.94,1138.19 2291.1,863.586 "/>
<circle clip-path="url(#clip372)" cx="235.808" cy="1384.9" r="14.4" fill="#ac8d18" fill-rule="evenodd" fill-opacity="1" stroke="#000000" stroke-opacity="1" stroke-width="3.2"/>
<circle clip-path="url(#clip372)" cx="372.827" cy="1356.78" r="14.4" fill="#ac8d18" fill-rule="evenodd" fill-opacity="1" stroke="#000000" stroke-opacity="1" stroke-width="3.2"/>
<circle clip-path="url(#clip372)" cx="646.866" cy="1288.1" r="14.4" fill="#ac8d18" fill-rule="evenodd" fill-opacity="1" stroke="#000000" stroke-opacity="1" stroke-width="3.2"/>
<circle clip-path="url(#clip372)" cx="1194.94" cy="1138.19" r="14.4" fill="#ac8d18" fill-rule="evenodd" fill-opacity="1" stroke="#000000" stroke-opacity="1" stroke-width="3.2"/>
<circle clip-path="url(#clip372)" cx="2291.1" cy="863.586" r="14.4" fill="#ac8d18" fill-rule="evenodd" fill-opacity="1" stroke="#000000" stroke-opacity="1" stroke-width="3.2"/>
<polyline clip-path="url(#clip372)" style="stroke:#00a9ad; stroke-linecap:round; stroke-linejoin:round; stroke-width:4; stroke-opacity:1; fill:none" stroke-dasharray="2, 4" points="235.808,1386.4 372.827,1353.37 646.866,1283.92 1194.94,1131.07 2291.1,856.458 "/>
<circle clip-path="url(#clip372)" cx="235.808" cy="1386.4" r="14.4" fill="#00a9ad" fill-rule="evenodd" fill-opacity="1" stroke="#000000" stroke-opacity="1" stroke-width="3.2"/>
<circle clip-path="url(#clip372)" cx="372.827" cy="1353.37" r="14.4" fill="#00a9ad" fill-rule="evenodd" fill-opacity="1" stroke="#000000" stroke-opacity="1" stroke-width="3.2"/>
<circle clip-path="url(#clip372)" cx="646.866" cy="1283.92" r="14.4" fill="#00a9ad" fill-rule="evenodd" fill-opacity="1" stroke="#000000" stroke-opacity="1" stroke-width="3.2"/>
<circle clip-path="url(#clip372)" cx="1194.94" cy="1131.07" r="14.4" fill="#00a9ad" fill-rule="evenodd" fill-opacity="1" stroke="#000000" stroke-opacity="1" stroke-width="3.2"/>
<circle clip-path="url(#clip372)" cx="2291.1" cy="856.458" r="14.4" fill="#00a9ad" fill-rule="evenodd" fill-opacity="1" stroke="#000000" stroke-opacity="1" stroke-width="3.2"/>
<polyline clip-path="url(#clip372)" style="stroke:#ed5d92; stroke-linecap:round; stroke-linejoin:round; stroke-width:4; stroke-opacity:1; fill:none" stroke-dasharray="2, 4" points="235.808,1384.41 372.827,1352.49 646.866,1279.72 1194.94,1121.76 2291.1,862.567 "/>
<circle clip-path="url(#clip372)" cx="235.808" cy="1384.41" r="14.4" fill="#ed5d92" fill-rule="evenodd" fill-opacity="1" stroke="#000000" stroke-opacity="1" stroke-width="3.2"/>
<circle clip-path="url(#clip372)" cx="372.827" cy="1352.49" r="14.4" fill="#ed5d92" fill-rule="evenodd" fill-opacity="1" stroke="#000000" stroke-opacity="1" stroke-width="3.2"/>
<circle clip-path="url(#clip372)" cx="646.866" cy="1279.72" r="14.4" fill="#ed5d92" fill-rule="evenodd" fill-opacity="1" stroke="#000000" stroke-opacity="1" stroke-width="3.2"/>
<circle clip-path="url(#clip372)" cx="1194.94" cy="1121.76" r="14.4" fill="#ed5d92" fill-rule="evenodd" fill-opacity="1" stroke="#000000" stroke-opacity="1" stroke-width="3.2"/>
<circle clip-path="url(#clip372)" cx="2291.1" cy="862.567" r="14.4" fill="#ed5d92" fill-rule="evenodd" fill-opacity="1" stroke="#000000" stroke-opacity="1" stroke-width="3.2"/>
<polyline clip-path="url(#clip372)" style="stroke:#c68125; stroke-linecap:round; stroke-linejoin:round; stroke-width:4; stroke-opacity:1; fill:none" stroke-dasharray="2, 4" points="235.808,1382.92 372.827,1350.87 646.866,1274.46 1194.94,1128.44 2291.1,853.084 "/>
<circle clip-path="url(#clip372)" cx="235.808" cy="1382.92" r="14.4" fill="#c68125" fill-rule="evenodd" fill-opacity="1" stroke="#000000" stroke-opacity="1" stroke-width="3.2"/>
<circle clip-path="url(#clip372)" cx="372.827" cy="1350.87" r="14.4" fill="#c68125" fill-rule="evenodd" fill-opacity="1" stroke="#000000" stroke-opacity="1" stroke-width="3.2"/>
<circle clip-path="url(#clip372)" cx="646.866" cy="1274.46" r="14.4" fill="#c68125" fill-rule="evenodd" fill-opacity="1" stroke="#000000" stroke-opacity="1" stroke-width="3.2"/>
<circle clip-path="url(#clip372)" cx="1194.94" cy="1128.44" r="14.4" fill="#c68125" fill-rule="evenodd" fill-opacity="1" stroke="#000000" stroke-opacity="1" stroke-width="3.2"/>
<circle clip-path="url(#clip372)" cx="2291.1" cy="853.084" r="14.4" fill="#c68125" fill-rule="evenodd" fill-opacity="1" stroke="#000000" stroke-opacity="1" stroke-width="3.2"/>
<polyline clip-path="url(#clip372)" style="stroke:#00a98d; stroke-linecap:round; stroke-linejoin:round; stroke-width:4; stroke-opacity:1; fill:none" stroke-dasharray="2, 4" points="235.808,1384.17 372.827,1348.22 646.866,1279.99 1194.94,1125.27 2291.1,843.839 "/>
<circle clip-path="url(#clip372)" cx="235.808" cy="1384.17" r="14.4" fill="#00a98d" fill-rule="evenodd" fill-opacity="1" stroke="#000000" stroke-opacity="1" stroke-width="3.2"/>
<circle clip-path="url(#clip372)" cx="372.827" cy="1348.22" r="14.4" fill="#00a98d" fill-rule="evenodd" fill-opacity="1" stroke="#000000" stroke-opacity="1" stroke-width="3.2"/>
<circle clip-path="url(#clip372)" cx="646.866" cy="1279.99" r="14.4" fill="#00a98d" fill-rule="evenodd" fill-opacity="1" stroke="#000000" stroke-opacity="1" stroke-width="3.2"/>
<circle clip-path="url(#clip372)" cx="1194.94" cy="1125.27" r="14.4" fill="#00a98d" fill-rule="evenodd" fill-opacity="1" stroke="#000000" stroke-opacity="1" stroke-width="3.2"/>
<circle clip-path="url(#clip372)" cx="2291.1" cy="843.839" r="14.4" fill="#00a98d" fill-rule="evenodd" fill-opacity="1" stroke="#000000" stroke-opacity="1" stroke-width="3.2"/>
<polyline clip-path="url(#clip372)" style="stroke:#8e971d; stroke-linecap:round; stroke-linejoin:round; stroke-width:4; stroke-opacity:1; fill:none" stroke-dasharray="2, 4" points="235.808,1383.59 372.827,1353.57 646.866,1274.99 1194.94,1116.41 2291.1,831.563 "/>
<circle clip-path="url(#clip372)" cx="235.808" cy="1383.59" r="14.4" fill="#8e971d" fill-rule="evenodd" fill-opacity="1" stroke="#000000" stroke-opacity="1" stroke-width="3.2"/>
<circle clip-path="url(#clip372)" cx="372.827" cy="1353.57" r="14.4" fill="#8e971d" fill-rule="evenodd" fill-opacity="1" stroke="#000000" stroke-opacity="1" stroke-width="3.2"/>
<circle clip-path="url(#clip372)" cx="646.866" cy="1274.99" r="14.4" fill="#8e971d" fill-rule="evenodd" fill-opacity="1" stroke="#000000" stroke-opacity="1" stroke-width="3.2"/>
<circle clip-path="url(#clip372)" cx="1194.94" cy="1116.41" r="14.4" fill="#8e971d" fill-rule="evenodd" fill-opacity="1" stroke="#000000" stroke-opacity="1" stroke-width="3.2"/>
<circle clip-path="url(#clip372)" cx="2291.1" cy="831.563" r="14.4" fill="#8e971d" fill-rule="evenodd" fill-opacity="1" stroke="#000000" stroke-opacity="1" stroke-width="3.2"/>
<polyline clip-path="url(#clip372)" style="stroke:#00a8cb; stroke-linecap:round; stroke-linejoin:round; stroke-width:4; stroke-opacity:1; fill:none" stroke-dasharray="2, 4" points="235.808,1380.13 372.827,1345.16 646.866,1272.77 1194.94,1118.85 2291.1,839.822 "/>
<circle clip-path="url(#clip372)" cx="235.808" cy="1380.13" r="14.4" fill="#00a8cb" fill-rule="evenodd" fill-opacity="1" stroke="#000000" stroke-opacity="1" stroke-width="3.2"/>
<circle clip-path="url(#clip372)" cx="372.827" cy="1345.16" r="14.4" fill="#00a8cb" fill-rule="evenodd" fill-opacity="1" stroke="#000000" stroke-opacity="1" stroke-width="3.2"/>
<circle clip-path="url(#clip372)" cx="646.866" cy="1272.77" r="14.4" fill="#00a8cb" fill-rule="evenodd" fill-opacity="1" stroke="#000000" stroke-opacity="1" stroke-width="3.2"/>
<circle clip-path="url(#clip372)" cx="1194.94" cy="1118.85" r="14.4" fill="#00a8cb" fill-rule="evenodd" fill-opacity="1" stroke="#000000" stroke-opacity="1" stroke-width="3.2"/>
<circle clip-path="url(#clip372)" cx="2291.1" cy="839.822" r="14.4" fill="#00a8cb" fill-rule="evenodd" fill-opacity="1" stroke="#000000" stroke-opacity="1" stroke-width="3.2"/>
<polyline clip-path="url(#clip372)" style="stroke:#9b7fe8; stroke-linecap:round; stroke-linejoin:round; stroke-width:4; stroke-opacity:1; fill:none" stroke-dasharray="2, 4" points="235.808,1381.15 372.827,1349.41 646.866,1268.66 1194.94,1103.96 2291.1,809.849 "/>
<circle clip-path="url(#clip372)" cx="235.808" cy="1381.15" r="14.4" fill="#9b7fe8" fill-rule="evenodd" fill-opacity="1" stroke="#000000" stroke-opacity="1" stroke-width="3.2"/>
<circle clip-path="url(#clip372)" cx="372.827" cy="1349.41" r="14.4" fill="#9b7fe8" fill-rule="evenodd" fill-opacity="1" stroke="#000000" stroke-opacity="1" stroke-width="3.2"/>
<circle clip-path="url(#clip372)" cx="646.866" cy="1268.66" r="14.4" fill="#9b7fe8" fill-rule="evenodd" fill-opacity="1" stroke="#000000" stroke-opacity="1" stroke-width="3.2"/>
<circle clip-path="url(#clip372)" cx="1194.94" cy="1103.96" r="14.4" fill="#9b7fe8" fill-rule="evenodd" fill-opacity="1" stroke="#000000" stroke-opacity="1" stroke-width="3.2"/>
<circle clip-path="url(#clip372)" cx="2291.1" cy="809.849" r="14.4" fill="#9b7fe8" fill-rule="evenodd" fill-opacity="1" stroke="#000000" stroke-opacity="1" stroke-width="3.2"/>
<path clip-path="url(#clip370)" d="M246.769 840.716 L792.151 840.716 L792.151 166.796 L246.769 166.796  Z" fill="#ffffff" fill-rule="evenodd" fill-opacity="1"/>
<polyline clip-path="url(#clip370)" style="stroke:#000000; stroke-linecap:round; stroke-linejoin:round; stroke-width:4; stroke-opacity:1; fill:none" points="246.769,840.716 792.151,840.716 792.151,166.796 246.769,166.796 246.769,840.716 "/>
<polyline clip-path="url(#clip370)" style="stroke:#009af9; stroke-linecap:round; stroke-linejoin:round; stroke-width:4; stroke-opacity:1; fill:none" stroke-dasharray="2, 4" points="270.976,218.636 416.216,218.636 "/>
<circle clip-path="url(#clip370)" cx="343.596" cy="218.636" r="20.1723" fill="#009af9" fill-rule="evenodd" fill-opacity="1" stroke="#000000" stroke-opacity="1" stroke-width="4.55111"/>
<path clip-path="url(#clip370)" d="M440.423 201.356 L460.284 201.356 L460.284 205.291 L445.099 205.291 L445.099 215.476 L458.803 215.476 L458.803 219.411 L445.099 219.411 L445.099 235.916 L440.423 235.916 L440.423 201.356 Z" fill="#000000" fill-rule="nonzero" fill-opacity="1" /><path clip-path="url(#clip370)" d="M472.367 219.411 L472.367 232.073 L479.867 232.073 Q483.64 232.073 485.446 230.522 Q487.275 228.948 487.275 225.731 Q487.275 222.49 485.446 220.962 Q483.64 219.411 479.867 219.411 L472.367 219.411 M472.367 205.198 L472.367 215.615 L479.289 215.615 Q482.715 215.615 484.381 214.342 Q486.071 213.045 486.071 210.407 Q486.071 207.791 484.381 206.495 Q482.715 205.198 479.289 205.198 L472.367 205.198 M467.691 201.356 L479.636 201.356 Q484.983 201.356 487.877 203.578 Q490.77 205.8 490.77 209.897 Q490.77 213.069 489.289 214.944 Q487.807 216.819 484.937 217.282 Q488.386 218.022 490.284 220.383 Q492.205 222.721 492.205 226.24 Q492.205 230.869 489.057 233.393 Q485.909 235.916 480.099 235.916 L467.691 235.916 L467.691 201.356 Z" fill="#000000" fill-rule="nonzero" fill-opacity="1" /><path clip-path="url(#clip370)" d="M504.89 205.198 L504.89 232.073 L510.538 232.073 Q517.691 232.073 521.001 228.832 Q524.335 225.592 524.335 218.601 Q524.335 211.657 521.001 208.439 Q517.691 205.198 510.538 205.198 L504.89 205.198 M500.214 201.356 L509.821 201.356 Q519.867 201.356 524.566 205.546 Q529.265 209.712 529.265 218.601 Q529.265 227.536 524.543 231.726 Q519.821 235.916 509.821 235.916 L500.214 235.916 L500.214 201.356 Z" fill="#000000" fill-rule="nonzero" fill-opacity="1" /><path clip-path="url(#clip370)" d="M536.719 201.356 L556.58 201.356 L556.58 205.291 L541.395 205.291 L541.395 215.476 L555.098 215.476 L555.098 219.411 L541.395 219.411 L541.395 235.916 L536.719 235.916 L536.719 201.356 Z" fill="#000000" fill-rule="nonzero" fill-opacity="1" /><polyline clip-path="url(#clip370)" style="stroke:#e26f46; stroke-linecap:round; stroke-linejoin:round; stroke-width:4; stroke-opacity:1; fill:none" stroke-dasharray="2, 4" points="270.976,270.476 416.216,270.476 "/>
<circle clip-path="url(#clip370)" cx="343.596" cy="270.476" r="20.1723" fill="#e26f46" fill-rule="evenodd" fill-opacity="1" stroke="#000000" stroke-opacity="1" stroke-width="4.55111"/>
<path clip-path="url(#clip370)" d="M440.423 253.196 L460.284 253.196 L460.284 257.131 L445.099 257.131 L445.099 267.316 L458.803 267.316 L458.803 271.251 L445.099 271.251 L445.099 287.756 L440.423 287.756 L440.423 253.196 Z" fill="#000000" fill-rule="nonzero" fill-opacity="1" /><path clip-path="url(#clip370)" d="M472.367 271.251 L472.367 283.913 L479.867 283.913 Q483.64 283.913 485.446 282.362 Q487.275 280.788 487.275 277.571 Q487.275 274.33 485.446 272.802 Q483.64 271.251 479.867 271.251 L472.367 271.251 M472.367 257.038 L472.367 267.455 L479.289 267.455 Q482.715 267.455 484.381 266.182 Q486.071 264.885 486.071 262.247 Q486.071 259.631 484.381 258.335 Q482.715 257.038 479.289 257.038 L472.367 257.038 M467.691 253.196 L479.636 253.196 Q484.983 253.196 487.877 255.418 Q490.77 257.64 490.77 261.737 Q490.77 264.909 489.289 266.784 Q487.807 268.659 484.937 269.122 Q488.386 269.862 490.284 272.223 Q492.205 274.561 492.205 278.08 Q492.205 282.709 489.057 285.233 Q485.909 287.756 480.099 287.756 L467.691 287.756 L467.691 253.196 Z" fill="#000000" fill-rule="nonzero" fill-opacity="1" /><path clip-path="url(#clip370)" d="M504.89 257.038 L504.89 283.913 L510.538 283.913 Q517.691 283.913 521.001 280.672 Q524.335 277.432 524.335 270.441 Q524.335 263.497 521.001 260.279 Q517.691 257.038 510.538 257.038 L504.89 257.038 M500.214 253.196 L509.821 253.196 Q519.867 253.196 524.566 257.386 Q529.265 261.552 529.265 270.441 Q529.265 279.376 524.543 283.566 Q519.821 287.756 509.821 287.756 L500.214 287.756 L500.214 253.196 Z" fill="#000000" fill-rule="nonzero" fill-opacity="1" /><path clip-path="url(#clip370)" d="M536.719 253.196 L556.58 253.196 L556.58 257.131 L541.395 257.131 L541.395 267.316 L555.098 267.316 L555.098 271.251 L541.395 271.251 L541.395 287.756 L536.719 287.756 L536.719 253.196 Z" fill="#000000" fill-rule="nonzero" fill-opacity="1" /><path clip-path="url(#clip370)" d="M583.501 295.626 L583.501 298.936 L558.872 298.936 L558.872 295.626 L583.501 295.626 Z" fill="#000000" fill-rule="nonzero" fill-opacity="1" /><path clip-path="url(#clip370)" d="M587.506 261.83 L591.765 261.83 L591.765 288.219 Q591.765 293.172 589.867 295.395 Q587.992 297.617 583.802 297.617 L582.182 297.617 L582.182 294.006 L583.316 294.006 Q585.746 294.006 586.626 292.871 Q587.506 291.76 587.506 288.219 L587.506 261.83 M587.506 251.737 L591.765 251.737 L591.765 257.131 L587.506 257.131 L587.506 251.737 Z" fill="#000000" fill-rule="nonzero" fill-opacity="1" /><path clip-path="url(#clip370)" d="M612.459 274.723 Q607.297 274.723 605.306 275.904 Q603.316 277.084 603.316 279.932 Q603.316 282.2 604.797 283.543 Q606.302 284.862 608.871 284.862 Q612.413 284.862 614.543 282.362 Q616.695 279.839 616.695 275.672 L616.695 274.723 L612.459 274.723 M620.955 272.964 L620.955 287.756 L616.695 287.756 L616.695 283.821 Q615.237 286.182 613.061 287.316 Q610.885 288.427 607.737 288.427 Q603.756 288.427 601.394 286.205 Q599.057 283.959 599.057 280.209 Q599.057 275.834 601.973 273.612 Q604.913 271.39 610.723 271.39 L616.695 271.39 L616.695 270.973 Q616.695 268.034 614.751 266.436 Q612.83 264.816 609.334 264.816 Q607.112 264.816 605.006 265.348 Q602.899 265.881 600.955 266.946 L600.955 263.01 Q603.293 262.108 605.492 261.668 Q607.691 261.205 609.774 261.205 Q615.399 261.205 618.177 264.122 Q620.955 267.038 620.955 272.964 Z" fill="#000000" fill-rule="nonzero" fill-opacity="1" /><path clip-path="url(#clip370)" d="M648.385 262.825 L648.385 266.807 Q646.579 265.811 644.751 265.325 Q642.945 264.816 641.093 264.816 Q636.95 264.816 634.658 267.455 Q632.367 270.071 632.367 274.816 Q632.367 279.561 634.658 282.2 Q636.95 284.816 641.093 284.816 Q642.945 284.816 644.751 284.33 Q646.579 283.821 648.385 282.825 L648.385 286.76 Q646.603 287.594 644.681 288.01 Q642.783 288.427 640.63 288.427 Q634.774 288.427 631.325 284.746 Q627.876 281.066 627.876 274.816 Q627.876 268.473 631.348 264.839 Q634.843 261.205 640.908 261.205 Q642.876 261.205 644.751 261.622 Q646.626 262.015 648.385 262.825 Z" fill="#000000" fill-rule="nonzero" fill-opacity="1" /><polyline clip-path="url(#clip370)" style="stroke:#3da44d; stroke-linecap:round; stroke-linejoin:round; stroke-width:4; stroke-opacity:1; fill:none" stroke-dasharray="2, 4" points="270.976,322.316 416.216,322.316 "/>
<circle clip-path="url(#clip370)" cx="343.596" cy="322.316" r="20.1723" fill="#3da44d" fill-rule="evenodd" fill-opacity="1" stroke="#000000" stroke-opacity="1" stroke-width="4.55111"/>
<path clip-path="url(#clip370)" d="M440.423 305.036 L460.284 305.036 L460.284 308.971 L445.099 308.971 L445.099 319.156 L458.803 319.156 L458.803 323.091 L445.099 323.091 L445.099 339.596 L440.423 339.596 L440.423 305.036 Z" fill="#000000" fill-rule="nonzero" fill-opacity="1" /><path clip-path="url(#clip370)" d="M472.367 323.091 L472.367 335.753 L479.867 335.753 Q483.64 335.753 485.446 334.202 Q487.275 332.628 487.275 329.411 Q487.275 326.17 485.446 324.642 Q483.64 323.091 479.867 323.091 L472.367 323.091 M472.367 308.878 L472.367 319.295 L479.289 319.295 Q482.715 319.295 484.381 318.022 Q486.071 316.725 486.071 314.087 Q486.071 311.471 484.381 310.175 Q482.715 308.878 479.289 308.878 L472.367 308.878 M467.691 305.036 L479.636 305.036 Q484.983 305.036 487.877 307.258 Q490.77 309.48 490.77 313.577 Q490.77 316.749 489.289 318.624 Q487.807 320.499 484.937 320.962 Q488.386 321.702 490.284 324.063 Q492.205 326.401 492.205 329.92 Q492.205 334.549 489.057 337.073 Q485.909 339.596 480.099 339.596 L467.691 339.596 L467.691 305.036 Z" fill="#000000" fill-rule="nonzero" fill-opacity="1" /><path clip-path="url(#clip370)" d="M504.89 308.878 L504.89 335.753 L510.538 335.753 Q517.691 335.753 521.001 332.512 Q524.335 329.272 524.335 322.281 Q524.335 315.337 521.001 312.119 Q517.691 308.878 510.538 308.878 L504.89 308.878 M500.214 305.036 L509.821 305.036 Q519.867 305.036 524.566 309.226 Q529.265 313.392 529.265 322.281 Q529.265 331.216 524.543 335.406 Q519.821 339.596 509.821 339.596 L500.214 339.596 L500.214 305.036 Z" fill="#000000" fill-rule="nonzero" fill-opacity="1" /><path clip-path="url(#clip370)" d="M536.719 305.036 L556.58 305.036 L556.58 308.971 L541.395 308.971 L541.395 319.156 L555.098 319.156 L555.098 323.091 L541.395 323.091 L541.395 339.596 L536.719 339.596 L536.719 305.036 Z" fill="#000000" fill-rule="nonzero" fill-opacity="1" /><path clip-path="url(#clip370)" d="M583.501 347.466 L583.501 350.776 L558.872 350.776 L558.872 347.466 L583.501 347.466 Z" fill="#000000" fill-rule="nonzero" fill-opacity="1" /><path clip-path="url(#clip370)" d="M591.626 335.707 L591.626 349.457 L587.344 349.457 L587.344 313.67 L591.626 313.67 L591.626 317.605 Q592.969 315.29 595.006 314.179 Q597.066 313.045 599.913 313.045 Q604.635 313.045 607.575 316.795 Q610.538 320.545 610.538 326.656 Q610.538 332.767 607.575 336.517 Q604.635 340.267 599.913 340.267 Q597.066 340.267 595.006 339.156 Q592.969 338.022 591.626 335.707 M606.117 326.656 Q606.117 321.957 604.172 319.295 Q602.251 316.61 598.871 316.61 Q595.492 316.61 593.547 319.295 Q591.626 321.957 591.626 326.656 Q591.626 331.355 593.547 334.04 Q595.492 336.702 598.871 336.702 Q602.251 336.702 604.172 334.04 Q606.117 331.355 606.117 326.656 Z" fill="#000000" fill-rule="nonzero" fill-opacity="1" /><path clip-path="url(#clip370)" d="M632.621 317.651 Q631.904 317.235 631.047 317.05 Q630.214 316.841 629.195 316.841 Q625.584 316.841 623.64 319.202 Q621.718 321.54 621.718 325.938 L621.718 339.596 L617.436 339.596 L617.436 313.67 L621.718 313.67 L621.718 317.698 Q623.061 315.337 625.214 314.202 Q627.367 313.045 630.445 313.045 Q630.885 313.045 631.417 313.114 Q631.95 313.161 632.598 313.276 L632.621 317.651 Z" fill="#000000" fill-rule="nonzero" fill-opacity="1" /><path clip-path="url(#clip370)" d="M658.223 325.568 L658.223 327.651 L638.64 327.651 Q638.917 332.049 641.279 334.364 Q643.663 336.656 647.899 336.656 Q650.353 336.656 652.644 336.054 Q654.959 335.452 657.227 334.249 L657.227 338.276 Q654.936 339.248 652.528 339.758 Q650.121 340.267 647.644 340.267 Q641.441 340.267 637.806 336.656 Q634.195 333.045 634.195 326.887 Q634.195 320.522 637.621 316.795 Q641.07 313.045 646.903 313.045 Q652.135 313.045 655.167 316.425 Q658.223 319.781 658.223 325.568 M653.964 324.318 Q653.917 320.823 651.996 318.739 Q650.098 316.656 646.95 316.656 Q643.385 316.656 641.232 318.67 Q639.103 320.684 638.779 324.341 L653.964 324.318 Z" fill="#000000" fill-rule="nonzero" fill-opacity="1" /><path clip-path="url(#clip370)" d="M683.871 314.665 L683.871 318.647 Q682.065 317.651 680.237 317.165 Q678.431 316.656 676.579 316.656 Q672.436 316.656 670.144 319.295 Q667.852 321.911 667.852 326.656 Q667.852 331.401 670.144 334.04 Q672.436 336.656 676.579 336.656 Q678.431 336.656 680.237 336.17 Q682.065 335.661 683.871 334.665 L683.871 338.6 Q682.088 339.434 680.167 339.85 Q678.269 340.267 676.116 340.267 Q670.26 340.267 666.811 336.586 Q663.362 332.906 663.362 326.656 Q663.362 320.313 666.834 316.679 Q670.329 313.045 676.394 313.045 Q678.362 313.045 680.237 313.462 Q682.112 313.855 683.871 314.665 Z" fill="#000000" fill-rule="nonzero" fill-opacity="1" /><polyline clip-path="url(#clip370)" style="stroke:#c271d2; stroke-linecap:round; stroke-linejoin:round; stroke-width:4; stroke-opacity:1; fill:none" stroke-dasharray="2, 4" points="270.976,374.156 416.216,374.156 "/>
<circle clip-path="url(#clip370)" cx="343.596" cy="374.156" r="20.1723" fill="#c271d2" fill-rule="evenodd" fill-opacity="1" stroke="#000000" stroke-opacity="1" stroke-width="4.55111"/>
<path clip-path="url(#clip370)" d="M440.423 356.876 L460.284 356.876 L460.284 360.811 L445.099 360.811 L445.099 370.996 L458.803 370.996 L458.803 374.931 L445.099 374.931 L445.099 391.436 L440.423 391.436 L440.423 356.876 Z" fill="#000000" fill-rule="nonzero" fill-opacity="1" /><path clip-path="url(#clip370)" d="M472.367 374.931 L472.367 387.593 L479.867 387.593 Q483.64 387.593 485.446 386.042 Q487.275 384.468 487.275 381.251 Q487.275 378.01 485.446 376.482 Q483.64 374.931 479.867 374.931 L472.367 374.931 M472.367 360.718 L472.367 371.135 L479.289 371.135 Q482.715 371.135 484.381 369.862 Q486.071 368.565 486.071 365.927 Q486.071 363.311 484.381 362.015 Q482.715 360.718 479.289 360.718 L472.367 360.718 M467.691 356.876 L479.636 356.876 Q484.983 356.876 487.877 359.098 Q490.77 361.32 490.77 365.417 Q490.77 368.589 489.289 370.464 Q487.807 372.339 484.937 372.802 Q488.386 373.542 490.284 375.903 Q492.205 378.241 492.205 381.76 Q492.205 386.389 489.057 388.913 Q485.909 391.436 480.099 391.436 L467.691 391.436 L467.691 356.876 Z" fill="#000000" fill-rule="nonzero" fill-opacity="1" /><path clip-path="url(#clip370)" d="M504.89 360.718 L504.89 387.593 L510.538 387.593 Q517.691 387.593 521.001 384.352 Q524.335 381.112 524.335 374.121 Q524.335 367.177 521.001 363.959 Q517.691 360.718 510.538 360.718 L504.89 360.718 M500.214 356.876 L509.821 356.876 Q519.867 356.876 524.566 361.066 Q529.265 365.232 529.265 374.121 Q529.265 383.056 524.543 387.246 Q519.821 391.436 509.821 391.436 L500.214 391.436 L500.214 356.876 Z" fill="#000000" fill-rule="nonzero" fill-opacity="1" /><path clip-path="url(#clip370)" d="M536.719 356.876 L556.58 356.876 L556.58 360.811 L541.395 360.811 L541.395 370.996 L555.098 370.996 L555.098 374.931 L541.395 374.931 L541.395 391.436 L536.719 391.436 L536.719 356.876 Z" fill="#000000" fill-rule="nonzero" fill-opacity="1" /><path clip-path="url(#clip370)" d="M583.501 399.306 L583.501 402.616 L558.872 402.616 L558.872 399.306 L583.501 399.306 Z" fill="#000000" fill-rule="nonzero" fill-opacity="1" /><path clip-path="url(#clip370)" d="M591.626 387.547 L591.626 401.297 L587.344 401.297 L587.344 365.51 L591.626 365.51 L591.626 369.445 Q592.969 367.13 595.006 366.019 Q597.066 364.885 599.913 364.885 Q604.635 364.885 607.575 368.635 Q610.538 372.385 610.538 378.496 Q610.538 384.607 607.575 388.357 Q604.635 392.107 599.913 392.107 Q597.066 392.107 595.006 390.996 Q592.969 389.862 591.626 387.547 M606.117 378.496 Q606.117 373.797 604.172 371.135 Q602.251 368.45 598.871 368.45 Q595.492 368.45 593.547 371.135 Q591.626 373.797 591.626 378.496 Q591.626 383.195 593.547 385.88 Q595.492 388.542 598.871 388.542 Q602.251 388.542 604.172 385.88 Q606.117 383.195 606.117 378.496 Z" fill="#000000" fill-rule="nonzero" fill-opacity="1" /><path clip-path="url(#clip370)" d="M632.621 369.491 Q631.904 369.075 631.047 368.89 Q630.214 368.681 629.195 368.681 Q625.584 368.681 623.64 371.042 Q621.718 373.38 621.718 377.778 L621.718 391.436 L617.436 391.436 L617.436 365.51 L621.718 365.51 L621.718 369.538 Q623.061 367.177 625.214 366.042 Q627.367 364.885 630.445 364.885 Q630.885 364.885 631.417 364.954 Q631.95 365.001 632.598 365.116 L632.621 369.491 Z" fill="#000000" fill-rule="nonzero" fill-opacity="1" /><path clip-path="url(#clip370)" d="M658.223 377.408 L658.223 379.491 L638.64 379.491 Q638.917 383.889 641.279 386.204 Q643.663 388.496 647.899 388.496 Q650.353 388.496 652.644 387.894 Q654.959 387.292 657.227 386.089 L657.227 390.116 Q654.936 391.088 652.528 391.598 Q650.121 392.107 647.644 392.107 Q641.441 392.107 637.806 388.496 Q634.195 384.885 634.195 378.727 Q634.195 372.362 637.621 368.635 Q641.07 364.885 646.903 364.885 Q652.135 364.885 655.167 368.265 Q658.223 371.621 658.223 377.408 M653.964 376.158 Q653.917 372.663 651.996 370.579 Q650.098 368.496 646.95 368.496 Q643.385 368.496 641.232 370.51 Q639.103 372.524 638.779 376.181 L653.964 376.158 Z" fill="#000000" fill-rule="nonzero" fill-opacity="1" /><path clip-path="url(#clip370)" d="M683.871 366.505 L683.871 370.487 Q682.065 369.491 680.237 369.005 Q678.431 368.496 676.579 368.496 Q672.436 368.496 670.144 371.135 Q667.852 373.751 667.852 378.496 Q667.852 383.241 670.144 385.88 Q672.436 388.496 676.579 388.496 Q678.431 388.496 680.237 388.01 Q682.065 387.501 683.871 386.505 L683.871 390.44 Q682.088 391.274 680.167 391.69 Q678.269 392.107 676.116 392.107 Q670.26 392.107 666.811 388.426 Q663.362 384.746 663.362 378.496 Q663.362 372.153 666.834 368.519 Q670.329 364.885 676.394 364.885 Q678.362 364.885 680.237 365.302 Q682.112 365.695 683.871 366.505 Z" fill="#000000" fill-rule="nonzero" fill-opacity="1" /><path clip-path="url(#clip370)" d="M691.463 356.876 L696.139 356.876 L696.139 389.028 Q696.139 395.278 693.755 398.102 Q691.394 400.926 686.139 400.926 L684.357 400.926 L684.357 396.991 L685.815 396.991 Q688.917 396.991 690.19 395.255 Q691.463 393.519 691.463 389.028 L691.463 356.876 Z" fill="#000000" fill-rule="nonzero" fill-opacity="1" /><path clip-path="url(#clip370)" d="M717.042 378.403 Q711.88 378.403 709.889 379.584 Q707.899 380.764 707.899 383.612 Q707.899 385.88 709.38 387.223 Q710.885 388.542 713.454 388.542 Q716.996 388.542 719.125 386.042 Q721.278 383.519 721.278 379.352 L721.278 378.403 L717.042 378.403 M725.537 376.644 L725.537 391.436 L721.278 391.436 L721.278 387.501 Q719.82 389.862 717.644 390.996 Q715.468 392.107 712.32 392.107 Q708.338 392.107 705.977 389.885 Q703.639 387.639 703.639 383.889 Q703.639 379.514 706.556 377.292 Q709.496 375.07 715.306 375.07 L721.278 375.07 L721.278 374.653 Q721.278 371.714 719.334 370.116 Q717.412 368.496 713.917 368.496 Q711.695 368.496 709.588 369.028 Q707.482 369.561 705.537 370.626 L705.537 366.69 Q707.875 365.788 710.074 365.348 Q712.274 364.885 714.357 364.885 Q719.982 364.885 722.76 367.802 Q725.537 370.718 725.537 376.644 Z" fill="#000000" fill-rule="nonzero" fill-opacity="1" /><path clip-path="url(#clip370)" d="M752.968 366.505 L752.968 370.487 Q751.162 369.491 749.333 369.005 Q747.528 368.496 745.676 368.496 Q741.533 368.496 739.241 371.135 Q736.949 373.751 736.949 378.496 Q736.949 383.241 739.241 385.88 Q741.533 388.496 745.676 388.496 Q747.528 388.496 749.333 388.01 Q751.162 387.501 752.968 386.505 L752.968 390.44 Q751.185 391.274 749.264 391.69 Q747.366 392.107 745.213 392.107 Q739.357 392.107 735.908 388.426 Q732.459 384.746 732.459 378.496 Q732.459 372.153 735.931 368.519 Q739.426 364.885 745.491 364.885 Q747.458 364.885 749.333 365.302 Q751.208 365.695 752.968 366.505 Z" fill="#000000" fill-rule="nonzero" fill-opacity="1" /><polyline clip-path="url(#clip370)" style="stroke:#ac8d18; stroke-linecap:round; stroke-linejoin:round; stroke-width:4; stroke-opacity:1; fill:none" stroke-dasharray="2, 4" points="270.976,425.996 416.216,425.996 "/>
<circle clip-path="url(#clip370)" cx="343.596" cy="425.996" r="20.1723" fill="#ac8d18" fill-rule="evenodd" fill-opacity="1" stroke="#000000" stroke-opacity="1" stroke-width="4.55111"/>
<path clip-path="url(#clip370)" d="M456.442 411.887 Q451.349 411.887 448.34 415.683 Q445.354 419.48 445.354 426.03 Q445.354 432.558 448.34 436.354 Q451.349 440.151 456.442 440.151 Q461.534 440.151 464.497 436.354 Q467.483 432.558 467.483 426.03 Q467.483 419.48 464.497 415.683 Q461.534 411.887 456.442 411.887 M462.992 442.651 L469.15 449.387 L463.502 449.387 L458.386 443.854 Q457.622 443.901 457.205 443.924 Q456.812 443.947 456.442 443.947 Q449.15 443.947 444.775 439.086 Q440.423 434.202 440.423 426.03 Q440.423 417.836 444.775 412.975 Q449.15 408.091 456.442 408.091 Q463.71 408.091 468.062 412.975 Q472.414 417.836 472.414 426.03 Q472.414 432.049 469.983 436.331 Q467.576 440.614 462.992 442.651 Z" fill="#000000" fill-rule="nonzero" fill-opacity="1" /><path clip-path="url(#clip370)" d="M479.728 408.716 L486.025 408.716 L501.349 437.628 L501.349 408.716 L505.886 408.716 L505.886 443.276 L499.589 443.276 L484.265 414.364 L484.265 443.276 L479.728 443.276 L479.728 408.716 Z" fill="#000000" fill-rule="nonzero" fill-opacity="1" /><path clip-path="url(#clip370)" d="M519.867 412.558 L519.867 439.433 L525.515 439.433 Q532.668 439.433 535.978 436.192 Q539.311 432.952 539.311 425.961 Q539.311 419.017 535.978 415.799 Q532.668 412.558 525.515 412.558 L519.867 412.558 M515.191 408.716 L524.798 408.716 Q534.844 408.716 539.543 412.906 Q544.242 417.072 544.242 425.961 Q544.242 434.896 539.52 439.086 Q534.798 443.276 524.798 443.276 L515.191 443.276 L515.191 408.716 Z" fill="#000000" fill-rule="nonzero" fill-opacity="1" /><path clip-path="url(#clip370)" d="M551.696 408.716 L571.557 408.716 L571.557 412.651 L556.372 412.651 L556.372 422.836 L570.075 422.836 L570.075 426.771 L556.372 426.771 L556.372 443.276 L551.696 443.276 L551.696 408.716 Z" fill="#000000" fill-rule="nonzero" fill-opacity="1" /><polyline clip-path="url(#clip370)" style="stroke:#00a9ad; stroke-linecap:round; stroke-linejoin:round; stroke-width:4; stroke-opacity:1; fill:none" stroke-dasharray="2, 4" points="270.976,477.836 416.216,477.836 "/>
<circle clip-path="url(#clip370)" cx="343.596" cy="477.836" r="20.1723" fill="#00a9ad" fill-rule="evenodd" fill-opacity="1" stroke="#000000" stroke-opacity="1" stroke-width="4.55111"/>
<path clip-path="url(#clip370)" d="M456.442 463.727 Q451.349 463.727 448.34 467.523 Q445.354 471.32 445.354 477.87 Q445.354 484.398 448.34 488.194 Q451.349 491.991 456.442 491.991 Q461.534 491.991 464.497 488.194 Q467.483 484.398 467.483 477.87 Q467.483 471.32 464.497 467.523 Q461.534 463.727 456.442 463.727 M462.992 494.491 L469.15 501.227 L463.502 501.227 L458.386 495.694 Q457.622 495.741 457.205 495.764 Q456.812 495.787 456.442 495.787 Q449.15 495.787 444.775 490.926 Q440.423 486.042 440.423 477.87 Q440.423 469.676 444.775 464.815 Q449.15 459.931 456.442 459.931 Q463.71 459.931 468.062 464.815 Q472.414 469.676 472.414 477.87 Q472.414 483.889 469.983 488.171 Q467.576 492.454 462.992 494.491 Z" fill="#000000" fill-rule="nonzero" fill-opacity="1" /><path clip-path="url(#clip370)" d="M479.728 460.556 L486.025 460.556 L501.349 489.468 L501.349 460.556 L505.886 460.556 L505.886 495.116 L499.589 495.116 L484.265 466.204 L484.265 495.116 L479.728 495.116 L479.728 460.556 Z" fill="#000000" fill-rule="nonzero" fill-opacity="1" /><path clip-path="url(#clip370)" d="M519.867 464.398 L519.867 491.273 L525.515 491.273 Q532.668 491.273 535.978 488.032 Q539.311 484.792 539.311 477.801 Q539.311 470.857 535.978 467.639 Q532.668 464.398 525.515 464.398 L519.867 464.398 M515.191 460.556 L524.798 460.556 Q534.844 460.556 539.543 464.746 Q544.242 468.912 544.242 477.801 Q544.242 486.736 539.52 490.926 Q534.798 495.116 524.798 495.116 L515.191 495.116 L515.191 460.556 Z" fill="#000000" fill-rule="nonzero" fill-opacity="1" /><path clip-path="url(#clip370)" d="M551.696 460.556 L571.557 460.556 L571.557 464.491 L556.372 464.491 L556.372 474.676 L570.075 474.676 L570.075 478.611 L556.372 478.611 L556.372 495.116 L551.696 495.116 L551.696 460.556 Z" fill="#000000" fill-rule="nonzero" fill-opacity="1" /><path clip-path="url(#clip370)" d="M598.478 502.986 L598.478 506.296 L573.848 506.296 L573.848 502.986 L598.478 502.986 Z" fill="#000000" fill-rule="nonzero" fill-opacity="1" /><path clip-path="url(#clip370)" d="M602.482 469.19 L606.742 469.19 L606.742 495.579 Q606.742 500.532 604.844 502.755 Q602.969 504.977 598.779 504.977 L597.158 504.977 L597.158 501.366 L598.293 501.366 Q600.723 501.366 601.603 500.231 Q602.482 499.12 602.482 495.579 L602.482 469.19 M602.482 459.097 L606.742 459.097 L606.742 464.491 L602.482 464.491 L602.482 459.097 Z" fill="#000000" fill-rule="nonzero" fill-opacity="1" /><path clip-path="url(#clip370)" d="M627.436 482.083 Q622.274 482.083 620.283 483.264 Q618.293 484.444 618.293 487.292 Q618.293 489.56 619.774 490.903 Q621.279 492.222 623.848 492.222 Q627.39 492.222 629.519 489.722 Q631.672 487.199 631.672 483.032 L631.672 482.083 L627.436 482.083 M635.931 480.324 L635.931 495.116 L631.672 495.116 L631.672 491.181 Q630.214 493.542 628.038 494.676 Q625.862 495.787 622.714 495.787 Q618.732 495.787 616.371 493.565 Q614.033 491.319 614.033 487.569 Q614.033 483.194 616.95 480.972 Q619.89 478.75 625.7 478.75 L631.672 478.75 L631.672 478.333 Q631.672 475.394 629.728 473.796 Q627.806 472.176 624.311 472.176 Q622.089 472.176 619.982 472.708 Q617.876 473.241 615.931 474.306 L615.931 470.37 Q618.269 469.468 620.468 469.028 Q622.667 468.565 624.751 468.565 Q630.376 468.565 633.154 471.482 Q635.931 474.398 635.931 480.324 Z" fill="#000000" fill-rule="nonzero" fill-opacity="1" /><path clip-path="url(#clip370)" d="M663.362 470.185 L663.362 474.167 Q661.556 473.171 659.727 472.685 Q657.922 472.176 656.07 472.176 Q651.927 472.176 649.635 474.815 Q647.343 477.431 647.343 482.176 Q647.343 486.921 649.635 489.56 Q651.927 492.176 656.07 492.176 Q657.922 492.176 659.727 491.69 Q661.556 491.181 663.362 490.185 L663.362 494.12 Q661.579 494.954 659.658 495.37 Q657.76 495.787 655.607 495.787 Q649.751 495.787 646.302 492.106 Q642.853 488.426 642.853 482.176 Q642.853 475.833 646.325 472.199 Q649.82 468.565 655.885 468.565 Q657.852 468.565 659.727 468.982 Q661.602 469.375 663.362 470.185 Z" fill="#000000" fill-rule="nonzero" fill-opacity="1" /><polyline clip-path="url(#clip370)" style="stroke:#ed5d92; stroke-linecap:round; stroke-linejoin:round; stroke-width:4; stroke-opacity:1; fill:none" stroke-dasharray="2, 4" points="270.976,529.676 416.216,529.676 "/>
<circle clip-path="url(#clip370)" cx="343.596" cy="529.676" r="20.1723" fill="#ed5d92" fill-rule="evenodd" fill-opacity="1" stroke="#000000" stroke-opacity="1" stroke-width="4.55111"/>
<path clip-path="url(#clip370)" d="M456.442 515.567 Q451.349 515.567 448.34 519.363 Q445.354 523.16 445.354 529.71 Q445.354 536.238 448.34 540.034 Q451.349 543.831 456.442 543.831 Q461.534 543.831 464.497 540.034 Q467.483 536.238 467.483 529.71 Q467.483 523.16 464.497 519.363 Q461.534 515.567 456.442 515.567 M462.992 546.331 L469.15 553.067 L463.502 553.067 L458.386 547.534 Q457.622 547.581 457.205 547.604 Q456.812 547.627 456.442 547.627 Q449.15 547.627 444.775 542.766 Q440.423 537.882 440.423 529.71 Q440.423 521.516 444.775 516.655 Q449.15 511.771 456.442 511.771 Q463.71 511.771 468.062 516.655 Q472.414 521.516 472.414 529.71 Q472.414 535.729 469.983 540.011 Q467.576 544.294 462.992 546.331 Z" fill="#000000" fill-rule="nonzero" fill-opacity="1" /><path clip-path="url(#clip370)" d="M479.728 512.396 L486.025 512.396 L501.349 541.308 L501.349 512.396 L505.886 512.396 L505.886 546.956 L499.589 546.956 L484.265 518.044 L484.265 546.956 L479.728 546.956 L479.728 512.396 Z" fill="#000000" fill-rule="nonzero" fill-opacity="1" /><path clip-path="url(#clip370)" d="M519.867 516.238 L519.867 543.113 L525.515 543.113 Q532.668 543.113 535.978 539.872 Q539.311 536.632 539.311 529.641 Q539.311 522.697 535.978 519.479 Q532.668 516.238 525.515 516.238 L519.867 516.238 M515.191 512.396 L524.798 512.396 Q534.844 512.396 539.543 516.586 Q544.242 520.752 544.242 529.641 Q544.242 538.576 539.52 542.766 Q534.798 546.956 524.798 546.956 L515.191 546.956 L515.191 512.396 Z" fill="#000000" fill-rule="nonzero" fill-opacity="1" /><path clip-path="url(#clip370)" d="M551.696 512.396 L571.557 512.396 L571.557 516.331 L556.372 516.331 L556.372 526.516 L570.075 526.516 L570.075 530.451 L556.372 530.451 L556.372 546.956 L551.696 546.956 L551.696 512.396 Z" fill="#000000" fill-rule="nonzero" fill-opacity="1" /><path clip-path="url(#clip370)" d="M598.478 554.826 L598.478 558.136 L573.848 558.136 L573.848 554.826 L598.478 554.826 Z" fill="#000000" fill-rule="nonzero" fill-opacity="1" /><path clip-path="url(#clip370)" d="M606.603 543.067 L606.603 556.817 L602.32 556.817 L602.32 521.03 L606.603 521.03 L606.603 524.965 Q607.945 522.65 609.982 521.539 Q612.043 520.405 614.89 520.405 Q619.612 520.405 622.552 524.155 Q625.515 527.905 625.515 534.016 Q625.515 540.127 622.552 543.877 Q619.612 547.627 614.89 547.627 Q612.043 547.627 609.982 546.516 Q607.945 545.382 606.603 543.067 M621.093 534.016 Q621.093 529.317 619.149 526.655 Q617.228 523.97 613.848 523.97 Q610.468 523.97 608.524 526.655 Q606.603 529.317 606.603 534.016 Q606.603 538.715 608.524 541.4 Q610.468 544.062 613.848 544.062 Q617.228 544.062 619.149 541.4 Q621.093 538.715 621.093 534.016 Z" fill="#000000" fill-rule="nonzero" fill-opacity="1" /><path clip-path="url(#clip370)" d="M647.598 525.011 Q646.88 524.595 646.024 524.41 Q645.191 524.201 644.172 524.201 Q640.561 524.201 638.616 526.562 Q636.695 528.9 636.695 533.298 L636.695 546.956 L632.413 546.956 L632.413 521.03 L636.695 521.03 L636.695 525.058 Q638.038 522.697 640.191 521.562 Q642.343 520.405 645.422 520.405 Q645.862 520.405 646.394 520.474 Q646.927 520.521 647.575 520.636 L647.598 525.011 Z" fill="#000000" fill-rule="nonzero" fill-opacity="1" /><path clip-path="url(#clip370)" d="M673.2 532.928 L673.2 535.011 L653.616 535.011 Q653.894 539.409 656.255 541.724 Q658.64 544.016 662.876 544.016 Q665.329 544.016 667.621 543.414 Q669.936 542.812 672.204 541.609 L672.204 545.636 Q669.913 546.608 667.505 547.118 Q665.098 547.627 662.621 547.627 Q656.417 547.627 652.783 544.016 Q649.172 540.405 649.172 534.247 Q649.172 527.882 652.598 524.155 Q656.047 520.405 661.88 520.405 Q667.112 520.405 670.144 523.785 Q673.2 527.141 673.2 532.928 M668.94 531.678 Q668.894 528.183 666.973 526.099 Q665.075 524.016 661.927 524.016 Q658.362 524.016 656.209 526.03 Q654.079 528.044 653.755 531.701 L668.94 531.678 Z" fill="#000000" fill-rule="nonzero" fill-opacity="1" /><path clip-path="url(#clip370)" d="M698.848 522.025 L698.848 526.007 Q697.042 525.011 695.213 524.525 Q693.408 524.016 691.556 524.016 Q687.413 524.016 685.121 526.655 Q682.829 529.271 682.829 534.016 Q682.829 538.761 685.121 541.4 Q687.413 544.016 691.556 544.016 Q693.408 544.016 695.213 543.53 Q697.042 543.021 698.848 542.025 L698.848 545.96 Q697.065 546.794 695.144 547.21 Q693.246 547.627 691.093 547.627 Q685.237 547.627 681.788 543.946 Q678.338 540.266 678.338 534.016 Q678.338 527.673 681.811 524.039 Q685.306 520.405 691.371 520.405 Q693.338 520.405 695.213 520.822 Q697.088 521.215 698.848 522.025 Z" fill="#000000" fill-rule="nonzero" fill-opacity="1" /><polyline clip-path="url(#clip370)" style="stroke:#c68125; stroke-linecap:round; stroke-linejoin:round; stroke-width:4; stroke-opacity:1; fill:none" stroke-dasharray="2, 4" points="270.976,581.516 416.216,581.516 "/>
<circle clip-path="url(#clip370)" cx="343.596" cy="581.516" r="20.1723" fill="#c68125" fill-rule="evenodd" fill-opacity="1" stroke="#000000" stroke-opacity="1" stroke-width="4.55111"/>
<path clip-path="url(#clip370)" d="M456.442 567.407 Q451.349 567.407 448.34 571.203 Q445.354 575 445.354 581.55 Q445.354 588.078 448.34 591.874 Q451.349 595.671 456.442 595.671 Q461.534 595.671 464.497 591.874 Q467.483 588.078 467.483 581.55 Q467.483 575 464.497 571.203 Q461.534 567.407 456.442 567.407 M462.992 598.171 L469.15 604.907 L463.502 604.907 L458.386 599.374 Q457.622 599.421 457.205 599.444 Q456.812 599.467 456.442 599.467 Q449.15 599.467 444.775 594.606 Q440.423 589.722 440.423 581.55 Q440.423 573.356 444.775 568.495 Q449.15 563.611 456.442 563.611 Q463.71 563.611 468.062 568.495 Q472.414 573.356 472.414 581.55 Q472.414 587.569 469.983 591.851 Q467.576 596.134 462.992 598.171 Z" fill="#000000" fill-rule="nonzero" fill-opacity="1" /><path clip-path="url(#clip370)" d="M479.728 564.236 L486.025 564.236 L501.349 593.148 L501.349 564.236 L505.886 564.236 L505.886 598.796 L499.589 598.796 L484.265 569.884 L484.265 598.796 L479.728 598.796 L479.728 564.236 Z" fill="#000000" fill-rule="nonzero" fill-opacity="1" /><path clip-path="url(#clip370)" d="M519.867 568.078 L519.867 594.953 L525.515 594.953 Q532.668 594.953 535.978 591.712 Q539.311 588.472 539.311 581.481 Q539.311 574.537 535.978 571.319 Q532.668 568.078 525.515 568.078 L519.867 568.078 M515.191 564.236 L524.798 564.236 Q534.844 564.236 539.543 568.426 Q544.242 572.592 544.242 581.481 Q544.242 590.416 539.52 594.606 Q534.798 598.796 524.798 598.796 L515.191 598.796 L515.191 564.236 Z" fill="#000000" fill-rule="nonzero" fill-opacity="1" /><path clip-path="url(#clip370)" d="M551.696 564.236 L571.557 564.236 L571.557 568.171 L556.372 568.171 L556.372 578.356 L570.075 578.356 L570.075 582.291 L556.372 582.291 L556.372 598.796 L551.696 598.796 L551.696 564.236 Z" fill="#000000" fill-rule="nonzero" fill-opacity="1" /><path clip-path="url(#clip370)" d="M598.478 606.666 L598.478 609.976 L573.848 609.976 L573.848 606.666 L598.478 606.666 Z" fill="#000000" fill-rule="nonzero" fill-opacity="1" /><path clip-path="url(#clip370)" d="M606.603 594.907 L606.603 608.657 L602.32 608.657 L602.32 572.87 L606.603 572.87 L606.603 576.805 Q607.945 574.49 609.982 573.379 Q612.043 572.245 614.89 572.245 Q619.612 572.245 622.552 575.995 Q625.515 579.745 625.515 585.856 Q625.515 591.967 622.552 595.717 Q619.612 599.467 614.89 599.467 Q612.043 599.467 609.982 598.356 Q607.945 597.222 606.603 594.907 M621.093 585.856 Q621.093 581.157 619.149 578.495 Q617.228 575.81 613.848 575.81 Q610.468 575.81 608.524 578.495 Q606.603 581.157 606.603 585.856 Q606.603 590.555 608.524 593.24 Q610.468 595.902 613.848 595.902 Q617.228 595.902 619.149 593.24 Q621.093 590.555 621.093 585.856 Z" fill="#000000" fill-rule="nonzero" fill-opacity="1" /><path clip-path="url(#clip370)" d="M647.598 576.851 Q646.88 576.435 646.024 576.25 Q645.191 576.041 644.172 576.041 Q640.561 576.041 638.616 578.402 Q636.695 580.74 636.695 585.138 L636.695 598.796 L632.413 598.796 L632.413 572.87 L636.695 572.87 L636.695 576.898 Q638.038 574.537 640.191 573.402 Q642.343 572.245 645.422 572.245 Q645.862 572.245 646.394 572.314 Q646.927 572.361 647.575 572.476 L647.598 576.851 Z" fill="#000000" fill-rule="nonzero" fill-opacity="1" /><path clip-path="url(#clip370)" d="M673.2 584.768 L673.2 586.851 L653.616 586.851 Q653.894 591.249 656.255 593.564 Q658.64 595.856 662.876 595.856 Q665.329 595.856 667.621 595.254 Q669.936 594.652 672.204 593.449 L672.204 597.476 Q669.913 598.448 667.505 598.958 Q665.098 599.467 662.621 599.467 Q656.417 599.467 652.783 595.856 Q649.172 592.245 649.172 586.087 Q649.172 579.722 652.598 575.995 Q656.047 572.245 661.88 572.245 Q667.112 572.245 670.144 575.625 Q673.2 578.981 673.2 584.768 M668.94 583.518 Q668.894 580.023 666.973 577.939 Q665.075 575.856 661.927 575.856 Q658.362 575.856 656.209 577.87 Q654.079 579.884 653.755 583.541 L668.94 583.518 Z" fill="#000000" fill-rule="nonzero" fill-opacity="1" /><path clip-path="url(#clip370)" d="M698.848 573.865 L698.848 577.847 Q697.042 576.851 695.213 576.365 Q693.408 575.856 691.556 575.856 Q687.413 575.856 685.121 578.495 Q682.829 581.111 682.829 585.856 Q682.829 590.601 685.121 593.24 Q687.413 595.856 691.556 595.856 Q693.408 595.856 695.213 595.37 Q697.042 594.861 698.848 593.865 L698.848 597.8 Q697.065 598.634 695.144 599.05 Q693.246 599.467 691.093 599.467 Q685.237 599.467 681.788 595.786 Q678.338 592.106 678.338 585.856 Q678.338 579.513 681.811 575.879 Q685.306 572.245 691.371 572.245 Q693.338 572.245 695.213 572.662 Q697.088 573.055 698.848 573.865 Z" fill="#000000" fill-rule="nonzero" fill-opacity="1" /><path clip-path="url(#clip370)" d="M706.44 564.236 L711.116 564.236 L711.116 596.388 Q711.116 602.638 708.732 605.462 Q706.371 608.286 701.116 608.286 L699.334 608.286 L699.334 604.351 L700.792 604.351 Q703.894 604.351 705.167 602.615 Q706.44 600.879 706.44 596.388 L706.44 564.236 Z" fill="#000000" fill-rule="nonzero" fill-opacity="1" /><path clip-path="url(#clip370)" d="M732.019 585.763 Q726.857 585.763 724.866 586.944 Q722.875 588.124 722.875 590.972 Q722.875 593.24 724.357 594.583 Q725.861 595.902 728.431 595.902 Q731.972 595.902 734.102 593.402 Q736.255 590.879 736.255 586.712 L736.255 585.763 L732.019 585.763 M740.514 584.004 L740.514 598.796 L736.255 598.796 L736.255 594.861 Q734.797 597.222 732.621 598.356 Q730.445 599.467 727.297 599.467 Q723.315 599.467 720.954 597.245 Q718.616 594.999 718.616 591.249 Q718.616 586.874 721.533 584.652 Q724.473 582.43 730.283 582.43 L736.255 582.43 L736.255 582.013 Q736.255 579.074 734.31 577.476 Q732.389 575.856 728.894 575.856 Q726.672 575.856 724.565 576.388 Q722.459 576.921 720.514 577.986 L720.514 574.05 Q722.852 573.148 725.051 572.708 Q727.25 572.245 729.334 572.245 Q734.959 572.245 737.736 575.162 Q740.514 578.078 740.514 584.004 Z" fill="#000000" fill-rule="nonzero" fill-opacity="1" /><path clip-path="url(#clip370)" d="M767.944 573.865 L767.944 577.847 Q766.139 576.851 764.31 576.365 Q762.505 575.856 760.653 575.856 Q756.509 575.856 754.218 578.495 Q751.926 581.111 751.926 585.856 Q751.926 590.601 754.218 593.24 Q756.509 595.856 760.653 595.856 Q762.505 595.856 764.31 595.37 Q766.139 594.861 767.944 593.865 L767.944 597.8 Q766.162 598.634 764.241 599.05 Q762.343 599.467 760.19 599.467 Q754.333 599.467 750.884 595.786 Q747.435 592.106 747.435 585.856 Q747.435 579.513 750.908 575.879 Q754.403 572.245 760.468 572.245 Q762.435 572.245 764.31 572.662 Q766.185 573.055 767.944 573.865 Z" fill="#000000" fill-rule="nonzero" fill-opacity="1" /><polyline clip-path="url(#clip370)" style="stroke:#00a98d; stroke-linecap:round; stroke-linejoin:round; stroke-width:4; stroke-opacity:1; fill:none" stroke-dasharray="2, 4" points="270.976,633.356 416.216,633.356 "/>
<circle clip-path="url(#clip370)" cx="343.596" cy="633.356" r="20.1723" fill="#00a98d" fill-rule="evenodd" fill-opacity="1" stroke="#000000" stroke-opacity="1" stroke-width="4.55111"/>
<path clip-path="url(#clip370)" d="M456.442 619.247 Q451.349 619.247 448.34 623.043 Q445.354 626.84 445.354 633.39 Q445.354 639.918 448.34 643.714 Q451.349 647.511 456.442 647.511 Q461.534 647.511 464.497 643.714 Q467.483 639.918 467.483 633.39 Q467.483 626.84 464.497 623.043 Q461.534 619.247 456.442 619.247 M462.992 650.011 L469.15 656.747 L463.502 656.747 L458.386 651.214 Q457.622 651.261 457.205 651.284 Q456.812 651.307 456.442 651.307 Q449.15 651.307 444.775 646.446 Q440.423 641.562 440.423 633.39 Q440.423 625.196 444.775 620.335 Q449.15 615.451 456.442 615.451 Q463.71 615.451 468.062 620.335 Q472.414 625.196 472.414 633.39 Q472.414 639.409 469.983 643.691 Q467.576 647.974 462.992 650.011 Z" fill="#000000" fill-rule="nonzero" fill-opacity="1" /><path clip-path="url(#clip370)" d="M484.404 634.131 L484.404 646.793 L491.904 646.793 Q495.677 646.793 497.483 645.242 Q499.312 643.668 499.312 640.451 Q499.312 637.21 497.483 635.682 Q495.677 634.131 491.904 634.131 L484.404 634.131 M484.404 619.918 L484.404 630.335 L491.326 630.335 Q494.752 630.335 496.418 629.062 Q498.108 627.765 498.108 625.127 Q498.108 622.511 496.418 621.215 Q494.752 619.918 491.326 619.918 L484.404 619.918 M479.728 616.076 L491.673 616.076 Q497.02 616.076 499.914 618.298 Q502.807 620.52 502.807 624.617 Q502.807 627.789 501.326 629.664 Q499.844 631.539 496.974 632.002 Q500.423 632.742 502.321 635.103 Q504.242 637.441 504.242 640.96 Q504.242 645.589 501.094 648.113 Q497.946 650.636 492.136 650.636 L479.728 650.636 L479.728 616.076 Z" fill="#000000" fill-rule="nonzero" fill-opacity="1" /><path clip-path="url(#clip370)" d="M516.927 619.918 L516.927 646.793 L522.575 646.793 Q529.728 646.793 533.038 643.552 Q536.372 640.312 536.372 633.321 Q536.372 626.377 533.038 623.159 Q529.728 619.918 522.575 619.918 L516.927 619.918 M512.251 616.076 L521.858 616.076 Q531.904 616.076 536.603 620.266 Q541.302 624.432 541.302 633.321 Q541.302 642.256 536.58 646.446 Q531.858 650.636 521.858 650.636 L512.251 650.636 L512.251 616.076 Z" fill="#000000" fill-rule="nonzero" fill-opacity="1" /><path clip-path="url(#clip370)" d="M548.756 616.076 L568.617 616.076 L568.617 620.011 L553.432 620.011 L553.432 630.196 L567.135 630.196 L567.135 634.131 L553.432 634.131 L553.432 650.636 L548.756 650.636 L548.756 616.076 Z" fill="#000000" fill-rule="nonzero" fill-opacity="1" /><polyline clip-path="url(#clip370)" style="stroke:#8e971d; stroke-linecap:round; stroke-linejoin:round; stroke-width:4; stroke-opacity:1; fill:none" stroke-dasharray="2, 4" points="270.976,685.196 416.216,685.196 "/>
<circle clip-path="url(#clip370)" cx="343.596" cy="685.196" r="20.1723" fill="#8e971d" fill-rule="evenodd" fill-opacity="1" stroke="#000000" stroke-opacity="1" stroke-width="4.55111"/>
<path clip-path="url(#clip370)" d="M456.442 671.087 Q451.349 671.087 448.34 674.883 Q445.354 678.68 445.354 685.23 Q445.354 691.758 448.34 695.554 Q451.349 699.351 456.442 699.351 Q461.534 699.351 464.497 695.554 Q467.483 691.758 467.483 685.23 Q467.483 678.68 464.497 674.883 Q461.534 671.087 456.442 671.087 M462.992 701.851 L469.15 708.587 L463.502 708.587 L458.386 703.054 Q457.622 703.101 457.205 703.124 Q456.812 703.147 456.442 703.147 Q449.15 703.147 444.775 698.286 Q440.423 693.402 440.423 685.23 Q440.423 677.036 444.775 672.175 Q449.15 667.291 456.442 667.291 Q463.71 667.291 468.062 672.175 Q472.414 677.036 472.414 685.23 Q472.414 691.249 469.983 695.531 Q467.576 699.814 462.992 701.851 Z" fill="#000000" fill-rule="nonzero" fill-opacity="1" /><path clip-path="url(#clip370)" d="M484.404 685.971 L484.404 698.633 L491.904 698.633 Q495.677 698.633 497.483 697.082 Q499.312 695.508 499.312 692.291 Q499.312 689.05 497.483 687.522 Q495.677 685.971 491.904 685.971 L484.404 685.971 M484.404 671.758 L484.404 682.175 L491.326 682.175 Q494.752 682.175 496.418 680.902 Q498.108 679.605 498.108 676.967 Q498.108 674.351 496.418 673.055 Q494.752 671.758 491.326 671.758 L484.404 671.758 M479.728 667.916 L491.673 667.916 Q497.02 667.916 499.914 670.138 Q502.807 672.36 502.807 676.457 Q502.807 679.629 501.326 681.504 Q499.844 683.379 496.974 683.842 Q500.423 684.582 502.321 686.943 Q504.242 689.281 504.242 692.8 Q504.242 697.429 501.094 699.953 Q497.946 702.476 492.136 702.476 L479.728 702.476 L479.728 667.916 Z" fill="#000000" fill-rule="nonzero" fill-opacity="1" /><path clip-path="url(#clip370)" d="M516.927 671.758 L516.927 698.633 L522.575 698.633 Q529.728 698.633 533.038 695.392 Q536.372 692.152 536.372 685.161 Q536.372 678.217 533.038 674.999 Q529.728 671.758 522.575 671.758 L516.927 671.758 M512.251 667.916 L521.858 667.916 Q531.904 667.916 536.603 672.106 Q541.302 676.272 541.302 685.161 Q541.302 694.096 536.58 698.286 Q531.858 702.476 521.858 702.476 L512.251 702.476 L512.251 667.916 Z" fill="#000000" fill-rule="nonzero" fill-opacity="1" /><path clip-path="url(#clip370)" d="M548.756 667.916 L568.617 667.916 L568.617 671.851 L553.432 671.851 L553.432 682.036 L567.135 682.036 L567.135 685.971 L553.432 685.971 L553.432 702.476 L548.756 702.476 L548.756 667.916 Z" fill="#000000" fill-rule="nonzero" fill-opacity="1" /><path clip-path="url(#clip370)" d="M595.538 710.346 L595.538 713.656 L570.909 713.656 L570.909 710.346 L595.538 710.346 Z" fill="#000000" fill-rule="nonzero" fill-opacity="1" /><path clip-path="url(#clip370)" d="M599.543 676.55 L603.802 676.55 L603.802 702.939 Q603.802 707.892 601.904 710.115 Q600.029 712.337 595.839 712.337 L594.219 712.337 L594.219 708.726 L595.353 708.726 Q597.783 708.726 598.663 707.591 Q599.543 706.48 599.543 702.939 L599.543 676.55 M599.543 666.457 L603.802 666.457 L603.802 671.851 L599.543 671.851 L599.543 666.457 Z" fill="#000000" fill-rule="nonzero" fill-opacity="1" /><path clip-path="url(#clip370)" d="M624.496 689.443 Q619.334 689.443 617.343 690.624 Q615.353 691.804 615.353 694.652 Q615.353 696.92 616.834 698.263 Q618.339 699.582 620.908 699.582 Q624.45 699.582 626.58 697.082 Q628.732 694.559 628.732 690.392 L628.732 689.443 L624.496 689.443 M632.992 687.684 L632.992 702.476 L628.732 702.476 L628.732 698.541 Q627.274 700.902 625.098 702.036 Q622.922 703.147 619.774 703.147 Q615.793 703.147 613.431 700.925 Q611.093 698.679 611.093 694.929 Q611.093 690.554 614.01 688.332 Q616.95 686.11 622.76 686.11 L628.732 686.11 L628.732 685.693 Q628.732 682.754 626.788 681.156 Q624.867 679.536 621.371 679.536 Q619.149 679.536 617.043 680.068 Q614.936 680.601 612.992 681.666 L612.992 677.73 Q615.33 676.828 617.529 676.388 Q619.728 675.925 621.811 675.925 Q627.436 675.925 630.214 678.842 Q632.992 681.758 632.992 687.684 Z" fill="#000000" fill-rule="nonzero" fill-opacity="1" /><path clip-path="url(#clip370)" d="M660.422 677.545 L660.422 681.527 Q658.616 680.531 656.788 680.045 Q654.982 679.536 653.13 679.536 Q648.987 679.536 646.695 682.175 Q644.403 684.791 644.403 689.536 Q644.403 694.281 646.695 696.92 Q648.987 699.536 653.13 699.536 Q654.982 699.536 656.788 699.05 Q658.616 698.541 660.422 697.545 L660.422 701.48 Q658.64 702.314 656.718 702.73 Q654.82 703.147 652.667 703.147 Q646.811 703.147 643.362 699.466 Q639.913 695.786 639.913 689.536 Q639.913 683.193 643.385 679.559 Q646.88 675.925 652.945 675.925 Q654.913 675.925 656.788 676.342 Q658.663 676.735 660.422 677.545 Z" fill="#000000" fill-rule="nonzero" fill-opacity="1" /><polyline clip-path="url(#clip370)" style="stroke:#00a8cb; stroke-linecap:round; stroke-linejoin:round; stroke-width:4; stroke-opacity:1; fill:none" stroke-dasharray="2, 4" points="270.976,737.036 416.216,737.036 "/>
<circle clip-path="url(#clip370)" cx="343.596" cy="737.036" r="20.1723" fill="#00a8cb" fill-rule="evenodd" fill-opacity="1" stroke="#000000" stroke-opacity="1" stroke-width="4.55111"/>
<path clip-path="url(#clip370)" d="M456.442 722.927 Q451.349 722.927 448.34 726.723 Q445.354 730.52 445.354 737.07 Q445.354 743.598 448.34 747.394 Q451.349 751.191 456.442 751.191 Q461.534 751.191 464.497 747.394 Q467.483 743.598 467.483 737.07 Q467.483 730.52 464.497 726.723 Q461.534 722.927 456.442 722.927 M462.992 753.691 L469.15 760.427 L463.502 760.427 L458.386 754.894 Q457.622 754.941 457.205 754.964 Q456.812 754.987 456.442 754.987 Q449.15 754.987 444.775 750.126 Q440.423 745.242 440.423 737.07 Q440.423 728.876 444.775 724.015 Q449.15 719.131 456.442 719.131 Q463.71 719.131 468.062 724.015 Q472.414 728.876 472.414 737.07 Q472.414 743.089 469.983 747.371 Q467.576 751.654 462.992 753.691 Z" fill="#000000" fill-rule="nonzero" fill-opacity="1" /><path clip-path="url(#clip370)" d="M484.404 737.811 L484.404 750.473 L491.904 750.473 Q495.677 750.473 497.483 748.922 Q499.312 747.348 499.312 744.131 Q499.312 740.89 497.483 739.362 Q495.677 737.811 491.904 737.811 L484.404 737.811 M484.404 723.598 L484.404 734.015 L491.326 734.015 Q494.752 734.015 496.418 732.742 Q498.108 731.445 498.108 728.807 Q498.108 726.191 496.418 724.895 Q494.752 723.598 491.326 723.598 L484.404 723.598 M479.728 719.756 L491.673 719.756 Q497.02 719.756 499.914 721.978 Q502.807 724.2 502.807 728.297 Q502.807 731.469 501.326 733.344 Q499.844 735.219 496.974 735.682 Q500.423 736.422 502.321 738.783 Q504.242 741.121 504.242 744.64 Q504.242 749.269 501.094 751.793 Q497.946 754.316 492.136 754.316 L479.728 754.316 L479.728 719.756 Z" fill="#000000" fill-rule="nonzero" fill-opacity="1" /><path clip-path="url(#clip370)" d="M516.927 723.598 L516.927 750.473 L522.575 750.473 Q529.728 750.473 533.038 747.232 Q536.372 743.992 536.372 737.001 Q536.372 730.057 533.038 726.839 Q529.728 723.598 522.575 723.598 L516.927 723.598 M512.251 719.756 L521.858 719.756 Q531.904 719.756 536.603 723.946 Q541.302 728.112 541.302 737.001 Q541.302 745.936 536.58 750.126 Q531.858 754.316 521.858 754.316 L512.251 754.316 L512.251 719.756 Z" fill="#000000" fill-rule="nonzero" fill-opacity="1" /><path clip-path="url(#clip370)" d="M548.756 719.756 L568.617 719.756 L568.617 723.691 L553.432 723.691 L553.432 733.876 L567.135 733.876 L567.135 737.811 L553.432 737.811 L553.432 754.316 L548.756 754.316 L548.756 719.756 Z" fill="#000000" fill-rule="nonzero" fill-opacity="1" /><path clip-path="url(#clip370)" d="M595.538 762.186 L595.538 765.496 L570.909 765.496 L570.909 762.186 L595.538 762.186 Z" fill="#000000" fill-rule="nonzero" fill-opacity="1" /><path clip-path="url(#clip370)" d="M603.663 750.427 L603.663 764.177 L599.381 764.177 L599.381 728.39 L603.663 728.39 L603.663 732.325 Q605.006 730.01 607.043 728.899 Q609.103 727.765 611.95 727.765 Q616.672 727.765 619.612 731.515 Q622.575 735.265 622.575 741.376 Q622.575 747.487 619.612 751.237 Q616.672 754.987 611.95 754.987 Q609.103 754.987 607.043 753.876 Q605.006 752.742 603.663 750.427 M618.154 741.376 Q618.154 736.677 616.209 734.015 Q614.288 731.33 610.908 731.33 Q607.529 731.33 605.584 734.015 Q603.663 736.677 603.663 741.376 Q603.663 746.075 605.584 748.76 Q607.529 751.422 610.908 751.422 Q614.288 751.422 616.209 748.76 Q618.154 746.075 618.154 741.376 Z" fill="#000000" fill-rule="nonzero" fill-opacity="1" /><path clip-path="url(#clip370)" d="M644.658 732.371 Q643.941 731.955 643.084 731.77 Q642.251 731.561 641.232 731.561 Q637.621 731.561 635.677 733.922 Q633.755 736.26 633.755 740.658 L633.755 754.316 L629.473 754.316 L629.473 728.39 L633.755 728.39 L633.755 732.418 Q635.098 730.057 637.251 728.922 Q639.404 727.765 642.482 727.765 Q642.922 727.765 643.454 727.834 Q643.987 727.881 644.635 727.996 L644.658 732.371 Z" fill="#000000" fill-rule="nonzero" fill-opacity="1" /><path clip-path="url(#clip370)" d="M670.26 740.288 L670.26 742.371 L650.677 742.371 Q650.954 746.769 653.315 749.084 Q655.7 751.376 659.936 751.376 Q662.39 751.376 664.681 750.774 Q666.996 750.172 669.264 748.969 L669.264 752.996 Q666.973 753.968 664.565 754.478 Q662.158 754.987 659.681 754.987 Q653.478 754.987 649.843 751.376 Q646.232 747.765 646.232 741.607 Q646.232 735.242 649.658 731.515 Q653.107 727.765 658.94 727.765 Q664.172 727.765 667.204 731.145 Q670.26 734.501 670.26 740.288 M666.001 739.038 Q665.954 735.543 664.033 733.459 Q662.135 731.376 658.987 731.376 Q655.422 731.376 653.269 733.39 Q651.14 735.404 650.815 739.061 L666.001 739.038 Z" fill="#000000" fill-rule="nonzero" fill-opacity="1" /><path clip-path="url(#clip370)" d="M695.908 729.385 L695.908 733.367 Q694.102 732.371 692.274 731.885 Q690.468 731.376 688.616 731.376 Q684.473 731.376 682.181 734.015 Q679.889 736.631 679.889 741.376 Q679.889 746.121 682.181 748.76 Q684.473 751.376 688.616 751.376 Q690.468 751.376 692.274 750.89 Q694.102 750.381 695.908 749.385 L695.908 753.32 Q694.125 754.154 692.204 754.57 Q690.306 754.987 688.153 754.987 Q682.297 754.987 678.848 751.306 Q675.399 747.626 675.399 741.376 Q675.399 735.033 678.871 731.399 Q682.366 727.765 688.431 727.765 Q690.399 727.765 692.274 728.182 Q694.149 728.575 695.908 729.385 Z" fill="#000000" fill-rule="nonzero" fill-opacity="1" /><polyline clip-path="url(#clip370)" style="stroke:#9b7fe8; stroke-linecap:round; stroke-linejoin:round; stroke-width:4; stroke-opacity:1; fill:none" stroke-dasharray="2, 4" points="270.976,788.876 416.216,788.876 "/>
<circle clip-path="url(#clip370)" cx="343.596" cy="788.876" r="20.1723" fill="#9b7fe8" fill-rule="evenodd" fill-opacity="1" stroke="#000000" stroke-opacity="1" stroke-width="4.55111"/>
<path clip-path="url(#clip370)" d="M456.442 774.767 Q451.349 774.767 448.34 778.563 Q445.354 782.36 445.354 788.91 Q445.354 795.438 448.34 799.234 Q451.349 803.031 456.442 803.031 Q461.534 803.031 464.497 799.234 Q467.483 795.438 467.483 788.91 Q467.483 782.36 464.497 778.563 Q461.534 774.767 456.442 774.767 M462.992 805.531 L469.15 812.267 L463.502 812.267 L458.386 806.734 Q457.622 806.781 457.205 806.804 Q456.812 806.827 456.442 806.827 Q449.15 806.827 444.775 801.966 Q440.423 797.082 440.423 788.91 Q440.423 780.716 444.775 775.855 Q449.15 770.971 456.442 770.971 Q463.71 770.971 468.062 775.855 Q472.414 780.716 472.414 788.91 Q472.414 794.929 469.983 799.211 Q467.576 803.494 462.992 805.531 Z" fill="#000000" fill-rule="nonzero" fill-opacity="1" /><path clip-path="url(#clip370)" d="M484.404 789.651 L484.404 802.313 L491.904 802.313 Q495.677 802.313 497.483 800.762 Q499.312 799.188 499.312 795.971 Q499.312 792.73 497.483 791.202 Q495.677 789.651 491.904 789.651 L484.404 789.651 M484.404 775.438 L484.404 785.855 L491.326 785.855 Q494.752 785.855 496.418 784.582 Q498.108 783.285 498.108 780.647 Q498.108 778.031 496.418 776.735 Q494.752 775.438 491.326 775.438 L484.404 775.438 M479.728 771.596 L491.673 771.596 Q497.02 771.596 499.914 773.818 Q502.807 776.04 502.807 780.137 Q502.807 783.309 501.326 785.184 Q499.844 787.059 496.974 787.522 Q500.423 788.262 502.321 790.623 Q504.242 792.961 504.242 796.48 Q504.242 801.109 501.094 803.633 Q497.946 806.156 492.136 806.156 L479.728 806.156 L479.728 771.596 Z" fill="#000000" fill-rule="nonzero" fill-opacity="1" /><path clip-path="url(#clip370)" d="M516.927 775.438 L516.927 802.313 L522.575 802.313 Q529.728 802.313 533.038 799.072 Q536.372 795.832 536.372 788.841 Q536.372 781.897 533.038 778.679 Q529.728 775.438 522.575 775.438 L516.927 775.438 M512.251 771.596 L521.858 771.596 Q531.904 771.596 536.603 775.786 Q541.302 779.952 541.302 788.841 Q541.302 797.776 536.58 801.966 Q531.858 806.156 521.858 806.156 L512.251 806.156 L512.251 771.596 Z" fill="#000000" fill-rule="nonzero" fill-opacity="1" /><path clip-path="url(#clip370)" d="M548.756 771.596 L568.617 771.596 L568.617 775.531 L553.432 775.531 L553.432 785.716 L567.135 785.716 L567.135 789.651 L553.432 789.651 L553.432 806.156 L548.756 806.156 L548.756 771.596 Z" fill="#000000" fill-rule="nonzero" fill-opacity="1" /><path clip-path="url(#clip370)" d="M595.538 814.026 L595.538 817.336 L570.909 817.336 L570.909 814.026 L595.538 814.026 Z" fill="#000000" fill-rule="nonzero" fill-opacity="1" /><path clip-path="url(#clip370)" d="M603.663 802.267 L603.663 816.017 L599.381 816.017 L599.381 780.23 L603.663 780.23 L603.663 784.165 Q605.006 781.85 607.043 780.739 Q609.103 779.605 611.95 779.605 Q616.672 779.605 619.612 783.355 Q622.575 787.105 622.575 793.216 Q622.575 799.327 619.612 803.077 Q616.672 806.827 611.95 806.827 Q609.103 806.827 607.043 805.716 Q605.006 804.582 603.663 802.267 M618.154 793.216 Q618.154 788.517 616.209 785.855 Q614.288 783.17 610.908 783.17 Q607.529 783.17 605.584 785.855 Q603.663 788.517 603.663 793.216 Q603.663 797.915 605.584 800.6 Q607.529 803.262 610.908 803.262 Q614.288 803.262 616.209 800.6 Q618.154 797.915 618.154 793.216 Z" fill="#000000" fill-rule="nonzero" fill-opacity="1" /><path clip-path="url(#clip370)" d="M644.658 784.211 Q643.941 783.795 643.084 783.61 Q642.251 783.401 641.232 783.401 Q637.621 783.401 635.677 785.762 Q633.755 788.1 633.755 792.498 L633.755 806.156 L629.473 806.156 L629.473 780.23 L633.755 780.23 L633.755 784.258 Q635.098 781.897 637.251 780.762 Q639.404 779.605 642.482 779.605 Q642.922 779.605 643.454 779.674 Q643.987 779.721 644.635 779.836 L644.658 784.211 Z" fill="#000000" fill-rule="nonzero" fill-opacity="1" /><path clip-path="url(#clip370)" d="M670.26 792.128 L670.26 794.211 L650.677 794.211 Q650.954 798.609 653.315 800.924 Q655.7 803.216 659.936 803.216 Q662.39 803.216 664.681 802.614 Q666.996 802.012 669.264 800.809 L669.264 804.836 Q666.973 805.808 664.565 806.318 Q662.158 806.827 659.681 806.827 Q653.478 806.827 649.843 803.216 Q646.232 799.605 646.232 793.447 Q646.232 787.082 649.658 783.355 Q653.107 779.605 658.94 779.605 Q664.172 779.605 667.204 782.985 Q670.26 786.341 670.26 792.128 M666.001 790.878 Q665.954 787.383 664.033 785.299 Q662.135 783.216 658.987 783.216 Q655.422 783.216 653.269 785.23 Q651.14 787.244 650.815 790.901 L666.001 790.878 Z" fill="#000000" fill-rule="nonzero" fill-opacity="1" /><path clip-path="url(#clip370)" d="M695.908 781.225 L695.908 785.207 Q694.102 784.211 692.274 783.725 Q690.468 783.216 688.616 783.216 Q684.473 783.216 682.181 785.855 Q679.889 788.471 679.889 793.216 Q679.889 797.961 682.181 800.6 Q684.473 803.216 688.616 803.216 Q690.468 803.216 692.274 802.73 Q694.102 802.221 695.908 801.225 L695.908 805.16 Q694.125 805.994 692.204 806.41 Q690.306 806.827 688.153 806.827 Q682.297 806.827 678.848 803.146 Q675.399 799.466 675.399 793.216 Q675.399 786.873 678.871 783.239 Q682.366 779.605 688.431 779.605 Q690.399 779.605 692.274 780.022 Q694.149 780.415 695.908 781.225 Z" fill="#000000" fill-rule="nonzero" fill-opacity="1" /><path clip-path="url(#clip370)" d="M703.5 771.596 L708.176 771.596 L708.176 803.748 Q708.176 809.998 705.792 812.822 Q703.431 815.646 698.176 815.646 L696.394 815.646 L696.394 811.711 L697.852 811.711 Q700.954 811.711 702.227 809.975 Q703.5 808.239 703.5 803.748 L703.5 771.596 Z" fill="#000000" fill-rule="nonzero" fill-opacity="1" /><path clip-path="url(#clip370)" d="M729.079 793.123 Q723.917 793.123 721.926 794.304 Q719.935 795.484 719.935 798.332 Q719.935 800.6 721.417 801.943 Q722.922 803.262 725.491 803.262 Q729.033 803.262 731.162 800.762 Q733.315 798.239 733.315 794.072 L733.315 793.123 L729.079 793.123 M737.574 791.364 L737.574 806.156 L733.315 806.156 L733.315 802.221 Q731.857 804.582 729.681 805.716 Q727.505 806.827 724.357 806.827 Q720.375 806.827 718.014 804.605 Q715.676 802.359 715.676 798.609 Q715.676 794.234 718.593 792.012 Q721.533 789.79 727.343 789.79 L733.315 789.79 L733.315 789.373 Q733.315 786.434 731.371 784.836 Q729.449 783.216 725.954 783.216 Q723.732 783.216 721.625 783.748 Q719.519 784.281 717.574 785.346 L717.574 781.41 Q719.912 780.508 722.111 780.068 Q724.31 779.605 726.394 779.605 Q732.019 779.605 734.797 782.522 Q737.574 785.438 737.574 791.364 Z" fill="#000000" fill-rule="nonzero" fill-opacity="1" /><path clip-path="url(#clip370)" d="M765.005 781.225 L765.005 785.207 Q763.199 784.211 761.37 783.725 Q759.565 783.216 757.713 783.216 Q753.57 783.216 751.278 785.855 Q748.986 788.471 748.986 793.216 Q748.986 797.961 751.278 800.6 Q753.57 803.216 757.713 803.216 Q759.565 803.216 761.37 802.73 Q763.199 802.221 765.005 801.225 L765.005 805.16 Q763.222 805.994 761.301 806.41 Q759.403 806.827 757.25 806.827 Q751.394 806.827 747.945 803.146 Q744.496 799.466 744.496 793.216 Q744.496 786.873 747.968 783.239 Q751.463 779.605 757.528 779.605 Q759.495 779.605 761.37 780.022 Q763.245 780.415 765.005 781.225 Z" fill="#000000" fill-rule="nonzero" fill-opacity="1" /></svg>
